M48
;Layer_Color=9474304
;FILE_FORMAT=2:4
INCH,TZ
;TYPE=PLATED
T1F00S00C0.0098
T2F00S00C0.0118
T3F00S00C0.0120
T5F00S00C0.0315
T6F00S00C0.0354
T7F00S00C0.1260
;TYPE=NON_PLATED
T8F00S00C0.0236
%
T01
X10738Y3337
X13465Y4518
X13435Y5906
X13474Y7185
X14793Y4291
X8799Y6722
X9921Y15768
X9941Y16732
X9911Y17510
X10906Y17490
X10925Y16644
X10915Y15787
T02
X17339Y7267
X17713
X18087
T03
X449Y2759
X734Y3674
X1581Y3733
X1571Y5347
X837Y5207
X492Y5876
X886Y6388
X423Y6880
X728Y7362
X463Y7913
X1585Y7352
X1850Y7018
X4218Y7188
X4514Y7030
Y7345
Y7660
X5439Y6351
X5478Y5731
X6305Y6026
X6669Y5967
X6659Y5751
X4524Y5062
Y4767
Y4471
X4051Y4432
X4169Y4776
X4602Y2946
X4730Y1932
X4711Y1026
X6089Y1017
X6128Y1952
X6197Y2847
X7526Y2522
X7496Y1794
X7000Y1723
X8000
X8480Y1459
X8500Y2001
X8480Y2503
X8638Y3369
X8244
X7496Y3408
X9425Y3763
X9780Y3408
X10551Y3691
X10537Y4068
X9888Y4580
X8805Y4835
X9445Y5593
X9465Y5967
X9120Y6735
X9242Y7047
X10843Y7542
X11492
X11472Y7237
Y6942
Y6597
X11482Y6233
X11472Y5928
X11758Y5534
X12083Y5524
X12398Y5544
X12713
X13008
X13264
X13195Y4501
X13484Y4262
X14793Y4547
X14931Y4783
X15203Y4688
X15715Y3940
X15774Y5593
X15783Y5839
X15774Y6174
X14848Y5977
X14740Y5603
X14888Y7001
X14734Y7726
X13313Y7729
X13018Y7719
X12713Y7709
X12407
X12073Y7700
X11778
X13470Y7513
X13067Y6587
X11906Y5121
X11512Y2296
X11541Y1656
X12000Y1723
X12467Y1715
X13000Y1723
X13490Y1617
X14000Y1723
X13470Y2257
X12476Y2375
X12486Y1007
X13470Y997
X14730Y967
X15281Y869
X15311Y1735
X15321Y2424
X15045Y2788
X11000Y1723
X10000
X9524Y1912
X9514Y1400
X9000Y1723
X9524Y2444
X11522Y1066
X3136Y2719
X7614Y7778
X15921Y6755
X16738Y6893
X17024
X17486Y5957
X17555Y5623
X17880
X17870Y5928
X18254Y5810
X18372Y4835
X18343Y4284
X19150Y4265
X19278Y4993
X19898Y5013
X20035Y5564
X19376
X19396Y6312
X19927Y6302
X19986Y7050
X19396Y7040
X18805Y7178
X18402Y7139
X18402Y7434
X19406Y7867
X21217Y7139
X21236Y6706
X20705Y5849
X20715Y4333
X20419Y3526
X20616Y3162
X20498Y2562
Y1952
X20000Y1723
X19514Y1706
X19000Y1723
X18539Y1706
X18000Y1723
X17496Y1499
X17476Y879
X16502
X16512Y1469
X16502Y2070
X17000Y1723
X17565Y2099
Y3113
X18146Y3103
X18500Y2562
X19494Y2473
X19346Y3015
X19041Y3300
X16650Y2975
X16325Y4009
X16069Y4078
X16492Y4402
X16886Y4639
X16709Y4816
X17024Y4265
X16049Y5662
X16000Y1723
X18500Y830
X19504Y869
X20468Y1046
X21600Y987
X21630Y1784
X21000Y1723
X21797Y2355
X21394Y4914
X22181Y5180
X22211Y5702
X22929Y5603
X22831Y4934
X22722Y7444
X22201Y7414
Y8290
X22762Y8270
X22752Y9048
X22191Y9018
X21089Y9176
X18805Y9206
Y10160
X19632Y10475
X19652Y10879
X19789Y11243
X19209Y11135
X20498Y11223
X20587Y12198
X20075Y12227
X20626Y13231
X20646Y14048
X21276Y13477
X22260Y13241
X22825Y13632
X22467Y12207
X22457Y11223
X22122Y11213
X22703Y10180
X19337Y8280
X18185Y8428
X17565Y8517
X17358Y9215
X16837
X16600Y9471
X16846Y9717
X16876Y10160
X17329Y10170
X17457Y10928
X17604Y11745
X17624Y12139
X17293Y12047
Y12411
X17516Y12877
Y13339
X17585Y15042
X17280Y14934
X17319Y15268
X17545Y15652
X17535Y16194
X16921Y17177
X17032Y17900
X17451Y17854
X17427Y19452
X17496Y19983
X17506Y20780
X18000Y20723
X18530Y20889
X19000Y20723
X19504Y20830
X20000Y20723
X20468Y20908
X21000Y20723
X21551Y20997
Y20190
X21531Y19373
X21522Y17965
X20449Y18172
X20488Y20150
X19533Y20190
X19268Y19452
X18333Y19422
X17943Y19282
X18175Y18782
X18746Y18920
X18490Y20229
X18500Y21578
X17526Y21637
X17000Y20723
X16000
X16531Y19767
X15833Y19225
X16063Y18268
X16053Y17116
X16329Y16932
X16197Y14875
X16236Y11932
X15862
X16079Y10534
X16472Y10928
X18047Y11745
X18992Y13664
Y14137
X18638Y14166
X18667Y17001
X18972Y16883
X20537Y15593
X21482Y16115
X20508Y21607
X19504Y21509
X16837Y8704
X16817Y8280
X15980Y8743
X15685Y9747
X14898
Y9156
X14858Y8477
X13815Y9078
X13382Y9245
X13087Y9235
X12683Y9245
X12348
X11935Y9274
X11640Y9255
X11236Y9304
X11207Y8635
X10498Y8605
X10193Y8831
X10459Y9442
X10370Y9944
Y10534
X9976
X9780Y11125
X10370
Y11912
X9612Y11932
X9622Y12316
X10173Y13290
Y13881
Y14471
X10370Y15062
X9583
X8913Y15219
X8402Y15141
X7880Y15209
X7811Y14826
X7496Y15141
X7116Y15315
X6762
X6400Y16723
X5400
X4917Y16568
X4400Y16723
X3894Y16558
X3400Y16723
X2890Y16725
X2880Y17394
X3904Y17306
X4878Y17237
X4927Y15839
X3894Y15889
X2841Y15839
X2240Y15820
X394Y15709
X797Y15246
X394Y14764
X413Y13829
X797Y14213
X807Y13228
X404Y12756
X827Y12205
X443Y11752
X837Y11270
X807Y10433
X433Y9990
X374Y10866
X1781Y11270
X1722Y10394
X1738Y9343
X817Y9350
X472Y8888
X787Y8297
X1709Y8300
X4661Y8979
Y9501
X5843
X5646Y8979
X6846Y8674
X7260Y8202
X8136Y8270
X8598Y8261
X9189Y8270
X10841Y8262
X11226Y10081
X11191Y10778
Y11211
Y11713
Y12293
Y12815
Y13406
Y13947
X11191Y14400
X11378Y14626
X11768Y14717
X12083
X12713Y14678
X13106Y14688
X13736Y14668
X14061Y14658
X14415Y14707
X14307Y14078
Y13487
X13858Y13593
X13406Y13474
X13287Y13041
X13789Y12864
X14307Y12700
Y11715
X13740Y12008
X13287Y11782
X13297Y12343
X13303Y10485
X12654Y10524
Y10239
X12299Y11194
X11994
X11545Y10640
X14110Y10534
X14701Y10928
X15094Y10534
X15685Y10928
X15498Y12276
X15419Y12778
X15468Y13231
X15396Y13716
X15803Y14875
X15793Y16558
X15787Y16939
X15767Y17464
X15709Y18248
X15606Y18595
X15311Y18999
X15291Y19471
X15468Y19914
Y20259
X15488Y20672
Y21204
X15508Y21637
X14533Y21430
X14494Y20908
Y20406
X14484Y19924
X14524Y19471
X14494Y19097
X14524Y18763
X14006Y18602
X13706
X13736Y19146
X13490Y19501
X13195Y20013
X12860Y20406
X12890Y20987
X13490Y21026
X13500Y20456
X14000Y20723
X15000
X13520Y21627
X12929
X11876Y21518
X11896Y20721
X11400Y20723
X10911Y20790
X10400Y20723
X9878Y20652
X9400Y20723
X8913Y20682
X8400Y20723
X7880Y20702
X7400Y20723
X6906Y20593
X6400Y20723
X5902Y20810
X5400Y20723
X4888Y20820
X4400Y20723
X3884Y20770
X3400Y20723
X3884Y19993
X3844Y19501
X4193Y19045
X5035Y19186
X4898Y19501
X4888Y19993
X5931Y20013
X5980Y19471
X6581Y19393
X6945Y18959
X6988Y18622
X7535Y18595
X8313Y18576
X8156Y18989
X7919Y19422
X7880Y19894
X6945Y19914
X6886Y21558
X5911Y21656
X4898
X3874Y21725
X2815Y21900
X2618Y19193
X3067Y19176
X3500Y18753
X5394Y18602
X6191Y18622
X8835Y18635
X9396Y18615
X9228Y19137
X8904Y19530
X8894Y19944
X9878Y20003
X9967Y19422
X10222Y18595
X11079Y18615
X11650Y18602
X12368
X12703
X13081
X11935Y19619
X11896Y20141
X12400Y20723
X10892Y19924
X11010Y19501
X10911Y21676
X9907Y21646
X8923
X7909Y21686
X8400Y16723
X9400
X10400
X11404Y16723
X12404
X13404
X14404
X7400Y16723
X8992Y14471
Y13881
Y13290
X9031Y10810
X8707Y9727
X8313
X7919Y9511
X7535Y9668
X6699Y12089
X6719Y12326
X6364Y12375
X5547Y12119
X5429Y12709
X4819Y12385
X4189Y12424
X4528Y11457
Y11137
Y10817
X4508Y13445
Y13720
Y13996
X4183Y14242
X1722Y12165
X295Y16841
X354Y17805
X955Y17736
X1398Y18169
X1427Y19518
X896Y19646
X463Y19134
X325Y18504
X390Y20091
X13717Y9747
T05
X20774Y16666
Y17454
T06
X2390Y3599
X3390
Y4599
X2390
Y5599
X3390
Y6599
X2390
Y7599
X3390
Y8599
X2390
X2390Y9926
X3390
Y10926
X2390
Y11926
X3390
Y12926
X2390
Y13926
X3390
Y14926
X2390
T07
X1500Y1723
X22000Y3723
Y14723
X2000Y20723
T08
X-0Y4988
Y5382
Y5776
X12746Y0
X13140
X13533
X23300Y4988
Y5382
Y5776
X23300Y13533
Y13927
Y14320
X13531Y22403
X13137
X12743
X-0Y14320
Y13927
Y13533
M30
