G04*
G04 #@! TF.GenerationSoftware,Altium Limited,Altium Designer,23.1.1 (15)*
G04*
G04 Layer_Physical_Order=4*
G04 Layer_Color=16711680*
%FSLAX24Y24*%
%MOIN*%
G70*
G04*
G04 #@! TF.SameCoordinates,0A79AF00-5A7F-476D-9868-4C47CD430A8F*
G04*
G04*
G04 #@! TF.FilePolarity,Positive*
G04*
G01*
G75*
%ADD14C,0.0098*%
%ADD16C,0.0060*%
%ADD19C,0.0118*%
%ADD26R,0.0402X0.0862*%
%ADD95C,0.0394*%
%ADD99C,0.0591*%
%ADD101C,0.0236*%
%ADD102C,0.0197*%
%ADD104C,0.0315*%
%ADD105C,0.0094*%
%ADD106C,0.0300*%
%ADD107C,0.0138*%
%ADD109C,0.0150*%
%ADD111O,0.0669X0.0433*%
%ADD112R,0.0591X0.0591*%
%ADD113O,0.0787X0.0512*%
%ADD114C,0.0236*%
%ADD115C,0.1260*%
%ADD116C,0.0240*%
%ADD117C,0.0197*%
%ADD118C,0.0240*%
%ADD119R,0.0874X0.0402*%
G36*
X21034Y21905D02*
X21003Y21831D01*
X20699D01*
Y20769D01*
X20703D01*
X20718Y20753D01*
Y20751D01*
X20699Y20678D01*
X20699D01*
Y19615D01*
X21301D01*
Y20678D01*
X21301D01*
X21282Y20751D01*
Y20753D01*
X21297Y20769D01*
X21301D01*
Y21534D01*
X21375Y21564D01*
X21870Y21069D01*
Y16623D01*
X21870Y16618D01*
Y15790D01*
X21832Y15785D01*
X21776Y15775D01*
X21722Y15762D01*
X21668Y15746D01*
X21615Y15727D01*
X21563Y15706D01*
X21512Y15681D01*
X21462Y15654D01*
X21414Y15625D01*
X21368Y15593D01*
X21323Y15559D01*
X21281Y15522D01*
X21240Y15484D01*
X21201Y15443D01*
X21164Y15400D01*
X21130Y15355D01*
X21098Y15309D01*
X21069Y15261D01*
X21042Y15211D01*
X21018Y15161D01*
X20996Y15109D01*
X20977Y15055D01*
X20961Y15002D01*
X20948Y14947D01*
X20938Y14891D01*
X20931Y14836D01*
X20926Y14779D01*
X20925Y14723D01*
X20926Y14667D01*
X20931Y14611D01*
X20938Y14555D01*
X20948Y14500D01*
X20961Y14445D01*
X20977Y14391D01*
X20996Y14338D01*
X21018Y14286D01*
X21042Y14235D01*
X21069Y14186D01*
X21098Y14138D01*
X21130Y14091D01*
X21164Y14047D01*
X21201Y14004D01*
X21240Y13963D01*
X21281Y13924D01*
X21323Y13888D01*
X21368Y13853D01*
X21414Y13821D01*
X21462Y13792D01*
X21512Y13765D01*
X21563Y13741D01*
X21615Y13719D01*
X21668Y13701D01*
X21722Y13685D01*
X21776Y13671D01*
X21832Y13661D01*
X21888Y13654D01*
X21944Y13649D01*
X22000Y13648D01*
X22056Y13649D01*
X22112Y13654D01*
X22168Y13661D01*
X22224Y13671D01*
X22278Y13685D01*
X22332Y13701D01*
X22385Y13719D01*
X22437Y13741D01*
X22488Y13765D01*
X22538Y13792D01*
X22586Y13821D01*
X22632Y13853D01*
X22677Y13888D01*
X22719Y13924D01*
X22760Y13963D01*
X22799Y14004D01*
X22836Y14047D01*
X22870Y14091D01*
X22902Y14138D01*
X22931Y14186D01*
X22958Y14235D01*
X22982Y14286D01*
X23004Y14338D01*
X23082Y14320D01*
X23083Y14296D01*
X23087Y14272D01*
X23094Y14248D01*
X23103Y14226D01*
X23115Y14204D01*
X23129Y14184D01*
X23138Y14174D01*
X23146Y14153D01*
Y14095D01*
X23138Y14073D01*
X23129Y14063D01*
X23115Y14043D01*
X23103Y14022D01*
X23094Y13999D01*
X23087Y13975D01*
X23083Y13951D01*
X23082Y13927D01*
X23083Y13902D01*
X23087Y13878D01*
X23094Y13855D01*
X23103Y13832D01*
X23115Y13811D01*
X23129Y13791D01*
X23138Y13780D01*
X23146Y13759D01*
Y13701D01*
X23138Y13680D01*
X23129Y13669D01*
X23115Y13649D01*
X23103Y13628D01*
X23094Y13605D01*
X23087Y13582D01*
X23083Y13557D01*
X23082Y13533D01*
X23083Y13509D01*
X23087Y13484D01*
X23094Y13461D01*
X23103Y13438D01*
X23115Y13417D01*
X23129Y13397D01*
X23146Y13379D01*
X23164Y13362D01*
X23177Y13353D01*
Y13024D01*
X22626D01*
Y13126D01*
X22624Y13154D01*
X22619Y13181D01*
X22612Y13208D01*
X22601Y13234D01*
X22587Y13259D01*
X22571Y13282D01*
X22552Y13303D01*
X22437Y13418D01*
X22416Y13437D01*
X22393Y13453D01*
X22368Y13467D01*
X22343Y13477D01*
X22316Y13485D01*
X22288Y13490D01*
X22260Y13491D01*
X22232Y13490D01*
X22204Y13485D01*
X22177Y13477D01*
X22151Y13467D01*
X22127Y13453D01*
X22104Y13437D01*
X22083Y13418D01*
X22064Y13397D01*
X22048Y13374D01*
X22034Y13350D01*
X22023Y13324D01*
X22016Y13297D01*
X22011Y13269D01*
X22009Y13241D01*
X22011Y13213D01*
X22016Y13185D01*
X22023Y13158D01*
X22034Y13132D01*
X22048Y13108D01*
X22064Y13085D01*
X22083Y13064D01*
X22093Y13054D01*
X22060Y12974D01*
X21855D01*
X21827Y12972D01*
X21799Y12967D01*
X21772Y12960D01*
X21746Y12949D01*
X21722Y12935D01*
X21699Y12919D01*
X21678Y12900D01*
X21388Y12611D01*
X21370Y12590D01*
X21353Y12567D01*
X21340Y12542D01*
X21329Y12516D01*
X21321Y12489D01*
X21317Y12462D01*
X21315Y12434D01*
Y6006D01*
X19188Y3880D01*
X16467D01*
X16439Y3878D01*
X16411Y3873D01*
X16384Y3865D01*
X16358Y3855D01*
X16334Y3841D01*
X16311Y3825D01*
X16290Y3806D01*
X15995Y3511D01*
X11364D01*
X11336Y3509D01*
X11308Y3505D01*
X11281Y3497D01*
X11256Y3486D01*
X11231Y3473D01*
X11208Y3456D01*
X11187Y3438D01*
X10859Y3109D01*
X10840Y3088D01*
X10824Y3066D01*
X10810Y3041D01*
X10800Y3015D01*
X10792Y2988D01*
X10787Y2960D01*
X10786Y2932D01*
Y2831D01*
X10699D01*
Y1769D01*
X10750D01*
Y1678D01*
X10699D01*
Y615D01*
X11301D01*
Y1678D01*
X11250D01*
Y1769D01*
X11301D01*
Y2831D01*
X11301Y2831D01*
X11301D01*
X11347Y2889D01*
X11468Y3010D01*
X16098D01*
X16126Y3012D01*
X16154Y3017D01*
X16181Y3024D01*
X16207Y3035D01*
X16232Y3049D01*
X16255Y3065D01*
X16275Y3084D01*
X16571Y3379D01*
X19292D01*
X19320Y3380D01*
X19347Y3385D01*
X19374Y3393D01*
X19400Y3404D01*
X19425Y3417D01*
X19448Y3433D01*
X19469Y3452D01*
X21742Y5726D01*
X21761Y5747D01*
X21777Y5770D01*
X21791Y5794D01*
X21802Y5820D01*
X21809Y5847D01*
X21814Y5875D01*
X21816Y5903D01*
Y6076D01*
X21839Y6095D01*
X21896Y6114D01*
X21903Y6109D01*
X21929Y6093D01*
X21957Y6080D01*
X21987Y6070D01*
X22017Y6062D01*
X22048Y6057D01*
X22079Y6056D01*
X22315D01*
X22346Y6057D01*
X22377Y6062D01*
X22407Y6070D01*
X22436Y6080D01*
X22464Y6093D01*
X22491Y6109D01*
X22516Y6128D01*
X22539Y6149D01*
X22560Y6172D01*
X22578Y6197D01*
X22594Y6223D01*
X22608Y6252D01*
X22618Y6281D01*
X22626Y6311D01*
X22630Y6342D01*
X22632Y6373D01*
X22630Y6404D01*
X22626Y6435D01*
X22618Y6465D01*
X22608Y6494D01*
X22594Y6522D01*
X22578Y6549D01*
X22560Y6574D01*
X22539Y6597D01*
X22516Y6618D01*
X22491Y6636D01*
X22464Y6652D01*
X22436Y6666D01*
X22407Y6676D01*
X22377Y6684D01*
X22346Y6688D01*
X22315Y6690D01*
X22079D01*
X22048Y6688D01*
X22017Y6684D01*
X21987Y6676D01*
X21957Y6666D01*
X21929Y6652D01*
X21903Y6636D01*
X21896Y6631D01*
X21839Y6651D01*
X21816Y6670D01*
Y9478D01*
X21839Y9497D01*
X21896Y9516D01*
X21903Y9511D01*
X21929Y9495D01*
X21957Y9482D01*
X21987Y9471D01*
X22017Y9464D01*
X22048Y9459D01*
X22079Y9457D01*
X22315D01*
X22346Y9459D01*
X22377Y9464D01*
X22407Y9471D01*
X22436Y9482D01*
X22464Y9495D01*
X22491Y9511D01*
X22516Y9529D01*
X22539Y9550D01*
X22560Y9573D01*
X22578Y9598D01*
X22594Y9625D01*
X22608Y9653D01*
X22618Y9682D01*
X22626Y9713D01*
X22630Y9743D01*
X22632Y9774D01*
X22630Y9805D01*
X22626Y9836D01*
X22618Y9866D01*
X22608Y9896D01*
X22594Y9924D01*
X22578Y9950D01*
X22560Y9975D01*
X22539Y9998D01*
X22516Y10019D01*
X22491Y10038D01*
X22464Y10054D01*
X22436Y10067D01*
X22407Y10078D01*
X22377Y10085D01*
X22346Y10090D01*
X22315Y10091D01*
X22079D01*
X22048Y10090D01*
X22017Y10085D01*
X21987Y10078D01*
X21957Y10067D01*
X21929Y10054D01*
X21903Y10038D01*
X21896Y10033D01*
X21839Y10052D01*
X21816Y10071D01*
Y12330D01*
X21959Y12473D01*
X22125D01*
Y12422D01*
X22257D01*
X22268Y12411D01*
X22290Y12354D01*
X22292Y12342D01*
X22280Y12325D01*
X22268Y12303D01*
X22258Y12280D01*
X22252Y12257D01*
X22247Y12232D01*
X22246Y12207D01*
X22247Y12183D01*
X22248Y12179D01*
Y12024D01*
X22125D01*
Y11422D01*
X23177D01*
Y11024D01*
X22712D01*
Y10723D01*
Y10422D01*
X23177D01*
Y5956D01*
X23164Y5946D01*
X23146Y5930D01*
X23129Y5912D01*
X23115Y5892D01*
X23103Y5870D01*
X23094Y5848D01*
X23087Y5824D01*
X23083Y5800D01*
X23082Y5776D01*
X23083Y5751D01*
X23087Y5727D01*
X23094Y5703D01*
X23103Y5681D01*
X23115Y5659D01*
X23129Y5639D01*
X23138Y5629D01*
X23146Y5608D01*
Y5550D01*
X23138Y5528D01*
X23129Y5518D01*
X23115Y5498D01*
X23103Y5477D01*
X23094Y5454D01*
X23087Y5430D01*
X23083Y5406D01*
X23082Y5382D01*
X23083Y5357D01*
X23087Y5333D01*
X23094Y5310D01*
X23103Y5287D01*
X23115Y5266D01*
X23129Y5246D01*
X23138Y5235D01*
X23146Y5214D01*
Y5156D01*
X23138Y5135D01*
X23129Y5124D01*
X23115Y5104D01*
X23103Y5083D01*
X23094Y5060D01*
X23087Y5037D01*
X23083Y5013D01*
X23082Y4988D01*
X23083Y4964D01*
X23087Y4940D01*
X23094Y4916D01*
X23103Y4893D01*
X23115Y4872D01*
X23129Y4852D01*
X23146Y4834D01*
X23164Y4817D01*
X23177Y4808D01*
Y3084D01*
X21908Y1815D01*
X21897Y1803D01*
X21887Y1788D01*
X21880Y1773D01*
X21874Y1757D01*
X21871Y1740D01*
X21870Y1723D01*
Y130D01*
X13708D01*
X13704Y136D01*
X13688Y154D01*
X13670Y171D01*
X13650Y185D01*
X13628Y197D01*
X13606Y206D01*
X13582Y213D01*
X13558Y217D01*
X13533Y218D01*
X13509Y217D01*
X13485Y213D01*
X13461Y206D01*
X13439Y197D01*
X13417Y185D01*
X13397Y171D01*
X13384Y159D01*
X13369Y154D01*
X13304D01*
X13289Y159D01*
X13276Y171D01*
X13256Y185D01*
X13235Y197D01*
X13212Y206D01*
X13188Y213D01*
X13164Y217D01*
X13140Y218D01*
X13115Y217D01*
X13091Y213D01*
X13068Y206D01*
X13045Y197D01*
X13024Y185D01*
X13004Y171D01*
X12990Y159D01*
X12976Y154D01*
X12910D01*
X12895Y159D01*
X12882Y171D01*
X12862Y185D01*
X12841Y197D01*
X12818Y206D01*
X12795Y213D01*
X12771Y217D01*
X12746Y218D01*
X12722Y217D01*
X12697Y213D01*
X12674Y206D01*
X12651Y197D01*
X12630Y185D01*
X12610Y171D01*
X12592Y154D01*
X12575Y136D01*
X12571Y130D01*
X1707D01*
X1239Y598D01*
X1274Y667D01*
X1280Y671D01*
X1332Y661D01*
X1388Y654D01*
X1444Y649D01*
X1500Y648D01*
X1556Y649D01*
X1612Y654D01*
X1668Y661D01*
X1724Y671D01*
X1778Y685D01*
X1832Y701D01*
X1885Y719D01*
X1937Y741D01*
X1988Y765D01*
X2038Y792D01*
X2086Y821D01*
X2132Y853D01*
X2177Y888D01*
X2219Y924D01*
X2260Y963D01*
X2299Y1004D01*
X2336Y1047D01*
X2370Y1091D01*
X2402Y1138D01*
X2431Y1186D01*
X2458Y1235D01*
X2482Y1286D01*
X2504Y1338D01*
X2523Y1391D01*
X2539Y1445D01*
X2552Y1500D01*
X2562Y1555D01*
X2569Y1611D01*
X2574Y1667D01*
X2575Y1723D01*
X2574Y1779D01*
X2569Y1836D01*
X2562Y1891D01*
X2552Y1947D01*
X2539Y2002D01*
X2523Y2055D01*
X2504Y2109D01*
X2482Y2161D01*
X2458Y2211D01*
X2431Y2261D01*
X2402Y2309D01*
X2370Y2355D01*
X2336Y2400D01*
X2299Y2443D01*
X2260Y2484D01*
X2219Y2522D01*
X2177Y2559D01*
X2132Y2593D01*
X2086Y2625D01*
X2038Y2654D01*
X1988Y2681D01*
X1937Y2706D01*
X1885Y2727D01*
X1832Y2746D01*
X1778Y2762D01*
X1724Y2775D01*
X1668Y2785D01*
X1612Y2793D01*
X1556Y2797D01*
X1500Y2798D01*
X1444Y2797D01*
X1388Y2793D01*
X1332Y2785D01*
X1276Y2775D01*
X1222Y2762D01*
X1168Y2746D01*
X1115Y2727D01*
X1063Y2706D01*
X1012Y2681D01*
X962Y2654D01*
X914Y2625D01*
X868Y2593D01*
X823Y2559D01*
X781Y2522D01*
X740Y2484D01*
X701Y2443D01*
X664Y2400D01*
X630Y2355D01*
X598Y2309D01*
X569Y2261D01*
X542Y2211D01*
X518Y2161D01*
X496Y2109D01*
X477Y2055D01*
X461Y2002D01*
X448Y1947D01*
X438Y1891D01*
X431Y1836D01*
X426Y1779D01*
X425Y1723D01*
X426Y1667D01*
X431Y1611D01*
X438Y1555D01*
X448Y1503D01*
X444Y1497D01*
X375Y1463D01*
X130Y1707D01*
Y4813D01*
X136Y4817D01*
X154Y4834D01*
X171Y4852D01*
X185Y4872D01*
X197Y4893D01*
X206Y4916D01*
X213Y4940D01*
X217Y4964D01*
X218Y4988D01*
X217Y5013D01*
X213Y5037D01*
X206Y5060D01*
X197Y5083D01*
X185Y5104D01*
X171Y5124D01*
X159Y5138D01*
X154Y5152D01*
Y5218D01*
X159Y5232D01*
X171Y5246D01*
X185Y5266D01*
X197Y5287D01*
X206Y5310D01*
X213Y5333D01*
X217Y5357D01*
X218Y5382D01*
X217Y5406D01*
X213Y5430D01*
X206Y5454D01*
X197Y5477D01*
X185Y5498D01*
X171Y5518D01*
X159Y5531D01*
X154Y5546D01*
Y5612D01*
X159Y5626D01*
X171Y5639D01*
X185Y5659D01*
X197Y5681D01*
X206Y5703D01*
X213Y5727D01*
X217Y5751D01*
X218Y5776D01*
X217Y5800D01*
X213Y5824D01*
X206Y5848D01*
X197Y5870D01*
X185Y5892D01*
X171Y5912D01*
X154Y5930D01*
X136Y5946D01*
X130Y5951D01*
Y13358D01*
X136Y13362D01*
X154Y13379D01*
X171Y13397D01*
X185Y13417D01*
X197Y13438D01*
X206Y13461D01*
X213Y13484D01*
X217Y13509D01*
X218Y13533D01*
X217Y13558D01*
X213Y13582D01*
X206Y13605D01*
X197Y13628D01*
X185Y13649D01*
X171Y13669D01*
X159Y13682D01*
X154Y13697D01*
Y13763D01*
X159Y13777D01*
X171Y13791D01*
X185Y13811D01*
X197Y13832D01*
X206Y13855D01*
X213Y13878D01*
X217Y13902D01*
X218Y13927D01*
X217Y13951D01*
X213Y13975D01*
X206Y13999D01*
X197Y14022D01*
X185Y14043D01*
X171Y14063D01*
X159Y14076D01*
X154Y14091D01*
Y14157D01*
X159Y14171D01*
X171Y14184D01*
X185Y14204D01*
X197Y14226D01*
X206Y14248D01*
X213Y14272D01*
X217Y14296D01*
X218Y14320D01*
X217Y14345D01*
X213Y14369D01*
X206Y14393D01*
X197Y14415D01*
X185Y14437D01*
X171Y14457D01*
X154Y14475D01*
X136Y14491D01*
X130Y14495D01*
Y20739D01*
X1692Y22301D01*
X12551D01*
X12558Y22287D01*
X12573Y22267D01*
X12589Y22249D01*
X12607Y22233D01*
X12627Y22218D01*
X12649Y22207D01*
X12671Y22197D01*
X12695Y22190D01*
X12719Y22186D01*
X12743Y22185D01*
X12768Y22186D01*
X12792Y22190D01*
X12815Y22197D01*
X12838Y22207D01*
X12860Y22218D01*
X12880Y22233D01*
X12888Y22240D01*
X12914Y22249D01*
X12967D01*
X12993Y22240D01*
X13001Y22233D01*
X13021Y22218D01*
X13042Y22207D01*
X13065Y22197D01*
X13088Y22190D01*
X13113Y22186D01*
X13137Y22185D01*
X13161Y22186D01*
X13186Y22190D01*
X13209Y22197D01*
X13232Y22207D01*
X13253Y22218D01*
X13273Y22233D01*
X13281Y22240D01*
X13307Y22249D01*
X13360D01*
X13386Y22240D01*
X13395Y22233D01*
X13414Y22218D01*
X13436Y22207D01*
X13459Y22197D01*
X13482Y22190D01*
X13506Y22186D01*
X13531Y22185D01*
X13555Y22186D01*
X13579Y22190D01*
X13603Y22197D01*
X13626Y22207D01*
X13647Y22218D01*
X13667Y22233D01*
X13685Y22249D01*
X13702Y22267D01*
X13716Y22287D01*
X13723Y22301D01*
X20638D01*
X21034Y21905D01*
D02*
G37*
%LPC*%
G36*
X6701Y21831D02*
X6450D01*
Y21350D01*
X6701D01*
Y21831D01*
D02*
G37*
G36*
X6350D02*
X6099D01*
Y21350D01*
X6350D01*
Y21831D01*
D02*
G37*
G36*
X3701D02*
X3099D01*
Y21078D01*
X3023Y21055D01*
X3004Y21109D01*
X2982Y21161D01*
X2958Y21211D01*
X2931Y21261D01*
X2902Y21309D01*
X2870Y21355D01*
X2836Y21400D01*
X2799Y21443D01*
X2760Y21484D01*
X2719Y21522D01*
X2677Y21559D01*
X2632Y21593D01*
X2586Y21625D01*
X2538Y21654D01*
X2488Y21681D01*
X2437Y21706D01*
X2385Y21727D01*
X2332Y21746D01*
X2278Y21762D01*
X2224Y21775D01*
X2168Y21785D01*
X2112Y21793D01*
X2056Y21797D01*
X2000Y21798D01*
X1944Y21797D01*
X1888Y21793D01*
X1832Y21785D01*
X1776Y21775D01*
X1722Y21762D01*
X1668Y21746D01*
X1615Y21727D01*
X1563Y21706D01*
X1512Y21681D01*
X1462Y21654D01*
X1414Y21625D01*
X1368Y21593D01*
X1323Y21559D01*
X1281Y21522D01*
X1240Y21484D01*
X1201Y21443D01*
X1164Y21400D01*
X1130Y21355D01*
X1098Y21309D01*
X1069Y21261D01*
X1042Y21211D01*
X1018Y21161D01*
X996Y21109D01*
X977Y21055D01*
X961Y21002D01*
X948Y20947D01*
X938Y20891D01*
X931Y20836D01*
X926Y20780D01*
X925Y20723D01*
X926Y20667D01*
X931Y20611D01*
X938Y20555D01*
X948Y20500D01*
X961Y20445D01*
X977Y20391D01*
X996Y20338D01*
X1018Y20286D01*
X1042Y20235D01*
X1069Y20186D01*
X1098Y20138D01*
X1130Y20091D01*
X1164Y20047D01*
X1201Y20004D01*
X1240Y19963D01*
X1281Y19924D01*
X1323Y19888D01*
X1368Y19853D01*
X1414Y19821D01*
X1462Y19792D01*
X1512Y19765D01*
X1563Y19741D01*
X1615Y19719D01*
X1668Y19701D01*
X1722Y19685D01*
X1776Y19671D01*
X1832Y19661D01*
X1888Y19654D01*
X1944Y19649D01*
X2000Y19648D01*
X2056Y19649D01*
X2112Y19654D01*
X2168Y19661D01*
X2224Y19671D01*
X2278Y19685D01*
X2332Y19701D01*
X2385Y19719D01*
X2437Y19741D01*
X2488Y19765D01*
X2538Y19792D01*
X2586Y19821D01*
X2632Y19853D01*
X2677Y19888D01*
X2719Y19924D01*
X2760Y19963D01*
X2799Y20004D01*
X2836Y20047D01*
X2870Y20091D01*
X2902Y20138D01*
X2931Y20186D01*
X2958Y20235D01*
X2982Y20286D01*
X3004Y20338D01*
X3023Y20391D01*
X3099Y20368D01*
Y19615D01*
X3701D01*
Y20678D01*
X3701D01*
X3682Y20751D01*
Y20753D01*
X3697Y20769D01*
X3701D01*
Y21831D01*
D02*
G37*
G36*
X6701Y21250D02*
X6450D01*
Y20769D01*
X6701D01*
Y21250D01*
D02*
G37*
G36*
X6350D02*
X6099D01*
Y20769D01*
X6350D01*
Y21250D01*
D02*
G37*
G36*
X6701Y20678D02*
X6450D01*
Y20196D01*
X6701D01*
Y20678D01*
D02*
G37*
G36*
X6350D02*
X6099D01*
Y20196D01*
X6350D01*
Y20678D01*
D02*
G37*
G36*
X17301Y21831D02*
X16699D01*
Y20769D01*
X16703D01*
X16718Y20753D01*
Y20751D01*
X16699Y20678D01*
X16699D01*
Y20015D01*
X16688Y20002D01*
X16653Y19981D01*
X16619Y19968D01*
X16604Y19975D01*
X16581Y19981D01*
X16556Y19986D01*
X16531Y19987D01*
X16507Y19986D01*
X16482Y19981D01*
X16459Y19975D01*
X16436Y19965D01*
X16414Y19953D01*
X16394Y19939D01*
X16381Y19927D01*
X16361Y19930D01*
X16301Y19959D01*
Y20678D01*
X16301D01*
X16282Y20751D01*
Y20753D01*
X16297Y20769D01*
X16301D01*
Y21831D01*
X15699D01*
Y20769D01*
X15703D01*
X15718Y20753D01*
Y20751D01*
X15699Y20678D01*
X15699D01*
Y19615D01*
X16272D01*
X16299Y19615D01*
X16305Y19615D01*
X16378Y19609D01*
X16394Y19594D01*
X16414Y19580D01*
X16436Y19568D01*
X16459Y19558D01*
X16482Y19552D01*
X16507Y19547D01*
X16531Y19546D01*
X16540Y19547D01*
X17534Y18553D01*
Y18409D01*
X17411Y18287D01*
X17269D01*
X17249Y18286D01*
X17230Y18282D01*
X17212Y18275D01*
X17194Y18267D01*
X17178Y18256D01*
X17163Y18243D01*
X17040Y18120D01*
X17032Y18121D01*
X17007Y18119D01*
X16983Y18115D01*
X16959Y18108D01*
X16936Y18099D01*
X16914Y18087D01*
X16894Y18073D01*
X16876Y18056D01*
X16859Y18038D01*
X16845Y18018D01*
X16833Y17996D01*
X16824Y17973D01*
X16817Y17949D01*
X16813Y17925D01*
X16811Y17900D01*
X16813Y17876D01*
X16817Y17851D01*
X16824Y17827D01*
X16833Y17805D01*
X16845Y17783D01*
X16859Y17763D01*
X16876Y17744D01*
X16894Y17728D01*
X16914Y17714D01*
X16936Y17702D01*
X16959Y17692D01*
X16983Y17685D01*
X17007Y17681D01*
X17032Y17680D01*
X17056Y17681D01*
X17081Y17685D01*
X17105Y17692D01*
X17127Y17702D01*
X17149Y17714D01*
X17169Y17728D01*
X17188Y17744D01*
X17204Y17763D01*
X17218Y17783D01*
X17230Y17805D01*
X17240Y17827D01*
X17247Y17851D01*
X17251Y17876D01*
X17252Y17900D01*
X17252Y17909D01*
X17331Y17988D01*
X17473D01*
X17493Y17989D01*
X17512Y17993D01*
X17530Y17999D01*
X17548Y18008D01*
X17564Y18019D01*
X17579Y18032D01*
X17789Y18242D01*
X17802Y18256D01*
X17813Y18273D01*
X17821Y18290D01*
X17828Y18309D01*
X17831Y18328D01*
X17833Y18347D01*
Y18615D01*
X17831Y18634D01*
X17828Y18654D01*
X17821Y18672D01*
X17813Y18690D01*
X17802Y18706D01*
X17789Y18721D01*
X16968Y19541D01*
X16999Y19615D01*
X17301D01*
Y20678D01*
X17301D01*
X17282Y20751D01*
Y20753D01*
X17297Y20769D01*
X17301D01*
Y21831D01*
D02*
G37*
G36*
X20301D02*
X19699D01*
Y20769D01*
X19703D01*
X19718Y20753D01*
Y20751D01*
X19699Y20678D01*
X19699D01*
Y19615D01*
X20301D01*
Y20678D01*
X20301D01*
X20282Y20751D01*
Y20753D01*
X20297Y20769D01*
X20301D01*
Y21831D01*
D02*
G37*
G36*
X19301D02*
X18699D01*
Y20769D01*
X18703D01*
X18718Y20753D01*
Y20751D01*
X18699Y20678D01*
X18699D01*
Y19615D01*
X19301D01*
Y20678D01*
X19301D01*
X19282Y20751D01*
Y20753D01*
X19297Y20769D01*
X19301D01*
Y21831D01*
D02*
G37*
G36*
X18301D02*
X17699D01*
Y20769D01*
X17703D01*
X17718Y20753D01*
Y20751D01*
X17699Y20678D01*
X17699D01*
Y19615D01*
X18301D01*
Y20678D01*
X18301D01*
X18282Y20751D01*
Y20753D01*
X18297Y20769D01*
X18301D01*
Y21831D01*
D02*
G37*
G36*
X15301D02*
X14699D01*
Y20769D01*
X14703D01*
X14718Y20753D01*
Y20751D01*
X14699Y20678D01*
X14699D01*
Y19615D01*
X15301D01*
Y20678D01*
X15301D01*
X15282Y20751D01*
Y20753D01*
X15297Y20769D01*
X15301D01*
Y21831D01*
D02*
G37*
G36*
X14301D02*
X13699D01*
Y20769D01*
X13703D01*
X13718Y20753D01*
Y20751D01*
X13699Y20678D01*
X13699D01*
Y19615D01*
X14301D01*
Y20678D01*
X14301D01*
X14282Y20751D01*
Y20753D01*
X14297Y20769D01*
X14301D01*
Y21831D01*
D02*
G37*
G36*
X12701D02*
X12099D01*
Y20769D01*
X12103D01*
X12118Y20753D01*
Y20751D01*
X12099Y20678D01*
X12099D01*
Y19615D01*
X12701D01*
Y20678D01*
X12701D01*
X12682Y20751D01*
Y20753D01*
X12697Y20769D01*
X12701D01*
Y21831D01*
D02*
G37*
G36*
X11701D02*
X11099D01*
Y20769D01*
X11103D01*
X11118Y20753D01*
Y20751D01*
X11099Y20678D01*
X11099D01*
Y19615D01*
X11701D01*
Y20678D01*
X11701D01*
X11682Y20751D01*
Y20753D01*
X11697Y20769D01*
X11701D01*
Y21831D01*
D02*
G37*
G36*
X10701D02*
X10099D01*
Y20769D01*
X10103D01*
X10118Y20753D01*
Y20751D01*
X10099Y20678D01*
X10099D01*
Y19615D01*
X10701D01*
Y20678D01*
X10701D01*
X10682Y20751D01*
Y20753D01*
X10697Y20769D01*
X10701D01*
Y21831D01*
D02*
G37*
G36*
X9701D02*
X9099D01*
Y20769D01*
X9103D01*
X9118Y20753D01*
Y20751D01*
X9099Y20678D01*
X9099D01*
Y19615D01*
X9701D01*
Y20678D01*
X9701D01*
X9682Y20751D01*
Y20753D01*
X9697Y20769D01*
X9701D01*
Y21831D01*
D02*
G37*
G36*
X8701D02*
X8099D01*
Y20769D01*
X8103D01*
X8118Y20753D01*
Y20751D01*
X8099Y20678D01*
X8099D01*
Y19615D01*
X8701D01*
Y20678D01*
X8701D01*
X8682Y20751D01*
Y20753D01*
X8697Y20769D01*
X8701D01*
Y21831D01*
D02*
G37*
G36*
X7701D02*
X7099D01*
Y20769D01*
X7103D01*
X7118Y20753D01*
Y20751D01*
X7099Y20678D01*
X7099D01*
Y19615D01*
X7701D01*
Y20678D01*
X7701D01*
X7682Y20751D01*
Y20753D01*
X7697Y20769D01*
X7701D01*
Y21831D01*
D02*
G37*
G36*
X6701Y20096D02*
X6450D01*
Y19615D01*
X6701D01*
Y20096D01*
D02*
G37*
G36*
X6350D02*
X6099D01*
Y19615D01*
X6350D01*
Y20096D01*
D02*
G37*
G36*
X5701Y21831D02*
X5099D01*
Y20769D01*
X5103D01*
X5118Y20753D01*
Y20751D01*
X5099Y20678D01*
X5099D01*
Y19615D01*
X5701D01*
Y20678D01*
X5701D01*
X5682Y20751D01*
Y20753D01*
X5697Y20769D01*
X5701D01*
Y21831D01*
D02*
G37*
G36*
X4701D02*
X4099D01*
Y20769D01*
X4103D01*
X4118Y20753D01*
Y20751D01*
X4099Y20678D01*
X4099D01*
Y19615D01*
X4701D01*
Y20678D01*
X4701D01*
X4682Y20751D01*
Y20753D01*
X4697Y20769D01*
X4701D01*
Y21831D01*
D02*
G37*
G36*
X14006Y18823D02*
X13981Y18821D01*
X13957Y18817D01*
X13933Y18810D01*
X13910Y18801D01*
X13889Y18789D01*
X13868Y18775D01*
X13856Y18763D01*
X13843Y18775D01*
X13823Y18789D01*
X13801Y18801D01*
X13779Y18810D01*
X13755Y18817D01*
X13730Y18821D01*
X13706Y18823D01*
X13681Y18821D01*
X13657Y18817D01*
X13633Y18810D01*
X13610Y18801D01*
X13588Y18789D01*
X13568Y18775D01*
X13550Y18758D01*
X13533Y18740D01*
X13520Y18720D01*
X13267D01*
X13253Y18740D01*
X13237Y18758D01*
X13218Y18775D01*
X13198Y18789D01*
X13176Y18801D01*
X13154Y18810D01*
X13130Y18817D01*
X13105Y18821D01*
X13081Y18823D01*
X13056Y18821D01*
X13032Y18817D01*
X13008Y18810D01*
X12985Y18801D01*
X12963Y18789D01*
X12943Y18775D01*
X12911Y18758D01*
X12872D01*
X12840Y18775D01*
X12820Y18789D01*
X12798Y18801D01*
X12776Y18810D01*
X12752Y18817D01*
X12727Y18821D01*
X12703Y18823D01*
X12678Y18821D01*
X12654Y18817D01*
X12630Y18810D01*
X12607Y18801D01*
X12585Y18789D01*
X12565Y18775D01*
X12547Y18758D01*
X12524D01*
X12506Y18775D01*
X12485Y18789D01*
X12464Y18801D01*
X12441Y18810D01*
X12417Y18817D01*
X12393Y18821D01*
X12368Y18823D01*
X12343Y18821D01*
X12319Y18817D01*
X12295Y18810D01*
X12272Y18801D01*
X12251Y18789D01*
X12231Y18775D01*
X12212Y18758D01*
X12196Y18740D01*
X12189Y18730D01*
X11829D01*
X11822Y18740D01*
X11805Y18758D01*
X11787Y18775D01*
X11767Y18789D01*
X11745Y18801D01*
X11722Y18810D01*
X11699Y18817D01*
X11674Y18821D01*
X11650Y18823D01*
X11625Y18821D01*
X11601Y18817D01*
X11577Y18810D01*
X11554Y18801D01*
X11532Y18789D01*
X11512Y18775D01*
X11494Y18758D01*
X11477Y18740D01*
X11463Y18720D01*
X11451Y18698D01*
X11442Y18675D01*
X11435Y18651D01*
X11431Y18627D01*
X11429Y18602D01*
X11431Y18578D01*
X11435Y18553D01*
X11442Y18530D01*
X11451Y18507D01*
X11463Y18485D01*
X11477Y18465D01*
X11494Y18447D01*
X11512Y18430D01*
X11527Y18419D01*
Y18419D01*
X11528Y18399D01*
X11532Y18380D01*
X11539Y18361D01*
X11547Y18344D01*
X11558Y18328D01*
X11571Y18313D01*
X11618Y18266D01*
Y17831D01*
X11103D01*
Y16769D01*
X11106D01*
X11121Y16753D01*
Y16751D01*
X11103Y16678D01*
X11103D01*
Y15615D01*
X11618D01*
Y14879D01*
X11612Y14873D01*
X11595Y14855D01*
X11581Y14835D01*
X11569Y14813D01*
X11560Y14790D01*
X11553Y14766D01*
X11549Y14742D01*
X11547Y14717D01*
X11549Y14693D01*
X11553Y14668D01*
X11560Y14645D01*
X11569Y14622D01*
X11581Y14600D01*
X11595Y14580D01*
X11612Y14561D01*
X11630Y14545D01*
X11650Y14531D01*
X11672Y14519D01*
X11695Y14509D01*
X11719Y14502D01*
X11743Y14498D01*
X11768Y14497D01*
X11792Y14498D01*
X11817Y14502D01*
X11841Y14509D01*
X11863Y14519D01*
X11885Y14531D01*
X11905Y14545D01*
X11924Y14561D01*
X11927D01*
X11945Y14545D01*
X11965Y14531D01*
X11987Y14519D01*
X12010Y14509D01*
X12034Y14502D01*
X12058Y14498D01*
X12083Y14497D01*
X12107Y14498D01*
X12132Y14502D01*
X12155Y14509D01*
X12178Y14519D01*
X12200Y14531D01*
X12220Y14545D01*
X12239Y14561D01*
X12255Y14580D01*
X12269Y14600D01*
X12281Y14622D01*
X12291Y14645D01*
X12298Y14668D01*
X12302Y14693D01*
X12303Y14717D01*
X12302Y14742D01*
X12300Y14753D01*
X12321Y14795D01*
X12343Y14822D01*
X12360Y14833D01*
X12455D01*
X12480Y14808D01*
X12505Y14753D01*
X12505Y14751D01*
X12498Y14727D01*
X12494Y14703D01*
X12492Y14678D01*
X12494Y14653D01*
X12498Y14629D01*
X12505Y14605D01*
X12514Y14582D01*
X12526Y14561D01*
X12540Y14541D01*
X12557Y14522D01*
X12575Y14506D01*
X12595Y14491D01*
X12617Y14479D01*
X12640Y14470D01*
X12664Y14463D01*
X12688Y14459D01*
X12713Y14458D01*
X12737Y14459D01*
X12762Y14463D01*
X12785Y14470D01*
X12808Y14479D01*
X12830Y14491D01*
X12850Y14506D01*
X12861Y14515D01*
X12877Y14523D01*
X12927Y14529D01*
X12965Y14519D01*
X12969Y14515D01*
X12989Y14501D01*
X13011Y14489D01*
X13033Y14480D01*
X13057Y14473D01*
X13082Y14469D01*
X13106Y14467D01*
X13131Y14469D01*
X13155Y14473D01*
X13179Y14480D01*
X13202Y14489D01*
X13224Y14501D01*
X13244Y14515D01*
X13262Y14532D01*
X13279Y14550D01*
X13293Y14571D01*
X13305Y14592D01*
X13314Y14615D01*
X13321Y14639D01*
X13325Y14663D01*
X13327Y14688D01*
X13325Y14712D01*
X13321Y14737D01*
X13319Y14743D01*
X13346Y14796D01*
X13365Y14818D01*
X13375Y14823D01*
X13479D01*
X13504Y14798D01*
X13529Y14743D01*
X13528Y14741D01*
X13521Y14717D01*
X13517Y14693D01*
X13516Y14668D01*
X13517Y14643D01*
X13521Y14619D01*
X13528Y14595D01*
X13538Y14572D01*
X13550Y14551D01*
X13564Y14531D01*
X13580Y14512D01*
X13599Y14496D01*
X13619Y14481D01*
X13641Y14470D01*
X13663Y14460D01*
X13687Y14453D01*
X13712Y14449D01*
X13736Y14448D01*
X13761Y14449D01*
X13785Y14453D01*
X13809Y14460D01*
X13832Y14470D01*
X13853Y14481D01*
X13874Y14496D01*
X13892Y14512D01*
X13924Y14486D01*
X13944Y14472D01*
X13965Y14460D01*
X13988Y14450D01*
X14012Y14443D01*
X14036Y14439D01*
X14061Y14438D01*
X14086Y14439D01*
X14110Y14443D01*
X14134Y14450D01*
X14157Y14460D01*
X14178Y14472D01*
X14198Y14486D01*
X14217Y14502D01*
X14233Y14521D01*
X14269Y14532D01*
X14298Y14521D01*
X14320Y14509D01*
X14343Y14499D01*
X14366Y14493D01*
X14391Y14488D01*
X14415Y14487D01*
X14440Y14488D01*
X14464Y14493D01*
X14488Y14499D01*
X14511Y14509D01*
X15102D01*
Y13823D01*
X15104Y13800D01*
X15107Y13778D01*
X15114Y13757D01*
X15122Y13736D01*
X15133Y13717D01*
X15146Y13699D01*
X15161Y13682D01*
X15183Y13660D01*
X15188Y13644D01*
X15197Y13621D01*
X15209Y13599D01*
X15223Y13579D01*
X15240Y13561D01*
X15258Y13544D01*
X15278Y13530D01*
X15300Y13518D01*
X15323Y13508D01*
X15347Y13502D01*
X15371Y13497D01*
X15396Y13496D01*
X15420Y13497D01*
X15445Y13502D01*
X15469Y13508D01*
X15491Y13518D01*
X15513Y13530D01*
X15533Y13544D01*
X15552Y13561D01*
X15568Y13579D01*
X15582Y13599D01*
X15594Y13621D01*
X15604Y13644D01*
X15611Y13667D01*
X15615Y13692D01*
X15616Y13716D01*
X15615Y13741D01*
X15611Y13765D01*
X15604Y13789D01*
X15594Y13812D01*
X15582Y13834D01*
X15568Y13854D01*
X15552Y13872D01*
X15533Y13889D01*
X15513Y13903D01*
X15500Y13910D01*
Y14698D01*
Y16003D01*
X15839Y16342D01*
X15842Y16343D01*
X15866Y16350D01*
X15889Y16359D01*
X15911Y16371D01*
X15931Y16386D01*
X15949Y16402D01*
X15966Y16420D01*
X15980Y16441D01*
X15992Y16462D01*
X16001Y16485D01*
X16008Y16509D01*
X16012Y16533D01*
X16014Y16558D01*
X16012Y16583D01*
X16008Y16607D01*
X16001Y16631D01*
X15992Y16654D01*
X15980Y16675D01*
X15966Y16695D01*
X15949Y16714D01*
X15931Y16730D01*
X15911Y16745D01*
X15889Y16756D01*
X15866Y16766D01*
X15842Y16773D01*
X15818Y16777D01*
X15793Y16778D01*
X15769Y16777D01*
X15744Y16773D01*
X15720Y16766D01*
X15710Y16762D01*
X15667Y16779D01*
X15636Y16801D01*
X15630Y16810D01*
Y17933D01*
X15030Y18533D01*
X14297D01*
X14294Y18534D01*
X14274Y18547D01*
X14227Y18602D01*
X14226Y18611D01*
X14225Y18627D01*
X14221Y18651D01*
X14214Y18675D01*
X14204Y18698D01*
X14193Y18720D01*
X14178Y18740D01*
X14162Y18758D01*
X14143Y18775D01*
X14123Y18789D01*
X14102Y18801D01*
X14079Y18810D01*
X14055Y18817D01*
X14031Y18821D01*
X14006Y18823D01*
D02*
G37*
G36*
X21000Y19219D02*
X20961Y19218D01*
X20922Y19213D01*
X20884Y19206D01*
X20847Y19195D01*
X20810Y19182D01*
X20775Y19165D01*
X20741Y19146D01*
X20708Y19125D01*
X20678Y19100D01*
X20649Y19074D01*
X20623Y19045D01*
X20599Y19015D01*
X20577Y18982D01*
X20558Y18948D01*
X20542Y18913D01*
X20528Y18877D01*
X20518Y18839D01*
X20510Y18801D01*
X20505Y18762D01*
X20504Y18723D01*
X20505Y18684D01*
X20510Y18646D01*
X20518Y18607D01*
X20528Y18570D01*
X20542Y18533D01*
X20558Y18498D01*
X20577Y18464D01*
X20599Y18432D01*
X20623Y18401D01*
X20649Y18372D01*
X20678Y18346D01*
X20708Y18322D01*
X20741Y18300D01*
X20775Y18281D01*
X20810Y18265D01*
X20847Y18251D01*
X20884Y18241D01*
X20922Y18233D01*
X20961Y18229D01*
X21000Y18227D01*
X21039Y18229D01*
X21078Y18233D01*
X21116Y18241D01*
X21153Y18251D01*
X21190Y18265D01*
X21225Y18281D01*
X21259Y18300D01*
X21292Y18322D01*
X21322Y18346D01*
X21351Y18372D01*
X21377Y18401D01*
X21401Y18432D01*
X21423Y18464D01*
X21442Y18498D01*
X21458Y18533D01*
X21472Y18570D01*
X21482Y18607D01*
X21490Y18646D01*
X21495Y18684D01*
X21496Y18723D01*
X21495Y18762D01*
X21490Y18801D01*
X21482Y18839D01*
X21472Y18877D01*
X21458Y18913D01*
X21442Y18948D01*
X21423Y18982D01*
X21401Y19015D01*
X21377Y19045D01*
X21351Y19074D01*
X21322Y19100D01*
X21292Y19125D01*
X21259Y19146D01*
X21225Y19165D01*
X21190Y19182D01*
X21153Y19195D01*
X21116Y19206D01*
X21078Y19213D01*
X21039Y19218D01*
X21000Y19219D01*
D02*
G37*
G36*
X6988Y18842D02*
X6964Y18841D01*
X6939Y18837D01*
X6915Y18830D01*
X6893Y18821D01*
X6871Y18809D01*
X6851Y18794D01*
X6832Y18778D01*
X6816Y18759D01*
X6802Y18739D01*
X6790Y18718D01*
X6780Y18695D01*
X6773Y18671D01*
X6769Y18647D01*
X6768Y18622D01*
X6769Y18597D01*
X6773Y18573D01*
X6780Y18549D01*
X6790Y18526D01*
X6802Y18505D01*
X6816Y18485D01*
X6832Y18466D01*
X6851Y18450D01*
X6871Y18435D01*
X6893Y18423D01*
X6915Y18414D01*
X6939Y18407D01*
X6964Y18403D01*
X6988Y18402D01*
X6997Y18402D01*
X7083Y18316D01*
X7097Y18303D01*
X7114Y18292D01*
X7131Y18284D01*
X7150Y18278D01*
X7169Y18274D01*
X7173Y18273D01*
X7536Y17911D01*
X7503Y17831D01*
X7243D01*
X7243Y17835D01*
X7239Y17854D01*
X7233Y17873D01*
X7224Y17891D01*
X7213Y17907D01*
X7200Y17921D01*
X6716Y18406D01*
X6701Y18418D01*
X6685Y18429D01*
X6668Y18438D01*
X6649Y18444D01*
X6630Y18448D01*
X6610Y18449D01*
X6575D01*
X6411Y18614D01*
X6411Y18622D01*
X6410Y18647D01*
X6406Y18671D01*
X6399Y18695D01*
X6390Y18718D01*
X6378Y18739D01*
X6363Y18759D01*
X6347Y18778D01*
X6328Y18794D01*
X6308Y18809D01*
X6287Y18821D01*
X6264Y18830D01*
X6240Y18837D01*
X6216Y18841D01*
X6191Y18842D01*
X6166Y18841D01*
X6142Y18837D01*
X6118Y18830D01*
X6095Y18821D01*
X6074Y18809D01*
X6054Y18794D01*
X6035Y18778D01*
X6019Y18759D01*
X6004Y18739D01*
X5992Y18718D01*
X5983Y18695D01*
X5976Y18671D01*
X5972Y18647D01*
X5971Y18622D01*
X5972Y18597D01*
X5976Y18573D01*
X5983Y18549D01*
X5992Y18526D01*
X6004Y18505D01*
X6019Y18485D01*
X6035Y18466D01*
X6054Y18450D01*
X6074Y18435D01*
X6095Y18423D01*
X6118Y18414D01*
X6142Y18407D01*
X6166Y18403D01*
X6191Y18402D01*
X6199Y18402D01*
X6407Y18194D01*
X6422Y18181D01*
X6438Y18170D01*
X6456Y18162D01*
X6474Y18155D01*
X6494Y18152D01*
X6513Y18150D01*
X6548D01*
X6854Y17844D01*
X6824Y17770D01*
X6704D01*
Y17831D01*
X6209D01*
Y18112D01*
X6208Y18132D01*
X6204Y18151D01*
X6198Y18169D01*
X6189Y18187D01*
X6178Y18203D01*
X6166Y18218D01*
X5825Y18558D01*
X5811Y18571D01*
X5794Y18582D01*
X5777Y18591D01*
X5758Y18597D01*
X5739Y18601D01*
X5720Y18602D01*
X5644D01*
X5611Y18634D01*
X5609Y18651D01*
X5602Y18675D01*
X5592Y18698D01*
X5580Y18720D01*
X5566Y18740D01*
X5550Y18758D01*
X5531Y18775D01*
X5511Y18789D01*
X5489Y18801D01*
X5466Y18810D01*
X5443Y18817D01*
X5418Y18821D01*
X5394Y18823D01*
X5369Y18821D01*
X5345Y18817D01*
X5321Y18810D01*
X5298Y18801D01*
X5276Y18789D01*
X5256Y18775D01*
X5238Y18758D01*
X5221Y18740D01*
X5207Y18720D01*
X5195Y18698D01*
X5186Y18675D01*
X5179Y18651D01*
X5175Y18627D01*
X5173Y18602D01*
X5175Y18578D01*
X5179Y18553D01*
X5186Y18530D01*
X5195Y18507D01*
X5207Y18485D01*
X5221Y18465D01*
X5238Y18447D01*
X5256Y18430D01*
X5276Y18416D01*
X5298Y18404D01*
X5321Y18394D01*
X5345Y18387D01*
X5369Y18383D01*
X5394Y18382D01*
X5418Y18383D01*
X5437Y18386D01*
X5476Y18347D01*
X5491Y18334D01*
X5507Y18323D01*
X5525Y18314D01*
X5543Y18308D01*
X5563Y18304D01*
X5582Y18303D01*
X5658D01*
X5910Y18050D01*
Y17770D01*
X5704D01*
Y17831D01*
X5103D01*
Y16769D01*
X5103D01*
X5118Y16753D01*
Y16751D01*
X5103Y16678D01*
X5103D01*
Y15615D01*
X5704D01*
Y15637D01*
X5910D01*
Y15584D01*
X5912Y15564D01*
X5915Y15545D01*
X5922Y15527D01*
X5930Y15509D01*
X5941Y15493D01*
X5954Y15478D01*
X6207Y15225D01*
X6222Y15212D01*
X6238Y15202D01*
X6255Y15193D01*
X6274Y15187D01*
X6293Y15183D01*
X6313Y15182D01*
X6587D01*
X6589Y15178D01*
X6606Y15159D01*
X6624Y15143D01*
X6645Y15128D01*
X6666Y15116D01*
X6689Y15107D01*
X6713Y15100D01*
X6737Y15096D01*
X6762Y15095D01*
X6786Y15096D01*
X6811Y15100D01*
X6835Y15107D01*
X6857Y15116D01*
X6879Y15128D01*
X6899Y15143D01*
X6920Y15159D01*
X6958D01*
X6979Y15143D01*
X6999Y15128D01*
X7020Y15116D01*
X7043Y15107D01*
X7067Y15100D01*
X7091Y15096D01*
X7116Y15095D01*
X7141Y15096D01*
X7165Y15100D01*
X7189Y15107D01*
X7212Y15116D01*
X7233Y15128D01*
X7254Y15143D01*
X7272Y15159D01*
X7288Y15178D01*
X7303Y15198D01*
X7315Y15219D01*
X7324Y15242D01*
X7331Y15266D01*
X7335Y15290D01*
X7337Y15315D01*
X7335Y15340D01*
X7331Y15364D01*
X7324Y15388D01*
X7315Y15411D01*
X7303Y15432D01*
X7288Y15452D01*
X7272Y15471D01*
X7254Y15487D01*
X7244Y15494D01*
Y15615D01*
X7514D01*
Y15426D01*
X7515Y15406D01*
X7519Y15387D01*
X7525Y15369D01*
X7534Y15351D01*
X7545Y15335D01*
X7558Y15320D01*
X7660Y15218D01*
X7659Y15209D01*
X7661Y15185D01*
X7665Y15160D01*
X7672Y15137D01*
X7681Y15114D01*
X7693Y15092D01*
X7708Y15072D01*
X7724Y15054D01*
X7742Y15037D01*
X7763Y15023D01*
X7784Y15011D01*
X7807Y15001D01*
X7831Y14995D01*
X7855Y14990D01*
X7880Y14989D01*
X7905Y14990D01*
X7929Y14995D01*
X7953Y15001D01*
X7976Y15011D01*
X7997Y15023D01*
X8017Y15037D01*
X8036Y15054D01*
X8052Y15072D01*
X8067Y15092D01*
X8079Y15114D01*
X8088Y15137D01*
X8095Y15160D01*
X8099Y15185D01*
X8100Y15209D01*
X8099Y15234D01*
X8095Y15258D01*
X8088Y15282D01*
X8079Y15305D01*
X8067Y15327D01*
X8052Y15347D01*
X8036Y15365D01*
X8017Y15382D01*
X7997Y15396D01*
X7976Y15408D01*
X7953Y15417D01*
X7929Y15424D01*
X7905Y15428D01*
X7880Y15430D01*
X7871Y15429D01*
X7813Y15488D01*
Y15558D01*
X7819Y15564D01*
X7832Y15579D01*
X7843Y15595D01*
X7852Y15613D01*
X7858Y15631D01*
X7859Y15637D01*
X8103D01*
Y15615D01*
X8704D01*
X8764Y15566D01*
Y15381D01*
X8758Y15375D01*
X8741Y15357D01*
X8727Y15337D01*
X8715Y15315D01*
X8705Y15292D01*
X8698Y15268D01*
X8694Y15244D01*
X8693Y15219D01*
X8694Y15195D01*
X8698Y15170D01*
X8705Y15146D01*
X8715Y15124D01*
X8727Y15102D01*
X8741Y15082D01*
X8758Y15063D01*
X8776Y15047D01*
X8796Y15033D01*
X8818Y15021D01*
X8841Y15011D01*
X8864Y15004D01*
X8889Y15000D01*
X8913Y14999D01*
X8938Y15000D01*
X8962Y15004D01*
X8986Y15011D01*
X9009Y15021D01*
X9031Y15033D01*
X9051Y15047D01*
X9069Y15063D01*
X9086Y15082D01*
X9100Y15102D01*
X9112Y15124D01*
X9121Y15146D01*
X9128Y15170D01*
X9132Y15195D01*
X9134Y15219D01*
X9132Y15244D01*
X9128Y15268D01*
X9121Y15292D01*
X9112Y15315D01*
X9100Y15337D01*
X9086Y15357D01*
X9069Y15375D01*
X9063Y15381D01*
Y15552D01*
X9103Y15615D01*
X9704D01*
Y16678D01*
X9704D01*
X9682Y16751D01*
Y16753D01*
X9697Y16769D01*
X9704D01*
Y17831D01*
X9103D01*
X9063Y17895D01*
Y18010D01*
X9062Y18030D01*
X9058Y18049D01*
X9052Y18068D01*
X9043Y18085D01*
X9032Y18102D01*
X9019Y18116D01*
X8531Y18604D01*
X8528Y18625D01*
X8521Y18648D01*
X8512Y18671D01*
X8500Y18693D01*
X8485Y18713D01*
X8469Y18731D01*
X8450Y18748D01*
X8430Y18762D01*
X8409Y18774D01*
X8386Y18784D01*
X8362Y18790D01*
X8338Y18795D01*
X8313Y18796D01*
X8288Y18795D01*
X8264Y18790D01*
X8240Y18784D01*
X8217Y18774D01*
X8196Y18762D01*
X8176Y18748D01*
X8157Y18731D01*
X8141Y18713D01*
X8126Y18693D01*
X8114Y18671D01*
X8105Y18648D01*
X8098Y18625D01*
X8094Y18600D01*
X8093Y18576D01*
X8094Y18551D01*
X8098Y18527D01*
X8105Y18503D01*
X8114Y18480D01*
X8126Y18458D01*
X8141Y18438D01*
X8157Y18420D01*
X8176Y18403D01*
X8196Y18389D01*
X8217Y18377D01*
X8240Y18368D01*
X8264Y18361D01*
X8288Y18357D01*
X8313Y18355D01*
X8338Y18357D01*
X8353Y18359D01*
X8757Y17956D01*
X8754Y17873D01*
X8704Y17831D01*
X8103D01*
Y17770D01*
X7863D01*
Y17945D01*
X7862Y17964D01*
X7858Y17983D01*
X7852Y18002D01*
X7843Y18019D01*
X7832Y18036D01*
X7819Y18050D01*
X7342Y18528D01*
X7327Y18541D01*
X7311Y18551D01*
X7294Y18560D01*
X7275Y18566D01*
X7256Y18570D01*
X7251Y18571D01*
X7208Y18614D01*
X7209Y18622D01*
X7207Y18647D01*
X7203Y18671D01*
X7196Y18695D01*
X7187Y18718D01*
X7175Y18739D01*
X7161Y18759D01*
X7144Y18778D01*
X7126Y18794D01*
X7105Y18809D01*
X7084Y18821D01*
X7061Y18830D01*
X7037Y18837D01*
X7013Y18841D01*
X6988Y18842D01*
D02*
G37*
G36*
X20911Y17810D02*
X20824D01*
Y17504D01*
X21264D01*
X21262Y17515D01*
X21256Y17546D01*
X21246Y17575D01*
X21234Y17604D01*
X21220Y17632D01*
X21203Y17658D01*
X21184Y17683D01*
X21163Y17705D01*
X21140Y17726D01*
X21116Y17745D01*
X21090Y17762D01*
X21062Y17776D01*
X21033Y17788D01*
X21004Y17798D01*
X20973Y17804D01*
X20942Y17808D01*
X20911Y17810D01*
D02*
G37*
G36*
X20724D02*
X20636D01*
X20605Y17808D01*
X20574Y17804D01*
X20544Y17798D01*
X20514Y17788D01*
X20485Y17776D01*
X20458Y17762D01*
X20431Y17745D01*
X20407Y17726D01*
X20384Y17705D01*
X20363Y17683D01*
X20344Y17658D01*
X20327Y17632D01*
X20313Y17604D01*
X20301Y17575D01*
X20292Y17546D01*
X20285Y17515D01*
X20283Y17504D01*
X20724D01*
Y17810D01*
D02*
G37*
G36*
X21264Y17404D02*
X20774D01*
X20283D01*
X20285Y17392D01*
X20292Y17361D01*
X20301Y17332D01*
X20313Y17303D01*
X20327Y17275D01*
X20344Y17249D01*
X20363Y17225D01*
X20384Y17202D01*
X20407Y17181D01*
X20431Y17162D01*
X20458Y17145D01*
X20485Y17131D01*
X20514Y17119D01*
X20544Y17109D01*
X20574Y17103D01*
X20593Y17100D01*
Y17019D01*
X20574Y17017D01*
X20544Y17010D01*
X20514Y17001D01*
X20485Y16989D01*
X20458Y16975D01*
X20431Y16958D01*
X20407Y16939D01*
X20390Y16924D01*
X20232D01*
X20207Y16923D01*
X20182Y16919D01*
X20157Y16913D01*
X20134Y16904D01*
X20111Y16893D01*
X20089Y16880D01*
X20069Y16865D01*
X20050Y16848D01*
X19206Y16004D01*
X19189Y15985D01*
X19173Y15965D01*
X19160Y15943D01*
X19150Y15920D01*
X19141Y15896D01*
X19135Y15872D01*
X19131Y15847D01*
X19130Y15822D01*
Y11925D01*
X18623Y11418D01*
X18606Y11399D01*
X18591Y11379D01*
X18578Y11357D01*
X18567Y11334D01*
X18558Y11310D01*
X18552Y11286D01*
X18549Y11261D01*
X18547Y11235D01*
Y10160D01*
Y9206D01*
Y7178D01*
X18549Y7153D01*
X18552Y7128D01*
X18558Y7103D01*
X18567Y7079D01*
X18578Y7056D01*
X18591Y7035D01*
X18606Y7014D01*
X18623Y6996D01*
X18642Y6979D01*
X18662Y6964D01*
X18684Y6951D01*
X18706Y6940D01*
X18730Y6931D01*
X18755Y6925D01*
X18780Y6921D01*
X18805Y6920D01*
X18830Y6921D01*
X18855Y6925D01*
X18880Y6931D01*
X18904Y6940D01*
X18927Y6951D01*
X18948Y6964D01*
X18969Y6979D01*
X18987Y6996D01*
X19004Y7014D01*
X19019Y7035D01*
X19032Y7056D01*
X19043Y7079D01*
X19052Y7103D01*
X19058Y7128D01*
X19062Y7153D01*
X19063Y7178D01*
Y9206D01*
Y10160D01*
Y10872D01*
X19077Y10890D01*
X19130Y10923D01*
X19143Y10925D01*
X19160Y10920D01*
X19184Y10916D01*
X19209Y10914D01*
X19233Y10916D01*
X19258Y10920D01*
X19281Y10927D01*
X19304Y10936D01*
X19326Y10948D01*
X19346Y10962D01*
X19365Y10979D01*
X19381Y10997D01*
X19395Y11017D01*
X19407Y11039D01*
X19417Y11062D01*
X19424Y11086D01*
X19428Y11110D01*
X19429Y11135D01*
X19428Y11146D01*
X19756Y11473D01*
X19769Y11488D01*
X19779Y11504D01*
X19788Y11521D01*
X19794Y11539D01*
X19798Y11558D01*
X19799Y11578D01*
Y14981D01*
X20283Y15465D01*
X20362Y15461D01*
X20365Y15456D01*
X20382Y15437D01*
X20400Y15421D01*
X20420Y15407D01*
X20442Y15395D01*
X20465Y15385D01*
X20488Y15378D01*
X20513Y15374D01*
X20537Y15373D01*
X20562Y15374D01*
X20586Y15378D01*
X20610Y15385D01*
X20633Y15395D01*
X20655Y15407D01*
X20675Y15421D01*
X20693Y15437D01*
X20710Y15456D01*
X20724Y15476D01*
X20736Y15498D01*
X20745Y15520D01*
X20752Y15544D01*
X20756Y15569D01*
X20758Y15593D01*
X20756Y15618D01*
X20752Y15642D01*
X20745Y15666D01*
X20736Y15689D01*
X20724Y15711D01*
X20710Y15731D01*
X20693Y15749D01*
X20675Y15766D01*
X20655Y15780D01*
X20633Y15792D01*
X20610Y15801D01*
X20586Y15808D01*
X20562Y15812D01*
X20537Y15814D01*
X20513Y15812D01*
X20488Y15808D01*
X20465Y15801D01*
X20442Y15792D01*
X20420Y15780D01*
X20400Y15766D01*
X20394Y15761D01*
X20222D01*
X20203Y15759D01*
X20184Y15756D01*
X20166Y15749D01*
X20149Y15741D01*
X20133Y15730D01*
X20118Y15717D01*
X20118Y15717D01*
X19720Y15319D01*
X19646Y15349D01*
Y15715D01*
X20339Y16408D01*
X20390D01*
X20407Y16393D01*
X20431Y16374D01*
X20458Y16358D01*
X20485Y16343D01*
X20514Y16331D01*
X20544Y16322D01*
X20574Y16315D01*
X20605Y16311D01*
X20636Y16310D01*
X20911D01*
X20942Y16311D01*
X20973Y16315D01*
X21004Y16322D01*
X21033Y16331D01*
X21062Y16343D01*
X21090Y16358D01*
X21116Y16374D01*
X21140Y16393D01*
X21163Y16414D01*
X21184Y16437D01*
X21203Y16462D01*
X21220Y16488D01*
X21234Y16516D01*
X21246Y16544D01*
X21256Y16574D01*
X21262Y16604D01*
X21266Y16635D01*
X21268Y16666D01*
X21266Y16697D01*
X21262Y16728D01*
X21256Y16758D01*
X21246Y16788D01*
X21234Y16817D01*
X21220Y16844D01*
X21203Y16870D01*
X21184Y16895D01*
X21163Y16918D01*
X21140Y16939D01*
X21116Y16958D01*
X21090Y16975D01*
X21062Y16989D01*
X21033Y17001D01*
X21004Y17010D01*
X20973Y17017D01*
X20954Y17019D01*
Y17100D01*
X20973Y17103D01*
X21004Y17109D01*
X21033Y17119D01*
X21062Y17131D01*
X21090Y17145D01*
X21116Y17162D01*
X21140Y17181D01*
X21163Y17202D01*
X21184Y17225D01*
X21203Y17249D01*
X21220Y17275D01*
X21234Y17303D01*
X21246Y17332D01*
X21256Y17361D01*
X21262Y17392D01*
X21264Y17404D01*
D02*
G37*
G36*
X10704Y17831D02*
X10103D01*
Y16769D01*
X10103D01*
X10118Y16753D01*
Y16751D01*
X10103Y16678D01*
X10103D01*
Y15615D01*
X10704D01*
Y16678D01*
X10704D01*
X10682Y16751D01*
Y16753D01*
X10697Y16769D01*
X10704D01*
Y17831D01*
D02*
G37*
G36*
X4704D02*
X4103D01*
Y16769D01*
X4103D01*
X4118Y16753D01*
Y16751D01*
X4103Y16678D01*
X4103D01*
Y15615D01*
X4704D01*
Y16678D01*
X4704D01*
X4682Y16751D01*
Y16753D01*
X4697Y16769D01*
X4704D01*
Y17831D01*
D02*
G37*
G36*
X3704D02*
X3103D01*
Y16769D01*
X3103D01*
X3118Y16753D01*
Y16751D01*
X3103Y16678D01*
X3103D01*
Y15615D01*
X3704D01*
Y16678D01*
X3704D01*
X3682Y16751D01*
Y16753D01*
X3697Y16769D01*
X3704D01*
Y17831D01*
D02*
G37*
G36*
X3440Y15318D02*
Y14976D01*
X3782D01*
X3779Y14995D01*
X3772Y15028D01*
X3762Y15061D01*
X3748Y15093D01*
X3732Y15124D01*
X3714Y15153D01*
X3693Y15180D01*
X3670Y15206D01*
X3644Y15229D01*
X3617Y15250D01*
X3588Y15269D01*
X3557Y15285D01*
X3525Y15298D01*
X3492Y15308D01*
X3458Y15316D01*
X3440Y15318D01*
D02*
G37*
G36*
X2785Y15321D02*
X1994D01*
Y14531D01*
X2671D01*
Y14309D01*
X2659Y14296D01*
X2591Y14266D01*
X2588Y14269D01*
X2557Y14285D01*
X2525Y14298D01*
X2492Y14308D01*
X2458Y14316D01*
X2424Y14320D01*
X2390Y14322D01*
X2355Y14320D01*
X2321Y14316D01*
X2287Y14308D01*
X2254Y14298D01*
X2223Y14285D01*
X2192Y14269D01*
X2163Y14250D01*
X2135Y14229D01*
X2110Y14206D01*
X2087Y14180D01*
X2066Y14153D01*
X2047Y14124D01*
X2031Y14093D01*
X2018Y14061D01*
X2008Y14028D01*
X2000Y13995D01*
X1996Y13960D01*
X1994Y13926D01*
X1996Y13892D01*
X2000Y13857D01*
X2008Y13824D01*
X2018Y13791D01*
X2031Y13759D01*
X2047Y13728D01*
X2066Y13699D01*
X2087Y13672D01*
X2110Y13646D01*
X2135Y13623D01*
X2163Y13602D01*
X2192Y13583D01*
X2223Y13567D01*
X2254Y13554D01*
X2287Y13544D01*
X2321Y13536D01*
X2355Y13532D01*
X2390Y13530D01*
X2424Y13532D01*
X2458Y13536D01*
X2492Y13544D01*
X2525Y13554D01*
X2557Y13567D01*
X2588Y13583D01*
X2591Y13586D01*
X2659Y13556D01*
X2671Y13543D01*
Y13309D01*
X2659Y13296D01*
X2591Y13266D01*
X2588Y13269D01*
X2557Y13285D01*
X2525Y13298D01*
X2492Y13308D01*
X2458Y13316D01*
X2424Y13320D01*
X2390Y13322D01*
X2355Y13320D01*
X2321Y13316D01*
X2287Y13308D01*
X2254Y13298D01*
X2223Y13285D01*
X2192Y13269D01*
X2163Y13250D01*
X2135Y13229D01*
X2110Y13206D01*
X2087Y13180D01*
X2066Y13153D01*
X2047Y13124D01*
X2031Y13093D01*
X2018Y13061D01*
X2008Y13028D01*
X2000Y12995D01*
X1996Y12960D01*
X1994Y12926D01*
X1996Y12891D01*
X2000Y12857D01*
X2008Y12824D01*
X2018Y12791D01*
X2031Y12759D01*
X2047Y12728D01*
X2066Y12699D01*
X2087Y12672D01*
X2110Y12646D01*
X2135Y12623D01*
X2163Y12602D01*
X2192Y12583D01*
X2223Y12567D01*
X2254Y12554D01*
X2287Y12544D01*
X2321Y12536D01*
X2355Y12532D01*
X2390Y12530D01*
X2424Y12532D01*
X2458Y12536D01*
X2492Y12544D01*
X2525Y12554D01*
X2557Y12567D01*
X2588Y12583D01*
X2591Y12586D01*
X2659Y12556D01*
X2671Y12543D01*
Y12433D01*
X2533Y12295D01*
X2525Y12298D01*
X2492Y12308D01*
X2458Y12316D01*
X2424Y12320D01*
X2390Y12322D01*
X2355Y12320D01*
X2321Y12316D01*
X2287Y12308D01*
X2254Y12298D01*
X2223Y12285D01*
X2192Y12269D01*
X2163Y12250D01*
X2135Y12229D01*
X2110Y12206D01*
X2087Y12180D01*
X2066Y12153D01*
X2047Y12124D01*
X2031Y12093D01*
X2018Y12061D01*
X2008Y12028D01*
X2000Y11995D01*
X1996Y11960D01*
X1994Y11926D01*
X1996Y11891D01*
X2000Y11857D01*
X2008Y11824D01*
X2018Y11791D01*
X2031Y11759D01*
X2047Y11728D01*
X2066Y11699D01*
X2087Y11672D01*
X2110Y11646D01*
X2135Y11623D01*
X2163Y11602D01*
X2192Y11583D01*
X2223Y11567D01*
X2254Y11554D01*
X2287Y11544D01*
X2321Y11536D01*
X2355Y11532D01*
X2390Y11530D01*
X2424Y11532D01*
X2458Y11536D01*
X2492Y11544D01*
X2525Y11554D01*
X2557Y11567D01*
X2588Y11583D01*
X2617Y11602D01*
X2644Y11623D01*
X2670Y11646D01*
X2693Y11672D01*
X2714Y11699D01*
X2732Y11728D01*
X2748Y11759D01*
X2762Y11791D01*
X2772Y11824D01*
X2779Y11857D01*
X2784Y11891D01*
X2785Y11926D01*
X2784Y11960D01*
X2779Y11995D01*
X2772Y12028D01*
X2762Y12061D01*
X2758Y12069D01*
X2943Y12254D01*
X2957Y12270D01*
X2969Y12287D01*
X2978Y12306D01*
X2985Y12326D01*
X2989Y12346D01*
X2990Y12367D01*
Y12650D01*
X3060Y12694D01*
X3070Y12693D01*
X3087Y12672D01*
X3110Y12646D01*
X3135Y12623D01*
X3163Y12602D01*
X3192Y12583D01*
X3223Y12567D01*
X3254Y12554D01*
X3287Y12544D01*
X3321Y12536D01*
X3355Y12532D01*
X3390Y12530D01*
X3424Y12532D01*
X3458Y12536D01*
X3492Y12544D01*
X3525Y12554D01*
X3557Y12567D01*
X3588Y12583D01*
X3617Y12602D01*
X3644Y12623D01*
X3670Y12646D01*
X3693Y12672D01*
X3714Y12699D01*
X3732Y12728D01*
X3748Y12759D01*
X3762Y12791D01*
X3772Y12824D01*
X3779Y12857D01*
X3784Y12891D01*
X3785Y12926D01*
X3784Y12960D01*
X3779Y12995D01*
X3772Y13028D01*
X3762Y13061D01*
X3748Y13093D01*
X3732Y13124D01*
X3714Y13153D01*
X3693Y13180D01*
X3670Y13206D01*
X3644Y13229D01*
X3617Y13250D01*
X3588Y13269D01*
X3557Y13285D01*
X3525Y13298D01*
X3492Y13308D01*
X3458Y13316D01*
X3424Y13320D01*
X3390Y13322D01*
X3355Y13320D01*
X3321Y13316D01*
X3287Y13308D01*
X3254Y13298D01*
X3223Y13285D01*
X3192Y13269D01*
X3163Y13250D01*
X3135Y13229D01*
X3110Y13206D01*
X3087Y13180D01*
X3070Y13159D01*
X3060Y13158D01*
X2990Y13202D01*
Y13650D01*
X3060Y13694D01*
X3070Y13693D01*
X3087Y13672D01*
X3110Y13646D01*
X3135Y13623D01*
X3163Y13602D01*
X3192Y13583D01*
X3223Y13567D01*
X3254Y13554D01*
X3287Y13544D01*
X3321Y13536D01*
X3355Y13532D01*
X3390Y13530D01*
X3424Y13532D01*
X3458Y13536D01*
X3492Y13544D01*
X3525Y13554D01*
X3557Y13567D01*
X3588Y13583D01*
X3617Y13602D01*
X3644Y13623D01*
X3670Y13646D01*
X3693Y13672D01*
X3714Y13699D01*
X3732Y13728D01*
X3748Y13759D01*
X3762Y13791D01*
X3772Y13824D01*
X3779Y13857D01*
X3784Y13892D01*
X3785Y13926D01*
X3784Y13960D01*
X3779Y13995D01*
X3772Y14028D01*
X3762Y14061D01*
X3748Y14093D01*
X3732Y14124D01*
X3714Y14153D01*
X3693Y14180D01*
X3670Y14206D01*
X3644Y14229D01*
X3617Y14250D01*
X3588Y14269D01*
X3557Y14285D01*
X3525Y14298D01*
X3492Y14308D01*
X3458Y14316D01*
X3424Y14320D01*
X3390Y14322D01*
X3355Y14320D01*
X3321Y14316D01*
X3287Y14308D01*
X3254Y14298D01*
X3223Y14285D01*
X3192Y14269D01*
X3163Y14250D01*
X3135Y14229D01*
X3110Y14206D01*
X3087Y14180D01*
X3070Y14159D01*
X3060Y14158D01*
X2990Y14202D01*
Y14650D01*
X3060Y14694D01*
X3070Y14693D01*
X3087Y14672D01*
X3110Y14646D01*
X3135Y14623D01*
X3163Y14602D01*
X3192Y14583D01*
X3223Y14567D01*
X3254Y14554D01*
X3287Y14544D01*
X3321Y14536D01*
X3340Y14534D01*
Y14926D01*
Y15318D01*
X3321Y15316D01*
X3287Y15308D01*
X3254Y15298D01*
X3223Y15285D01*
X3192Y15269D01*
X3163Y15250D01*
X3135Y15229D01*
X3110Y15206D01*
X3087Y15180D01*
X3066Y15153D01*
X3047Y15124D01*
X3031Y15093D01*
X3018Y15061D01*
X3008Y15028D01*
X3000Y14995D01*
X2996Y14960D01*
X2994Y14931D01*
X2983Y14922D01*
X2915Y14897D01*
X2874Y14938D01*
X2859Y14952D01*
X2841Y14964D01*
X2823Y14973D01*
X2803Y14980D01*
X2785Y14983D01*
Y15321D01*
D02*
G37*
G36*
X3782Y14876D02*
X3440D01*
Y14534D01*
X3458Y14536D01*
X3492Y14544D01*
X3525Y14554D01*
X3557Y14567D01*
X3588Y14583D01*
X3617Y14602D01*
X3644Y14623D01*
X3670Y14646D01*
X3693Y14672D01*
X3714Y14699D01*
X3732Y14728D01*
X3748Y14759D01*
X3762Y14791D01*
X3772Y14824D01*
X3779Y14857D01*
X3782Y14876D01*
D02*
G37*
G36*
X3440Y12318D02*
Y11976D01*
X3782D01*
X3779Y11995D01*
X3772Y12028D01*
X3762Y12061D01*
X3748Y12093D01*
X3732Y12124D01*
X3714Y12153D01*
X3693Y12180D01*
X3670Y12206D01*
X3644Y12229D01*
X3617Y12250D01*
X3588Y12269D01*
X3557Y12285D01*
X3525Y12298D01*
X3492Y12308D01*
X3458Y12316D01*
X3440Y12318D01*
D02*
G37*
G36*
X3340Y12318D02*
X3321Y12316D01*
X3287Y12308D01*
X3254Y12298D01*
X3223Y12285D01*
X3192Y12269D01*
X3163Y12250D01*
X3135Y12229D01*
X3110Y12206D01*
X3087Y12180D01*
X3066Y12153D01*
X3047Y12124D01*
X3031Y12093D01*
X3018Y12061D01*
X3008Y12028D01*
X3000Y11995D01*
X2998Y11976D01*
X3340D01*
Y12318D01*
D02*
G37*
G36*
Y11876D02*
X2998D01*
X3000Y11857D01*
X3008Y11824D01*
X3018Y11791D01*
X3031Y11759D01*
X3047Y11728D01*
X3066Y11699D01*
X3087Y11672D01*
X3110Y11646D01*
X3135Y11623D01*
X3163Y11602D01*
X3192Y11583D01*
X3223Y11567D01*
X3254Y11554D01*
X3287Y11544D01*
X3321Y11536D01*
X3340Y11534D01*
Y11876D01*
D02*
G37*
G36*
X3782D02*
X3440D01*
Y11534D01*
X3458Y11536D01*
X3492Y11544D01*
X3525Y11554D01*
X3557Y11567D01*
X3588Y11583D01*
X3617Y11602D01*
X3644Y11623D01*
X3670Y11646D01*
X3693Y11672D01*
X3714Y11699D01*
X3732Y11728D01*
X3748Y11759D01*
X3762Y11791D01*
X3772Y11824D01*
X3779Y11857D01*
X3782Y11876D01*
D02*
G37*
G36*
X22612Y11024D02*
X22125D01*
Y10773D01*
X22612D01*
Y11024D01*
D02*
G37*
G36*
X3390Y11322D02*
X3355Y11320D01*
X3321Y11316D01*
X3287Y11308D01*
X3254Y11298D01*
X3223Y11285D01*
X3192Y11269D01*
X3163Y11250D01*
X3135Y11229D01*
X3110Y11206D01*
X3087Y11180D01*
X3066Y11153D01*
X3047Y11124D01*
X3031Y11093D01*
X3018Y11061D01*
X3008Y11028D01*
X3000Y10995D01*
X2996Y10960D01*
X2994Y10926D01*
X2996Y10891D01*
X3000Y10857D01*
X3008Y10824D01*
X3018Y10791D01*
X3031Y10759D01*
X3047Y10728D01*
X3066Y10699D01*
X3087Y10672D01*
X3110Y10646D01*
X3135Y10623D01*
X3163Y10602D01*
X3192Y10583D01*
X3223Y10567D01*
X3254Y10554D01*
X3287Y10544D01*
X3321Y10536D01*
X3355Y10532D01*
X3390Y10530D01*
X3424Y10532D01*
X3458Y10536D01*
X3492Y10544D01*
X3525Y10554D01*
X3557Y10567D01*
X3588Y10583D01*
X3617Y10602D01*
X3644Y10623D01*
X3670Y10646D01*
X3693Y10672D01*
X3714Y10699D01*
X3732Y10728D01*
X3748Y10759D01*
X3762Y10791D01*
X3772Y10824D01*
X3779Y10857D01*
X3784Y10891D01*
X3785Y10926D01*
X3784Y10960D01*
X3779Y10995D01*
X3772Y11028D01*
X3762Y11061D01*
X3748Y11093D01*
X3732Y11124D01*
X3714Y11153D01*
X3693Y11180D01*
X3670Y11206D01*
X3644Y11229D01*
X3617Y11250D01*
X3588Y11269D01*
X3557Y11285D01*
X3525Y11298D01*
X3492Y11308D01*
X3458Y11316D01*
X3424Y11320D01*
X3390Y11322D01*
D02*
G37*
G36*
X2390D02*
X2355Y11320D01*
X2321Y11316D01*
X2287Y11308D01*
X2254Y11298D01*
X2223Y11285D01*
X2192Y11269D01*
X2163Y11250D01*
X2135Y11229D01*
X2110Y11206D01*
X2087Y11180D01*
X2066Y11153D01*
X2047Y11124D01*
X2031Y11093D01*
X2018Y11061D01*
X2008Y11028D01*
X2000Y10995D01*
X1996Y10960D01*
X1994Y10926D01*
X1996Y10891D01*
X2000Y10857D01*
X2008Y10824D01*
X2018Y10791D01*
X2031Y10759D01*
X2047Y10728D01*
X2066Y10699D01*
X2087Y10672D01*
X2110Y10646D01*
X2135Y10623D01*
X2163Y10602D01*
X2192Y10583D01*
X2223Y10567D01*
X2254Y10554D01*
X2287Y10544D01*
X2321Y10536D01*
X2355Y10532D01*
X2390Y10530D01*
X2424Y10532D01*
X2458Y10536D01*
X2492Y10544D01*
X2525Y10554D01*
X2557Y10567D01*
X2588Y10583D01*
X2617Y10602D01*
X2644Y10623D01*
X2670Y10646D01*
X2693Y10672D01*
X2714Y10699D01*
X2732Y10728D01*
X2748Y10759D01*
X2762Y10791D01*
X2772Y10824D01*
X2779Y10857D01*
X2784Y10891D01*
X2785Y10926D01*
X2784Y10960D01*
X2779Y10995D01*
X2772Y11028D01*
X2762Y11061D01*
X2748Y11093D01*
X2732Y11124D01*
X2714Y11153D01*
X2693Y11180D01*
X2670Y11206D01*
X2644Y11229D01*
X2617Y11250D01*
X2588Y11269D01*
X2557Y11285D01*
X2525Y11298D01*
X2492Y11308D01*
X2458Y11316D01*
X2424Y11320D01*
X2390Y11322D01*
D02*
G37*
G36*
X22612Y10673D02*
X22125D01*
Y10422D01*
X22612D01*
Y10673D01*
D02*
G37*
G36*
X20626Y13452D02*
X20601Y13450D01*
X20577Y13446D01*
X20553Y13439D01*
X20530Y13430D01*
X20509Y13418D01*
X20489Y13403D01*
X20470Y13387D01*
X20454Y13369D01*
X20439Y13348D01*
X20427Y13327D01*
X20418Y13304D01*
X20411Y13280D01*
X20407Y13256D01*
X20406Y13231D01*
X20407Y13206D01*
X20408Y13203D01*
Y13024D01*
X19901D01*
Y12422D01*
X20388D01*
X20412Y12384D01*
X20421Y12342D01*
X20414Y12335D01*
X20400Y12315D01*
X20388Y12293D01*
X20379Y12270D01*
X20372Y12247D01*
X20368Y12222D01*
X20366Y12198D01*
X20368Y12173D01*
X20368Y12170D01*
Y12024D01*
X19901D01*
Y11422D01*
X20274D01*
X20293Y11399D01*
X20313Y11342D01*
X20311Y11341D01*
X20299Y11319D01*
X20290Y11296D01*
X20283Y11272D01*
X20279Y11248D01*
X20278Y11223D01*
X20279Y11199D01*
X20280Y11195D01*
Y11024D01*
X19901D01*
Y10422D01*
X20975D01*
Y11024D01*
X20716D01*
Y11195D01*
X20717Y11199D01*
X20718Y11223D01*
X20717Y11248D01*
X20713Y11272D01*
X20706Y11296D01*
X20697Y11319D01*
X20685Y11341D01*
X20683Y11342D01*
X20703Y11399D01*
X20722Y11422D01*
X20975D01*
Y12024D01*
X20805D01*
Y12170D01*
X20806Y12173D01*
X20807Y12198D01*
X20806Y12222D01*
X20802Y12247D01*
X20795Y12270D01*
X20785Y12293D01*
X20773Y12315D01*
X20759Y12335D01*
X20752Y12342D01*
X20761Y12384D01*
X20785Y12422D01*
X20975D01*
Y13024D01*
X20844D01*
Y13203D01*
X20845Y13206D01*
X20846Y13231D01*
X20845Y13256D01*
X20841Y13280D01*
X20834Y13304D01*
X20825Y13327D01*
X20813Y13348D01*
X20798Y13369D01*
X20782Y13387D01*
X20763Y13403D01*
X20743Y13418D01*
X20722Y13430D01*
X20699Y13439D01*
X20675Y13446D01*
X20651Y13450D01*
X20626Y13452D01*
D02*
G37*
G36*
X17329Y10390D02*
X17304Y10389D01*
X17280Y10385D01*
X17256Y10378D01*
X17233Y10369D01*
X17211Y10357D01*
X17191Y10342D01*
X17173Y10326D01*
X17161Y10313D01*
X17035D01*
X17032Y10316D01*
X17013Y10333D01*
X16993Y10347D01*
X16972Y10359D01*
X16949Y10368D01*
X16925Y10375D01*
X16901Y10379D01*
X16876Y10381D01*
X16851Y10379D01*
X16827Y10375D01*
X16803Y10368D01*
X16780Y10359D01*
X16759Y10347D01*
X16739Y10333D01*
X16720Y10316D01*
X16704Y10298D01*
X16689Y10278D01*
X16677Y10256D01*
X16668Y10233D01*
X16661Y10209D01*
X16657Y10185D01*
X16656Y10160D01*
X16657Y10136D01*
X16661Y10111D01*
X16668Y10087D01*
X16677Y10065D01*
X16689Y10043D01*
X16704Y10023D01*
X16720Y10004D01*
X16739Y9988D01*
X16759Y9974D01*
X16780Y9962D01*
X16803Y9952D01*
X16827Y9945D01*
X16851Y9941D01*
X16876Y9940D01*
X16901Y9941D01*
X16925Y9945D01*
X16949Y9952D01*
X16972Y9962D01*
X16993Y9974D01*
X17013Y9988D01*
X17032Y10004D01*
X17044Y10018D01*
X17170D01*
X17173Y10014D01*
X17191Y9998D01*
X17211Y9983D01*
X17233Y9971D01*
X17256Y9962D01*
X17280Y9955D01*
X17304Y9951D01*
X17329Y9950D01*
X17353Y9951D01*
X17378Y9955D01*
X17402Y9962D01*
X17424Y9971D01*
X17446Y9983D01*
X17466Y9998D01*
X17485Y10014D01*
X17501Y10033D01*
X17515Y10053D01*
X17527Y10074D01*
X17537Y10097D01*
X17544Y10121D01*
X17548Y10145D01*
X17549Y10170D01*
X17548Y10195D01*
X17544Y10219D01*
X17537Y10243D01*
X17527Y10266D01*
X17515Y10287D01*
X17501Y10308D01*
X17485Y10326D01*
X17466Y10342D01*
X17446Y10357D01*
X17424Y10369D01*
X17402Y10378D01*
X17378Y10385D01*
X17353Y10389D01*
X17329Y10390D01*
D02*
G37*
G36*
X3390Y10322D02*
X3355Y10320D01*
X3321Y10316D01*
X3287Y10308D01*
X3254Y10298D01*
X3223Y10285D01*
X3192Y10269D01*
X3163Y10250D01*
X3135Y10229D01*
X3110Y10206D01*
X3087Y10180D01*
X3066Y10153D01*
X3047Y10124D01*
X3031Y10093D01*
X3018Y10061D01*
X3008Y10028D01*
X3000Y9995D01*
X2996Y9960D01*
X2994Y9926D01*
X2996Y9891D01*
X3000Y9857D01*
X3008Y9824D01*
X3018Y9791D01*
X3031Y9759D01*
X3047Y9728D01*
X3066Y9699D01*
X3087Y9672D01*
X3110Y9646D01*
X3135Y9623D01*
X3163Y9602D01*
X3192Y9583D01*
X3223Y9567D01*
X3254Y9554D01*
X3287Y9544D01*
X3321Y9536D01*
X3355Y9532D01*
X3390Y9530D01*
X3424Y9532D01*
X3458Y9536D01*
X3492Y9544D01*
X3525Y9554D01*
X3557Y9567D01*
X3588Y9583D01*
X3617Y9602D01*
X3644Y9623D01*
X3670Y9646D01*
X3693Y9672D01*
X3714Y9699D01*
X3732Y9728D01*
X3748Y9759D01*
X3762Y9791D01*
X3772Y9824D01*
X3779Y9857D01*
X3784Y9891D01*
X3785Y9926D01*
X3784Y9960D01*
X3779Y9995D01*
X3772Y10028D01*
X3762Y10061D01*
X3748Y10093D01*
X3732Y10124D01*
X3714Y10153D01*
X3693Y10180D01*
X3670Y10206D01*
X3644Y10229D01*
X3617Y10250D01*
X3588Y10269D01*
X3557Y10285D01*
X3525Y10298D01*
X3492Y10308D01*
X3458Y10316D01*
X3424Y10320D01*
X3390Y10322D01*
D02*
G37*
G36*
X2390D02*
X2355Y10320D01*
X2321Y10316D01*
X2287Y10308D01*
X2254Y10298D01*
X2223Y10285D01*
X2192Y10269D01*
X2163Y10250D01*
X2135Y10229D01*
X2110Y10206D01*
X2087Y10180D01*
X2066Y10153D01*
X2047Y10124D01*
X2031Y10093D01*
X2018Y10061D01*
X2008Y10028D01*
X2000Y9995D01*
X1996Y9960D01*
X1994Y9926D01*
X1996Y9891D01*
X2000Y9857D01*
X2008Y9824D01*
X2018Y9791D01*
X2031Y9759D01*
X2047Y9728D01*
X2066Y9699D01*
X2087Y9672D01*
X2110Y9646D01*
X2135Y9623D01*
X2163Y9602D01*
X2192Y9583D01*
X2223Y9567D01*
X2254Y9554D01*
X2287Y9544D01*
X2321Y9536D01*
X2355Y9532D01*
X2390Y9530D01*
X2424Y9532D01*
X2458Y9536D01*
X2492Y9544D01*
X2525Y9554D01*
X2557Y9567D01*
X2588Y9583D01*
X2617Y9602D01*
X2644Y9623D01*
X2670Y9646D01*
X2693Y9672D01*
X2714Y9699D01*
X2732Y9728D01*
X2748Y9759D01*
X2762Y9791D01*
X2772Y9824D01*
X2779Y9857D01*
X2784Y9891D01*
X2785Y9926D01*
X2784Y9960D01*
X2779Y9995D01*
X2772Y10028D01*
X2762Y10061D01*
X2748Y10093D01*
X2732Y10124D01*
X2714Y10153D01*
X2693Y10180D01*
X2670Y10206D01*
X2644Y10229D01*
X2617Y10250D01*
X2588Y10269D01*
X2557Y10285D01*
X2525Y10298D01*
X2492Y10308D01*
X2458Y10316D01*
X2424Y10320D01*
X2390Y10322D01*
D02*
G37*
G36*
X20819Y10091D02*
X20583D01*
X20552Y10090D01*
X20521Y10085D01*
X20491Y10078D01*
X20461Y10067D01*
X20433Y10054D01*
X20407Y10038D01*
X20382Y10019D01*
X20359Y9998D01*
X20338Y9975D01*
X20319Y9950D01*
X20303Y9924D01*
X20290Y9896D01*
X20279Y9866D01*
X20272Y9836D01*
X20267Y9805D01*
X20266Y9774D01*
X20267Y9743D01*
X20272Y9713D01*
X20279Y9682D01*
X20290Y9653D01*
X20303Y9625D01*
X20319Y9598D01*
X20338Y9573D01*
X20359Y9550D01*
X20382Y9529D01*
X20407Y9511D01*
X20433Y9495D01*
X20461Y9482D01*
X20491Y9471D01*
X20521Y9464D01*
X20552Y9459D01*
X20583Y9457D01*
X20819D01*
X20850Y9459D01*
X20881Y9464D01*
X20911Y9471D01*
X20940Y9482D01*
X20968Y9495D01*
X20995Y9511D01*
X21020Y9529D01*
X21043Y9550D01*
X21064Y9573D01*
X21082Y9598D01*
X21098Y9625D01*
X21112Y9653D01*
X21122Y9682D01*
X21130Y9713D01*
X21134Y9743D01*
X21136Y9774D01*
X21134Y9805D01*
X21130Y9836D01*
X21122Y9866D01*
X21112Y9896D01*
X21098Y9924D01*
X21082Y9950D01*
X21064Y9975D01*
X21043Y9998D01*
X21020Y10019D01*
X20995Y10038D01*
X20968Y10054D01*
X20940Y10067D01*
X20911Y10078D01*
X20881Y10085D01*
X20850Y10090D01*
X20819Y10091D01*
D02*
G37*
G36*
X17358Y9436D02*
X17334Y9434D01*
X17309Y9430D01*
X17285Y9423D01*
X17263Y9414D01*
X17241Y9402D01*
X17221Y9388D01*
X17202Y9371D01*
X17195Y9363D01*
X17000D01*
X16992Y9371D01*
X16974Y9388D01*
X16954Y9402D01*
X16932Y9414D01*
X16909Y9423D01*
X16886Y9430D01*
X16861Y9434D01*
X16837Y9436D01*
X16812Y9434D01*
X16788Y9430D01*
X16764Y9423D01*
X16741Y9414D01*
X16719Y9402D01*
X16699Y9388D01*
X16681Y9371D01*
X16664Y9353D01*
X16650Y9333D01*
X16638Y9311D01*
X16629Y9288D01*
X16622Y9264D01*
X16618Y9240D01*
X16616Y9215D01*
X16618Y9191D01*
X16622Y9166D01*
X16629Y9143D01*
X16638Y9120D01*
X16650Y9098D01*
X16664Y9078D01*
X16681Y9059D01*
X16699Y9043D01*
X16719Y9029D01*
X16741Y9017D01*
X16764Y9007D01*
X16788Y9000D01*
X16812Y8996D01*
X16837Y8995D01*
X16861Y8996D01*
X16886Y9000D01*
X16909Y9007D01*
X16932Y9017D01*
X16954Y9029D01*
X16974Y9043D01*
X16992Y9059D01*
X17000Y9068D01*
X17195D01*
X17202Y9059D01*
X17221Y9043D01*
X17241Y9029D01*
X17263Y9017D01*
X17285Y9007D01*
X17309Y9000D01*
X17334Y8996D01*
X17358Y8995D01*
X17383Y8996D01*
X17407Y9000D01*
X17431Y9007D01*
X17454Y9017D01*
X17476Y9029D01*
X17496Y9043D01*
X17514Y9059D01*
X17531Y9078D01*
X17545Y9098D01*
X17557Y9120D01*
X17566Y9143D01*
X17573Y9166D01*
X17577Y9191D01*
X17579Y9215D01*
X17577Y9240D01*
X17573Y9264D01*
X17566Y9288D01*
X17557Y9311D01*
X17545Y9333D01*
X17531Y9353D01*
X17514Y9371D01*
X17496Y9388D01*
X17476Y9402D01*
X17454Y9414D01*
X17431Y9423D01*
X17407Y9430D01*
X17383Y9434D01*
X17358Y9436D01*
D02*
G37*
G36*
X7919Y9731D02*
X7895Y9730D01*
X7870Y9726D01*
X7846Y9719D01*
X7824Y9709D01*
X7802Y9697D01*
X7782Y9683D01*
X7763Y9666D01*
X7747Y9648D01*
X7733Y9628D01*
X7721Y9606D01*
X7711Y9583D01*
X7704Y9560D01*
X7702Y9543D01*
X7616Y9457D01*
X7608Y9450D01*
X7538Y9380D01*
X7525Y9365D01*
X7514Y9349D01*
X7506Y9332D01*
X7499Y9313D01*
X7495Y9294D01*
X7494Y9274D01*
Y8300D01*
X7494Y8300D01*
X7495Y8280D01*
X7499Y8261D01*
X7506Y8243D01*
X7514Y8225D01*
X7525Y8209D01*
X7538Y8194D01*
X8819Y6913D01*
X8834Y6900D01*
X8850Y6889D01*
X8860Y6884D01*
X8872Y6874D01*
X8899Y6829D01*
X8907Y6802D01*
X8907Y6790D01*
X8905Y6784D01*
X8901Y6760D01*
X8900Y6735D01*
X8901Y6710D01*
X8905Y6686D01*
X8912Y6662D01*
X8921Y6639D01*
X8933Y6618D01*
X8948Y6598D01*
X8964Y6579D01*
X8983Y6563D01*
X9003Y6548D01*
X9024Y6536D01*
X9047Y6527D01*
X9071Y6520D01*
X9095Y6516D01*
X9120Y6515D01*
X9145Y6516D01*
X9169Y6520D01*
X9193Y6527D01*
X9216Y6536D01*
X9237Y6548D01*
X9255Y6561D01*
X9706D01*
X9727Y6562D01*
X9747Y6566D01*
X9767Y6573D01*
X9785Y6582D01*
X9803Y6594D01*
X9818Y6608D01*
X10594Y7383D01*
X10691D01*
X10705Y7370D01*
X10725Y7355D01*
X10747Y7344D01*
X10770Y7334D01*
X10793Y7327D01*
X10818Y7323D01*
X10843Y7322D01*
X10896Y7285D01*
X10908Y7202D01*
X10432Y6726D01*
X10419Y6711D01*
X10408Y6695D01*
X10399Y6677D01*
X10393Y6659D01*
X10389Y6640D01*
X10388Y6620D01*
Y4229D01*
X10382Y4224D01*
X10365Y4205D01*
X10351Y4185D01*
X10339Y4163D01*
X10329Y4141D01*
X10323Y4117D01*
X10318Y4092D01*
X10317Y4068D01*
X10318Y4043D01*
X10323Y4019D01*
X10329Y3995D01*
X10339Y3972D01*
X10351Y3950D01*
X10365Y3930D01*
X10382Y3912D01*
X10400Y3895D01*
X10420Y3881D01*
X10442Y3869D01*
X10465Y3860D01*
X10488Y3853D01*
X10513Y3849D01*
X10537Y3847D01*
X10562Y3849D01*
X10586Y3853D01*
X10610Y3860D01*
X10633Y3869D01*
X10655Y3881D01*
X10675Y3895D01*
X10693Y3912D01*
X10710Y3930D01*
X10724Y3950D01*
X10736Y3972D01*
X10745Y3995D01*
X10752Y4019D01*
X10756Y4043D01*
X10758Y4068D01*
X10756Y4092D01*
X10752Y4117D01*
X10745Y4141D01*
X10736Y4163D01*
X10724Y4185D01*
X10710Y4205D01*
X10693Y4224D01*
X10687Y4229D01*
Y6558D01*
X11177Y7048D01*
X11189Y7063D01*
X11200Y7079D01*
X11209Y7096D01*
X11215Y7115D01*
X11219Y7134D01*
X11220Y7154D01*
Y8355D01*
X11219Y8375D01*
X11215Y8394D01*
X11209Y8412D01*
X11200Y8430D01*
X11189Y8446D01*
X11177Y8461D01*
X10698Y8939D01*
X10684Y8952D01*
X10667Y8963D01*
X10650Y8972D01*
X10631Y8978D01*
X10612Y8982D01*
X10593Y8983D01*
X10353D01*
X10349Y8987D01*
X10330Y9004D01*
X10310Y9018D01*
X10289Y9030D01*
X10266Y9040D01*
X10242Y9046D01*
X10218Y9051D01*
X10193Y9052D01*
X10168Y9051D01*
X10144Y9046D01*
X10120Y9040D01*
X10097Y9030D01*
X10076Y9018D01*
X10055Y9004D01*
X10037Y8987D01*
X10021Y8969D01*
X10006Y8949D01*
X9994Y8927D01*
X9985Y8904D01*
X9978Y8881D01*
X9974Y8856D01*
X9972Y8831D01*
X9974Y8807D01*
X9978Y8782D01*
X9985Y8759D01*
X9994Y8736D01*
X10006Y8714D01*
X10021Y8694D01*
X10037Y8676D01*
X10055Y8659D01*
X10076Y8645D01*
X10097Y8633D01*
X10120Y8623D01*
X10144Y8617D01*
X10168Y8612D01*
X10193Y8611D01*
X10218Y8612D01*
X10242Y8617D01*
X10266Y8623D01*
X10289Y8633D01*
X10310Y8645D01*
X10330Y8659D01*
X10349Y8676D01*
X10356Y8684D01*
X10531D01*
X10692Y8523D01*
X10697Y8511D01*
X10699Y8492D01*
X10685Y8418D01*
X10669Y8400D01*
X10654Y8379D01*
X10642Y8358D01*
X10633Y8335D01*
X10626Y8311D01*
X10622Y8287D01*
X10621Y8262D01*
X10622Y8238D01*
X10624Y8225D01*
Y7702D01*
X10528D01*
X10507Y7700D01*
X10486Y7696D01*
X10467Y7689D01*
X10448Y7680D01*
X10431Y7669D01*
X10415Y7655D01*
X9640Y6880D01*
X9491D01*
X9478Y6891D01*
X9457Y6925D01*
X9444Y6960D01*
X9450Y6974D01*
X9457Y6998D01*
X9461Y7023D01*
X9463Y7047D01*
X9461Y7072D01*
X9457Y7096D01*
X9450Y7120D01*
X9441Y7143D01*
X9429Y7165D01*
X9414Y7185D01*
X9398Y7203D01*
X9380Y7220D01*
X9359Y7234D01*
X9338Y7246D01*
X9315Y7255D01*
X9291Y7262D01*
X9267Y7266D01*
X9242Y7268D01*
X9217Y7266D01*
X9193Y7262D01*
X9169Y7255D01*
X9146Y7246D01*
X9125Y7234D01*
X9105Y7220D01*
X9086Y7203D01*
X9070Y7185D01*
X9064Y7176D01*
X8984Y7171D01*
X7793Y8362D01*
Y9212D01*
X7812Y9231D01*
X7820Y9239D01*
X7876Y9295D01*
X7895Y9292D01*
X7919Y9290D01*
X7944Y9292D01*
X7968Y9296D01*
X7992Y9303D01*
X8015Y9312D01*
X8037Y9324D01*
X8057Y9338D01*
X8075Y9355D01*
X8092Y9373D01*
X8106Y9393D01*
X8118Y9415D01*
X8127Y9438D01*
X8134Y9462D01*
X8138Y9486D01*
X8140Y9511D01*
X8138Y9535D01*
X8134Y9560D01*
X8127Y9583D01*
X8118Y9606D01*
X8106Y9628D01*
X8092Y9648D01*
X8075Y9666D01*
X8057Y9683D01*
X8037Y9697D01*
X8015Y9709D01*
X7992Y9719D01*
X7968Y9726D01*
X7944Y9730D01*
X7919Y9731D01*
D02*
G37*
G36*
X3440Y8991D02*
Y8649D01*
X3782D01*
X3779Y8668D01*
X3772Y8702D01*
X3762Y8735D01*
X3748Y8766D01*
X3732Y8797D01*
X3714Y8826D01*
X3693Y8854D01*
X3670Y8879D01*
X3644Y8902D01*
X3617Y8923D01*
X3588Y8942D01*
X3557Y8958D01*
X3525Y8971D01*
X3492Y8981D01*
X3458Y8989D01*
X3440Y8991D01*
D02*
G37*
G36*
X3782Y8549D02*
X3440D01*
Y8207D01*
X3458Y8210D01*
X3492Y8217D01*
X3525Y8227D01*
X3557Y8241D01*
X3588Y8257D01*
X3617Y8275D01*
X3644Y8296D01*
X3670Y8319D01*
X3693Y8345D01*
X3714Y8372D01*
X3732Y8401D01*
X3748Y8432D01*
X3762Y8464D01*
X3772Y8497D01*
X3779Y8531D01*
X3782Y8549D01*
D02*
G37*
G36*
X2785Y8994D02*
X1994D01*
Y8204D01*
X2711D01*
Y7950D01*
X2676Y7925D01*
X2631Y7913D01*
X2617Y7923D01*
X2588Y7942D01*
X2557Y7958D01*
X2525Y7971D01*
X2492Y7981D01*
X2458Y7989D01*
X2424Y7993D01*
X2390Y7995D01*
X2355Y7993D01*
X2321Y7989D01*
X2287Y7981D01*
X2254Y7971D01*
X2223Y7958D01*
X2192Y7942D01*
X2163Y7923D01*
X2135Y7902D01*
X2110Y7879D01*
X2087Y7854D01*
X2066Y7826D01*
X2047Y7797D01*
X2031Y7766D01*
X2018Y7735D01*
X2008Y7702D01*
X2000Y7668D01*
X1996Y7634D01*
X1994Y7599D01*
X1996Y7565D01*
X2000Y7531D01*
X2008Y7497D01*
X2018Y7464D01*
X2031Y7432D01*
X2047Y7401D01*
X2066Y7372D01*
X2087Y7345D01*
X2110Y7319D01*
X2135Y7296D01*
X2163Y7275D01*
X2192Y7257D01*
X2223Y7241D01*
X2254Y7227D01*
X2287Y7217D01*
X2321Y7210D01*
X2355Y7205D01*
X2390Y7204D01*
X2424Y7205D01*
X2458Y7210D01*
X2492Y7217D01*
X2525Y7227D01*
X2557Y7241D01*
X2588Y7257D01*
X2617Y7275D01*
X2631Y7286D01*
X2676Y7273D01*
X2711Y7249D01*
Y6950D01*
X2676Y6925D01*
X2631Y6913D01*
X2617Y6923D01*
X2588Y6942D01*
X2557Y6958D01*
X2525Y6971D01*
X2492Y6981D01*
X2458Y6989D01*
X2424Y6993D01*
X2390Y6995D01*
X2355Y6993D01*
X2321Y6989D01*
X2287Y6981D01*
X2254Y6971D01*
X2223Y6958D01*
X2192Y6942D01*
X2163Y6923D01*
X2135Y6902D01*
X2110Y6879D01*
X2087Y6854D01*
X2066Y6826D01*
X2047Y6797D01*
X2031Y6766D01*
X2018Y6735D01*
X2008Y6702D01*
X2000Y6668D01*
X1996Y6634D01*
X1994Y6599D01*
X1996Y6565D01*
X2000Y6531D01*
X2008Y6497D01*
X2018Y6464D01*
X2031Y6432D01*
X2047Y6401D01*
X2066Y6372D01*
X2087Y6345D01*
X2110Y6319D01*
X2135Y6296D01*
X2163Y6275D01*
X2192Y6257D01*
X2223Y6241D01*
X2254Y6227D01*
X2287Y6217D01*
X2321Y6210D01*
X2355Y6205D01*
X2390Y6204D01*
X2424Y6205D01*
X2458Y6210D01*
X2492Y6217D01*
X2525Y6227D01*
X2557Y6241D01*
X2588Y6257D01*
X2617Y6275D01*
X2631Y6286D01*
X2676Y6273D01*
X2711Y6249D01*
Y6146D01*
X2533Y5968D01*
X2525Y5971D01*
X2492Y5981D01*
X2458Y5989D01*
X2424Y5993D01*
X2390Y5995D01*
X2355Y5993D01*
X2321Y5989D01*
X2287Y5981D01*
X2254Y5971D01*
X2223Y5958D01*
X2192Y5942D01*
X2163Y5923D01*
X2135Y5902D01*
X2110Y5879D01*
X2087Y5854D01*
X2066Y5826D01*
X2047Y5797D01*
X2031Y5766D01*
X2018Y5735D01*
X2008Y5702D01*
X2000Y5668D01*
X1996Y5634D01*
X1994Y5599D01*
X1996Y5565D01*
X2000Y5531D01*
X2008Y5497D01*
X2018Y5464D01*
X2031Y5432D01*
X2047Y5401D01*
X2066Y5372D01*
X2087Y5345D01*
X2110Y5319D01*
X2135Y5296D01*
X2163Y5275D01*
X2192Y5257D01*
X2223Y5241D01*
X2254Y5227D01*
X2287Y5217D01*
X2321Y5210D01*
X2355Y5205D01*
X2390Y5204D01*
X2424Y5205D01*
X2458Y5210D01*
X2492Y5217D01*
X2525Y5227D01*
X2557Y5241D01*
X2588Y5257D01*
X2617Y5275D01*
X2644Y5296D01*
X2670Y5319D01*
X2693Y5345D01*
X2714Y5372D01*
X2732Y5401D01*
X2748Y5432D01*
X2762Y5464D01*
X2772Y5497D01*
X2779Y5531D01*
X2784Y5565D01*
X2785Y5599D01*
X2784Y5634D01*
X2779Y5668D01*
X2772Y5702D01*
X2762Y5735D01*
X2758Y5742D01*
X2983Y5967D01*
X2997Y5982D01*
X3008Y6000D01*
X3017Y6019D01*
X3024Y6038D01*
X3028Y6059D01*
X3029Y6080D01*
Y6289D01*
X3109Y6320D01*
X3110Y6319D01*
X3135Y6296D01*
X3163Y6275D01*
X3192Y6257D01*
X3223Y6241D01*
X3254Y6227D01*
X3287Y6217D01*
X3321Y6210D01*
X3355Y6205D01*
X3390Y6204D01*
X3424Y6205D01*
X3458Y6210D01*
X3492Y6217D01*
X3525Y6227D01*
X3557Y6241D01*
X3588Y6257D01*
X3617Y6275D01*
X3644Y6296D01*
X3670Y6319D01*
X3693Y6345D01*
X3714Y6372D01*
X3732Y6401D01*
X3748Y6432D01*
X3762Y6464D01*
X3772Y6497D01*
X3779Y6531D01*
X3784Y6565D01*
X3785Y6599D01*
X3784Y6634D01*
X3779Y6668D01*
X3772Y6702D01*
X3762Y6735D01*
X3748Y6766D01*
X3732Y6797D01*
X3714Y6826D01*
X3693Y6854D01*
X3670Y6879D01*
X3644Y6902D01*
X3617Y6923D01*
X3588Y6942D01*
X3557Y6958D01*
X3525Y6971D01*
X3492Y6981D01*
X3458Y6989D01*
X3424Y6993D01*
X3390Y6995D01*
X3355Y6993D01*
X3321Y6989D01*
X3287Y6981D01*
X3254Y6971D01*
X3223Y6958D01*
X3192Y6942D01*
X3163Y6923D01*
X3135Y6902D01*
X3110Y6879D01*
X3109Y6878D01*
X3029Y6910D01*
Y7289D01*
X3109Y7320D01*
X3110Y7319D01*
X3135Y7296D01*
X3163Y7275D01*
X3192Y7257D01*
X3223Y7241D01*
X3254Y7227D01*
X3287Y7217D01*
X3321Y7210D01*
X3355Y7205D01*
X3390Y7204D01*
X3424Y7205D01*
X3458Y7210D01*
X3492Y7217D01*
X3525Y7227D01*
X3557Y7241D01*
X3588Y7257D01*
X3617Y7275D01*
X3644Y7296D01*
X3670Y7319D01*
X3693Y7345D01*
X3714Y7372D01*
X3732Y7401D01*
X3748Y7432D01*
X3762Y7464D01*
X3772Y7497D01*
X3779Y7531D01*
X3784Y7565D01*
X3785Y7599D01*
X3784Y7634D01*
X3779Y7668D01*
X3772Y7702D01*
X3762Y7735D01*
X3748Y7766D01*
X3732Y7797D01*
X3714Y7826D01*
X3693Y7854D01*
X3670Y7879D01*
X3644Y7902D01*
X3617Y7923D01*
X3588Y7942D01*
X3557Y7958D01*
X3525Y7971D01*
X3492Y7981D01*
X3458Y7989D01*
X3424Y7993D01*
X3390Y7995D01*
X3355Y7993D01*
X3321Y7989D01*
X3287Y7981D01*
X3254Y7971D01*
X3223Y7958D01*
X3192Y7942D01*
X3163Y7923D01*
X3135Y7902D01*
X3110Y7879D01*
X3109Y7878D01*
X3029Y7910D01*
Y8289D01*
X3109Y8320D01*
X3110Y8319D01*
X3135Y8296D01*
X3163Y8275D01*
X3192Y8257D01*
X3223Y8241D01*
X3254Y8227D01*
X3287Y8217D01*
X3321Y8210D01*
X3340Y8207D01*
Y8599D01*
Y8991D01*
X3321Y8989D01*
X3287Y8981D01*
X3254Y8971D01*
X3223Y8958D01*
X3192Y8942D01*
X3163Y8923D01*
X3135Y8902D01*
X3110Y8879D01*
X3087Y8854D01*
X3066Y8826D01*
X3047Y8797D01*
X3031Y8766D01*
X3018Y8735D01*
X3008Y8702D01*
X3000Y8668D01*
X2996Y8634D01*
X2995Y8631D01*
X2919Y8598D01*
X2915Y8598D01*
X2914Y8600D01*
X2898Y8613D01*
X2881Y8625D01*
X2862Y8634D01*
X2842Y8641D01*
X2822Y8645D01*
X2801Y8646D01*
X2785D01*
Y8994D01*
D02*
G37*
G36*
X20819Y6690D02*
X20583D01*
X20552Y6688D01*
X20521Y6684D01*
X20491Y6676D01*
X20461Y6666D01*
X20433Y6652D01*
X20407Y6636D01*
X20382Y6618D01*
X20359Y6597D01*
X20338Y6574D01*
X20319Y6549D01*
X20303Y6522D01*
X20290Y6494D01*
X20279Y6465D01*
X20272Y6435D01*
X20267Y6404D01*
X20266Y6373D01*
X20267Y6342D01*
X20272Y6311D01*
X20279Y6281D01*
X20290Y6252D01*
X20303Y6223D01*
X20319Y6197D01*
X20338Y6172D01*
X20359Y6149D01*
X20382Y6128D01*
X20407Y6109D01*
X20433Y6093D01*
X20461Y6080D01*
X20491Y6070D01*
X20521Y6062D01*
X20552Y6057D01*
X20583Y6056D01*
X20819D01*
X20850Y6057D01*
X20881Y6062D01*
X20911Y6070D01*
X20940Y6080D01*
X20968Y6093D01*
X20995Y6109D01*
X21020Y6128D01*
X21043Y6149D01*
X21064Y6172D01*
X21082Y6197D01*
X21098Y6223D01*
X21112Y6252D01*
X21122Y6281D01*
X21130Y6311D01*
X21134Y6342D01*
X21136Y6373D01*
X21134Y6404D01*
X21130Y6435D01*
X21122Y6465D01*
X21112Y6494D01*
X21098Y6522D01*
X21082Y6549D01*
X21064Y6574D01*
X21043Y6597D01*
X21020Y6618D01*
X20995Y6636D01*
X20968Y6652D01*
X20940Y6666D01*
X20911Y6676D01*
X20881Y6684D01*
X20850Y6688D01*
X20819Y6690D01*
D02*
G37*
G36*
X6364Y12633D02*
X6339Y12631D01*
X6314Y12628D01*
X6289Y12621D01*
X6266Y12613D01*
X6243Y12602D01*
X6221Y12589D01*
X6201Y12574D01*
X6182Y12557D01*
X6165Y12538D01*
X6150Y12518D01*
X6137Y12496D01*
X6126Y12473D01*
X6117Y12450D01*
X6111Y12425D01*
X6108Y12400D01*
X6106Y12375D01*
Y12259D01*
X6106Y12254D01*
X6104Y12229D01*
Y11950D01*
X6106Y11925D01*
X6106Y11920D01*
Y9156D01*
X6108Y9131D01*
X6111Y9106D01*
X6117Y9081D01*
X6126Y9058D01*
X6137Y9035D01*
X6150Y9013D01*
X6165Y8993D01*
X6182Y8974D01*
X6482Y8674D01*
X6143Y8335D01*
X6126Y8316D01*
X6110Y8296D01*
X6097Y8274D01*
X6087Y8251D01*
X6078Y8227D01*
X6072Y8203D01*
X6068Y8178D01*
X6067Y8152D01*
Y6141D01*
X6067Y6140D01*
X6061Y6116D01*
X6057Y6091D01*
X6056Y6065D01*
Y6046D01*
X6057Y6021D01*
X6061Y5996D01*
X6067Y5972D01*
X6075Y5948D01*
X6086Y5925D01*
X6099Y5903D01*
X6114Y5883D01*
X6131Y5864D01*
X6150Y5847D01*
X6170Y5832D01*
X6192Y5819D01*
X6215Y5808D01*
X6239Y5800D01*
X6263Y5794D01*
X6288Y5790D01*
X6313Y5789D01*
X6339Y5790D01*
X6364Y5794D01*
X6388Y5800D01*
X6412Y5808D01*
X6435Y5819D01*
X6457Y5832D01*
X6477Y5847D01*
X6496Y5864D01*
X6513Y5883D01*
X6528Y5903D01*
X6541Y5925D01*
X6552Y5948D01*
X6560Y5972D01*
X6560Y5972D01*
X6563Y5978D01*
X6571Y6002D01*
X6578Y6026D01*
X6581Y6051D01*
X6583Y6077D01*
X6583Y6077D01*
Y8046D01*
X7029Y8492D01*
X7046Y8510D01*
X7061Y8531D01*
X7074Y8552D01*
X7085Y8575D01*
X7093Y8599D01*
X7099Y8624D01*
X7103Y8649D01*
X7104Y8674D01*
X7103Y8699D01*
X7099Y8724D01*
X7093Y8749D01*
X7085Y8773D01*
X7074Y8796D01*
X7061Y8817D01*
X7046Y8838D01*
X7029Y8856D01*
X6622Y9263D01*
Y11948D01*
X6622Y11948D01*
X6621Y11973D01*
X6620Y11978D01*
Y12201D01*
X6621Y12205D01*
X6622Y12231D01*
X6622Y12231D01*
Y12375D01*
X6621Y12400D01*
X6617Y12425D01*
X6611Y12450D01*
X6602Y12473D01*
X6592Y12496D01*
X6579Y12518D01*
X6563Y12538D01*
X6546Y12557D01*
X6528Y12574D01*
X6507Y12589D01*
X6486Y12602D01*
X6463Y12613D01*
X6439Y12621D01*
X6414Y12628D01*
X6389Y12631D01*
X6364Y12633D01*
D02*
G37*
G36*
X3440Y5991D02*
Y5649D01*
X3782D01*
X3779Y5668D01*
X3772Y5702D01*
X3762Y5735D01*
X3748Y5766D01*
X3732Y5797D01*
X3714Y5826D01*
X3693Y5854D01*
X3670Y5879D01*
X3644Y5902D01*
X3617Y5923D01*
X3588Y5942D01*
X3557Y5958D01*
X3525Y5971D01*
X3492Y5981D01*
X3458Y5989D01*
X3440Y5991D01*
D02*
G37*
G36*
X3340D02*
X3321Y5989D01*
X3287Y5981D01*
X3254Y5971D01*
X3223Y5958D01*
X3192Y5942D01*
X3163Y5923D01*
X3135Y5902D01*
X3110Y5879D01*
X3087Y5854D01*
X3066Y5826D01*
X3047Y5797D01*
X3031Y5766D01*
X3018Y5735D01*
X3008Y5702D01*
X3000Y5668D01*
X2998Y5649D01*
X3340D01*
Y5991D01*
D02*
G37*
G36*
X3782Y5549D02*
X3440D01*
Y5207D01*
X3458Y5210D01*
X3492Y5217D01*
X3525Y5227D01*
X3557Y5241D01*
X3588Y5257D01*
X3617Y5275D01*
X3644Y5296D01*
X3670Y5319D01*
X3693Y5345D01*
X3714Y5372D01*
X3732Y5401D01*
X3748Y5432D01*
X3762Y5464D01*
X3772Y5497D01*
X3779Y5531D01*
X3782Y5549D01*
D02*
G37*
G36*
X3340D02*
X2998D01*
X3000Y5531D01*
X3008Y5497D01*
X3018Y5464D01*
X3031Y5432D01*
X3047Y5401D01*
X3066Y5372D01*
X3087Y5345D01*
X3110Y5319D01*
X3135Y5296D01*
X3163Y5275D01*
X3192Y5257D01*
X3223Y5241D01*
X3254Y5227D01*
X3287Y5217D01*
X3321Y5210D01*
X3340Y5207D01*
Y5549D01*
D02*
G37*
G36*
X8805Y5056D02*
X8780Y5054D01*
X8756Y5050D01*
X8732Y5043D01*
X8709Y5034D01*
X8688Y5022D01*
X8668Y5008D01*
X8649Y4991D01*
X8633Y4973D01*
X8618Y4953D01*
X8607Y4931D01*
X8597Y4908D01*
X8590Y4884D01*
X8586Y4860D01*
X8585Y4835D01*
X8586Y4811D01*
X8590Y4786D01*
X8597Y4763D01*
X8607Y4740D01*
X8618Y4718D01*
X8633Y4698D01*
X8649Y4680D01*
X8668Y4663D01*
X8688Y4649D01*
X8709Y4637D01*
X8732Y4627D01*
X8756Y4621D01*
X8780Y4616D01*
X8805Y4615D01*
X8830Y4616D01*
X8840Y4618D01*
X8984Y4474D01*
X8999Y4461D01*
X9015Y4450D01*
X9032Y4441D01*
X9051Y4435D01*
X9070Y4431D01*
X9090Y4430D01*
X9726D01*
X9732Y4424D01*
X9750Y4407D01*
X9771Y4393D01*
X9792Y4381D01*
X9815Y4371D01*
X9839Y4365D01*
X9863Y4360D01*
X9888Y4359D01*
X9912Y4360D01*
X9937Y4365D01*
X9961Y4371D01*
X9983Y4381D01*
X10005Y4393D01*
X10025Y4407D01*
X10044Y4424D01*
X10060Y4442D01*
X10074Y4462D01*
X10086Y4484D01*
X10096Y4507D01*
X10103Y4530D01*
X10107Y4555D01*
X10108Y4580D01*
X10107Y4604D01*
X10103Y4629D01*
X10096Y4652D01*
X10086Y4675D01*
X10074Y4697D01*
X10060Y4717D01*
X10044Y4735D01*
X10025Y4752D01*
X10005Y4766D01*
X9983Y4778D01*
X9961Y4788D01*
X9937Y4794D01*
X9912Y4799D01*
X9888Y4800D01*
X9863Y4799D01*
X9839Y4794D01*
X9815Y4788D01*
X9792Y4778D01*
X9771Y4766D01*
X9750Y4752D01*
X9732Y4735D01*
X9726Y4729D01*
X9151D01*
X9024Y4856D01*
X9024Y4860D01*
X9020Y4884D01*
X9013Y4908D01*
X9004Y4931D01*
X8992Y4953D01*
X8977Y4973D01*
X8961Y4991D01*
X8943Y5008D01*
X8922Y5022D01*
X8901Y5034D01*
X8878Y5043D01*
X8854Y5050D01*
X8830Y5054D01*
X8805Y5056D01*
D02*
G37*
G36*
X3390Y4995D02*
X3355Y4993D01*
X3321Y4989D01*
X3287Y4981D01*
X3254Y4971D01*
X3223Y4958D01*
X3192Y4942D01*
X3163Y4923D01*
X3135Y4902D01*
X3110Y4879D01*
X3087Y4854D01*
X3066Y4826D01*
X3047Y4797D01*
X3031Y4766D01*
X3018Y4735D01*
X3008Y4702D01*
X3000Y4668D01*
X2996Y4634D01*
X2994Y4599D01*
X2996Y4565D01*
X3000Y4530D01*
X3008Y4497D01*
X3018Y4464D01*
X3031Y4432D01*
X3047Y4401D01*
X3066Y4372D01*
X3087Y4345D01*
X3110Y4319D01*
X3135Y4296D01*
X3163Y4275D01*
X3192Y4257D01*
X3223Y4241D01*
X3254Y4227D01*
X3287Y4217D01*
X3321Y4210D01*
X3355Y4205D01*
X3390Y4204D01*
X3424Y4205D01*
X3458Y4210D01*
X3492Y4217D01*
X3525Y4227D01*
X3557Y4241D01*
X3588Y4257D01*
X3617Y4275D01*
X3644Y4296D01*
X3670Y4319D01*
X3693Y4345D01*
X3714Y4372D01*
X3732Y4401D01*
X3748Y4432D01*
X3762Y4464D01*
X3772Y4497D01*
X3779Y4530D01*
X3784Y4565D01*
X3785Y4599D01*
X3784Y4634D01*
X3779Y4668D01*
X3772Y4702D01*
X3762Y4735D01*
X3748Y4766D01*
X3732Y4797D01*
X3714Y4826D01*
X3693Y4854D01*
X3670Y4879D01*
X3644Y4902D01*
X3617Y4923D01*
X3588Y4942D01*
X3557Y4958D01*
X3525Y4971D01*
X3492Y4981D01*
X3458Y4989D01*
X3424Y4993D01*
X3390Y4995D01*
D02*
G37*
G36*
X2390D02*
X2355Y4993D01*
X2321Y4989D01*
X2287Y4981D01*
X2254Y4971D01*
X2223Y4958D01*
X2192Y4942D01*
X2163Y4923D01*
X2135Y4902D01*
X2110Y4879D01*
X2087Y4854D01*
X2066Y4826D01*
X2047Y4797D01*
X2031Y4766D01*
X2018Y4735D01*
X2008Y4702D01*
X2000Y4668D01*
X1996Y4634D01*
X1994Y4599D01*
X1996Y4565D01*
X2000Y4530D01*
X2008Y4497D01*
X2018Y4464D01*
X2031Y4432D01*
X2047Y4401D01*
X2066Y4372D01*
X2087Y4345D01*
X2110Y4319D01*
X2135Y4296D01*
X2163Y4275D01*
X2192Y4257D01*
X2223Y4241D01*
X2254Y4227D01*
X2287Y4217D01*
X2321Y4210D01*
X2355Y4205D01*
X2390Y4204D01*
X2424Y4205D01*
X2458Y4210D01*
X2492Y4217D01*
X2525Y4227D01*
X2557Y4241D01*
X2588Y4257D01*
X2617Y4275D01*
X2644Y4296D01*
X2670Y4319D01*
X2693Y4345D01*
X2714Y4372D01*
X2732Y4401D01*
X2748Y4432D01*
X2762Y4464D01*
X2772Y4497D01*
X2779Y4530D01*
X2784Y4565D01*
X2785Y4599D01*
X2784Y4634D01*
X2779Y4668D01*
X2772Y4702D01*
X2762Y4735D01*
X2748Y4766D01*
X2732Y4797D01*
X2714Y4826D01*
X2693Y4854D01*
X2670Y4879D01*
X2644Y4902D01*
X2617Y4923D01*
X2588Y4942D01*
X2557Y4958D01*
X2525Y4971D01*
X2492Y4981D01*
X2458Y4989D01*
X2424Y4993D01*
X2390Y4995D01*
D02*
G37*
G36*
X3390Y3995D02*
X3355Y3993D01*
X3321Y3989D01*
X3287Y3981D01*
X3254Y3971D01*
X3223Y3958D01*
X3192Y3942D01*
X3163Y3923D01*
X3135Y3902D01*
X3110Y3879D01*
X3087Y3854D01*
X3066Y3826D01*
X3047Y3797D01*
X3031Y3766D01*
X3018Y3735D01*
X3008Y3702D01*
X3000Y3668D01*
X2996Y3634D01*
X2994Y3599D01*
X2996Y3565D01*
X3000Y3530D01*
X3008Y3497D01*
X3018Y3464D01*
X3031Y3432D01*
X3047Y3401D01*
X3066Y3372D01*
X3087Y3345D01*
X3110Y3319D01*
X3135Y3296D01*
X3163Y3275D01*
X3192Y3257D01*
X3223Y3241D01*
X3254Y3227D01*
X3287Y3217D01*
X3321Y3210D01*
X3355Y3205D01*
X3390Y3204D01*
X3424Y3205D01*
X3458Y3210D01*
X3492Y3217D01*
X3525Y3227D01*
X3557Y3241D01*
X3588Y3257D01*
X3617Y3275D01*
X3644Y3296D01*
X3670Y3319D01*
X3693Y3345D01*
X3714Y3372D01*
X3732Y3401D01*
X3748Y3432D01*
X3762Y3464D01*
X3772Y3497D01*
X3779Y3530D01*
X3784Y3565D01*
X3785Y3599D01*
X3784Y3634D01*
X3779Y3668D01*
X3772Y3702D01*
X3762Y3735D01*
X3748Y3766D01*
X3732Y3797D01*
X3714Y3826D01*
X3693Y3854D01*
X3670Y3879D01*
X3644Y3902D01*
X3617Y3923D01*
X3588Y3942D01*
X3557Y3958D01*
X3525Y3971D01*
X3492Y3981D01*
X3458Y3989D01*
X3424Y3993D01*
X3390Y3995D01*
D02*
G37*
G36*
X2390D02*
X2355Y3993D01*
X2321Y3989D01*
X2287Y3981D01*
X2254Y3971D01*
X2223Y3958D01*
X2192Y3942D01*
X2163Y3923D01*
X2135Y3902D01*
X2110Y3879D01*
X2087Y3854D01*
X2066Y3826D01*
X2047Y3797D01*
X2031Y3766D01*
X2018Y3735D01*
X2008Y3702D01*
X2000Y3668D01*
X1996Y3634D01*
X1994Y3599D01*
X1996Y3565D01*
X2000Y3530D01*
X2008Y3497D01*
X2018Y3464D01*
X2031Y3432D01*
X2047Y3401D01*
X2066Y3372D01*
X2087Y3345D01*
X2110Y3319D01*
X2135Y3296D01*
X2163Y3275D01*
X2192Y3257D01*
X2223Y3241D01*
X2254Y3227D01*
X2287Y3217D01*
X2321Y3210D01*
X2355Y3205D01*
X2390Y3204D01*
X2424Y3205D01*
X2458Y3210D01*
X2492Y3217D01*
X2525Y3227D01*
X2557Y3241D01*
X2588Y3257D01*
X2617Y3275D01*
X2644Y3296D01*
X2670Y3319D01*
X2693Y3345D01*
X2714Y3372D01*
X2732Y3401D01*
X2748Y3432D01*
X2762Y3464D01*
X2772Y3497D01*
X2779Y3530D01*
X2784Y3565D01*
X2785Y3599D01*
X2784Y3634D01*
X2779Y3668D01*
X2772Y3702D01*
X2762Y3735D01*
X2748Y3766D01*
X2732Y3797D01*
X2714Y3826D01*
X2693Y3854D01*
X2670Y3879D01*
X2644Y3902D01*
X2617Y3923D01*
X2588Y3942D01*
X2557Y3958D01*
X2525Y3971D01*
X2492Y3981D01*
X2458Y3989D01*
X2424Y3993D01*
X2390Y3995D01*
D02*
G37*
G36*
X22000Y4798D02*
X21944Y4797D01*
X21888Y4793D01*
X21832Y4785D01*
X21776Y4775D01*
X21722Y4762D01*
X21668Y4746D01*
X21615Y4727D01*
X21563Y4706D01*
X21512Y4681D01*
X21462Y4654D01*
X21414Y4625D01*
X21368Y4593D01*
X21323Y4559D01*
X21281Y4522D01*
X21240Y4484D01*
X21201Y4443D01*
X21164Y4400D01*
X21130Y4355D01*
X21098Y4309D01*
X21069Y4261D01*
X21042Y4211D01*
X21018Y4161D01*
X20996Y4109D01*
X20977Y4055D01*
X20961Y4002D01*
X20948Y3947D01*
X20938Y3891D01*
X20931Y3836D01*
X20926Y3780D01*
X20925Y3723D01*
X20926Y3667D01*
X20931Y3611D01*
X20938Y3555D01*
X20948Y3500D01*
X20961Y3445D01*
X20977Y3391D01*
X20996Y3338D01*
X21018Y3286D01*
X21042Y3235D01*
X21069Y3186D01*
X21098Y3138D01*
X21130Y3091D01*
X21164Y3047D01*
X21201Y3004D01*
X21240Y2963D01*
X21281Y2924D01*
X21296Y2911D01*
X21266Y2831D01*
X21232Y2831D01*
X20699D01*
Y1769D01*
X20703D01*
X20718Y1753D01*
Y1751D01*
X20699Y1678D01*
X20699D01*
Y615D01*
X21301D01*
Y1678D01*
X21301D01*
X21282Y1751D01*
Y1753D01*
X21297Y1769D01*
X21301D01*
Y2760D01*
X21301Y2804D01*
X21352Y2841D01*
X21356Y2843D01*
X21373Y2850D01*
X21414Y2821D01*
X21462Y2792D01*
X21512Y2765D01*
X21563Y2741D01*
X21615Y2719D01*
X21668Y2701D01*
X21722Y2685D01*
X21776Y2671D01*
X21832Y2661D01*
X21888Y2654D01*
X21944Y2649D01*
X22000Y2648D01*
X22056Y2649D01*
X22112Y2654D01*
X22168Y2661D01*
X22224Y2671D01*
X22278Y2685D01*
X22332Y2701D01*
X22385Y2719D01*
X22437Y2741D01*
X22488Y2765D01*
X22538Y2792D01*
X22586Y2821D01*
X22632Y2853D01*
X22677Y2888D01*
X22719Y2924D01*
X22760Y2963D01*
X22799Y3004D01*
X22836Y3047D01*
X22870Y3091D01*
X22902Y3138D01*
X22931Y3186D01*
X22958Y3235D01*
X22982Y3286D01*
X23004Y3338D01*
X23023Y3391D01*
X23039Y3445D01*
X23052Y3500D01*
X23062Y3555D01*
X23069Y3611D01*
X23074Y3667D01*
X23075Y3723D01*
X23074Y3780D01*
X23069Y3836D01*
X23062Y3891D01*
X23052Y3947D01*
X23039Y4002D01*
X23023Y4055D01*
X23004Y4109D01*
X22982Y4161D01*
X22958Y4211D01*
X22931Y4261D01*
X22902Y4309D01*
X22870Y4355D01*
X22836Y4400D01*
X22799Y4443D01*
X22760Y4484D01*
X22719Y4522D01*
X22677Y4559D01*
X22632Y4593D01*
X22586Y4625D01*
X22538Y4654D01*
X22488Y4681D01*
X22437Y4706D01*
X22385Y4727D01*
X22332Y4746D01*
X22278Y4762D01*
X22224Y4775D01*
X22168Y4785D01*
X22112Y4793D01*
X22056Y4797D01*
X22000Y4798D01*
D02*
G37*
G36*
X13301Y2831D02*
X13050D01*
Y2350D01*
X13301D01*
Y2831D01*
D02*
G37*
G36*
X12950D02*
X12699D01*
Y2350D01*
X12950D01*
Y2831D01*
D02*
G37*
G36*
X12301D02*
X12050D01*
Y2350D01*
X12301D01*
Y2831D01*
D02*
G37*
G36*
X11950D02*
X11699D01*
Y2350D01*
X11950D01*
Y2831D01*
D02*
G37*
G36*
X13301Y2250D02*
X13050D01*
Y1769D01*
X13301D01*
Y2250D01*
D02*
G37*
G36*
X12950D02*
X12699D01*
Y1769D01*
X12950D01*
Y2250D01*
D02*
G37*
G36*
X12301D02*
X12050D01*
Y1769D01*
X12301D01*
Y2250D01*
D02*
G37*
G36*
X11950D02*
X11699D01*
Y1769D01*
X11950D01*
Y2250D01*
D02*
G37*
G36*
X3500Y2219D02*
X3461Y2218D01*
X3422Y2213D01*
X3384Y2206D01*
X3347Y2195D01*
X3310Y2182D01*
X3275Y2165D01*
X3241Y2146D01*
X3208Y2125D01*
X3178Y2100D01*
X3149Y2074D01*
X3123Y2045D01*
X3099Y2015D01*
X3077Y1982D01*
X3058Y1948D01*
X3042Y1913D01*
X3028Y1877D01*
X3018Y1839D01*
X3010Y1801D01*
X3005Y1762D01*
X3004Y1723D01*
X3005Y1684D01*
X3010Y1646D01*
X3018Y1607D01*
X3028Y1570D01*
X3042Y1533D01*
X3058Y1498D01*
X3077Y1464D01*
X3099Y1432D01*
X3123Y1401D01*
X3149Y1372D01*
X3178Y1346D01*
X3208Y1322D01*
X3241Y1300D01*
X3275Y1281D01*
X3310Y1265D01*
X3347Y1251D01*
X3384Y1241D01*
X3422Y1233D01*
X3461Y1229D01*
X3500Y1227D01*
X3539Y1229D01*
X3578Y1233D01*
X3616Y1241D01*
X3653Y1251D01*
X3690Y1265D01*
X3725Y1281D01*
X3759Y1300D01*
X3792Y1322D01*
X3822Y1346D01*
X3851Y1372D01*
X3877Y1401D01*
X3901Y1432D01*
X3923Y1464D01*
X3942Y1498D01*
X3958Y1533D01*
X3972Y1570D01*
X3982Y1607D01*
X3990Y1646D01*
X3995Y1684D01*
X3996Y1723D01*
X3995Y1762D01*
X3990Y1801D01*
X3982Y1839D01*
X3972Y1877D01*
X3958Y1913D01*
X3942Y1948D01*
X3923Y1982D01*
X3901Y2015D01*
X3877Y2045D01*
X3851Y2074D01*
X3822Y2100D01*
X3792Y2125D01*
X3759Y2146D01*
X3725Y2165D01*
X3690Y2182D01*
X3653Y2195D01*
X3616Y2206D01*
X3578Y2213D01*
X3539Y2218D01*
X3500Y2219D01*
D02*
G37*
G36*
X13301Y1678D02*
X13050D01*
Y1196D01*
X13301D01*
Y1678D01*
D02*
G37*
G36*
X12950D02*
X12699D01*
Y1196D01*
X12950D01*
Y1678D01*
D02*
G37*
G36*
X12301D02*
X12050D01*
Y1196D01*
X12301D01*
Y1678D01*
D02*
G37*
G36*
X11950D02*
X11699D01*
Y1196D01*
X11950D01*
Y1678D01*
D02*
G37*
G36*
X10301Y2831D02*
X9699D01*
Y1769D01*
X9699D01*
X9712Y1689D01*
X9699Y1678D01*
X9699D01*
Y979D01*
X9445D01*
X9423Y978D01*
X9401Y973D01*
X9380Y966D01*
X9324Y990D01*
X9301Y1013D01*
Y1678D01*
X9301D01*
X9282Y1751D01*
Y1753D01*
X9297Y1769D01*
X9301D01*
Y2831D01*
X8699D01*
Y1769D01*
X8703D01*
X8718Y1753D01*
Y1751D01*
X8699Y1678D01*
X8699D01*
Y984D01*
X8625Y953D01*
X8446Y1132D01*
X8430Y1147D01*
X8411Y1159D01*
X8392Y1169D01*
X8371Y1176D01*
X8349Y1180D01*
X8327Y1182D01*
X8301D01*
Y1678D01*
X8250D01*
Y1769D01*
X8301D01*
Y2831D01*
X7699D01*
Y1769D01*
X7750D01*
Y1678D01*
X7699D01*
Y1397D01*
X7301D01*
Y1678D01*
X7250D01*
Y1769D01*
X7301D01*
Y2831D01*
X6699D01*
Y1769D01*
X6750D01*
Y1678D01*
X6699D01*
Y615D01*
X7301D01*
Y896D01*
X7699D01*
Y615D01*
X8301D01*
Y695D01*
X8375Y725D01*
X8529Y571D01*
X8537Y559D01*
X8552Y543D01*
X8627Y468D01*
X8643Y453D01*
X8662Y441D01*
X8672Y436D01*
X8674Y435D01*
X8693Y425D01*
X8714Y418D01*
X8736Y413D01*
X8758Y412D01*
X9248D01*
X9270Y413D01*
X9291Y418D01*
X9312Y425D01*
X9332Y435D01*
X9351Y447D01*
X9367Y461D01*
X9448Y543D01*
X9463Y559D01*
X9475Y578D01*
X9485Y598D01*
X9492Y617D01*
X9515Y641D01*
X9699D01*
Y615D01*
X10301D01*
Y1678D01*
X10301D01*
X10288Y1758D01*
X10301Y1769D01*
X10301D01*
Y2831D01*
D02*
G37*
G36*
X20301D02*
X19699D01*
Y1769D01*
X19703D01*
X19718Y1753D01*
Y1751D01*
X19699Y1678D01*
X19699D01*
Y615D01*
X20301D01*
Y1678D01*
X20301D01*
X20282Y1751D01*
Y1753D01*
X20297Y1769D01*
X20301D01*
Y2831D01*
D02*
G37*
G36*
X19301D02*
X18699D01*
Y1769D01*
X18703D01*
X18718Y1753D01*
Y1751D01*
X18699Y1678D01*
X18699D01*
Y615D01*
X19301D01*
Y1678D01*
X19301D01*
X19282Y1751D01*
Y1753D01*
X19297Y1769D01*
X19301D01*
Y2831D01*
D02*
G37*
G36*
X18301D02*
X17699D01*
Y1769D01*
X17703D01*
X17718Y1753D01*
Y1751D01*
X17699Y1678D01*
X17699D01*
Y615D01*
X18301D01*
Y1678D01*
X18301D01*
X18282Y1751D01*
Y1753D01*
X18297Y1769D01*
X18301D01*
Y2831D01*
D02*
G37*
G36*
X17301D02*
X16699D01*
Y1769D01*
X16703D01*
X16718Y1753D01*
Y1751D01*
X16699Y1678D01*
X16699D01*
Y615D01*
X17301D01*
Y1678D01*
X17301D01*
X17282Y1751D01*
Y1753D01*
X17297Y1769D01*
X17301D01*
Y2831D01*
D02*
G37*
G36*
X16301D02*
X15699D01*
Y1769D01*
X15703D01*
X15718Y1753D01*
Y1751D01*
X15699Y1678D01*
X15699D01*
Y615D01*
X16301D01*
Y1678D01*
X16301D01*
X16282Y1751D01*
Y1753D01*
X16297Y1769D01*
X16301D01*
Y2831D01*
D02*
G37*
G36*
X14301D02*
X13699D01*
Y1769D01*
X13703D01*
X13718Y1753D01*
Y1751D01*
X13699Y1678D01*
X13699D01*
Y615D01*
X14301D01*
Y1678D01*
X14301D01*
X14282Y1751D01*
Y1753D01*
X14297Y1769D01*
X14301D01*
Y2831D01*
D02*
G37*
G36*
X13301Y1096D02*
X13050D01*
Y615D01*
X13301D01*
Y1096D01*
D02*
G37*
G36*
X12950D02*
X12699D01*
Y615D01*
X12950D01*
Y1096D01*
D02*
G37*
G36*
X12301D02*
X12050D01*
Y615D01*
X12301D01*
Y1096D01*
D02*
G37*
G36*
X11950D02*
X11699D01*
Y615D01*
X11950D01*
Y1096D01*
D02*
G37*
%LPD*%
D14*
X6060Y15584D02*
Y18112D01*
X6313Y15331D02*
X6746D01*
X6060Y15584D02*
X6313Y15331D01*
X6746D02*
X6762Y15315D01*
X7094Y15337D02*
X7116Y15315D01*
X6610Y18300D02*
X7094Y17816D01*
Y15337D02*
Y17816D01*
X5720Y18452D02*
X6060Y18112D01*
X5394Y18602D02*
X5432D01*
X5582Y18452D01*
X5720D01*
X17473Y18137D02*
X17683Y18347D01*
X17269Y18137D02*
X17473D01*
X17032Y17900D02*
X17269Y18137D01*
X6513Y18300D02*
X6610D01*
X6191Y18622D02*
X6513Y18300D01*
X7236Y18422D02*
X7714Y17945D01*
X7188Y18422D02*
X7236D01*
X6988Y18622D02*
X7188Y18422D01*
X13706Y18602D02*
X13721Y18587D01*
X14006Y18564D02*
Y18602D01*
X13721Y14683D02*
X13736Y14668D01*
X14006Y18564D02*
X14061Y18509D01*
X13721Y14683D02*
Y18587D01*
X14061Y14658D02*
Y18509D01*
X13094Y14701D02*
Y18590D01*
Y14701D02*
X13106Y14688D01*
X13081Y18602D02*
X13094Y18590D01*
X17683Y18347D02*
Y18615D01*
X8925Y7018D02*
X9024D01*
X9025Y7020D01*
X7644Y8300D02*
X8925Y7018D01*
X9025Y7020D02*
X9215D01*
X9242Y7047D01*
X11071Y7154D02*
Y8355D01*
X10537Y4068D02*
Y6620D01*
X11071Y7154D01*
X10195Y8833D02*
X10593D01*
X11071Y8355D01*
X10193Y8831D02*
X10195Y8833D01*
X8834Y4835D02*
X9090Y4580D01*
X8805Y4835D02*
X8834D01*
X16541Y19757D02*
X17683Y18615D01*
X12683Y18605D02*
X12714Y18575D01*
X11650Y18644D02*
X11677Y18617D01*
Y18419D02*
X11768Y18328D01*
Y14717D02*
Y18328D01*
X11677Y18419D02*
Y18617D01*
X8348Y18576D02*
X8913Y18010D01*
X8313Y18576D02*
X8348D01*
X8913Y15219D02*
Y18010D01*
X7714Y15670D02*
Y17945D01*
X7663Y15620D02*
X7714Y15670D01*
X7663Y15426D02*
Y15620D01*
Y15426D02*
X7880Y15209D01*
X12083Y18330D02*
X12368Y18615D01*
X12083Y14717D02*
Y18330D01*
X12714Y14679D02*
Y18575D01*
X19906Y2617D02*
X20000Y2523D01*
X12713Y14678D02*
X12714Y14679D01*
X7715Y9344D02*
X7881Y9511D01*
X7714Y9344D02*
X7715D01*
X7881Y9511D02*
X7919D01*
X7644Y9274D02*
X7714Y9344D01*
X7644Y8300D02*
Y9274D01*
X9090Y4580D02*
X9888D01*
D16*
X17000Y2300D02*
Y2527D01*
X18000Y2300D02*
Y2527D01*
D19*
X10528Y7542D02*
X10843D01*
X9706Y6720D02*
X10528Y7542D01*
X9135Y6720D02*
X9706D01*
X9120Y6735D02*
X9135Y6720D01*
X2801Y8487D02*
X2870Y8418D01*
X2502Y8487D02*
X2801D01*
X2390Y5599D02*
X2870Y6080D01*
Y8418D01*
X2390Y8599D02*
X2502Y8487D01*
X2390Y11926D02*
X2831Y12367D01*
Y14756D01*
X2490Y14826D02*
X2762D01*
X2831Y14756D01*
X2390Y14926D02*
X2490Y14826D01*
D26*
X17000Y1146D02*
D03*
Y2300D02*
D03*
X18000D02*
D03*
Y1146D02*
D03*
X19000Y2300D02*
D03*
Y1146D02*
D03*
X21000Y2300D02*
D03*
Y1146D02*
D03*
X20000Y2300D02*
D03*
Y1146D02*
D03*
X16000D02*
D03*
Y2300D02*
D03*
X6400Y21300D02*
D03*
Y20146D02*
D03*
X5400Y21300D02*
D03*
Y20146D02*
D03*
X11400Y21300D02*
D03*
Y20146D02*
D03*
X10400D02*
D03*
Y21300D02*
D03*
X9400Y20146D02*
D03*
Y21300D02*
D03*
X7400Y20146D02*
D03*
Y21300D02*
D03*
X8400Y20146D02*
D03*
Y21300D02*
D03*
X12400D02*
D03*
Y20146D02*
D03*
X3400D02*
D03*
Y21300D02*
D03*
X4400Y20146D02*
D03*
Y21300D02*
D03*
X13000Y1146D02*
D03*
Y2300D02*
D03*
X14000Y1146D02*
D03*
Y2300D02*
D03*
X8000Y1146D02*
D03*
Y2300D02*
D03*
X9000D02*
D03*
Y1146D02*
D03*
X10000Y2300D02*
D03*
Y1146D02*
D03*
X12000Y2300D02*
D03*
Y1146D02*
D03*
X11000Y2300D02*
D03*
Y1146D02*
D03*
X7000D02*
D03*
Y2300D02*
D03*
X11404Y16146D02*
D03*
Y17300D02*
D03*
X12404Y16146D02*
D03*
Y17300D02*
D03*
X3404D02*
D03*
Y16146D02*
D03*
X7404D02*
D03*
Y17300D02*
D03*
X8404Y16146D02*
D03*
Y17300D02*
D03*
X6404Y16146D02*
D03*
Y17300D02*
D03*
X5404Y16146D02*
D03*
Y17300D02*
D03*
X4404D02*
D03*
Y16146D02*
D03*
X10404Y17300D02*
D03*
Y16146D02*
D03*
X9404Y17300D02*
D03*
Y16146D02*
D03*
X13404Y17300D02*
D03*
Y16146D02*
D03*
X14404Y17300D02*
D03*
Y16146D02*
D03*
X21000Y20146D02*
D03*
Y21300D02*
D03*
X17000D02*
D03*
Y20146D02*
D03*
X16000Y21300D02*
D03*
Y20146D02*
D03*
X18000Y21300D02*
D03*
Y20146D02*
D03*
X19000Y21300D02*
D03*
Y20146D02*
D03*
X20000D02*
D03*
Y21300D02*
D03*
X14000Y20146D02*
D03*
Y21300D02*
D03*
X15000Y20146D02*
D03*
Y21300D02*
D03*
D95*
X3500Y1723D02*
D03*
X21000Y18723D02*
D03*
D99*
X3390Y3599D02*
D03*
X2390D02*
D03*
X3390Y4599D02*
D03*
X2390D02*
D03*
X3390Y5599D02*
D03*
X2390D02*
D03*
X3390Y6599D02*
D03*
X2390D02*
D03*
X3390Y7599D02*
D03*
X2390D02*
D03*
X3390Y8599D02*
D03*
Y9926D02*
D03*
X2390D02*
D03*
X3390Y10926D02*
D03*
X2390D02*
D03*
X3390Y11926D02*
D03*
X2390D02*
D03*
X3390Y12926D02*
D03*
X2390D02*
D03*
X3390Y13926D02*
D03*
X2390D02*
D03*
X3390Y14926D02*
D03*
D101*
X10843Y7542D02*
Y8260D01*
X10841Y8261D02*
X10843Y8260D01*
X10841Y8261D02*
Y8262D01*
X22549Y11723D02*
X22662D01*
X22467Y11806D02*
X22549Y11723D01*
X22467Y11806D02*
Y12207D01*
X20498Y10783D02*
Y11223D01*
X20438Y10723D02*
X20498Y10783D01*
X20504Y11723D02*
X20587Y11806D01*
Y12198D01*
X20438Y11723D02*
X20504D01*
X20438Y12723D02*
X20543D01*
X20626Y12806D01*
Y13231D01*
D102*
X15301Y14698D02*
Y16085D01*
Y13823D02*
Y14698D01*
X15291Y14707D02*
X15301Y14698D01*
X14415Y14707D02*
X15291D01*
X15301Y16085D02*
X15754Y16538D01*
X15301Y13823D02*
X15396Y13728D01*
Y13716D02*
Y13728D01*
D104*
X6364Y9156D02*
Y11948D01*
X6362Y11950D02*
Y12229D01*
X6364Y12231D01*
Y9156D02*
X6846Y8674D01*
X6364Y12231D02*
Y12375D01*
X6362Y11950D02*
X6364Y11948D01*
X19388Y11818D02*
Y15822D01*
X20232Y16666D02*
X20774D01*
X19388Y15822D02*
X20232Y16666D01*
X18805Y11235D02*
X19388Y11818D01*
X18805Y9206D02*
Y10160D01*
Y7178D02*
Y9206D01*
Y10160D02*
Y11235D01*
X6313Y6065D02*
X6325Y6077D01*
Y8152D02*
X6846Y8674D01*
X6313Y6046D02*
Y6065D01*
X6325Y6077D02*
Y8152D01*
D105*
X16837Y9215D02*
X17358D01*
X16881Y10165D02*
X17324D01*
X16876Y10160D02*
X16881Y10165D01*
X17324D02*
X17329Y10170D01*
X19209Y11135D02*
X19652Y11578D01*
Y15042D01*
X20222Y15613D01*
X20518D01*
D106*
X11364Y3261D02*
X16098D01*
X11000Y2300D02*
X11036Y2336D01*
Y2932D01*
X11364Y3261D01*
X22426Y12723D02*
X22662D01*
X21855D02*
X22426D01*
X16467Y3629D02*
X19292D01*
X16098Y3261D02*
X16467Y3629D01*
X19292D02*
X21565Y5903D01*
Y12434D02*
X21855Y12723D01*
X21565Y5903D02*
Y12434D01*
X22260Y13241D02*
X22375Y13126D01*
Y12774D02*
X22426Y12723D01*
X22375Y12774D02*
Y13126D01*
X8000Y1723D02*
Y2300D01*
Y1146D02*
Y1723D01*
X7000Y1146D02*
X7791D01*
X7000D02*
Y2300D01*
X10000Y1146D02*
Y1723D01*
X10000D02*
Y2300D01*
X11000Y1146D02*
Y1723D01*
Y2300D01*
D107*
X8327Y1013D02*
X8671Y668D01*
X8132Y1013D02*
X8327D01*
X8000Y1145D02*
X8132Y1013D01*
X8000Y1145D02*
Y1146D01*
X8671Y662D02*
Y668D01*
Y662D02*
X8746Y587D01*
X8758Y581D02*
X9248D01*
X8752Y587D02*
X8758Y581D01*
X8746Y587D02*
X8752D01*
X7791Y1146D02*
X8000D01*
X9868Y810D02*
X10000Y942D01*
Y1146D01*
X9445Y810D02*
X9868D01*
X9248Y581D02*
X9329Y662D01*
Y694D01*
X9445Y810D01*
D109*
X5400Y19923D02*
Y20723D01*
X19000Y1723D02*
Y2523D01*
X20000Y1723D02*
Y2523D01*
Y1146D02*
Y1723D01*
X14404Y16723D02*
Y17300D01*
Y16146D02*
Y16723D01*
X11404D02*
Y17300D01*
Y16146D02*
Y16723D01*
X13404Y16146D02*
Y17300D01*
X12404Y16146D02*
Y17300D01*
X16000Y1723D02*
Y2533D01*
X17000Y1723D02*
Y2300D01*
X5400Y20723D02*
Y21300D01*
X4400Y20723D02*
Y21300D01*
Y20146D02*
Y20723D01*
X3400D02*
Y21300D01*
Y20146D02*
Y20723D01*
X8400D02*
Y21300D01*
Y20146D02*
Y20723D01*
X7400D02*
Y21300D01*
Y20146D02*
Y20723D01*
X16000Y1146D02*
Y1723D01*
X17000Y1146D02*
Y1723D01*
X18000Y1146D02*
Y1723D01*
X19000Y1146D02*
Y1723D01*
X21000D02*
Y2300D01*
Y1146D02*
Y1723D01*
X18000Y20146D02*
Y20723D01*
Y21300D01*
X17000Y20723D02*
Y21300D01*
Y20146D02*
Y20723D01*
X12400D02*
Y21300D01*
Y20146D02*
Y20723D01*
X11400D02*
Y21300D01*
Y20146D02*
Y20723D01*
X14000Y20146D02*
Y20723D01*
Y21300D01*
X9400Y20146D02*
Y20723D01*
Y21300D01*
X10400Y20146D02*
Y20723D01*
Y21300D01*
X15000Y20146D02*
Y20723D01*
Y21300D01*
X16000Y20146D02*
Y20723D01*
Y21300D01*
X19000Y20723D02*
Y21300D01*
X20000Y20146D02*
Y20723D01*
Y21300D01*
X21000Y20146D02*
Y20723D01*
Y21300D01*
X9000Y1146D02*
Y1723D01*
Y2300D01*
X14000Y1146D02*
Y1723D01*
Y2300D01*
X18000Y1723D02*
Y2300D01*
X19000Y20146D02*
Y20723D01*
X8400Y16146D02*
Y16723D01*
X10400D02*
Y17300D01*
Y16146D02*
Y16723D01*
X9400D02*
Y17300D01*
Y16146D02*
Y16723D01*
X8400D02*
Y17300D01*
X5400Y16723D02*
Y17300D01*
Y16146D02*
Y16723D01*
X4400D02*
Y17300D01*
Y16146D02*
Y16723D01*
X3400D02*
Y17300D01*
Y16146D02*
Y16723D01*
X6400Y16146D02*
Y16723D01*
Y17300D01*
X7400Y16723D02*
Y17300D01*
Y16146D02*
Y16723D01*
D111*
X22197Y6373D02*
D03*
Y9774D02*
D03*
X20701Y6373D02*
D03*
Y9774D02*
D03*
D112*
X2390Y8599D02*
D03*
Y14926D02*
D03*
D113*
X20774Y16666D02*
D03*
Y17454D02*
D03*
D114*
X13137Y22403D02*
D03*
X13531D02*
D03*
X12743D02*
D03*
X12746Y0D02*
D03*
X13533D02*
D03*
X13140D02*
D03*
X23300Y13927D02*
D03*
Y14320D02*
D03*
Y13533D02*
D03*
X23300Y5382D02*
D03*
Y5776D02*
D03*
Y4988D02*
D03*
X-0Y4988D02*
D03*
Y5776D02*
D03*
Y5382D02*
D03*
Y13533D02*
D03*
Y14320D02*
D03*
Y13927D02*
D03*
X17713Y7267D02*
D03*
X17339D02*
D03*
X18087D02*
D03*
D115*
X22000Y3723D02*
D03*
Y14723D02*
D03*
X1500Y1723D02*
D03*
X2000Y20723D02*
D03*
D116*
X4508Y13445D02*
D03*
Y13720D02*
D03*
X6762Y15315D02*
D03*
X7116D02*
D03*
X17516Y12877D02*
D03*
Y13339D02*
D03*
X17293Y12411D02*
D03*
X5394Y18602D02*
D03*
X17451Y17854D02*
D03*
X16921Y17177D02*
D03*
X17032Y17900D02*
D03*
X6191Y18622D02*
D03*
X6988D02*
D03*
X14006Y18602D02*
D03*
X13706D02*
D03*
X13081D02*
D03*
X16329Y16932D02*
D03*
X13287Y11782D02*
D03*
X13740Y12008D02*
D03*
X13297Y12343D02*
D03*
X13789Y12864D02*
D03*
X13287Y13041D02*
D03*
X13406Y13474D02*
D03*
X13858Y13593D02*
D03*
X11545Y10640D02*
D03*
X11191Y10778D02*
D03*
Y11211D02*
D03*
Y11713D02*
D03*
Y12293D02*
D03*
Y12815D02*
D03*
Y13406D02*
D03*
Y13947D02*
D03*
X11191Y14400D02*
D03*
X11378Y14626D02*
D03*
X10841Y8262D02*
D03*
X15767Y17464D02*
D03*
X16053Y17116D02*
D03*
X15787Y16939D02*
D03*
X16063Y18268D02*
D03*
X9242Y7047D02*
D03*
X1850Y7018D02*
D03*
X1585Y7352D02*
D03*
X1722Y12165D02*
D03*
X295Y16841D02*
D03*
X1398Y18169D02*
D03*
X492Y5876D02*
D03*
X423Y6880D02*
D03*
X463Y7913D02*
D03*
X472Y8888D02*
D03*
X433Y9990D02*
D03*
X374Y10866D02*
D03*
X443Y11752D02*
D03*
X404Y12756D02*
D03*
X413Y13829D02*
D03*
X394Y14764D02*
D03*
Y15709D02*
D03*
X354Y17805D02*
D03*
X955Y17736D02*
D03*
X797Y15246D02*
D03*
Y14213D02*
D03*
X807Y13228D02*
D03*
X827Y12205D02*
D03*
X837Y11270D02*
D03*
X807Y10433D02*
D03*
X817Y9350D02*
D03*
X787Y8297D02*
D03*
X15833Y19225D02*
D03*
X10843Y7542D02*
D03*
X14931Y4783D02*
D03*
X16049Y5662D02*
D03*
X16886Y4639D02*
D03*
X17024Y4265D02*
D03*
X18372Y4835D02*
D03*
X18343Y4284D02*
D03*
X19150Y4265D02*
D03*
X19278Y4993D02*
D03*
X19898Y5013D02*
D03*
X20035Y5564D02*
D03*
X19376D02*
D03*
X19396Y6312D02*
D03*
X19927Y6302D02*
D03*
X19986Y7050D02*
D03*
X19396Y7040D02*
D03*
X17870Y5928D02*
D03*
X17880Y5623D02*
D03*
X17555D02*
D03*
X15774Y5593D02*
D03*
X15783Y5839D02*
D03*
X15774Y6174D02*
D03*
X16600Y9471D02*
D03*
X16846Y9717D02*
D03*
X16817Y8280D02*
D03*
X16837Y8704D02*
D03*
X17358Y9215D02*
D03*
X16837D02*
D03*
X16876Y10160D02*
D03*
X17329Y10170D02*
D03*
X18805Y9206D02*
D03*
Y10160D02*
D03*
Y7178D02*
D03*
X19209Y11135D02*
D03*
X18185Y8428D02*
D03*
X18402Y7139D02*
D03*
X18402Y7434D02*
D03*
X17486Y5957D02*
D03*
X17565Y8517D02*
D03*
X16738Y6893D02*
D03*
X17024D02*
D03*
X18254Y5810D02*
D03*
X4051Y4432D02*
D03*
X4169Y4776D02*
D03*
X10459Y9442D02*
D03*
X10498Y8605D02*
D03*
X11236Y9304D02*
D03*
X11226Y10081D02*
D03*
X11207Y8635D02*
D03*
X13484Y4262D02*
D03*
X13195Y4501D02*
D03*
X17545Y15652D02*
D03*
X17535Y16194D02*
D03*
X14858Y8477D02*
D03*
X15980Y8743D02*
D03*
X19632Y10475D02*
D03*
X19652Y10879D02*
D03*
X20075Y12227D02*
D03*
X19789Y11243D02*
D03*
X10551Y3691D02*
D03*
X4183Y14242D02*
D03*
X4878Y17237D02*
D03*
X4917Y16568D02*
D03*
X4927Y15839D02*
D03*
X3904Y17306D02*
D03*
X3894Y16558D02*
D03*
Y15889D02*
D03*
X21531Y19373D02*
D03*
X21551Y20190D02*
D03*
Y20997D02*
D03*
X896Y19646D02*
D03*
X390Y20091D02*
D03*
X463Y19134D02*
D03*
X1427Y19518D02*
D03*
X2880Y17394D02*
D03*
X2890Y16725D02*
D03*
X2841Y15839D02*
D03*
X2240Y15820D02*
D03*
X728Y7362D02*
D03*
X886Y6388D02*
D03*
X1781Y11270D02*
D03*
X1722Y10394D02*
D03*
X1738Y9343D02*
D03*
X1709Y8300D02*
D03*
X449Y2759D02*
D03*
X1571Y5347D02*
D03*
X837Y5207D02*
D03*
X734Y3674D02*
D03*
X1581Y3733D02*
D03*
X3136Y2719D02*
D03*
X6089Y1017D02*
D03*
X4711Y1026D02*
D03*
X6128Y1952D02*
D03*
X4730Y1932D02*
D03*
X4602Y2946D02*
D03*
X6197Y2847D02*
D03*
X7496Y1794D02*
D03*
X7526Y2522D02*
D03*
X11522Y1066D02*
D03*
X11541Y1656D02*
D03*
X11512Y2296D02*
D03*
X12486Y1007D02*
D03*
X12467Y1715D02*
D03*
X12476Y2375D02*
D03*
X13470Y997D02*
D03*
X13490Y1617D02*
D03*
X13470Y2257D02*
D03*
X16502Y879D02*
D03*
X16512Y1469D02*
D03*
X16502Y2070D02*
D03*
X17476Y879D02*
D03*
X17496Y1499D02*
D03*
X17565Y2099D02*
D03*
X18500Y830D02*
D03*
X18539Y1706D02*
D03*
X18500Y2562D02*
D03*
X19504Y869D02*
D03*
X19514Y1706D02*
D03*
X19494Y2473D02*
D03*
X20468Y1046D02*
D03*
X20498Y1952D02*
D03*
Y2562D02*
D03*
X21600Y987D02*
D03*
X21630Y1784D02*
D03*
X21797Y2355D02*
D03*
X21394Y4914D02*
D03*
X20715Y4333D02*
D03*
X22181Y5180D02*
D03*
X22831Y4934D02*
D03*
X22929Y5603D02*
D03*
X22211Y5702D02*
D03*
X22722Y7444D02*
D03*
X22201Y7414D02*
D03*
Y8290D02*
D03*
X22762Y8270D02*
D03*
X22752Y9048D02*
D03*
X22191Y9018D02*
D03*
X22825Y13632D02*
D03*
X21276Y13477D02*
D03*
X20646Y14048D02*
D03*
X21482Y16115D02*
D03*
X21522Y17965D02*
D03*
X20449Y18172D02*
D03*
X18746Y18920D02*
D03*
X20508Y21607D02*
D03*
X20468Y20908D02*
D03*
X20488Y20150D02*
D03*
X19504Y21509D02*
D03*
Y20830D02*
D03*
X19533Y20190D02*
D03*
X18500Y21578D02*
D03*
X18530Y20889D02*
D03*
X18490Y20229D02*
D03*
X17526Y21637D02*
D03*
X17506Y20780D02*
D03*
X17496Y19983D02*
D03*
X3874Y21725D02*
D03*
X3884Y20770D02*
D03*
Y19993D02*
D03*
X4898Y21656D02*
D03*
X4888Y20820D02*
D03*
Y19993D02*
D03*
X5911Y21656D02*
D03*
X5902Y20810D02*
D03*
X5931Y20013D02*
D03*
X6886Y21558D02*
D03*
X6906Y20593D02*
D03*
X6945Y19914D02*
D03*
X7909Y21686D02*
D03*
X7880Y20702D02*
D03*
Y19894D02*
D03*
X8923Y21646D02*
D03*
X8913Y20682D02*
D03*
X8894Y19944D02*
D03*
X9907Y21646D02*
D03*
X9878Y20652D02*
D03*
Y20003D02*
D03*
X10911Y21676D02*
D03*
Y20790D02*
D03*
X10892Y19924D02*
D03*
X11876Y21518D02*
D03*
X11896Y20721D02*
D03*
Y20141D02*
D03*
X12860Y20406D02*
D03*
X12890Y20987D02*
D03*
X13520Y21627D02*
D03*
X12929D02*
D03*
X13490Y21026D02*
D03*
X13500Y20456D02*
D03*
X14533Y21430D02*
D03*
X14494Y20908D02*
D03*
Y20406D02*
D03*
X14484Y19924D02*
D03*
X15468Y20259D02*
D03*
X15488Y21204D02*
D03*
X15508Y21637D02*
D03*
X15488Y20672D02*
D03*
X15468Y19914D02*
D03*
X22260Y13241D02*
D03*
X22703Y10180D02*
D03*
X22457Y11223D02*
D03*
X22122Y11213D02*
D03*
X22467Y12207D02*
D03*
X20587Y12198D02*
D03*
X20498Y11223D02*
D03*
X20626Y13231D02*
D03*
X8480Y1459D02*
D03*
X8500Y2001D02*
D03*
X8480Y2503D02*
D03*
X9514Y1400D02*
D03*
X9524Y1912D02*
D03*
Y2444D02*
D03*
X13067Y6587D02*
D03*
X19406Y7867D02*
D03*
X19337Y8280D02*
D03*
X6719Y12326D02*
D03*
X8805Y4835D02*
D03*
X14848Y5977D02*
D03*
X16492Y4402D02*
D03*
X16709Y4816D02*
D03*
X20705Y5849D02*
D03*
X21236Y6706D02*
D03*
X20419Y3526D02*
D03*
X20616Y3162D02*
D03*
X19346Y3015D02*
D03*
X19041Y3300D02*
D03*
X18146Y3103D02*
D03*
X17565Y3113D02*
D03*
X16650Y2975D02*
D03*
X15281Y869D02*
D03*
X14730Y967D02*
D03*
X15311Y1735D02*
D03*
X15321Y2424D02*
D03*
X15045Y2788D02*
D03*
X9612Y11932D02*
D03*
X9622Y12316D02*
D03*
X18992Y14137D02*
D03*
X18638Y14166D02*
D03*
X18992Y13664D02*
D03*
X17604Y11745D02*
D03*
X18047D02*
D03*
X17624Y12139D02*
D03*
X17585Y15042D02*
D03*
X19268Y19452D02*
D03*
X18333Y19422D02*
D03*
X17943Y19282D02*
D03*
X17427Y19452D02*
D03*
X18175Y18782D02*
D03*
X2618Y19193D02*
D03*
X325Y18504D02*
D03*
X3067Y19176D02*
D03*
X3500Y18753D02*
D03*
X4193Y19045D02*
D03*
X3844Y19501D02*
D03*
X4898D02*
D03*
X5035Y19186D02*
D03*
X5980Y19471D02*
D03*
X6581Y19393D02*
D03*
X6945Y18959D02*
D03*
X7535Y18595D02*
D03*
X7919Y19422D02*
D03*
X8156Y18989D02*
D03*
X8835Y18635D02*
D03*
X9396Y18615D02*
D03*
X10222Y18595D02*
D03*
X11079Y18615D02*
D03*
X9228Y19137D02*
D03*
X8904Y19530D02*
D03*
X9967Y19422D02*
D03*
X11010Y19501D02*
D03*
X11935Y19619D02*
D03*
X13195Y20013D02*
D03*
X13490Y19501D02*
D03*
X13736Y19146D02*
D03*
X14524Y19471D02*
D03*
X14494Y19097D02*
D03*
X14524Y18763D02*
D03*
X15291Y19471D02*
D03*
X15311Y18999D02*
D03*
X15606Y18595D02*
D03*
X15709Y18248D02*
D03*
X18972Y16883D02*
D03*
X18667Y17001D02*
D03*
X17280Y14934D02*
D03*
X17319Y15268D02*
D03*
X16197Y14875D02*
D03*
X15803D02*
D03*
X15468Y13231D02*
D03*
X15419Y12778D02*
D03*
X15498Y12276D02*
D03*
X15862Y11932D02*
D03*
X16236D02*
D03*
X17293Y12047D02*
D03*
X13303Y10485D02*
D03*
X12654Y10239D02*
D03*
Y10524D02*
D03*
X12299Y11194D02*
D03*
X11994D02*
D03*
X6699Y12089D02*
D03*
X6659Y5751D02*
D03*
X6669Y5967D02*
D03*
X5439Y6351D02*
D03*
X6305Y6026D02*
D03*
X9465Y5967D02*
D03*
X9445Y5593D02*
D03*
X14734Y7726D02*
D03*
X14888Y7001D02*
D03*
X14740Y5603D02*
D03*
X21089Y9176D02*
D03*
X21217Y7139D02*
D03*
X15921Y6755D02*
D03*
X16325Y4009D02*
D03*
X16069Y4078D02*
D03*
X15715Y3940D02*
D03*
X14793Y4547D02*
D03*
X15203Y4688D02*
D03*
X9425Y3763D02*
D03*
X9780Y3408D02*
D03*
X7496D02*
D03*
X8244Y3369D02*
D03*
X8638D02*
D03*
X4524Y4471D02*
D03*
Y4767D02*
D03*
Y5062D02*
D03*
X5478Y5731D02*
D03*
X4218Y7188D02*
D03*
X4514Y7030D02*
D03*
Y7345D02*
D03*
Y7660D02*
D03*
X7535Y9668D02*
D03*
X8707Y9727D02*
D03*
X8313D02*
D03*
X9031Y10810D02*
D03*
X8402Y15141D02*
D03*
X7811Y14826D02*
D03*
X7496Y15141D02*
D03*
X4189Y12424D02*
D03*
X4819Y12385D02*
D03*
X4508Y13996D02*
D03*
X5547Y12119D02*
D03*
X5429Y12709D02*
D03*
X4528Y10817D02*
D03*
Y11137D02*
D03*
Y11457D02*
D03*
X4661Y9501D02*
D03*
X5843D02*
D03*
X4661Y8979D02*
D03*
X5646D02*
D03*
X7614Y7778D02*
D03*
X7260Y8202D02*
D03*
X8598Y8261D02*
D03*
X8136Y8270D02*
D03*
X9189D02*
D03*
X10370Y9944D02*
D03*
X9976Y10534D02*
D03*
X10370D02*
D03*
X9780Y11125D02*
D03*
X10370D02*
D03*
Y11912D02*
D03*
Y15062D02*
D03*
X9583D02*
D03*
X8992Y14471D02*
D03*
X10173D02*
D03*
Y13881D02*
D03*
X8992D02*
D03*
Y13290D02*
D03*
X10173D02*
D03*
X14307Y14078D02*
D03*
Y13487D02*
D03*
Y12700D02*
D03*
Y11715D02*
D03*
X14701Y10928D02*
D03*
X15685D02*
D03*
X16472D02*
D03*
X17457D02*
D03*
X15685Y9747D02*
D03*
X16079Y10534D02*
D03*
X15094D02*
D03*
X14110D02*
D03*
X14898Y9747D02*
D03*
X13717D02*
D03*
X14898Y9156D02*
D03*
X13815Y9078D02*
D03*
X13382Y9245D02*
D03*
X20537Y15593D02*
D03*
X16531Y19767D02*
D03*
X11650Y18602D02*
D03*
X8313Y18576D02*
D03*
X12368Y18602D02*
D03*
X12703D02*
D03*
X15396Y13716D02*
D03*
X14061Y14658D02*
D03*
X15793Y16558D02*
D03*
X13736Y14668D02*
D03*
X13106Y14688D02*
D03*
X12713Y14678D02*
D03*
X12083Y14717D02*
D03*
X11768D02*
D03*
X7919Y9511D02*
D03*
X7880Y15209D02*
D03*
X8913Y15219D02*
D03*
X9888Y4580D02*
D03*
X13264Y5544D02*
D03*
X13008D02*
D03*
X12713D02*
D03*
X12398D02*
D03*
X13470Y7513D02*
D03*
X13313Y7729D02*
D03*
X13018Y7719D02*
D03*
X12713Y7709D02*
D03*
X12407D02*
D03*
X12073Y7700D02*
D03*
X11778D02*
D03*
X14415Y14707D02*
D03*
X10537Y4068D02*
D03*
X10193Y8831D02*
D03*
X13087Y9235D02*
D03*
X12348Y9245D02*
D03*
X11906Y5121D02*
D03*
X11640Y9255D02*
D03*
X12083Y5524D02*
D03*
X11935Y9274D02*
D03*
X12683Y9245D02*
D03*
X11472Y5928D02*
D03*
X11482Y6233D02*
D03*
X11472Y6597D02*
D03*
Y6942D02*
D03*
Y7237D02*
D03*
X11492Y7542D02*
D03*
X11758Y5534D02*
D03*
X6364Y12375D02*
D03*
X6846Y8674D02*
D03*
X9120Y6735D02*
D03*
X14404Y16723D02*
D03*
X13404D02*
D03*
X12404D02*
D03*
X11404D02*
D03*
D117*
X2815Y21900D02*
D03*
X10915Y15787D02*
D03*
X10925Y16644D02*
D03*
X10906Y17490D02*
D03*
X9911Y17510D02*
D03*
X9941Y16732D02*
D03*
X9921Y15768D02*
D03*
X13435Y5906D02*
D03*
X13474Y7185D02*
D03*
X13465Y4518D02*
D03*
X14793Y4291D02*
D03*
X10738Y3337D02*
D03*
X8799Y6722D02*
D03*
D118*
X10000Y1723D02*
D03*
X20000D02*
D03*
X7000D02*
D03*
X5400Y20723D02*
D03*
X4400D02*
D03*
X3400D02*
D03*
X8400D02*
D03*
X7400D02*
D03*
X16000Y1723D02*
D03*
X17000D02*
D03*
X18000D02*
D03*
X19000D02*
D03*
X21000D02*
D03*
X18000Y20723D02*
D03*
X17000D02*
D03*
X12400D02*
D03*
X11400D02*
D03*
X14000D02*
D03*
Y1723D02*
D03*
X8000D02*
D03*
X9000D02*
D03*
X9400Y20723D02*
D03*
X10400D02*
D03*
X15000D02*
D03*
X16000D02*
D03*
X19000D02*
D03*
X20000D02*
D03*
X21000D02*
D03*
X11000Y1723D02*
D03*
X12000Y1723D02*
D03*
X13000D02*
D03*
X6400Y20723D02*
D03*
X10400Y16723D02*
D03*
X9400D02*
D03*
X8400D02*
D03*
X5400D02*
D03*
X4400D02*
D03*
X3400D02*
D03*
X6400D02*
D03*
X7400D02*
D03*
D119*
X20438Y10723D02*
D03*
X22662D02*
D03*
X20438Y11723D02*
D03*
Y12723D02*
D03*
X22662Y11723D02*
D03*
Y12723D02*
D03*
M02*
