G04*
G04 #@! TF.GenerationSoftware,Altium Limited,Altium Designer,22.6.1 (34)*
G04*
G04 Layer_Physical_Order=2*
G04 Layer_Color=36540*
%FSLAX24Y24*%
%MOIN*%
G70*
G04*
G04 #@! TF.SameCoordinates,96953D4B-66F2-4494-BDAD-B8F046598AF4*
G04*
G04*
G04 #@! TF.FilePolarity,Positive*
G04*
G01*
G75*
%ADD95C,0.0591*%
%ADD112C,0.0236*%
%ADD114O,0.0787X0.0512*%
%ADD116C,0.0240*%
%ADD117C,0.0197*%
%ADD118C,0.0240*%
G36*
X21870Y21069D02*
Y16623D01*
X21871Y16606D01*
X21874Y16589D01*
X21880Y16573D01*
X21887Y16558D01*
X21897Y16544D01*
X21908Y16531D01*
X23177Y15262D01*
Y14500D01*
X23164Y14491D01*
X23146Y14475D01*
X23129Y14457D01*
X23115Y14437D01*
X23046Y14476D01*
X23052Y14500D01*
X23062Y14555D01*
X23069Y14611D01*
X23074Y14667D01*
X23075Y14723D01*
X23074Y14779D01*
X23069Y14836D01*
X23062Y14891D01*
X23052Y14947D01*
X23039Y15002D01*
X23023Y15055D01*
X23004Y15109D01*
X22982Y15161D01*
X22958Y15211D01*
X22931Y15261D01*
X22902Y15309D01*
X22870Y15355D01*
X22836Y15400D01*
X22799Y15443D01*
X22760Y15484D01*
X22719Y15522D01*
X22677Y15559D01*
X22632Y15593D01*
X22586Y15625D01*
X22538Y15654D01*
X22488Y15681D01*
X22437Y15706D01*
X22385Y15727D01*
X22332Y15746D01*
X22278Y15762D01*
X22224Y15775D01*
X22168Y15785D01*
X22112Y15793D01*
X22056Y15797D01*
X22000Y15798D01*
X21944Y15797D01*
X21888Y15793D01*
X21832Y15785D01*
X21776Y15775D01*
X21722Y15762D01*
X21668Y15746D01*
X21615Y15727D01*
X21563Y15706D01*
X21512Y15681D01*
X21462Y15654D01*
X21414Y15625D01*
X21368Y15593D01*
X21323Y15559D01*
X21281Y15522D01*
X21240Y15484D01*
X21201Y15443D01*
X21164Y15400D01*
X21130Y15355D01*
X21098Y15309D01*
X21069Y15261D01*
X21042Y15211D01*
X21018Y15161D01*
X20996Y15109D01*
X20977Y15055D01*
X20961Y15002D01*
X20948Y14947D01*
X20938Y14891D01*
X20931Y14836D01*
X20926Y14779D01*
X20925Y14723D01*
X20926Y14667D01*
X20931Y14611D01*
X20938Y14555D01*
X20948Y14500D01*
X20961Y14445D01*
X20977Y14391D01*
X20996Y14338D01*
X21018Y14286D01*
X21042Y14235D01*
X21069Y14186D01*
X21098Y14138D01*
X21130Y14091D01*
X21164Y14047D01*
X21201Y14004D01*
X21240Y13963D01*
X21281Y13924D01*
X21323Y13888D01*
X21368Y13853D01*
X21414Y13821D01*
X21462Y13792D01*
X21512Y13765D01*
X21563Y13741D01*
X21615Y13719D01*
X21668Y13701D01*
X21722Y13685D01*
X21776Y13671D01*
X21832Y13661D01*
X21888Y13654D01*
X21944Y13649D01*
X22000Y13648D01*
X22056Y13649D01*
X22112Y13654D01*
X22168Y13661D01*
X22224Y13671D01*
X22278Y13685D01*
X22332Y13701D01*
X22385Y13719D01*
X22437Y13741D01*
X22488Y13765D01*
X22538Y13792D01*
X22586Y13821D01*
X22632Y13853D01*
X22677Y13888D01*
X22719Y13924D01*
X22760Y13963D01*
X22799Y14004D01*
X22836Y14047D01*
X22870Y14091D01*
X22902Y14138D01*
X22931Y14186D01*
X22958Y14235D01*
X22982Y14286D01*
X23004Y14338D01*
X23082Y14320D01*
X23083Y14296D01*
X23087Y14272D01*
X23094Y14248D01*
X23103Y14226D01*
X23115Y14204D01*
X23129Y14184D01*
X23138Y14174D01*
X23146Y14153D01*
Y14095D01*
X23138Y14073D01*
X23129Y14063D01*
X23115Y14043D01*
X23103Y14022D01*
X23094Y13999D01*
X23087Y13975D01*
X23083Y13951D01*
X23082Y13927D01*
X23083Y13902D01*
X23087Y13878D01*
X23094Y13855D01*
X23103Y13832D01*
X23115Y13811D01*
X23129Y13791D01*
X23138Y13780D01*
X23146Y13759D01*
Y13701D01*
X23138Y13680D01*
X23129Y13669D01*
X23115Y13649D01*
X23103Y13628D01*
X23094Y13605D01*
X23087Y13582D01*
X23083Y13557D01*
X23082Y13533D01*
X23083Y13509D01*
X23087Y13484D01*
X23094Y13461D01*
X23103Y13438D01*
X23115Y13417D01*
X23129Y13397D01*
X23146Y13379D01*
X23164Y13362D01*
X23177Y13353D01*
Y5956D01*
X23164Y5946D01*
X23146Y5930D01*
X23129Y5912D01*
X23115Y5892D01*
X23103Y5870D01*
X23094Y5848D01*
X23087Y5824D01*
X23083Y5800D01*
X23082Y5776D01*
X23083Y5751D01*
X23087Y5727D01*
X23094Y5703D01*
X23103Y5681D01*
X23115Y5659D01*
X23129Y5639D01*
X23138Y5629D01*
X23146Y5608D01*
Y5550D01*
X23138Y5528D01*
X23129Y5518D01*
X23115Y5498D01*
X23103Y5477D01*
X23094Y5454D01*
X23087Y5430D01*
X23083Y5406D01*
X23082Y5382D01*
X23083Y5357D01*
X23087Y5333D01*
X23094Y5310D01*
X23103Y5287D01*
X23115Y5266D01*
X23129Y5246D01*
X23138Y5235D01*
X23146Y5214D01*
Y5156D01*
X23138Y5135D01*
X23129Y5124D01*
X23115Y5104D01*
X23103Y5083D01*
X23094Y5060D01*
X23087Y5037D01*
X23083Y5013D01*
X23082Y4988D01*
X23083Y4964D01*
X23087Y4940D01*
X23094Y4916D01*
X23103Y4893D01*
X23115Y4872D01*
X23129Y4852D01*
X23146Y4834D01*
X23164Y4817D01*
X23177Y4808D01*
Y3084D01*
X21908Y1815D01*
X21897Y1803D01*
X21887Y1788D01*
X21880Y1773D01*
X21874Y1757D01*
X21871Y1740D01*
X21870Y1723D01*
Y130D01*
X13708D01*
X13704Y136D01*
X13688Y154D01*
X13670Y171D01*
X13650Y185D01*
X13628Y197D01*
X13606Y206D01*
X13582Y213D01*
X13558Y217D01*
X13533Y218D01*
X13509Y217D01*
X13485Y213D01*
X13461Y206D01*
X13439Y197D01*
X13417Y185D01*
X13397Y171D01*
X13384Y159D01*
X13369Y154D01*
X13304D01*
X13289Y159D01*
X13276Y171D01*
X13256Y185D01*
X13235Y197D01*
X13212Y206D01*
X13188Y213D01*
X13164Y217D01*
X13140Y218D01*
X13115Y217D01*
X13091Y213D01*
X13068Y206D01*
X13045Y197D01*
X13024Y185D01*
X13004Y171D01*
X12990Y159D01*
X12976Y154D01*
X12910D01*
X12895Y159D01*
X12882Y171D01*
X12862Y185D01*
X12841Y197D01*
X12818Y206D01*
X12795Y213D01*
X12771Y217D01*
X12746Y218D01*
X12722Y217D01*
X12697Y213D01*
X12674Y206D01*
X12651Y197D01*
X12630Y185D01*
X12610Y171D01*
X12592Y154D01*
X12575Y136D01*
X12571Y130D01*
X1707D01*
X1239Y598D01*
X1274Y667D01*
X1280Y671D01*
X1332Y661D01*
X1388Y654D01*
X1444Y649D01*
X1500Y648D01*
X1556Y649D01*
X1612Y654D01*
X1668Y661D01*
X1724Y671D01*
X1778Y685D01*
X1832Y701D01*
X1885Y719D01*
X1937Y741D01*
X1988Y765D01*
X2038Y792D01*
X2086Y821D01*
X2132Y853D01*
X2177Y888D01*
X2219Y924D01*
X2260Y963D01*
X2299Y1004D01*
X2336Y1047D01*
X2370Y1091D01*
X2402Y1138D01*
X2431Y1186D01*
X2458Y1235D01*
X2482Y1286D01*
X2504Y1338D01*
X2523Y1391D01*
X2539Y1445D01*
X2552Y1500D01*
X2562Y1555D01*
X2569Y1611D01*
X2574Y1667D01*
X2575Y1723D01*
X2574Y1779D01*
X2569Y1836D01*
X2562Y1891D01*
X2552Y1947D01*
X2539Y2002D01*
X2523Y2055D01*
X2504Y2109D01*
X2482Y2161D01*
X2458Y2211D01*
X2431Y2261D01*
X2402Y2309D01*
X2370Y2355D01*
X2336Y2400D01*
X2299Y2443D01*
X2260Y2484D01*
X2219Y2522D01*
X2177Y2559D01*
X2132Y2593D01*
X2086Y2625D01*
X2038Y2654D01*
X1988Y2681D01*
X1937Y2706D01*
X1885Y2727D01*
X1832Y2746D01*
X1778Y2762D01*
X1724Y2775D01*
X1668Y2785D01*
X1612Y2793D01*
X1556Y2797D01*
X1500Y2798D01*
X1444Y2797D01*
X1388Y2793D01*
X1332Y2785D01*
X1276Y2775D01*
X1222Y2762D01*
X1168Y2746D01*
X1115Y2727D01*
X1063Y2706D01*
X1012Y2681D01*
X962Y2654D01*
X914Y2625D01*
X868Y2593D01*
X823Y2559D01*
X781Y2522D01*
X740Y2484D01*
X701Y2443D01*
X664Y2400D01*
X630Y2355D01*
X598Y2309D01*
X569Y2261D01*
X542Y2211D01*
X518Y2161D01*
X496Y2109D01*
X477Y2055D01*
X461Y2002D01*
X448Y1947D01*
X438Y1891D01*
X431Y1836D01*
X426Y1779D01*
X425Y1723D01*
X426Y1667D01*
X431Y1611D01*
X438Y1555D01*
X448Y1503D01*
X444Y1497D01*
X375Y1463D01*
X130Y1707D01*
Y4813D01*
X136Y4817D01*
X154Y4834D01*
X171Y4852D01*
X185Y4872D01*
X197Y4893D01*
X206Y4916D01*
X213Y4940D01*
X217Y4964D01*
X218Y4988D01*
X217Y5013D01*
X213Y5037D01*
X206Y5060D01*
X197Y5083D01*
X185Y5104D01*
X171Y5124D01*
X159Y5138D01*
X154Y5152D01*
Y5218D01*
X159Y5232D01*
X171Y5246D01*
X185Y5266D01*
X197Y5287D01*
X206Y5310D01*
X213Y5333D01*
X217Y5357D01*
X218Y5382D01*
X217Y5406D01*
X213Y5430D01*
X206Y5454D01*
X197Y5477D01*
X185Y5498D01*
X171Y5518D01*
X159Y5531D01*
X154Y5546D01*
Y5612D01*
X159Y5626D01*
X171Y5639D01*
X185Y5659D01*
X197Y5681D01*
X206Y5703D01*
X213Y5727D01*
X217Y5751D01*
X218Y5776D01*
X217Y5800D01*
X213Y5824D01*
X206Y5848D01*
X197Y5870D01*
X185Y5892D01*
X171Y5912D01*
X154Y5930D01*
X136Y5946D01*
X130Y5951D01*
Y13358D01*
X136Y13362D01*
X154Y13379D01*
X171Y13397D01*
X185Y13417D01*
X197Y13438D01*
X206Y13461D01*
X213Y13484D01*
X217Y13509D01*
X218Y13533D01*
X217Y13558D01*
X213Y13582D01*
X206Y13605D01*
X197Y13628D01*
X185Y13649D01*
X171Y13669D01*
X159Y13682D01*
X154Y13697D01*
Y13763D01*
X159Y13777D01*
X171Y13791D01*
X185Y13811D01*
X197Y13832D01*
X206Y13855D01*
X213Y13878D01*
X217Y13902D01*
X218Y13927D01*
X217Y13951D01*
X213Y13975D01*
X206Y13999D01*
X197Y14022D01*
X185Y14043D01*
X171Y14063D01*
X159Y14076D01*
X154Y14091D01*
Y14157D01*
X159Y14171D01*
X171Y14184D01*
X185Y14204D01*
X197Y14226D01*
X206Y14248D01*
X213Y14272D01*
X217Y14296D01*
X218Y14320D01*
X217Y14345D01*
X213Y14369D01*
X206Y14393D01*
X197Y14415D01*
X185Y14437D01*
X171Y14457D01*
X154Y14475D01*
X136Y14491D01*
X130Y14495D01*
Y20739D01*
X1692Y22301D01*
X12551D01*
X12558Y22287D01*
X12573Y22267D01*
X12589Y22249D01*
X12607Y22233D01*
X12627Y22218D01*
X12649Y22207D01*
X12671Y22197D01*
X12695Y22190D01*
X12719Y22186D01*
X12743Y22185D01*
X12768Y22186D01*
X12792Y22190D01*
X12815Y22197D01*
X12838Y22207D01*
X12860Y22218D01*
X12880Y22233D01*
X12888Y22240D01*
X12914Y22249D01*
X12967D01*
X12993Y22240D01*
X13001Y22233D01*
X13021Y22218D01*
X13042Y22207D01*
X13065Y22197D01*
X13088Y22190D01*
X13113Y22186D01*
X13137Y22185D01*
X13161Y22186D01*
X13186Y22190D01*
X13209Y22197D01*
X13232Y22207D01*
X13253Y22218D01*
X13273Y22233D01*
X13281Y22240D01*
X13307Y22249D01*
X13360D01*
X13386Y22240D01*
X13395Y22233D01*
X13414Y22218D01*
X13436Y22207D01*
X13459Y22197D01*
X13482Y22190D01*
X13506Y22186D01*
X13531Y22185D01*
X13555Y22186D01*
X13579Y22190D01*
X13603Y22197D01*
X13626Y22207D01*
X13647Y22218D01*
X13667Y22233D01*
X13685Y22249D01*
X13702Y22267D01*
X13716Y22287D01*
X13723Y22301D01*
X20638D01*
X21870Y21069D01*
D02*
G37*
%LPC*%
G36*
X21000Y20944D02*
X20975Y20942D01*
X20951Y20938D01*
X20927Y20931D01*
X20904Y20922D01*
X20883Y20910D01*
X20863Y20896D01*
X20844Y20879D01*
X20828Y20861D01*
X20813Y20840D01*
X20801Y20819D01*
X20792Y20796D01*
X20785Y20772D01*
X20781Y20748D01*
X20780Y20723D01*
X20781Y20699D01*
X20785Y20674D01*
X20792Y20650D01*
X20801Y20628D01*
X20813Y20606D01*
X20828Y20586D01*
X20844Y20567D01*
X20863Y20551D01*
X20883Y20537D01*
X20904Y20525D01*
X20927Y20515D01*
X20951Y20508D01*
X20975Y20504D01*
X21000Y20503D01*
X21025Y20504D01*
X21049Y20508D01*
X21073Y20515D01*
X21096Y20525D01*
X21117Y20537D01*
X21137Y20551D01*
X21156Y20567D01*
X21172Y20586D01*
X21187Y20606D01*
X21199Y20628D01*
X21208Y20650D01*
X21215Y20674D01*
X21219Y20699D01*
X21220Y20723D01*
X21219Y20748D01*
X21215Y20772D01*
X21208Y20796D01*
X21199Y20819D01*
X21187Y20840D01*
X21172Y20861D01*
X21156Y20879D01*
X21137Y20896D01*
X21117Y20910D01*
X21096Y20922D01*
X21073Y20931D01*
X21049Y20938D01*
X21025Y20942D01*
X21000Y20944D01*
D02*
G37*
G36*
X20000D02*
X19975Y20942D01*
X19951Y20938D01*
X19927Y20931D01*
X19904Y20922D01*
X19883Y20910D01*
X19863Y20896D01*
X19844Y20879D01*
X19828Y20861D01*
X19813Y20840D01*
X19801Y20819D01*
X19792Y20796D01*
X19785Y20772D01*
X19781Y20748D01*
X19780Y20723D01*
X19781Y20699D01*
X19785Y20674D01*
X19792Y20650D01*
X19801Y20628D01*
X19813Y20606D01*
X19828Y20586D01*
X19844Y20567D01*
X19863Y20551D01*
X19883Y20537D01*
X19904Y20525D01*
X19927Y20515D01*
X19951Y20508D01*
X19975Y20504D01*
X20000Y20503D01*
X20025Y20504D01*
X20049Y20508D01*
X20073Y20515D01*
X20096Y20525D01*
X20117Y20537D01*
X20137Y20551D01*
X20156Y20567D01*
X20172Y20586D01*
X20187Y20606D01*
X20199Y20628D01*
X20208Y20650D01*
X20215Y20674D01*
X20219Y20699D01*
X20220Y20723D01*
X20219Y20748D01*
X20215Y20772D01*
X20208Y20796D01*
X20199Y20819D01*
X20187Y20840D01*
X20172Y20861D01*
X20156Y20879D01*
X20137Y20896D01*
X20117Y20910D01*
X20096Y20922D01*
X20073Y20931D01*
X20049Y20938D01*
X20025Y20942D01*
X20000Y20944D01*
D02*
G37*
G36*
X19000D02*
X18975Y20942D01*
X18951Y20938D01*
X18927Y20931D01*
X18904Y20922D01*
X18883Y20910D01*
X18863Y20896D01*
X18844Y20879D01*
X18828Y20861D01*
X18813Y20840D01*
X18801Y20819D01*
X18792Y20796D01*
X18785Y20772D01*
X18781Y20748D01*
X18780Y20723D01*
X18781Y20699D01*
X18785Y20674D01*
X18792Y20650D01*
X18801Y20628D01*
X18813Y20606D01*
X18828Y20586D01*
X18844Y20567D01*
X18863Y20551D01*
X18883Y20537D01*
X18904Y20525D01*
X18927Y20515D01*
X18951Y20508D01*
X18975Y20504D01*
X19000Y20503D01*
X19025Y20504D01*
X19049Y20508D01*
X19073Y20515D01*
X19096Y20525D01*
X19117Y20537D01*
X19137Y20551D01*
X19156Y20567D01*
X19172Y20586D01*
X19187Y20606D01*
X19199Y20628D01*
X19208Y20650D01*
X19215Y20674D01*
X19219Y20699D01*
X19220Y20723D01*
X19219Y20748D01*
X19215Y20772D01*
X19208Y20796D01*
X19199Y20819D01*
X19187Y20840D01*
X19172Y20861D01*
X19156Y20879D01*
X19137Y20896D01*
X19117Y20910D01*
X19096Y20922D01*
X19073Y20931D01*
X19049Y20938D01*
X19025Y20942D01*
X19000Y20944D01*
D02*
G37*
G36*
X18000D02*
X17975Y20942D01*
X17951Y20938D01*
X17927Y20931D01*
X17904Y20922D01*
X17883Y20910D01*
X17863Y20896D01*
X17844Y20879D01*
X17828Y20861D01*
X17813Y20840D01*
X17801Y20819D01*
X17792Y20796D01*
X17785Y20772D01*
X17781Y20748D01*
X17780Y20723D01*
X17781Y20699D01*
X17785Y20674D01*
X17792Y20650D01*
X17801Y20628D01*
X17813Y20606D01*
X17828Y20586D01*
X17844Y20567D01*
X17863Y20551D01*
X17883Y20537D01*
X17904Y20525D01*
X17927Y20515D01*
X17951Y20508D01*
X17975Y20504D01*
X18000Y20503D01*
X18025Y20504D01*
X18049Y20508D01*
X18073Y20515D01*
X18096Y20525D01*
X18117Y20537D01*
X18137Y20551D01*
X18156Y20567D01*
X18172Y20586D01*
X18187Y20606D01*
X18199Y20628D01*
X18208Y20650D01*
X18215Y20674D01*
X18219Y20699D01*
X18220Y20723D01*
X18219Y20748D01*
X18215Y20772D01*
X18208Y20796D01*
X18199Y20819D01*
X18187Y20840D01*
X18172Y20861D01*
X18156Y20879D01*
X18137Y20896D01*
X18117Y20910D01*
X18096Y20922D01*
X18073Y20931D01*
X18049Y20938D01*
X18025Y20942D01*
X18000Y20944D01*
D02*
G37*
G36*
X17000D02*
X16975Y20942D01*
X16951Y20938D01*
X16927Y20931D01*
X16904Y20922D01*
X16883Y20910D01*
X16863Y20896D01*
X16844Y20879D01*
X16828Y20861D01*
X16813Y20840D01*
X16801Y20819D01*
X16792Y20796D01*
X16785Y20772D01*
X16781Y20748D01*
X16780Y20723D01*
X16781Y20699D01*
X16785Y20674D01*
X16792Y20650D01*
X16801Y20628D01*
X16813Y20606D01*
X16828Y20586D01*
X16844Y20567D01*
X16863Y20551D01*
X16883Y20537D01*
X16904Y20525D01*
X16927Y20515D01*
X16951Y20508D01*
X16975Y20504D01*
X17000Y20503D01*
X17025Y20504D01*
X17049Y20508D01*
X17073Y20515D01*
X17096Y20525D01*
X17117Y20537D01*
X17137Y20551D01*
X17156Y20567D01*
X17172Y20586D01*
X17187Y20606D01*
X17199Y20628D01*
X17208Y20650D01*
X17215Y20674D01*
X17219Y20699D01*
X17220Y20723D01*
X17219Y20748D01*
X17215Y20772D01*
X17208Y20796D01*
X17199Y20819D01*
X17187Y20840D01*
X17172Y20861D01*
X17156Y20879D01*
X17137Y20896D01*
X17117Y20910D01*
X17096Y20922D01*
X17073Y20931D01*
X17049Y20938D01*
X17025Y20942D01*
X17000Y20944D01*
D02*
G37*
G36*
X16000D02*
X15975Y20942D01*
X15951Y20938D01*
X15927Y20931D01*
X15904Y20922D01*
X15883Y20910D01*
X15863Y20896D01*
X15844Y20879D01*
X15828Y20861D01*
X15813Y20840D01*
X15801Y20819D01*
X15792Y20796D01*
X15785Y20772D01*
X15781Y20748D01*
X15780Y20723D01*
X15781Y20699D01*
X15785Y20674D01*
X15792Y20650D01*
X15801Y20628D01*
X15813Y20606D01*
X15828Y20586D01*
X15844Y20567D01*
X15863Y20551D01*
X15883Y20537D01*
X15904Y20525D01*
X15927Y20515D01*
X15951Y20508D01*
X15975Y20504D01*
X16000Y20503D01*
X16025Y20504D01*
X16049Y20508D01*
X16073Y20515D01*
X16096Y20525D01*
X16117Y20537D01*
X16137Y20551D01*
X16156Y20567D01*
X16172Y20586D01*
X16187Y20606D01*
X16199Y20628D01*
X16208Y20650D01*
X16215Y20674D01*
X16219Y20699D01*
X16220Y20723D01*
X16219Y20748D01*
X16215Y20772D01*
X16208Y20796D01*
X16199Y20819D01*
X16187Y20840D01*
X16172Y20861D01*
X16156Y20879D01*
X16137Y20896D01*
X16117Y20910D01*
X16096Y20922D01*
X16073Y20931D01*
X16049Y20938D01*
X16025Y20942D01*
X16000Y20944D01*
D02*
G37*
G36*
X15000D02*
X14975Y20942D01*
X14951Y20938D01*
X14927Y20931D01*
X14904Y20922D01*
X14883Y20910D01*
X14863Y20896D01*
X14844Y20879D01*
X14828Y20861D01*
X14813Y20840D01*
X14801Y20819D01*
X14792Y20796D01*
X14785Y20772D01*
X14781Y20748D01*
X14780Y20723D01*
X14781Y20699D01*
X14785Y20674D01*
X14792Y20650D01*
X14801Y20628D01*
X14813Y20606D01*
X14828Y20586D01*
X14844Y20567D01*
X14863Y20551D01*
X14883Y20537D01*
X14904Y20525D01*
X14927Y20515D01*
X14951Y20508D01*
X14975Y20504D01*
X15000Y20503D01*
X15025Y20504D01*
X15049Y20508D01*
X15073Y20515D01*
X15096Y20525D01*
X15117Y20537D01*
X15137Y20551D01*
X15156Y20567D01*
X15172Y20586D01*
X15187Y20606D01*
X15199Y20628D01*
X15208Y20650D01*
X15215Y20674D01*
X15219Y20699D01*
X15220Y20723D01*
X15219Y20748D01*
X15215Y20772D01*
X15208Y20796D01*
X15199Y20819D01*
X15187Y20840D01*
X15172Y20861D01*
X15156Y20879D01*
X15137Y20896D01*
X15117Y20910D01*
X15096Y20922D01*
X15073Y20931D01*
X15049Y20938D01*
X15025Y20942D01*
X15000Y20944D01*
D02*
G37*
G36*
X14000D02*
X13975Y20942D01*
X13951Y20938D01*
X13927Y20931D01*
X13904Y20922D01*
X13883Y20910D01*
X13863Y20896D01*
X13844Y20879D01*
X13828Y20861D01*
X13813Y20840D01*
X13801Y20819D01*
X13792Y20796D01*
X13785Y20772D01*
X13781Y20748D01*
X13780Y20723D01*
X13781Y20699D01*
X13785Y20674D01*
X13792Y20650D01*
X13801Y20628D01*
X13813Y20606D01*
X13828Y20586D01*
X13844Y20567D01*
X13863Y20551D01*
X13883Y20537D01*
X13904Y20525D01*
X13927Y20515D01*
X13951Y20508D01*
X13975Y20504D01*
X14000Y20503D01*
X14025Y20504D01*
X14049Y20508D01*
X14073Y20515D01*
X14096Y20525D01*
X14117Y20537D01*
X14137Y20551D01*
X14156Y20567D01*
X14172Y20586D01*
X14187Y20606D01*
X14199Y20628D01*
X14208Y20650D01*
X14215Y20674D01*
X14219Y20699D01*
X14220Y20723D01*
X14219Y20748D01*
X14215Y20772D01*
X14208Y20796D01*
X14199Y20819D01*
X14187Y20840D01*
X14172Y20861D01*
X14156Y20879D01*
X14137Y20896D01*
X14117Y20910D01*
X14096Y20922D01*
X14073Y20931D01*
X14049Y20938D01*
X14025Y20942D01*
X14000Y20944D01*
D02*
G37*
G36*
X12400D02*
X12375Y20942D01*
X12351Y20938D01*
X12327Y20931D01*
X12304Y20922D01*
X12283Y20910D01*
X12263Y20896D01*
X12244Y20879D01*
X12228Y20861D01*
X12213Y20840D01*
X12201Y20819D01*
X12192Y20796D01*
X12185Y20772D01*
X12181Y20748D01*
X12180Y20723D01*
X12181Y20699D01*
X12185Y20674D01*
X12192Y20650D01*
X12201Y20628D01*
X12213Y20606D01*
X12228Y20586D01*
X12244Y20567D01*
X12263Y20551D01*
X12283Y20537D01*
X12304Y20525D01*
X12327Y20515D01*
X12351Y20508D01*
X12375Y20504D01*
X12400Y20503D01*
X12425Y20504D01*
X12449Y20508D01*
X12473Y20515D01*
X12496Y20525D01*
X12517Y20537D01*
X12537Y20551D01*
X12556Y20567D01*
X12572Y20586D01*
X12587Y20606D01*
X12599Y20628D01*
X12608Y20650D01*
X12615Y20674D01*
X12619Y20699D01*
X12620Y20723D01*
X12619Y20748D01*
X12615Y20772D01*
X12608Y20796D01*
X12599Y20819D01*
X12587Y20840D01*
X12572Y20861D01*
X12556Y20879D01*
X12537Y20896D01*
X12517Y20910D01*
X12496Y20922D01*
X12473Y20931D01*
X12449Y20938D01*
X12425Y20942D01*
X12400Y20944D01*
D02*
G37*
G36*
X11400D02*
X11375Y20942D01*
X11351Y20938D01*
X11327Y20931D01*
X11304Y20922D01*
X11283Y20910D01*
X11263Y20896D01*
X11244Y20879D01*
X11228Y20861D01*
X11213Y20840D01*
X11201Y20819D01*
X11192Y20796D01*
X11185Y20772D01*
X11181Y20748D01*
X11180Y20723D01*
X11181Y20699D01*
X11185Y20674D01*
X11192Y20650D01*
X11201Y20628D01*
X11213Y20606D01*
X11228Y20586D01*
X11244Y20567D01*
X11263Y20551D01*
X11283Y20537D01*
X11304Y20525D01*
X11327Y20515D01*
X11351Y20508D01*
X11375Y20504D01*
X11400Y20503D01*
X11425Y20504D01*
X11449Y20508D01*
X11473Y20515D01*
X11496Y20525D01*
X11517Y20537D01*
X11537Y20551D01*
X11556Y20567D01*
X11572Y20586D01*
X11587Y20606D01*
X11599Y20628D01*
X11608Y20650D01*
X11615Y20674D01*
X11619Y20699D01*
X11620Y20723D01*
X11619Y20748D01*
X11615Y20772D01*
X11608Y20796D01*
X11599Y20819D01*
X11587Y20840D01*
X11572Y20861D01*
X11556Y20879D01*
X11537Y20896D01*
X11517Y20910D01*
X11496Y20922D01*
X11473Y20931D01*
X11449Y20938D01*
X11425Y20942D01*
X11400Y20944D01*
D02*
G37*
G36*
X10400D02*
X10375Y20942D01*
X10351Y20938D01*
X10327Y20931D01*
X10304Y20922D01*
X10283Y20910D01*
X10263Y20896D01*
X10244Y20879D01*
X10228Y20861D01*
X10213Y20840D01*
X10201Y20819D01*
X10192Y20796D01*
X10185Y20772D01*
X10181Y20748D01*
X10180Y20723D01*
X10181Y20699D01*
X10185Y20674D01*
X10192Y20650D01*
X10201Y20628D01*
X10213Y20606D01*
X10228Y20586D01*
X10244Y20567D01*
X10263Y20551D01*
X10283Y20537D01*
X10304Y20525D01*
X10327Y20515D01*
X10351Y20508D01*
X10375Y20504D01*
X10400Y20503D01*
X10425Y20504D01*
X10449Y20508D01*
X10473Y20515D01*
X10496Y20525D01*
X10517Y20537D01*
X10537Y20551D01*
X10556Y20567D01*
X10572Y20586D01*
X10587Y20606D01*
X10599Y20628D01*
X10608Y20650D01*
X10615Y20674D01*
X10619Y20699D01*
X10620Y20723D01*
X10619Y20748D01*
X10615Y20772D01*
X10608Y20796D01*
X10599Y20819D01*
X10587Y20840D01*
X10572Y20861D01*
X10556Y20879D01*
X10537Y20896D01*
X10517Y20910D01*
X10496Y20922D01*
X10473Y20931D01*
X10449Y20938D01*
X10425Y20942D01*
X10400Y20944D01*
D02*
G37*
G36*
X9400D02*
X9375Y20942D01*
X9351Y20938D01*
X9327Y20931D01*
X9304Y20922D01*
X9283Y20910D01*
X9263Y20896D01*
X9244Y20879D01*
X9228Y20861D01*
X9213Y20840D01*
X9201Y20819D01*
X9192Y20796D01*
X9185Y20772D01*
X9181Y20748D01*
X9180Y20723D01*
X9181Y20699D01*
X9185Y20674D01*
X9192Y20650D01*
X9201Y20628D01*
X9213Y20606D01*
X9228Y20586D01*
X9244Y20567D01*
X9263Y20551D01*
X9283Y20537D01*
X9304Y20525D01*
X9327Y20515D01*
X9351Y20508D01*
X9375Y20504D01*
X9400Y20503D01*
X9425Y20504D01*
X9449Y20508D01*
X9473Y20515D01*
X9496Y20525D01*
X9517Y20537D01*
X9537Y20551D01*
X9556Y20567D01*
X9572Y20586D01*
X9587Y20606D01*
X9599Y20628D01*
X9608Y20650D01*
X9615Y20674D01*
X9619Y20699D01*
X9620Y20723D01*
X9619Y20748D01*
X9615Y20772D01*
X9608Y20796D01*
X9599Y20819D01*
X9587Y20840D01*
X9572Y20861D01*
X9556Y20879D01*
X9537Y20896D01*
X9517Y20910D01*
X9496Y20922D01*
X9473Y20931D01*
X9449Y20938D01*
X9425Y20942D01*
X9400Y20944D01*
D02*
G37*
G36*
X8400D02*
X8375Y20942D01*
X8351Y20938D01*
X8327Y20931D01*
X8304Y20922D01*
X8283Y20910D01*
X8263Y20896D01*
X8244Y20879D01*
X8228Y20861D01*
X8213Y20840D01*
X8201Y20819D01*
X8192Y20796D01*
X8185Y20772D01*
X8181Y20748D01*
X8180Y20723D01*
X8181Y20699D01*
X8185Y20674D01*
X8192Y20650D01*
X8201Y20628D01*
X8213Y20606D01*
X8228Y20586D01*
X8244Y20567D01*
X8263Y20551D01*
X8283Y20537D01*
X8304Y20525D01*
X8327Y20515D01*
X8351Y20508D01*
X8375Y20504D01*
X8400Y20503D01*
X8425Y20504D01*
X8449Y20508D01*
X8473Y20515D01*
X8496Y20525D01*
X8517Y20537D01*
X8537Y20551D01*
X8556Y20567D01*
X8572Y20586D01*
X8587Y20606D01*
X8599Y20628D01*
X8608Y20650D01*
X8615Y20674D01*
X8619Y20699D01*
X8620Y20723D01*
X8619Y20748D01*
X8615Y20772D01*
X8608Y20796D01*
X8599Y20819D01*
X8587Y20840D01*
X8572Y20861D01*
X8556Y20879D01*
X8537Y20896D01*
X8517Y20910D01*
X8496Y20922D01*
X8473Y20931D01*
X8449Y20938D01*
X8425Y20942D01*
X8400Y20944D01*
D02*
G37*
G36*
X7400D02*
X7375Y20942D01*
X7351Y20938D01*
X7327Y20931D01*
X7304Y20922D01*
X7283Y20910D01*
X7263Y20896D01*
X7244Y20879D01*
X7228Y20861D01*
X7213Y20840D01*
X7201Y20819D01*
X7192Y20796D01*
X7185Y20772D01*
X7181Y20748D01*
X7180Y20723D01*
X7181Y20699D01*
X7185Y20674D01*
X7192Y20650D01*
X7201Y20628D01*
X7213Y20606D01*
X7228Y20586D01*
X7244Y20567D01*
X7263Y20551D01*
X7283Y20537D01*
X7304Y20525D01*
X7327Y20515D01*
X7351Y20508D01*
X7375Y20504D01*
X7400Y20503D01*
X7425Y20504D01*
X7449Y20508D01*
X7473Y20515D01*
X7496Y20525D01*
X7517Y20537D01*
X7537Y20551D01*
X7556Y20567D01*
X7572Y20586D01*
X7587Y20606D01*
X7599Y20628D01*
X7608Y20650D01*
X7615Y20674D01*
X7619Y20699D01*
X7620Y20723D01*
X7619Y20748D01*
X7615Y20772D01*
X7608Y20796D01*
X7599Y20819D01*
X7587Y20840D01*
X7572Y20861D01*
X7556Y20879D01*
X7537Y20896D01*
X7517Y20910D01*
X7496Y20922D01*
X7473Y20931D01*
X7449Y20938D01*
X7425Y20942D01*
X7400Y20944D01*
D02*
G37*
G36*
X5400D02*
X5375Y20942D01*
X5351Y20938D01*
X5327Y20931D01*
X5304Y20922D01*
X5283Y20910D01*
X5263Y20896D01*
X5244Y20879D01*
X5228Y20861D01*
X5213Y20840D01*
X5201Y20819D01*
X5192Y20796D01*
X5185Y20772D01*
X5181Y20748D01*
X5180Y20723D01*
X5181Y20699D01*
X5185Y20674D01*
X5192Y20650D01*
X5201Y20628D01*
X5213Y20606D01*
X5228Y20586D01*
X5244Y20567D01*
X5263Y20551D01*
X5283Y20537D01*
X5304Y20525D01*
X5327Y20515D01*
X5351Y20508D01*
X5375Y20504D01*
X5400Y20503D01*
X5425Y20504D01*
X5449Y20508D01*
X5473Y20515D01*
X5496Y20525D01*
X5517Y20537D01*
X5537Y20551D01*
X5556Y20567D01*
X5572Y20586D01*
X5587Y20606D01*
X5599Y20628D01*
X5608Y20650D01*
X5615Y20674D01*
X5619Y20699D01*
X5620Y20723D01*
X5619Y20748D01*
X5615Y20772D01*
X5608Y20796D01*
X5599Y20819D01*
X5587Y20840D01*
X5572Y20861D01*
X5556Y20879D01*
X5537Y20896D01*
X5517Y20910D01*
X5496Y20922D01*
X5473Y20931D01*
X5449Y20938D01*
X5425Y20942D01*
X5400Y20944D01*
D02*
G37*
G36*
X4400D02*
X4375Y20942D01*
X4351Y20938D01*
X4327Y20931D01*
X4304Y20922D01*
X4283Y20910D01*
X4263Y20896D01*
X4244Y20879D01*
X4228Y20861D01*
X4213Y20840D01*
X4201Y20819D01*
X4192Y20796D01*
X4185Y20772D01*
X4181Y20748D01*
X4180Y20723D01*
X4181Y20699D01*
X4185Y20674D01*
X4192Y20650D01*
X4201Y20628D01*
X4213Y20606D01*
X4228Y20586D01*
X4244Y20567D01*
X4263Y20551D01*
X4283Y20537D01*
X4304Y20525D01*
X4327Y20515D01*
X4351Y20508D01*
X4375Y20504D01*
X4400Y20503D01*
X4425Y20504D01*
X4449Y20508D01*
X4473Y20515D01*
X4496Y20525D01*
X4517Y20537D01*
X4537Y20551D01*
X4556Y20567D01*
X4572Y20586D01*
X4587Y20606D01*
X4599Y20628D01*
X4608Y20650D01*
X4615Y20674D01*
X4619Y20699D01*
X4620Y20723D01*
X4619Y20748D01*
X4615Y20772D01*
X4608Y20796D01*
X4599Y20819D01*
X4587Y20840D01*
X4572Y20861D01*
X4556Y20879D01*
X4537Y20896D01*
X4517Y20910D01*
X4496Y20922D01*
X4473Y20931D01*
X4449Y20938D01*
X4425Y20942D01*
X4400Y20944D01*
D02*
G37*
G36*
X3400D02*
X3375Y20942D01*
X3351Y20938D01*
X3327Y20931D01*
X3304Y20922D01*
X3283Y20910D01*
X3263Y20896D01*
X3244Y20879D01*
X3228Y20861D01*
X3213Y20840D01*
X3201Y20819D01*
X3192Y20796D01*
X3185Y20772D01*
X3181Y20748D01*
X3180Y20723D01*
X3181Y20699D01*
X3185Y20674D01*
X3192Y20650D01*
X3201Y20628D01*
X3213Y20606D01*
X3228Y20586D01*
X3244Y20567D01*
X3263Y20551D01*
X3283Y20537D01*
X3304Y20525D01*
X3327Y20515D01*
X3351Y20508D01*
X3375Y20504D01*
X3400Y20503D01*
X3425Y20504D01*
X3449Y20508D01*
X3473Y20515D01*
X3496Y20525D01*
X3517Y20537D01*
X3537Y20551D01*
X3556Y20567D01*
X3572Y20586D01*
X3587Y20606D01*
X3599Y20628D01*
X3608Y20650D01*
X3615Y20674D01*
X3619Y20699D01*
X3620Y20723D01*
X3619Y20748D01*
X3615Y20772D01*
X3608Y20796D01*
X3599Y20819D01*
X3587Y20840D01*
X3572Y20861D01*
X3556Y20879D01*
X3537Y20896D01*
X3517Y20910D01*
X3496Y20922D01*
X3473Y20931D01*
X3449Y20938D01*
X3425Y20942D01*
X3400Y20944D01*
D02*
G37*
G36*
X2000Y21798D02*
X1944Y21797D01*
X1888Y21793D01*
X1832Y21785D01*
X1776Y21775D01*
X1722Y21762D01*
X1668Y21746D01*
X1615Y21727D01*
X1563Y21706D01*
X1512Y21681D01*
X1462Y21654D01*
X1414Y21625D01*
X1368Y21593D01*
X1323Y21559D01*
X1281Y21522D01*
X1240Y21484D01*
X1201Y21443D01*
X1164Y21400D01*
X1130Y21355D01*
X1098Y21309D01*
X1069Y21261D01*
X1042Y21211D01*
X1018Y21161D01*
X996Y21109D01*
X977Y21055D01*
X961Y21002D01*
X948Y20947D01*
X938Y20891D01*
X931Y20836D01*
X926Y20780D01*
X925Y20723D01*
X926Y20667D01*
X931Y20611D01*
X938Y20555D01*
X948Y20500D01*
X961Y20445D01*
X977Y20391D01*
X996Y20338D01*
X1018Y20286D01*
X1042Y20235D01*
X1069Y20186D01*
X1098Y20138D01*
X1130Y20091D01*
X1164Y20047D01*
X1201Y20004D01*
X1240Y19963D01*
X1281Y19924D01*
X1323Y19888D01*
X1368Y19853D01*
X1414Y19821D01*
X1462Y19792D01*
X1512Y19765D01*
X1563Y19741D01*
X1615Y19719D01*
X1668Y19701D01*
X1722Y19685D01*
X1776Y19671D01*
X1832Y19661D01*
X1888Y19654D01*
X1944Y19649D01*
X2000Y19648D01*
X2056Y19649D01*
X2112Y19654D01*
X2168Y19661D01*
X2224Y19671D01*
X2278Y19685D01*
X2332Y19701D01*
X2385Y19719D01*
X2437Y19741D01*
X2488Y19765D01*
X2538Y19792D01*
X2586Y19821D01*
X2632Y19853D01*
X2677Y19888D01*
X2719Y19924D01*
X2760Y19963D01*
X2799Y20004D01*
X2836Y20047D01*
X2870Y20091D01*
X2902Y20138D01*
X2931Y20186D01*
X2958Y20235D01*
X2982Y20286D01*
X3004Y20338D01*
X3023Y20391D01*
X3039Y20445D01*
X3052Y20500D01*
X3062Y20555D01*
X3069Y20611D01*
X3074Y20667D01*
X3075Y20723D01*
X3074Y20780D01*
X3069Y20836D01*
X3062Y20891D01*
X3052Y20947D01*
X3039Y21002D01*
X3023Y21055D01*
X3004Y21109D01*
X2982Y21161D01*
X2958Y21211D01*
X2931Y21261D01*
X2902Y21309D01*
X2870Y21355D01*
X2836Y21400D01*
X2799Y21443D01*
X2760Y21484D01*
X2719Y21522D01*
X2677Y21559D01*
X2632Y21593D01*
X2586Y21625D01*
X2538Y21654D01*
X2488Y21681D01*
X2437Y21706D01*
X2385Y21727D01*
X2332Y21746D01*
X2278Y21762D01*
X2224Y21775D01*
X2168Y21785D01*
X2112Y21793D01*
X2056Y21797D01*
X2000Y21798D01*
D02*
G37*
G36*
X16531Y19987D02*
X16507Y19986D01*
X16482Y19981D01*
X16459Y19975D01*
X16436Y19965D01*
X16414Y19953D01*
X16394Y19939D01*
X16376Y19922D01*
X16359Y19904D01*
X16345Y19884D01*
X16333Y19862D01*
X16323Y19839D01*
X16317Y19816D01*
X16312Y19791D01*
X16311Y19767D01*
X16312Y19742D01*
X16317Y19717D01*
X16323Y19694D01*
X16333Y19671D01*
X16345Y19649D01*
X16359Y19629D01*
X16376Y19611D01*
X16394Y19594D01*
X16414Y19580D01*
X16436Y19568D01*
X16459Y19558D01*
X16482Y19552D01*
X16507Y19547D01*
X16531Y19546D01*
X16556Y19547D01*
X16581Y19552D01*
X16604Y19558D01*
X16627Y19568D01*
X16649Y19580D01*
X16669Y19594D01*
X16687Y19611D01*
X16704Y19629D01*
X16718Y19649D01*
X16730Y19671D01*
X16740Y19694D01*
X16746Y19717D01*
X16751Y19742D01*
X16752Y19767D01*
X16751Y19791D01*
X16746Y19816D01*
X16740Y19839D01*
X16730Y19862D01*
X16718Y19884D01*
X16704Y19904D01*
X16687Y19922D01*
X16669Y19939D01*
X16649Y19953D01*
X16627Y19965D01*
X16604Y19975D01*
X16581Y19981D01*
X16556Y19986D01*
X16531Y19987D01*
D02*
G37*
G36*
X14006Y18823D02*
X13981Y18821D01*
X13957Y18817D01*
X13933Y18810D01*
X13910Y18801D01*
X13889Y18789D01*
X13868Y18775D01*
X13856Y18763D01*
X13843Y18775D01*
X13823Y18789D01*
X13801Y18801D01*
X13779Y18810D01*
X13755Y18817D01*
X13730Y18821D01*
X13706Y18823D01*
X13681Y18821D01*
X13657Y18817D01*
X13633Y18810D01*
X13610Y18801D01*
X13588Y18789D01*
X13568Y18775D01*
X13550Y18758D01*
X13533Y18740D01*
X13519Y18720D01*
X13507Y18698D01*
X13498Y18675D01*
X13491Y18651D01*
X13487Y18627D01*
X13485Y18602D01*
X13487Y18578D01*
X13491Y18553D01*
X13498Y18530D01*
X13507Y18507D01*
X13519Y18485D01*
X13533Y18465D01*
X13550Y18447D01*
X13568Y18430D01*
X13588Y18416D01*
X13610Y18404D01*
X13633Y18394D01*
X13657Y18387D01*
X13681Y18383D01*
X13706Y18382D01*
X13730Y18383D01*
X13755Y18387D01*
X13779Y18394D01*
X13801Y18404D01*
X13823Y18416D01*
X13843Y18430D01*
X13856Y18441D01*
X13868Y18430D01*
X13889Y18416D01*
X13910Y18404D01*
X13933Y18394D01*
X13957Y18387D01*
X13981Y18383D01*
X14006Y18382D01*
X14031Y18383D01*
X14055Y18387D01*
X14079Y18394D01*
X14102Y18404D01*
X14123Y18416D01*
X14143Y18430D01*
X14162Y18447D01*
X14178Y18465D01*
X14193Y18485D01*
X14204Y18507D01*
X14214Y18530D01*
X14221Y18553D01*
X14225Y18578D01*
X14226Y18602D01*
X14225Y18627D01*
X14221Y18651D01*
X14214Y18675D01*
X14204Y18698D01*
X14193Y18720D01*
X14178Y18740D01*
X14162Y18758D01*
X14143Y18775D01*
X14123Y18789D01*
X14102Y18801D01*
X14079Y18810D01*
X14055Y18817D01*
X14031Y18821D01*
X14006Y18823D01*
D02*
G37*
G36*
X13081D02*
X13056Y18821D01*
X13032Y18817D01*
X13008Y18810D01*
X12985Y18801D01*
X12963Y18789D01*
X12943Y18775D01*
X12911Y18758D01*
X12872D01*
X12840Y18775D01*
X12820Y18789D01*
X12798Y18801D01*
X12776Y18810D01*
X12752Y18817D01*
X12727Y18821D01*
X12703Y18823D01*
X12678Y18821D01*
X12654Y18817D01*
X12630Y18810D01*
X12607Y18801D01*
X12585Y18789D01*
X12565Y18775D01*
X12547Y18758D01*
X12524D01*
X12506Y18775D01*
X12485Y18789D01*
X12464Y18801D01*
X12441Y18810D01*
X12417Y18817D01*
X12393Y18821D01*
X12368Y18823D01*
X12343Y18821D01*
X12319Y18817D01*
X12295Y18810D01*
X12272Y18801D01*
X12251Y18789D01*
X12231Y18775D01*
X12212Y18758D01*
X12196Y18740D01*
X12181Y18720D01*
X12170Y18698D01*
X12160Y18675D01*
X12153Y18651D01*
X12149Y18627D01*
X12148Y18602D01*
X12149Y18578D01*
X12153Y18553D01*
X12160Y18530D01*
X12170Y18507D01*
X12181Y18485D01*
X12196Y18465D01*
X12212Y18447D01*
X12231Y18430D01*
X12251Y18416D01*
X12272Y18404D01*
X12295Y18394D01*
X12319Y18387D01*
X12343Y18383D01*
X12368Y18382D01*
X12393Y18383D01*
X12417Y18387D01*
X12441Y18394D01*
X12464Y18404D01*
X12485Y18416D01*
X12506Y18430D01*
X12524Y18447D01*
X12547D01*
X12565Y18430D01*
X12585Y18416D01*
X12607Y18404D01*
X12630Y18394D01*
X12654Y18387D01*
X12678Y18383D01*
X12703Y18382D01*
X12727Y18383D01*
X12752Y18387D01*
X12776Y18394D01*
X12798Y18404D01*
X12820Y18416D01*
X12840Y18430D01*
X12872Y18447D01*
X12911D01*
X12943Y18430D01*
X12963Y18416D01*
X12985Y18404D01*
X13008Y18394D01*
X13032Y18387D01*
X13056Y18383D01*
X13081Y18382D01*
X13105Y18383D01*
X13130Y18387D01*
X13154Y18394D01*
X13176Y18404D01*
X13198Y18416D01*
X13218Y18430D01*
X13237Y18447D01*
X13253Y18465D01*
X13267Y18485D01*
X13279Y18507D01*
X13289Y18530D01*
X13296Y18553D01*
X13300Y18578D01*
X13301Y18602D01*
X13300Y18627D01*
X13296Y18651D01*
X13289Y18675D01*
X13279Y18698D01*
X13267Y18720D01*
X13253Y18740D01*
X13237Y18758D01*
X13218Y18775D01*
X13198Y18789D01*
X13176Y18801D01*
X13154Y18810D01*
X13130Y18817D01*
X13105Y18821D01*
X13081Y18823D01*
D02*
G37*
G36*
X6988Y18842D02*
X6964Y18841D01*
X6939Y18837D01*
X6915Y18830D01*
X6893Y18821D01*
X6871Y18809D01*
X6851Y18794D01*
X6832Y18778D01*
X6816Y18759D01*
X6802Y18739D01*
X6790Y18718D01*
X6780Y18695D01*
X6773Y18671D01*
X6769Y18647D01*
X6768Y18622D01*
X6769Y18597D01*
X6773Y18573D01*
X6780Y18549D01*
X6790Y18526D01*
X6802Y18505D01*
X6816Y18485D01*
X6832Y18466D01*
X6851Y18450D01*
X6871Y18435D01*
X6893Y18423D01*
X6915Y18414D01*
X6939Y18407D01*
X6964Y18403D01*
X6988Y18402D01*
X7013Y18403D01*
X7037Y18407D01*
X7061Y18414D01*
X7084Y18423D01*
X7105Y18435D01*
X7126Y18450D01*
X7144Y18466D01*
X7161Y18485D01*
X7175Y18505D01*
X7187Y18526D01*
X7196Y18549D01*
X7203Y18573D01*
X7207Y18597D01*
X7209Y18622D01*
X7207Y18647D01*
X7203Y18671D01*
X7196Y18695D01*
X7187Y18718D01*
X7175Y18739D01*
X7161Y18759D01*
X7144Y18778D01*
X7126Y18794D01*
X7105Y18809D01*
X7084Y18821D01*
X7061Y18830D01*
X7037Y18837D01*
X7013Y18841D01*
X6988Y18842D01*
D02*
G37*
G36*
X6191D02*
X6166Y18841D01*
X6142Y18837D01*
X6118Y18830D01*
X6095Y18821D01*
X6074Y18809D01*
X6054Y18794D01*
X6035Y18778D01*
X6019Y18759D01*
X6004Y18739D01*
X5992Y18718D01*
X5983Y18695D01*
X5976Y18671D01*
X5972Y18647D01*
X5971Y18622D01*
X5972Y18597D01*
X5976Y18573D01*
X5983Y18549D01*
X5992Y18526D01*
X6004Y18505D01*
X6019Y18485D01*
X6035Y18466D01*
X6054Y18450D01*
X6074Y18435D01*
X6095Y18423D01*
X6118Y18414D01*
X6142Y18407D01*
X6166Y18403D01*
X6191Y18402D01*
X6216Y18403D01*
X6240Y18407D01*
X6264Y18414D01*
X6287Y18423D01*
X6308Y18435D01*
X6328Y18450D01*
X6347Y18466D01*
X6363Y18485D01*
X6378Y18505D01*
X6390Y18526D01*
X6399Y18549D01*
X6406Y18573D01*
X6410Y18597D01*
X6411Y18622D01*
X6410Y18647D01*
X6406Y18671D01*
X6399Y18695D01*
X6390Y18718D01*
X6378Y18739D01*
X6363Y18759D01*
X6347Y18778D01*
X6328Y18794D01*
X6308Y18809D01*
X6287Y18821D01*
X6264Y18830D01*
X6240Y18837D01*
X6216Y18841D01*
X6191Y18842D01*
D02*
G37*
G36*
X11650Y18823D02*
X11625Y18821D01*
X11601Y18817D01*
X11577Y18810D01*
X11554Y18801D01*
X11532Y18789D01*
X11512Y18775D01*
X11494Y18758D01*
X11477Y18740D01*
X11463Y18720D01*
X11451Y18698D01*
X11442Y18675D01*
X11435Y18651D01*
X11431Y18627D01*
X11429Y18602D01*
X11431Y18578D01*
X11435Y18553D01*
X11442Y18530D01*
X11451Y18507D01*
X11463Y18485D01*
X11477Y18465D01*
X11494Y18447D01*
X11512Y18430D01*
X11532Y18416D01*
X11554Y18404D01*
X11577Y18394D01*
X11601Y18387D01*
X11625Y18383D01*
X11650Y18382D01*
X11674Y18383D01*
X11699Y18387D01*
X11722Y18394D01*
X11745Y18404D01*
X11767Y18416D01*
X11787Y18430D01*
X11805Y18447D01*
X11822Y18465D01*
X11836Y18485D01*
X11848Y18507D01*
X11858Y18530D01*
X11865Y18553D01*
X11869Y18578D01*
X11870Y18602D01*
X11869Y18627D01*
X11865Y18651D01*
X11858Y18675D01*
X11848Y18698D01*
X11836Y18720D01*
X11822Y18740D01*
X11805Y18758D01*
X11787Y18775D01*
X11767Y18789D01*
X11745Y18801D01*
X11722Y18810D01*
X11699Y18817D01*
X11674Y18821D01*
X11650Y18823D01*
D02*
G37*
G36*
X5394D02*
X5369Y18821D01*
X5345Y18817D01*
X5321Y18810D01*
X5298Y18801D01*
X5276Y18789D01*
X5256Y18775D01*
X5238Y18758D01*
X5221Y18740D01*
X5207Y18720D01*
X5195Y18698D01*
X5186Y18675D01*
X5179Y18651D01*
X5175Y18627D01*
X5173Y18602D01*
X5175Y18578D01*
X5179Y18553D01*
X5186Y18530D01*
X5195Y18507D01*
X5207Y18485D01*
X5221Y18465D01*
X5238Y18447D01*
X5256Y18430D01*
X5276Y18416D01*
X5298Y18404D01*
X5321Y18394D01*
X5345Y18387D01*
X5369Y18383D01*
X5394Y18382D01*
X5418Y18383D01*
X5443Y18387D01*
X5466Y18394D01*
X5489Y18404D01*
X5511Y18416D01*
X5531Y18430D01*
X5550Y18447D01*
X5566Y18465D01*
X5580Y18485D01*
X5592Y18507D01*
X5602Y18530D01*
X5609Y18553D01*
X5613Y18578D01*
X5614Y18602D01*
X5613Y18627D01*
X5609Y18651D01*
X5602Y18675D01*
X5592Y18698D01*
X5580Y18720D01*
X5566Y18740D01*
X5550Y18758D01*
X5531Y18775D01*
X5511Y18789D01*
X5489Y18801D01*
X5466Y18810D01*
X5443Y18817D01*
X5418Y18821D01*
X5394Y18823D01*
D02*
G37*
G36*
X8313Y18796D02*
X8288Y18795D01*
X8264Y18790D01*
X8240Y18784D01*
X8217Y18774D01*
X8196Y18762D01*
X8176Y18748D01*
X8157Y18731D01*
X8141Y18713D01*
X8126Y18693D01*
X8114Y18671D01*
X8105Y18648D01*
X8098Y18625D01*
X8094Y18600D01*
X8093Y18576D01*
X8094Y18551D01*
X8098Y18527D01*
X8105Y18503D01*
X8114Y18480D01*
X8126Y18458D01*
X8141Y18438D01*
X8157Y18420D01*
X8176Y18403D01*
X8196Y18389D01*
X8217Y18377D01*
X8240Y18368D01*
X8264Y18361D01*
X8288Y18357D01*
X8313Y18355D01*
X8338Y18357D01*
X8362Y18361D01*
X8386Y18368D01*
X8409Y18377D01*
X8430Y18389D01*
X8450Y18403D01*
X8469Y18420D01*
X8485Y18438D01*
X8500Y18458D01*
X8512Y18480D01*
X8521Y18503D01*
X8528Y18527D01*
X8532Y18551D01*
X8533Y18576D01*
X8532Y18600D01*
X8528Y18625D01*
X8521Y18648D01*
X8512Y18671D01*
X8500Y18693D01*
X8485Y18713D01*
X8469Y18731D01*
X8450Y18748D01*
X8430Y18762D01*
X8409Y18774D01*
X8386Y18784D01*
X8362Y18790D01*
X8338Y18795D01*
X8313Y18796D01*
D02*
G37*
G36*
X17032Y18121D02*
X17007Y18119D01*
X16983Y18115D01*
X16959Y18108D01*
X16936Y18099D01*
X16914Y18087D01*
X16894Y18073D01*
X16876Y18056D01*
X16859Y18038D01*
X16845Y18018D01*
X16833Y17996D01*
X16824Y17973D01*
X16817Y17949D01*
X16813Y17925D01*
X16811Y17900D01*
X16813Y17876D01*
X16817Y17851D01*
X16824Y17827D01*
X16833Y17805D01*
X16845Y17783D01*
X16859Y17763D01*
X16876Y17744D01*
X16894Y17728D01*
X16914Y17714D01*
X16936Y17702D01*
X16959Y17692D01*
X16983Y17685D01*
X17007Y17681D01*
X17032Y17680D01*
X17056Y17681D01*
X17081Y17685D01*
X17105Y17692D01*
X17127Y17702D01*
X17149Y17714D01*
X17169Y17728D01*
X17188Y17744D01*
X17204Y17763D01*
X17218Y17783D01*
X17230Y17805D01*
X17240Y17827D01*
X17247Y17851D01*
X17251Y17876D01*
X17252Y17900D01*
X17251Y17925D01*
X17247Y17949D01*
X17240Y17973D01*
X17230Y17996D01*
X17218Y18018D01*
X17204Y18038D01*
X17188Y18056D01*
X17169Y18073D01*
X17149Y18087D01*
X17127Y18099D01*
X17105Y18108D01*
X17081Y18115D01*
X17056Y18119D01*
X17032Y18121D01*
D02*
G37*
G36*
X20911Y17810D02*
X20824D01*
Y17504D01*
X21264D01*
X21262Y17515D01*
X21256Y17546D01*
X21246Y17575D01*
X21234Y17604D01*
X21220Y17632D01*
X21203Y17658D01*
X21184Y17683D01*
X21163Y17705D01*
X21140Y17726D01*
X21116Y17745D01*
X21090Y17762D01*
X21062Y17776D01*
X21033Y17788D01*
X21004Y17798D01*
X20973Y17804D01*
X20942Y17808D01*
X20911Y17810D01*
D02*
G37*
G36*
X20724D02*
X20636D01*
X20605Y17808D01*
X20574Y17804D01*
X20544Y17798D01*
X20514Y17788D01*
X20485Y17776D01*
X20458Y17762D01*
X20431Y17745D01*
X20407Y17726D01*
X20384Y17705D01*
X20363Y17683D01*
X20344Y17658D01*
X20327Y17632D01*
X20313Y17604D01*
X20301Y17575D01*
X20292Y17546D01*
X20285Y17515D01*
X20283Y17504D01*
X20724D01*
Y17810D01*
D02*
G37*
G36*
X10400Y16944D02*
X10375Y16942D01*
X10351Y16938D01*
X10327Y16931D01*
X10304Y16922D01*
X10283Y16910D01*
X10263Y16896D01*
X10244Y16879D01*
X10228Y16861D01*
X10213Y16840D01*
X10201Y16819D01*
X10192Y16796D01*
X10185Y16772D01*
X10181Y16748D01*
X10180Y16723D01*
X10181Y16699D01*
X10185Y16674D01*
X10192Y16650D01*
X10201Y16628D01*
X10213Y16606D01*
X10228Y16586D01*
X10244Y16567D01*
X10263Y16551D01*
X10283Y16537D01*
X10304Y16525D01*
X10327Y16515D01*
X10351Y16508D01*
X10375Y16504D01*
X10400Y16503D01*
X10425Y16504D01*
X10449Y16508D01*
X10473Y16515D01*
X10496Y16525D01*
X10517Y16537D01*
X10537Y16551D01*
X10556Y16567D01*
X10572Y16586D01*
X10587Y16606D01*
X10599Y16628D01*
X10608Y16650D01*
X10615Y16674D01*
X10619Y16699D01*
X10620Y16723D01*
X10619Y16748D01*
X10615Y16772D01*
X10608Y16796D01*
X10599Y16819D01*
X10587Y16840D01*
X10572Y16861D01*
X10556Y16879D01*
X10537Y16896D01*
X10517Y16910D01*
X10496Y16922D01*
X10473Y16931D01*
X10449Y16938D01*
X10425Y16942D01*
X10400Y16944D01*
D02*
G37*
G36*
X9400D02*
X9375Y16942D01*
X9351Y16938D01*
X9327Y16931D01*
X9304Y16922D01*
X9283Y16910D01*
X9263Y16896D01*
X9244Y16879D01*
X9228Y16861D01*
X9213Y16840D01*
X9201Y16819D01*
X9192Y16796D01*
X9185Y16772D01*
X9181Y16748D01*
X9180Y16723D01*
X9181Y16699D01*
X9185Y16674D01*
X9192Y16650D01*
X9201Y16628D01*
X9213Y16606D01*
X9228Y16586D01*
X9244Y16567D01*
X9263Y16551D01*
X9283Y16537D01*
X9304Y16525D01*
X9327Y16515D01*
X9351Y16508D01*
X9375Y16504D01*
X9400Y16503D01*
X9425Y16504D01*
X9449Y16508D01*
X9473Y16515D01*
X9496Y16525D01*
X9517Y16537D01*
X9537Y16551D01*
X9556Y16567D01*
X9572Y16586D01*
X9587Y16606D01*
X9599Y16628D01*
X9608Y16650D01*
X9615Y16674D01*
X9619Y16699D01*
X9620Y16723D01*
X9619Y16748D01*
X9615Y16772D01*
X9608Y16796D01*
X9599Y16819D01*
X9587Y16840D01*
X9572Y16861D01*
X9556Y16879D01*
X9537Y16896D01*
X9517Y16910D01*
X9496Y16922D01*
X9473Y16931D01*
X9449Y16938D01*
X9425Y16942D01*
X9400Y16944D01*
D02*
G37*
G36*
X8400D02*
X8375Y16942D01*
X8351Y16938D01*
X8327Y16931D01*
X8304Y16922D01*
X8283Y16910D01*
X8263Y16896D01*
X8244Y16879D01*
X8228Y16861D01*
X8213Y16840D01*
X8201Y16819D01*
X8192Y16796D01*
X8185Y16772D01*
X8181Y16748D01*
X8180Y16723D01*
X8181Y16699D01*
X8185Y16674D01*
X8192Y16650D01*
X8201Y16628D01*
X8213Y16606D01*
X8228Y16586D01*
X8244Y16567D01*
X8263Y16551D01*
X8283Y16537D01*
X8304Y16525D01*
X8327Y16515D01*
X8351Y16508D01*
X8375Y16504D01*
X8400Y16503D01*
X8425Y16504D01*
X8449Y16508D01*
X8473Y16515D01*
X8496Y16525D01*
X8517Y16537D01*
X8537Y16551D01*
X8556Y16567D01*
X8572Y16586D01*
X8587Y16606D01*
X8599Y16628D01*
X8608Y16650D01*
X8615Y16674D01*
X8619Y16699D01*
X8620Y16723D01*
X8619Y16748D01*
X8615Y16772D01*
X8608Y16796D01*
X8599Y16819D01*
X8587Y16840D01*
X8572Y16861D01*
X8556Y16879D01*
X8537Y16896D01*
X8517Y16910D01*
X8496Y16922D01*
X8473Y16931D01*
X8449Y16938D01*
X8425Y16942D01*
X8400Y16944D01*
D02*
G37*
G36*
X7400D02*
X7375Y16942D01*
X7351Y16938D01*
X7327Y16931D01*
X7304Y16922D01*
X7283Y16910D01*
X7263Y16896D01*
X7244Y16879D01*
X7228Y16861D01*
X7213Y16840D01*
X7201Y16819D01*
X7192Y16796D01*
X7185Y16772D01*
X7181Y16748D01*
X7180Y16723D01*
X7181Y16699D01*
X7185Y16674D01*
X7192Y16650D01*
X7201Y16628D01*
X7213Y16606D01*
X7228Y16586D01*
X7244Y16567D01*
X7263Y16551D01*
X7283Y16537D01*
X7304Y16525D01*
X7327Y16515D01*
X7351Y16508D01*
X7375Y16504D01*
X7400Y16503D01*
X7425Y16504D01*
X7449Y16508D01*
X7473Y16515D01*
X7496Y16525D01*
X7517Y16537D01*
X7537Y16551D01*
X7556Y16567D01*
X7572Y16586D01*
X7587Y16606D01*
X7599Y16628D01*
X7608Y16650D01*
X7615Y16674D01*
X7619Y16699D01*
X7620Y16723D01*
X7619Y16748D01*
X7615Y16772D01*
X7608Y16796D01*
X7599Y16819D01*
X7587Y16840D01*
X7572Y16861D01*
X7556Y16879D01*
X7537Y16896D01*
X7517Y16910D01*
X7496Y16922D01*
X7473Y16931D01*
X7449Y16938D01*
X7425Y16942D01*
X7400Y16944D01*
D02*
G37*
G36*
X6400D02*
X6375Y16942D01*
X6351Y16938D01*
X6327Y16931D01*
X6304Y16922D01*
X6283Y16910D01*
X6263Y16896D01*
X6244Y16879D01*
X6228Y16861D01*
X6213Y16840D01*
X6201Y16819D01*
X6192Y16796D01*
X6185Y16772D01*
X6181Y16748D01*
X6180Y16723D01*
X6181Y16699D01*
X6185Y16674D01*
X6192Y16650D01*
X6201Y16628D01*
X6213Y16606D01*
X6228Y16586D01*
X6244Y16567D01*
X6263Y16551D01*
X6283Y16537D01*
X6304Y16525D01*
X6327Y16515D01*
X6351Y16508D01*
X6375Y16504D01*
X6400Y16503D01*
X6425Y16504D01*
X6449Y16508D01*
X6473Y16515D01*
X6496Y16525D01*
X6517Y16537D01*
X6537Y16551D01*
X6556Y16567D01*
X6572Y16586D01*
X6587Y16606D01*
X6599Y16628D01*
X6608Y16650D01*
X6615Y16674D01*
X6619Y16699D01*
X6620Y16723D01*
X6619Y16748D01*
X6615Y16772D01*
X6608Y16796D01*
X6599Y16819D01*
X6587Y16840D01*
X6572Y16861D01*
X6556Y16879D01*
X6537Y16896D01*
X6517Y16910D01*
X6496Y16922D01*
X6473Y16931D01*
X6449Y16938D01*
X6425Y16942D01*
X6400Y16944D01*
D02*
G37*
G36*
X5400D02*
X5375Y16942D01*
X5351Y16938D01*
X5327Y16931D01*
X5304Y16922D01*
X5283Y16910D01*
X5263Y16896D01*
X5244Y16879D01*
X5228Y16861D01*
X5213Y16840D01*
X5201Y16819D01*
X5192Y16796D01*
X5185Y16772D01*
X5181Y16748D01*
X5180Y16723D01*
X5181Y16699D01*
X5185Y16674D01*
X5192Y16650D01*
X5201Y16628D01*
X5213Y16606D01*
X5228Y16586D01*
X5244Y16567D01*
X5263Y16551D01*
X5283Y16537D01*
X5304Y16525D01*
X5327Y16515D01*
X5351Y16508D01*
X5375Y16504D01*
X5400Y16503D01*
X5425Y16504D01*
X5449Y16508D01*
X5473Y16515D01*
X5496Y16525D01*
X5517Y16537D01*
X5537Y16551D01*
X5556Y16567D01*
X5572Y16586D01*
X5587Y16606D01*
X5599Y16628D01*
X5608Y16650D01*
X5615Y16674D01*
X5619Y16699D01*
X5620Y16723D01*
X5619Y16748D01*
X5615Y16772D01*
X5608Y16796D01*
X5599Y16819D01*
X5587Y16840D01*
X5572Y16861D01*
X5556Y16879D01*
X5537Y16896D01*
X5517Y16910D01*
X5496Y16922D01*
X5473Y16931D01*
X5449Y16938D01*
X5425Y16942D01*
X5400Y16944D01*
D02*
G37*
G36*
X4400D02*
X4375Y16942D01*
X4351Y16938D01*
X4327Y16931D01*
X4304Y16922D01*
X4283Y16910D01*
X4263Y16896D01*
X4244Y16879D01*
X4228Y16861D01*
X4213Y16840D01*
X4201Y16819D01*
X4192Y16796D01*
X4185Y16772D01*
X4181Y16748D01*
X4180Y16723D01*
X4181Y16699D01*
X4185Y16674D01*
X4192Y16650D01*
X4201Y16628D01*
X4213Y16606D01*
X4228Y16586D01*
X4244Y16567D01*
X4263Y16551D01*
X4283Y16537D01*
X4304Y16525D01*
X4327Y16515D01*
X4351Y16508D01*
X4375Y16504D01*
X4400Y16503D01*
X4425Y16504D01*
X4449Y16508D01*
X4473Y16515D01*
X4496Y16525D01*
X4517Y16537D01*
X4537Y16551D01*
X4556Y16567D01*
X4572Y16586D01*
X4587Y16606D01*
X4599Y16628D01*
X4608Y16650D01*
X4615Y16674D01*
X4619Y16699D01*
X4620Y16723D01*
X4619Y16748D01*
X4615Y16772D01*
X4608Y16796D01*
X4599Y16819D01*
X4587Y16840D01*
X4572Y16861D01*
X4556Y16879D01*
X4537Y16896D01*
X4517Y16910D01*
X4496Y16922D01*
X4473Y16931D01*
X4449Y16938D01*
X4425Y16942D01*
X4400Y16944D01*
D02*
G37*
G36*
X3400D02*
X3375Y16942D01*
X3351Y16938D01*
X3327Y16931D01*
X3304Y16922D01*
X3283Y16910D01*
X3263Y16896D01*
X3244Y16879D01*
X3228Y16861D01*
X3213Y16840D01*
X3201Y16819D01*
X3192Y16796D01*
X3185Y16772D01*
X3181Y16748D01*
X3180Y16723D01*
X3181Y16699D01*
X3185Y16674D01*
X3192Y16650D01*
X3201Y16628D01*
X3213Y16606D01*
X3228Y16586D01*
X3244Y16567D01*
X3263Y16551D01*
X3283Y16537D01*
X3304Y16525D01*
X3327Y16515D01*
X3351Y16508D01*
X3375Y16504D01*
X3400Y16503D01*
X3425Y16504D01*
X3449Y16508D01*
X3473Y16515D01*
X3496Y16525D01*
X3517Y16537D01*
X3537Y16551D01*
X3556Y16567D01*
X3572Y16586D01*
X3587Y16606D01*
X3599Y16628D01*
X3608Y16650D01*
X3615Y16674D01*
X3619Y16699D01*
X3620Y16723D01*
X3619Y16748D01*
X3615Y16772D01*
X3608Y16796D01*
X3599Y16819D01*
X3587Y16840D01*
X3572Y16861D01*
X3556Y16879D01*
X3537Y16896D01*
X3517Y16910D01*
X3496Y16922D01*
X3473Y16931D01*
X3449Y16938D01*
X3425Y16942D01*
X3400Y16944D01*
D02*
G37*
G36*
X14404Y16944D02*
X14379Y16942D01*
X14354Y16938D01*
X14331Y16931D01*
X14308Y16922D01*
X14286Y16910D01*
X14266Y16896D01*
X14248Y16879D01*
X14231Y16861D01*
X14217Y16840D01*
X14205Y16819D01*
X14195Y16796D01*
X14189Y16772D01*
X14184Y16748D01*
X14183Y16723D01*
X14184Y16699D01*
X14189Y16674D01*
X14195Y16650D01*
X14205Y16628D01*
X14217Y16606D01*
X14231Y16586D01*
X14248Y16567D01*
X14266Y16551D01*
X14286Y16537D01*
X14308Y16525D01*
X14331Y16515D01*
X14354Y16508D01*
X14379Y16504D01*
X14404Y16503D01*
X14428Y16504D01*
X14453Y16508D01*
X14476Y16515D01*
X14499Y16525D01*
X14521Y16537D01*
X14541Y16551D01*
X14559Y16567D01*
X14576Y16586D01*
X14590Y16606D01*
X14602Y16628D01*
X14612Y16650D01*
X14618Y16674D01*
X14623Y16699D01*
X14624Y16723D01*
X14623Y16748D01*
X14618Y16772D01*
X14612Y16796D01*
X14602Y16819D01*
X14590Y16840D01*
X14576Y16861D01*
X14559Y16879D01*
X14541Y16896D01*
X14521Y16910D01*
X14499Y16922D01*
X14476Y16931D01*
X14453Y16938D01*
X14428Y16942D01*
X14404Y16944D01*
D02*
G37*
G36*
X13404D02*
X13379Y16942D01*
X13355Y16938D01*
X13331Y16931D01*
X13308Y16922D01*
X13286Y16910D01*
X13266Y16896D01*
X13248Y16879D01*
X13231Y16861D01*
X13217Y16840D01*
X13205Y16819D01*
X13195Y16796D01*
X13189Y16772D01*
X13185Y16748D01*
X13183Y16723D01*
X13185Y16699D01*
X13189Y16674D01*
X13195Y16650D01*
X13205Y16628D01*
X13217Y16606D01*
X13231Y16586D01*
X13248Y16567D01*
X13266Y16551D01*
X13286Y16537D01*
X13308Y16525D01*
X13331Y16515D01*
X13355Y16508D01*
X13379Y16504D01*
X13404Y16503D01*
X13428Y16504D01*
X13453Y16508D01*
X13476Y16515D01*
X13499Y16525D01*
X13521Y16537D01*
X13541Y16551D01*
X13559Y16567D01*
X13576Y16586D01*
X13590Y16606D01*
X13602Y16628D01*
X13612Y16650D01*
X13618Y16674D01*
X13623Y16699D01*
X13624Y16723D01*
X13623Y16748D01*
X13618Y16772D01*
X13612Y16796D01*
X13602Y16819D01*
X13590Y16840D01*
X13576Y16861D01*
X13559Y16879D01*
X13541Y16896D01*
X13521Y16910D01*
X13499Y16922D01*
X13476Y16931D01*
X13453Y16938D01*
X13428Y16942D01*
X13404Y16944D01*
D02*
G37*
G36*
X12404D02*
X12379Y16942D01*
X12354Y16938D01*
X12331Y16931D01*
X12308Y16922D01*
X12286Y16910D01*
X12266Y16896D01*
X12248Y16879D01*
X12231Y16861D01*
X12217Y16840D01*
X12205Y16819D01*
X12195Y16796D01*
X12189Y16772D01*
X12184Y16748D01*
X12183Y16723D01*
X12184Y16699D01*
X12189Y16674D01*
X12195Y16650D01*
X12205Y16628D01*
X12217Y16606D01*
X12231Y16586D01*
X12248Y16567D01*
X12266Y16551D01*
X12286Y16537D01*
X12308Y16525D01*
X12331Y16515D01*
X12354Y16508D01*
X12379Y16504D01*
X12404Y16503D01*
X12428Y16504D01*
X12453Y16508D01*
X12476Y16515D01*
X12499Y16525D01*
X12521Y16537D01*
X12541Y16551D01*
X12559Y16567D01*
X12576Y16586D01*
X12590Y16606D01*
X12602Y16628D01*
X12612Y16650D01*
X12618Y16674D01*
X12623Y16699D01*
X12624Y16723D01*
X12623Y16748D01*
X12618Y16772D01*
X12612Y16796D01*
X12602Y16819D01*
X12590Y16840D01*
X12576Y16861D01*
X12559Y16879D01*
X12541Y16896D01*
X12521Y16910D01*
X12499Y16922D01*
X12476Y16931D01*
X12453Y16938D01*
X12428Y16942D01*
X12404Y16944D01*
D02*
G37*
G36*
X11404D02*
X11379Y16942D01*
X11354Y16938D01*
X11331Y16931D01*
X11308Y16922D01*
X11286Y16910D01*
X11266Y16896D01*
X11248Y16879D01*
X11231Y16861D01*
X11217Y16840D01*
X11205Y16819D01*
X11195Y16796D01*
X11189Y16772D01*
X11185Y16748D01*
X11183Y16723D01*
X11185Y16699D01*
X11189Y16674D01*
X11195Y16650D01*
X11205Y16628D01*
X11217Y16606D01*
X11231Y16586D01*
X11248Y16567D01*
X11266Y16551D01*
X11286Y16537D01*
X11308Y16525D01*
X11331Y16515D01*
X11354Y16508D01*
X11379Y16504D01*
X11404Y16503D01*
X11428Y16504D01*
X11453Y16508D01*
X11476Y16515D01*
X11499Y16525D01*
X11521Y16537D01*
X11541Y16551D01*
X11559Y16567D01*
X11576Y16586D01*
X11590Y16606D01*
X11602Y16628D01*
X11612Y16650D01*
X11618Y16674D01*
X11623Y16699D01*
X11624Y16723D01*
X11623Y16748D01*
X11618Y16772D01*
X11612Y16796D01*
X11602Y16819D01*
X11590Y16840D01*
X11576Y16861D01*
X11559Y16879D01*
X11541Y16896D01*
X11521Y16910D01*
X11499Y16922D01*
X11476Y16931D01*
X11453Y16938D01*
X11428Y16942D01*
X11404Y16944D01*
D02*
G37*
G36*
X15793Y16778D02*
X15769Y16777D01*
X15744Y16773D01*
X15720Y16766D01*
X15698Y16756D01*
X15676Y16745D01*
X15656Y16730D01*
X15637Y16714D01*
X15621Y16695D01*
X15607Y16675D01*
X15595Y16654D01*
X15585Y16631D01*
X15578Y16607D01*
X15574Y16583D01*
X15573Y16558D01*
X15574Y16533D01*
X15578Y16509D01*
X15585Y16485D01*
X15595Y16462D01*
X15607Y16441D01*
X15621Y16420D01*
X15637Y16402D01*
X15656Y16386D01*
X15676Y16371D01*
X15698Y16359D01*
X15720Y16350D01*
X15744Y16343D01*
X15769Y16339D01*
X15793Y16337D01*
X15818Y16339D01*
X15842Y16343D01*
X15866Y16350D01*
X15889Y16359D01*
X15911Y16371D01*
X15931Y16386D01*
X15949Y16402D01*
X15966Y16420D01*
X15980Y16441D01*
X15992Y16462D01*
X16001Y16485D01*
X16008Y16509D01*
X16012Y16533D01*
X16014Y16558D01*
X16012Y16583D01*
X16008Y16607D01*
X16001Y16631D01*
X15992Y16654D01*
X15980Y16675D01*
X15966Y16695D01*
X15949Y16714D01*
X15931Y16730D01*
X15911Y16745D01*
X15889Y16756D01*
X15866Y16766D01*
X15842Y16773D01*
X15818Y16777D01*
X15793Y16778D01*
D02*
G37*
G36*
X21264Y17404D02*
X20774D01*
X20283D01*
X20285Y17392D01*
X20292Y17361D01*
X20301Y17332D01*
X20313Y17303D01*
X20327Y17275D01*
X20344Y17249D01*
X20363Y17225D01*
X20384Y17202D01*
X20407Y17181D01*
X20431Y17162D01*
X20458Y17145D01*
X20485Y17131D01*
X20514Y17119D01*
X20544Y17109D01*
X20574Y17103D01*
X20593Y17100D01*
Y17019D01*
X20574Y17017D01*
X20544Y17010D01*
X20514Y17001D01*
X20485Y16989D01*
X20458Y16975D01*
X20431Y16958D01*
X20407Y16939D01*
X20384Y16918D01*
X20363Y16895D01*
X20344Y16870D01*
X20327Y16844D01*
X20313Y16817D01*
X20301Y16788D01*
X20292Y16758D01*
X20285Y16728D01*
X20281Y16697D01*
X20280Y16666D01*
X20281Y16635D01*
X20285Y16604D01*
X20292Y16574D01*
X20301Y16544D01*
X20313Y16516D01*
X20327Y16488D01*
X20344Y16462D01*
X20363Y16437D01*
X20384Y16414D01*
X20407Y16393D01*
X20431Y16374D01*
X20458Y16358D01*
X20485Y16343D01*
X20514Y16331D01*
X20544Y16322D01*
X20574Y16315D01*
X20605Y16311D01*
X20636Y16310D01*
X20911D01*
X20942Y16311D01*
X20973Y16315D01*
X21004Y16322D01*
X21033Y16331D01*
X21062Y16343D01*
X21090Y16358D01*
X21116Y16374D01*
X21140Y16393D01*
X21163Y16414D01*
X21184Y16437D01*
X21203Y16462D01*
X21220Y16488D01*
X21234Y16516D01*
X21246Y16544D01*
X21256Y16574D01*
X21262Y16604D01*
X21266Y16635D01*
X21268Y16666D01*
X21266Y16697D01*
X21262Y16728D01*
X21256Y16758D01*
X21246Y16788D01*
X21234Y16817D01*
X21220Y16844D01*
X21203Y16870D01*
X21184Y16895D01*
X21163Y16918D01*
X21140Y16939D01*
X21116Y16958D01*
X21090Y16975D01*
X21062Y16989D01*
X21033Y17001D01*
X21004Y17010D01*
X20973Y17017D01*
X20954Y17019D01*
Y17100D01*
X20973Y17103D01*
X21004Y17109D01*
X21033Y17119D01*
X21062Y17131D01*
X21090Y17145D01*
X21116Y17162D01*
X21140Y17181D01*
X21163Y17202D01*
X21184Y17225D01*
X21203Y17249D01*
X21220Y17275D01*
X21234Y17303D01*
X21246Y17332D01*
X21256Y17361D01*
X21262Y17392D01*
X21264Y17404D01*
D02*
G37*
G36*
X20537Y15814D02*
X20513Y15812D01*
X20488Y15808D01*
X20465Y15801D01*
X20442Y15792D01*
X20420Y15780D01*
X20400Y15766D01*
X20382Y15749D01*
X20365Y15731D01*
X20351Y15711D01*
X20339Y15689D01*
X20329Y15666D01*
X20322Y15642D01*
X20318Y15618D01*
X20317Y15593D01*
X20318Y15569D01*
X20322Y15544D01*
X20329Y15520D01*
X20339Y15498D01*
X20351Y15476D01*
X20365Y15456D01*
X20382Y15437D01*
X20400Y15421D01*
X20420Y15407D01*
X20442Y15395D01*
X20465Y15385D01*
X20488Y15378D01*
X20513Y15374D01*
X20537Y15373D01*
X20562Y15374D01*
X20586Y15378D01*
X20610Y15385D01*
X20633Y15395D01*
X20655Y15407D01*
X20675Y15421D01*
X20693Y15437D01*
X20710Y15456D01*
X20724Y15476D01*
X20736Y15498D01*
X20745Y15520D01*
X20752Y15544D01*
X20756Y15569D01*
X20758Y15593D01*
X20756Y15618D01*
X20752Y15642D01*
X20745Y15666D01*
X20736Y15689D01*
X20724Y15711D01*
X20710Y15731D01*
X20693Y15749D01*
X20675Y15766D01*
X20655Y15780D01*
X20633Y15792D01*
X20610Y15801D01*
X20586Y15808D01*
X20562Y15812D01*
X20537Y15814D01*
D02*
G37*
G36*
X8913Y15440D02*
X8889Y15438D01*
X8864Y15434D01*
X8841Y15427D01*
X8818Y15418D01*
X8796Y15406D01*
X8776Y15392D01*
X8758Y15375D01*
X8741Y15357D01*
X8727Y15337D01*
X8715Y15315D01*
X8705Y15292D01*
X8698Y15268D01*
X8694Y15244D01*
X8693Y15219D01*
X8694Y15195D01*
X8698Y15170D01*
X8705Y15146D01*
X8715Y15124D01*
X8727Y15102D01*
X8741Y15082D01*
X8758Y15063D01*
X8776Y15047D01*
X8796Y15033D01*
X8818Y15021D01*
X8841Y15011D01*
X8864Y15004D01*
X8889Y15000D01*
X8913Y14999D01*
X8938Y15000D01*
X8962Y15004D01*
X8986Y15011D01*
X9009Y15021D01*
X9031Y15033D01*
X9051Y15047D01*
X9069Y15063D01*
X9086Y15082D01*
X9100Y15102D01*
X9112Y15124D01*
X9121Y15146D01*
X9128Y15170D01*
X9132Y15195D01*
X9134Y15219D01*
X9132Y15244D01*
X9128Y15268D01*
X9121Y15292D01*
X9112Y15315D01*
X9100Y15337D01*
X9086Y15357D01*
X9069Y15375D01*
X9051Y15392D01*
X9031Y15406D01*
X9009Y15418D01*
X8986Y15427D01*
X8962Y15434D01*
X8938Y15438D01*
X8913Y15440D01*
D02*
G37*
G36*
X5862D02*
X5838Y15438D01*
X5813Y15434D01*
X5789Y15427D01*
X5767Y15418D01*
X5745Y15406D01*
X5725Y15392D01*
X5706Y15375D01*
X5690Y15357D01*
X5676Y15337D01*
X5664Y15315D01*
X5654Y15292D01*
X5647Y15268D01*
X5643Y15244D01*
X5642Y15219D01*
X5643Y15195D01*
X5647Y15170D01*
X5654Y15146D01*
X5664Y15124D01*
X5676Y15102D01*
X5690Y15082D01*
X5706Y15063D01*
X5725Y15047D01*
X5745Y15033D01*
X5767Y15021D01*
X5789Y15011D01*
X5813Y15004D01*
X5838Y15000D01*
X5862Y14999D01*
X5887Y15000D01*
X5911Y15004D01*
X5935Y15011D01*
X5958Y15021D01*
X5979Y15033D01*
X6000Y15047D01*
X6018Y15063D01*
X6035Y15082D01*
X6049Y15102D01*
X6061Y15124D01*
X6070Y15146D01*
X6077Y15170D01*
X6081Y15195D01*
X6083Y15219D01*
X6081Y15244D01*
X6077Y15268D01*
X6070Y15292D01*
X6061Y15315D01*
X6049Y15337D01*
X6035Y15357D01*
X6018Y15375D01*
X6000Y15392D01*
X5979Y15406D01*
X5958Y15418D01*
X5935Y15427D01*
X5911Y15434D01*
X5887Y15438D01*
X5862Y15440D01*
D02*
G37*
G36*
X7880Y15430D02*
X7855Y15428D01*
X7831Y15424D01*
X7807Y15417D01*
X7784Y15408D01*
X7763Y15396D01*
X7742Y15382D01*
X7724Y15365D01*
X7708Y15347D01*
X7693Y15327D01*
X7681Y15305D01*
X7672Y15282D01*
X7665Y15258D01*
X7661Y15234D01*
X7659Y15209D01*
X7661Y15185D01*
X7665Y15160D01*
X7672Y15137D01*
X7681Y15114D01*
X7693Y15092D01*
X7708Y15072D01*
X7724Y15054D01*
X7742Y15037D01*
X7763Y15023D01*
X7784Y15011D01*
X7807Y15001D01*
X7831Y14995D01*
X7855Y14990D01*
X7880Y14989D01*
X7905Y14990D01*
X7929Y14995D01*
X7953Y15001D01*
X7976Y15011D01*
X7997Y15023D01*
X8017Y15037D01*
X8036Y15054D01*
X8052Y15072D01*
X8067Y15092D01*
X8079Y15114D01*
X8088Y15137D01*
X8095Y15160D01*
X8099Y15185D01*
X8100Y15209D01*
X8099Y15234D01*
X8095Y15258D01*
X8088Y15282D01*
X8079Y15305D01*
X8067Y15327D01*
X8052Y15347D01*
X8036Y15365D01*
X8017Y15382D01*
X7997Y15396D01*
X7976Y15408D01*
X7953Y15417D01*
X7929Y15424D01*
X7905Y15428D01*
X7880Y15430D01*
D02*
G37*
G36*
X6906Y15420D02*
X6881Y15419D01*
X6856Y15415D01*
X6833Y15408D01*
X6810Y15398D01*
X6788Y15386D01*
X6768Y15372D01*
X6750Y15355D01*
X6733Y15337D01*
X6719Y15317D01*
X6707Y15295D01*
X6697Y15272D01*
X6691Y15249D01*
X6686Y15224D01*
X6685Y15200D01*
X6686Y15175D01*
X6691Y15151D01*
X6697Y15127D01*
X6707Y15104D01*
X6719Y15082D01*
X6733Y15062D01*
X6750Y15044D01*
X6768Y15027D01*
X6788Y15013D01*
X6810Y15001D01*
X6833Y14992D01*
X6856Y14985D01*
X6881Y14981D01*
X6906Y14979D01*
X6930Y14981D01*
X6955Y14985D01*
X6978Y14992D01*
X7001Y15001D01*
X7023Y15013D01*
X7043Y15027D01*
X7061Y15044D01*
X7078Y15062D01*
X7092Y15082D01*
X7104Y15104D01*
X7114Y15127D01*
X7120Y15151D01*
X7125Y15175D01*
X7126Y15200D01*
X7125Y15224D01*
X7120Y15249D01*
X7114Y15272D01*
X7104Y15295D01*
X7092Y15317D01*
X7078Y15337D01*
X7061Y15355D01*
X7043Y15372D01*
X7023Y15386D01*
X7001Y15398D01*
X6978Y15408D01*
X6955Y15415D01*
X6930Y15419D01*
X6906Y15420D01*
D02*
G37*
G36*
X3440Y15318D02*
Y14976D01*
X3782D01*
X3779Y14995D01*
X3772Y15028D01*
X3762Y15061D01*
X3748Y15093D01*
X3732Y15124D01*
X3714Y15153D01*
X3693Y15180D01*
X3670Y15206D01*
X3644Y15229D01*
X3617Y15250D01*
X3588Y15269D01*
X3557Y15285D01*
X3525Y15298D01*
X3492Y15308D01*
X3458Y15316D01*
X3440Y15318D01*
D02*
G37*
G36*
X3340Y15318D02*
X3321Y15316D01*
X3287Y15308D01*
X3254Y15298D01*
X3223Y15285D01*
X3192Y15269D01*
X3163Y15250D01*
X3135Y15229D01*
X3110Y15206D01*
X3087Y15180D01*
X3066Y15153D01*
X3047Y15124D01*
X3031Y15093D01*
X3018Y15061D01*
X3008Y15028D01*
X3000Y14995D01*
X2998Y14976D01*
X3340D01*
Y15318D01*
D02*
G37*
G36*
X12083Y14938D02*
X12058Y14936D01*
X12034Y14932D01*
X12010Y14925D01*
X11987Y14916D01*
X11965Y14904D01*
X11945Y14890D01*
X11927Y14873D01*
X11924D01*
X11905Y14890D01*
X11885Y14904D01*
X11863Y14916D01*
X11841Y14925D01*
X11817Y14932D01*
X11792Y14936D01*
X11768Y14938D01*
X11743Y14936D01*
X11719Y14932D01*
X11695Y14925D01*
X11672Y14916D01*
X11650Y14904D01*
X11630Y14890D01*
X11612Y14873D01*
X11595Y14855D01*
X11581Y14835D01*
X11569Y14813D01*
X11560Y14790D01*
X11553Y14766D01*
X11549Y14742D01*
X11547Y14717D01*
X11549Y14693D01*
X11553Y14668D01*
X11560Y14645D01*
X11569Y14622D01*
X11581Y14600D01*
X11595Y14580D01*
X11612Y14561D01*
X11630Y14545D01*
X11650Y14531D01*
X11672Y14519D01*
X11695Y14509D01*
X11719Y14502D01*
X11743Y14498D01*
X11768Y14497D01*
X11792Y14498D01*
X11817Y14502D01*
X11841Y14509D01*
X11863Y14519D01*
X11885Y14531D01*
X11905Y14545D01*
X11924Y14561D01*
X11927D01*
X11945Y14545D01*
X11965Y14531D01*
X11987Y14519D01*
X12010Y14509D01*
X12034Y14502D01*
X12058Y14498D01*
X12083Y14497D01*
X12107Y14498D01*
X12132Y14502D01*
X12155Y14509D01*
X12178Y14519D01*
X12200Y14531D01*
X12220Y14545D01*
X12239Y14561D01*
X12255Y14580D01*
X12269Y14600D01*
X12281Y14622D01*
X12291Y14645D01*
X12298Y14668D01*
X12302Y14693D01*
X12303Y14717D01*
X12302Y14742D01*
X12298Y14766D01*
X12291Y14790D01*
X12281Y14813D01*
X12269Y14835D01*
X12255Y14855D01*
X12239Y14873D01*
X12220Y14890D01*
X12200Y14904D01*
X12178Y14916D01*
X12155Y14925D01*
X12132Y14932D01*
X12107Y14936D01*
X12083Y14938D01*
D02*
G37*
G36*
X13106Y14908D02*
X13082Y14907D01*
X13057Y14903D01*
X13033Y14896D01*
X13011Y14886D01*
X12989Y14874D01*
X12969Y14860D01*
X12958Y14851D01*
X12942Y14843D01*
X12892Y14837D01*
X12853Y14847D01*
X12850Y14850D01*
X12830Y14865D01*
X12808Y14877D01*
X12785Y14886D01*
X12762Y14893D01*
X12737Y14897D01*
X12713Y14898D01*
X12688Y14897D01*
X12664Y14893D01*
X12640Y14886D01*
X12617Y14877D01*
X12595Y14865D01*
X12575Y14850D01*
X12557Y14834D01*
X12540Y14815D01*
X12526Y14795D01*
X12514Y14774D01*
X12505Y14751D01*
X12498Y14727D01*
X12494Y14703D01*
X12492Y14678D01*
X12494Y14653D01*
X12498Y14629D01*
X12505Y14605D01*
X12514Y14582D01*
X12526Y14561D01*
X12540Y14541D01*
X12557Y14522D01*
X12575Y14506D01*
X12595Y14491D01*
X12617Y14479D01*
X12640Y14470D01*
X12664Y14463D01*
X12688Y14459D01*
X12713Y14458D01*
X12737Y14459D01*
X12762Y14463D01*
X12785Y14470D01*
X12808Y14479D01*
X12830Y14491D01*
X12850Y14506D01*
X12861Y14515D01*
X12877Y14523D01*
X12927Y14529D01*
X12965Y14519D01*
X12969Y14515D01*
X12989Y14501D01*
X13011Y14489D01*
X13033Y14480D01*
X13057Y14473D01*
X13082Y14469D01*
X13106Y14467D01*
X13131Y14469D01*
X13155Y14473D01*
X13179Y14480D01*
X13202Y14489D01*
X13224Y14501D01*
X13244Y14515D01*
X13262Y14532D01*
X13279Y14550D01*
X13293Y14571D01*
X13305Y14592D01*
X13314Y14615D01*
X13321Y14639D01*
X13325Y14663D01*
X13327Y14688D01*
X13325Y14712D01*
X13321Y14737D01*
X13314Y14761D01*
X13305Y14783D01*
X13293Y14805D01*
X13279Y14825D01*
X13262Y14844D01*
X13244Y14860D01*
X13224Y14874D01*
X13202Y14886D01*
X13179Y14896D01*
X13155Y14903D01*
X13131Y14907D01*
X13106Y14908D01*
D02*
G37*
G36*
X14415Y14928D02*
X14391Y14927D01*
X14366Y14922D01*
X14343Y14916D01*
X14320Y14906D01*
X14298Y14894D01*
X14278Y14880D01*
X14259Y14863D01*
X14243Y14845D01*
X14207Y14833D01*
X14178Y14845D01*
X14157Y14857D01*
X14134Y14866D01*
X14110Y14873D01*
X14086Y14877D01*
X14061Y14879D01*
X14036Y14877D01*
X14012Y14873D01*
X13988Y14866D01*
X13965Y14857D01*
X13944Y14845D01*
X13924Y14831D01*
X13905Y14814D01*
X13874Y14840D01*
X13853Y14855D01*
X13832Y14867D01*
X13809Y14876D01*
X13785Y14883D01*
X13761Y14887D01*
X13736Y14889D01*
X13712Y14887D01*
X13687Y14883D01*
X13663Y14876D01*
X13641Y14867D01*
X13619Y14855D01*
X13599Y14840D01*
X13580Y14824D01*
X13564Y14806D01*
X13550Y14785D01*
X13538Y14764D01*
X13528Y14741D01*
X13521Y14717D01*
X13517Y14693D01*
X13516Y14668D01*
X13517Y14643D01*
X13521Y14619D01*
X13528Y14595D01*
X13538Y14572D01*
X13550Y14551D01*
X13564Y14531D01*
X13580Y14512D01*
X13599Y14496D01*
X13619Y14481D01*
X13641Y14470D01*
X13663Y14460D01*
X13687Y14453D01*
X13712Y14449D01*
X13736Y14448D01*
X13761Y14449D01*
X13785Y14453D01*
X13809Y14460D01*
X13832Y14470D01*
X13853Y14481D01*
X13874Y14496D01*
X13892Y14512D01*
X13924Y14486D01*
X13944Y14472D01*
X13965Y14460D01*
X13988Y14450D01*
X14012Y14443D01*
X14036Y14439D01*
X14061Y14438D01*
X14086Y14439D01*
X14110Y14443D01*
X14134Y14450D01*
X14157Y14460D01*
X14178Y14472D01*
X14198Y14486D01*
X14217Y14502D01*
X14233Y14521D01*
X14268Y14532D01*
X14320Y14509D01*
X14343Y14499D01*
X14366Y14493D01*
X14391Y14488D01*
X14415Y14487D01*
X14440Y14488D01*
X14464Y14493D01*
X14488Y14499D01*
X14511Y14509D01*
X14533Y14521D01*
X14553Y14535D01*
X14571Y14552D01*
X14588Y14570D01*
X14602Y14590D01*
X14614Y14612D01*
X14623Y14635D01*
X14630Y14658D01*
X14634Y14683D01*
X14636Y14707D01*
X14634Y14732D01*
X14630Y14757D01*
X14623Y14780D01*
X14614Y14803D01*
X14602Y14825D01*
X14588Y14845D01*
X14571Y14863D01*
X14553Y14880D01*
X14533Y14894D01*
X14511Y14906D01*
X14488Y14916D01*
X14464Y14922D01*
X14440Y14927D01*
X14415Y14928D01*
D02*
G37*
G36*
X3340Y14876D02*
X2998D01*
X3000Y14857D01*
X3008Y14824D01*
X3018Y14791D01*
X3031Y14759D01*
X3047Y14728D01*
X3066Y14699D01*
X3087Y14672D01*
X3110Y14646D01*
X3135Y14623D01*
X3163Y14602D01*
X3192Y14583D01*
X3223Y14567D01*
X3254Y14554D01*
X3287Y14544D01*
X3321Y14536D01*
X3340Y14534D01*
Y14876D01*
D02*
G37*
G36*
X3782D02*
X3440D01*
Y14534D01*
X3458Y14536D01*
X3492Y14544D01*
X3525Y14554D01*
X3557Y14567D01*
X3588Y14583D01*
X3617Y14602D01*
X3644Y14623D01*
X3670Y14646D01*
X3693Y14672D01*
X3714Y14699D01*
X3732Y14728D01*
X3748Y14759D01*
X3762Y14791D01*
X3772Y14824D01*
X3779Y14857D01*
X3782Y14876D01*
D02*
G37*
G36*
X2785Y15321D02*
X1994D01*
Y14531D01*
X2785D01*
Y15321D01*
D02*
G37*
G36*
X3390Y14322D02*
X3355Y14320D01*
X3321Y14316D01*
X3287Y14308D01*
X3254Y14298D01*
X3223Y14285D01*
X3192Y14269D01*
X3163Y14250D01*
X3135Y14229D01*
X3110Y14206D01*
X3087Y14180D01*
X3066Y14153D01*
X3047Y14124D01*
X3031Y14093D01*
X3018Y14061D01*
X3008Y14028D01*
X3000Y13995D01*
X2996Y13960D01*
X2994Y13926D01*
X2996Y13892D01*
X3000Y13857D01*
X3008Y13824D01*
X3018Y13791D01*
X3031Y13759D01*
X3047Y13728D01*
X3066Y13699D01*
X3087Y13672D01*
X3110Y13646D01*
X3135Y13623D01*
X3163Y13602D01*
X3192Y13583D01*
X3223Y13567D01*
X3254Y13554D01*
X3287Y13544D01*
X3321Y13536D01*
X3355Y13532D01*
X3390Y13530D01*
X3424Y13532D01*
X3458Y13536D01*
X3492Y13544D01*
X3525Y13554D01*
X3557Y13567D01*
X3588Y13583D01*
X3617Y13602D01*
X3644Y13623D01*
X3670Y13646D01*
X3693Y13672D01*
X3714Y13699D01*
X3732Y13728D01*
X3748Y13759D01*
X3762Y13791D01*
X3772Y13824D01*
X3779Y13857D01*
X3784Y13892D01*
X3785Y13926D01*
X3784Y13960D01*
X3779Y13995D01*
X3772Y14028D01*
X3762Y14061D01*
X3748Y14093D01*
X3732Y14124D01*
X3714Y14153D01*
X3693Y14180D01*
X3670Y14206D01*
X3644Y14229D01*
X3617Y14250D01*
X3588Y14269D01*
X3557Y14285D01*
X3525Y14298D01*
X3492Y14308D01*
X3458Y14316D01*
X3424Y14320D01*
X3390Y14322D01*
D02*
G37*
G36*
X2390D02*
X2355Y14320D01*
X2321Y14316D01*
X2287Y14308D01*
X2254Y14298D01*
X2223Y14285D01*
X2192Y14269D01*
X2163Y14250D01*
X2135Y14229D01*
X2110Y14206D01*
X2087Y14180D01*
X2066Y14153D01*
X2047Y14124D01*
X2031Y14093D01*
X2018Y14061D01*
X2008Y14028D01*
X2000Y13995D01*
X1996Y13960D01*
X1994Y13926D01*
X1996Y13892D01*
X2000Y13857D01*
X2008Y13824D01*
X2018Y13791D01*
X2031Y13759D01*
X2047Y13728D01*
X2066Y13699D01*
X2087Y13672D01*
X2110Y13646D01*
X2135Y13623D01*
X2163Y13602D01*
X2192Y13583D01*
X2223Y13567D01*
X2254Y13554D01*
X2287Y13544D01*
X2321Y13536D01*
X2355Y13532D01*
X2390Y13530D01*
X2424Y13532D01*
X2458Y13536D01*
X2492Y13544D01*
X2525Y13554D01*
X2557Y13567D01*
X2588Y13583D01*
X2617Y13602D01*
X2644Y13623D01*
X2670Y13646D01*
X2693Y13672D01*
X2714Y13699D01*
X2732Y13728D01*
X2748Y13759D01*
X2762Y13791D01*
X2772Y13824D01*
X2779Y13857D01*
X2784Y13892D01*
X2785Y13926D01*
X2784Y13960D01*
X2779Y13995D01*
X2772Y14028D01*
X2762Y14061D01*
X2748Y14093D01*
X2732Y14124D01*
X2714Y14153D01*
X2693Y14180D01*
X2670Y14206D01*
X2644Y14229D01*
X2617Y14250D01*
X2588Y14269D01*
X2557Y14285D01*
X2525Y14298D01*
X2492Y14308D01*
X2458Y14316D01*
X2424Y14320D01*
X2390Y14322D01*
D02*
G37*
G36*
X15396Y13937D02*
X15371Y13935D01*
X15347Y13931D01*
X15323Y13924D01*
X15300Y13915D01*
X15278Y13903D01*
X15258Y13889D01*
X15240Y13872D01*
X15223Y13854D01*
X15209Y13834D01*
X15197Y13812D01*
X15188Y13789D01*
X15181Y13765D01*
X15177Y13741D01*
X15175Y13716D01*
X15177Y13692D01*
X15181Y13667D01*
X15188Y13644D01*
X15197Y13621D01*
X15209Y13599D01*
X15223Y13579D01*
X15240Y13561D01*
X15258Y13544D01*
X15278Y13530D01*
X15300Y13518D01*
X15323Y13508D01*
X15347Y13502D01*
X15371Y13497D01*
X15396Y13496D01*
X15420Y13497D01*
X15445Y13502D01*
X15469Y13508D01*
X15491Y13518D01*
X15513Y13530D01*
X15533Y13544D01*
X15552Y13561D01*
X15568Y13579D01*
X15582Y13599D01*
X15594Y13621D01*
X15604Y13644D01*
X15611Y13667D01*
X15615Y13692D01*
X15616Y13716D01*
X15615Y13741D01*
X15611Y13765D01*
X15604Y13789D01*
X15594Y13812D01*
X15582Y13834D01*
X15568Y13854D01*
X15552Y13872D01*
X15533Y13889D01*
X15513Y13903D01*
X15491Y13915D01*
X15469Y13924D01*
X15445Y13931D01*
X15420Y13935D01*
X15396Y13937D01*
D02*
G37*
G36*
X22260Y13461D02*
X22235Y13460D01*
X22211Y13456D01*
X22187Y13449D01*
X22164Y13440D01*
X22143Y13428D01*
X22122Y13413D01*
X22104Y13397D01*
X22088Y13378D01*
X22073Y13358D01*
X22061Y13337D01*
X22052Y13314D01*
X22045Y13290D01*
X22041Y13266D01*
X22039Y13241D01*
X22041Y13216D01*
X22045Y13192D01*
X22052Y13168D01*
X22061Y13145D01*
X22073Y13124D01*
X22088Y13104D01*
X22104Y13085D01*
X22122Y13069D01*
X22143Y13054D01*
X22164Y13042D01*
X22187Y13033D01*
X22211Y13026D01*
X22235Y13022D01*
X22260Y13021D01*
X22285Y13022D01*
X22309Y13026D01*
X22333Y13033D01*
X22355Y13042D01*
X22377Y13054D01*
X22397Y13069D01*
X22416Y13085D01*
X22432Y13104D01*
X22446Y13124D01*
X22458Y13145D01*
X22468Y13168D01*
X22475Y13192D01*
X22479Y13216D01*
X22480Y13241D01*
X22479Y13266D01*
X22475Y13290D01*
X22468Y13314D01*
X22458Y13337D01*
X22446Y13358D01*
X22432Y13378D01*
X22416Y13397D01*
X22397Y13413D01*
X22377Y13428D01*
X22355Y13440D01*
X22333Y13449D01*
X22309Y13456D01*
X22285Y13460D01*
X22260Y13461D01*
D02*
G37*
G36*
X20626Y13452D02*
X20601Y13450D01*
X20577Y13446D01*
X20553Y13439D01*
X20530Y13430D01*
X20509Y13418D01*
X20489Y13403D01*
X20470Y13387D01*
X20454Y13369D01*
X20439Y13348D01*
X20427Y13327D01*
X20418Y13304D01*
X20411Y13280D01*
X20407Y13256D01*
X20406Y13231D01*
X20407Y13206D01*
X20411Y13182D01*
X20418Y13158D01*
X20427Y13135D01*
X20439Y13114D01*
X20454Y13094D01*
X20470Y13075D01*
X20489Y13059D01*
X20509Y13044D01*
X20530Y13032D01*
X20553Y13023D01*
X20577Y13016D01*
X20601Y13012D01*
X20626Y13011D01*
X20651Y13012D01*
X20675Y13016D01*
X20699Y13023D01*
X20722Y13032D01*
X20743Y13044D01*
X20763Y13059D01*
X20782Y13075D01*
X20798Y13094D01*
X20813Y13114D01*
X20825Y13135D01*
X20834Y13158D01*
X20841Y13182D01*
X20845Y13206D01*
X20846Y13231D01*
X20845Y13256D01*
X20841Y13280D01*
X20834Y13304D01*
X20825Y13327D01*
X20813Y13348D01*
X20798Y13369D01*
X20782Y13387D01*
X20763Y13403D01*
X20743Y13418D01*
X20722Y13430D01*
X20699Y13439D01*
X20675Y13446D01*
X20651Y13450D01*
X20626Y13452D01*
D02*
G37*
G36*
X3390Y13322D02*
X3355Y13320D01*
X3321Y13316D01*
X3287Y13308D01*
X3254Y13298D01*
X3223Y13285D01*
X3192Y13269D01*
X3163Y13250D01*
X3135Y13229D01*
X3110Y13206D01*
X3087Y13180D01*
X3066Y13153D01*
X3047Y13124D01*
X3031Y13093D01*
X3018Y13061D01*
X3008Y13028D01*
X3000Y12995D01*
X2996Y12960D01*
X2994Y12926D01*
X2996Y12891D01*
X3000Y12857D01*
X3008Y12824D01*
X3018Y12791D01*
X3031Y12759D01*
X3047Y12728D01*
X3066Y12699D01*
X3087Y12672D01*
X3110Y12646D01*
X3135Y12623D01*
X3163Y12602D01*
X3192Y12583D01*
X3223Y12567D01*
X3254Y12554D01*
X3287Y12544D01*
X3321Y12536D01*
X3355Y12532D01*
X3390Y12530D01*
X3424Y12532D01*
X3458Y12536D01*
X3492Y12544D01*
X3525Y12554D01*
X3557Y12567D01*
X3588Y12583D01*
X3617Y12602D01*
X3644Y12623D01*
X3670Y12646D01*
X3693Y12672D01*
X3714Y12699D01*
X3732Y12728D01*
X3748Y12759D01*
X3762Y12791D01*
X3772Y12824D01*
X3779Y12857D01*
X3784Y12891D01*
X3785Y12926D01*
X3784Y12960D01*
X3779Y12995D01*
X3772Y13028D01*
X3762Y13061D01*
X3748Y13093D01*
X3732Y13124D01*
X3714Y13153D01*
X3693Y13180D01*
X3670Y13206D01*
X3644Y13229D01*
X3617Y13250D01*
X3588Y13269D01*
X3557Y13285D01*
X3525Y13298D01*
X3492Y13308D01*
X3458Y13316D01*
X3424Y13320D01*
X3390Y13322D01*
D02*
G37*
G36*
X2390D02*
X2355Y13320D01*
X2321Y13316D01*
X2287Y13308D01*
X2254Y13298D01*
X2223Y13285D01*
X2192Y13269D01*
X2163Y13250D01*
X2135Y13229D01*
X2110Y13206D01*
X2087Y13180D01*
X2066Y13153D01*
X2047Y13124D01*
X2031Y13093D01*
X2018Y13061D01*
X2008Y13028D01*
X2000Y12995D01*
X1996Y12960D01*
X1994Y12926D01*
X1996Y12891D01*
X2000Y12857D01*
X2008Y12824D01*
X2018Y12791D01*
X2031Y12759D01*
X2047Y12728D01*
X2066Y12699D01*
X2087Y12672D01*
X2110Y12646D01*
X2135Y12623D01*
X2163Y12602D01*
X2192Y12583D01*
X2223Y12567D01*
X2254Y12554D01*
X2287Y12544D01*
X2321Y12536D01*
X2355Y12532D01*
X2390Y12530D01*
X2424Y12532D01*
X2458Y12536D01*
X2492Y12544D01*
X2525Y12554D01*
X2557Y12567D01*
X2588Y12583D01*
X2617Y12602D01*
X2644Y12623D01*
X2670Y12646D01*
X2693Y12672D01*
X2714Y12699D01*
X2732Y12728D01*
X2748Y12759D01*
X2762Y12791D01*
X2772Y12824D01*
X2779Y12857D01*
X2784Y12891D01*
X2785Y12926D01*
X2784Y12960D01*
X2779Y12995D01*
X2772Y13028D01*
X2762Y13061D01*
X2748Y13093D01*
X2732Y13124D01*
X2714Y13153D01*
X2693Y13180D01*
X2670Y13206D01*
X2644Y13229D01*
X2617Y13250D01*
X2588Y13269D01*
X2557Y13285D01*
X2525Y13298D01*
X2492Y13308D01*
X2458Y13316D01*
X2424Y13320D01*
X2390Y13322D01*
D02*
G37*
G36*
X6364Y12595D02*
X6339Y12594D01*
X6315Y12590D01*
X6291Y12583D01*
X6269Y12573D01*
X6247Y12561D01*
X6227Y12547D01*
X6208Y12531D01*
X6192Y12512D01*
X6178Y12492D01*
X6166Y12470D01*
X6156Y12448D01*
X6149Y12424D01*
X6145Y12399D01*
X6144Y12375D01*
X6145Y12350D01*
X6149Y12326D01*
X6156Y12302D01*
X6166Y12279D01*
X6178Y12258D01*
X6192Y12237D01*
X6208Y12219D01*
X6227Y12202D01*
X6247Y12188D01*
X6269Y12176D01*
X6291Y12167D01*
X6315Y12160D01*
X6339Y12156D01*
X6364Y12154D01*
X6389Y12156D01*
X6413Y12160D01*
X6437Y12167D01*
X6460Y12176D01*
X6481Y12188D01*
X6502Y12202D01*
X6520Y12219D01*
X6537Y12237D01*
X6551Y12258D01*
X6563Y12279D01*
X6572Y12302D01*
X6579Y12326D01*
X6583Y12350D01*
X6585Y12375D01*
X6583Y12399D01*
X6579Y12424D01*
X6572Y12448D01*
X6563Y12470D01*
X6551Y12492D01*
X6537Y12512D01*
X6520Y12531D01*
X6502Y12547D01*
X6481Y12561D01*
X6460Y12573D01*
X6437Y12583D01*
X6413Y12590D01*
X6389Y12594D01*
X6364Y12595D01*
D02*
G37*
G36*
X22467Y12428D02*
X22442Y12427D01*
X22417Y12422D01*
X22394Y12416D01*
X22371Y12406D01*
X22349Y12394D01*
X22329Y12380D01*
X22311Y12363D01*
X22294Y12345D01*
X22280Y12325D01*
X22268Y12303D01*
X22258Y12280D01*
X22252Y12257D01*
X22247Y12232D01*
X22246Y12207D01*
X22247Y12183D01*
X22252Y12158D01*
X22258Y12135D01*
X22268Y12112D01*
X22280Y12090D01*
X22294Y12070D01*
X22311Y12052D01*
X22329Y12035D01*
X22349Y12021D01*
X22371Y12009D01*
X22394Y11999D01*
X22417Y11993D01*
X22442Y11988D01*
X22467Y11987D01*
X22491Y11988D01*
X22516Y11993D01*
X22539Y11999D01*
X22562Y12009D01*
X22584Y12021D01*
X22604Y12035D01*
X22622Y12052D01*
X22639Y12070D01*
X22653Y12090D01*
X22665Y12112D01*
X22675Y12135D01*
X22681Y12158D01*
X22686Y12183D01*
X22687Y12207D01*
X22686Y12232D01*
X22681Y12257D01*
X22675Y12280D01*
X22665Y12303D01*
X22653Y12325D01*
X22639Y12345D01*
X22622Y12363D01*
X22604Y12380D01*
X22584Y12394D01*
X22562Y12406D01*
X22539Y12416D01*
X22516Y12422D01*
X22491Y12427D01*
X22467Y12428D01*
D02*
G37*
G36*
X20587Y12418D02*
X20562Y12417D01*
X20538Y12413D01*
X20514Y12406D01*
X20491Y12396D01*
X20469Y12384D01*
X20449Y12370D01*
X20431Y12354D01*
X20414Y12335D01*
X20400Y12315D01*
X20388Y12293D01*
X20379Y12270D01*
X20372Y12247D01*
X20368Y12222D01*
X20366Y12198D01*
X20368Y12173D01*
X20372Y12149D01*
X20379Y12125D01*
X20388Y12102D01*
X20400Y12080D01*
X20414Y12060D01*
X20431Y12042D01*
X20449Y12025D01*
X20469Y12011D01*
X20491Y11999D01*
X20514Y11990D01*
X20538Y11983D01*
X20562Y11979D01*
X20587Y11977D01*
X20611Y11979D01*
X20636Y11983D01*
X20659Y11990D01*
X20682Y11999D01*
X20704Y12011D01*
X20724Y12025D01*
X20742Y12042D01*
X20759Y12060D01*
X20773Y12080D01*
X20785Y12102D01*
X20795Y12125D01*
X20802Y12149D01*
X20806Y12173D01*
X20807Y12198D01*
X20806Y12222D01*
X20802Y12247D01*
X20795Y12270D01*
X20785Y12293D01*
X20773Y12315D01*
X20759Y12335D01*
X20742Y12354D01*
X20724Y12370D01*
X20704Y12384D01*
X20682Y12396D01*
X20659Y12406D01*
X20636Y12413D01*
X20611Y12417D01*
X20587Y12418D01*
D02*
G37*
G36*
X3440Y12318D02*
Y11976D01*
X3782D01*
X3779Y11995D01*
X3772Y12028D01*
X3762Y12061D01*
X3748Y12093D01*
X3732Y12124D01*
X3714Y12153D01*
X3693Y12180D01*
X3670Y12206D01*
X3644Y12229D01*
X3617Y12250D01*
X3588Y12269D01*
X3557Y12285D01*
X3525Y12298D01*
X3492Y12308D01*
X3458Y12316D01*
X3440Y12318D01*
D02*
G37*
G36*
X3340Y12318D02*
X3321Y12316D01*
X3287Y12308D01*
X3254Y12298D01*
X3223Y12285D01*
X3192Y12269D01*
X3163Y12250D01*
X3135Y12229D01*
X3110Y12206D01*
X3087Y12180D01*
X3066Y12153D01*
X3047Y12124D01*
X3031Y12093D01*
X3018Y12061D01*
X3008Y12028D01*
X3000Y11995D01*
X2998Y11976D01*
X3340D01*
Y12318D01*
D02*
G37*
G36*
Y11876D02*
X2998D01*
X3000Y11857D01*
X3008Y11824D01*
X3018Y11791D01*
X3031Y11759D01*
X3047Y11728D01*
X3066Y11699D01*
X3087Y11672D01*
X3110Y11646D01*
X3135Y11623D01*
X3163Y11602D01*
X3192Y11583D01*
X3223Y11567D01*
X3254Y11554D01*
X3287Y11544D01*
X3321Y11536D01*
X3340Y11534D01*
Y11876D01*
D02*
G37*
G36*
X3782D02*
X3440D01*
Y11534D01*
X3458Y11536D01*
X3492Y11544D01*
X3525Y11554D01*
X3557Y11567D01*
X3588Y11583D01*
X3617Y11602D01*
X3644Y11623D01*
X3670Y11646D01*
X3693Y11672D01*
X3714Y11699D01*
X3732Y11728D01*
X3748Y11759D01*
X3762Y11791D01*
X3772Y11824D01*
X3779Y11857D01*
X3782Y11876D01*
D02*
G37*
G36*
X2390Y12322D02*
X2355Y12320D01*
X2321Y12316D01*
X2287Y12308D01*
X2254Y12298D01*
X2223Y12285D01*
X2192Y12269D01*
X2163Y12250D01*
X2135Y12229D01*
X2110Y12206D01*
X2087Y12180D01*
X2066Y12153D01*
X2047Y12124D01*
X2031Y12093D01*
X2018Y12061D01*
X2008Y12028D01*
X2000Y11995D01*
X1996Y11960D01*
X1994Y11926D01*
X1996Y11891D01*
X2000Y11857D01*
X2008Y11824D01*
X2018Y11791D01*
X2031Y11759D01*
X2047Y11728D01*
X2066Y11699D01*
X2087Y11672D01*
X2110Y11646D01*
X2135Y11623D01*
X2163Y11602D01*
X2192Y11583D01*
X2223Y11567D01*
X2254Y11554D01*
X2287Y11544D01*
X2321Y11536D01*
X2355Y11532D01*
X2390Y11530D01*
X2424Y11532D01*
X2458Y11536D01*
X2492Y11544D01*
X2525Y11554D01*
X2557Y11567D01*
X2588Y11583D01*
X2617Y11602D01*
X2644Y11623D01*
X2670Y11646D01*
X2693Y11672D01*
X2714Y11699D01*
X2732Y11728D01*
X2748Y11759D01*
X2762Y11791D01*
X2772Y11824D01*
X2779Y11857D01*
X2784Y11891D01*
X2785Y11926D01*
X2784Y11960D01*
X2779Y11995D01*
X2772Y12028D01*
X2762Y12061D01*
X2748Y12093D01*
X2732Y12124D01*
X2714Y12153D01*
X2693Y12180D01*
X2670Y12206D01*
X2644Y12229D01*
X2617Y12250D01*
X2588Y12269D01*
X2557Y12285D01*
X2525Y12298D01*
X2492Y12308D01*
X2458Y12316D01*
X2424Y12320D01*
X2390Y12322D01*
D02*
G37*
G36*
X20498Y11444D02*
X20473Y11442D01*
X20449Y11438D01*
X20425Y11431D01*
X20402Y11422D01*
X20381Y11410D01*
X20361Y11396D01*
X20342Y11379D01*
X20326Y11361D01*
X20311Y11341D01*
X20299Y11319D01*
X20290Y11296D01*
X20283Y11272D01*
X20279Y11248D01*
X20278Y11223D01*
X20279Y11199D01*
X20283Y11174D01*
X20290Y11150D01*
X20299Y11128D01*
X20311Y11106D01*
X20326Y11086D01*
X20342Y11067D01*
X20361Y11051D01*
X20381Y11037D01*
X20402Y11025D01*
X20425Y11015D01*
X20449Y11008D01*
X20473Y11004D01*
X20498Y11003D01*
X20523Y11004D01*
X20547Y11008D01*
X20571Y11015D01*
X20594Y11025D01*
X20615Y11037D01*
X20635Y11051D01*
X20654Y11067D01*
X20670Y11086D01*
X20685Y11106D01*
X20697Y11128D01*
X20706Y11150D01*
X20713Y11174D01*
X20717Y11199D01*
X20718Y11223D01*
X20717Y11248D01*
X20713Y11272D01*
X20706Y11296D01*
X20697Y11319D01*
X20685Y11341D01*
X20670Y11361D01*
X20654Y11379D01*
X20635Y11396D01*
X20615Y11410D01*
X20594Y11422D01*
X20571Y11431D01*
X20547Y11438D01*
X20523Y11442D01*
X20498Y11444D01*
D02*
G37*
G36*
X19209Y11355D02*
X19184Y11354D01*
X19160Y11350D01*
X19136Y11343D01*
X19113Y11333D01*
X19091Y11321D01*
X19071Y11307D01*
X19053Y11291D01*
X19036Y11272D01*
X19022Y11252D01*
X19010Y11230D01*
X19001Y11207D01*
X18994Y11184D01*
X18990Y11159D01*
X18988Y11135D01*
X18990Y11110D01*
X18994Y11086D01*
X19001Y11062D01*
X19010Y11039D01*
X19022Y11017D01*
X19036Y10997D01*
X19053Y10979D01*
X19071Y10962D01*
X19091Y10948D01*
X19113Y10936D01*
X19136Y10927D01*
X19160Y10920D01*
X19184Y10916D01*
X19209Y10914D01*
X19233Y10916D01*
X19258Y10920D01*
X19281Y10927D01*
X19304Y10936D01*
X19326Y10948D01*
X19346Y10962D01*
X19365Y10979D01*
X19381Y10997D01*
X19395Y11017D01*
X19407Y11039D01*
X19417Y11062D01*
X19424Y11086D01*
X19428Y11110D01*
X19429Y11135D01*
X19428Y11159D01*
X19424Y11184D01*
X19417Y11207D01*
X19407Y11230D01*
X19395Y11252D01*
X19381Y11272D01*
X19365Y11291D01*
X19346Y11307D01*
X19326Y11321D01*
X19304Y11333D01*
X19281Y11343D01*
X19258Y11350D01*
X19233Y11354D01*
X19209Y11355D01*
D02*
G37*
G36*
X3390Y11322D02*
X3355Y11320D01*
X3321Y11316D01*
X3287Y11308D01*
X3254Y11298D01*
X3223Y11285D01*
X3192Y11269D01*
X3163Y11250D01*
X3135Y11229D01*
X3110Y11206D01*
X3087Y11180D01*
X3066Y11153D01*
X3047Y11124D01*
X3031Y11093D01*
X3018Y11061D01*
X3008Y11028D01*
X3000Y10995D01*
X2996Y10960D01*
X2994Y10926D01*
X2996Y10891D01*
X3000Y10857D01*
X3008Y10824D01*
X3018Y10791D01*
X3031Y10759D01*
X3047Y10728D01*
X3066Y10699D01*
X3087Y10672D01*
X3110Y10646D01*
X3135Y10623D01*
X3163Y10602D01*
X3192Y10583D01*
X3223Y10567D01*
X3254Y10554D01*
X3287Y10544D01*
X3321Y10536D01*
X3355Y10532D01*
X3390Y10530D01*
X3424Y10532D01*
X3458Y10536D01*
X3492Y10544D01*
X3525Y10554D01*
X3557Y10567D01*
X3588Y10583D01*
X3617Y10602D01*
X3644Y10623D01*
X3670Y10646D01*
X3693Y10672D01*
X3714Y10699D01*
X3732Y10728D01*
X3748Y10759D01*
X3762Y10791D01*
X3772Y10824D01*
X3779Y10857D01*
X3784Y10891D01*
X3785Y10926D01*
X3784Y10960D01*
X3779Y10995D01*
X3772Y11028D01*
X3762Y11061D01*
X3748Y11093D01*
X3732Y11124D01*
X3714Y11153D01*
X3693Y11180D01*
X3670Y11206D01*
X3644Y11229D01*
X3617Y11250D01*
X3588Y11269D01*
X3557Y11285D01*
X3525Y11298D01*
X3492Y11308D01*
X3458Y11316D01*
X3424Y11320D01*
X3390Y11322D01*
D02*
G37*
G36*
X2390D02*
X2355Y11320D01*
X2321Y11316D01*
X2287Y11308D01*
X2254Y11298D01*
X2223Y11285D01*
X2192Y11269D01*
X2163Y11250D01*
X2135Y11229D01*
X2110Y11206D01*
X2087Y11180D01*
X2066Y11153D01*
X2047Y11124D01*
X2031Y11093D01*
X2018Y11061D01*
X2008Y11028D01*
X2000Y10995D01*
X1996Y10960D01*
X1994Y10926D01*
X1996Y10891D01*
X2000Y10857D01*
X2008Y10824D01*
X2018Y10791D01*
X2031Y10759D01*
X2047Y10728D01*
X2066Y10699D01*
X2087Y10672D01*
X2110Y10646D01*
X2135Y10623D01*
X2163Y10602D01*
X2192Y10583D01*
X2223Y10567D01*
X2254Y10554D01*
X2287Y10544D01*
X2321Y10536D01*
X2355Y10532D01*
X2390Y10530D01*
X2424Y10532D01*
X2458Y10536D01*
X2492Y10544D01*
X2525Y10554D01*
X2557Y10567D01*
X2588Y10583D01*
X2617Y10602D01*
X2644Y10623D01*
X2670Y10646D01*
X2693Y10672D01*
X2714Y10699D01*
X2732Y10728D01*
X2748Y10759D01*
X2762Y10791D01*
X2772Y10824D01*
X2779Y10857D01*
X2784Y10891D01*
X2785Y10926D01*
X2784Y10960D01*
X2779Y10995D01*
X2772Y11028D01*
X2762Y11061D01*
X2748Y11093D01*
X2732Y11124D01*
X2714Y11153D01*
X2693Y11180D01*
X2670Y11206D01*
X2644Y11229D01*
X2617Y11250D01*
X2588Y11269D01*
X2557Y11285D01*
X2525Y11298D01*
X2492Y11308D01*
X2458Y11316D01*
X2424Y11320D01*
X2390Y11322D01*
D02*
G37*
G36*
X17329Y10390D02*
X17304Y10389D01*
X17280Y10385D01*
X17256Y10378D01*
X17233Y10369D01*
X17211Y10357D01*
X17191Y10342D01*
X17173Y10326D01*
X17156Y10308D01*
X17145Y10291D01*
X17097Y10282D01*
X17075Y10283D01*
X17054Y10290D01*
X17048Y10298D01*
X17032Y10316D01*
X17013Y10333D01*
X16993Y10347D01*
X16972Y10359D01*
X16949Y10368D01*
X16925Y10375D01*
X16901Y10379D01*
X16876Y10381D01*
X16851Y10379D01*
X16827Y10375D01*
X16803Y10368D01*
X16780Y10359D01*
X16759Y10347D01*
X16739Y10333D01*
X16720Y10316D01*
X16704Y10298D01*
X16689Y10278D01*
X16677Y10256D01*
X16668Y10233D01*
X16661Y10209D01*
X16657Y10185D01*
X16656Y10160D01*
X16657Y10136D01*
X16661Y10111D01*
X16668Y10087D01*
X16677Y10065D01*
X16689Y10043D01*
X16704Y10023D01*
X16720Y10004D01*
X16739Y9988D01*
X16759Y9974D01*
X16780Y9962D01*
X16803Y9952D01*
X16827Y9945D01*
X16851Y9941D01*
X16876Y9940D01*
X16901Y9941D01*
X16925Y9945D01*
X16949Y9952D01*
X16972Y9962D01*
X16993Y9974D01*
X17013Y9988D01*
X17032Y10004D01*
X17048Y10023D01*
X17060Y10039D01*
X17108Y10048D01*
X17130Y10047D01*
X17151Y10040D01*
X17156Y10033D01*
X17173Y10014D01*
X17191Y9998D01*
X17211Y9983D01*
X17233Y9971D01*
X17256Y9962D01*
X17280Y9955D01*
X17304Y9951D01*
X17329Y9950D01*
X17353Y9951D01*
X17378Y9955D01*
X17402Y9962D01*
X17424Y9971D01*
X17446Y9983D01*
X17466Y9998D01*
X17485Y10014D01*
X17501Y10033D01*
X17515Y10053D01*
X17527Y10074D01*
X17537Y10097D01*
X17544Y10121D01*
X17548Y10145D01*
X17549Y10170D01*
X17548Y10195D01*
X17544Y10219D01*
X17537Y10243D01*
X17527Y10266D01*
X17515Y10287D01*
X17501Y10308D01*
X17485Y10326D01*
X17466Y10342D01*
X17446Y10357D01*
X17424Y10369D01*
X17402Y10378D01*
X17378Y10385D01*
X17353Y10389D01*
X17329Y10390D01*
D02*
G37*
G36*
X18805Y10381D02*
X18780Y10379D01*
X18756Y10375D01*
X18732Y10368D01*
X18709Y10359D01*
X18688Y10347D01*
X18668Y10333D01*
X18649Y10316D01*
X18633Y10298D01*
X18618Y10278D01*
X18607Y10256D01*
X18597Y10233D01*
X18590Y10209D01*
X18586Y10185D01*
X18585Y10160D01*
X18586Y10136D01*
X18590Y10111D01*
X18597Y10087D01*
X18607Y10065D01*
X18618Y10043D01*
X18633Y10023D01*
X18649Y10004D01*
X18668Y9988D01*
X18688Y9974D01*
X18709Y9962D01*
X18732Y9952D01*
X18756Y9945D01*
X18780Y9941D01*
X18805Y9940D01*
X18830Y9941D01*
X18854Y9945D01*
X18878Y9952D01*
X18901Y9962D01*
X18922Y9974D01*
X18943Y9988D01*
X18961Y10004D01*
X18977Y10023D01*
X18992Y10043D01*
X19004Y10065D01*
X19013Y10087D01*
X19020Y10111D01*
X19024Y10136D01*
X19026Y10160D01*
X19024Y10185D01*
X19020Y10209D01*
X19013Y10233D01*
X19004Y10256D01*
X18992Y10278D01*
X18977Y10298D01*
X18961Y10316D01*
X18943Y10333D01*
X18922Y10347D01*
X18901Y10359D01*
X18878Y10368D01*
X18854Y10375D01*
X18830Y10379D01*
X18805Y10381D01*
D02*
G37*
G36*
X3390Y10322D02*
X3355Y10320D01*
X3321Y10316D01*
X3287Y10308D01*
X3254Y10298D01*
X3223Y10285D01*
X3192Y10269D01*
X3163Y10250D01*
X3135Y10229D01*
X3110Y10206D01*
X3087Y10180D01*
X3066Y10153D01*
X3047Y10124D01*
X3031Y10093D01*
X3018Y10061D01*
X3008Y10028D01*
X3000Y9995D01*
X2996Y9960D01*
X2994Y9926D01*
X2996Y9891D01*
X3000Y9857D01*
X3008Y9824D01*
X3018Y9791D01*
X3031Y9759D01*
X3047Y9728D01*
X3066Y9699D01*
X3087Y9672D01*
X3110Y9646D01*
X3135Y9623D01*
X3163Y9602D01*
X3192Y9583D01*
X3223Y9567D01*
X3254Y9554D01*
X3287Y9544D01*
X3321Y9536D01*
X3355Y9532D01*
X3390Y9530D01*
X3424Y9532D01*
X3458Y9536D01*
X3492Y9544D01*
X3525Y9554D01*
X3557Y9567D01*
X3588Y9583D01*
X3617Y9602D01*
X3644Y9623D01*
X3670Y9646D01*
X3693Y9672D01*
X3714Y9699D01*
X3732Y9728D01*
X3748Y9759D01*
X3762Y9791D01*
X3772Y9824D01*
X3779Y9857D01*
X3784Y9891D01*
X3785Y9926D01*
X3784Y9960D01*
X3779Y9995D01*
X3772Y10028D01*
X3762Y10061D01*
X3748Y10093D01*
X3732Y10124D01*
X3714Y10153D01*
X3693Y10180D01*
X3670Y10206D01*
X3644Y10229D01*
X3617Y10250D01*
X3588Y10269D01*
X3557Y10285D01*
X3525Y10298D01*
X3492Y10308D01*
X3458Y10316D01*
X3424Y10320D01*
X3390Y10322D01*
D02*
G37*
G36*
X2390D02*
X2355Y10320D01*
X2321Y10316D01*
X2287Y10308D01*
X2254Y10298D01*
X2223Y10285D01*
X2192Y10269D01*
X2163Y10250D01*
X2135Y10229D01*
X2110Y10206D01*
X2087Y10180D01*
X2066Y10153D01*
X2047Y10124D01*
X2031Y10093D01*
X2018Y10061D01*
X2008Y10028D01*
X2000Y9995D01*
X1996Y9960D01*
X1994Y9926D01*
X1996Y9891D01*
X2000Y9857D01*
X2008Y9824D01*
X2018Y9791D01*
X2031Y9759D01*
X2047Y9728D01*
X2066Y9699D01*
X2087Y9672D01*
X2110Y9646D01*
X2135Y9623D01*
X2163Y9602D01*
X2192Y9583D01*
X2223Y9567D01*
X2254Y9554D01*
X2287Y9544D01*
X2321Y9536D01*
X2355Y9532D01*
X2390Y9530D01*
X2424Y9532D01*
X2458Y9536D01*
X2492Y9544D01*
X2525Y9554D01*
X2557Y9567D01*
X2588Y9583D01*
X2617Y9602D01*
X2644Y9623D01*
X2670Y9646D01*
X2693Y9672D01*
X2714Y9699D01*
X2732Y9728D01*
X2748Y9759D01*
X2762Y9791D01*
X2772Y9824D01*
X2779Y9857D01*
X2784Y9891D01*
X2785Y9926D01*
X2784Y9960D01*
X2779Y9995D01*
X2772Y10028D01*
X2762Y10061D01*
X2748Y10093D01*
X2732Y10124D01*
X2714Y10153D01*
X2693Y10180D01*
X2670Y10206D01*
X2644Y10229D01*
X2617Y10250D01*
X2588Y10269D01*
X2557Y10285D01*
X2525Y10298D01*
X2492Y10308D01*
X2458Y10316D01*
X2424Y10320D01*
X2390Y10322D01*
D02*
G37*
G36*
X22315Y10091D02*
X22079D01*
X22048Y10090D01*
X22017Y10085D01*
X21987Y10078D01*
X21957Y10067D01*
X21929Y10054D01*
X21903Y10038D01*
X21878Y10019D01*
X21855Y9998D01*
X21834Y9975D01*
X21815Y9950D01*
X21799Y9924D01*
X21786Y9896D01*
X21775Y9866D01*
X21768Y9836D01*
X21763Y9805D01*
X21762Y9774D01*
X21763Y9743D01*
X21768Y9713D01*
X21775Y9682D01*
X21786Y9653D01*
X21799Y9625D01*
X21815Y9598D01*
X21834Y9573D01*
X21855Y9550D01*
X21878Y9529D01*
X21903Y9511D01*
X21929Y9495D01*
X21957Y9482D01*
X21987Y9471D01*
X22017Y9464D01*
X22048Y9459D01*
X22079Y9457D01*
X22315D01*
X22346Y9459D01*
X22377Y9464D01*
X22407Y9471D01*
X22436Y9482D01*
X22464Y9495D01*
X22491Y9511D01*
X22516Y9529D01*
X22539Y9550D01*
X22560Y9573D01*
X22578Y9598D01*
X22594Y9625D01*
X22608Y9653D01*
X22618Y9682D01*
X22626Y9713D01*
X22630Y9743D01*
X22632Y9774D01*
X22630Y9805D01*
X22626Y9836D01*
X22618Y9866D01*
X22608Y9896D01*
X22594Y9924D01*
X22578Y9950D01*
X22560Y9975D01*
X22539Y9998D01*
X22516Y10019D01*
X22491Y10038D01*
X22464Y10054D01*
X22436Y10067D01*
X22407Y10078D01*
X22377Y10085D01*
X22346Y10090D01*
X22315Y10091D01*
D02*
G37*
G36*
X20819D02*
X20583D01*
X20552Y10090D01*
X20521Y10085D01*
X20491Y10078D01*
X20461Y10067D01*
X20433Y10054D01*
X20407Y10038D01*
X20382Y10019D01*
X20359Y9998D01*
X20338Y9975D01*
X20319Y9950D01*
X20303Y9924D01*
X20290Y9896D01*
X20279Y9866D01*
X20272Y9836D01*
X20267Y9805D01*
X20266Y9774D01*
X20267Y9743D01*
X20272Y9713D01*
X20279Y9682D01*
X20290Y9653D01*
X20303Y9625D01*
X20319Y9598D01*
X20338Y9573D01*
X20359Y9550D01*
X20382Y9529D01*
X20407Y9511D01*
X20433Y9495D01*
X20461Y9482D01*
X20491Y9471D01*
X20521Y9464D01*
X20552Y9459D01*
X20583Y9457D01*
X20819D01*
X20850Y9459D01*
X20881Y9464D01*
X20911Y9471D01*
X20940Y9482D01*
X20968Y9495D01*
X20995Y9511D01*
X21020Y9529D01*
X21043Y9550D01*
X21064Y9573D01*
X21082Y9598D01*
X21098Y9625D01*
X21112Y9653D01*
X21122Y9682D01*
X21130Y9713D01*
X21134Y9743D01*
X21136Y9774D01*
X21134Y9805D01*
X21130Y9836D01*
X21122Y9866D01*
X21112Y9896D01*
X21098Y9924D01*
X21082Y9950D01*
X21064Y9975D01*
X21043Y9998D01*
X21020Y10019D01*
X20995Y10038D01*
X20968Y10054D01*
X20940Y10067D01*
X20911Y10078D01*
X20881Y10085D01*
X20850Y10090D01*
X20819Y10091D01*
D02*
G37*
G36*
X7919Y9731D02*
X7895Y9730D01*
X7870Y9726D01*
X7846Y9719D01*
X7824Y9709D01*
X7802Y9697D01*
X7782Y9683D01*
X7763Y9666D01*
X7747Y9648D01*
X7733Y9628D01*
X7721Y9606D01*
X7711Y9583D01*
X7704Y9560D01*
X7700Y9535D01*
X7699Y9511D01*
X7700Y9486D01*
X7704Y9462D01*
X7711Y9438D01*
X7721Y9415D01*
X7733Y9393D01*
X7747Y9373D01*
X7763Y9355D01*
X7782Y9338D01*
X7802Y9324D01*
X7824Y9312D01*
X7846Y9303D01*
X7870Y9296D01*
X7895Y9292D01*
X7919Y9290D01*
X7944Y9292D01*
X7968Y9296D01*
X7992Y9303D01*
X8015Y9312D01*
X8037Y9324D01*
X8057Y9338D01*
X8075Y9355D01*
X8092Y9373D01*
X8106Y9393D01*
X8118Y9415D01*
X8127Y9438D01*
X8134Y9462D01*
X8138Y9486D01*
X8140Y9511D01*
X8138Y9535D01*
X8134Y9560D01*
X8127Y9583D01*
X8118Y9606D01*
X8106Y9628D01*
X8092Y9648D01*
X8075Y9666D01*
X8057Y9683D01*
X8037Y9697D01*
X8015Y9709D01*
X7992Y9719D01*
X7968Y9726D01*
X7944Y9730D01*
X7919Y9731D01*
D02*
G37*
G36*
X17358Y9436D02*
X17334Y9434D01*
X17309Y9430D01*
X17285Y9423D01*
X17263Y9414D01*
X17241Y9402D01*
X17221Y9388D01*
X17202Y9371D01*
X17186Y9353D01*
X17172Y9333D01*
X17160Y9311D01*
X17150Y9288D01*
X17143Y9264D01*
X17139Y9240D01*
X17138Y9215D01*
X17139Y9191D01*
X17143Y9166D01*
X17150Y9143D01*
X17160Y9120D01*
X17172Y9098D01*
X17186Y9078D01*
X17202Y9059D01*
X17221Y9043D01*
X17241Y9029D01*
X17263Y9017D01*
X17285Y9007D01*
X17309Y9000D01*
X17334Y8996D01*
X17358Y8995D01*
X17383Y8996D01*
X17407Y9000D01*
X17431Y9007D01*
X17454Y9017D01*
X17476Y9029D01*
X17496Y9043D01*
X17514Y9059D01*
X17531Y9078D01*
X17545Y9098D01*
X17557Y9120D01*
X17566Y9143D01*
X17573Y9166D01*
X17577Y9191D01*
X17579Y9215D01*
X17577Y9240D01*
X17573Y9264D01*
X17566Y9288D01*
X17557Y9311D01*
X17545Y9333D01*
X17531Y9353D01*
X17514Y9371D01*
X17496Y9388D01*
X17476Y9402D01*
X17454Y9414D01*
X17431Y9423D01*
X17407Y9430D01*
X17383Y9434D01*
X17358Y9436D01*
D02*
G37*
G36*
X16837D02*
X16812Y9434D01*
X16788Y9430D01*
X16764Y9423D01*
X16741Y9414D01*
X16719Y9402D01*
X16699Y9388D01*
X16681Y9371D01*
X16664Y9353D01*
X16650Y9333D01*
X16638Y9311D01*
X16629Y9288D01*
X16622Y9264D01*
X16618Y9240D01*
X16616Y9215D01*
X16618Y9191D01*
X16622Y9166D01*
X16629Y9143D01*
X16638Y9120D01*
X16650Y9098D01*
X16664Y9078D01*
X16681Y9059D01*
X16699Y9043D01*
X16719Y9029D01*
X16741Y9017D01*
X16764Y9007D01*
X16788Y9000D01*
X16812Y8996D01*
X16837Y8995D01*
X16861Y8996D01*
X16886Y9000D01*
X16909Y9007D01*
X16932Y9017D01*
X16954Y9029D01*
X16974Y9043D01*
X16992Y9059D01*
X17009Y9078D01*
X17023Y9098D01*
X17035Y9120D01*
X17045Y9143D01*
X17052Y9166D01*
X17056Y9191D01*
X17057Y9215D01*
X17056Y9240D01*
X17052Y9264D01*
X17045Y9288D01*
X17035Y9311D01*
X17023Y9333D01*
X17009Y9353D01*
X16992Y9371D01*
X16974Y9388D01*
X16954Y9402D01*
X16932Y9414D01*
X16909Y9423D01*
X16886Y9430D01*
X16861Y9434D01*
X16837Y9436D01*
D02*
G37*
G36*
X18805Y9426D02*
X18780Y9425D01*
X18756Y9420D01*
X18732Y9414D01*
X18709Y9404D01*
X18688Y9392D01*
X18668Y9378D01*
X18649Y9361D01*
X18633Y9343D01*
X18618Y9323D01*
X18607Y9301D01*
X18597Y9278D01*
X18590Y9255D01*
X18586Y9230D01*
X18585Y9206D01*
X18586Y9181D01*
X18590Y9156D01*
X18597Y9133D01*
X18607Y9110D01*
X18618Y9088D01*
X18633Y9068D01*
X18649Y9050D01*
X18668Y9033D01*
X18688Y9019D01*
X18709Y9007D01*
X18732Y8997D01*
X18756Y8991D01*
X18780Y8986D01*
X18805Y8985D01*
X18830Y8986D01*
X18854Y8991D01*
X18878Y8997D01*
X18901Y9007D01*
X18922Y9019D01*
X18943Y9033D01*
X18961Y9050D01*
X18977Y9068D01*
X18992Y9088D01*
X19004Y9110D01*
X19013Y9133D01*
X19020Y9156D01*
X19024Y9181D01*
X19026Y9206D01*
X19024Y9230D01*
X19020Y9255D01*
X19013Y9278D01*
X19004Y9301D01*
X18992Y9323D01*
X18977Y9343D01*
X18961Y9361D01*
X18943Y9378D01*
X18922Y9392D01*
X18901Y9404D01*
X18878Y9414D01*
X18854Y9420D01*
X18830Y9425D01*
X18805Y9426D01*
D02*
G37*
G36*
X3440Y8991D02*
Y8649D01*
X3782D01*
X3779Y8668D01*
X3772Y8702D01*
X3762Y8735D01*
X3748Y8766D01*
X3732Y8797D01*
X3714Y8826D01*
X3693Y8854D01*
X3670Y8879D01*
X3644Y8902D01*
X3617Y8923D01*
X3588Y8942D01*
X3557Y8958D01*
X3525Y8971D01*
X3492Y8981D01*
X3458Y8989D01*
X3440Y8991D01*
D02*
G37*
G36*
X3340D02*
X3321Y8989D01*
X3287Y8981D01*
X3254Y8971D01*
X3223Y8958D01*
X3192Y8942D01*
X3163Y8923D01*
X3135Y8902D01*
X3110Y8879D01*
X3087Y8854D01*
X3066Y8826D01*
X3047Y8797D01*
X3031Y8766D01*
X3018Y8735D01*
X3008Y8702D01*
X3000Y8668D01*
X2998Y8649D01*
X3340D01*
Y8991D01*
D02*
G37*
G36*
X10193Y9052D02*
X10168Y9051D01*
X10144Y9046D01*
X10120Y9040D01*
X10097Y9030D01*
X10076Y9018D01*
X10055Y9004D01*
X10037Y8987D01*
X10021Y8969D01*
X10006Y8949D01*
X9994Y8927D01*
X9985Y8904D01*
X9978Y8881D01*
X9974Y8856D01*
X9972Y8831D01*
X9974Y8807D01*
X9978Y8782D01*
X9985Y8759D01*
X9994Y8736D01*
X10006Y8714D01*
X10021Y8694D01*
X10037Y8676D01*
X10055Y8659D01*
X10076Y8645D01*
X10097Y8633D01*
X10120Y8623D01*
X10144Y8617D01*
X10168Y8612D01*
X10193Y8611D01*
X10218Y8612D01*
X10242Y8617D01*
X10266Y8623D01*
X10289Y8633D01*
X10310Y8645D01*
X10330Y8659D01*
X10349Y8676D01*
X10365Y8694D01*
X10380Y8714D01*
X10392Y8736D01*
X10401Y8759D01*
X10408Y8782D01*
X10412Y8807D01*
X10413Y8831D01*
X10412Y8856D01*
X10408Y8881D01*
X10401Y8904D01*
X10392Y8927D01*
X10380Y8949D01*
X10365Y8969D01*
X10349Y8987D01*
X10330Y9004D01*
X10310Y9018D01*
X10289Y9030D01*
X10266Y9040D01*
X10242Y9046D01*
X10218Y9051D01*
X10193Y9052D01*
D02*
G37*
G36*
X6846Y8894D02*
X6822Y8893D01*
X6797Y8889D01*
X6774Y8882D01*
X6751Y8873D01*
X6729Y8861D01*
X6709Y8846D01*
X6691Y8830D01*
X6674Y8811D01*
X6660Y8791D01*
X6648Y8770D01*
X6638Y8747D01*
X6632Y8723D01*
X6627Y8699D01*
X6626Y8674D01*
X6627Y8649D01*
X6632Y8625D01*
X6638Y8601D01*
X6648Y8578D01*
X6660Y8557D01*
X6674Y8537D01*
X6691Y8518D01*
X6709Y8502D01*
X6729Y8487D01*
X6751Y8475D01*
X6774Y8466D01*
X6797Y8459D01*
X6822Y8455D01*
X6846Y8454D01*
X6871Y8455D01*
X6896Y8459D01*
X6919Y8466D01*
X6942Y8475D01*
X6964Y8487D01*
X6984Y8502D01*
X7002Y8518D01*
X7019Y8537D01*
X7033Y8557D01*
X7045Y8578D01*
X7055Y8601D01*
X7061Y8625D01*
X7065Y8649D01*
X7067Y8674D01*
X7065Y8699D01*
X7061Y8723D01*
X7055Y8747D01*
X7045Y8770D01*
X7033Y8791D01*
X7019Y8811D01*
X7002Y8830D01*
X6984Y8846D01*
X6964Y8861D01*
X6942Y8873D01*
X6919Y8882D01*
X6896Y8889D01*
X6871Y8893D01*
X6846Y8894D01*
D02*
G37*
G36*
X3782Y8549D02*
X3440D01*
Y8207D01*
X3458Y8210D01*
X3492Y8217D01*
X3525Y8227D01*
X3557Y8241D01*
X3588Y8257D01*
X3617Y8275D01*
X3644Y8296D01*
X3670Y8319D01*
X3693Y8345D01*
X3714Y8372D01*
X3732Y8401D01*
X3748Y8432D01*
X3762Y8464D01*
X3772Y8497D01*
X3779Y8531D01*
X3782Y8549D01*
D02*
G37*
G36*
X3340D02*
X2998D01*
X3000Y8531D01*
X3008Y8497D01*
X3018Y8464D01*
X3031Y8432D01*
X3047Y8401D01*
X3066Y8372D01*
X3087Y8345D01*
X3110Y8319D01*
X3135Y8296D01*
X3163Y8275D01*
X3192Y8257D01*
X3223Y8241D01*
X3254Y8227D01*
X3287Y8217D01*
X3321Y8210D01*
X3340Y8207D01*
Y8549D01*
D02*
G37*
G36*
X2785Y8994D02*
X1994D01*
Y8204D01*
X2785D01*
Y8994D01*
D02*
G37*
G36*
X10841Y8483D02*
X10816Y8481D01*
X10792Y8477D01*
X10768Y8470D01*
X10745Y8461D01*
X10724Y8449D01*
X10704Y8435D01*
X10685Y8418D01*
X10669Y8400D01*
X10654Y8379D01*
X10642Y8358D01*
X10633Y8335D01*
X10626Y8311D01*
X10622Y8287D01*
X10621Y8262D01*
X10622Y8238D01*
X10626Y8213D01*
X10633Y8189D01*
X10642Y8167D01*
X10654Y8145D01*
X10669Y8125D01*
X10685Y8106D01*
X10704Y8090D01*
X10724Y8076D01*
X10745Y8064D01*
X10768Y8054D01*
X10792Y8047D01*
X10816Y8043D01*
X10841Y8042D01*
X10866Y8043D01*
X10890Y8047D01*
X10914Y8054D01*
X10937Y8064D01*
X10958Y8076D01*
X10978Y8090D01*
X10997Y8106D01*
X11013Y8125D01*
X11028Y8145D01*
X11040Y8167D01*
X11049Y8189D01*
X11056Y8213D01*
X11060Y8238D01*
X11061Y8262D01*
X11060Y8287D01*
X11056Y8311D01*
X11049Y8335D01*
X11040Y8358D01*
X11028Y8379D01*
X11013Y8400D01*
X10997Y8418D01*
X10978Y8435D01*
X10958Y8449D01*
X10937Y8461D01*
X10914Y8470D01*
X10890Y8477D01*
X10866Y8481D01*
X10841Y8483D01*
D02*
G37*
G36*
X10843Y7763D02*
X10818Y7761D01*
X10793Y7757D01*
X10770Y7750D01*
X10747Y7741D01*
X10725Y7729D01*
X10705Y7714D01*
X10687Y7698D01*
X10670Y7680D01*
X10656Y7659D01*
X10644Y7638D01*
X10634Y7615D01*
X10628Y7591D01*
X10623Y7567D01*
X10622Y7542D01*
X10623Y7517D01*
X10628Y7493D01*
X10634Y7469D01*
X10644Y7446D01*
X10656Y7425D01*
X10670Y7405D01*
X10687Y7386D01*
X10705Y7370D01*
X10725Y7355D01*
X10747Y7344D01*
X10770Y7334D01*
X10793Y7327D01*
X10818Y7323D01*
X10843Y7322D01*
X10867Y7323D01*
X10892Y7327D01*
X10915Y7334D01*
X10938Y7344D01*
X10960Y7355D01*
X10980Y7370D01*
X10998Y7386D01*
X11015Y7405D01*
X11029Y7425D01*
X11041Y7446D01*
X11051Y7469D01*
X11057Y7493D01*
X11062Y7517D01*
X11063Y7542D01*
X11062Y7567D01*
X11057Y7591D01*
X11051Y7615D01*
X11041Y7638D01*
X11029Y7659D01*
X11015Y7680D01*
X10998Y7698D01*
X10980Y7714D01*
X10960Y7729D01*
X10938Y7741D01*
X10915Y7750D01*
X10892Y7757D01*
X10867Y7761D01*
X10843Y7763D01*
D02*
G37*
G36*
X3390Y7995D02*
X3355Y7993D01*
X3321Y7989D01*
X3287Y7981D01*
X3254Y7971D01*
X3223Y7958D01*
X3192Y7942D01*
X3163Y7923D01*
X3135Y7902D01*
X3110Y7879D01*
X3087Y7854D01*
X3066Y7826D01*
X3047Y7797D01*
X3031Y7766D01*
X3018Y7735D01*
X3008Y7702D01*
X3000Y7668D01*
X2996Y7634D01*
X2994Y7599D01*
X2996Y7565D01*
X3000Y7531D01*
X3008Y7497D01*
X3018Y7464D01*
X3031Y7432D01*
X3047Y7401D01*
X3066Y7372D01*
X3087Y7345D01*
X3110Y7319D01*
X3135Y7296D01*
X3163Y7275D01*
X3192Y7257D01*
X3223Y7241D01*
X3254Y7227D01*
X3287Y7217D01*
X3321Y7210D01*
X3355Y7205D01*
X3390Y7204D01*
X3424Y7205D01*
X3458Y7210D01*
X3492Y7217D01*
X3525Y7227D01*
X3557Y7241D01*
X3588Y7257D01*
X3617Y7275D01*
X3644Y7296D01*
X3670Y7319D01*
X3693Y7345D01*
X3714Y7372D01*
X3732Y7401D01*
X3748Y7432D01*
X3762Y7464D01*
X3772Y7497D01*
X3779Y7531D01*
X3784Y7565D01*
X3785Y7599D01*
X3784Y7634D01*
X3779Y7668D01*
X3772Y7702D01*
X3762Y7735D01*
X3748Y7766D01*
X3732Y7797D01*
X3714Y7826D01*
X3693Y7854D01*
X3670Y7879D01*
X3644Y7902D01*
X3617Y7923D01*
X3588Y7942D01*
X3557Y7958D01*
X3525Y7971D01*
X3492Y7981D01*
X3458Y7989D01*
X3424Y7993D01*
X3390Y7995D01*
D02*
G37*
G36*
X2390D02*
X2355Y7993D01*
X2321Y7989D01*
X2287Y7981D01*
X2254Y7971D01*
X2223Y7958D01*
X2192Y7942D01*
X2163Y7923D01*
X2135Y7902D01*
X2110Y7879D01*
X2087Y7854D01*
X2066Y7826D01*
X2047Y7797D01*
X2031Y7766D01*
X2018Y7735D01*
X2008Y7702D01*
X2000Y7668D01*
X1996Y7634D01*
X1994Y7599D01*
X1996Y7565D01*
X2000Y7531D01*
X2008Y7497D01*
X2018Y7464D01*
X2031Y7432D01*
X2047Y7401D01*
X2066Y7372D01*
X2087Y7345D01*
X2110Y7319D01*
X2135Y7296D01*
X2163Y7275D01*
X2192Y7257D01*
X2223Y7241D01*
X2254Y7227D01*
X2287Y7217D01*
X2321Y7210D01*
X2355Y7205D01*
X2390Y7204D01*
X2424Y7205D01*
X2458Y7210D01*
X2492Y7217D01*
X2525Y7227D01*
X2557Y7241D01*
X2588Y7257D01*
X2617Y7275D01*
X2644Y7296D01*
X2670Y7319D01*
X2693Y7345D01*
X2714Y7372D01*
X2732Y7401D01*
X2748Y7432D01*
X2762Y7464D01*
X2772Y7497D01*
X2779Y7531D01*
X2784Y7565D01*
X2785Y7599D01*
X2784Y7634D01*
X2779Y7668D01*
X2772Y7702D01*
X2762Y7735D01*
X2748Y7766D01*
X2732Y7797D01*
X2714Y7826D01*
X2693Y7854D01*
X2670Y7879D01*
X2644Y7902D01*
X2617Y7923D01*
X2588Y7942D01*
X2557Y7958D01*
X2525Y7971D01*
X2492Y7981D01*
X2458Y7989D01*
X2424Y7993D01*
X2390Y7995D01*
D02*
G37*
G36*
X18805Y7398D02*
X18780Y7397D01*
X18756Y7393D01*
X18732Y7386D01*
X18709Y7377D01*
X18688Y7365D01*
X18668Y7350D01*
X18649Y7334D01*
X18633Y7315D01*
X18618Y7295D01*
X18607Y7274D01*
X18597Y7251D01*
X18590Y7227D01*
X18586Y7203D01*
X18585Y7178D01*
X18586Y7153D01*
X18590Y7129D01*
X18597Y7105D01*
X18607Y7082D01*
X18618Y7061D01*
X18633Y7041D01*
X18649Y7022D01*
X18668Y7006D01*
X18688Y6991D01*
X18709Y6979D01*
X18732Y6970D01*
X18756Y6963D01*
X18780Y6959D01*
X18805Y6958D01*
X18830Y6959D01*
X18854Y6963D01*
X18878Y6970D01*
X18901Y6979D01*
X18922Y6991D01*
X18943Y7006D01*
X18961Y7022D01*
X18977Y7041D01*
X18992Y7061D01*
X19004Y7082D01*
X19013Y7105D01*
X19020Y7129D01*
X19024Y7153D01*
X19026Y7178D01*
X19024Y7203D01*
X19020Y7227D01*
X19013Y7251D01*
X19004Y7274D01*
X18992Y7295D01*
X18977Y7315D01*
X18961Y7334D01*
X18943Y7350D01*
X18922Y7365D01*
X18901Y7377D01*
X18878Y7386D01*
X18854Y7393D01*
X18830Y7397D01*
X18805Y7398D01*
D02*
G37*
G36*
X9242Y7268D02*
X9217Y7266D01*
X9193Y7262D01*
X9169Y7255D01*
X9146Y7246D01*
X9125Y7234D01*
X9105Y7220D01*
X9086Y7203D01*
X9070Y7185D01*
X9055Y7165D01*
X9044Y7143D01*
X9034Y7120D01*
X9027Y7096D01*
X9023Y7072D01*
X9022Y7047D01*
X9023Y7023D01*
X9027Y6998D01*
X9034Y6974D01*
X9044Y6952D01*
X9003Y6922D01*
X8983Y6907D01*
X8964Y6891D01*
X8948Y6872D01*
X8933Y6852D01*
X8921Y6831D01*
X8912Y6808D01*
X8905Y6784D01*
X8901Y6760D01*
X8900Y6735D01*
X8901Y6710D01*
X8905Y6686D01*
X8912Y6662D01*
X8921Y6639D01*
X8933Y6618D01*
X8948Y6598D01*
X8964Y6579D01*
X8983Y6563D01*
X9003Y6548D01*
X9024Y6536D01*
X9047Y6527D01*
X9071Y6520D01*
X9095Y6516D01*
X9120Y6515D01*
X9145Y6516D01*
X9169Y6520D01*
X9193Y6527D01*
X9216Y6536D01*
X9237Y6548D01*
X9258Y6563D01*
X9276Y6579D01*
X9292Y6598D01*
X9307Y6618D01*
X9319Y6639D01*
X9328Y6662D01*
X9335Y6686D01*
X9339Y6710D01*
X9341Y6735D01*
X9339Y6760D01*
X9335Y6784D01*
X9328Y6808D01*
X9319Y6831D01*
X9359Y6861D01*
X9380Y6875D01*
X9398Y6891D01*
X9414Y6910D01*
X9429Y6930D01*
X9441Y6952D01*
X9450Y6974D01*
X9457Y6998D01*
X9461Y7023D01*
X9463Y7047D01*
X9461Y7072D01*
X9457Y7096D01*
X9450Y7120D01*
X9441Y7143D01*
X9429Y7165D01*
X9414Y7185D01*
X9398Y7203D01*
X9380Y7220D01*
X9359Y7234D01*
X9338Y7246D01*
X9315Y7255D01*
X9291Y7262D01*
X9267Y7266D01*
X9242Y7268D01*
D02*
G37*
G36*
X3390Y6995D02*
X3355Y6993D01*
X3321Y6989D01*
X3287Y6981D01*
X3254Y6971D01*
X3223Y6958D01*
X3192Y6942D01*
X3163Y6923D01*
X3135Y6902D01*
X3110Y6879D01*
X3087Y6854D01*
X3066Y6826D01*
X3047Y6797D01*
X3031Y6766D01*
X3018Y6735D01*
X3008Y6702D01*
X3000Y6668D01*
X2996Y6634D01*
X2994Y6599D01*
X2996Y6565D01*
X3000Y6531D01*
X3008Y6497D01*
X3018Y6464D01*
X3031Y6432D01*
X3047Y6401D01*
X3066Y6372D01*
X3087Y6345D01*
X3110Y6319D01*
X3135Y6296D01*
X3163Y6275D01*
X3192Y6257D01*
X3223Y6241D01*
X3254Y6227D01*
X3287Y6217D01*
X3321Y6210D01*
X3355Y6205D01*
X3390Y6204D01*
X3424Y6205D01*
X3458Y6210D01*
X3492Y6217D01*
X3525Y6227D01*
X3557Y6241D01*
X3588Y6257D01*
X3617Y6275D01*
X3644Y6296D01*
X3670Y6319D01*
X3693Y6345D01*
X3714Y6372D01*
X3732Y6401D01*
X3748Y6432D01*
X3762Y6464D01*
X3772Y6497D01*
X3779Y6531D01*
X3784Y6565D01*
X3785Y6599D01*
X3784Y6634D01*
X3779Y6668D01*
X3772Y6702D01*
X3762Y6735D01*
X3748Y6766D01*
X3732Y6797D01*
X3714Y6826D01*
X3693Y6854D01*
X3670Y6879D01*
X3644Y6902D01*
X3617Y6923D01*
X3588Y6942D01*
X3557Y6958D01*
X3525Y6971D01*
X3492Y6981D01*
X3458Y6989D01*
X3424Y6993D01*
X3390Y6995D01*
D02*
G37*
G36*
X2390D02*
X2355Y6993D01*
X2321Y6989D01*
X2287Y6981D01*
X2254Y6971D01*
X2223Y6958D01*
X2192Y6942D01*
X2163Y6923D01*
X2135Y6902D01*
X2110Y6879D01*
X2087Y6854D01*
X2066Y6826D01*
X2047Y6797D01*
X2031Y6766D01*
X2018Y6735D01*
X2008Y6702D01*
X2000Y6668D01*
X1996Y6634D01*
X1994Y6599D01*
X1996Y6565D01*
X2000Y6531D01*
X2008Y6497D01*
X2018Y6464D01*
X2031Y6432D01*
X2047Y6401D01*
X2066Y6372D01*
X2087Y6345D01*
X2110Y6319D01*
X2135Y6296D01*
X2163Y6275D01*
X2192Y6257D01*
X2223Y6241D01*
X2254Y6227D01*
X2287Y6217D01*
X2321Y6210D01*
X2355Y6205D01*
X2390Y6204D01*
X2424Y6205D01*
X2458Y6210D01*
X2492Y6217D01*
X2525Y6227D01*
X2557Y6241D01*
X2588Y6257D01*
X2617Y6275D01*
X2644Y6296D01*
X2670Y6319D01*
X2693Y6345D01*
X2714Y6372D01*
X2732Y6401D01*
X2748Y6432D01*
X2762Y6464D01*
X2772Y6497D01*
X2779Y6531D01*
X2784Y6565D01*
X2785Y6599D01*
X2784Y6634D01*
X2779Y6668D01*
X2772Y6702D01*
X2762Y6735D01*
X2748Y6766D01*
X2732Y6797D01*
X2714Y6826D01*
X2693Y6854D01*
X2670Y6879D01*
X2644Y6902D01*
X2617Y6923D01*
X2588Y6942D01*
X2557Y6958D01*
X2525Y6971D01*
X2492Y6981D01*
X2458Y6989D01*
X2424Y6993D01*
X2390Y6995D01*
D02*
G37*
G36*
X22315Y6690D02*
X22079D01*
X22048Y6688D01*
X22017Y6684D01*
X21987Y6676D01*
X21957Y6666D01*
X21929Y6652D01*
X21903Y6636D01*
X21878Y6618D01*
X21855Y6597D01*
X21834Y6574D01*
X21815Y6549D01*
X21799Y6522D01*
X21786Y6494D01*
X21775Y6465D01*
X21768Y6435D01*
X21763Y6404D01*
X21762Y6373D01*
X21763Y6342D01*
X21768Y6311D01*
X21775Y6281D01*
X21786Y6252D01*
X21799Y6223D01*
X21815Y6197D01*
X21834Y6172D01*
X21855Y6149D01*
X21878Y6128D01*
X21903Y6109D01*
X21929Y6093D01*
X21957Y6080D01*
X21987Y6070D01*
X22017Y6062D01*
X22048Y6057D01*
X22079Y6056D01*
X22315D01*
X22346Y6057D01*
X22377Y6062D01*
X22407Y6070D01*
X22436Y6080D01*
X22464Y6093D01*
X22491Y6109D01*
X22516Y6128D01*
X22539Y6149D01*
X22560Y6172D01*
X22578Y6197D01*
X22594Y6223D01*
X22608Y6252D01*
X22618Y6281D01*
X22626Y6311D01*
X22630Y6342D01*
X22632Y6373D01*
X22630Y6404D01*
X22626Y6435D01*
X22618Y6465D01*
X22608Y6494D01*
X22594Y6522D01*
X22578Y6549D01*
X22560Y6574D01*
X22539Y6597D01*
X22516Y6618D01*
X22491Y6636D01*
X22464Y6652D01*
X22436Y6666D01*
X22407Y6676D01*
X22377Y6684D01*
X22346Y6688D01*
X22315Y6690D01*
D02*
G37*
G36*
X20819D02*
X20583D01*
X20552Y6688D01*
X20521Y6684D01*
X20491Y6676D01*
X20461Y6666D01*
X20433Y6652D01*
X20407Y6636D01*
X20382Y6618D01*
X20359Y6597D01*
X20338Y6574D01*
X20319Y6549D01*
X20303Y6522D01*
X20290Y6494D01*
X20279Y6465D01*
X20272Y6435D01*
X20267Y6404D01*
X20266Y6373D01*
X20267Y6342D01*
X20272Y6311D01*
X20279Y6281D01*
X20290Y6252D01*
X20303Y6223D01*
X20319Y6197D01*
X20338Y6172D01*
X20359Y6149D01*
X20382Y6128D01*
X20407Y6109D01*
X20433Y6093D01*
X20461Y6080D01*
X20491Y6070D01*
X20521Y6062D01*
X20552Y6057D01*
X20583Y6056D01*
X20819D01*
X20850Y6057D01*
X20881Y6062D01*
X20911Y6070D01*
X20940Y6080D01*
X20968Y6093D01*
X20995Y6109D01*
X21020Y6128D01*
X21043Y6149D01*
X21064Y6172D01*
X21082Y6197D01*
X21098Y6223D01*
X21112Y6252D01*
X21122Y6281D01*
X21130Y6311D01*
X21134Y6342D01*
X21136Y6373D01*
X21134Y6404D01*
X21130Y6435D01*
X21122Y6465D01*
X21112Y6494D01*
X21098Y6522D01*
X21082Y6549D01*
X21064Y6574D01*
X21043Y6597D01*
X21020Y6618D01*
X20995Y6636D01*
X20968Y6652D01*
X20940Y6666D01*
X20911Y6676D01*
X20881Y6684D01*
X20850Y6688D01*
X20819Y6690D01*
D02*
G37*
G36*
X6305Y6247D02*
X6280Y6245D01*
X6256Y6241D01*
X6232Y6234D01*
X6209Y6225D01*
X6188Y6213D01*
X6168Y6199D01*
X6149Y6182D01*
X6133Y6164D01*
X6118Y6144D01*
X6107Y6122D01*
X6097Y6099D01*
X6090Y6075D01*
X6086Y6051D01*
X6085Y6026D01*
X6086Y6002D01*
X6090Y5977D01*
X6097Y5954D01*
X6107Y5931D01*
X6118Y5909D01*
X6133Y5889D01*
X6149Y5871D01*
X6168Y5854D01*
X6188Y5840D01*
X6209Y5828D01*
X6232Y5818D01*
X6256Y5811D01*
X6280Y5807D01*
X6305Y5806D01*
X6330Y5807D01*
X6354Y5811D01*
X6378Y5818D01*
X6401Y5828D01*
X6422Y5840D01*
X6443Y5854D01*
X6461Y5871D01*
X6477Y5889D01*
X6492Y5909D01*
X6504Y5931D01*
X6513Y5954D01*
X6520Y5977D01*
X6524Y6002D01*
X6526Y6026D01*
X6524Y6051D01*
X6520Y6075D01*
X6513Y6099D01*
X6504Y6122D01*
X6492Y6144D01*
X6477Y6164D01*
X6461Y6182D01*
X6443Y6199D01*
X6422Y6213D01*
X6401Y6225D01*
X6378Y6234D01*
X6354Y6241D01*
X6330Y6245D01*
X6305Y6247D01*
D02*
G37*
G36*
X3440Y5991D02*
Y5649D01*
X3782D01*
X3779Y5668D01*
X3772Y5702D01*
X3762Y5735D01*
X3748Y5766D01*
X3732Y5797D01*
X3714Y5826D01*
X3693Y5854D01*
X3670Y5879D01*
X3644Y5902D01*
X3617Y5923D01*
X3588Y5942D01*
X3557Y5958D01*
X3525Y5971D01*
X3492Y5981D01*
X3458Y5989D01*
X3440Y5991D01*
D02*
G37*
G36*
X3340D02*
X3321Y5989D01*
X3287Y5981D01*
X3254Y5971D01*
X3223Y5958D01*
X3192Y5942D01*
X3163Y5923D01*
X3135Y5902D01*
X3110Y5879D01*
X3087Y5854D01*
X3066Y5826D01*
X3047Y5797D01*
X3031Y5766D01*
X3018Y5735D01*
X3008Y5702D01*
X3000Y5668D01*
X2998Y5649D01*
X3340D01*
Y5991D01*
D02*
G37*
G36*
X3782Y5549D02*
X3440D01*
Y5207D01*
X3458Y5210D01*
X3492Y5217D01*
X3525Y5227D01*
X3557Y5241D01*
X3588Y5257D01*
X3617Y5275D01*
X3644Y5296D01*
X3670Y5319D01*
X3693Y5345D01*
X3714Y5372D01*
X3732Y5401D01*
X3748Y5432D01*
X3762Y5464D01*
X3772Y5497D01*
X3779Y5531D01*
X3782Y5549D01*
D02*
G37*
G36*
X3340D02*
X2998D01*
X3000Y5531D01*
X3008Y5497D01*
X3018Y5464D01*
X3031Y5432D01*
X3047Y5401D01*
X3066Y5372D01*
X3087Y5345D01*
X3110Y5319D01*
X3135Y5296D01*
X3163Y5275D01*
X3192Y5257D01*
X3223Y5241D01*
X3254Y5227D01*
X3287Y5217D01*
X3321Y5210D01*
X3340Y5207D01*
Y5549D01*
D02*
G37*
G36*
X2390Y5995D02*
X2355Y5993D01*
X2321Y5989D01*
X2287Y5981D01*
X2254Y5971D01*
X2223Y5958D01*
X2192Y5942D01*
X2163Y5923D01*
X2135Y5902D01*
X2110Y5879D01*
X2087Y5854D01*
X2066Y5826D01*
X2047Y5797D01*
X2031Y5766D01*
X2018Y5735D01*
X2008Y5702D01*
X2000Y5668D01*
X1996Y5634D01*
X1994Y5599D01*
X1996Y5565D01*
X2000Y5531D01*
X2008Y5497D01*
X2018Y5464D01*
X2031Y5432D01*
X2047Y5401D01*
X2066Y5372D01*
X2087Y5345D01*
X2110Y5319D01*
X2135Y5296D01*
X2163Y5275D01*
X2192Y5257D01*
X2223Y5241D01*
X2254Y5227D01*
X2287Y5217D01*
X2321Y5210D01*
X2355Y5205D01*
X2390Y5204D01*
X2424Y5205D01*
X2458Y5210D01*
X2492Y5217D01*
X2525Y5227D01*
X2557Y5241D01*
X2588Y5257D01*
X2617Y5275D01*
X2644Y5296D01*
X2670Y5319D01*
X2693Y5345D01*
X2714Y5372D01*
X2732Y5401D01*
X2748Y5432D01*
X2762Y5464D01*
X2772Y5497D01*
X2779Y5531D01*
X2784Y5565D01*
X2785Y5599D01*
X2784Y5634D01*
X2779Y5668D01*
X2772Y5702D01*
X2762Y5735D01*
X2748Y5766D01*
X2732Y5797D01*
X2714Y5826D01*
X2693Y5854D01*
X2670Y5879D01*
X2644Y5902D01*
X2617Y5923D01*
X2588Y5942D01*
X2557Y5958D01*
X2525Y5971D01*
X2492Y5981D01*
X2458Y5989D01*
X2424Y5993D01*
X2390Y5995D01*
D02*
G37*
G36*
X8805Y5056D02*
X8780Y5054D01*
X8756Y5050D01*
X8732Y5043D01*
X8709Y5034D01*
X8688Y5022D01*
X8668Y5008D01*
X8649Y4991D01*
X8633Y4973D01*
X8618Y4953D01*
X8607Y4931D01*
X8597Y4908D01*
X8590Y4884D01*
X8586Y4860D01*
X8585Y4835D01*
X8586Y4811D01*
X8590Y4786D01*
X8597Y4763D01*
X8607Y4740D01*
X8618Y4718D01*
X8633Y4698D01*
X8649Y4680D01*
X8668Y4663D01*
X8688Y4649D01*
X8709Y4637D01*
X8732Y4627D01*
X8756Y4621D01*
X8780Y4616D01*
X8805Y4615D01*
X8830Y4616D01*
X8854Y4621D01*
X8878Y4627D01*
X8901Y4637D01*
X8922Y4649D01*
X8943Y4663D01*
X8961Y4680D01*
X8977Y4698D01*
X8992Y4718D01*
X9004Y4740D01*
X9013Y4763D01*
X9020Y4786D01*
X9024Y4811D01*
X9026Y4835D01*
X9024Y4860D01*
X9020Y4884D01*
X9013Y4908D01*
X9004Y4931D01*
X8992Y4953D01*
X8977Y4973D01*
X8961Y4991D01*
X8943Y5008D01*
X8922Y5022D01*
X8901Y5034D01*
X8878Y5043D01*
X8854Y5050D01*
X8830Y5054D01*
X8805Y5056D01*
D02*
G37*
G36*
X9888Y4800D02*
X9863Y4799D01*
X9839Y4794D01*
X9815Y4788D01*
X9792Y4778D01*
X9771Y4766D01*
X9750Y4752D01*
X9732Y4735D01*
X9715Y4717D01*
X9701Y4697D01*
X9689Y4675D01*
X9680Y4652D01*
X9673Y4629D01*
X9669Y4604D01*
X9667Y4580D01*
X9669Y4555D01*
X9673Y4530D01*
X9680Y4507D01*
X9689Y4484D01*
X9701Y4462D01*
X9715Y4442D01*
X9732Y4424D01*
X9750Y4407D01*
X9771Y4393D01*
X9792Y4381D01*
X9815Y4371D01*
X9839Y4365D01*
X9863Y4360D01*
X9888Y4359D01*
X9912Y4360D01*
X9937Y4365D01*
X9961Y4371D01*
X9983Y4381D01*
X10005Y4393D01*
X10025Y4407D01*
X10044Y4424D01*
X10060Y4442D01*
X10074Y4462D01*
X10086Y4484D01*
X10096Y4507D01*
X10103Y4530D01*
X10107Y4555D01*
X10108Y4580D01*
X10107Y4604D01*
X10103Y4629D01*
X10096Y4652D01*
X10086Y4675D01*
X10074Y4697D01*
X10060Y4717D01*
X10044Y4735D01*
X10025Y4752D01*
X10005Y4766D01*
X9983Y4778D01*
X9961Y4788D01*
X9937Y4794D01*
X9912Y4799D01*
X9888Y4800D01*
D02*
G37*
G36*
X3390Y4995D02*
X3355Y4993D01*
X3321Y4989D01*
X3287Y4981D01*
X3254Y4971D01*
X3223Y4958D01*
X3192Y4942D01*
X3163Y4923D01*
X3135Y4902D01*
X3110Y4879D01*
X3087Y4854D01*
X3066Y4826D01*
X3047Y4797D01*
X3031Y4766D01*
X3018Y4735D01*
X3008Y4702D01*
X3000Y4668D01*
X2996Y4634D01*
X2994Y4599D01*
X2996Y4565D01*
X3000Y4530D01*
X3008Y4497D01*
X3018Y4464D01*
X3031Y4432D01*
X3047Y4401D01*
X3066Y4372D01*
X3087Y4345D01*
X3110Y4319D01*
X3135Y4296D01*
X3163Y4275D01*
X3192Y4257D01*
X3223Y4241D01*
X3254Y4227D01*
X3287Y4217D01*
X3321Y4210D01*
X3355Y4205D01*
X3390Y4204D01*
X3424Y4205D01*
X3458Y4210D01*
X3492Y4217D01*
X3525Y4227D01*
X3557Y4241D01*
X3588Y4257D01*
X3617Y4275D01*
X3644Y4296D01*
X3670Y4319D01*
X3693Y4345D01*
X3714Y4372D01*
X3732Y4401D01*
X3748Y4432D01*
X3762Y4464D01*
X3772Y4497D01*
X3779Y4530D01*
X3784Y4565D01*
X3785Y4599D01*
X3784Y4634D01*
X3779Y4668D01*
X3772Y4702D01*
X3762Y4735D01*
X3748Y4766D01*
X3732Y4797D01*
X3714Y4826D01*
X3693Y4854D01*
X3670Y4879D01*
X3644Y4902D01*
X3617Y4923D01*
X3588Y4942D01*
X3557Y4958D01*
X3525Y4971D01*
X3492Y4981D01*
X3458Y4989D01*
X3424Y4993D01*
X3390Y4995D01*
D02*
G37*
G36*
X2390D02*
X2355Y4993D01*
X2321Y4989D01*
X2287Y4981D01*
X2254Y4971D01*
X2223Y4958D01*
X2192Y4942D01*
X2163Y4923D01*
X2135Y4902D01*
X2110Y4879D01*
X2087Y4854D01*
X2066Y4826D01*
X2047Y4797D01*
X2031Y4766D01*
X2018Y4735D01*
X2008Y4702D01*
X2000Y4668D01*
X1996Y4634D01*
X1994Y4599D01*
X1996Y4565D01*
X2000Y4530D01*
X2008Y4497D01*
X2018Y4464D01*
X2031Y4432D01*
X2047Y4401D01*
X2066Y4372D01*
X2087Y4345D01*
X2110Y4319D01*
X2135Y4296D01*
X2163Y4275D01*
X2192Y4257D01*
X2223Y4241D01*
X2254Y4227D01*
X2287Y4217D01*
X2321Y4210D01*
X2355Y4205D01*
X2390Y4204D01*
X2424Y4205D01*
X2458Y4210D01*
X2492Y4217D01*
X2525Y4227D01*
X2557Y4241D01*
X2588Y4257D01*
X2617Y4275D01*
X2644Y4296D01*
X2670Y4319D01*
X2693Y4345D01*
X2714Y4372D01*
X2732Y4401D01*
X2748Y4432D01*
X2762Y4464D01*
X2772Y4497D01*
X2779Y4530D01*
X2784Y4565D01*
X2785Y4599D01*
X2784Y4634D01*
X2779Y4668D01*
X2772Y4702D01*
X2762Y4735D01*
X2748Y4766D01*
X2732Y4797D01*
X2714Y4826D01*
X2693Y4854D01*
X2670Y4879D01*
X2644Y4902D01*
X2617Y4923D01*
X2588Y4942D01*
X2557Y4958D01*
X2525Y4971D01*
X2492Y4981D01*
X2458Y4989D01*
X2424Y4993D01*
X2390Y4995D01*
D02*
G37*
G36*
X10537Y4288D02*
X10513Y4287D01*
X10488Y4283D01*
X10465Y4276D01*
X10442Y4266D01*
X10420Y4254D01*
X10400Y4240D01*
X10382Y4224D01*
X10365Y4205D01*
X10351Y4185D01*
X10339Y4163D01*
X10329Y4141D01*
X10323Y4117D01*
X10318Y4092D01*
X10317Y4068D01*
X10318Y4043D01*
X10323Y4019D01*
X10329Y3995D01*
X10339Y3972D01*
X10351Y3950D01*
X10365Y3930D01*
X10382Y3912D01*
X10400Y3895D01*
X10420Y3881D01*
X10442Y3869D01*
X10465Y3860D01*
X10488Y3853D01*
X10513Y3849D01*
X10537Y3847D01*
X10562Y3849D01*
X10586Y3853D01*
X10610Y3860D01*
X10633Y3869D01*
X10655Y3881D01*
X10675Y3895D01*
X10693Y3912D01*
X10710Y3930D01*
X10724Y3950D01*
X10736Y3972D01*
X10745Y3995D01*
X10752Y4019D01*
X10756Y4043D01*
X10758Y4068D01*
X10756Y4092D01*
X10752Y4117D01*
X10745Y4141D01*
X10736Y4163D01*
X10724Y4185D01*
X10710Y4205D01*
X10693Y4224D01*
X10675Y4240D01*
X10655Y4254D01*
X10633Y4266D01*
X10610Y4276D01*
X10586Y4283D01*
X10562Y4287D01*
X10537Y4288D01*
D02*
G37*
G36*
X3390Y3995D02*
X3355Y3993D01*
X3321Y3989D01*
X3287Y3981D01*
X3254Y3971D01*
X3223Y3958D01*
X3192Y3942D01*
X3163Y3923D01*
X3135Y3902D01*
X3110Y3879D01*
X3087Y3854D01*
X3066Y3826D01*
X3047Y3797D01*
X3031Y3766D01*
X3018Y3735D01*
X3008Y3702D01*
X3000Y3668D01*
X2996Y3634D01*
X2994Y3599D01*
X2996Y3565D01*
X3000Y3530D01*
X3008Y3497D01*
X3018Y3464D01*
X3031Y3432D01*
X3047Y3401D01*
X3066Y3372D01*
X3087Y3345D01*
X3110Y3319D01*
X3135Y3296D01*
X3163Y3275D01*
X3192Y3257D01*
X3223Y3241D01*
X3254Y3227D01*
X3287Y3217D01*
X3321Y3210D01*
X3355Y3205D01*
X3390Y3204D01*
X3424Y3205D01*
X3458Y3210D01*
X3492Y3217D01*
X3525Y3227D01*
X3557Y3241D01*
X3588Y3257D01*
X3617Y3275D01*
X3644Y3296D01*
X3670Y3319D01*
X3693Y3345D01*
X3714Y3372D01*
X3732Y3401D01*
X3748Y3432D01*
X3762Y3464D01*
X3772Y3497D01*
X3779Y3530D01*
X3784Y3565D01*
X3785Y3599D01*
X3784Y3634D01*
X3779Y3668D01*
X3772Y3702D01*
X3762Y3735D01*
X3748Y3766D01*
X3732Y3797D01*
X3714Y3826D01*
X3693Y3854D01*
X3670Y3879D01*
X3644Y3902D01*
X3617Y3923D01*
X3588Y3942D01*
X3557Y3958D01*
X3525Y3971D01*
X3492Y3981D01*
X3458Y3989D01*
X3424Y3993D01*
X3390Y3995D01*
D02*
G37*
G36*
X2390D02*
X2355Y3993D01*
X2321Y3989D01*
X2287Y3981D01*
X2254Y3971D01*
X2223Y3958D01*
X2192Y3942D01*
X2163Y3923D01*
X2135Y3902D01*
X2110Y3879D01*
X2087Y3854D01*
X2066Y3826D01*
X2047Y3797D01*
X2031Y3766D01*
X2018Y3735D01*
X2008Y3702D01*
X2000Y3668D01*
X1996Y3634D01*
X1994Y3599D01*
X1996Y3565D01*
X2000Y3530D01*
X2008Y3497D01*
X2018Y3464D01*
X2031Y3432D01*
X2047Y3401D01*
X2066Y3372D01*
X2087Y3345D01*
X2110Y3319D01*
X2135Y3296D01*
X2163Y3275D01*
X2192Y3257D01*
X2223Y3241D01*
X2254Y3227D01*
X2287Y3217D01*
X2321Y3210D01*
X2355Y3205D01*
X2390Y3204D01*
X2424Y3205D01*
X2458Y3210D01*
X2492Y3217D01*
X2525Y3227D01*
X2557Y3241D01*
X2588Y3257D01*
X2617Y3275D01*
X2644Y3296D01*
X2670Y3319D01*
X2693Y3345D01*
X2714Y3372D01*
X2732Y3401D01*
X2748Y3432D01*
X2762Y3464D01*
X2772Y3497D01*
X2779Y3530D01*
X2784Y3565D01*
X2785Y3599D01*
X2784Y3634D01*
X2779Y3668D01*
X2772Y3702D01*
X2762Y3735D01*
X2748Y3766D01*
X2732Y3797D01*
X2714Y3826D01*
X2693Y3854D01*
X2670Y3879D01*
X2644Y3902D01*
X2617Y3923D01*
X2588Y3942D01*
X2557Y3958D01*
X2525Y3971D01*
X2492Y3981D01*
X2458Y3989D01*
X2424Y3993D01*
X2390Y3995D01*
D02*
G37*
G36*
X22000Y4798D02*
X21944Y4797D01*
X21888Y4793D01*
X21832Y4785D01*
X21776Y4775D01*
X21722Y4762D01*
X21668Y4746D01*
X21615Y4727D01*
X21563Y4706D01*
X21512Y4681D01*
X21462Y4654D01*
X21414Y4625D01*
X21368Y4593D01*
X21323Y4559D01*
X21281Y4522D01*
X21240Y4484D01*
X21201Y4443D01*
X21164Y4400D01*
X21130Y4355D01*
X21098Y4309D01*
X21069Y4261D01*
X21042Y4211D01*
X21018Y4161D01*
X20996Y4109D01*
X20977Y4055D01*
X20961Y4002D01*
X20948Y3947D01*
X20938Y3891D01*
X20931Y3836D01*
X20926Y3780D01*
X20925Y3723D01*
X20926Y3667D01*
X20931Y3611D01*
X20938Y3555D01*
X20948Y3500D01*
X20961Y3445D01*
X20977Y3391D01*
X20996Y3338D01*
X21018Y3286D01*
X21042Y3235D01*
X21069Y3186D01*
X21098Y3138D01*
X21130Y3091D01*
X21164Y3047D01*
X21201Y3004D01*
X21240Y2963D01*
X21281Y2924D01*
X21323Y2888D01*
X21368Y2853D01*
X21414Y2821D01*
X21462Y2792D01*
X21512Y2765D01*
X21563Y2741D01*
X21615Y2719D01*
X21668Y2701D01*
X21722Y2685D01*
X21776Y2671D01*
X21832Y2661D01*
X21888Y2654D01*
X21944Y2649D01*
X22000Y2648D01*
X22056Y2649D01*
X22112Y2654D01*
X22168Y2661D01*
X22224Y2671D01*
X22278Y2685D01*
X22332Y2701D01*
X22385Y2719D01*
X22437Y2741D01*
X22488Y2765D01*
X22538Y2792D01*
X22586Y2821D01*
X22632Y2853D01*
X22677Y2888D01*
X22719Y2924D01*
X22760Y2963D01*
X22799Y3004D01*
X22836Y3047D01*
X22870Y3091D01*
X22902Y3138D01*
X22931Y3186D01*
X22958Y3235D01*
X22982Y3286D01*
X23004Y3338D01*
X23023Y3391D01*
X23039Y3445D01*
X23052Y3500D01*
X23062Y3555D01*
X23069Y3611D01*
X23074Y3667D01*
X23075Y3723D01*
X23074Y3780D01*
X23069Y3836D01*
X23062Y3891D01*
X23052Y3947D01*
X23039Y4002D01*
X23023Y4055D01*
X23004Y4109D01*
X22982Y4161D01*
X22958Y4211D01*
X22931Y4261D01*
X22902Y4309D01*
X22870Y4355D01*
X22836Y4400D01*
X22799Y4443D01*
X22760Y4484D01*
X22719Y4522D01*
X22677Y4559D01*
X22632Y4593D01*
X22586Y4625D01*
X22538Y4654D01*
X22488Y4681D01*
X22437Y4706D01*
X22385Y4727D01*
X22332Y4746D01*
X22278Y4762D01*
X22224Y4775D01*
X22168Y4785D01*
X22112Y4793D01*
X22056Y4797D01*
X22000Y4798D01*
D02*
G37*
G36*
X21000Y1944D02*
X20975Y1942D01*
X20951Y1938D01*
X20927Y1931D01*
X20904Y1922D01*
X20883Y1910D01*
X20863Y1895D01*
X20844Y1879D01*
X20828Y1861D01*
X20813Y1840D01*
X20801Y1819D01*
X20792Y1796D01*
X20785Y1772D01*
X20781Y1748D01*
X20780Y1723D01*
X20781Y1699D01*
X20785Y1674D01*
X20792Y1650D01*
X20801Y1628D01*
X20813Y1606D01*
X20828Y1586D01*
X20844Y1567D01*
X20863Y1551D01*
X20883Y1537D01*
X20904Y1525D01*
X20927Y1515D01*
X20951Y1508D01*
X20975Y1504D01*
X21000Y1503D01*
X21025Y1504D01*
X21049Y1508D01*
X21073Y1515D01*
X21096Y1525D01*
X21117Y1537D01*
X21137Y1551D01*
X21156Y1567D01*
X21172Y1586D01*
X21187Y1606D01*
X21199Y1628D01*
X21208Y1650D01*
X21215Y1674D01*
X21219Y1699D01*
X21220Y1723D01*
X21219Y1748D01*
X21215Y1772D01*
X21208Y1796D01*
X21199Y1819D01*
X21187Y1840D01*
X21172Y1861D01*
X21156Y1879D01*
X21137Y1895D01*
X21117Y1910D01*
X21096Y1922D01*
X21073Y1931D01*
X21049Y1938D01*
X21025Y1942D01*
X21000Y1944D01*
D02*
G37*
G36*
X20000D02*
X19975Y1942D01*
X19951Y1938D01*
X19927Y1931D01*
X19904Y1922D01*
X19883Y1910D01*
X19863Y1895D01*
X19844Y1879D01*
X19828Y1861D01*
X19813Y1840D01*
X19801Y1819D01*
X19792Y1796D01*
X19785Y1772D01*
X19781Y1748D01*
X19780Y1723D01*
X19781Y1699D01*
X19785Y1674D01*
X19792Y1650D01*
X19801Y1628D01*
X19813Y1606D01*
X19828Y1586D01*
X19844Y1567D01*
X19863Y1551D01*
X19883Y1537D01*
X19904Y1525D01*
X19927Y1515D01*
X19951Y1508D01*
X19975Y1504D01*
X20000Y1503D01*
X20025Y1504D01*
X20049Y1508D01*
X20073Y1515D01*
X20096Y1525D01*
X20117Y1537D01*
X20137Y1551D01*
X20156Y1567D01*
X20172Y1586D01*
X20187Y1606D01*
X20199Y1628D01*
X20208Y1650D01*
X20215Y1674D01*
X20219Y1699D01*
X20220Y1723D01*
X20219Y1748D01*
X20215Y1772D01*
X20208Y1796D01*
X20199Y1819D01*
X20187Y1840D01*
X20172Y1861D01*
X20156Y1879D01*
X20137Y1895D01*
X20117Y1910D01*
X20096Y1922D01*
X20073Y1931D01*
X20049Y1938D01*
X20025Y1942D01*
X20000Y1944D01*
D02*
G37*
G36*
X19000D02*
X18975Y1942D01*
X18951Y1938D01*
X18927Y1931D01*
X18904Y1922D01*
X18883Y1910D01*
X18863Y1895D01*
X18844Y1879D01*
X18828Y1861D01*
X18813Y1840D01*
X18801Y1819D01*
X18792Y1796D01*
X18785Y1772D01*
X18781Y1748D01*
X18780Y1723D01*
X18781Y1699D01*
X18785Y1674D01*
X18792Y1650D01*
X18801Y1628D01*
X18813Y1606D01*
X18828Y1586D01*
X18844Y1567D01*
X18863Y1551D01*
X18883Y1537D01*
X18904Y1525D01*
X18927Y1515D01*
X18951Y1508D01*
X18975Y1504D01*
X19000Y1503D01*
X19025Y1504D01*
X19049Y1508D01*
X19073Y1515D01*
X19096Y1525D01*
X19117Y1537D01*
X19137Y1551D01*
X19156Y1567D01*
X19172Y1586D01*
X19187Y1606D01*
X19199Y1628D01*
X19208Y1650D01*
X19215Y1674D01*
X19219Y1699D01*
X19220Y1723D01*
X19219Y1748D01*
X19215Y1772D01*
X19208Y1796D01*
X19199Y1819D01*
X19187Y1840D01*
X19172Y1861D01*
X19156Y1879D01*
X19137Y1895D01*
X19117Y1910D01*
X19096Y1922D01*
X19073Y1931D01*
X19049Y1938D01*
X19025Y1942D01*
X19000Y1944D01*
D02*
G37*
G36*
X18000D02*
X17975Y1942D01*
X17951Y1938D01*
X17927Y1931D01*
X17904Y1922D01*
X17883Y1910D01*
X17863Y1895D01*
X17844Y1879D01*
X17828Y1861D01*
X17813Y1840D01*
X17801Y1819D01*
X17792Y1796D01*
X17785Y1772D01*
X17781Y1748D01*
X17780Y1723D01*
X17781Y1699D01*
X17785Y1674D01*
X17792Y1650D01*
X17801Y1628D01*
X17813Y1606D01*
X17828Y1586D01*
X17844Y1567D01*
X17863Y1551D01*
X17883Y1537D01*
X17904Y1525D01*
X17927Y1515D01*
X17951Y1508D01*
X17975Y1504D01*
X18000Y1503D01*
X18025Y1504D01*
X18049Y1508D01*
X18073Y1515D01*
X18096Y1525D01*
X18117Y1537D01*
X18137Y1551D01*
X18156Y1567D01*
X18172Y1586D01*
X18187Y1606D01*
X18199Y1628D01*
X18208Y1650D01*
X18215Y1674D01*
X18219Y1699D01*
X18220Y1723D01*
X18219Y1748D01*
X18215Y1772D01*
X18208Y1796D01*
X18199Y1819D01*
X18187Y1840D01*
X18172Y1861D01*
X18156Y1879D01*
X18137Y1895D01*
X18117Y1910D01*
X18096Y1922D01*
X18073Y1931D01*
X18049Y1938D01*
X18025Y1942D01*
X18000Y1944D01*
D02*
G37*
G36*
X17000D02*
X16975Y1942D01*
X16951Y1938D01*
X16927Y1931D01*
X16904Y1922D01*
X16883Y1910D01*
X16863Y1895D01*
X16844Y1879D01*
X16828Y1861D01*
X16813Y1840D01*
X16801Y1819D01*
X16792Y1796D01*
X16785Y1772D01*
X16781Y1748D01*
X16780Y1723D01*
X16781Y1699D01*
X16785Y1674D01*
X16792Y1650D01*
X16801Y1628D01*
X16813Y1606D01*
X16828Y1586D01*
X16844Y1567D01*
X16863Y1551D01*
X16883Y1537D01*
X16904Y1525D01*
X16927Y1515D01*
X16951Y1508D01*
X16975Y1504D01*
X17000Y1503D01*
X17025Y1504D01*
X17049Y1508D01*
X17073Y1515D01*
X17096Y1525D01*
X17117Y1537D01*
X17137Y1551D01*
X17156Y1567D01*
X17172Y1586D01*
X17187Y1606D01*
X17199Y1628D01*
X17208Y1650D01*
X17215Y1674D01*
X17219Y1699D01*
X17220Y1723D01*
X17219Y1748D01*
X17215Y1772D01*
X17208Y1796D01*
X17199Y1819D01*
X17187Y1840D01*
X17172Y1861D01*
X17156Y1879D01*
X17137Y1895D01*
X17117Y1910D01*
X17096Y1922D01*
X17073Y1931D01*
X17049Y1938D01*
X17025Y1942D01*
X17000Y1944D01*
D02*
G37*
G36*
X16000D02*
X15975Y1942D01*
X15951Y1938D01*
X15927Y1931D01*
X15904Y1922D01*
X15883Y1910D01*
X15863Y1895D01*
X15844Y1879D01*
X15828Y1861D01*
X15813Y1840D01*
X15801Y1819D01*
X15792Y1796D01*
X15785Y1772D01*
X15781Y1748D01*
X15780Y1723D01*
X15781Y1699D01*
X15785Y1674D01*
X15792Y1650D01*
X15801Y1628D01*
X15813Y1606D01*
X15828Y1586D01*
X15844Y1567D01*
X15863Y1551D01*
X15883Y1537D01*
X15904Y1525D01*
X15927Y1515D01*
X15951Y1508D01*
X15975Y1504D01*
X16000Y1503D01*
X16025Y1504D01*
X16049Y1508D01*
X16073Y1515D01*
X16096Y1525D01*
X16117Y1537D01*
X16137Y1551D01*
X16156Y1567D01*
X16172Y1586D01*
X16187Y1606D01*
X16199Y1628D01*
X16208Y1650D01*
X16215Y1674D01*
X16219Y1699D01*
X16220Y1723D01*
X16219Y1748D01*
X16215Y1772D01*
X16208Y1796D01*
X16199Y1819D01*
X16187Y1840D01*
X16172Y1861D01*
X16156Y1879D01*
X16137Y1895D01*
X16117Y1910D01*
X16096Y1922D01*
X16073Y1931D01*
X16049Y1938D01*
X16025Y1942D01*
X16000Y1944D01*
D02*
G37*
G36*
X14000D02*
X13975Y1942D01*
X13951Y1938D01*
X13927Y1931D01*
X13904Y1922D01*
X13883Y1910D01*
X13863Y1895D01*
X13844Y1879D01*
X13828Y1861D01*
X13813Y1840D01*
X13801Y1819D01*
X13792Y1796D01*
X13785Y1772D01*
X13781Y1748D01*
X13780Y1723D01*
X13781Y1699D01*
X13785Y1674D01*
X13792Y1650D01*
X13801Y1628D01*
X13813Y1606D01*
X13828Y1586D01*
X13844Y1567D01*
X13863Y1551D01*
X13883Y1537D01*
X13904Y1525D01*
X13927Y1515D01*
X13951Y1508D01*
X13975Y1504D01*
X14000Y1503D01*
X14025Y1504D01*
X14049Y1508D01*
X14073Y1515D01*
X14096Y1525D01*
X14117Y1537D01*
X14137Y1551D01*
X14156Y1567D01*
X14172Y1586D01*
X14187Y1606D01*
X14199Y1628D01*
X14208Y1650D01*
X14215Y1674D01*
X14219Y1699D01*
X14220Y1723D01*
X14219Y1748D01*
X14215Y1772D01*
X14208Y1796D01*
X14199Y1819D01*
X14187Y1840D01*
X14172Y1861D01*
X14156Y1879D01*
X14137Y1895D01*
X14117Y1910D01*
X14096Y1922D01*
X14073Y1931D01*
X14049Y1938D01*
X14025Y1942D01*
X14000Y1944D01*
D02*
G37*
G36*
X11000D02*
X10975Y1942D01*
X10951Y1938D01*
X10927Y1931D01*
X10904Y1922D01*
X10883Y1910D01*
X10863Y1895D01*
X10844Y1879D01*
X10828Y1861D01*
X10813Y1840D01*
X10801Y1819D01*
X10792Y1796D01*
X10785Y1772D01*
X10781Y1748D01*
X10780Y1723D01*
X10781Y1699D01*
X10785Y1674D01*
X10792Y1650D01*
X10801Y1628D01*
X10813Y1606D01*
X10828Y1586D01*
X10844Y1567D01*
X10863Y1551D01*
X10883Y1537D01*
X10904Y1525D01*
X10927Y1515D01*
X10951Y1508D01*
X10975Y1504D01*
X11000Y1503D01*
X11025Y1504D01*
X11049Y1508D01*
X11073Y1515D01*
X11096Y1525D01*
X11117Y1537D01*
X11137Y1551D01*
X11156Y1567D01*
X11172Y1586D01*
X11187Y1606D01*
X11199Y1628D01*
X11208Y1650D01*
X11215Y1674D01*
X11219Y1699D01*
X11220Y1723D01*
X11219Y1748D01*
X11215Y1772D01*
X11208Y1796D01*
X11199Y1819D01*
X11187Y1840D01*
X11172Y1861D01*
X11156Y1879D01*
X11137Y1895D01*
X11117Y1910D01*
X11096Y1922D01*
X11073Y1931D01*
X11049Y1938D01*
X11025Y1942D01*
X11000Y1944D01*
D02*
G37*
G36*
X10000D02*
X9975Y1942D01*
X9951Y1938D01*
X9927Y1931D01*
X9904Y1922D01*
X9883Y1910D01*
X9863Y1895D01*
X9844Y1879D01*
X9828Y1861D01*
X9813Y1840D01*
X9801Y1819D01*
X9792Y1796D01*
X9785Y1772D01*
X9781Y1748D01*
X9780Y1723D01*
X9781Y1699D01*
X9785Y1674D01*
X9792Y1650D01*
X9801Y1628D01*
X9813Y1606D01*
X9828Y1586D01*
X9844Y1567D01*
X9863Y1551D01*
X9883Y1537D01*
X9904Y1525D01*
X9927Y1515D01*
X9951Y1508D01*
X9975Y1504D01*
X10000Y1503D01*
X10025Y1504D01*
X10049Y1508D01*
X10073Y1515D01*
X10096Y1525D01*
X10117Y1537D01*
X10137Y1551D01*
X10156Y1567D01*
X10172Y1586D01*
X10187Y1606D01*
X10199Y1628D01*
X10208Y1650D01*
X10215Y1674D01*
X10219Y1699D01*
X10220Y1723D01*
X10219Y1748D01*
X10215Y1772D01*
X10208Y1796D01*
X10199Y1819D01*
X10187Y1840D01*
X10172Y1861D01*
X10156Y1879D01*
X10137Y1895D01*
X10117Y1910D01*
X10096Y1922D01*
X10073Y1931D01*
X10049Y1938D01*
X10025Y1942D01*
X10000Y1944D01*
D02*
G37*
G36*
X9000D02*
X8975Y1942D01*
X8951Y1938D01*
X8927Y1931D01*
X8904Y1922D01*
X8883Y1910D01*
X8863Y1895D01*
X8844Y1879D01*
X8828Y1861D01*
X8813Y1840D01*
X8801Y1819D01*
X8792Y1796D01*
X8785Y1772D01*
X8781Y1748D01*
X8780Y1723D01*
X8781Y1699D01*
X8785Y1674D01*
X8792Y1650D01*
X8801Y1628D01*
X8813Y1606D01*
X8828Y1586D01*
X8844Y1567D01*
X8863Y1551D01*
X8883Y1537D01*
X8904Y1525D01*
X8927Y1515D01*
X8951Y1508D01*
X8975Y1504D01*
X9000Y1503D01*
X9025Y1504D01*
X9049Y1508D01*
X9073Y1515D01*
X9096Y1525D01*
X9117Y1537D01*
X9137Y1551D01*
X9156Y1567D01*
X9172Y1586D01*
X9187Y1606D01*
X9199Y1628D01*
X9208Y1650D01*
X9215Y1674D01*
X9219Y1699D01*
X9220Y1723D01*
X9219Y1748D01*
X9215Y1772D01*
X9208Y1796D01*
X9199Y1819D01*
X9187Y1840D01*
X9172Y1861D01*
X9156Y1879D01*
X9137Y1895D01*
X9117Y1910D01*
X9096Y1922D01*
X9073Y1931D01*
X9049Y1938D01*
X9025Y1942D01*
X9000Y1944D01*
D02*
G37*
G36*
X8000D02*
X7975Y1942D01*
X7951Y1938D01*
X7927Y1931D01*
X7904Y1922D01*
X7883Y1910D01*
X7863Y1895D01*
X7844Y1879D01*
X7828Y1861D01*
X7813Y1840D01*
X7801Y1819D01*
X7792Y1796D01*
X7785Y1772D01*
X7781Y1748D01*
X7780Y1723D01*
X7781Y1699D01*
X7785Y1674D01*
X7792Y1650D01*
X7801Y1628D01*
X7813Y1606D01*
X7828Y1586D01*
X7844Y1567D01*
X7863Y1551D01*
X7883Y1537D01*
X7904Y1525D01*
X7927Y1515D01*
X7951Y1508D01*
X7975Y1504D01*
X8000Y1503D01*
X8025Y1504D01*
X8049Y1508D01*
X8073Y1515D01*
X8096Y1525D01*
X8117Y1537D01*
X8137Y1551D01*
X8156Y1567D01*
X8172Y1586D01*
X8187Y1606D01*
X8199Y1628D01*
X8208Y1650D01*
X8215Y1674D01*
X8219Y1699D01*
X8220Y1723D01*
X8219Y1748D01*
X8215Y1772D01*
X8208Y1796D01*
X8199Y1819D01*
X8187Y1840D01*
X8172Y1861D01*
X8156Y1879D01*
X8137Y1895D01*
X8117Y1910D01*
X8096Y1922D01*
X8073Y1931D01*
X8049Y1938D01*
X8025Y1942D01*
X8000Y1944D01*
D02*
G37*
G36*
X7000D02*
X6975Y1942D01*
X6951Y1938D01*
X6927Y1931D01*
X6904Y1922D01*
X6883Y1910D01*
X6863Y1895D01*
X6844Y1879D01*
X6828Y1861D01*
X6813Y1840D01*
X6801Y1819D01*
X6792Y1796D01*
X6785Y1772D01*
X6781Y1748D01*
X6780Y1723D01*
X6781Y1699D01*
X6785Y1674D01*
X6792Y1650D01*
X6801Y1628D01*
X6813Y1606D01*
X6828Y1586D01*
X6844Y1567D01*
X6863Y1551D01*
X6883Y1537D01*
X6904Y1525D01*
X6927Y1515D01*
X6951Y1508D01*
X6975Y1504D01*
X7000Y1503D01*
X7025Y1504D01*
X7049Y1508D01*
X7073Y1515D01*
X7096Y1525D01*
X7117Y1537D01*
X7137Y1551D01*
X7156Y1567D01*
X7172Y1586D01*
X7187Y1606D01*
X7199Y1628D01*
X7208Y1650D01*
X7215Y1674D01*
X7219Y1699D01*
X7220Y1723D01*
X7219Y1748D01*
X7215Y1772D01*
X7208Y1796D01*
X7199Y1819D01*
X7187Y1840D01*
X7172Y1861D01*
X7156Y1879D01*
X7137Y1895D01*
X7117Y1910D01*
X7096Y1922D01*
X7073Y1931D01*
X7049Y1938D01*
X7025Y1942D01*
X7000Y1944D01*
D02*
G37*
%LPD*%
D95*
X3390Y11926D02*
D03*
Y14926D02*
D03*
Y8599D02*
D03*
Y5599D02*
D03*
D112*
X18087Y7267D02*
D03*
X17339D02*
D03*
X17713D02*
D03*
D114*
X20774Y17454D02*
D03*
D116*
X17516Y12877D02*
D03*
Y13339D02*
D03*
X17293Y12411D02*
D03*
X17451Y17854D02*
D03*
X16921Y17177D02*
D03*
X16329Y16932D02*
D03*
X13287Y11782D02*
D03*
X13740Y12008D02*
D03*
X13297Y12343D02*
D03*
X13789Y12864D02*
D03*
X13287Y13041D02*
D03*
X13406Y13474D02*
D03*
X13858Y13593D02*
D03*
X11545Y10640D02*
D03*
X11191Y10778D02*
D03*
Y11211D02*
D03*
Y11713D02*
D03*
Y12293D02*
D03*
Y12815D02*
D03*
Y13406D02*
D03*
Y13947D02*
D03*
X11191Y14400D02*
D03*
X11378Y14626D02*
D03*
X15767Y17464D02*
D03*
X16053Y17116D02*
D03*
X15787Y16939D02*
D03*
X16063Y18268D02*
D03*
X1850Y7018D02*
D03*
X1585Y7352D02*
D03*
X1722Y12165D02*
D03*
X295Y16841D02*
D03*
X1398Y18169D02*
D03*
X492Y5876D02*
D03*
X423Y6880D02*
D03*
X463Y7913D02*
D03*
X472Y8888D02*
D03*
X433Y9990D02*
D03*
X374Y10866D02*
D03*
X443Y11752D02*
D03*
X404Y12756D02*
D03*
X413Y13829D02*
D03*
X394Y14764D02*
D03*
Y15709D02*
D03*
X354Y17805D02*
D03*
X955Y17736D02*
D03*
X797Y15246D02*
D03*
Y14213D02*
D03*
X807Y13228D02*
D03*
X827Y12205D02*
D03*
X837Y11270D02*
D03*
X807Y10433D02*
D03*
X817Y9350D02*
D03*
X787Y8297D02*
D03*
X15833Y19225D02*
D03*
X14931Y4783D02*
D03*
X16049Y5662D02*
D03*
X16886Y4639D02*
D03*
X17024Y4265D02*
D03*
X18372Y4835D02*
D03*
X18343Y4284D02*
D03*
X19150Y4265D02*
D03*
X19278Y4993D02*
D03*
X19898Y5013D02*
D03*
X20035Y5564D02*
D03*
X19376D02*
D03*
X19396Y6312D02*
D03*
X19927Y6302D02*
D03*
X19986Y7050D02*
D03*
X19396Y7040D02*
D03*
X17870Y5928D02*
D03*
X17880Y5623D02*
D03*
X17555D02*
D03*
X15774Y5593D02*
D03*
X15783Y5839D02*
D03*
X15774Y6174D02*
D03*
X16600Y9471D02*
D03*
X16846Y9717D02*
D03*
X16817Y8280D02*
D03*
X16837Y8704D02*
D03*
X18185Y8428D02*
D03*
X18402Y7139D02*
D03*
X18402Y7434D02*
D03*
X17486Y5957D02*
D03*
X17565Y8517D02*
D03*
X16738Y6893D02*
D03*
X17024D02*
D03*
X18254Y5810D02*
D03*
X4051Y4432D02*
D03*
X4169Y4776D02*
D03*
X10459Y9442D02*
D03*
X10498Y8605D02*
D03*
X11236Y9304D02*
D03*
X11226Y10081D02*
D03*
X11207Y8635D02*
D03*
X13484Y4262D02*
D03*
X13195Y4501D02*
D03*
X17545Y15652D02*
D03*
X17535Y16194D02*
D03*
X14858Y8477D02*
D03*
X15980Y8743D02*
D03*
X19632Y10475D02*
D03*
X19652Y10879D02*
D03*
X20075Y12227D02*
D03*
X19789Y11243D02*
D03*
X10551Y3691D02*
D03*
X4130Y13969D02*
D03*
X4878Y17237D02*
D03*
X4917Y16568D02*
D03*
X4927Y15839D02*
D03*
X3904Y17306D02*
D03*
X3894Y16558D02*
D03*
Y15889D02*
D03*
X21531Y19373D02*
D03*
X21551Y20190D02*
D03*
Y20997D02*
D03*
X896Y19646D02*
D03*
X390Y20091D02*
D03*
X463Y19134D02*
D03*
X1427Y19518D02*
D03*
X2880Y17394D02*
D03*
X2890Y16725D02*
D03*
X2841Y15839D02*
D03*
X2240Y15820D02*
D03*
X728Y7362D02*
D03*
X886Y6388D02*
D03*
X1781Y11270D02*
D03*
X1722Y10394D02*
D03*
X1738Y9343D02*
D03*
X1709Y8300D02*
D03*
X449Y2759D02*
D03*
X1571Y5347D02*
D03*
X837Y5207D02*
D03*
X734Y3674D02*
D03*
X1581Y3733D02*
D03*
X3136Y2719D02*
D03*
X6089Y1017D02*
D03*
X4711Y1026D02*
D03*
X6128Y1952D02*
D03*
X4730Y1932D02*
D03*
X5409Y2965D02*
D03*
X4602Y2946D02*
D03*
X6197Y2847D02*
D03*
X7496Y1794D02*
D03*
X7526Y2522D02*
D03*
X11522Y1066D02*
D03*
X11541Y1656D02*
D03*
X11512Y2296D02*
D03*
X12486Y1007D02*
D03*
X12467Y1715D02*
D03*
X12476Y2375D02*
D03*
X13470Y997D02*
D03*
X13490Y1617D02*
D03*
X13470Y2257D02*
D03*
X16502Y879D02*
D03*
X16512Y1469D02*
D03*
X16502Y2070D02*
D03*
X17476Y879D02*
D03*
X17496Y1499D02*
D03*
X17565Y2099D02*
D03*
X18500Y830D02*
D03*
X18539Y1706D02*
D03*
X18500Y2562D02*
D03*
X19504Y869D02*
D03*
X19514Y1706D02*
D03*
X19494Y2473D02*
D03*
X20468Y1046D02*
D03*
X20498Y1952D02*
D03*
Y2562D02*
D03*
X21600Y987D02*
D03*
X21630Y1784D02*
D03*
X21797Y2355D02*
D03*
X21394Y4914D02*
D03*
X20715Y4333D02*
D03*
X22181Y5180D02*
D03*
X22831Y4934D02*
D03*
X22929Y5603D02*
D03*
X22211Y5702D02*
D03*
X22722Y7444D02*
D03*
X22201Y7414D02*
D03*
Y8290D02*
D03*
X22762Y8270D02*
D03*
X22752Y9048D02*
D03*
X22191Y9018D02*
D03*
X22825Y13632D02*
D03*
X21276Y13477D02*
D03*
X20646Y14048D02*
D03*
X21482Y16115D02*
D03*
X21522Y17965D02*
D03*
X20449Y18172D02*
D03*
X18746Y18920D02*
D03*
X20508Y21607D02*
D03*
X20468Y20908D02*
D03*
X20488Y20150D02*
D03*
X19504Y21509D02*
D03*
Y20830D02*
D03*
X19533Y20190D02*
D03*
X18500Y21578D02*
D03*
X18530Y20889D02*
D03*
X18490Y20229D02*
D03*
X17526Y21637D02*
D03*
X17506Y20780D02*
D03*
X17496Y19983D02*
D03*
X3874Y21725D02*
D03*
X3884Y20770D02*
D03*
Y19993D02*
D03*
X4898Y21656D02*
D03*
X4888Y20820D02*
D03*
Y19993D02*
D03*
X5911Y21656D02*
D03*
X5902Y20810D02*
D03*
X5931Y20013D02*
D03*
X6886Y21558D02*
D03*
X6906Y20593D02*
D03*
X6945Y19914D02*
D03*
X7909Y21686D02*
D03*
X7880Y20702D02*
D03*
Y19894D02*
D03*
X8923Y21646D02*
D03*
X8913Y20682D02*
D03*
X8894Y19944D02*
D03*
X9907Y21646D02*
D03*
X9878Y20652D02*
D03*
Y20003D02*
D03*
X10911Y21676D02*
D03*
Y20790D02*
D03*
X10892Y19924D02*
D03*
X11876Y21518D02*
D03*
X11896Y20721D02*
D03*
Y20141D02*
D03*
X12860Y20406D02*
D03*
X12890Y20987D02*
D03*
X13520Y21627D02*
D03*
X12929D02*
D03*
X13490Y21026D02*
D03*
X13500Y20456D02*
D03*
X14533Y21430D02*
D03*
X14494Y20908D02*
D03*
Y20406D02*
D03*
X14484Y19924D02*
D03*
X15468Y20259D02*
D03*
X15488Y21204D02*
D03*
X15508Y21637D02*
D03*
X15488Y20672D02*
D03*
X15468Y19914D02*
D03*
X22703Y10180D02*
D03*
X22457Y11223D02*
D03*
X22122Y11213D02*
D03*
X8480Y1459D02*
D03*
X8500Y2001D02*
D03*
X8480Y2503D02*
D03*
X9514Y1400D02*
D03*
X9524Y1912D02*
D03*
Y2444D02*
D03*
X13067Y6587D02*
D03*
X19406Y7867D02*
D03*
X19337Y8280D02*
D03*
X6719Y12326D02*
D03*
X14848Y5977D02*
D03*
X16492Y4402D02*
D03*
X16709Y4816D02*
D03*
X20705Y5849D02*
D03*
X21236Y6706D02*
D03*
X20419Y3526D02*
D03*
X20616Y3162D02*
D03*
X19346Y3015D02*
D03*
X19041Y3300D02*
D03*
X18146Y3103D02*
D03*
X17565Y3113D02*
D03*
X16650Y2975D02*
D03*
X15281Y869D02*
D03*
X14730Y967D02*
D03*
X15311Y1735D02*
D03*
X15321Y2424D02*
D03*
X15045Y2788D02*
D03*
X9612Y11932D02*
D03*
X9622Y12316D02*
D03*
X18992Y14137D02*
D03*
X18638Y14166D02*
D03*
X18992Y13664D02*
D03*
X17604Y11745D02*
D03*
X18047D02*
D03*
X17624Y12139D02*
D03*
X17585Y15042D02*
D03*
X19268Y19452D02*
D03*
X18333Y19422D02*
D03*
X17943Y19282D02*
D03*
X17427Y19452D02*
D03*
X18175Y18782D02*
D03*
X2618Y19193D02*
D03*
X325Y18504D02*
D03*
X3067Y19176D02*
D03*
X3500Y18753D02*
D03*
X4193Y19045D02*
D03*
X3844Y19501D02*
D03*
X4898D02*
D03*
X5035Y19186D02*
D03*
X5980Y19471D02*
D03*
X6581Y19393D02*
D03*
X6945Y18959D02*
D03*
X7535Y18595D02*
D03*
X7919Y19422D02*
D03*
X8156Y18989D02*
D03*
X8835Y18635D02*
D03*
X9396Y18615D02*
D03*
X10222Y18595D02*
D03*
X11079Y18615D02*
D03*
X9228Y19137D02*
D03*
X8904Y19530D02*
D03*
X9967Y19422D02*
D03*
X11010Y19501D02*
D03*
X11935Y19619D02*
D03*
X13195Y20013D02*
D03*
X13490Y19501D02*
D03*
X13736Y19146D02*
D03*
X14524Y19471D02*
D03*
X14494Y19097D02*
D03*
X14524Y18763D02*
D03*
X15291Y19471D02*
D03*
X15311Y18999D02*
D03*
X15606Y18595D02*
D03*
X15709Y18248D02*
D03*
X18972Y16883D02*
D03*
X18667Y17001D02*
D03*
X17280Y14934D02*
D03*
X17319Y15268D02*
D03*
X16197Y14875D02*
D03*
X15803D02*
D03*
X15468Y13231D02*
D03*
X15419Y12778D02*
D03*
X15498Y12276D02*
D03*
X15862Y11932D02*
D03*
X16236D02*
D03*
X17293Y12047D02*
D03*
X13303Y10485D02*
D03*
X12654Y10239D02*
D03*
Y10524D02*
D03*
X12299Y11194D02*
D03*
X11994D02*
D03*
X6699Y12089D02*
D03*
X6659Y5751D02*
D03*
X6669Y5967D02*
D03*
X5439Y6351D02*
D03*
X9465Y5967D02*
D03*
X9445Y5593D02*
D03*
X14734Y7726D02*
D03*
X14888Y7001D02*
D03*
X14740Y5603D02*
D03*
X21089Y9176D02*
D03*
X21217Y7139D02*
D03*
X15921Y6755D02*
D03*
X16325Y4009D02*
D03*
X16069Y4078D02*
D03*
X15715Y3940D02*
D03*
X14793Y4547D02*
D03*
X15203Y4688D02*
D03*
X9425Y3763D02*
D03*
X9780Y3408D02*
D03*
X7496D02*
D03*
X8244Y3369D02*
D03*
X8638D02*
D03*
X4622Y4471D02*
D03*
Y4747D02*
D03*
Y5062D02*
D03*
X5478Y5731D02*
D03*
X4268Y7188D02*
D03*
X4661Y7030D02*
D03*
Y7345D02*
D03*
Y7660D02*
D03*
X7535Y9668D02*
D03*
X8707Y9727D02*
D03*
X8313D02*
D03*
X9031Y10810D02*
D03*
X8402Y15141D02*
D03*
X7811Y14826D02*
D03*
X7496Y15141D02*
D03*
X6472Y15062D02*
D03*
X4543Y15180D02*
D03*
X5331Y15022D02*
D03*
X4189Y12424D02*
D03*
X4819Y12385D02*
D03*
X4740Y13526D02*
D03*
X4701Y13959D02*
D03*
X5547Y12119D02*
D03*
X5429Y12709D02*
D03*
X4661Y10731D02*
D03*
Y11125D02*
D03*
Y11518D02*
D03*
X4858Y10141D02*
D03*
X5843D02*
D03*
X4661Y9550D02*
D03*
X5843D02*
D03*
X4661Y8891D02*
D03*
X5646D02*
D03*
X5252Y8566D02*
D03*
X6039D02*
D03*
X7614Y7778D02*
D03*
X7260Y8202D02*
D03*
X8598Y8261D02*
D03*
X8136Y8270D02*
D03*
X9189D02*
D03*
X10370Y9944D02*
D03*
X9976Y10534D02*
D03*
X10370D02*
D03*
X9780Y11125D02*
D03*
X10370D02*
D03*
Y11912D02*
D03*
Y15062D02*
D03*
X9583D02*
D03*
X8992Y14471D02*
D03*
X10173D02*
D03*
Y13881D02*
D03*
X8992D02*
D03*
Y13290D02*
D03*
X10173D02*
D03*
X14307Y14078D02*
D03*
Y13487D02*
D03*
Y12700D02*
D03*
Y11715D02*
D03*
X14701Y10928D02*
D03*
X15685D02*
D03*
X16472D02*
D03*
X17457D02*
D03*
X15685Y9747D02*
D03*
X16079Y10534D02*
D03*
X15094D02*
D03*
X14110D02*
D03*
X14898Y9747D02*
D03*
X13717D02*
D03*
X14898Y9156D02*
D03*
X13815Y9078D02*
D03*
X13382Y9245D02*
D03*
X13264Y5544D02*
D03*
X13008D02*
D03*
X12713D02*
D03*
X12398D02*
D03*
X13470Y7513D02*
D03*
X13313Y7729D02*
D03*
X13018Y7719D02*
D03*
X12713Y7709D02*
D03*
X12407D02*
D03*
X12073Y7700D02*
D03*
X11778D02*
D03*
X13087Y9235D02*
D03*
X12348Y9245D02*
D03*
X11906Y5121D02*
D03*
X11640Y9255D02*
D03*
X12083Y5524D02*
D03*
X11935Y9274D02*
D03*
X12683Y9245D02*
D03*
X11472Y5928D02*
D03*
X11482Y6233D02*
D03*
X11472Y6597D02*
D03*
Y6942D02*
D03*
Y7237D02*
D03*
X11492Y7542D02*
D03*
X11758Y5534D02*
D03*
D117*
X2815Y21900D02*
D03*
X10915Y15787D02*
D03*
X10925Y16644D02*
D03*
X10906Y17490D02*
D03*
X9911Y17510D02*
D03*
X9941Y16732D02*
D03*
X9921Y15768D02*
D03*
X13435Y5906D02*
D03*
X13474Y7185D02*
D03*
X13465Y4518D02*
D03*
X14793Y4291D02*
D03*
X10738Y3337D02*
D03*
X8799Y6722D02*
D03*
D118*
X12000Y1723D02*
D03*
X13000D02*
D03*
X6400Y20723D02*
D03*
M02*
