G04*
G04 #@! TF.GenerationSoftware,Altium Limited,Altium Designer,22.6.1 (34)*
G04*
G04 Layer_Color=8388736*
%FSLAX24Y24*%
%MOIN*%
G70*
G04*
G04 #@! TF.SameCoordinates,96953D4B-66F2-4494-BDAD-B8F046598AF4*
G04*
G04*
G04 #@! TF.FilePolarity,Negative*
G04*
G01*
G75*
%ADD22R,0.0197X0.0098*%
G04:AMPARAMS|DCode=39|XSize=9.8mil|YSize=23.6mil|CornerRadius=1.5mil|HoleSize=0mil|Usage=FLASHONLY|Rotation=180.000|XOffset=0mil|YOffset=0mil|HoleType=Round|Shape=RoundedRectangle|*
%AMROUNDEDRECTD39*
21,1,0.0098,0.0207,0,0,180.0*
21,1,0.0069,0.0236,0,0,180.0*
1,1,0.0030,-0.0034,0.0103*
1,1,0.0030,0.0034,0.0103*
1,1,0.0030,0.0034,-0.0103*
1,1,0.0030,-0.0034,-0.0103*
%
%ADD39ROUNDEDRECTD39*%
%ADD54O,0.0631X0.0296*%
%ADD55C,0.0651*%
%ADD56R,0.0375X0.0355*%
%ADD57R,0.0355X0.0375*%
%ADD58R,0.0256X0.0276*%
%ADD59R,0.0276X0.0256*%
%ADD60R,0.1399X0.0446*%
%ADD61R,0.1399X0.0446*%
%ADD62R,0.0512X0.0315*%
%ADD63R,0.0512X0.0339*%
%ADD64R,0.0512X0.0354*%
%ADD65R,0.0158X0.0247*%
%ADD66R,0.0247X0.0158*%
%ADD67R,0.0768X0.0768*%
%ADD68R,0.0287X0.0157*%
%ADD69R,0.0157X0.0287*%
G04:AMPARAMS|DCode=70|XSize=13.8mil|YSize=27.6mil|CornerRadius=4.4mil|HoleSize=0mil|Usage=FLASHONLY|Rotation=180.000|XOffset=0mil|YOffset=0mil|HoleType=Round|Shape=RoundedRectangle|*
%AMROUNDEDRECTD70*
21,1,0.0138,0.0187,0,0,180.0*
21,1,0.0049,0.0276,0,0,180.0*
1,1,0.0089,-0.0025,0.0094*
1,1,0.0089,0.0025,0.0094*
1,1,0.0089,0.0025,-0.0094*
1,1,0.0089,-0.0025,-0.0094*
%
%ADD70ROUNDEDRECTD70*%
G04:AMPARAMS|DCode=71|XSize=9.8mil|YSize=53.1mil|CornerRadius=1.5mil|HoleSize=0mil|Usage=FLASHONLY|Rotation=270.000|XOffset=0mil|YOffset=0mil|HoleType=Round|Shape=RoundedRectangle|*
%AMROUNDEDRECTD71*
21,1,0.0098,0.0502,0,0,270.0*
21,1,0.0069,0.0531,0,0,270.0*
1,1,0.0030,-0.0251,-0.0034*
1,1,0.0030,-0.0251,0.0034*
1,1,0.0030,0.0251,0.0034*
1,1,0.0030,0.0251,-0.0034*
%
%ADD71ROUNDEDRECTD71*%
G04:AMPARAMS|DCode=72|XSize=9.8mil|YSize=66.9mil|CornerRadius=1.5mil|HoleSize=0mil|Usage=FLASHONLY|Rotation=270.000|XOffset=0mil|YOffset=0mil|HoleType=Round|Shape=RoundedRectangle|*
%AMROUNDEDRECTD72*
21,1,0.0098,0.0640,0,0,270.0*
21,1,0.0069,0.0669,0,0,270.0*
1,1,0.0030,-0.0320,-0.0034*
1,1,0.0030,-0.0320,0.0034*
1,1,0.0030,0.0320,0.0034*
1,1,0.0030,0.0320,-0.0034*
%
%ADD72ROUNDEDRECTD72*%
G04:AMPARAMS|DCode=73|XSize=13.8mil|YSize=27.6mil|CornerRadius=4.4mil|HoleSize=0mil|Usage=FLASHONLY|Rotation=270.000|XOffset=0mil|YOffset=0mil|HoleType=Round|Shape=RoundedRectangle|*
%AMROUNDEDRECTD73*
21,1,0.0138,0.0187,0,0,270.0*
21,1,0.0049,0.0276,0,0,270.0*
1,1,0.0089,-0.0094,-0.0025*
1,1,0.0089,-0.0094,0.0025*
1,1,0.0089,0.0094,0.0025*
1,1,0.0089,0.0094,-0.0025*
%
%ADD73ROUNDEDRECTD73*%
%ADD74R,0.0118X0.0091*%
%ADD75P,0.0334X4X90.0*%
G04:AMPARAMS|DCode=76|XSize=23.6mil|YSize=13.8mil|CornerRadius=4.4mil|HoleSize=0mil|Usage=FLASHONLY|Rotation=90.000|XOffset=0mil|YOffset=0mil|HoleType=Round|Shape=RoundedRectangle|*
%AMROUNDEDRECTD76*
21,1,0.0236,0.0049,0,0,90.0*
21,1,0.0148,0.0138,0,0,90.0*
1,1,0.0089,0.0025,0.0074*
1,1,0.0089,0.0025,-0.0074*
1,1,0.0089,-0.0025,-0.0074*
1,1,0.0089,-0.0025,0.0074*
%
%ADD76ROUNDEDRECTD76*%
G04:AMPARAMS|DCode=77|XSize=39.4mil|YSize=106.3mil|CornerRadius=6.4mil|HoleSize=0mil|Usage=FLASHONLY|Rotation=270.000|XOffset=0mil|YOffset=0mil|HoleType=Round|Shape=RoundedRectangle|*
%AMROUNDEDRECTD77*
21,1,0.0394,0.0935,0,0,270.0*
21,1,0.0266,0.1063,0,0,270.0*
1,1,0.0128,-0.0468,-0.0133*
1,1,0.0128,-0.0468,0.0133*
1,1,0.0128,0.0468,0.0133*
1,1,0.0128,0.0468,-0.0133*
%
%ADD77ROUNDEDRECTD77*%
%ADD78R,0.0592X0.0769*%
%ADD79R,0.0395X0.0375*%
%ADD80R,0.0406X0.0323*%
%ADD81R,0.0220X0.0209*%
%ADD82R,0.1560X0.0560*%
%ADD83R,0.0462X0.0922*%
%ADD84R,0.0316X0.0395*%
%ADD85R,0.0360X0.0380*%
%ADD86C,0.0787*%
%ADD87R,0.0257X0.0296*%
%ADD88R,0.0296X0.0257*%
%ADD89R,0.0611X0.0493*%
%ADD90R,0.0651X0.0651*%
%ADD91C,0.0296*%
%ADD92O,0.0709X0.0472*%
%ADD93O,0.0847X0.0572*%
%ADD94C,0.1320*%
G36*
X15411Y4404D02*
X15413Y4404D01*
X15416Y4403D01*
X15417Y4403D01*
X15420Y4401D01*
X15422Y4400D01*
X15423Y4399D01*
X15423Y4399D01*
X15542Y4281D01*
X15542Y4281D01*
X15543Y4279D01*
X15544Y4278D01*
X15546Y4274D01*
X15547Y4270D01*
X15547Y4270D01*
X15547Y4267D01*
X15547Y4267D01*
Y4176D01*
X15547Y4172D01*
X15546Y4168D01*
X15544Y4165D01*
X15542Y4162D01*
X15539Y4160D01*
X15535Y4158D01*
X15531Y4157D01*
X15528Y4156D01*
X15409D01*
X15406Y4157D01*
X15402Y4158D01*
X15398Y4160D01*
X15395Y4162D01*
X15393Y4165D01*
X15391Y4168D01*
X15390Y4172D01*
X15390Y4176D01*
X15390Y4385D01*
X15390Y4385D01*
X15390Y4387D01*
X15390Y4389D01*
X15391Y4391D01*
X15391Y4392D01*
X15393Y4396D01*
X15394Y4397D01*
X15395Y4399D01*
X15397Y4400D01*
X15398Y4401D01*
X15402Y4403D01*
X15406Y4404D01*
X15406Y4404D01*
X15409Y4404D01*
X15411Y4404D01*
D02*
G37*
G36*
X15744Y4365D02*
X15783D01*
X15787Y4365D01*
X15791Y4364D01*
X15794Y4362D01*
X15797Y4359D01*
X15800Y4356D01*
X15802Y4353D01*
X15803Y4349D01*
X15803Y4345D01*
Y4176D01*
X15803Y4172D01*
X15802Y4168D01*
X15800Y4165D01*
X15797Y4162D01*
X15794Y4160D01*
X15791Y4158D01*
X15787Y4157D01*
X15783Y4156D01*
X15665D01*
X15661Y4157D01*
X15658Y4158D01*
X15654Y4160D01*
X15651Y4162D01*
X15649Y4165D01*
X15647Y4168D01*
X15646Y4172D01*
X15646Y4176D01*
Y4267D01*
X15646Y4270D01*
X15647Y4273D01*
X15647Y4274D01*
X15649Y4278D01*
X15651Y4281D01*
X15651Y4281D01*
X15730Y4359D01*
X15733Y4362D01*
X15737Y4364D01*
X15737Y4364D01*
X15740Y4365D01*
X15742Y4365D01*
X15744Y4365D01*
X15744Y4365D01*
D02*
G37*
G36*
X15531Y4707D02*
X15535Y4706D01*
X15539Y4704D01*
X15542Y4702D01*
X15544Y4699D01*
X15546Y4695D01*
X15547Y4692D01*
X15547Y4688D01*
Y4597D01*
X15547Y4593D01*
X15546Y4591D01*
X15546Y4590D01*
X15544Y4586D01*
X15542Y4583D01*
X15542Y4583D01*
X15463Y4505D01*
X15460Y4502D01*
X15456Y4500D01*
X15456Y4500D01*
X15453Y4499D01*
X15451Y4499D01*
X15449Y4499D01*
X15449Y4499D01*
X15409D01*
X15406Y4499D01*
X15402Y4500D01*
X15398Y4502D01*
X15395Y4505D01*
X15393Y4508D01*
X15391Y4511D01*
X15390Y4515D01*
X15390Y4518D01*
Y4688D01*
X15390Y4692D01*
X15391Y4695D01*
X15393Y4699D01*
X15395Y4702D01*
X15398Y4704D01*
X15402Y4706D01*
X15406Y4707D01*
X15409Y4708D01*
X15528D01*
X15531Y4707D01*
D02*
G37*
G36*
X15787D02*
X15791Y4706D01*
X15794Y4704D01*
X15797Y4702D01*
X15800Y4699D01*
X15802Y4695D01*
X15803Y4692D01*
X15803Y4688D01*
Y4518D01*
X15803Y4515D01*
X15802Y4511D01*
X15800Y4508D01*
X15797Y4505D01*
X15794Y4502D01*
X15791Y4500D01*
X15787Y4499D01*
X15783Y4499D01*
X15744D01*
X15744Y4499D01*
X15742Y4499D01*
X15740Y4499D01*
X15737Y4500D01*
X15737Y4500D01*
X15733Y4502D01*
X15730Y4505D01*
X15651Y4583D01*
X15651Y4583D01*
X15649Y4586D01*
X15647Y4590D01*
X15647Y4591D01*
X15646Y4593D01*
X15646Y4597D01*
Y4688D01*
X15646Y4692D01*
X15647Y4695D01*
X15649Y4699D01*
X15651Y4702D01*
X15654Y4704D01*
X15658Y4706D01*
X15661Y4707D01*
X15665Y4708D01*
X15783D01*
X15787Y4707D01*
D02*
G37*
D22*
X13904Y6095D02*
D03*
X13904Y7060D02*
D03*
D39*
X14002Y6026D02*
D03*
X13805D02*
D03*
Y7129D02*
D03*
X14002D02*
D03*
D54*
X16748Y16117D02*
D03*
Y15617D02*
D03*
Y15117D02*
D03*
Y14617D02*
D03*
X18894Y16117D02*
D03*
Y15617D02*
D03*
Y15117D02*
D03*
Y14617D02*
D03*
X16748Y13187D02*
D03*
Y12687D02*
D03*
Y12187D02*
D03*
Y11687D02*
D03*
X18894Y13187D02*
D03*
Y12687D02*
D03*
Y12187D02*
D03*
Y11687D02*
D03*
D55*
X6935Y7207D02*
D03*
X6856Y9924D02*
D03*
X7063Y11312D02*
D03*
X7093Y13585D02*
D03*
X6768Y3546D02*
D03*
X6925Y4954D02*
D03*
X14183Y8593D02*
D03*
X13280Y5003D02*
D03*
X21354Y5741D02*
D03*
X12663Y4461D02*
D03*
X17535Y4639D02*
D03*
X3390Y9926D02*
D03*
X2390D02*
D03*
X3390Y10926D02*
D03*
X2390D02*
D03*
X3390Y11926D02*
D03*
X2390D02*
D03*
X3390Y12926D02*
D03*
X2390D02*
D03*
X3390Y13926D02*
D03*
X2390D02*
D03*
X3390Y14926D02*
D03*
Y8599D02*
D03*
X2390Y7599D02*
D03*
X3390D02*
D03*
X2390Y6599D02*
D03*
X3390D02*
D03*
X2390Y5599D02*
D03*
X3390D02*
D03*
X2390Y4599D02*
D03*
X3390D02*
D03*
X2390Y3599D02*
D03*
X3390D02*
D03*
D56*
X14352Y5000D02*
D03*
Y4469D02*
D03*
X13860Y5000D02*
D03*
Y4469D02*
D03*
D57*
Y5423D02*
D03*
X14392D02*
D03*
X5823Y12680D02*
D03*
X6354D02*
D03*
X5774Y6351D02*
D03*
X6305D02*
D03*
X14360Y7657D02*
D03*
X13829D02*
D03*
D58*
X11413Y15052D02*
D03*
Y15446D02*
D03*
X14425Y15042D02*
D03*
Y15436D02*
D03*
X15813Y15603D02*
D03*
Y15209D02*
D03*
X17880Y17020D02*
D03*
Y16627D02*
D03*
X15833Y12660D02*
D03*
Y12267D02*
D03*
X17831Y14097D02*
D03*
Y13704D02*
D03*
X8697Y10436D02*
D03*
Y10042D02*
D03*
X8323Y11243D02*
D03*
Y10849D02*
D03*
X9199Y10436D02*
D03*
Y10042D02*
D03*
X7929Y10446D02*
D03*
Y10052D02*
D03*
X10222Y3733D02*
D03*
Y3339D02*
D03*
X9189Y9589D02*
D03*
Y9196D02*
D03*
X9976Y9580D02*
D03*
Y9186D02*
D03*
X8618Y4127D02*
D03*
Y3733D02*
D03*
X8244Y4924D02*
D03*
Y4530D02*
D03*
X9435Y3398D02*
D03*
Y3005D02*
D03*
X7860Y4146D02*
D03*
Y3753D02*
D03*
X9041Y3005D02*
D03*
Y3398D02*
D03*
X10213Y4540D02*
D03*
Y4146D02*
D03*
X15252Y6233D02*
D03*
Y5839D02*
D03*
X15921Y8241D02*
D03*
Y7847D02*
D03*
X16866Y7631D02*
D03*
Y7237D02*
D03*
X17890Y7985D02*
D03*
Y8379D02*
D03*
D59*
X16945Y6233D02*
D03*
X16551D02*
D03*
X18667Y16627D02*
D03*
X18274D02*
D03*
X17476Y16617D02*
D03*
X17083D02*
D03*
X18608Y13704D02*
D03*
X18215D02*
D03*
X17437D02*
D03*
X17043D02*
D03*
X17294Y18182D02*
D03*
X17687D02*
D03*
X17294Y17532D02*
D03*
X17687D02*
D03*
X17294Y18782D02*
D03*
X17687D02*
D03*
X9130Y11538D02*
D03*
X8736D02*
D03*
X9140Y12680D02*
D03*
X8746D02*
D03*
X9829Y2975D02*
D03*
X10222D02*
D03*
X9081Y5219D02*
D03*
X8687D02*
D03*
X9071Y6361D02*
D03*
X8677D02*
D03*
X20154Y7877D02*
D03*
X19760D02*
D03*
X20154Y8270D02*
D03*
X19760D02*
D03*
X17486Y6331D02*
D03*
X17880D02*
D03*
X17112Y8024D02*
D03*
X17506D02*
D03*
X16758Y5810D02*
D03*
X17152D02*
D03*
D60*
X12496Y7083D02*
D03*
D61*
Y6150D02*
D03*
D62*
X20669Y7877D02*
D03*
Y8270D02*
D03*
D63*
Y7475D02*
D03*
Y8672D02*
D03*
D64*
Y9156D02*
D03*
Y6991D02*
D03*
D65*
X11965Y11582D02*
D03*
X12161D02*
D03*
X12358D02*
D03*
Y10864D02*
D03*
X12161D02*
D03*
X11965D02*
D03*
D66*
X12619Y11518D02*
D03*
Y11322D02*
D03*
Y11125D02*
D03*
Y10928D02*
D03*
X11704D02*
D03*
Y11125D02*
D03*
Y11322D02*
D03*
Y11518D02*
D03*
D67*
X7624Y12424D02*
D03*
X7598Y6076D02*
D03*
D68*
X7079Y12129D02*
D03*
Y12326D02*
D03*
Y12522D02*
D03*
Y12719D02*
D03*
X8169Y12129D02*
D03*
Y12326D02*
D03*
Y12522D02*
D03*
Y12719D02*
D03*
X7053Y5780D02*
D03*
Y5977D02*
D03*
Y6174D02*
D03*
Y6371D02*
D03*
X8144Y5780D02*
D03*
Y5977D02*
D03*
Y6174D02*
D03*
Y6371D02*
D03*
D69*
X7329Y12969D02*
D03*
X7526D02*
D03*
X7722D02*
D03*
X7919D02*
D03*
X7329Y11879D02*
D03*
X7526D02*
D03*
X7722D02*
D03*
X7919D02*
D03*
X7303Y6621D02*
D03*
X7500D02*
D03*
X7697D02*
D03*
X7894D02*
D03*
X7303Y5530D02*
D03*
X7500D02*
D03*
X7697D02*
D03*
X7894D02*
D03*
D70*
X14396Y6026D02*
D03*
X14199D02*
D03*
Y7129D02*
D03*
X14396D02*
D03*
D71*
X13805Y6381D02*
D03*
Y6774D02*
D03*
D72*
X13874Y6578D02*
D03*
D73*
X14563Y6873D02*
D03*
Y6676D02*
D03*
Y6479D02*
D03*
Y6282D02*
D03*
D74*
X15724Y4221D02*
D03*
X15468Y4643D02*
D03*
X15724D02*
D03*
X15468Y4221D02*
D03*
D75*
X15596Y4432D02*
D03*
D76*
X18106Y7641D02*
D03*
X17909D02*
D03*
X17713D02*
D03*
X17516D02*
D03*
X17319D02*
D03*
X18106Y6893D02*
D03*
X17909D02*
D03*
X17713D02*
D03*
X17516D02*
D03*
X17319D02*
D03*
D77*
X17713Y7267D02*
D03*
D78*
X5291Y11115D02*
D03*
X6374D02*
D03*
X5203Y13713D02*
D03*
X6285D02*
D03*
X5085Y4776D02*
D03*
X6167D02*
D03*
X5114Y7355D02*
D03*
X6197D02*
D03*
D79*
X15596Y6774D02*
D03*
Y7326D02*
D03*
X15488Y7778D02*
D03*
Y8330D02*
D03*
D80*
X16415Y18763D02*
D03*
Y19137D02*
D03*
X16408Y17488D02*
D03*
Y17862D02*
D03*
D81*
X16772Y19206D02*
D03*
Y18950D02*
D03*
Y18694D02*
D03*
X16059D02*
D03*
Y18950D02*
D03*
Y19206D02*
D03*
X16764Y17931D02*
D03*
Y17675D02*
D03*
Y17419D02*
D03*
X16051D02*
D03*
Y17675D02*
D03*
Y17931D02*
D03*
D82*
X20675Y12723D02*
D03*
X22425D02*
D03*
X20675Y11723D02*
D03*
X22425D02*
D03*
X20675Y10723D02*
D03*
X22425D02*
D03*
D83*
X3400Y20146D02*
D03*
X9400D02*
D03*
X3400Y21300D02*
D03*
X9400D02*
D03*
X4400Y20146D02*
D03*
X5400Y20146D02*
D03*
X7400D02*
D03*
X8400D02*
D03*
X11400D02*
D03*
X12400D02*
D03*
X4400Y21300D02*
D03*
X5400D02*
D03*
X7400D02*
D03*
X8400D02*
D03*
X11400D02*
D03*
X12400D02*
D03*
X6400Y20146D02*
D03*
X10400Y20146D02*
D03*
X6400Y21300D02*
D03*
X10400D02*
D03*
X18000Y20146D02*
D03*
Y21300D02*
D03*
X14000Y20146D02*
D03*
X17000D02*
D03*
X16000Y20146D02*
D03*
X21000Y20146D02*
D03*
X20000D02*
D03*
X14000Y21300D02*
D03*
X17000D02*
D03*
X16000D02*
D03*
X21000D02*
D03*
X20000D02*
D03*
X15000Y20146D02*
D03*
X19000D02*
D03*
X15000Y21300D02*
D03*
X19000D02*
D03*
X19000Y2300D02*
D03*
X19000Y1146D02*
D03*
X21000Y2300D02*
D03*
X20000D02*
D03*
X17000D02*
D03*
X16000D02*
D03*
X21000Y1146D02*
D03*
X20000D02*
D03*
X17000D02*
D03*
X16000D02*
D03*
X18000Y2300D02*
D03*
Y1146D02*
D03*
X10000Y2300D02*
D03*
Y1146D02*
D03*
X14000Y2300D02*
D03*
X11000D02*
D03*
X12000Y2300D02*
D03*
X7000Y2300D02*
D03*
X8000D02*
D03*
X14000Y1146D02*
D03*
X11000D02*
D03*
X12000D02*
D03*
X7000D02*
D03*
X8000D02*
D03*
X13000Y2300D02*
D03*
X9000D02*
D03*
X13000Y1146D02*
D03*
X9000D02*
D03*
X11404Y17300D02*
D03*
Y16146D02*
D03*
X12404Y17300D02*
D03*
Y16146D02*
D03*
X3404D02*
D03*
Y17300D02*
D03*
X7404D02*
D03*
Y16146D02*
D03*
X8404Y17300D02*
D03*
Y16146D02*
D03*
X6404Y17300D02*
D03*
Y16146D02*
D03*
X5404Y17300D02*
D03*
Y16146D02*
D03*
X4404D02*
D03*
Y17300D02*
D03*
X10404Y16146D02*
D03*
Y17300D02*
D03*
X9404Y16146D02*
D03*
Y17300D02*
D03*
X13404Y16146D02*
D03*
Y17300D02*
D03*
X14404Y16146D02*
D03*
Y17300D02*
D03*
D84*
X18776Y18398D02*
D03*
Y17828D02*
D03*
X18441D02*
D03*
Y18398D02*
D03*
D85*
X17968Y9215D02*
D03*
X18519D02*
D03*
X17940Y10170D02*
D03*
X18490D02*
D03*
D86*
X3500Y1723D02*
D03*
X21000Y18723D02*
D03*
D87*
X16197Y15209D02*
D03*
Y15603D02*
D03*
X16207Y12267D02*
D03*
Y12660D02*
D03*
X12978Y10505D02*
D03*
Y10898D02*
D03*
X8313Y10042D02*
D03*
Y10436D02*
D03*
X7545Y10052D02*
D03*
Y10446D02*
D03*
X8244Y3743D02*
D03*
Y4137D02*
D03*
X7476Y3753D02*
D03*
Y4146D02*
D03*
X15203Y7139D02*
D03*
Y6745D02*
D03*
X15098Y4380D02*
D03*
Y3986D02*
D03*
X16138Y4412D02*
D03*
Y4806D02*
D03*
X18274Y6125D02*
D03*
Y6518D02*
D03*
X18490Y8389D02*
D03*
Y7995D02*
D03*
D88*
X12329Y10475D02*
D03*
X11935D02*
D03*
X9140Y11922D02*
D03*
X8746D02*
D03*
X9140Y12306D02*
D03*
X8746D02*
D03*
X5951Y12099D02*
D03*
X6344D02*
D03*
X9081Y5603D02*
D03*
X8687D02*
D03*
X9081Y5977D02*
D03*
X8687D02*
D03*
X5892Y5731D02*
D03*
X6285D02*
D03*
D89*
X11768Y8211D02*
D03*
Y8802D02*
D03*
X12506Y8202D02*
D03*
Y8792D02*
D03*
X13224Y8202D02*
D03*
Y8792D02*
D03*
D90*
X2390Y14926D02*
D03*
Y8599D02*
D03*
D91*
X13137Y22403D02*
D03*
X13531D02*
D03*
X12743D02*
D03*
X12746Y0D02*
D03*
X13533D02*
D03*
X13140D02*
D03*
X23300Y13927D02*
D03*
Y14320D02*
D03*
Y13533D02*
D03*
X23300Y5382D02*
D03*
Y5776D02*
D03*
Y4988D02*
D03*
X-0Y4988D02*
D03*
Y5776D02*
D03*
Y5382D02*
D03*
Y13533D02*
D03*
Y14320D02*
D03*
Y13927D02*
D03*
D92*
X20701Y9774D02*
D03*
Y6373D02*
D03*
X22197Y9774D02*
D03*
Y6373D02*
D03*
D93*
X20774Y17454D02*
D03*
Y16666D02*
D03*
D94*
X22000Y3723D02*
D03*
Y14723D02*
D03*
X1500Y1723D02*
D03*
X2000Y20723D02*
D03*
M02*
