G04*
G04 #@! TF.GenerationSoftware,Altium Limited,Altium Designer,22.6.1 (34)*
G04*
G04 Layer_Color=65535*
%FSLAX24Y24*%
%MOIN*%
G70*
G04*
G04 #@! TF.SameCoordinates,96953D4B-66F2-4494-BDAD-B8F046598AF4*
G04*
G04*
G04 #@! TF.FilePolarity,Positive*
G04*
G01*
G75*
%ADD10C,0.0098*%
%ADD11C,0.0059*%
%ADD12C,0.0049*%
%ADD13C,0.0100*%
%ADD14C,0.0200*%
%ADD15C,0.0079*%
%ADD16C,0.0060*%
%ADD17C,0.0039*%
%ADD18C,0.0118*%
%ADD19C,0.0050*%
G36*
X1875Y19037D02*
X1462Y19277D01*
X1875Y19514D01*
Y19037D01*
D02*
G37*
G36*
X6550Y19218D02*
X6569Y19217D01*
X6585Y19216D01*
X6602Y19214D01*
X6617Y19212D01*
X6633Y19209D01*
X6653Y19205D01*
X6673Y19200D01*
X6696Y19192D01*
X6714Y19185D01*
X6731Y19177D01*
X6738Y19173D01*
X6750Y19168D01*
X6762Y19160D01*
X6773Y19154D01*
X6784Y19147D01*
X6793Y19141D01*
X6719Y19028D01*
X6717Y19030D01*
X6702Y19039D01*
X6691Y19046D01*
X6678Y19053D01*
X6663Y19060D01*
X6649Y19066D01*
X6637Y19070D01*
X6621Y19075D01*
X6609Y19079D01*
X6598Y19081D01*
X6587Y19083D01*
X6574Y19085D01*
X6561Y19086D01*
X6552Y19086D01*
X6544Y19086D01*
X6537Y19086D01*
X6526Y19086D01*
X6518Y19086D01*
X6510Y19085D01*
X6498Y19083D01*
X6491Y19082D01*
X6482Y19080D01*
X6470Y19077D01*
X6458Y19074D01*
X6449Y19071D01*
X6440Y19067D01*
X6427Y19061D01*
X6417Y19056D01*
X6406Y19050D01*
X6393Y19041D01*
X6386Y19035D01*
X6376Y19027D01*
X6368Y19020D01*
X6359Y19009D01*
X6348Y18996D01*
X6341Y18985D01*
X6332Y18971D01*
X6327Y18960D01*
X6322Y18950D01*
X6317Y18937D01*
X6315Y18929D01*
X6312Y18918D01*
X6309Y18907D01*
X6307Y18893D01*
X6305Y18880D01*
X6304Y18867D01*
X6304Y18848D01*
X6305Y18830D01*
X6306Y18814D01*
X6309Y18797D01*
X6312Y18783D01*
X6317Y18768D01*
X6322Y18755D01*
X6328Y18740D01*
X6335Y18728D01*
X6346Y18711D01*
X6359Y18694D01*
X6368Y18684D01*
X6378Y18675D01*
X6388Y18666D01*
X6396Y18661D01*
X6402Y18656D01*
X6408Y18652D01*
X6419Y18646D01*
X6429Y18641D01*
X6443Y18635D01*
X6456Y18630D01*
X6469Y18627D01*
X6481Y18624D01*
X6497Y18621D01*
X6517Y18618D01*
X6537Y18617D01*
X6549Y18617D01*
X6568Y18618D01*
X6584Y18620D01*
X6597Y18623D01*
X6611Y18626D01*
X6626Y18630D01*
X6634Y18632D01*
X6647Y18637D01*
X6657Y18641D01*
X6677Y18650D01*
X6696Y18661D01*
X6709Y18669D01*
X6719Y18675D01*
X6793Y18563D01*
X6772Y18549D01*
X6753Y18538D01*
X6736Y18529D01*
X6718Y18521D01*
X6699Y18513D01*
X6680Y18506D01*
X6664Y18502D01*
X6655Y18499D01*
X6640Y18496D01*
X6626Y18493D01*
X6612Y18491D01*
X6598Y18489D01*
X6589Y18488D01*
X6577Y18487D01*
X6565Y18486D01*
X6546Y18486D01*
X6531Y18486D01*
X6516Y18487D01*
X6504Y18487D01*
X6493Y18488D01*
X6481Y18490D01*
X6470Y18491D01*
X6456Y18494D01*
X6445Y18496D01*
X6431Y18499D01*
X6419Y18502D01*
X6408Y18506D01*
X6396Y18510D01*
X6384Y18514D01*
X6371Y18519D01*
X6365Y18522D01*
X6352Y18528D01*
X6345Y18532D01*
X6323Y18544D01*
X6315Y18550D01*
X6306Y18556D01*
X6286Y18571D01*
X6272Y18583D01*
X6256Y18600D01*
X6244Y18613D01*
X6233Y18628D01*
X6224Y18639D01*
X6216Y18653D01*
X6209Y18665D01*
X6204Y18675D01*
X6195Y18693D01*
X6189Y18708D01*
X6184Y18722D01*
X6180Y18735D01*
X6176Y18747D01*
X6172Y18764D01*
X6169Y18780D01*
X6167Y18796D01*
X6165Y18812D01*
X6165Y18822D01*
X6164Y18837D01*
X6164Y18852D01*
X6164Y18866D01*
X6164Y18878D01*
X6165Y18891D01*
X6167Y18906D01*
X6168Y18916D01*
X6171Y18932D01*
X6173Y18943D01*
X6178Y18961D01*
X6183Y18979D01*
X6185Y18986D01*
X6190Y18999D01*
X6193Y19007D01*
X6197Y19015D01*
X6201Y19023D01*
X6205Y19032D01*
X6211Y19043D01*
X6219Y19055D01*
X6230Y19072D01*
X6245Y19092D01*
X6260Y19108D01*
X6275Y19121D01*
X6282Y19129D01*
X6294Y19139D01*
X6304Y19146D01*
X6312Y19152D01*
X6321Y19158D01*
X6329Y19162D01*
X6343Y19171D01*
X6350Y19174D01*
X6363Y19181D01*
X6376Y19186D01*
X6389Y19191D01*
X6401Y19196D01*
X6413Y19199D01*
X6424Y19203D01*
X6442Y19207D01*
X6459Y19211D01*
X6476Y19213D01*
X6493Y19215D01*
X6510Y19217D01*
X6521Y19217D01*
X6538Y19218D01*
X6550Y19218D01*
D02*
G37*
G36*
X3529Y18501D02*
X3409D01*
X3067Y18982D01*
Y18501D01*
X2939D01*
Y19203D01*
X3058D01*
X3400Y18720D01*
Y19203D01*
X3529D01*
Y18501D01*
D02*
G37*
G36*
X6025Y18501D02*
X5896D01*
Y19203D01*
X6025D01*
Y18501D01*
D02*
G37*
G36*
X4800Y19203D02*
X4812Y19202D01*
X4823Y19201D01*
X4840Y19199D01*
X4850Y19197D01*
X4863Y19194D01*
X4871Y19192D01*
X4884Y19187D01*
X4899Y19181D01*
X4911Y19176D01*
X4921Y19170D01*
X4928Y19166D01*
X4936Y19160D01*
X4945Y19153D01*
X4951Y19148D01*
X4960Y19140D01*
X4967Y19131D01*
X4974Y19123D01*
X4984Y19110D01*
X4991Y19097D01*
X4996Y19087D01*
X5000Y19079D01*
X5003Y19071D01*
X5005Y19064D01*
X5007Y19058D01*
X5010Y19048D01*
X5012Y19039D01*
X5013Y19030D01*
X5014Y19024D01*
X5016Y19013D01*
X5016Y19004D01*
X5016Y18996D01*
X5016Y18987D01*
X5016Y18979D01*
X5015Y18965D01*
X5014Y18953D01*
X5012Y18941D01*
X5009Y18932D01*
X5008Y18925D01*
X5006Y18918D01*
X5003Y18911D01*
X4999Y18900D01*
X4994Y18891D01*
X4989Y18880D01*
X4985Y18874D01*
X4979Y18866D01*
X4972Y18856D01*
X4964Y18847D01*
X4959Y18841D01*
X4949Y18833D01*
X4939Y18824D01*
X4930Y18818D01*
X4919Y18812D01*
X4913Y18808D01*
X4903Y18803D01*
X4894Y18799D01*
X4883Y18795D01*
X4875Y18793D01*
X4867Y18790D01*
X4859Y18788D01*
X4852Y18787D01*
X5060Y18501D01*
X4898D01*
X4708Y18781D01*
X4660D01*
Y18501D01*
X4531D01*
Y19203D01*
X4790D01*
X4800Y19203D01*
D02*
G37*
G36*
X5405Y19203D02*
X5420Y19202D01*
X5435Y19201D01*
X5450Y19200D01*
X5464Y19198D01*
X5484Y19194D01*
X5499Y19191D01*
X5509Y19188D01*
X5514Y19187D01*
X5524Y19184D01*
X5534Y19181D01*
X5545Y19177D01*
X5555Y19173D01*
X5565Y19169D01*
X5582Y19161D01*
X5593Y19155D01*
X5599Y19152D01*
X5605Y19148D01*
X5619Y19139D01*
X5626Y19135D01*
X5633Y19129D01*
X5642Y19122D01*
X5652Y19113D01*
X5667Y19099D01*
X5678Y19087D01*
X5687Y19076D01*
X5697Y19063D01*
X5705Y19051D01*
X5712Y19040D01*
X5722Y19023D01*
X5728Y19008D01*
X5734Y18995D01*
X5738Y18984D01*
X5743Y18967D01*
X5746Y18957D01*
X5750Y18943D01*
X5753Y18929D01*
X5755Y18915D01*
X5757Y18903D01*
X5758Y18894D01*
X5759Y18881D01*
X5759Y18872D01*
X5760Y18860D01*
X5760Y18847D01*
X5759Y18836D01*
X5759Y18823D01*
X5758Y18815D01*
X5757Y18802D01*
X5755Y18789D01*
X5753Y18776D01*
X5750Y18762D01*
X5749Y18757D01*
X5747Y18747D01*
X5744Y18737D01*
X5739Y18722D01*
X5735Y18711D01*
X5730Y18698D01*
X5723Y18685D01*
X5719Y18677D01*
X5709Y18658D01*
X5701Y18646D01*
X5691Y18632D01*
X5681Y18620D01*
X5670Y18607D01*
X5655Y18592D01*
X5647Y18586D01*
X5629Y18572D01*
X5615Y18561D01*
X5601Y18553D01*
X5589Y18547D01*
X5578Y18541D01*
X5567Y18535D01*
X5556Y18531D01*
X5546Y18527D01*
X5535Y18523D01*
X5520Y18518D01*
X5505Y18514D01*
X5490Y18511D01*
X5479Y18508D01*
X5469Y18507D01*
X5435Y18503D01*
X5410Y18501D01*
X5395Y18501D01*
X5170D01*
Y19203D01*
X5405Y19203D01*
D02*
G37*
G36*
X4044Y19217D02*
X4063Y19216D01*
X4079Y19214D01*
X4087Y19213D01*
X4104Y19210D01*
X4121Y19207D01*
X4138Y19202D01*
X4167Y19192D01*
X4177Y19188D01*
X4187Y19184D01*
X4198Y19179D01*
X4209Y19173D01*
X4222Y19166D01*
X4235Y19158D01*
X4250Y19147D01*
X4269Y19132D01*
X4286Y19117D01*
X4300Y19102D01*
X4312Y19088D01*
X4328Y19067D01*
X4342Y19046D01*
X4350Y19031D01*
X4356Y19019D01*
X4361Y19008D01*
X4365Y18998D01*
X4369Y18988D01*
X4372Y18979D01*
X4377Y18963D01*
X4380Y18955D01*
X4383Y18939D01*
X4385Y18932D01*
X4387Y18919D01*
X4389Y18905D01*
X4390Y18893D01*
X4391Y18886D01*
X4392Y18874D01*
X4392Y18863D01*
X4392Y18852D01*
X4392Y18839D01*
X4392Y18828D01*
X4391Y18816D01*
X4390Y18803D01*
X4388Y18791D01*
X4386Y18777D01*
X4384Y18770D01*
X4381Y18756D01*
X4379Y18748D01*
X4377Y18740D01*
X4375Y18732D01*
X4372Y18724D01*
X4369Y18715D01*
X4365Y18706D01*
X4361Y18696D01*
X4356Y18685D01*
X4350Y18673D01*
X4342Y18658D01*
X4337Y18648D01*
X4331Y18640D01*
X4321Y18626D01*
X4311Y18613D01*
X4299Y18600D01*
X4286Y18586D01*
X4275Y18577D01*
X4262Y18565D01*
X4249Y18555D01*
X4233Y18545D01*
X4220Y18537D01*
X4208Y18530D01*
X4196Y18524D01*
X4186Y18519D01*
X4175Y18515D01*
X4155Y18507D01*
X4146Y18504D01*
X4137Y18501D01*
X4128Y18499D01*
X4119Y18497D01*
X4110Y18495D01*
X4093Y18491D01*
X4085Y18490D01*
X4069Y18488D01*
X4061Y18487D01*
X4045Y18486D01*
X4030Y18486D01*
X4024Y18486D01*
X4009Y18486D01*
X4001Y18486D01*
X3987Y18487D01*
X3971Y18489D01*
X3963Y18490D01*
X3956Y18491D01*
X3948Y18493D01*
X3939Y18494D01*
X3931Y18496D01*
X3923Y18498D01*
X3914Y18501D01*
X3896Y18506D01*
X3887Y18509D01*
X3877Y18513D01*
X3868Y18517D01*
X3857Y18522D01*
X3846Y18527D01*
X3834Y18534D01*
X3822Y18541D01*
X3807Y18550D01*
X3790Y18563D01*
X3778Y18573D01*
X3762Y18588D01*
X3750Y18600D01*
X3741Y18610D01*
X3733Y18620D01*
X3724Y18632D01*
X3718Y18641D01*
X3707Y18658D01*
X3694Y18684D01*
X3689Y18695D01*
X3685Y18705D01*
X3678Y18723D01*
X3673Y18739D01*
X3669Y18754D01*
X3666Y18768D01*
X3662Y18789D01*
X3660Y18808D01*
X3659Y18820D01*
X3658Y18838D01*
X3657Y18852D01*
X3658Y18864D01*
X3658Y18881D01*
X3659Y18894D01*
X3662Y18913D01*
X3664Y18926D01*
X3667Y18939D01*
X3668Y18947D01*
X3672Y18962D01*
X3677Y18977D01*
X3680Y18986D01*
X3687Y19004D01*
X3691Y19014D01*
X3696Y19025D01*
X3703Y19037D01*
X3711Y19052D01*
X3724Y19071D01*
X3737Y19088D01*
X3753Y19107D01*
X3768Y19121D01*
X3781Y19134D01*
X3801Y19149D01*
X3817Y19159D01*
X3830Y19167D01*
X3842Y19174D01*
X3854Y19180D01*
X3875Y19190D01*
X3894Y19197D01*
X3912Y19202D01*
X3930Y19207D01*
X3946Y19211D01*
X3963Y19213D01*
X3978Y19215D01*
X3994Y19217D01*
X4009Y19218D01*
X4024Y19218D01*
X4044Y19217D01*
D02*
G37*
G36*
X3022Y18321D02*
X3029Y18321D01*
X3037Y18320D01*
X3047Y18318D01*
X3054Y18317D01*
X3061Y18315D01*
X3068Y18313D01*
X3075Y18311D01*
X3084Y18308D01*
X3095Y18303D01*
X3074Y18259D01*
X3069Y18262D01*
X3066Y18263D01*
X3064Y18264D01*
X3061Y18266D01*
X3058Y18267D01*
X3054Y18268D01*
X3051Y18269D01*
X3046Y18271D01*
X3042Y18272D01*
X3039Y18273D01*
X3035Y18274D01*
X3032Y18274D01*
X3028Y18275D01*
X3025Y18275D01*
X3023Y18275D01*
X3018Y18275D01*
X3015Y18275D01*
X3010Y18275D01*
X3008Y18274D01*
X3003Y18273D01*
X3001Y18272D01*
X2999Y18271D01*
X2997Y18269D01*
X2995Y18268D01*
X2994Y18266D01*
X2993Y18264D01*
X2992Y18261D01*
X2992Y18259D01*
X2992Y18257D01*
X2992Y18255D01*
X2992Y18252D01*
X2994Y18248D01*
X2996Y18244D01*
X2999Y18240D01*
X3003Y18237D01*
X3008Y18233D01*
X3034Y18214D01*
X3061Y18195D01*
X3065Y18192D01*
X3070Y18189D01*
X3073Y18185D01*
X3076Y18183D01*
X3078Y18181D01*
X3081Y18178D01*
X3084Y18175D01*
X3087Y18171D01*
X3090Y18166D01*
X3094Y18159D01*
X3098Y18150D01*
X3098Y18148D01*
X3099Y18144D01*
X3100Y18143D01*
X3100Y18138D01*
X3101Y18135D01*
X3101Y18131D01*
X3101Y18128D01*
X3101Y18124D01*
X3101Y18121D01*
X3101Y18118D01*
X3101Y18114D01*
X3100Y18111D01*
X3100Y18107D01*
X3098Y18101D01*
X3097Y18097D01*
X3095Y18093D01*
X3093Y18088D01*
X3089Y18082D01*
X3083Y18075D01*
X3079Y18071D01*
X3077Y18069D01*
X3074Y18066D01*
X3071Y18064D01*
X3065Y18061D01*
X3061Y18059D01*
X3059Y18058D01*
X3054Y18057D01*
X3050Y18055D01*
X3044Y18053D01*
X3037Y18052D01*
X3033Y18051D01*
X3027Y18051D01*
X3020Y18050D01*
X3013Y18050D01*
X3000Y18051D01*
X2992Y18051D01*
X2984Y18053D01*
X2974Y18055D01*
X2967Y18056D01*
X2956Y18060D01*
X2950Y18062D01*
X2945Y18064D01*
X2942Y18065D01*
X2936Y18068D01*
X2931Y18071D01*
X2927Y18073D01*
X2923Y18075D01*
X2944Y18119D01*
X2951Y18115D01*
X2955Y18113D01*
X2961Y18110D01*
X2967Y18107D01*
X2972Y18105D01*
X2978Y18103D01*
X2988Y18100D01*
X2993Y18098D01*
X2999Y18097D01*
X3004Y18097D01*
X3008Y18096D01*
X3013Y18096D01*
X3018Y18096D01*
X3022Y18097D01*
X3025Y18097D01*
X3031Y18098D01*
X3035Y18100D01*
X3038Y18101D01*
X3041Y18103D01*
X3043Y18104D01*
X3045Y18107D01*
X3047Y18109D01*
X3049Y18113D01*
X3050Y18114D01*
X3051Y18119D01*
X3051Y18121D01*
X3051Y18124D01*
X3050Y18127D01*
X3050Y18131D01*
X3049Y18132D01*
X3048Y18134D01*
X3047Y18137D01*
X3045Y18139D01*
X3042Y18142D01*
X3040Y18145D01*
X3036Y18148D01*
X3030Y18153D01*
X3025Y18157D01*
X2983Y18187D01*
X2981Y18188D01*
X2977Y18191D01*
X2974Y18193D01*
X2970Y18196D01*
X2967Y18199D01*
X2962Y18204D01*
X2959Y18208D01*
X2954Y18214D01*
X2951Y18218D01*
X2949Y18222D01*
X2947Y18226D01*
X2944Y18236D01*
X2943Y18238D01*
X2943Y18241D01*
X2942Y18246D01*
X2942Y18251D01*
X2941Y18257D01*
X2942Y18260D01*
X2942Y18264D01*
X2942Y18268D01*
X2944Y18274D01*
X2945Y18279D01*
X2946Y18282D01*
X2948Y18287D01*
X2951Y18292D01*
X2959Y18301D01*
X2960Y18302D01*
X2962Y18304D01*
X2966Y18307D01*
X2970Y18310D01*
X2976Y18313D01*
X2980Y18314D01*
X2985Y18316D01*
X2992Y18318D01*
X2998Y18319D01*
X3005Y18320D01*
X3012Y18321D01*
X3017Y18321D01*
X3022Y18321D01*
D02*
G37*
G36*
X5793Y18322D02*
X5800Y18321D01*
X5810Y18320D01*
X5820Y18318D01*
X5832Y18315D01*
X5843Y18312D01*
X5854Y18307D01*
X5857Y18305D01*
X5864Y18301D01*
X5870Y18298D01*
X5877Y18293D01*
X5850Y18252D01*
X5848Y18253D01*
X5843Y18256D01*
X5839Y18258D01*
X5835Y18261D01*
X5831Y18263D01*
X5826Y18265D01*
X5818Y18268D01*
X5811Y18270D01*
X5800Y18272D01*
X5789Y18273D01*
X5786Y18273D01*
X5780Y18273D01*
X5772Y18273D01*
X5767Y18272D01*
X5761Y18271D01*
X5755Y18269D01*
X5748Y18267D01*
X5742Y18264D01*
X5734Y18260D01*
X5729Y18257D01*
X5723Y18252D01*
X5716Y18244D01*
X5709Y18236D01*
X5705Y18228D01*
X5703Y18224D01*
X5701Y18219D01*
X5699Y18212D01*
X5698Y18207D01*
X5697Y18200D01*
X5696Y18196D01*
X5696Y18190D01*
X5696Y18184D01*
X5696Y18178D01*
X5697Y18171D01*
X5698Y18165D01*
X5700Y18157D01*
X5703Y18149D01*
X5706Y18143D01*
X5711Y18135D01*
X5718Y18126D01*
X5727Y18118D01*
X5735Y18113D01*
X5737Y18111D01*
X5742Y18108D01*
X5748Y18106D01*
X5752Y18104D01*
X5760Y18102D01*
X5765Y18101D01*
X5772Y18100D01*
X5778Y18100D01*
X5787Y18100D01*
X5793Y18100D01*
X5800Y18101D01*
X5812Y18103D01*
X5816Y18104D01*
X5819Y18105D01*
X5825Y18108D01*
X5830Y18110D01*
X5835Y18112D01*
X5841Y18115D01*
X5845Y18118D01*
X5850Y18121D01*
X5877Y18080D01*
X5873Y18077D01*
X5868Y18074D01*
X5859Y18068D01*
X5850Y18064D01*
X5840Y18060D01*
X5829Y18057D01*
X5825Y18056D01*
X5820Y18055D01*
X5814Y18053D01*
X5806Y18052D01*
X5797Y18051D01*
X5790Y18051D01*
X5782Y18051D01*
X5776Y18051D01*
X5770Y18052D01*
X5761Y18052D01*
X5753Y18054D01*
X5747Y18055D01*
X5738Y18057D01*
X5734Y18058D01*
X5728Y18061D01*
X5721Y18063D01*
X5714Y18067D01*
X5706Y18071D01*
X5697Y18077D01*
X5689Y18083D01*
X5684Y18087D01*
X5675Y18096D01*
X5669Y18104D01*
X5663Y18113D01*
X5661Y18117D01*
X5659Y18121D01*
X5657Y18124D01*
X5655Y18130D01*
X5652Y18138D01*
X5649Y18147D01*
X5647Y18156D01*
X5646Y18164D01*
X5645Y18170D01*
X5644Y18177D01*
X5644Y18183D01*
X5644Y18188D01*
X5644Y18193D01*
X5644Y18197D01*
X5645Y18205D01*
X5646Y18210D01*
X5647Y18216D01*
X5648Y18222D01*
X5651Y18233D01*
X5653Y18238D01*
X5655Y18244D01*
X5658Y18250D01*
X5662Y18257D01*
X5664Y18262D01*
X5669Y18268D01*
X5680Y18281D01*
X5688Y18289D01*
X5692Y18293D01*
X5696Y18295D01*
X5702Y18300D01*
X5708Y18303D01*
X5713Y18306D01*
X5718Y18308D01*
X5723Y18310D01*
X5728Y18312D01*
X5734Y18314D01*
X5738Y18316D01*
X5744Y18317D01*
X5749Y18318D01*
X5755Y18320D01*
X5764Y18321D01*
X5772Y18321D01*
X5784Y18322D01*
X5793Y18322D01*
D02*
G37*
G36*
X4142Y18321D02*
X4150Y18320D01*
X4160Y18319D01*
X4170Y18317D01*
X4182Y18314D01*
X4193Y18311D01*
X4204Y18306D01*
X4207Y18305D01*
X4214Y18301D01*
X4219Y18297D01*
X4227Y18292D01*
X4200Y18251D01*
X4198Y18252D01*
X4193Y18255D01*
X4189Y18257D01*
X4185Y18260D01*
X4181Y18262D01*
X4176Y18264D01*
X4168Y18267D01*
X4161Y18269D01*
X4149Y18271D01*
X4139Y18272D01*
X4136Y18272D01*
X4129Y18272D01*
X4122Y18272D01*
X4116Y18271D01*
X4111Y18270D01*
X4105Y18268D01*
X4098Y18266D01*
X4092Y18263D01*
X4084Y18259D01*
X4079Y18256D01*
X4073Y18251D01*
X4065Y18243D01*
X4059Y18235D01*
X4055Y18227D01*
X4053Y18224D01*
X4051Y18219D01*
X4049Y18211D01*
X4048Y18206D01*
X4047Y18200D01*
X4046Y18195D01*
X4046Y18189D01*
X4046Y18183D01*
X4046Y18178D01*
X4047Y18170D01*
X4048Y18164D01*
X4050Y18156D01*
X4053Y18148D01*
X4056Y18142D01*
X4061Y18134D01*
X4068Y18125D01*
X4077Y18117D01*
X4085Y18112D01*
X4087Y18111D01*
X4092Y18108D01*
X4097Y18105D01*
X4102Y18104D01*
X4110Y18101D01*
X4114Y18101D01*
X4122Y18099D01*
X4128Y18099D01*
X4136Y18099D01*
X4143Y18099D01*
X4150Y18100D01*
X4162Y18103D01*
X4166Y18104D01*
X4169Y18104D01*
X4175Y18107D01*
X4180Y18109D01*
X4184Y18111D01*
X4191Y18115D01*
X4195Y18117D01*
X4200Y18120D01*
X4227Y18079D01*
X4223Y18076D01*
X4218Y18073D01*
X4208Y18067D01*
X4200Y18063D01*
X4190Y18059D01*
X4179Y18056D01*
X4175Y18055D01*
X4170Y18054D01*
X4163Y18053D01*
X4156Y18051D01*
X4147Y18051D01*
X4139Y18050D01*
X4132Y18050D01*
X4126Y18050D01*
X4120Y18051D01*
X4111Y18052D01*
X4103Y18053D01*
X4097Y18054D01*
X4088Y18056D01*
X4084Y18058D01*
X4077Y18060D01*
X4071Y18063D01*
X4064Y18066D01*
X4056Y18070D01*
X4047Y18076D01*
X4039Y18082D01*
X4034Y18086D01*
X4025Y18095D01*
X4019Y18103D01*
X4013Y18112D01*
X4011Y18116D01*
X4009Y18120D01*
X4007Y18123D01*
X4004Y18129D01*
X4002Y18137D01*
X3999Y18147D01*
X3997Y18155D01*
X3995Y18163D01*
X3995Y18169D01*
X3994Y18176D01*
X3994Y18182D01*
X3994Y18188D01*
X3994Y18193D01*
X3994Y18196D01*
X3995Y18204D01*
X3996Y18209D01*
X3997Y18215D01*
X3998Y18222D01*
X4001Y18233D01*
X4003Y18238D01*
X4005Y18243D01*
X4008Y18249D01*
X4012Y18256D01*
X4014Y18261D01*
X4019Y18267D01*
X4030Y18281D01*
X4038Y18288D01*
X4042Y18292D01*
X4046Y18294D01*
X4052Y18299D01*
X4058Y18302D01*
X4063Y18305D01*
X4068Y18307D01*
X4073Y18309D01*
X4078Y18312D01*
X4084Y18314D01*
X4088Y18315D01*
X4094Y18316D01*
X4099Y18318D01*
X4105Y18319D01*
X4114Y18320D01*
X4122Y18321D01*
X4134Y18321D01*
X4142Y18321D01*
D02*
G37*
G36*
X3744Y18056D02*
X3696D01*
X3671Y18224D01*
X3621Y18095D01*
X3586D01*
X3536Y18224D01*
X3511Y18056D01*
X3463D01*
X3509Y18316D01*
X3544D01*
X3603Y18169D01*
X3663Y18316D01*
X3698D01*
X3744Y18056D01*
D02*
G37*
G36*
X4897Y18056D02*
X4852D01*
X4726Y18234D01*
Y18056D01*
X4678D01*
Y18315D01*
X4723D01*
X4849Y18137D01*
Y18315D01*
X4897D01*
Y18056D01*
D02*
G37*
G36*
X5545Y18159D02*
X5545Y18153D01*
X5545Y18146D01*
X5544Y18139D01*
X5543Y18131D01*
X5541Y18122D01*
X5539Y18117D01*
X5536Y18110D01*
X5533Y18102D01*
X5529Y18095D01*
X5525Y18089D01*
X5519Y18082D01*
X5508Y18072D01*
X5504Y18069D01*
X5498Y18066D01*
X5492Y18063D01*
X5489Y18061D01*
X5481Y18058D01*
X5473Y18056D01*
X5467Y18054D01*
X5459Y18053D01*
X5453Y18052D01*
X5446Y18052D01*
X5439Y18051D01*
X5429Y18052D01*
X5422Y18052D01*
X5415Y18053D01*
X5409Y18054D01*
X5402Y18056D01*
X5396Y18058D01*
X5389Y18061D01*
X5381Y18064D01*
X5375Y18068D01*
X5364Y18076D01*
X5354Y18087D01*
X5348Y18095D01*
X5345Y18100D01*
X5342Y18105D01*
X5339Y18112D01*
X5337Y18120D01*
X5335Y18126D01*
X5333Y18137D01*
X5332Y18145D01*
X5331Y18151D01*
X5331Y18159D01*
Y18316D01*
X5381D01*
Y18162D01*
X5381Y18160D01*
X5382Y18151D01*
X5383Y18143D01*
X5385Y18137D01*
X5388Y18130D01*
X5391Y18125D01*
X5394Y18120D01*
X5399Y18115D01*
X5407Y18109D01*
X5412Y18106D01*
X5419Y18103D01*
X5427Y18101D01*
X5431Y18101D01*
X5437Y18100D01*
X5444Y18101D01*
X5449Y18101D01*
X5456Y18103D01*
X5462Y18105D01*
X5468Y18108D01*
X5472Y18110D01*
X5481Y18118D01*
X5485Y18123D01*
X5488Y18129D01*
X5491Y18136D01*
X5493Y18143D01*
X5494Y18149D01*
X5495Y18157D01*
X5495Y18162D01*
Y18316D01*
X5545D01*
Y18159D01*
D02*
G37*
G36*
X881Y19519D02*
X888Y19518D01*
X894Y19517D01*
X903Y19514D01*
X908Y19512D01*
X917Y19509D01*
X926Y19504D01*
X1947Y18914D01*
Y19516D01*
X1955Y19513D01*
X1963Y19509D01*
X1968Y19507D01*
X2355Y19282D01*
X2362Y19279D01*
X2371Y19272D01*
X2379Y19265D01*
X2391Y19251D01*
X2399Y19239D01*
X2405Y19225D01*
X2409Y19213D01*
X2411Y19203D01*
X2412Y19194D01*
X2413Y19185D01*
Y18098D01*
X412Y19253D01*
X415Y19256D01*
X420Y19262D01*
X426Y19268D01*
X431Y19272D01*
X438Y19278D01*
X447Y19283D01*
X826Y19503D01*
X833Y19507D01*
X839Y19510D01*
X844Y19512D01*
X852Y19515D01*
X858Y19516D01*
X865Y19518D01*
X869Y19518D01*
X875Y19519D01*
X881Y19519D01*
D02*
G37*
G36*
X6691Y18316D02*
X6696Y18315D01*
X6703Y18314D01*
X6714Y18312D01*
X6722Y18308D01*
X6729Y18305D01*
X6737Y18299D01*
X6742Y18296D01*
X6750Y18288D01*
X6753Y18282D01*
X6757Y18275D01*
X6759Y18271D01*
X6761Y18265D01*
X6764Y18255D01*
X6765Y18249D01*
X6766Y18241D01*
X6766Y18235D01*
X6765Y18230D01*
X6765Y18225D01*
X6764Y18219D01*
X6762Y18214D01*
X6760Y18206D01*
X6757Y18201D01*
X6754Y18195D01*
X6748Y18186D01*
X6741Y18179D01*
X6735Y18175D01*
X6728Y18171D01*
X6718Y18166D01*
X6710Y18164D01*
X6705Y18162D01*
X6782Y18057D01*
X6722D01*
X6651Y18160D01*
X6634D01*
Y18057D01*
X6586D01*
Y18316D01*
X6682D01*
X6691Y18316D01*
D02*
G37*
G36*
X5105Y18316D02*
X5112Y18316D01*
X5121Y18315D01*
X5126Y18314D01*
X5132Y18313D01*
X5139Y18311D01*
X5145Y18309D01*
X5151Y18308D01*
X5155Y18306D01*
X5164Y18302D01*
X5171Y18299D01*
X5175Y18296D01*
X5183Y18291D01*
X5189Y18286D01*
X5193Y18283D01*
X5198Y18278D01*
X5207Y18269D01*
X5212Y18260D01*
X5218Y18250D01*
X5221Y18244D01*
X5224Y18237D01*
X5226Y18231D01*
X5227Y18225D01*
X5229Y18218D01*
X5230Y18213D01*
X5231Y18204D01*
X5232Y18197D01*
X5232Y18188D01*
X5232Y18182D01*
X5232Y18174D01*
X5231Y18168D01*
X5230Y18160D01*
X5229Y18155D01*
X5227Y18144D01*
X5223Y18134D01*
X5220Y18127D01*
X5217Y18122D01*
X5214Y18115D01*
X5210Y18110D01*
X5201Y18097D01*
X5191Y18088D01*
X5179Y18079D01*
X5165Y18071D01*
X5155Y18067D01*
X5144Y18063D01*
X5134Y18061D01*
X5126Y18059D01*
X5121Y18058D01*
X5110Y18057D01*
X5097Y18057D01*
X5014D01*
Y18316D01*
X5097D01*
X5105Y18316D01*
D02*
G37*
G36*
X6144Y18272D02*
X6073D01*
Y18057D01*
X6025D01*
Y18272D01*
X5955D01*
Y18316D01*
X6144D01*
Y18272D01*
D02*
G37*
G36*
X3898Y18056D02*
X3849D01*
Y18315D01*
X3898D01*
Y18056D01*
D02*
G37*
G36*
X3359Y18271D02*
X3253D01*
Y18219D01*
X3350D01*
Y18175D01*
X3253D01*
Y18100D01*
X3361D01*
Y18056D01*
X3205D01*
Y18315D01*
X3359D01*
Y18271D01*
D02*
G37*
G36*
X6361Y18322D02*
X6370Y18321D01*
X6376Y18320D01*
X6382Y18319D01*
X6388Y18318D01*
X6395Y18316D01*
X6402Y18314D01*
X6413Y18309D01*
X6421Y18305D01*
X6426Y18303D01*
X6430Y18300D01*
X6436Y18296D01*
X6443Y18290D01*
X6447Y18287D01*
X6452Y18282D01*
X6459Y18274D01*
X6463Y18269D01*
X6467Y18264D01*
X6470Y18258D01*
X6473Y18253D01*
X6477Y18244D01*
X6480Y18237D01*
X6482Y18231D01*
X6484Y18225D01*
X6485Y18219D01*
X6486Y18214D01*
X6488Y18204D01*
X6489Y18195D01*
X6489Y18184D01*
X6488Y18169D01*
X6486Y18156D01*
X6485Y18151D01*
X6482Y18142D01*
X6480Y18136D01*
X6477Y18129D01*
X6473Y18120D01*
X6470Y18115D01*
X6466Y18108D01*
X6462Y18103D01*
X6457Y18096D01*
X6452Y18091D01*
X6445Y18084D01*
X6436Y18077D01*
X6430Y18073D01*
X6425Y18070D01*
X6416Y18065D01*
X6408Y18062D01*
X6401Y18059D01*
X6394Y18057D01*
X6387Y18055D01*
X6378Y18053D01*
X6372Y18052D01*
X6363Y18051D01*
X6357Y18051D01*
X6344Y18051D01*
X6339Y18052D01*
X6333Y18052D01*
X6324Y18054D01*
X6315Y18056D01*
X6308Y18058D01*
X6298Y18061D01*
X6291Y18065D01*
X6282Y18069D01*
X6277Y18072D01*
X6272Y18075D01*
X6266Y18080D01*
X6260Y18085D01*
X6254Y18090D01*
X6250Y18095D01*
X6244Y18102D01*
X6239Y18108D01*
X6235Y18115D01*
X6230Y18124D01*
X6227Y18132D01*
X6224Y18139D01*
X6223Y18145D01*
X6220Y18153D01*
X6219Y18161D01*
X6218Y18168D01*
X6217Y18186D01*
X6217Y18191D01*
X6217Y18200D01*
X6219Y18211D01*
X6221Y18222D01*
X6223Y18230D01*
X6225Y18236D01*
X6229Y18247D01*
X6234Y18255D01*
X6237Y18261D01*
X6241Y18268D01*
X6246Y18274D01*
X6255Y18284D01*
X6260Y18289D01*
X6265Y18293D01*
X6270Y18297D01*
X6276Y18300D01*
X6281Y18303D01*
X6285Y18306D01*
X6297Y18312D01*
X6304Y18314D01*
X6314Y18317D01*
X6321Y18319D01*
X6327Y18320D01*
X6336Y18321D01*
X6341Y18322D01*
X6350Y18322D01*
X6356D01*
X6361Y18322D01*
D02*
G37*
G36*
X4451Y18321D02*
X4460Y18320D01*
X4466Y18319D01*
X4472Y18318D01*
X4478Y18317D01*
X4485Y18315D01*
X4492Y18313D01*
X4503Y18309D01*
X4511Y18304D01*
X4516Y18302D01*
X4521Y18299D01*
X4526Y18295D01*
X4533Y18289D01*
X4537Y18286D01*
X4542Y18282D01*
X4549Y18273D01*
X4553Y18268D01*
X4557Y18263D01*
X4560Y18258D01*
X4563Y18252D01*
X4567Y18243D01*
X4570Y18236D01*
X4572Y18230D01*
X4574Y18224D01*
X4575Y18218D01*
X4576Y18213D01*
X4578Y18203D01*
X4579Y18194D01*
X4579Y18183D01*
X4578Y18168D01*
X4576Y18155D01*
X4575Y18150D01*
X4572Y18141D01*
X4570Y18135D01*
X4567Y18128D01*
X4563Y18119D01*
X4560Y18114D01*
X4556Y18107D01*
X4552Y18102D01*
X4547Y18096D01*
X4542Y18090D01*
X4535Y18083D01*
X4526Y18076D01*
X4520Y18072D01*
X4515Y18069D01*
X4506Y18064D01*
X4498Y18061D01*
X4491Y18058D01*
X4484Y18056D01*
X4477Y18054D01*
X4468Y18052D01*
X4462Y18051D01*
X4453Y18050D01*
X4447Y18050D01*
X4434Y18050D01*
X4429Y18051D01*
X4423Y18051D01*
X4414Y18053D01*
X4405Y18055D01*
X4398Y18057D01*
X4388Y18060D01*
X4381Y18064D01*
X4372Y18068D01*
X4367Y18071D01*
X4362Y18074D01*
X4356Y18079D01*
X4350Y18084D01*
X4344Y18089D01*
X4340Y18094D01*
X4334Y18101D01*
X4329Y18107D01*
X4325Y18114D01*
X4320Y18123D01*
X4317Y18131D01*
X4314Y18138D01*
X4313Y18144D01*
X4310Y18152D01*
X4309Y18160D01*
X4308Y18167D01*
X4307Y18185D01*
X4307Y18190D01*
X4307Y18199D01*
X4309Y18211D01*
X4311Y18221D01*
X4313Y18229D01*
X4315Y18235D01*
X4319Y18246D01*
X4324Y18254D01*
X4327Y18260D01*
X4331Y18267D01*
X4337Y18274D01*
X4345Y18283D01*
X4351Y18288D01*
X4355Y18292D01*
X4360Y18296D01*
X4366Y18299D01*
X4371Y18302D01*
X4375Y18305D01*
X4387Y18311D01*
X4394Y18313D01*
X4404Y18316D01*
X4411Y18318D01*
X4417Y18319D01*
X4426Y18320D01*
X4431Y18321D01*
X4440Y18321D01*
X4446D01*
X4451Y18321D01*
D02*
G37*
G36*
X1340Y18004D02*
X926Y17766D01*
X926Y18243D01*
X1340Y18004D01*
D02*
G37*
G36*
X2394Y18027D02*
X1950Y17766D01*
X1946Y17763D01*
X1943Y17762D01*
X1939Y17760D01*
X1936Y17759D01*
X1931Y17757D01*
X1928Y17757D01*
X1926Y17756D01*
X1924Y17756D01*
X1920Y17757D01*
X1917Y17757D01*
X1913Y17758D01*
X1910Y17760D01*
X1907Y17761D01*
X1904Y17762D01*
X855Y18367D01*
X855Y17764D01*
X420Y18018D01*
X411Y18024D01*
X406Y18029D01*
X401Y18034D01*
X396Y18041D01*
X393Y18049D01*
X391Y18057D01*
X389Y18065D01*
X389Y18070D01*
X389Y19184D01*
X2394Y18027D01*
D02*
G37*
G36*
X1979Y17463D02*
X1984Y17462D01*
X1997Y17461D01*
X2011Y17458D01*
X2025Y17455D01*
X2041Y17449D01*
X2056Y17442D01*
X2057D01*
X2058Y17441D01*
X2060Y17440D01*
X2063Y17438D01*
X2069Y17433D01*
X2078Y17427D01*
X2087Y17418D01*
X2097Y17407D01*
X2107Y17395D01*
X2115Y17381D01*
Y17380D01*
X2116Y17379D01*
X2117Y17377D01*
X2119Y17374D01*
X2120Y17370D01*
X2122Y17365D01*
X2124Y17360D01*
X2126Y17355D01*
X2130Y17341D01*
X2133Y17325D01*
X2136Y17307D01*
X2137Y17288D01*
Y17287D01*
Y17286D01*
Y17283D01*
Y17279D01*
X2136Y17275D01*
X2135Y17269D01*
X2135Y17263D01*
X2134Y17256D01*
X2131Y17241D01*
X2127Y17223D01*
X2122Y17205D01*
X2115Y17187D01*
Y17186D01*
X2113Y17185D01*
X2112Y17182D01*
X2111Y17178D01*
X2108Y17173D01*
X2105Y17168D01*
X2101Y17162D01*
X2097Y17155D01*
X2093Y17148D01*
X2087Y17140D01*
X2075Y17122D01*
X2060Y17102D01*
X2043Y17080D01*
X1965Y16988D01*
X1864D01*
X2026Y17176D01*
X2024Y17177D01*
X2023Y17177D01*
X2023Y17176D01*
X2021Y17175D01*
X2018Y17173D01*
X2015Y17170D01*
X2010Y17167D01*
X2000Y17161D01*
X1988Y17155D01*
X1974Y17151D01*
X1957Y17147D01*
X1949Y17146D01*
X1940Y17146D01*
X1936D01*
X1933Y17146D01*
X1929D01*
X1925Y17147D01*
X1915Y17148D01*
X1904Y17151D01*
X1892Y17154D01*
X1879Y17159D01*
X1866Y17166D01*
X1866D01*
X1865Y17167D01*
X1861Y17170D01*
X1855Y17175D01*
X1848Y17181D01*
X1839Y17189D01*
X1830Y17199D01*
X1822Y17209D01*
X1814Y17222D01*
Y17223D01*
X1814Y17223D01*
X1812Y17225D01*
X1812Y17228D01*
X1810Y17232D01*
X1808Y17236D01*
X1805Y17245D01*
X1801Y17257D01*
X1798Y17271D01*
X1796Y17285D01*
X1795Y17301D01*
Y17302D01*
Y17303D01*
Y17306D01*
X1796Y17309D01*
Y17313D01*
X1796Y17318D01*
X1798Y17329D01*
X1800Y17342D01*
X1804Y17356D01*
X1809Y17371D01*
X1816Y17385D01*
Y17385D01*
X1818Y17386D01*
X1818Y17388D01*
X1820Y17391D01*
X1826Y17397D01*
X1832Y17406D01*
X1841Y17415D01*
X1851Y17425D01*
X1863Y17434D01*
X1877Y17443D01*
X1878D01*
X1879Y17443D01*
X1881Y17445D01*
X1884Y17446D01*
X1888Y17447D01*
X1892Y17449D01*
X1897Y17451D01*
X1903Y17453D01*
X1916Y17457D01*
X1931Y17460D01*
X1948Y17463D01*
X1966Y17463D01*
X1975D01*
X1979Y17463D01*
D02*
G37*
G36*
X524Y17145D02*
X571D01*
Y17068D01*
X524D01*
Y16988D01*
X444D01*
Y17068D01*
X217D01*
Y17136D01*
X440Y17453D01*
X524D01*
Y17145D01*
D02*
G37*
G36*
X2361Y17463D02*
X2367D01*
X2374Y17461D01*
X2382Y17460D01*
X2392Y17458D01*
X2402Y17455D01*
X2412Y17452D01*
X2422Y17448D01*
X2433Y17443D01*
X2444Y17437D01*
X2455Y17429D01*
X2465Y17421D01*
X2475Y17411D01*
X2484Y17400D01*
X2484Y17399D01*
X2486Y17397D01*
X2488Y17393D01*
X2491Y17389D01*
X2494Y17382D01*
X2498Y17374D01*
X2502Y17365D01*
X2507Y17354D01*
X2511Y17342D01*
X2515Y17329D01*
X2519Y17314D01*
X2522Y17298D01*
X2526Y17281D01*
X2528Y17262D01*
X2529Y17242D01*
X2530Y17221D01*
Y17219D01*
Y17215D01*
Y17209D01*
X2529Y17201D01*
X2528Y17192D01*
X2527Y17181D01*
X2526Y17168D01*
X2524Y17155D01*
X2522Y17140D01*
X2518Y17126D01*
X2515Y17111D01*
X2510Y17096D01*
X2505Y17081D01*
X2499Y17067D01*
X2492Y17054D01*
X2484Y17041D01*
X2483Y17040D01*
X2482Y17038D01*
X2479Y17035D01*
X2475Y17031D01*
X2470Y17026D01*
X2465Y17021D01*
X2458Y17016D01*
X2450Y17010D01*
X2441Y17004D01*
X2432Y16998D01*
X2421Y16993D01*
X2409Y16988D01*
X2396Y16984D01*
X2383Y16981D01*
X2368Y16979D01*
X2353Y16978D01*
X2349D01*
X2345Y16979D01*
X2339Y16980D01*
X2332Y16980D01*
X2324Y16982D01*
X2314Y16984D01*
X2304Y16986D01*
X2294Y16990D01*
X2283Y16994D01*
X2272Y16999D01*
X2261Y17005D01*
X2250Y17012D01*
X2240Y17020D01*
X2231Y17030D01*
X2221Y17041D01*
X2221Y17042D01*
X2219Y17044D01*
X2217Y17048D01*
X2214Y17052D01*
X2211Y17059D01*
X2207Y17067D01*
X2203Y17076D01*
X2199Y17087D01*
X2195Y17099D01*
X2191Y17112D01*
X2187Y17127D01*
X2183Y17144D01*
X2180Y17161D01*
X2178Y17179D01*
X2177Y17199D01*
X2176Y17221D01*
Y17221D01*
Y17222D01*
Y17226D01*
Y17232D01*
X2177Y17240D01*
X2177Y17249D01*
X2179Y17261D01*
X2180Y17273D01*
X2182Y17287D01*
X2184Y17301D01*
X2187Y17316D01*
X2191Y17331D01*
X2195Y17345D01*
X2201Y17360D01*
X2207Y17374D01*
X2213Y17388D01*
X2221Y17400D01*
X2222Y17401D01*
X2223Y17403D01*
X2226Y17406D01*
X2230Y17410D01*
X2235Y17415D01*
X2241Y17420D01*
X2247Y17426D01*
X2255Y17432D01*
X2264Y17437D01*
X2274Y17443D01*
X2284Y17449D01*
X2296Y17453D01*
X2309Y17457D01*
X2322Y17461D01*
X2338Y17463D01*
X2353Y17463D01*
X2357D01*
X2361Y17463D01*
D02*
G37*
G36*
X1533Y17263D02*
X1535Y17262D01*
X1535Y17263D01*
X1538Y17265D01*
X1542Y17269D01*
X1547Y17273D01*
X1553Y17278D01*
X1560Y17283D01*
X1567Y17287D01*
X1575Y17291D01*
X1575Y17291D01*
X1578Y17292D01*
X1583Y17293D01*
X1588Y17295D01*
X1594Y17297D01*
X1602Y17298D01*
X1610Y17299D01*
X1620Y17299D01*
X1627D01*
X1631Y17299D01*
X1635Y17298D01*
X1646Y17297D01*
X1658Y17295D01*
X1670Y17291D01*
X1684Y17286D01*
X1697Y17279D01*
X1698D01*
X1698Y17279D01*
X1702Y17276D01*
X1709Y17271D01*
X1716Y17265D01*
X1724Y17257D01*
X1733Y17248D01*
X1742Y17237D01*
X1749Y17224D01*
Y17223D01*
X1750Y17223D01*
X1751Y17221D01*
X1752Y17218D01*
X1754Y17214D01*
X1755Y17210D01*
X1758Y17200D01*
X1762Y17188D01*
X1765Y17174D01*
X1767Y17159D01*
X1768Y17142D01*
Y17142D01*
Y17140D01*
Y17138D01*
Y17134D01*
X1767Y17130D01*
X1766Y17125D01*
X1765Y17114D01*
X1762Y17100D01*
X1758Y17086D01*
X1753Y17072D01*
X1746Y17057D01*
Y17056D01*
X1745Y17056D01*
X1744Y17054D01*
X1742Y17051D01*
X1737Y17044D01*
X1730Y17036D01*
X1722Y17026D01*
X1711Y17017D01*
X1699Y17008D01*
X1685Y16999D01*
X1684D01*
X1683Y16998D01*
X1681Y16997D01*
X1678Y16996D01*
X1674Y16994D01*
X1670Y16992D01*
X1660Y16989D01*
X1646Y16985D01*
X1632Y16982D01*
X1615Y16979D01*
X1597Y16978D01*
X1592D01*
X1588Y16979D01*
X1584D01*
X1578Y16980D01*
X1566Y16981D01*
X1551Y16984D01*
X1535Y16987D01*
X1519Y16992D01*
X1504Y16999D01*
X1503D01*
X1502Y17000D01*
X1500Y17001D01*
X1497Y17003D01*
X1491Y17008D01*
X1482Y17014D01*
X1472Y17023D01*
X1462Y17034D01*
X1452Y17046D01*
X1443Y17059D01*
Y17060D01*
X1443Y17061D01*
X1441Y17063D01*
X1440Y17066D01*
X1439Y17070D01*
X1437Y17074D01*
X1435Y17080D01*
X1433Y17085D01*
X1429Y17099D01*
X1425Y17114D01*
X1423Y17132D01*
X1422Y17151D01*
Y17151D01*
Y17154D01*
Y17156D01*
X1423Y17160D01*
Y17165D01*
X1423Y17170D01*
X1424Y17176D01*
X1425Y17183D01*
X1427Y17199D01*
X1431Y17215D01*
X1436Y17233D01*
X1443Y17251D01*
Y17252D01*
X1444Y17253D01*
X1445Y17256D01*
X1447Y17260D01*
X1449Y17264D01*
X1452Y17269D01*
X1455Y17275D01*
X1459Y17282D01*
X1468Y17297D01*
X1480Y17315D01*
X1494Y17334D01*
X1510Y17354D01*
X1596Y17457D01*
X1699D01*
X1533Y17263D01*
D02*
G37*
G36*
X1209Y17463D02*
X1215D01*
X1222Y17461D01*
X1230Y17460D01*
X1240Y17458D01*
X1249Y17455D01*
X1259Y17452D01*
X1270Y17448D01*
X1281Y17443D01*
X1292Y17437D01*
X1303Y17429D01*
X1313Y17421D01*
X1323Y17411D01*
X1331Y17400D01*
X1332Y17399D01*
X1333Y17397D01*
X1335Y17393D01*
X1339Y17389D01*
X1342Y17382D01*
X1346Y17374D01*
X1350Y17365D01*
X1355Y17354D01*
X1359Y17342D01*
X1363Y17329D01*
X1367Y17314D01*
X1370Y17298D01*
X1373Y17281D01*
X1375Y17262D01*
X1377Y17242D01*
X1377Y17221D01*
Y17219D01*
Y17215D01*
Y17209D01*
X1377Y17201D01*
X1376Y17192D01*
X1375Y17181D01*
X1373Y17168D01*
X1371Y17155D01*
X1369Y17140D01*
X1366Y17126D01*
X1363Y17111D01*
X1358Y17096D01*
X1353Y17081D01*
X1347Y17067D01*
X1339Y17054D01*
X1331Y17041D01*
X1331Y17040D01*
X1329Y17038D01*
X1327Y17035D01*
X1323Y17031D01*
X1318Y17026D01*
X1313Y17021D01*
X1305Y17016D01*
X1298Y17010D01*
X1289Y17004D01*
X1279Y16998D01*
X1269Y16993D01*
X1257Y16988D01*
X1244Y16984D01*
X1231Y16981D01*
X1216Y16979D01*
X1201Y16978D01*
X1197D01*
X1193Y16979D01*
X1187Y16980D01*
X1180Y16980D01*
X1172Y16982D01*
X1162Y16984D01*
X1152Y16986D01*
X1142Y16990D01*
X1131Y16994D01*
X1120Y16999D01*
X1109Y17005D01*
X1098Y17012D01*
X1088Y17020D01*
X1078Y17030D01*
X1069Y17041D01*
X1068Y17042D01*
X1067Y17044D01*
X1065Y17048D01*
X1062Y17052D01*
X1058Y17059D01*
X1055Y17067D01*
X1050Y17076D01*
X1046Y17087D01*
X1042Y17099D01*
X1038Y17112D01*
X1034Y17127D01*
X1031Y17144D01*
X1028Y17161D01*
X1026Y17179D01*
X1024Y17199D01*
X1024Y17221D01*
Y17221D01*
Y17222D01*
Y17226D01*
Y17232D01*
X1024Y17240D01*
X1025Y17249D01*
X1026Y17261D01*
X1028Y17273D01*
X1030Y17287D01*
X1032Y17301D01*
X1035Y17316D01*
X1038Y17331D01*
X1043Y17345D01*
X1048Y17360D01*
X1054Y17374D01*
X1061Y17388D01*
X1069Y17400D01*
X1070Y17401D01*
X1071Y17403D01*
X1074Y17406D01*
X1078Y17410D01*
X1082Y17415D01*
X1088Y17420D01*
X1095Y17426D01*
X1103Y17432D01*
X1112Y17437D01*
X1122Y17443D01*
X1132Y17449D01*
X1144Y17453D01*
X1157Y17457D01*
X1170Y17461D01*
X1186Y17463D01*
X1201Y17463D01*
X1205D01*
X1209Y17463D01*
D02*
G37*
G36*
X801D02*
X807D01*
X815Y17461D01*
X823Y17460D01*
X832Y17458D01*
X842Y17455D01*
X852Y17452D01*
X863Y17448D01*
X873Y17443D01*
X885Y17437D01*
X895Y17429D01*
X905Y17421D01*
X915Y17411D01*
X924Y17400D01*
X924Y17399D01*
X926Y17397D01*
X928Y17393D01*
X931Y17389D01*
X934Y17382D01*
X938Y17374D01*
X942Y17365D01*
X947Y17354D01*
X951Y17342D01*
X955Y17329D01*
X959Y17314D01*
X962Y17298D01*
X966Y17281D01*
X968Y17262D01*
X969Y17242D01*
X970Y17221D01*
Y17219D01*
Y17215D01*
Y17209D01*
X969Y17201D01*
X968Y17192D01*
X967Y17181D01*
X966Y17168D01*
X964Y17155D01*
X962Y17140D01*
X958Y17126D01*
X955Y17111D01*
X950Y17096D01*
X945Y17081D01*
X939Y17067D01*
X932Y17054D01*
X924Y17041D01*
X923Y17040D01*
X922Y17038D01*
X919Y17035D01*
X915Y17031D01*
X910Y17026D01*
X905Y17021D01*
X898Y17016D01*
X891Y17010D01*
X881Y17004D01*
X872Y16998D01*
X861Y16993D01*
X849Y16988D01*
X837Y16984D01*
X823Y16981D01*
X809Y16979D01*
X793Y16978D01*
X789D01*
X785Y16979D01*
X779Y16980D01*
X772Y16980D01*
X764Y16982D01*
X755Y16984D01*
X745Y16986D01*
X734Y16990D01*
X723Y16994D01*
X713Y16999D01*
X701Y17005D01*
X691Y17012D01*
X680Y17020D01*
X671Y17030D01*
X661Y17041D01*
X661Y17042D01*
X659Y17044D01*
X657Y17048D01*
X654Y17052D01*
X651Y17059D01*
X647Y17067D01*
X643Y17076D01*
X639Y17087D01*
X635Y17099D01*
X631Y17112D01*
X627Y17127D01*
X623Y17144D01*
X620Y17161D01*
X618Y17179D01*
X617Y17199D01*
X616Y17221D01*
Y17221D01*
Y17222D01*
Y17226D01*
Y17232D01*
X617Y17240D01*
X617Y17249D01*
X619Y17261D01*
X620Y17273D01*
X622Y17287D01*
X624Y17301D01*
X627Y17316D01*
X631Y17331D01*
X635Y17345D01*
X641Y17360D01*
X647Y17374D01*
X653Y17388D01*
X661Y17400D01*
X662Y17401D01*
X663Y17403D01*
X666Y17406D01*
X670Y17410D01*
X675Y17415D01*
X681Y17420D01*
X687Y17426D01*
X695Y17432D01*
X704Y17437D01*
X714Y17443D01*
X725Y17449D01*
X737Y17453D01*
X749Y17457D01*
X763Y17461D01*
X778Y17463D01*
X793Y17463D01*
X797D01*
X801Y17463D01*
D02*
G37*
G36*
X2648Y16418D02*
X2578D01*
X2523Y16653D01*
X2522D01*
X2448Y16471D01*
X2400D01*
X2325Y16653D01*
X2324D01*
X2269Y16418D01*
X2200D01*
X2290Y16779D01*
X2341D01*
X2423Y16574D01*
X2424D01*
X2506Y16779D01*
X2558D01*
X2648Y16418D01*
D02*
G37*
G36*
X1836D02*
X1766D01*
X1712Y16653D01*
X1711D01*
X1636Y16471D01*
X1588D01*
X1514Y16653D01*
X1513D01*
X1457Y16418D01*
X1388D01*
X1478Y16779D01*
X1530D01*
X1611Y16574D01*
X1612D01*
X1695Y16779D01*
X1746D01*
X1836Y16418D01*
D02*
G37*
G36*
X2766D02*
X2702D01*
Y16704D01*
X2682D01*
Y16766D01*
X2766D01*
Y16418D01*
D02*
G37*
G36*
X2196D02*
X2123D01*
X2092Y16500D01*
X1943D01*
X1913Y16418D01*
X1840D01*
X1985Y16779D01*
X2051D01*
X2196Y16418D01*
D02*
G37*
G36*
X1263Y16774D02*
X1268Y16773D01*
X1273Y16773D01*
X1279Y16772D01*
X1285Y16771D01*
X1298Y16768D01*
X1312Y16763D01*
X1318Y16760D01*
X1325Y16756D01*
X1331Y16752D01*
X1337Y16747D01*
X1337Y16747D01*
X1338Y16746D01*
X1340Y16745D01*
X1341Y16742D01*
X1344Y16740D01*
X1346Y16736D01*
X1349Y16733D01*
X1352Y16728D01*
X1355Y16723D01*
X1357Y16718D01*
X1360Y16712D01*
X1362Y16705D01*
X1364Y16698D01*
X1365Y16691D01*
X1366Y16683D01*
X1367Y16674D01*
Y16674D01*
Y16673D01*
Y16671D01*
Y16669D01*
X1366Y16664D01*
X1365Y16657D01*
X1363Y16648D01*
X1361Y16639D01*
X1358Y16630D01*
X1353Y16620D01*
Y16619D01*
X1353Y16619D01*
X1352Y16617D01*
X1351Y16615D01*
X1347Y16610D01*
X1343Y16603D01*
X1336Y16594D01*
X1328Y16585D01*
X1319Y16574D01*
X1308Y16562D01*
X1225Y16475D01*
X1367Y16476D01*
Y16418D01*
X1137D01*
Y16466D01*
X1256Y16593D01*
X1256Y16594D01*
X1257Y16594D01*
X1258Y16596D01*
X1260Y16598D01*
X1264Y16602D01*
X1270Y16608D01*
X1275Y16615D01*
X1281Y16622D01*
X1286Y16630D01*
X1291Y16636D01*
X1291Y16637D01*
X1292Y16639D01*
X1294Y16643D01*
X1296Y16647D01*
X1298Y16652D01*
X1299Y16658D01*
X1300Y16664D01*
X1301Y16670D01*
Y16671D01*
Y16671D01*
Y16674D01*
X1300Y16678D01*
X1299Y16682D01*
X1298Y16688D01*
X1295Y16693D01*
X1292Y16699D01*
X1288Y16703D01*
X1287Y16704D01*
X1285Y16705D01*
X1283Y16707D01*
X1279Y16709D01*
X1274Y16711D01*
X1268Y16713D01*
X1261Y16715D01*
X1253Y16715D01*
X1249D01*
X1244Y16715D01*
X1239Y16714D01*
X1233Y16712D01*
X1227Y16709D01*
X1220Y16706D01*
X1215Y16701D01*
X1214Y16701D01*
X1213Y16699D01*
X1210Y16696D01*
X1208Y16691D01*
X1205Y16686D01*
X1203Y16680D01*
X1201Y16672D01*
X1200Y16663D01*
X1136D01*
Y16664D01*
Y16666D01*
X1137Y16668D01*
Y16672D01*
X1137Y16676D01*
X1138Y16681D01*
X1139Y16687D01*
X1141Y16693D01*
X1145Y16706D01*
X1147Y16713D01*
X1150Y16720D01*
X1154Y16726D01*
X1158Y16733D01*
X1163Y16739D01*
X1169Y16745D01*
X1169Y16745D01*
X1170Y16746D01*
X1172Y16747D01*
X1175Y16749D01*
X1178Y16752D01*
X1182Y16754D01*
X1186Y16757D01*
X1191Y16760D01*
X1197Y16762D01*
X1204Y16765D01*
X1211Y16767D01*
X1218Y16770D01*
X1227Y16772D01*
X1235Y16773D01*
X1245Y16774D01*
X1255Y16774D01*
X1260D01*
X1263Y16774D01*
D02*
G37*
G36*
X973D02*
X978D01*
X983Y16773D01*
X989Y16772D01*
X996Y16770D01*
X1004Y16768D01*
X1011Y16766D01*
X1019Y16763D01*
X1027Y16759D01*
X1036Y16754D01*
X1044Y16749D01*
X1051Y16742D01*
X1059Y16735D01*
X1065Y16727D01*
X1066Y16726D01*
X1067Y16725D01*
X1068Y16722D01*
X1071Y16718D01*
X1073Y16713D01*
X1076Y16707D01*
X1079Y16700D01*
X1083Y16692D01*
X1086Y16683D01*
X1089Y16673D01*
X1092Y16662D01*
X1094Y16650D01*
X1097Y16637D01*
X1098Y16623D01*
X1099Y16608D01*
X1100Y16592D01*
Y16591D01*
Y16588D01*
Y16584D01*
X1099Y16578D01*
X1099Y16571D01*
X1098Y16562D01*
X1097Y16553D01*
X1095Y16543D01*
X1094Y16532D01*
X1091Y16521D01*
X1089Y16510D01*
X1085Y16498D01*
X1081Y16487D01*
X1077Y16477D01*
X1071Y16467D01*
X1065Y16457D01*
X1065Y16457D01*
X1064Y16455D01*
X1062Y16453D01*
X1059Y16450D01*
X1055Y16446D01*
X1051Y16442D01*
X1046Y16438D01*
X1040Y16434D01*
X1033Y16429D01*
X1026Y16425D01*
X1018Y16421D01*
X1009Y16418D01*
X1000Y16415D01*
X990Y16412D01*
X979Y16411D01*
X967Y16410D01*
X964D01*
X961Y16411D01*
X957Y16411D01*
X951Y16412D01*
X945Y16413D01*
X938Y16414D01*
X931Y16416D01*
X923Y16419D01*
X915Y16422D01*
X907Y16426D01*
X898Y16430D01*
X890Y16435D01*
X882Y16442D01*
X875Y16449D01*
X868Y16457D01*
X868Y16458D01*
X867Y16459D01*
X865Y16462D01*
X863Y16466D01*
X860Y16471D01*
X858Y16477D01*
X854Y16484D01*
X851Y16492D01*
X848Y16501D01*
X845Y16511D01*
X842Y16522D01*
X840Y16534D01*
X837Y16547D01*
X836Y16561D01*
X835Y16576D01*
X834Y16592D01*
Y16593D01*
Y16593D01*
Y16596D01*
Y16601D01*
X835Y16607D01*
X835Y16614D01*
X836Y16622D01*
X837Y16632D01*
X839Y16642D01*
X840Y16653D01*
X843Y16664D01*
X845Y16675D01*
X849Y16686D01*
X853Y16697D01*
X857Y16707D01*
X862Y16718D01*
X868Y16727D01*
X869Y16727D01*
X870Y16729D01*
X872Y16731D01*
X875Y16734D01*
X878Y16738D01*
X883Y16742D01*
X888Y16746D01*
X894Y16751D01*
X900Y16755D01*
X908Y16759D01*
X916Y16763D01*
X925Y16767D01*
X934Y16770D01*
X944Y16772D01*
X956Y16774D01*
X967Y16774D01*
X970D01*
X973Y16774D01*
D02*
G37*
G36*
X667D02*
X672D01*
X677Y16773D01*
X683Y16772D01*
X690Y16770D01*
X698Y16768D01*
X705Y16766D01*
X713Y16763D01*
X721Y16759D01*
X730Y16754D01*
X738Y16749D01*
X745Y16742D01*
X753Y16735D01*
X759Y16727D01*
X760Y16726D01*
X761Y16725D01*
X762Y16722D01*
X765Y16718D01*
X767Y16713D01*
X770Y16707D01*
X773Y16700D01*
X777Y16692D01*
X780Y16683D01*
X783Y16673D01*
X786Y16662D01*
X788Y16650D01*
X791Y16637D01*
X792Y16623D01*
X793Y16608D01*
X794Y16592D01*
Y16591D01*
Y16588D01*
Y16584D01*
X793Y16578D01*
X793Y16571D01*
X792Y16562D01*
X791Y16553D01*
X789Y16543D01*
X788Y16532D01*
X785Y16521D01*
X783Y16510D01*
X779Y16498D01*
X775Y16487D01*
X771Y16477D01*
X765Y16467D01*
X759Y16457D01*
X759Y16457D01*
X758Y16455D01*
X756Y16453D01*
X753Y16450D01*
X749Y16446D01*
X745Y16442D01*
X740Y16438D01*
X734Y16434D01*
X727Y16429D01*
X720Y16425D01*
X712Y16421D01*
X703Y16418D01*
X694Y16415D01*
X684Y16412D01*
X673Y16411D01*
X661Y16410D01*
X658D01*
X655Y16411D01*
X651Y16411D01*
X645Y16412D01*
X639Y16413D01*
X632Y16414D01*
X625Y16416D01*
X617Y16419D01*
X609Y16422D01*
X601Y16426D01*
X592Y16430D01*
X584Y16435D01*
X576Y16442D01*
X569Y16449D01*
X562Y16457D01*
X562Y16458D01*
X561Y16459D01*
X559Y16462D01*
X557Y16466D01*
X554Y16471D01*
X552Y16477D01*
X548Y16484D01*
X545Y16492D01*
X542Y16501D01*
X539Y16511D01*
X536Y16522D01*
X534Y16534D01*
X531Y16547D01*
X530Y16561D01*
X529Y16576D01*
X528Y16592D01*
Y16593D01*
Y16593D01*
Y16596D01*
Y16601D01*
X529Y16607D01*
X529Y16614D01*
X530Y16622D01*
X531Y16632D01*
X533Y16642D01*
X534Y16653D01*
X537Y16664D01*
X539Y16675D01*
X543Y16686D01*
X547Y16697D01*
X551Y16707D01*
X556Y16718D01*
X562Y16727D01*
X563Y16727D01*
X564Y16729D01*
X566Y16731D01*
X569Y16734D01*
X572Y16738D01*
X577Y16742D01*
X582Y16746D01*
X588Y16751D01*
X594Y16755D01*
X602Y16759D01*
X610Y16763D01*
X619Y16767D01*
X628Y16770D01*
X638Y16772D01*
X650Y16774D01*
X661Y16774D01*
X664D01*
X667Y16774D01*
D02*
G37*
G36*
X361D02*
X366D01*
X371Y16773D01*
X377Y16772D01*
X384Y16770D01*
X392Y16768D01*
X399Y16766D01*
X407Y16763D01*
X415Y16759D01*
X424Y16754D01*
X432Y16749D01*
X439Y16742D01*
X447Y16735D01*
X453Y16727D01*
X454Y16726D01*
X455Y16725D01*
X456Y16722D01*
X459Y16718D01*
X461Y16713D01*
X464Y16707D01*
X467Y16700D01*
X471Y16692D01*
X474Y16683D01*
X477Y16673D01*
X480Y16662D01*
X482Y16650D01*
X485Y16637D01*
X486Y16623D01*
X487Y16608D01*
X488Y16592D01*
Y16591D01*
Y16588D01*
Y16584D01*
X487Y16578D01*
X487Y16571D01*
X486Y16562D01*
X485Y16553D01*
X483Y16543D01*
X482Y16532D01*
X479Y16521D01*
X477Y16510D01*
X473Y16498D01*
X469Y16487D01*
X465Y16477D01*
X459Y16467D01*
X453Y16457D01*
X453Y16457D01*
X452Y16455D01*
X450Y16453D01*
X447Y16450D01*
X443Y16446D01*
X439Y16442D01*
X434Y16438D01*
X428Y16434D01*
X421Y16429D01*
X414Y16425D01*
X406Y16421D01*
X397Y16418D01*
X388Y16415D01*
X378Y16412D01*
X367Y16411D01*
X355Y16410D01*
X352D01*
X349Y16411D01*
X345Y16411D01*
X339Y16412D01*
X333Y16413D01*
X326Y16414D01*
X319Y16416D01*
X311Y16419D01*
X303Y16422D01*
X295Y16426D01*
X286Y16430D01*
X278Y16435D01*
X270Y16442D01*
X263Y16449D01*
X256Y16457D01*
X256Y16458D01*
X255Y16459D01*
X253Y16462D01*
X251Y16466D01*
X248Y16471D01*
X246Y16477D01*
X242Y16484D01*
X239Y16492D01*
X236Y16501D01*
X233Y16511D01*
X230Y16522D01*
X228Y16534D01*
X225Y16547D01*
X224Y16561D01*
X223Y16576D01*
X222Y16592D01*
Y16593D01*
Y16593D01*
Y16596D01*
Y16601D01*
X223Y16607D01*
X223Y16614D01*
X224Y16622D01*
X225Y16632D01*
X227Y16642D01*
X228Y16653D01*
X231Y16664D01*
X233Y16675D01*
X237Y16686D01*
X241Y16697D01*
X245Y16707D01*
X250Y16718D01*
X256Y16727D01*
X257Y16727D01*
X258Y16729D01*
X260Y16731D01*
X263Y16734D01*
X266Y16738D01*
X271Y16742D01*
X276Y16746D01*
X282Y16751D01*
X288Y16755D01*
X296Y16759D01*
X304Y16763D01*
X313Y16767D01*
X322Y16770D01*
X332Y16772D01*
X344Y16774D01*
X355Y16774D01*
X358D01*
X361Y16774D01*
D02*
G37*
%LPC*%
G36*
X4770Y19084D02*
X4660D01*
Y18894D01*
X4770D01*
X4780Y18894D01*
X4789Y18895D01*
X4798Y18896D01*
X4806Y18897D01*
X4815Y18899D01*
X4823Y18902D01*
X4835Y18907D01*
X4842Y18911D01*
X4848Y18915D01*
X4854Y18921D01*
X4864Y18932D01*
X4869Y18941D01*
X4874Y18954D01*
X4878Y18969D01*
X4879Y18984D01*
X4879Y18997D01*
X4878Y19008D01*
X4874Y19021D01*
X4870Y19034D01*
X4865Y19042D01*
X4862Y19047D01*
X4852Y19058D01*
X4845Y19064D01*
X4836Y19070D01*
X4829Y19073D01*
X4822Y19076D01*
X4815Y19078D01*
X4806Y19081D01*
X4798Y19082D01*
X4792Y19083D01*
X4779Y19084D01*
X4770Y19084D01*
D02*
G37*
G36*
X5298D02*
Y18619D01*
X5401D01*
X5412Y18619D01*
X5425Y18620D01*
X5442Y18622D01*
X5459Y18625D01*
X5471Y18629D01*
X5483Y18632D01*
X5490Y18635D01*
X5496Y18637D01*
X5503Y18641D01*
X5515Y18646D01*
X5524Y18652D01*
X5536Y18660D01*
X5546Y18667D01*
X5555Y18675D01*
X5570Y18691D01*
X5578Y18702D01*
X5586Y18714D01*
X5594Y18727D01*
X5598Y18736D01*
X5604Y18750D01*
X5609Y18765D01*
X5613Y18778D01*
X5615Y18789D01*
X5617Y18801D01*
X5620Y18819D01*
X5621Y18834D01*
X5621Y18850D01*
X5621Y18861D01*
X5620Y18877D01*
X5618Y18895D01*
X5617Y18907D01*
X5614Y18919D01*
X5612Y18928D01*
X5609Y18938D01*
X5604Y18953D01*
X5599Y18966D01*
X5594Y18975D01*
X5589Y18985D01*
X5583Y18995D01*
X5577Y19004D01*
X5567Y19015D01*
X5558Y19026D01*
X5546Y19036D01*
X5532Y19047D01*
X5521Y19054D01*
X5508Y19061D01*
X5494Y19067D01*
X5484Y19071D01*
X5471Y19075D01*
X5459Y19078D01*
X5448Y19080D01*
X5435Y19082D01*
X5419Y19084D01*
X5410Y19084D01*
X5404Y19084D01*
X5298Y19084D01*
D02*
G37*
G36*
X4020Y19086D02*
X4008Y19086D01*
X3997Y19085D01*
X3988Y19084D01*
X3980Y19083D01*
X3971Y19081D01*
X3962Y19079D01*
X3952Y19076D01*
X3942Y19072D01*
X3930Y19068D01*
X3923Y19065D01*
X3916Y19061D01*
X3908Y19057D01*
X3897Y19050D01*
X3885Y19042D01*
X3876Y19035D01*
X3866Y19026D01*
X3853Y19012D01*
X3846Y19003D01*
X3836Y18988D01*
X3829Y18977D01*
X3823Y18966D01*
X3818Y18956D01*
X3815Y18947D01*
X3810Y18934D01*
X3807Y18922D01*
X3804Y18910D01*
X3802Y18899D01*
X3800Y18891D01*
X3799Y18880D01*
X3798Y18870D01*
X3798Y18852D01*
X3798Y18841D01*
X3798Y18834D01*
X3799Y18827D01*
X3800Y18816D01*
X3801Y18809D01*
X3802Y18801D01*
X3805Y18790D01*
X3808Y18778D01*
X3813Y18762D01*
X3818Y18748D01*
X3823Y18738D01*
X3825Y18733D01*
X3831Y18722D01*
X3839Y18710D01*
X3844Y18703D01*
X3851Y18694D01*
X3864Y18681D01*
X3874Y18670D01*
X3887Y18660D01*
X3900Y18651D01*
X3918Y18641D01*
X3932Y18635D01*
X3943Y18631D01*
X3954Y18627D01*
X3968Y18623D01*
X3982Y18621D01*
X3994Y18619D01*
X4007Y18618D01*
X4024Y18617D01*
X4032Y18617D01*
X4042Y18618D01*
X4066Y18620D01*
X4074Y18622D01*
X4086Y18625D01*
X4100Y18629D01*
X4115Y18634D01*
X4121Y18636D01*
X4134Y18642D01*
X4141Y18647D01*
X4150Y18652D01*
X4165Y18662D01*
X4177Y18672D01*
X4188Y18683D01*
X4197Y18693D01*
X4204Y18701D01*
X4209Y18708D01*
X4217Y18721D01*
X4220Y18726D01*
X4225Y18736D01*
X4230Y18745D01*
X4235Y18758D01*
X4239Y18770D01*
X4241Y18778D01*
X4244Y18790D01*
X4246Y18797D01*
X4247Y18805D01*
X4249Y18815D01*
X4250Y18822D01*
X4250Y18833D01*
X4251Y18840D01*
X4251Y18850D01*
X4251Y18856D01*
X4251Y18865D01*
X4250Y18872D01*
X4250Y18880D01*
X4249Y18887D01*
X4247Y18897D01*
X4246Y18905D01*
X4243Y18920D01*
X4240Y18929D01*
X4237Y18939D01*
X4234Y18947D01*
X4231Y18956D01*
X4224Y18969D01*
X4219Y18980D01*
X4212Y18991D01*
X4207Y18997D01*
X4202Y19005D01*
X4194Y19014D01*
X4184Y19025D01*
X4174Y19034D01*
X4162Y19044D01*
X4143Y19056D01*
X4135Y19060D01*
X4122Y19067D01*
X4111Y19071D01*
X4100Y19075D01*
X4091Y19078D01*
X4082Y19080D01*
X4073Y19082D01*
X4061Y19084D01*
X4050Y19085D01*
X4038Y19086D01*
X4029Y19086D01*
X4020Y19086D01*
D02*
G37*
G36*
X6634Y18273D02*
Y18202D01*
X6677Y18202D01*
X6683Y18203D01*
X6690Y18204D01*
X6696Y18206D01*
X6700Y18208D01*
X6706Y18212D01*
X6709Y18216D01*
X6713Y18223D01*
X6714Y18229D01*
X6715Y18236D01*
X6715Y18242D01*
X6713Y18250D01*
X6710Y18255D01*
X6704Y18263D01*
X6698Y18267D01*
X6693Y18270D01*
X6685Y18272D01*
X6679Y18272D01*
X6634Y18273D01*
D02*
G37*
G36*
X5100Y18273D02*
X5062D01*
Y18100D01*
X5099D01*
X5111Y18101D01*
X5120Y18102D01*
X5129Y18105D01*
X5139Y18109D01*
X5143Y18111D01*
X5150Y18115D01*
X5153Y18118D01*
X5162Y18127D01*
X5167Y18134D01*
X5170Y18139D01*
X5174Y18147D01*
X5176Y18154D01*
X5179Y18162D01*
X5180Y18168D01*
X5181Y18176D01*
X5181Y18184D01*
X5181Y18192D01*
X5180Y18200D01*
X5179Y18207D01*
X5178Y18213D01*
X5176Y18219D01*
X5175Y18223D01*
X5174Y18227D01*
X5172Y18231D01*
X5169Y18236D01*
X5164Y18243D01*
X5161Y18247D01*
X5154Y18255D01*
X5148Y18258D01*
X5140Y18264D01*
X5133Y18267D01*
X5126Y18269D01*
X5117Y18271D01*
X5109Y18272D01*
X5100Y18273D01*
D02*
G37*
G36*
X6351Y18273D02*
X6345Y18273D01*
X6336Y18272D01*
X6326Y18270D01*
X6320Y18267D01*
X6312Y18264D01*
X6306Y18260D01*
X6298Y18254D01*
X6289Y18246D01*
X6284Y18240D01*
X6279Y18231D01*
X6275Y18222D01*
X6272Y18213D01*
X6270Y18204D01*
X6269Y18192D01*
X6269Y18185D01*
X6269Y18175D01*
X6271Y18165D01*
X6273Y18156D01*
X6275Y18152D01*
X6277Y18147D01*
X6281Y18139D01*
X6284Y18134D01*
X6293Y18123D01*
X6297Y18120D01*
X6307Y18112D01*
X6313Y18109D01*
X6318Y18106D01*
X6325Y18104D01*
X6330Y18102D01*
X6337Y18101D01*
X6345Y18100D01*
X6350Y18100D01*
X6359Y18100D01*
X6368Y18101D01*
X6375Y18102D01*
X6381Y18104D01*
X6386Y18106D01*
X6396Y18111D01*
X6405Y18116D01*
X6409Y18120D01*
X6417Y18128D01*
X6421Y18133D01*
X6424Y18138D01*
X6427Y18144D01*
X6429Y18149D01*
X6431Y18153D01*
X6434Y18165D01*
X6436Y18174D01*
X6436Y18182D01*
X6436Y18189D01*
X6436Y18196D01*
X6435Y18203D01*
X6434Y18210D01*
X6432Y18217D01*
X6430Y18223D01*
X6428Y18228D01*
X6422Y18238D01*
X6418Y18243D01*
X6409Y18253D01*
X6403Y18258D01*
X6397Y18262D01*
X6391Y18265D01*
X6385Y18268D01*
X6379Y18270D01*
X6372Y18271D01*
X6362Y18273D01*
X6356Y18273D01*
X6351Y18273D01*
D02*
G37*
G36*
X4441Y18272D02*
X4435Y18272D01*
X4426Y18271D01*
X4416Y18269D01*
X4410Y18266D01*
X4403Y18263D01*
X4396Y18259D01*
X4388Y18253D01*
X4379Y18245D01*
X4374Y18239D01*
X4369Y18230D01*
X4365Y18221D01*
X4362Y18212D01*
X4360Y18203D01*
X4359Y18191D01*
X4359Y18184D01*
X4359Y18174D01*
X4361Y18164D01*
X4363Y18155D01*
X4365Y18151D01*
X4367Y18146D01*
X4371Y18138D01*
X4374Y18133D01*
X4383Y18122D01*
X4387Y18119D01*
X4397Y18111D01*
X4403Y18108D01*
X4408Y18105D01*
X4415Y18103D01*
X4420Y18101D01*
X4427Y18100D01*
X4435Y18099D01*
X4440Y18099D01*
X4449Y18099D01*
X4458Y18100D01*
X4466Y18102D01*
X4471Y18103D01*
X4476Y18105D01*
X4486Y18110D01*
X4495Y18115D01*
X4499Y18119D01*
X4507Y18127D01*
X4511Y18133D01*
X4514Y18137D01*
X4517Y18143D01*
X4519Y18148D01*
X4521Y18152D01*
X4524Y18164D01*
X4526Y18173D01*
X4526Y18181D01*
X4526Y18188D01*
X4526Y18195D01*
X4525Y18202D01*
X4524Y18209D01*
X4522Y18216D01*
X4520Y18222D01*
X4518Y18227D01*
X4512Y18237D01*
X4508Y18242D01*
X4499Y18252D01*
X4493Y18257D01*
X4487Y18261D01*
X4481Y18264D01*
X4475Y18267D01*
X4469Y18269D01*
X4462Y18270D01*
X4452Y18272D01*
X4446Y18272D01*
X4441Y18272D01*
D02*
G37*
G36*
X1966Y17384D02*
X1960D01*
X1953Y17383D01*
X1945Y17381D01*
X1935Y17379D01*
X1925Y17375D01*
X1915Y17369D01*
X1905Y17361D01*
X1905Y17360D01*
X1902Y17357D01*
X1898Y17352D01*
X1894Y17345D01*
X1890Y17337D01*
X1886Y17326D01*
X1884Y17314D01*
X1882Y17301D01*
Y17300D01*
Y17299D01*
Y17297D01*
X1883Y17295D01*
X1884Y17288D01*
X1885Y17279D01*
X1888Y17270D01*
X1892Y17260D01*
X1898Y17250D01*
X1905Y17241D01*
X1907Y17240D01*
X1910Y17237D01*
X1915Y17233D01*
X1922Y17229D01*
X1931Y17225D01*
X1941Y17221D01*
X1953Y17219D01*
X1967Y17218D01*
X1970D01*
X1973Y17219D01*
X1979Y17219D01*
X1987Y17221D01*
X1997Y17223D01*
X2007Y17227D01*
X2017Y17233D01*
X2026Y17241D01*
X2027Y17242D01*
X2030Y17245D01*
X2033Y17250D01*
X2038Y17257D01*
X2042Y17265D01*
X2046Y17275D01*
X2049Y17287D01*
X2049Y17301D01*
Y17301D01*
Y17303D01*
Y17304D01*
X2049Y17307D01*
X2048Y17314D01*
X2047Y17322D01*
X2043Y17332D01*
X2039Y17342D01*
X2034Y17351D01*
X2026Y17361D01*
X2025Y17362D01*
X2022Y17365D01*
X2017Y17368D01*
X2010Y17373D01*
X2001Y17377D01*
X1991Y17381D01*
X1979Y17383D01*
X1966Y17384D01*
D02*
G37*
G36*
X444Y17339D02*
X441D01*
X304Y17145D01*
X444D01*
Y17339D01*
D02*
G37*
G36*
X2353Y17383D02*
X2349D01*
X2346Y17383D01*
X2338Y17381D01*
X2328Y17378D01*
X2318Y17373D01*
X2312Y17369D01*
X2306Y17365D01*
X2301Y17361D01*
X2296Y17355D01*
X2291Y17348D01*
X2286Y17341D01*
Y17340D01*
X2286Y17339D01*
X2284Y17336D01*
X2283Y17333D01*
X2281Y17329D01*
X2279Y17323D01*
X2277Y17317D01*
X2275Y17310D01*
X2272Y17301D01*
X2270Y17293D01*
X2268Y17283D01*
X2267Y17272D01*
X2265Y17261D01*
X2264Y17248D01*
X2263Y17235D01*
Y17221D01*
Y17220D01*
Y17217D01*
Y17213D01*
X2264Y17208D01*
Y17201D01*
X2264Y17194D01*
X2265Y17185D01*
X2266Y17177D01*
X2269Y17157D01*
X2273Y17138D01*
X2278Y17118D01*
X2282Y17109D01*
X2286Y17100D01*
Y17100D01*
X2288Y17098D01*
X2289Y17096D01*
X2291Y17094D01*
X2296Y17087D01*
X2304Y17079D01*
X2313Y17071D01*
X2324Y17064D01*
X2331Y17062D01*
X2338Y17060D01*
X2345Y17058D01*
X2353Y17058D01*
X2357D01*
X2360Y17058D01*
X2368Y17060D01*
X2377Y17063D01*
X2388Y17068D01*
X2393Y17072D01*
X2398Y17076D01*
X2404Y17080D01*
X2409Y17086D01*
X2414Y17093D01*
X2418Y17100D01*
Y17101D01*
X2420Y17102D01*
X2420Y17105D01*
X2422Y17108D01*
X2424Y17113D01*
X2426Y17118D01*
X2428Y17124D01*
X2430Y17132D01*
X2432Y17140D01*
X2434Y17149D01*
X2436Y17159D01*
X2438Y17169D01*
X2440Y17181D01*
X2441Y17193D01*
X2442Y17207D01*
Y17221D01*
Y17221D01*
Y17224D01*
Y17228D01*
X2441Y17233D01*
Y17240D01*
X2440Y17247D01*
X2440Y17256D01*
X2439Y17265D01*
X2436Y17284D01*
X2432Y17304D01*
X2426Y17323D01*
X2422Y17332D01*
X2418Y17341D01*
Y17341D01*
X2417Y17343D01*
X2416Y17345D01*
X2414Y17347D01*
X2409Y17354D01*
X2402Y17362D01*
X2392Y17370D01*
X2381Y17377D01*
X2374Y17379D01*
X2368Y17381D01*
X2361Y17383D01*
X2353Y17383D01*
D02*
G37*
G36*
X1594Y17227D02*
X1591D01*
X1588Y17226D01*
X1581Y17225D01*
X1573Y17224D01*
X1563Y17221D01*
X1553Y17217D01*
X1543Y17211D01*
X1533Y17203D01*
X1533Y17202D01*
X1530Y17199D01*
X1526Y17194D01*
X1522Y17187D01*
X1517Y17178D01*
X1514Y17167D01*
X1511Y17155D01*
X1510Y17142D01*
Y17141D01*
Y17140D01*
Y17138D01*
X1511Y17135D01*
X1511Y17128D01*
X1513Y17120D01*
X1516Y17110D01*
X1520Y17099D01*
X1525Y17089D01*
X1533Y17080D01*
X1535Y17079D01*
X1537Y17076D01*
X1543Y17072D01*
X1550Y17068D01*
X1559Y17064D01*
X1569Y17060D01*
X1581Y17058D01*
X1595Y17056D01*
X1599D01*
X1601Y17057D01*
X1608Y17058D01*
X1617Y17059D01*
X1627Y17062D01*
X1637Y17066D01*
X1647Y17072D01*
X1656Y17080D01*
X1658Y17081D01*
X1660Y17084D01*
X1664Y17089D01*
X1668Y17096D01*
X1672Y17105D01*
X1676Y17116D01*
X1679Y17128D01*
X1680Y17142D01*
Y17142D01*
Y17144D01*
Y17146D01*
X1679Y17148D01*
X1678Y17155D01*
X1677Y17163D01*
X1674Y17173D01*
X1670Y17184D01*
X1664Y17194D01*
X1656Y17203D01*
X1655Y17205D01*
X1652Y17207D01*
X1647Y17211D01*
X1640Y17215D01*
X1631Y17219D01*
X1620Y17223D01*
X1608Y17226D01*
X1594Y17227D01*
D02*
G37*
G36*
X1201Y17383D02*
X1197D01*
X1194Y17383D01*
X1186Y17381D01*
X1176Y17378D01*
X1166Y17373D01*
X1160Y17369D01*
X1154Y17365D01*
X1149Y17361D01*
X1144Y17355D01*
X1139Y17348D01*
X1134Y17341D01*
Y17340D01*
X1134Y17339D01*
X1132Y17336D01*
X1131Y17333D01*
X1129Y17329D01*
X1127Y17323D01*
X1125Y17317D01*
X1123Y17310D01*
X1120Y17301D01*
X1118Y17293D01*
X1116Y17283D01*
X1115Y17272D01*
X1113Y17261D01*
X1112Y17248D01*
X1111Y17235D01*
Y17221D01*
Y17220D01*
Y17217D01*
Y17213D01*
X1112Y17208D01*
Y17201D01*
X1112Y17194D01*
X1113Y17185D01*
X1114Y17177D01*
X1117Y17157D01*
X1121Y17138D01*
X1126Y17118D01*
X1130Y17109D01*
X1134Y17100D01*
Y17100D01*
X1136Y17098D01*
X1137Y17096D01*
X1139Y17094D01*
X1144Y17087D01*
X1152Y17079D01*
X1161Y17071D01*
X1172Y17064D01*
X1179Y17062D01*
X1186Y17060D01*
X1193Y17058D01*
X1201Y17058D01*
X1205D01*
X1208Y17058D01*
X1216Y17060D01*
X1225Y17063D01*
X1236Y17068D01*
X1241Y17072D01*
X1246Y17076D01*
X1251Y17080D01*
X1257Y17086D01*
X1261Y17093D01*
X1266Y17100D01*
Y17101D01*
X1267Y17102D01*
X1268Y17105D01*
X1270Y17108D01*
X1271Y17113D01*
X1273Y17118D01*
X1275Y17124D01*
X1278Y17132D01*
X1280Y17140D01*
X1282Y17149D01*
X1284Y17159D01*
X1286Y17169D01*
X1287Y17181D01*
X1289Y17193D01*
X1289Y17207D01*
Y17221D01*
Y17221D01*
Y17224D01*
Y17228D01*
X1289Y17233D01*
Y17240D01*
X1288Y17247D01*
X1287Y17256D01*
X1287Y17265D01*
X1283Y17284D01*
X1279Y17304D01*
X1274Y17323D01*
X1270Y17332D01*
X1266Y17341D01*
Y17341D01*
X1265Y17343D01*
X1263Y17345D01*
X1262Y17347D01*
X1257Y17354D01*
X1249Y17362D01*
X1240Y17370D01*
X1229Y17377D01*
X1222Y17379D01*
X1216Y17381D01*
X1209Y17383D01*
X1201Y17383D01*
D02*
G37*
G36*
X793D02*
X789D01*
X786Y17383D01*
X779Y17381D01*
X769Y17378D01*
X758Y17373D01*
X753Y17369D01*
X747Y17365D01*
X741Y17361D01*
X736Y17355D01*
X731Y17348D01*
X727Y17341D01*
Y17340D01*
X726Y17339D01*
X725Y17336D01*
X723Y17333D01*
X721Y17329D01*
X719Y17323D01*
X717Y17317D01*
X715Y17310D01*
X713Y17301D01*
X711Y17293D01*
X709Y17283D01*
X707Y17272D01*
X705Y17261D01*
X705Y17248D01*
X703Y17235D01*
Y17221D01*
Y17220D01*
Y17217D01*
Y17213D01*
X704Y17208D01*
Y17201D01*
X705Y17194D01*
X705Y17185D01*
X706Y17177D01*
X709Y17157D01*
X713Y17138D01*
X719Y17118D01*
X723Y17109D01*
X727Y17100D01*
Y17100D01*
X728Y17098D01*
X729Y17096D01*
X731Y17094D01*
X737Y17087D01*
X744Y17079D01*
X753Y17071D01*
X765Y17064D01*
X771Y17062D01*
X778Y17060D01*
X785Y17058D01*
X793Y17058D01*
X797D01*
X800Y17058D01*
X808Y17060D01*
X817Y17063D01*
X828Y17068D01*
X833Y17072D01*
X839Y17076D01*
X844Y17080D01*
X849Y17086D01*
X854Y17093D01*
X859Y17100D01*
Y17101D01*
X860Y17102D01*
X861Y17105D01*
X863Y17108D01*
X864Y17113D01*
X866Y17118D01*
X868Y17124D01*
X871Y17132D01*
X873Y17140D01*
X875Y17149D01*
X877Y17159D01*
X879Y17169D01*
X880Y17181D01*
X881Y17193D01*
X882Y17207D01*
Y17221D01*
Y17221D01*
Y17224D01*
Y17228D01*
X881Y17233D01*
Y17240D01*
X881Y17247D01*
X880Y17256D01*
X879Y17265D01*
X876Y17284D01*
X872Y17304D01*
X867Y17323D01*
X863Y17332D01*
X859Y17341D01*
Y17341D01*
X857Y17343D01*
X856Y17345D01*
X855Y17347D01*
X849Y17354D01*
X842Y17362D01*
X833Y17370D01*
X821Y17377D01*
X815Y17379D01*
X808Y17381D01*
X801Y17383D01*
X793Y17383D01*
D02*
G37*
G36*
X2018Y16702D02*
X1965Y16560D01*
X2071D01*
X2018Y16702D01*
D02*
G37*
G36*
X967Y16714D02*
X964D01*
X962Y16714D01*
X956Y16713D01*
X949Y16710D01*
X941Y16706D01*
X937Y16704D01*
X932Y16701D01*
X928Y16697D01*
X924Y16693D01*
X921Y16688D01*
X917Y16682D01*
Y16682D01*
X917Y16681D01*
X916Y16679D01*
X915Y16676D01*
X913Y16673D01*
X912Y16669D01*
X910Y16664D01*
X909Y16659D01*
X907Y16653D01*
X905Y16646D01*
X904Y16639D01*
X903Y16631D01*
X901Y16622D01*
X901Y16613D01*
X900Y16603D01*
Y16592D01*
Y16592D01*
Y16590D01*
Y16587D01*
X900Y16583D01*
Y16578D01*
X901Y16572D01*
X901Y16566D01*
X902Y16559D01*
X904Y16545D01*
X907Y16530D01*
X911Y16515D01*
X914Y16508D01*
X917Y16502D01*
Y16501D01*
X918Y16500D01*
X919Y16499D01*
X921Y16497D01*
X925Y16492D01*
X930Y16486D01*
X937Y16480D01*
X946Y16475D01*
X951Y16473D01*
X956Y16471D01*
X961Y16470D01*
X967Y16470D01*
X970D01*
X972Y16470D01*
X978Y16471D01*
X985Y16474D01*
X993Y16478D01*
X997Y16480D01*
X1001Y16483D01*
X1005Y16487D01*
X1009Y16491D01*
X1013Y16496D01*
X1016Y16502D01*
Y16502D01*
X1017Y16503D01*
X1018Y16505D01*
X1019Y16508D01*
X1020Y16511D01*
X1022Y16515D01*
X1023Y16520D01*
X1025Y16525D01*
X1027Y16531D01*
X1028Y16538D01*
X1030Y16546D01*
X1031Y16554D01*
X1032Y16562D01*
X1033Y16572D01*
X1034Y16582D01*
Y16592D01*
Y16593D01*
Y16595D01*
Y16598D01*
X1033Y16602D01*
Y16607D01*
X1033Y16612D01*
X1032Y16619D01*
X1032Y16625D01*
X1029Y16640D01*
X1026Y16655D01*
X1022Y16669D01*
X1019Y16676D01*
X1016Y16682D01*
Y16683D01*
X1015Y16684D01*
X1014Y16685D01*
X1013Y16687D01*
X1009Y16692D01*
X1004Y16698D01*
X997Y16704D01*
X988Y16709D01*
X983Y16711D01*
X978Y16713D01*
X973Y16714D01*
X967Y16714D01*
D02*
G37*
G36*
X661D02*
X658D01*
X656Y16714D01*
X650Y16713D01*
X643Y16710D01*
X635Y16706D01*
X631Y16704D01*
X626Y16701D01*
X622Y16697D01*
X618Y16693D01*
X615Y16688D01*
X611Y16682D01*
Y16682D01*
X611Y16681D01*
X610Y16679D01*
X609Y16676D01*
X607Y16673D01*
X606Y16669D01*
X604Y16664D01*
X603Y16659D01*
X601Y16653D01*
X599Y16646D01*
X598Y16639D01*
X597Y16631D01*
X595Y16622D01*
X595Y16613D01*
X594Y16603D01*
Y16592D01*
Y16592D01*
Y16590D01*
Y16587D01*
X594Y16583D01*
Y16578D01*
X595Y16572D01*
X595Y16566D01*
X596Y16559D01*
X598Y16545D01*
X601Y16530D01*
X605Y16515D01*
X608Y16508D01*
X611Y16502D01*
Y16501D01*
X612Y16500D01*
X613Y16499D01*
X615Y16497D01*
X619Y16492D01*
X624Y16486D01*
X631Y16480D01*
X640Y16475D01*
X645Y16473D01*
X650Y16471D01*
X655Y16470D01*
X661Y16470D01*
X664D01*
X666Y16470D01*
X672Y16471D01*
X679Y16474D01*
X687Y16478D01*
X691Y16480D01*
X695Y16483D01*
X699Y16487D01*
X703Y16491D01*
X707Y16496D01*
X710Y16502D01*
Y16502D01*
X711Y16503D01*
X712Y16505D01*
X713Y16508D01*
X714Y16511D01*
X716Y16515D01*
X717Y16520D01*
X719Y16525D01*
X721Y16531D01*
X722Y16538D01*
X724Y16546D01*
X725Y16554D01*
X726Y16562D01*
X727Y16572D01*
X728Y16582D01*
Y16592D01*
Y16593D01*
Y16595D01*
Y16598D01*
X727Y16602D01*
Y16607D01*
X727Y16612D01*
X726Y16619D01*
X726Y16625D01*
X723Y16640D01*
X720Y16655D01*
X716Y16669D01*
X713Y16676D01*
X710Y16682D01*
Y16683D01*
X709Y16684D01*
X708Y16685D01*
X707Y16687D01*
X703Y16692D01*
X698Y16698D01*
X691Y16704D01*
X682Y16709D01*
X677Y16711D01*
X672Y16713D01*
X667Y16714D01*
X661Y16714D01*
D02*
G37*
G36*
X355D02*
X352D01*
X350Y16714D01*
X344Y16713D01*
X337Y16710D01*
X329Y16706D01*
X325Y16704D01*
X320Y16701D01*
X316Y16697D01*
X312Y16693D01*
X309Y16688D01*
X305Y16682D01*
Y16682D01*
X305Y16681D01*
X304Y16679D01*
X303Y16676D01*
X301Y16673D01*
X300Y16669D01*
X298Y16664D01*
X297Y16659D01*
X295Y16653D01*
X293Y16646D01*
X292Y16639D01*
X291Y16631D01*
X289Y16622D01*
X289Y16613D01*
X288Y16603D01*
Y16592D01*
Y16592D01*
Y16590D01*
Y16587D01*
X288Y16583D01*
Y16578D01*
X289Y16572D01*
X289Y16566D01*
X290Y16559D01*
X292Y16545D01*
X295Y16530D01*
X299Y16515D01*
X302Y16508D01*
X305Y16502D01*
Y16501D01*
X306Y16500D01*
X307Y16499D01*
X309Y16497D01*
X313Y16492D01*
X318Y16486D01*
X325Y16480D01*
X334Y16475D01*
X339Y16473D01*
X344Y16471D01*
X349Y16470D01*
X355Y16470D01*
X358D01*
X360Y16470D01*
X366Y16471D01*
X373Y16474D01*
X381Y16478D01*
X385Y16480D01*
X389Y16483D01*
X393Y16487D01*
X397Y16491D01*
X401Y16496D01*
X404Y16502D01*
Y16502D01*
X405Y16503D01*
X406Y16505D01*
X407Y16508D01*
X408Y16511D01*
X410Y16515D01*
X411Y16520D01*
X413Y16525D01*
X415Y16531D01*
X416Y16538D01*
X418Y16546D01*
X419Y16554D01*
X420Y16562D01*
X421Y16572D01*
X422Y16582D01*
Y16592D01*
Y16593D01*
Y16595D01*
Y16598D01*
X421Y16602D01*
Y16607D01*
X421Y16612D01*
X420Y16619D01*
X420Y16625D01*
X417Y16640D01*
X414Y16655D01*
X410Y16669D01*
X407Y16676D01*
X404Y16682D01*
Y16683D01*
X403Y16684D01*
X402Y16685D01*
X401Y16687D01*
X397Y16692D01*
X392Y16698D01*
X385Y16704D01*
X376Y16709D01*
X371Y16711D01*
X366Y16713D01*
X361Y16714D01*
X355Y16714D01*
D02*
G37*
%LPD*%
D10*
X16797Y16452D02*
G03*
X16797Y16452I-49J0D01*
G01*
Y13522D02*
G03*
X16797Y13522I-49J0D01*
G01*
X11571Y5652D02*
G03*
X11571Y5652I-49J0D01*
G01*
X14986Y5967D02*
G03*
X14986Y5967I-49J0D01*
G01*
X15874Y19432D02*
G03*
X15874Y19432I-20J0D01*
G01*
X15866Y18157D02*
G03*
X15866Y18157I-20J0D01*
G01*
D11*
X7309Y7207D02*
G03*
X7309Y7207I-374J0D01*
G01*
X15321Y4137D02*
G03*
X15321Y4137I-20J0D01*
G01*
X7230Y9924D02*
G03*
X7230Y9924I-374J0D01*
G01*
X7437Y11312D02*
G03*
X7437Y11312I-374J0D01*
G01*
X7467Y13585D02*
G03*
X7467Y13585I-374J0D01*
G01*
X7142Y3546D02*
G03*
X7142Y3546I-374J0D01*
G01*
X7299Y4954D02*
G03*
X7299Y4954I-374J0D01*
G01*
X14557Y8593D02*
G03*
X14557Y8593I-374J0D01*
G01*
X13654Y5003D02*
G03*
X13654Y5003I-374J0D01*
G01*
X21728Y5741D02*
G03*
X21728Y5741I-374J0D01*
G01*
X13037Y4461D02*
G03*
X13037Y4461I-374J0D01*
G01*
X17909Y4639D02*
G03*
X17909Y4639I-374J0D01*
G01*
X14602Y7247D02*
X14681D01*
Y7070D02*
Y7247D01*
X13539D02*
X13618D01*
X13539Y7070D02*
Y7247D01*
Y5908D02*
Y6085D01*
Y5908D02*
X13618D01*
X14602D02*
X14681D01*
Y6085D01*
X18313Y17798D02*
X18904D01*
X18313Y18428D02*
X18904D01*
D12*
X11517Y11794D02*
G03*
X11517Y11794I-24J0D01*
G01*
X15557Y4653D02*
X15636D01*
X15557Y4210D02*
X15636D01*
X15818Y4235D02*
Y4629D01*
X15375Y4235D02*
Y4629D01*
X16834Y19335D02*
Y19368D01*
X15997D02*
X16834D01*
Y18531D02*
Y18565D01*
X15997Y18531D02*
X16834D01*
X15997D02*
Y18565D01*
Y19335D02*
Y19368D01*
X16826Y18060D02*
Y18094D01*
X15989D02*
X16826D01*
Y17257D02*
Y17290D01*
X15989Y17257D02*
X16826D01*
X15989D02*
Y17290D01*
Y18060D02*
Y18094D01*
D13*
X7920Y13192D02*
G03*
X7919Y13192I-0J5D01*
G01*
X7894Y6843D02*
G03*
X7894Y6843I-0J5D01*
G01*
X18137Y7847D02*
G03*
X18137Y7847I-31J0D01*
G01*
X14213Y11115D02*
G03*
X14213Y11115I-14J0D01*
G01*
X14361D02*
G03*
X14361Y11115I-162J0D01*
G01*
X20550Y10223D02*
X22550D01*
X20550Y13223D02*
X22550D01*
X20550Y10223D02*
Y13223D01*
X22550Y10223D02*
Y13223D01*
X11900Y20223D02*
Y20523D01*
Y20923D02*
Y21223D01*
X12900Y20223D02*
Y21223D01*
X2900Y20223D02*
Y21223D01*
Y20223D02*
X12900Y20223D01*
X2900Y21223D02*
X12900D01*
X20500Y20223D02*
Y20523D01*
Y20923D02*
Y21223D01*
X21500Y20223D02*
Y21223D01*
X13500Y20223D02*
Y21223D01*
Y20223D02*
X21500D01*
X13500Y21223D02*
X21500D01*
X16500Y1923D02*
Y2223D01*
Y1223D02*
Y1523D01*
X15500Y1223D02*
Y2223D01*
X21500Y1223D02*
Y2223D01*
X15500D02*
X21500D01*
X15500Y1223D02*
X21500D01*
X7500Y1923D02*
Y2223D01*
Y1223D02*
Y1523D01*
X6500Y1223D02*
Y2223D01*
X14500Y1223D02*
Y2223D01*
X6500D02*
X14500D01*
X6500Y1223D02*
X14500D01*
X14904Y16223D02*
Y17223D01*
X3904Y16923D02*
Y17223D01*
Y16223D02*
Y16523D01*
X2904Y16223D02*
Y17223D01*
Y16223D02*
X14904D01*
X2904Y17223D02*
X14904D01*
D14*
X20350Y13223D02*
G03*
X20350Y13223I-100J0D01*
G01*
D15*
X18521Y14383D02*
Y16351D01*
X17121D02*
X18521D01*
X17121Y14383D02*
X18521D01*
X17121D02*
Y16351D01*
X18521Y11453D02*
Y13421D01*
X17121D02*
X18521D01*
X17121Y11453D02*
X18521D01*
X17121D02*
Y13421D01*
X14234Y4695D02*
Y4774D01*
X14470Y4695D02*
Y4774D01*
X13742Y4695D02*
Y4774D01*
X13978Y4695D02*
Y4774D01*
X14086Y5305D02*
X14165D01*
X14086Y5541D02*
X14165D01*
X1890Y15526D02*
X3890D01*
X1890Y9326D02*
Y15526D01*
X3890Y9326D02*
Y15526D01*
X1890Y9326D02*
X3890D01*
X11650Y5770D02*
X13343D01*
Y7463D01*
X11650Y5770D02*
Y7463D01*
X13343D01*
X21112Y6272D02*
X21772D01*
X22598D02*
X23258D01*
X22598Y9875D02*
X23258D01*
X20463Y6646D02*
Y6755D01*
Y9393D02*
Y9501D01*
X23258Y6272D02*
Y9875D01*
X21102D02*
X21791D01*
X8047Y13083D02*
X8283D01*
X6965Y12857D02*
Y13083D01*
X7191D01*
X8283Y12847D02*
Y13083D01*
Y11765D02*
Y11991D01*
X8057Y11765D02*
X8283D01*
X6965D02*
Y11991D01*
Y11765D02*
X7191D01*
X8022Y6735D02*
X8258D01*
X6939Y6509D02*
Y6735D01*
X7165D01*
X8258Y6499D02*
Y6735D01*
Y5416D02*
Y5643D01*
X8031Y5416D02*
X8258D01*
X6939D02*
Y5643D01*
Y5416D02*
X7165D01*
X18234Y7660D02*
X18303D01*
Y6873D02*
Y7660D01*
X18234Y6873D02*
X18303D01*
X17122Y7660D02*
X17191D01*
X17122Y6873D02*
Y7660D01*
Y6873D02*
X17191D01*
X5715Y11430D02*
X5951D01*
X5715Y10800D02*
X5951D01*
X5626Y14028D02*
X5862D01*
X5626Y13398D02*
X5862D01*
X5508Y5091D02*
X5744D01*
X5508Y4461D02*
X5744D01*
X5537Y7670D02*
X5774D01*
X5537Y7040D02*
X5774D01*
X15468Y7011D02*
Y7089D01*
X15724Y7011D02*
Y7089D01*
X15360Y8015D02*
Y8093D01*
X15616Y8015D02*
Y8093D01*
X1890Y2999D02*
X3890D01*
X3890D02*
Y9199D01*
X1890Y2999D02*
Y9199D01*
X1890D02*
X3890D01*
X6049Y12562D02*
X6128D01*
X6049Y12798D02*
X6128D01*
X6000Y6233D02*
X6079D01*
X6000Y6469D02*
X6079D01*
X11571Y8467D02*
Y8546D01*
X11965Y8467D02*
Y8546D01*
X12309Y8457D02*
Y8536D01*
X12703Y8457D02*
Y8536D01*
X13028Y8457D02*
Y8536D01*
X13421Y8457D02*
Y8536D01*
X14055Y7776D02*
X14134D01*
X14055Y7539D02*
X14134D01*
X13362Y11351D02*
X13963D01*
X13362D02*
X13431Y11272D01*
X13362Y11351D02*
X13431Y11430D01*
X13963Y11952D02*
X14041Y11883D01*
X13884D02*
X13963Y11952D01*
Y11351D02*
Y11952D01*
X18195Y18763D02*
Y19117D01*
X18372D01*
X18431Y19058D01*
Y18940D01*
X18372Y18881D01*
X18195D01*
X18313D02*
X18431Y18763D01*
X18785Y19058D02*
X18726Y19117D01*
X18608D01*
X18549Y19058D01*
Y18822D01*
X18608Y18763D01*
X18726D01*
X18785Y18822D01*
Y18940D01*
X18667D01*
X18903Y19117D02*
Y18763D01*
X19080D01*
X19139Y18822D01*
Y18881D01*
X19080Y18940D01*
X18903D01*
X19080D01*
X19139Y18999D01*
Y19058D01*
X19080Y19117D01*
X18903D01*
X16089Y9550D02*
Y9904D01*
X16266D01*
X16325Y9845D01*
Y9727D01*
X16266Y9668D01*
X16089D01*
X16502Y9550D02*
X16620D01*
X16679Y9609D01*
Y9727D01*
X16620Y9786D01*
X16502D01*
X16443Y9727D01*
Y9609D01*
X16502Y9550D01*
X16797Y9786D02*
Y9609D01*
X16856Y9550D01*
X16915Y9609D01*
X16974Y9550D01*
X17033Y9609D01*
Y9786D01*
X17328Y9550D02*
X17210D01*
X17151Y9609D01*
Y9727D01*
X17210Y9786D01*
X17328D01*
X17387Y9727D01*
Y9668D01*
X17151D01*
X17505Y9786D02*
Y9550D01*
Y9668D01*
X17564Y9727D01*
X17624Y9786D01*
X17683D01*
X18450Y9845D02*
X18391Y9904D01*
X18273D01*
X18214Y9845D01*
Y9609D01*
X18273Y9550D01*
X18391D01*
X18450Y9609D01*
Y9727D01*
X18332D01*
X18627Y9550D02*
X18745D01*
X18804Y9609D01*
Y9727D01*
X18745Y9786D01*
X18627D01*
X18568Y9727D01*
Y9609D01*
X18627Y9550D01*
X18981D02*
X19099D01*
X19158Y9609D01*
Y9727D01*
X19099Y9786D01*
X18981D01*
X18922Y9727D01*
Y9609D01*
X18981Y9550D01*
X19513Y9904D02*
Y9550D01*
X19336D01*
X19277Y9609D01*
Y9727D01*
X19336Y9786D01*
X19513D01*
X17053Y10879D02*
X16994Y10938D01*
X16876D01*
X16817Y10879D01*
Y10642D01*
X16876Y10583D01*
X16994D01*
X17053Y10642D01*
X17171Y10938D02*
Y10583D01*
Y10761D01*
X17230Y10820D01*
X17348D01*
X17407Y10761D01*
Y10583D01*
X17584Y10820D02*
X17702D01*
X17761Y10761D01*
Y10583D01*
X17584D01*
X17525Y10642D01*
X17584Y10701D01*
X17761D01*
X17880Y10820D02*
Y10583D01*
Y10701D01*
X17939Y10761D01*
X17998Y10820D01*
X18057D01*
X18352Y10465D02*
X18411D01*
X18470Y10524D01*
Y10820D01*
X18293D01*
X18234Y10761D01*
Y10642D01*
X18293Y10583D01*
X18470D01*
X18588D02*
X18706D01*
X18647D01*
Y10820D01*
X18588D01*
X18883Y10583D02*
Y10820D01*
X19060D01*
X19119Y10761D01*
Y10583D01*
X19355Y10465D02*
X19415D01*
X19474Y10524D01*
Y10820D01*
X19296D01*
X19237Y10761D01*
Y10642D01*
X19296Y10583D01*
X19474D01*
D16*
X14155Y5197D02*
X14549D01*
X14155Y4272D02*
X14549D01*
X14155D02*
Y4636D01*
Y4833D02*
Y5197D01*
X14549Y4272D02*
Y4636D01*
Y4833D02*
Y5197D01*
X13663D02*
X14057D01*
X13663Y4272D02*
X14057D01*
X13663D02*
Y4636D01*
Y4833D02*
Y5197D01*
X14057Y4272D02*
Y4636D01*
Y4833D02*
Y5197D01*
X13663Y5226D02*
Y5620D01*
X14588Y5226D02*
Y5620D01*
X14224Y5226D02*
X14588D01*
X13663D02*
X14027D01*
X14224Y5620D02*
X14588D01*
X13663D02*
X14027D01*
X11561Y15347D02*
Y15593D01*
Y14904D02*
Y15150D01*
X11266Y15347D02*
Y15593D01*
Y14904D02*
Y15150D01*
Y14904D02*
X11561D01*
X11266Y15593D02*
X11561D01*
X14573Y15337D02*
Y15583D01*
Y14894D02*
Y15141D01*
X14278Y15337D02*
Y15583D01*
Y14894D02*
Y15141D01*
Y14894D02*
X14573D01*
X14278Y15583D02*
X14573D01*
X16404Y6381D02*
X16650D01*
X16846D02*
X17093D01*
X16404Y6085D02*
X16650D01*
X16846D02*
X17093D01*
Y6381D01*
X16404Y6085D02*
Y6381D01*
X15665Y15751D02*
X15961D01*
X15665Y15062D02*
X15961D01*
X15665D02*
Y15308D01*
Y15505D02*
Y15751D01*
X15961Y15062D02*
Y15308D01*
Y15505D02*
Y15751D01*
X18126Y16774D02*
X18372D01*
X18569D02*
X18815D01*
X18126Y16479D02*
X18372D01*
X18569D02*
X18815D01*
Y16774D01*
X18126Y16479D02*
Y16774D01*
X17732Y16479D02*
Y16725D01*
Y16922D02*
Y17168D01*
X18028Y16479D02*
Y16725D01*
Y16922D02*
Y17168D01*
X17732D02*
X18028D01*
X17732Y16479D02*
X18028D01*
X16935Y16765D02*
X17181D01*
X17378D02*
X17624D01*
X16935Y16469D02*
X17181D01*
X17378D02*
X17624D01*
Y16765D01*
X16935Y16469D02*
Y16765D01*
X15685Y12808D02*
X15980D01*
X15685Y12119D02*
X15980D01*
X15685D02*
Y12365D01*
Y12562D02*
Y12808D01*
X15980Y12119D02*
Y12365D01*
Y12562D02*
Y12808D01*
X18067Y13851D02*
X18313D01*
X18510D02*
X18756D01*
X18067Y13556D02*
X18313D01*
X18510D02*
X18756D01*
Y13851D01*
X18067Y13556D02*
Y13851D01*
X17683Y13556D02*
Y13802D01*
Y13999D02*
Y14245D01*
X17978Y13556D02*
Y13802D01*
Y13999D02*
Y14245D01*
X17683D02*
X17978D01*
X17683Y13556D02*
X17978D01*
X16896Y13851D02*
X17142D01*
X17339D02*
X17585D01*
X16896Y13556D02*
X17142D01*
X17339D02*
X17585D01*
Y13851D01*
X16896Y13556D02*
Y13851D01*
X17146Y18034D02*
Y18329D01*
X17835Y18034D02*
Y18329D01*
X17589Y18034D02*
X17835D01*
X17146D02*
X17392D01*
X17589Y18329D02*
X17835D01*
X17146D02*
X17392D01*
X17146Y17384D02*
Y17680D01*
X17835Y17384D02*
Y17680D01*
X17589Y17384D02*
X17835D01*
X17146D02*
X17392D01*
X17589Y17680D02*
X17835D01*
X17146D02*
X17392D01*
X17146Y18634D02*
Y18930D01*
X17835Y18634D02*
Y18930D01*
X17589Y18634D02*
X17835D01*
X17146D02*
X17392D01*
X17589Y18930D02*
X17835D01*
X17146D02*
X17392D01*
X8549Y10583D02*
X8844D01*
X8549Y9894D02*
X8844D01*
X8549D02*
Y10141D01*
Y10337D02*
Y10583D01*
X8844Y9894D02*
Y10141D01*
Y10337D02*
Y10583D01*
X8175Y11391D02*
X8470D01*
X8175Y10702D02*
X8470D01*
X8175D02*
Y10948D01*
Y11144D02*
Y11391D01*
X8470Y10702D02*
Y10948D01*
Y11144D02*
Y11391D01*
X9051Y9894D02*
Y10141D01*
Y10337D02*
Y10583D01*
X9346Y9894D02*
Y10141D01*
Y10337D02*
Y10583D01*
X9051D02*
X9346D01*
X9051Y9894D02*
X9346D01*
X7781Y10593D02*
X8077D01*
X7781Y9904D02*
X8077D01*
X7781D02*
Y10150D01*
Y10347D02*
Y10593D01*
X8077Y9904D02*
Y10150D01*
Y10347D02*
Y10593D01*
X10075Y3881D02*
X10370D01*
X10075Y3192D02*
X10370D01*
X10075D02*
Y3438D01*
Y3635D02*
Y3881D01*
X10370Y3192D02*
Y3438D01*
Y3635D02*
Y3881D01*
X9041Y9048D02*
Y9294D01*
Y9491D02*
Y9737D01*
X9337Y9048D02*
Y9294D01*
Y9491D02*
Y9737D01*
X9041D02*
X9337D01*
X9041Y9048D02*
X9337D01*
X9829Y9727D02*
X10124D01*
X9829Y9038D02*
X10124D01*
X9829D02*
Y9284D01*
Y9481D02*
Y9727D01*
X10124Y9038D02*
Y9284D01*
Y9481D02*
Y9727D01*
X9278Y11391D02*
Y11686D01*
X8589Y11391D02*
Y11686D01*
X8835D01*
X9031D02*
X9278D01*
X8589Y11391D02*
X8835D01*
X9031D02*
X9278D01*
X9287Y12532D02*
Y12828D01*
X8598Y12532D02*
Y12828D01*
X8844D01*
X9041D02*
X9287D01*
X8598Y12532D02*
X8844D01*
X9041D02*
X9287D01*
X8470Y4274D02*
X8766D01*
X8470Y3585D02*
X8766D01*
X8470D02*
Y3831D01*
Y4028D02*
Y4274D01*
X8766Y3585D02*
Y3831D01*
Y4028D02*
Y4274D01*
X8096Y5072D02*
X8392D01*
X8096Y4383D02*
X8392D01*
X8096D02*
Y4629D01*
Y4826D02*
Y5072D01*
X8392Y4383D02*
Y4629D01*
Y4826D02*
Y5072D01*
X9287Y2857D02*
Y3103D01*
Y3300D02*
Y3546D01*
X9583Y2857D02*
Y3103D01*
Y3300D02*
Y3546D01*
X9287D02*
X9583D01*
X9287Y2857D02*
X9583D01*
X7713Y4294D02*
X8008D01*
X7713Y3605D02*
X8008D01*
X7713D02*
Y3851D01*
Y4048D02*
Y4294D01*
X8008Y3605D02*
Y3851D01*
Y4048D02*
Y4294D01*
X9681Y2828D02*
Y3123D01*
X10370Y2828D02*
Y3123D01*
X10124Y2828D02*
X10370D01*
X9681D02*
X9927D01*
X10124Y3123D02*
X10370D01*
X9681D02*
X9927D01*
X9189Y3300D02*
Y3546D01*
Y2857D02*
Y3103D01*
X8894Y3300D02*
Y3546D01*
Y2857D02*
Y3103D01*
Y2857D02*
X9189D01*
X8894Y3546D02*
X9189D01*
X10065Y4688D02*
X10360D01*
X10065Y3999D02*
X10360D01*
X10065D02*
Y4245D01*
Y4442D02*
Y4688D01*
X10360Y3999D02*
Y4245D01*
Y4442D02*
Y4688D01*
X9228Y5072D02*
Y5367D01*
X8539Y5072D02*
Y5367D01*
X8785D01*
X8982D02*
X9228D01*
X8539Y5072D02*
X8785D01*
X8982D02*
X9228D01*
X9219Y6213D02*
Y6509D01*
X8530Y6213D02*
Y6509D01*
X8776D01*
X8972D02*
X9219D01*
X8530Y6213D02*
X8776D01*
X8972D02*
X9219D01*
X20301Y7729D02*
Y8024D01*
X19612Y7729D02*
Y8024D01*
X19858D01*
X20055D02*
X20301D01*
X19612Y7729D02*
X19858D01*
X20055D02*
X20301D01*
Y8123D02*
Y8418D01*
X19612Y8123D02*
Y8418D01*
X19858D01*
X20055D02*
X20301D01*
X19612Y8123D02*
X19858D01*
X20055D02*
X20301D01*
X15390Y6578D02*
X15803D01*
X15390Y7522D02*
X15803D01*
X15390Y6578D02*
Y6952D01*
Y7148D02*
Y7522D01*
X15803Y6578D02*
Y6952D01*
Y7148D02*
Y7522D01*
X15104Y6381D02*
X15400D01*
X15104Y5692D02*
X15400D01*
X15104D02*
Y5938D01*
Y6135D02*
Y6381D01*
X15400Y5692D02*
Y5938D01*
Y6135D02*
Y6381D01*
X15281Y7581D02*
X15695D01*
X15281Y8526D02*
X15695D01*
X15281Y7581D02*
Y7956D01*
Y8152D02*
Y8526D01*
X15695Y7581D02*
Y7956D01*
Y8152D02*
Y8526D01*
X15774Y8389D02*
X16069D01*
X15774Y7700D02*
X16069D01*
X15774D02*
Y7946D01*
Y8143D02*
Y8389D01*
X16069Y7700D02*
Y7946D01*
Y8143D02*
Y8389D01*
X17781Y6184D02*
X18028D01*
X17339D02*
X17585D01*
X17781Y6479D02*
X18028D01*
X17339D02*
X17585D01*
X17339Y6184D02*
Y6479D01*
X18028Y6184D02*
Y6479D01*
X16718Y7778D02*
X17014D01*
X16718Y7089D02*
X17014D01*
X16718D02*
Y7335D01*
Y7532D02*
Y7778D01*
X17014Y7089D02*
Y7335D01*
Y7532D02*
Y7778D01*
X16965Y7877D02*
Y8172D01*
X17654Y7877D02*
Y8172D01*
X17407Y7877D02*
X17654D01*
X16965D02*
X17211D01*
X17407Y8172D02*
X17654D01*
X16965D02*
X17211D01*
X17742Y7837D02*
X18037D01*
X17742Y8526D02*
X18037D01*
Y8280D02*
Y8526D01*
Y7837D02*
Y8083D01*
X17742Y8280D02*
Y8526D01*
Y7837D02*
Y8083D01*
X16610Y5662D02*
Y5957D01*
X17299Y5662D02*
Y5957D01*
X17053Y5662D02*
X17299D01*
X16610D02*
X16856D01*
X17053Y5957D02*
X17299D01*
X16610D02*
X16856D01*
X18313Y17798D02*
Y18428D01*
X18904Y17798D02*
Y18428D01*
X16059Y15761D02*
X16335D01*
X16059Y15052D02*
X16335D01*
X16059D02*
Y15308D01*
Y15505D02*
Y15761D01*
X16335Y15052D02*
Y15308D01*
Y15505D02*
Y15761D01*
X16069Y12818D02*
X16345D01*
X16069Y12109D02*
X16345D01*
X16069D02*
Y12365D01*
Y12562D02*
Y12818D01*
X16345Y12109D02*
Y12365D01*
Y12562D02*
Y12818D01*
X12841Y11056D02*
X13116D01*
X12841Y10347D02*
X13116D01*
X12841D02*
Y10603D01*
Y10800D02*
Y11056D01*
X13116Y10347D02*
Y10603D01*
Y10800D02*
Y11056D01*
X11778Y10337D02*
Y10613D01*
X12486Y10337D02*
Y10613D01*
X12230Y10337D02*
X12486D01*
X11778D02*
X12033D01*
X12230Y10613D02*
X12486D01*
X11778D02*
X12033D01*
X8175Y10593D02*
X8451D01*
X8175Y9885D02*
X8451D01*
X8175D02*
Y10141D01*
Y10337D02*
Y10593D01*
X8451Y9885D02*
Y10141D01*
Y10337D02*
Y10593D01*
X7408Y10603D02*
X7683D01*
X7408Y9894D02*
X7683D01*
X7408D02*
Y10150D01*
Y10347D02*
Y10603D01*
X7683Y9894D02*
Y10150D01*
Y10347D02*
Y10603D01*
X8589Y11784D02*
Y12060D01*
X9297Y11784D02*
Y12060D01*
X9041Y11784D02*
X9297D01*
X8589D02*
X8845D01*
X9041Y12060D02*
X9297D01*
X8589D02*
X8845D01*
X8589Y12168D02*
Y12444D01*
X9297Y12168D02*
Y12444D01*
X9041Y12168D02*
X9297D01*
X8589D02*
X8845D01*
X9041Y12444D02*
X9297D01*
X8589D02*
X8845D01*
X6187Y12483D02*
X6551D01*
X5626D02*
X5990D01*
X6187Y12877D02*
X6551D01*
X5626D02*
X5990D01*
X5626Y12483D02*
Y12877D01*
X6551Y12483D02*
Y12877D01*
X6502Y11961D02*
Y12237D01*
X5793Y11961D02*
Y12237D01*
X6049D01*
X6246D02*
X6502D01*
X5793Y11961D02*
X6049D01*
X6246D02*
X6502D01*
X8106Y4294D02*
X8382D01*
X8106Y3585D02*
X8382D01*
X8106D02*
Y3841D01*
Y4038D02*
Y4294D01*
X8382Y3585D02*
Y3841D01*
Y4038D02*
Y4294D01*
X7339Y4304D02*
X7614D01*
X7339Y3595D02*
X7614D01*
X7339D02*
Y3851D01*
Y4048D02*
Y4304D01*
X7614Y3595D02*
Y3851D01*
Y4048D02*
Y4304D01*
X8530Y5465D02*
Y5741D01*
X9238Y5465D02*
Y5741D01*
X8982Y5465D02*
X9238D01*
X8530D02*
X8785D01*
X8982Y5741D02*
X9238D01*
X8530D02*
X8785D01*
X8530Y5839D02*
Y6115D01*
X9238Y5839D02*
Y6115D01*
X8982Y5839D02*
X9238D01*
X8530D02*
X8785D01*
X8982Y6115D02*
X9238D01*
X8530D02*
X8785D01*
X6138Y6154D02*
X6502D01*
X5577D02*
X5941D01*
X6138Y6548D02*
X6502D01*
X5577D02*
X5941D01*
X5577Y6154D02*
Y6548D01*
X6502Y6154D02*
Y6548D01*
X6443Y5593D02*
Y5869D01*
X5734Y5593D02*
Y5869D01*
X5990D01*
X6187D02*
X6443D01*
X5734Y5593D02*
X5990D01*
X6187D02*
X6443D01*
X15065Y6587D02*
X15341D01*
X15065Y7296D02*
X15341D01*
Y7040D02*
Y7296D01*
Y6587D02*
Y6843D01*
X15065Y7040D02*
Y7296D01*
Y6587D02*
Y6843D01*
X11453Y7946D02*
Y8408D01*
Y8605D02*
Y9068D01*
X12083Y7946D02*
Y8408D01*
Y8605D02*
Y9068D01*
X11453D02*
X12083D01*
X11453Y7946D02*
X12083D01*
X12191Y7936D02*
Y8398D01*
Y8595D02*
Y9058D01*
X12821Y7936D02*
Y8398D01*
Y8595D02*
Y9058D01*
X12191D02*
X12821D01*
X12191Y7936D02*
X12821D01*
X12909D02*
Y8398D01*
Y8595D02*
Y9058D01*
X13539Y7936D02*
Y8398D01*
Y8595D02*
Y9058D01*
X12909D02*
X13539D01*
X12909Y7936D02*
X13539D01*
X13632Y7854D02*
X13996D01*
X14193D02*
X14557D01*
X13632Y7461D02*
X13996D01*
X14193D02*
X14557D01*
Y7854D01*
X13632Y7461D02*
Y7854D01*
X14961Y3829D02*
X15236D01*
X14961Y4537D02*
X15236D01*
Y4282D02*
Y4537D01*
Y3829D02*
Y4085D01*
X14961Y4282D02*
Y4537D01*
Y3829D02*
Y4085D01*
X16000Y4963D02*
X16276D01*
X16000Y4255D02*
X16276D01*
X16000D02*
Y4511D01*
Y4707D02*
Y4963D01*
X16276Y4255D02*
Y4511D01*
Y4707D02*
Y4963D01*
X18136Y6676D02*
X18411D01*
X18136Y5967D02*
X18411D01*
X18136D02*
Y6223D01*
Y6420D02*
Y6676D01*
X18411Y5967D02*
Y6223D01*
Y6420D02*
Y6676D01*
X18352Y7837D02*
X18628D01*
X18352Y8546D02*
X18628D01*
Y8290D02*
Y8546D01*
Y7837D02*
Y8093D01*
X18352Y8290D02*
Y8546D01*
Y7837D02*
Y8093D01*
D17*
X11571Y10731D02*
X12752D01*
X11571D02*
Y11715D01*
X12752Y10731D02*
Y11715D01*
X11571D02*
X12752D01*
X19130Y18576D02*
X18999D01*
X19064Y18510D02*
Y18641D01*
X14606Y11243D02*
Y11112D01*
X14474Y11243D01*
Y11112D01*
X14029Y12215D02*
X13898Y12083D01*
X13963Y12149D01*
X14029Y12083D01*
X13898Y12215D01*
X13268Y11417D02*
X13169D01*
X13136Y11385D01*
Y11286D01*
X13104D01*
X13071Y11319D01*
Y11352D01*
X13136Y11286D02*
X13268D01*
X4169Y7404D02*
Y7601D01*
X4235Y7536D01*
X4300Y7601D01*
Y7404D01*
X4366Y7503D02*
X4497D01*
X4189Y4432D02*
Y4629D01*
X4255Y4563D01*
X4320Y4629D01*
Y4432D01*
X4386Y4530D02*
X4517D01*
X4159Y10741D02*
Y10938D01*
X4225Y10872D01*
X4291Y10938D01*
Y10741D01*
X4356Y10839D02*
X4487D01*
X1217Y4432D02*
Y4629D01*
X1282Y4563D01*
X1348Y4629D01*
Y4432D01*
X1413Y4530D02*
X1545D01*
X1479Y4596D02*
Y4465D01*
X1236Y7414D02*
Y7611D01*
X1302Y7545D01*
X1367Y7611D01*
Y7414D01*
X1433Y7513D02*
X1564D01*
X1499Y7578D02*
Y7447D01*
X1217Y10721D02*
Y10918D01*
X1282Y10852D01*
X1348Y10918D01*
Y10721D01*
X1413Y10820D02*
X1545D01*
X1479Y10885D02*
Y10754D01*
X4251Y6617D02*
X4120D01*
Y6420D01*
X4251D01*
X4120Y6518D02*
X4186D01*
X4448Y6420D02*
X4317D01*
X4448Y6551D01*
Y6584D01*
X4415Y6617D01*
X4350D01*
X4317Y6584D01*
X1377Y6646D02*
X1246D01*
Y6450D01*
X1377D01*
X1246Y6548D02*
X1312D01*
X1443Y6450D02*
X1508D01*
X1476D01*
Y6646D01*
X1443Y6614D01*
X4232Y12995D02*
X4100D01*
Y12798D01*
X4232D01*
X4100Y12896D02*
X4166D01*
X4428Y12798D02*
X4297D01*
X4428Y12929D01*
Y12962D01*
X4396Y12995D01*
X4330D01*
X4297Y12962D01*
X1279Y12936D02*
X1148D01*
Y12739D01*
X1279D01*
X1148Y12837D02*
X1213D01*
X1344Y12739D02*
X1410D01*
X1377D01*
Y12936D01*
X1344Y12903D01*
X4222Y14911D02*
X4189Y14944D01*
X4123D01*
X4091Y14911D01*
Y14780D01*
X4123Y14747D01*
X4189D01*
X4222Y14780D01*
Y14845D01*
X4156D01*
X4287Y14747D02*
Y14944D01*
X4419Y14747D01*
Y14944D01*
X4484D02*
Y14747D01*
X4583D01*
X4615Y14780D01*
Y14911D01*
X4583Y14944D01*
X4484D01*
X4091Y13802D02*
Y13999D01*
X4156Y13933D01*
X4222Y13999D01*
Y13802D01*
X4287Y13900D02*
X4419D01*
X1118Y13782D02*
Y13979D01*
X1184Y13913D01*
X1249Y13979D01*
Y13782D01*
X1315Y13881D02*
X1446D01*
X1380Y13946D02*
Y13815D01*
X4192Y11988D02*
X4159Y12020D01*
X4094D01*
X4061Y11988D01*
Y11856D01*
X4094Y11824D01*
X4159D01*
X4192Y11856D01*
Y11922D01*
X4127D01*
X4258Y11824D02*
Y12020D01*
X4389Y11824D01*
Y12020D01*
X4455D02*
Y11824D01*
X4553D01*
X4586Y11856D01*
Y11988D01*
X4553Y12020D01*
X4455D01*
X4192Y5610D02*
X4159Y5642D01*
X4094D01*
X4061Y5610D01*
Y5478D01*
X4094Y5446D01*
X4159D01*
X4192Y5478D01*
Y5544D01*
X4127D01*
X4258Y5446D02*
Y5642D01*
X4389Y5446D01*
Y5642D01*
X4455D02*
Y5446D01*
X4553D01*
X4586Y5478D01*
Y5610D01*
X4553Y5642D01*
X4455D01*
X4222Y8553D02*
X4189Y8585D01*
X4123D01*
X4091Y8553D01*
Y8421D01*
X4123Y8389D01*
X4189D01*
X4222Y8421D01*
Y8487D01*
X4156D01*
X4287Y8389D02*
Y8585D01*
X4419Y8389D01*
Y8585D01*
X4484D02*
Y8389D01*
X4583D01*
X4615Y8421D01*
Y8553D01*
X4583Y8585D01*
X4484D01*
X951Y5642D02*
Y5511D01*
X1016Y5446D01*
X1082Y5511D01*
Y5642D01*
X1148D02*
Y5446D01*
X1246D01*
X1279Y5478D01*
Y5610D01*
X1246Y5642D01*
X1148D01*
X1344D02*
Y5446D01*
X1443D01*
X1476Y5478D01*
Y5610D01*
X1443Y5642D01*
X1344D01*
X970Y8566D02*
Y8434D01*
X1036Y8369D01*
X1102Y8434D01*
Y8566D01*
X1167D02*
Y8369D01*
X1266D01*
X1298Y8402D01*
Y8533D01*
X1266Y8566D01*
X1167D01*
X1364D02*
Y8369D01*
X1462D01*
X1495Y8402D01*
Y8533D01*
X1462Y8566D01*
X1364D01*
X970Y11952D02*
Y11820D01*
X1036Y11755D01*
X1102Y11820D01*
Y11952D01*
X1167D02*
Y11755D01*
X1266D01*
X1298Y11788D01*
Y11919D01*
X1266Y11952D01*
X1167D01*
X1364D02*
Y11755D01*
X1462D01*
X1495Y11788D01*
Y11919D01*
X1462Y11952D01*
X1364D01*
X980Y14963D02*
Y14832D01*
X1046Y14767D01*
X1111Y14832D01*
Y14963D01*
X1177D02*
Y14767D01*
X1275D01*
X1308Y14799D01*
Y14931D01*
X1275Y14963D01*
X1177D01*
X1374D02*
Y14767D01*
X1472D01*
X1505Y14799D01*
Y14931D01*
X1472Y14963D01*
X1374D01*
X18461Y7087D02*
Y6923D01*
X18494Y6890D01*
X18560D01*
X18593Y6923D01*
Y7087D01*
X18658Y6890D02*
X18724D01*
X18691D01*
Y7087D01*
X18658Y7054D01*
X17765Y8664D02*
Y8861D01*
X17864D01*
X17896Y8828D01*
Y8763D01*
X17864Y8730D01*
X17765D01*
X17831D02*
X17896Y8664D01*
X18093Y8861D02*
X17962D01*
Y8763D01*
X18028Y8795D01*
X18060D01*
X18093Y8763D01*
Y8697D01*
X18060Y8664D01*
X17995D01*
X17962Y8697D01*
X16558Y6476D02*
Y6673D01*
X16657D01*
X16690Y6640D01*
Y6575D01*
X16657Y6542D01*
X16558D01*
X16624D02*
X16690Y6476D01*
X16755Y6640D02*
X16788Y6673D01*
X16854D01*
X16886Y6640D01*
Y6608D01*
X16854Y6575D01*
X16821D01*
X16854D01*
X16886Y6542D01*
Y6509D01*
X16854Y6476D01*
X16788D01*
X16755Y6509D01*
X20217Y18346D02*
Y18543D01*
X20315D01*
X20348Y18510D01*
Y18445D01*
X20315Y18412D01*
X20217D01*
X20413Y18346D02*
X20479D01*
X20446D01*
Y18543D01*
X20413Y18510D01*
X20709Y18543D02*
X20577D01*
Y18445D01*
X20643Y18478D01*
X20676D01*
X20709Y18445D01*
Y18379D01*
X20676Y18346D01*
X20610D01*
X20577Y18379D01*
X17235Y18388D02*
Y18585D01*
X17333D01*
X17366Y18552D01*
Y18487D01*
X17333Y18454D01*
X17235D01*
X17300D02*
X17366Y18388D01*
X17530D02*
Y18585D01*
X17431Y18487D01*
X17563D01*
X17628Y18388D02*
X17694D01*
X17661D01*
Y18585D01*
X17628Y18552D01*
X17208Y17749D02*
Y17945D01*
X17307D01*
X17340Y17913D01*
Y17847D01*
X17307Y17814D01*
X17208D01*
X17274D02*
X17340Y17749D01*
X17504D02*
Y17945D01*
X17405Y17847D01*
X17536D01*
X17602Y17913D02*
X17635Y17945D01*
X17700D01*
X17733Y17913D01*
Y17781D01*
X17700Y17749D01*
X17635D01*
X17602Y17781D01*
Y17913D01*
X17254Y18989D02*
Y19185D01*
X17353D01*
X17386Y19153D01*
Y19087D01*
X17353Y19054D01*
X17254D01*
X17320D02*
X17386Y18989D01*
X17451Y19153D02*
X17484Y19185D01*
X17550D01*
X17582Y19153D01*
Y19120D01*
X17550Y19087D01*
X17517D01*
X17550D01*
X17582Y19054D01*
Y19021D01*
X17550Y18989D01*
X17484D01*
X17451Y19021D01*
X17648D02*
X17681Y18989D01*
X17746D01*
X17779Y19021D01*
Y19153D01*
X17746Y19185D01*
X17681D01*
X17648Y19153D01*
Y19120D01*
X17681Y19087D01*
X17779D01*
X16158Y19472D02*
Y19603D01*
X16125Y19636D01*
X16060D01*
X16027Y19603D01*
Y19472D01*
X16060Y19439D01*
X16125D01*
X16093Y19505D02*
X16158Y19439D01*
X16125D02*
X16158Y19472D01*
X16224Y19603D02*
X16257Y19636D01*
X16322D01*
X16355Y19603D01*
Y19570D01*
X16322Y19537D01*
X16289D01*
X16322D01*
X16355Y19505D01*
Y19472D01*
X16322Y19439D01*
X16257D01*
X16224Y19472D01*
X16158Y18202D02*
Y18333D01*
X16125Y18366D01*
X16060D01*
X16027Y18333D01*
Y18202D01*
X16060Y18169D01*
X16125D01*
X16093Y18235D02*
X16158Y18169D01*
X16125D02*
X16158Y18202D01*
X16355Y18169D02*
X16224D01*
X16355Y18301D01*
Y18333D01*
X16322Y18366D01*
X16257D01*
X16224Y18333D01*
X18350Y17707D02*
Y17510D01*
X18481D01*
X18547Y17707D02*
Y17510D01*
X18645D01*
X18678Y17543D01*
Y17674D01*
X18645Y17707D01*
X18547D01*
X18743Y17674D02*
X18776Y17707D01*
X18842D01*
X18875Y17674D01*
Y17641D01*
X18842Y17608D01*
X18809D01*
X18842D01*
X18875Y17575D01*
Y17543D01*
X18842Y17510D01*
X18776D01*
X18743Y17543D01*
X18173Y14301D02*
Y14137D01*
X18205Y14104D01*
X18271D01*
X18304Y14137D01*
Y14301D01*
X18369Y14268D02*
X18402Y14301D01*
X18468D01*
X18501Y14268D01*
Y14236D01*
X18468Y14203D01*
X18501Y14170D01*
Y14137D01*
X18468Y14104D01*
X18402D01*
X18369Y14137D01*
Y14170D01*
X18402Y14203D01*
X18369Y14236D01*
Y14268D01*
X18402Y14203D02*
X18468D01*
X18192Y11377D02*
Y11213D01*
X18225Y11180D01*
X18290D01*
X18323Y11213D01*
Y11377D01*
X18389D02*
X18520D01*
Y11344D01*
X18389Y11213D01*
Y11180D01*
X15915Y14393D02*
X15719D01*
Y14492D01*
X15751Y14524D01*
X15817D01*
X15850Y14492D01*
Y14393D01*
Y14459D02*
X15915Y14524D01*
Y14688D02*
X15719D01*
X15817Y14590D01*
Y14721D01*
X15883Y14787D02*
X15915Y14820D01*
Y14885D01*
X15883Y14918D01*
X15751D01*
X15719Y14885D01*
Y14820D01*
X15751Y14787D01*
X15784D01*
X15817Y14820D01*
Y14918D01*
X18906Y16537D02*
Y16734D01*
X19004D01*
X19037Y16701D01*
Y16635D01*
X19004Y16603D01*
X18906D01*
X18971D02*
X19037Y16537D01*
X19201D02*
Y16734D01*
X19102Y16635D01*
X19234D01*
X19299Y16701D02*
X19332Y16734D01*
X19398D01*
X19430Y16701D01*
Y16668D01*
X19398Y16635D01*
X19430Y16603D01*
Y16570D01*
X19398Y16537D01*
X19332D01*
X19299Y16570D01*
Y16603D01*
X19332Y16635D01*
X19299Y16668D01*
Y16701D01*
X19332Y16635D02*
X19398D01*
X17120Y16919D02*
Y17116D01*
X17218D01*
X17251Y17083D01*
Y17018D01*
X17218Y16985D01*
X17120D01*
X17185D02*
X17251Y16919D01*
X17415D02*
Y17116D01*
X17316Y17018D01*
X17447D01*
X17513Y17116D02*
X17644D01*
Y17083D01*
X17513Y16952D01*
Y16919D01*
X16332Y16575D02*
Y16772D01*
X16430D01*
X16463Y16739D01*
Y16673D01*
X16430Y16640D01*
X16332D01*
X16398D02*
X16463Y16575D01*
X16627D02*
Y16772D01*
X16529Y16673D01*
X16660D01*
X16857Y16772D02*
X16791Y16739D01*
X16726Y16673D01*
Y16608D01*
X16758Y16575D01*
X16824D01*
X16857Y16608D01*
Y16640D01*
X16824Y16673D01*
X16726D01*
X15921Y11443D02*
X15724D01*
Y11542D01*
X15757Y11574D01*
X15823D01*
X15856Y11542D01*
Y11443D01*
Y11509D02*
X15921Y11574D01*
Y11738D02*
X15724D01*
X15823Y11640D01*
Y11771D01*
X15724Y11968D02*
Y11837D01*
X15823D01*
X15790Y11902D01*
Y11935D01*
X15823Y11968D01*
X15888D01*
X15921Y11935D01*
Y11869D01*
X15888Y11837D01*
X18862Y13612D02*
Y13809D01*
X18960D01*
X18993Y13776D01*
Y13711D01*
X18960Y13678D01*
X18862D01*
X18927D02*
X18993Y13612D01*
X19157D02*
Y13809D01*
X19058Y13711D01*
X19190D01*
X19354Y13612D02*
Y13809D01*
X19255Y13711D01*
X19386D01*
X17041Y14016D02*
Y14213D01*
X17139D01*
X17172Y14180D01*
Y14114D01*
X17139Y14081D01*
X17041D01*
X17106D02*
X17172Y14016D01*
X17336D02*
Y14213D01*
X17238Y14114D01*
X17369D01*
X17434Y14180D02*
X17467Y14213D01*
X17533D01*
X17566Y14180D01*
Y14147D01*
X17533Y14114D01*
X17500D01*
X17533D01*
X17566Y14081D01*
Y14049D01*
X17533Y14016D01*
X17467D01*
X17434Y14049D01*
X16283Y13671D02*
Y13868D01*
X16381D01*
X16414Y13835D01*
Y13770D01*
X16381Y13737D01*
X16283D01*
X16348D02*
X16414Y13671D01*
X16578D02*
Y13868D01*
X16480Y13770D01*
X16611D01*
X16808Y13671D02*
X16676D01*
X16808Y13802D01*
Y13835D01*
X16775Y13868D01*
X16709D01*
X16676Y13835D01*
X15751Y14524D02*
X15719Y14492D01*
Y14426D01*
X15751Y14393D01*
X15883D01*
X15915Y14426D01*
Y14492D01*
X15883Y14524D01*
X15915Y14721D02*
Y14590D01*
X15784Y14721D01*
X15751D01*
X15719Y14688D01*
Y14623D01*
X15751Y14590D01*
Y14787D02*
X15719Y14820D01*
Y14885D01*
X15751Y14918D01*
X15784D01*
X15817Y14885D01*
X15850Y14918D01*
X15883D01*
X15915Y14885D01*
Y14820D01*
X15883Y14787D01*
X15850D01*
X15817Y14820D01*
X15784Y14787D01*
X15751D01*
X15817Y14820D02*
Y14885D01*
X16141Y11574D02*
X16108Y11542D01*
Y11476D01*
X16141Y11443D01*
X16272D01*
X16305Y11476D01*
Y11542D01*
X16272Y11574D01*
X16305Y11771D02*
Y11640D01*
X16174Y11771D01*
X16141D01*
X16108Y11738D01*
Y11673D01*
X16141Y11640D01*
X16108Y11837D02*
Y11968D01*
X16141D01*
X16272Y11837D01*
X16305D01*
X10535Y3484D02*
Y3681D01*
X10633D01*
X10666Y3648D01*
Y3583D01*
X10633Y3550D01*
X10535D01*
X10600D02*
X10666Y3484D01*
X10732Y3648D02*
X10764Y3681D01*
X10830D01*
X10863Y3648D01*
Y3615D01*
X10830Y3583D01*
X10797D01*
X10830D01*
X10863Y3550D01*
Y3517D01*
X10830Y3484D01*
X10764D01*
X10732Y3517D01*
X11027Y3484D02*
Y3681D01*
X10928Y3583D01*
X11060D01*
X10468Y9143D02*
X10272D01*
Y9242D01*
X10304Y9274D01*
X10370D01*
X10403Y9242D01*
Y9143D01*
Y9209D02*
X10468Y9274D01*
X10304Y9340D02*
X10272Y9373D01*
Y9438D01*
X10304Y9471D01*
X10337D01*
X10370Y9438D01*
Y9406D01*
Y9438D01*
X10403Y9471D01*
X10436D01*
X10468Y9438D01*
Y9373D01*
X10436Y9340D01*
X10468Y9537D02*
Y9602D01*
Y9570D01*
X10272D01*
X10304Y9537D01*
X10535Y2906D02*
Y3103D01*
X10633D01*
X10666Y3070D01*
Y3005D01*
X10633Y2972D01*
X10535D01*
X10600D02*
X10666Y2906D01*
X10863D02*
X10732D01*
X10863Y3038D01*
Y3070D01*
X10830Y3103D01*
X10764D01*
X10732Y3070D01*
X10928D02*
X10961Y3103D01*
X11027D01*
X11060Y3070D01*
Y3038D01*
X11027Y3005D01*
X10994D01*
X11027D01*
X11060Y2972D01*
Y2939D01*
X11027Y2906D01*
X10961D01*
X10928Y2939D01*
X10535Y4284D02*
Y4481D01*
X10633D01*
X10666Y4448D01*
Y4383D01*
X10633Y4350D01*
X10535D01*
X10600D02*
X10666Y4284D01*
X10863D02*
X10732D01*
X10863Y4415D01*
Y4448D01*
X10830Y4481D01*
X10764D01*
X10732Y4448D01*
X10928D02*
X10961Y4481D01*
X11027D01*
X11060Y4448D01*
Y4317D01*
X11027Y4284D01*
X10961D01*
X10928Y4317D01*
Y4448D01*
X6801Y14294D02*
X6932D01*
X6866D01*
Y14097D01*
X6997D02*
Y14294D01*
X7096D01*
X7129Y14261D01*
Y14196D01*
X7096Y14163D01*
X6997D01*
X7194Y14130D02*
X7227Y14097D01*
X7293D01*
X7325Y14130D01*
Y14261D01*
X7293Y14294D01*
X7227D01*
X7194Y14261D01*
Y14228D01*
X7227Y14196D01*
X7325D01*
X6634Y10837D02*
X6765D01*
X6700D01*
Y10640D01*
X6831D02*
Y10837D01*
X6929D01*
X6962Y10804D01*
Y10738D01*
X6929Y10705D01*
X6831D01*
X7028Y10640D02*
X7093D01*
X7060D01*
Y10837D01*
X7028Y10804D01*
X7192D02*
X7224Y10837D01*
X7290D01*
X7323Y10804D01*
Y10673D01*
X7290Y10640D01*
X7224D01*
X7192Y10673D01*
Y10804D01*
X6505Y9422D02*
X6637D01*
X6571D01*
Y9225D01*
X6702D02*
Y9422D01*
X6801D01*
X6833Y9389D01*
Y9324D01*
X6801Y9291D01*
X6702D01*
X6899Y9225D02*
X6965D01*
X6932D01*
Y9422D01*
X6899Y9389D01*
X7063Y9225D02*
X7129D01*
X7096D01*
Y9422D01*
X7063Y9389D01*
X6456Y3044D02*
X6587D01*
X6522D01*
Y2847D01*
X6653D02*
Y3044D01*
X6751D01*
X6784Y3011D01*
Y2946D01*
X6751Y2913D01*
X6653D01*
X6850Y3011D02*
X6882Y3044D01*
X6948D01*
X6981Y3011D01*
Y2978D01*
X6948Y2946D01*
X6981Y2913D01*
Y2880D01*
X6948Y2847D01*
X6882D01*
X6850Y2880D01*
Y2913D01*
X6882Y2946D01*
X6850Y2978D01*
Y3011D01*
X6882Y2946D02*
X6948D01*
X6637Y4468D02*
X6768D01*
X6703D01*
Y4272D01*
X6834D02*
Y4468D01*
X6932D01*
X6965Y4436D01*
Y4370D01*
X6932Y4337D01*
X6834D01*
X7031Y4468D02*
X7162D01*
Y4436D01*
X7031Y4304D01*
Y4272D01*
X6677Y7884D02*
X6808D01*
X6742D01*
Y7687D01*
X6873D02*
Y7884D01*
X6972D01*
X7005Y7851D01*
Y7785D01*
X6972Y7753D01*
X6873D01*
X7201Y7884D02*
X7136Y7851D01*
X7070Y7785D01*
Y7720D01*
X7103Y7687D01*
X7169D01*
X7201Y7720D01*
Y7753D01*
X7169Y7785D01*
X7070D01*
X13817Y9435D02*
X13949D01*
X13883D01*
Y9238D01*
X14014D02*
Y9435D01*
X14113D01*
X14145Y9402D01*
Y9336D01*
X14113Y9304D01*
X14014D01*
X14342Y9435D02*
X14211D01*
Y9336D01*
X14277Y9369D01*
X14309D01*
X14342Y9336D01*
Y9271D01*
X14309Y9238D01*
X14244D01*
X14211Y9271D01*
X13015Y5659D02*
X13146D01*
X13081D01*
Y5463D01*
X13212D02*
Y5659D01*
X13310D01*
X13343Y5627D01*
Y5561D01*
X13310Y5528D01*
X13212D01*
X13507Y5463D02*
Y5659D01*
X13409Y5561D01*
X13540D01*
X12362Y3940D02*
X12493D01*
X12427D01*
Y3743D01*
X12558D02*
Y3940D01*
X12657D01*
X12690Y3907D01*
Y3841D01*
X12657Y3809D01*
X12558D01*
X12886Y3743D02*
X12755D01*
X12886Y3874D01*
Y3907D01*
X12854Y3940D01*
X12788D01*
X12755Y3907D01*
X21057Y5217D02*
X21188D01*
X21122D01*
Y5020D01*
X21253D02*
Y5217D01*
X21352D01*
X21384Y5184D01*
Y5118D01*
X21352Y5085D01*
X21253D01*
X21450Y5184D02*
X21483Y5217D01*
X21548D01*
X21581Y5184D01*
Y5151D01*
X21548Y5118D01*
X21516D01*
X21548D01*
X21581Y5085D01*
Y5053D01*
X21548Y5020D01*
X21483D01*
X21450Y5053D01*
X17335Y5298D02*
X17467D01*
X17401D01*
Y5101D01*
X17532D02*
Y5298D01*
X17631D01*
X17663Y5265D01*
Y5200D01*
X17631Y5167D01*
X17532D01*
X17729Y5101D02*
X17795D01*
X17762D01*
Y5298D01*
X17729Y5265D01*
X14629Y5827D02*
Y5663D01*
X14662Y5630D01*
X14728D01*
X14761Y5663D01*
Y5827D01*
X14826Y5794D02*
X14859Y5827D01*
X14924D01*
X14957Y5794D01*
Y5761D01*
X14924Y5728D01*
X14892D01*
X14924D01*
X14957Y5696D01*
Y5663D01*
X14924Y5630D01*
X14859D01*
X14826Y5663D01*
X9691Y9986D02*
X9494D01*
Y10085D01*
X9527Y10118D01*
X9593D01*
X9625Y10085D01*
Y9986D01*
Y10052D02*
X9691Y10118D01*
X9527Y10183D02*
X9494Y10216D01*
Y10282D01*
X9527Y10314D01*
X9560D01*
X9593Y10282D01*
Y10249D01*
Y10282D01*
X9625Y10314D01*
X9658D01*
X9691Y10282D01*
Y10216D01*
X9658Y10183D01*
X9494Y10511D02*
X9527Y10446D01*
X9593Y10380D01*
X9658D01*
X9691Y10413D01*
Y10478D01*
X9658Y10511D01*
X9625D01*
X9593Y10478D01*
Y10380D01*
X5476Y10472D02*
Y10669D01*
X5574D01*
X5607Y10636D01*
Y10571D01*
X5574Y10538D01*
X5476D01*
X5541D02*
X5607Y10472D01*
X5673Y10636D02*
X5705Y10669D01*
X5771D01*
X5804Y10636D01*
Y10604D01*
X5771Y10571D01*
X5738D01*
X5771D01*
X5804Y10538D01*
Y10505D01*
X5771Y10472D01*
X5705D01*
X5673Y10505D01*
X5869Y10636D02*
X5902Y10669D01*
X5968D01*
X6001Y10636D01*
Y10604D01*
X5968Y10571D01*
X5935D01*
X5968D01*
X6001Y10538D01*
Y10505D01*
X5968Y10472D01*
X5902D01*
X5869Y10505D01*
X9661Y9101D02*
X9465D01*
Y9199D01*
X9497Y9232D01*
X9563D01*
X9596Y9199D01*
Y9101D01*
Y9166D02*
X9661Y9232D01*
X9497Y9297D02*
X9465Y9330D01*
Y9396D01*
X9497Y9429D01*
X9530D01*
X9563Y9396D01*
Y9363D01*
Y9396D01*
X9596Y9429D01*
X9629D01*
X9661Y9396D01*
Y9330D01*
X9629Y9297D01*
X9661Y9625D02*
Y9494D01*
X9530Y9625D01*
X9497D01*
X9465Y9593D01*
Y9527D01*
X9497Y9494D01*
X5427Y14163D02*
Y14360D01*
X5525D01*
X5558Y14327D01*
Y14262D01*
X5525Y14229D01*
X5427D01*
X5492D02*
X5558Y14163D01*
X5755D02*
X5623D01*
X5755Y14295D01*
Y14327D01*
X5722Y14360D01*
X5656D01*
X5623Y14327D01*
X5820Y14196D02*
X5853Y14163D01*
X5919D01*
X5951Y14196D01*
Y14327D01*
X5919Y14360D01*
X5853D01*
X5820Y14327D01*
Y14295D01*
X5853Y14262D01*
X5951D01*
X9553Y3707D02*
X9356D01*
Y3805D01*
X9389Y3838D01*
X9455D01*
X9488Y3805D01*
Y3707D01*
Y3772D02*
X9553Y3838D01*
Y4035D02*
Y3904D01*
X9422Y4035D01*
X9389D01*
X9356Y4002D01*
Y3936D01*
X9389Y3904D01*
X9356Y4232D02*
Y4100D01*
X9455D01*
X9422Y4166D01*
Y4199D01*
X9455Y4232D01*
X9520D01*
X9553Y4199D01*
Y4133D01*
X9520Y4100D01*
X5368Y4134D02*
Y4331D01*
X5466D01*
X5499Y4298D01*
Y4232D01*
X5466Y4199D01*
X5368D01*
X5433D02*
X5499Y4134D01*
X5696D02*
X5564D01*
X5696Y4265D01*
Y4298D01*
X5663Y4331D01*
X5597D01*
X5564Y4298D01*
X5892Y4134D02*
X5761D01*
X5892Y4265D01*
Y4298D01*
X5860Y4331D01*
X5794D01*
X5761Y4298D01*
X5413Y7805D02*
Y8002D01*
X5512D01*
X5545Y7969D01*
Y7904D01*
X5512Y7871D01*
X5413D01*
X5479D02*
X5545Y7805D01*
X5610D02*
X5676D01*
X5643D01*
Y8002D01*
X5610Y7969D01*
X5774D02*
X5807Y8002D01*
X5873D01*
X5905Y7969D01*
Y7936D01*
X5873Y7904D01*
X5905Y7871D01*
Y7838D01*
X5873Y7805D01*
X5807D01*
X5774Y7838D01*
Y7871D01*
X5807Y7904D01*
X5774Y7936D01*
Y7969D01*
X5807Y7904D02*
X5873D01*
X16112Y6821D02*
X15915D01*
Y6919D01*
X15948Y6952D01*
X16014D01*
X16047Y6919D01*
Y6821D01*
Y6887D02*
X16112Y6952D01*
Y7018D02*
Y7083D01*
Y7051D01*
X15915D01*
X15948Y7018D01*
X16112Y7280D02*
X15915D01*
X16014Y7182D01*
Y7313D01*
X15591Y8662D02*
X15394D01*
Y8760D01*
X15427Y8793D01*
X15492D01*
X15525Y8760D01*
Y8662D01*
Y8727D02*
X15591Y8793D01*
Y8858D02*
Y8924D01*
Y8891D01*
X15394D01*
X15427Y8858D01*
X15591Y9153D02*
Y9022D01*
X15459Y9153D01*
X15427D01*
X15394Y9121D01*
Y9055D01*
X15427Y9022D01*
X14172Y15084D02*
X13975D01*
Y15183D01*
X14008Y15216D01*
X14073D01*
X14106Y15183D01*
Y15084D01*
Y15150D02*
X14172Y15216D01*
Y15380D02*
X13975D01*
X14073Y15281D01*
Y15412D01*
X11181Y15135D02*
X10984D01*
Y15233D01*
X11017Y15266D01*
X11083D01*
X11115Y15233D01*
Y15135D01*
Y15200D02*
X11181Y15266D01*
Y15331D02*
Y15397D01*
Y15364D01*
X10984D01*
X11017Y15331D01*
X1969Y2648D02*
Y2844D01*
X2067D01*
X2100Y2812D01*
Y2746D01*
X2067Y2713D01*
X1969D01*
X2165Y2648D02*
X2231D01*
X2198D01*
Y2844D01*
X2165Y2812D01*
X2329D02*
X2362Y2844D01*
X2428D01*
X2461Y2812D01*
Y2779D01*
X2428Y2746D01*
X2395D01*
X2428D01*
X2461Y2713D01*
Y2680D01*
X2428Y2648D01*
X2362D01*
X2329Y2680D01*
X12398Y7746D02*
Y7549D01*
X12530D01*
X12595D02*
X12661D01*
X12628D01*
Y7746D01*
X12595Y7713D01*
X5095Y12743D02*
X5062Y12776D01*
X4997D01*
X4964Y12743D01*
Y12612D01*
X4997Y12579D01*
X5062D01*
X5095Y12612D01*
X5292Y12579D02*
X5161D01*
X5292Y12710D01*
Y12743D01*
X5259Y12776D01*
X5194D01*
X5161Y12743D01*
X5358D02*
X5390Y12776D01*
X5456D01*
X5489Y12743D01*
Y12612D01*
X5456Y12579D01*
X5390D01*
X5358Y12612D01*
Y12743D01*
X5318Y12162D02*
X5285Y12195D01*
X5220D01*
X5187Y12162D01*
Y12031D01*
X5220Y11998D01*
X5285D01*
X5318Y12031D01*
X5384Y11998D02*
X5449D01*
X5417D01*
Y12195D01*
X5384Y12162D01*
X5548Y12031D02*
X5581Y11998D01*
X5646D01*
X5679Y12031D01*
Y12162D01*
X5646Y12195D01*
X5581D01*
X5548Y12162D01*
Y12129D01*
X5581Y12096D01*
X5679D01*
X5092Y6404D02*
X5059Y6437D01*
X4994D01*
X4961Y6404D01*
Y6273D01*
X4994Y6240D01*
X5059D01*
X5092Y6273D01*
X5157Y6240D02*
X5223D01*
X5190D01*
Y6437D01*
X5157Y6404D01*
X5420Y6240D02*
Y6437D01*
X5321Y6339D01*
X5453D01*
X11680Y9327D02*
X11647Y9360D01*
X11581D01*
X11549Y9327D01*
Y9196D01*
X11581Y9163D01*
X11647D01*
X11680Y9196D01*
X11745Y9163D02*
X11811D01*
X11778D01*
Y9360D01*
X11745Y9327D01*
X11909Y9163D02*
X11975D01*
X11942D01*
Y9360D01*
X11909Y9327D01*
X12395D02*
X12362Y9360D01*
X12297D01*
X12264Y9327D01*
Y9196D01*
X12297Y9163D01*
X12362D01*
X12395Y9196D01*
X12461Y9163D02*
X12526D01*
X12493D01*
Y9360D01*
X12461Y9327D01*
X12625D02*
X12657Y9360D01*
X12723D01*
X12756Y9327D01*
Y9196D01*
X12723Y9163D01*
X12657D01*
X12625Y9196D01*
Y9327D01*
X13215D02*
X13182Y9360D01*
X13117D01*
X13084Y9327D01*
Y9196D01*
X13117Y9163D01*
X13182D01*
X13215Y9196D01*
X13281D02*
X13314Y9163D01*
X13379D01*
X13412Y9196D01*
Y9327D01*
X13379Y9360D01*
X13314D01*
X13281Y9327D01*
Y9295D01*
X13314Y9262D01*
X13412D01*
X13934Y8097D02*
X13901Y8130D01*
X13835D01*
X13803Y8097D01*
Y7966D01*
X13835Y7933D01*
X13901D01*
X13934Y7966D01*
X13999Y8097D02*
X14032Y8130D01*
X14098D01*
X14131Y8097D01*
Y8064D01*
X14098Y8031D01*
X14131Y7999D01*
Y7966D01*
X14098Y7933D01*
X14032D01*
X13999Y7966D01*
Y7999D01*
X14032Y8031D01*
X13999Y8064D01*
Y8097D01*
X14032Y8031D02*
X14098D01*
X16440Y4613D02*
X16408Y4580D01*
Y4514D01*
X16440Y4482D01*
X16572D01*
X16604Y4514D01*
Y4580D01*
X16572Y4613D01*
X16440Y4678D02*
X16408Y4711D01*
Y4777D01*
X16440Y4810D01*
X16473D01*
X16506Y4777D01*
Y4744D01*
Y4777D01*
X16539Y4810D01*
X16572D01*
X16604Y4777D01*
Y4711D01*
X16572Y4678D01*
X12001Y10167D02*
X11968Y10200D01*
X11902D01*
X11870Y10167D01*
Y10036D01*
X11902Y10003D01*
X11968D01*
X12001Y10036D01*
X12197Y10003D02*
X12066D01*
X12197Y10134D01*
Y10167D01*
X12165Y10200D01*
X12099D01*
X12066Y10167D01*
X12394Y10200D02*
X12263D01*
Y10101D01*
X12329Y10134D01*
X12361D01*
X12394Y10101D01*
Y10036D01*
X12361Y10003D01*
X12296D01*
X12263Y10036D01*
X13277Y10570D02*
X13244Y10538D01*
Y10472D01*
X13277Y10439D01*
X13408D01*
X13441Y10472D01*
Y10538D01*
X13408Y10570D01*
X13441Y10767D02*
Y10636D01*
X13310Y10767D01*
X13277D01*
X13244Y10734D01*
Y10669D01*
X13277Y10636D01*
X13244Y10964D02*
X13277Y10898D01*
X13343Y10833D01*
X13408D01*
X13441Y10866D01*
Y10931D01*
X13408Y10964D01*
X13375D01*
X13343Y10931D01*
Y10833D01*
X11722Y12050D02*
Y11886D01*
X11755Y11853D01*
X11820D01*
X11853Y11886D01*
Y12050D01*
X12050D02*
X11984Y12017D01*
X11919Y11952D01*
Y11886D01*
X11951Y11853D01*
X12017D01*
X12050Y11886D01*
Y11919D01*
X12017Y11952D01*
X11919D01*
X16024Y8517D02*
X15827D01*
Y8616D01*
X15860Y8648D01*
X15925D01*
X15958Y8616D01*
Y8517D01*
Y8583D02*
X16024Y8648D01*
Y8714D02*
Y8780D01*
Y8747D01*
X15827D01*
X15860Y8714D01*
X16024Y8878D02*
Y8943D01*
Y8911D01*
X15827D01*
X15860Y8878D01*
X15266Y16385D02*
X15069D01*
Y16483D01*
X15102Y16516D01*
X15167D01*
X15200Y16483D01*
Y16385D01*
X15266Y16581D02*
Y16647D01*
Y16614D01*
X15069D01*
X15102Y16581D01*
X7493Y13356D02*
Y13192D01*
X7526Y13159D01*
X7592D01*
X7625Y13192D01*
Y13356D01*
X7821D02*
X7690D01*
Y13258D01*
X7756Y13291D01*
X7789D01*
X7821Y13258D01*
Y13192D01*
X7789Y13159D01*
X7723D01*
X7690Y13192D01*
X8844Y9209D02*
X8648D01*
Y9307D01*
X8680Y9340D01*
X8746D01*
X8779Y9307D01*
Y9209D01*
Y9274D02*
X8844Y9340D01*
X8680Y9406D02*
X8648Y9438D01*
Y9504D01*
X8680Y9537D01*
X8713D01*
X8746Y9504D01*
Y9471D01*
Y9504D01*
X8779Y9537D01*
X8812D01*
X8844Y9504D01*
Y9438D01*
X8812Y9406D01*
X8680Y9602D02*
X8648Y9635D01*
Y9701D01*
X8680Y9734D01*
X8713D01*
X8746Y9701D01*
X8779Y9734D01*
X8812D01*
X8844Y9701D01*
Y9635D01*
X8812Y9602D01*
X8779D01*
X8746Y9635D01*
X8713Y9602D01*
X8680D01*
X8746Y9635D02*
Y9701D01*
X8057Y10833D02*
X7860D01*
Y10931D01*
X7893Y10964D01*
X7959D01*
X7991Y10931D01*
Y10833D01*
Y10898D02*
X8057Y10964D01*
X7893Y11030D02*
X7860Y11062D01*
Y11128D01*
X7893Y11161D01*
X7926D01*
X7959Y11128D01*
Y11095D01*
Y11128D01*
X7991Y11161D01*
X8024D01*
X8057Y11128D01*
Y11062D01*
X8024Y11030D01*
X7860Y11226D02*
Y11358D01*
X7893D01*
X8024Y11226D01*
X8057D01*
X8047Y9209D02*
X7850D01*
Y9307D01*
X7883Y9340D01*
X7949D01*
X7982Y9307D01*
Y9209D01*
Y9274D02*
X8047Y9340D01*
X7883Y9406D02*
X7850Y9438D01*
Y9504D01*
X7883Y9537D01*
X7916D01*
X7949Y9504D01*
Y9471D01*
Y9504D01*
X7982Y9537D01*
X8014D01*
X8047Y9504D01*
Y9438D01*
X8014Y9406D01*
X7850Y9734D02*
Y9602D01*
X7949D01*
X7916Y9668D01*
Y9701D01*
X7949Y9734D01*
X8014D01*
X8047Y9701D01*
Y9635D01*
X8014Y9602D01*
X9451Y11440D02*
Y11637D01*
X9549D01*
X9582Y11604D01*
Y11538D01*
X9549Y11505D01*
X9451D01*
X9516D02*
X9582Y11440D01*
X9647Y11604D02*
X9680Y11637D01*
X9746D01*
X9779Y11604D01*
Y11571D01*
X9746Y11538D01*
X9713D01*
X9746D01*
X9779Y11505D01*
Y11473D01*
X9746Y11440D01*
X9680D01*
X9647Y11473D01*
X9844Y11604D02*
X9877Y11637D01*
X9943D01*
X9975Y11604D01*
Y11473D01*
X9943Y11440D01*
X9877D01*
X9844Y11473D01*
Y11604D01*
X9140Y3707D02*
X8943D01*
Y3805D01*
X8976Y3838D01*
X9041D01*
X9074Y3805D01*
Y3707D01*
Y3772D02*
X9140Y3838D01*
Y4035D02*
Y3904D01*
X9009Y4035D01*
X8976D01*
X8943Y4002D01*
Y3936D01*
X8976Y3904D01*
X9140Y4100D02*
Y4166D01*
Y4133D01*
X8943D01*
X8976Y4100D01*
X9451Y12572D02*
Y12768D01*
X9549D01*
X9582Y12736D01*
Y12670D01*
X9549Y12637D01*
X9451D01*
X9516D02*
X9582Y12572D01*
X9779D02*
X9647D01*
X9779Y12703D01*
Y12736D01*
X9746Y12768D01*
X9680D01*
X9647Y12736D01*
X9844D02*
X9877Y12768D01*
X9943D01*
X9975Y12736D01*
Y12703D01*
X9943Y12670D01*
X9975Y12637D01*
Y12604D01*
X9943Y12572D01*
X9877D01*
X9844Y12604D01*
Y12637D01*
X9877Y12670D01*
X9844Y12703D01*
Y12736D01*
X9877Y12670D02*
X9943D01*
X8297Y9340D02*
X8264Y9307D01*
Y9242D01*
X8297Y9209D01*
X8428D01*
X8461Y9242D01*
Y9307D01*
X8428Y9340D01*
X8461Y9537D02*
Y9406D01*
X8329Y9537D01*
X8297D01*
X8264Y9504D01*
Y9438D01*
X8297Y9406D01*
X8461Y9701D02*
X8264D01*
X8362Y9602D01*
Y9734D01*
X7499Y9340D02*
X7467Y9307D01*
Y9242D01*
X7499Y9209D01*
X7631D01*
X7663Y9242D01*
Y9307D01*
X7631Y9340D01*
X7663Y9537D02*
Y9406D01*
X7532Y9537D01*
X7499D01*
X7467Y9504D01*
Y9438D01*
X7499Y9406D01*
Y9602D02*
X7467Y9635D01*
Y9701D01*
X7499Y9734D01*
X7532D01*
X7565Y9701D01*
Y9668D01*
Y9701D01*
X7598Y9734D01*
X7631D01*
X7663Y9701D01*
Y9635D01*
X7631Y9602D01*
X9582Y11988D02*
X9549Y12020D01*
X9483D01*
X9451Y11988D01*
Y11856D01*
X9483Y11824D01*
X9549D01*
X9582Y11856D01*
X9779Y11824D02*
X9647D01*
X9779Y11955D01*
Y11988D01*
X9746Y12020D01*
X9680D01*
X9647Y11988D01*
X9975Y11824D02*
X9844D01*
X9975Y11955D01*
Y11988D01*
X9943Y12020D01*
X9877D01*
X9844Y11988D01*
X9582Y12362D02*
X9549Y12394D01*
X9483D01*
X9451Y12362D01*
Y12230D01*
X9483Y12198D01*
X9549D01*
X9582Y12230D01*
X9779Y12198D02*
X9647D01*
X9779Y12329D01*
Y12362D01*
X9746Y12394D01*
X9680D01*
X9647Y12362D01*
X9844Y12198D02*
X9910D01*
X9877D01*
Y12394D01*
X9844Y12362D01*
X5259Y5784D02*
X5226Y5817D01*
X5161D01*
X5128Y5784D01*
Y5653D01*
X5161Y5620D01*
X5226D01*
X5259Y5653D01*
X5325Y5620D02*
X5390D01*
X5358D01*
Y5817D01*
X5325Y5784D01*
X5489D02*
X5522Y5817D01*
X5587D01*
X5620Y5784D01*
Y5751D01*
X5587Y5719D01*
X5554D01*
X5587D01*
X5620Y5686D01*
Y5653D01*
X5587Y5620D01*
X5522D01*
X5489Y5653D01*
X14816Y6785D02*
X14784Y6752D01*
Y6686D01*
X14816Y6654D01*
X14947D01*
X14980Y6686D01*
Y6752D01*
X14947Y6785D01*
X14980Y6850D02*
Y6916D01*
Y6883D01*
X14784D01*
X14816Y6850D01*
X14980Y7146D02*
Y7014D01*
X14849Y7146D01*
X14816D01*
X14784Y7113D01*
Y7047D01*
X14816Y7014D01*
X1969Y15669D02*
Y15866D01*
X2067D01*
X2100Y15833D01*
Y15768D01*
X2067Y15735D01*
X1969D01*
X2165Y15669D02*
X2231D01*
X2198D01*
Y15866D01*
X2165Y15833D01*
X2428Y15669D02*
Y15866D01*
X2329Y15768D01*
X2461D01*
X15442Y5003D02*
Y4839D01*
X15475Y4806D01*
X15541D01*
X15574Y4839D01*
Y5003D01*
X15770Y4806D02*
X15639D01*
X15770Y4937D01*
Y4970D01*
X15737Y5003D01*
X15672D01*
X15639Y4970D01*
X13824Y3941D02*
X13791Y3908D01*
Y3842D01*
X13824Y3810D01*
X13955D01*
X13988Y3842D01*
Y3908D01*
X13955Y3941D01*
X13791Y4138D02*
Y4006D01*
X13890D01*
X13857Y4072D01*
Y4105D01*
X13890Y4138D01*
X13955D01*
X13988Y4105D01*
Y4039D01*
X13955Y4006D01*
X15056Y3599D02*
X15023Y3632D01*
X14957D01*
X14925Y3599D01*
Y3468D01*
X14957Y3435D01*
X15023D01*
X15056Y3468D01*
X15220Y3435D02*
Y3632D01*
X15121Y3533D01*
X15253D01*
X21191Y10148D02*
X21125D01*
X21158D01*
Y9984D01*
X21125Y9951D01*
X21093D01*
X21060Y9984D01*
X21257Y9951D02*
X21322D01*
X21289D01*
Y10148D01*
X21257Y10115D01*
X8064Y7047D02*
Y6883D01*
X8097Y6850D01*
X8163D01*
X8196Y6883D01*
Y7047D01*
X8360Y6850D02*
Y7047D01*
X8261Y6949D01*
X8392D01*
X8726Y2959D02*
X8530D01*
Y3057D01*
X8562Y3090D01*
X8628D01*
X8661Y3057D01*
Y2959D01*
Y3024D02*
X8726Y3090D01*
Y3287D02*
Y3156D01*
X8595Y3287D01*
X8562D01*
X8530Y3254D01*
Y3188D01*
X8562Y3156D01*
X8530Y3352D02*
Y3484D01*
X8562D01*
X8694Y3352D01*
X8726D01*
X8002Y4472D02*
X7805D01*
Y4570D01*
X7838Y4603D01*
X7904D01*
X7936Y4570D01*
Y4472D01*
Y4537D02*
X8002Y4603D01*
Y4800D02*
Y4669D01*
X7871Y4800D01*
X7838D01*
X7805Y4767D01*
Y4701D01*
X7838Y4669D01*
X7805Y4997D02*
X7838Y4931D01*
X7904Y4865D01*
X7969D01*
X8002Y4898D01*
Y4964D01*
X7969Y4997D01*
X7936D01*
X7904Y4964D01*
Y4865D01*
X7949Y2959D02*
X7752D01*
Y3057D01*
X7785Y3090D01*
X7850D01*
X7883Y3057D01*
Y2959D01*
Y3024D02*
X7949Y3090D01*
Y3287D02*
Y3156D01*
X7818Y3287D01*
X7785D01*
X7752Y3254D01*
Y3188D01*
X7785Y3156D01*
X7949Y3451D02*
X7752D01*
X7850Y3352D01*
Y3484D01*
X9376Y5121D02*
Y5318D01*
X9474D01*
X9507Y5285D01*
Y5219D01*
X9474Y5186D01*
X9376D01*
X9442D02*
X9507Y5121D01*
X9573D02*
X9638D01*
X9606D01*
Y5318D01*
X9573Y5285D01*
X9737Y5154D02*
X9770Y5121D01*
X9835D01*
X9868Y5154D01*
Y5285D01*
X9835Y5318D01*
X9770D01*
X9737Y5285D01*
Y5252D01*
X9770Y5219D01*
X9868D01*
X15709Y5787D02*
X15512D01*
Y5886D01*
X15545Y5919D01*
X15610D01*
X15643Y5886D01*
Y5787D01*
Y5853D02*
X15709Y5919D01*
Y5984D02*
Y6050D01*
Y6017D01*
X15512D01*
X15545Y5984D01*
Y6148D02*
X15512Y6181D01*
Y6247D01*
X15545Y6279D01*
X15577D01*
X15610Y6247D01*
Y6214D01*
Y6247D01*
X15643Y6279D01*
X15676D01*
X15709Y6247D01*
Y6181D01*
X15676Y6148D01*
X9376Y6302D02*
Y6499D01*
X9474D01*
X9507Y6466D01*
Y6400D01*
X9474Y6368D01*
X9376D01*
X9442D02*
X9507Y6302D01*
X9573D02*
X9638D01*
X9606D01*
Y6499D01*
X9573Y6466D01*
X9737Y6499D02*
X9868D01*
Y6466D01*
X9737Y6335D01*
Y6302D01*
X17568Y5839D02*
Y6036D01*
X17667D01*
X17699Y6003D01*
Y5938D01*
X17667Y5905D01*
X17568D01*
X17634D02*
X17699Y5839D01*
X17765Y6003D02*
X17798Y6036D01*
X17863D01*
X17896Y6003D01*
Y5971D01*
X17863Y5938D01*
X17896Y5905D01*
Y5872D01*
X17863Y5839D01*
X17798D01*
X17765Y5872D01*
Y5905D01*
X17798Y5938D01*
X17765Y5971D01*
Y6003D01*
X17798Y5938D02*
X17863D01*
X16610Y7304D02*
X16413D01*
Y7403D01*
X16446Y7435D01*
X16512D01*
X16545Y7403D01*
Y7304D01*
Y7370D02*
X16610Y7435D01*
X16413Y7501D02*
Y7632D01*
X16446D01*
X16577Y7501D01*
X16610D01*
X17119Y8278D02*
Y8474D01*
X17218D01*
X17251Y8442D01*
Y8376D01*
X17218Y8343D01*
X17119D01*
X17185D02*
X17251Y8278D01*
X17447Y8474D02*
X17382Y8442D01*
X17316Y8376D01*
Y8310D01*
X17349Y8278D01*
X17415D01*
X17447Y8310D01*
Y8343D01*
X17415Y8376D01*
X17316D01*
X16175Y5689D02*
Y5886D01*
X16273D01*
X16306Y5853D01*
Y5787D01*
X16273Y5755D01*
X16175D01*
X16240D02*
X16306Y5689D01*
X16503D02*
X16371D01*
X16503Y5820D01*
Y5853D01*
X16470Y5886D01*
X16404D01*
X16371Y5853D01*
X18982Y7778D02*
Y7975D01*
X19081D01*
X19114Y7942D01*
Y7877D01*
X19081Y7844D01*
X18982D01*
X19048D02*
X19114Y7778D01*
X19179D02*
X19245D01*
X19212D01*
Y7975D01*
X19179Y7942D01*
X19474Y7975D02*
X19409Y7942D01*
X19343Y7877D01*
Y7811D01*
X19376Y7778D01*
X19442D01*
X19474Y7811D01*
Y7844D01*
X19442Y7877D01*
X19343D01*
X18982Y8182D02*
Y8379D01*
X19081D01*
X19114Y8346D01*
Y8280D01*
X19081Y8248D01*
X18982D01*
X19048D02*
X19114Y8182D01*
X19179D02*
X19245D01*
X19212D01*
Y8379D01*
X19179Y8346D01*
X19474Y8379D02*
X19343D01*
Y8280D01*
X19409Y8313D01*
X19442D01*
X19474Y8280D01*
Y8215D01*
X19442Y8182D01*
X19376D01*
X19343Y8215D01*
X18826Y9304D02*
Y9107D01*
X18957D01*
X19022Y9304D02*
Y9107D01*
X19121D01*
X19154Y9140D01*
Y9271D01*
X19121Y9304D01*
X19022D01*
X19350Y9107D02*
X19219D01*
X19350Y9238D01*
Y9271D01*
X19318Y9304D01*
X19252D01*
X19219Y9271D01*
X18826Y10266D02*
Y10069D01*
X18957D01*
X19022Y10266D02*
Y10069D01*
X19121D01*
X19154Y10102D01*
Y10233D01*
X19121Y10266D01*
X19022D01*
X19219Y10069D02*
X19285D01*
X19252D01*
Y10266D01*
X19219Y10233D01*
X8178Y3090D02*
X8146Y3057D01*
Y2992D01*
X8178Y2959D01*
X8310D01*
X8342Y2992D01*
Y3057D01*
X8310Y3090D01*
X8342Y3156D02*
Y3221D01*
Y3188D01*
X8146D01*
X8178Y3156D01*
Y3320D02*
X8146Y3352D01*
Y3418D01*
X8178Y3451D01*
X8211D01*
X8244Y3418D01*
X8277Y3451D01*
X8310D01*
X8342Y3418D01*
Y3352D01*
X8310Y3320D01*
X8277D01*
X8244Y3352D01*
X8211Y3320D01*
X8178D01*
X8244Y3352D02*
Y3418D01*
X7391Y3090D02*
X7358Y3057D01*
Y2992D01*
X7391Y2959D01*
X7522D01*
X7555Y2992D01*
Y3057D01*
X7522Y3090D01*
X7555Y3156D02*
Y3221D01*
Y3188D01*
X7358D01*
X7391Y3156D01*
X7358Y3320D02*
Y3451D01*
X7391D01*
X7522Y3320D01*
X7555D01*
X9507Y5679D02*
X9474Y5711D01*
X9409D01*
X9376Y5679D01*
Y5547D01*
X9409Y5515D01*
X9474D01*
X9507Y5547D01*
X9573Y5515D02*
X9638D01*
X9606D01*
Y5711D01*
X9573Y5679D01*
X9868Y5711D02*
X9802Y5679D01*
X9737Y5613D01*
Y5547D01*
X9770Y5515D01*
X9835D01*
X9868Y5547D01*
Y5580D01*
X9835Y5613D01*
X9737D01*
X9507Y6062D02*
X9474Y6095D01*
X9409D01*
X9376Y6062D01*
Y5931D01*
X9409Y5898D01*
X9474D01*
X9507Y5931D01*
X9573Y5898D02*
X9638D01*
X9606D01*
Y6095D01*
X9573Y6062D01*
X9868Y6095D02*
X9737D01*
Y5997D01*
X9802Y6030D01*
X9835D01*
X9868Y5997D01*
Y5931D01*
X9835Y5898D01*
X9770D01*
X9737Y5931D01*
X14839Y5489D02*
X14806Y5522D01*
X14741D01*
X14708Y5489D01*
Y5358D01*
X14741Y5325D01*
X14806D01*
X14839Y5358D01*
X14905Y5522D02*
X15036D01*
Y5489D01*
X14905Y5358D01*
Y5325D01*
X14291Y3941D02*
X14258Y3908D01*
Y3842D01*
X14291Y3810D01*
X14422D01*
X14454Y3842D01*
Y3908D01*
X14422Y3941D01*
X14258Y4138D02*
X14291Y4072D01*
X14356Y4006D01*
X14422D01*
X14454Y4039D01*
Y4105D01*
X14422Y4138D01*
X14389D01*
X14356Y4105D01*
Y4006D01*
X18188Y5620D02*
X18156Y5587D01*
Y5521D01*
X18188Y5488D01*
X18320D01*
X18352Y5521D01*
Y5587D01*
X18320Y5620D01*
X18352Y5816D02*
Y5685D01*
X18221Y5816D01*
X18188D01*
X18156Y5784D01*
Y5718D01*
X18188Y5685D01*
X18490Y8828D02*
X18457Y8861D01*
X18392D01*
X18359Y8828D01*
Y8697D01*
X18392Y8664D01*
X18457D01*
X18490Y8697D01*
X18556Y8664D02*
X18621D01*
X18589D01*
Y8861D01*
X18556Y8828D01*
X21280Y13386D02*
Y13583D01*
X21378D01*
X21411Y13550D01*
Y13484D01*
X21378Y13451D01*
X21280D01*
X21476Y13386D02*
X21542D01*
X21509D01*
Y13583D01*
X21476Y13550D01*
X21771Y13386D02*
X21640D01*
X21771Y13517D01*
Y13550D01*
X21739Y13583D01*
X21673D01*
X21640Y13550D01*
X21878Y1498D02*
X21681D01*
Y1596D01*
X21714Y1629D01*
X21779D01*
X21812Y1596D01*
Y1498D01*
X21681Y1826D02*
X21714Y1760D01*
X21779Y1695D01*
X21845D01*
X21878Y1728D01*
Y1793D01*
X21845Y1826D01*
X21812D01*
X21779Y1793D01*
Y1695D01*
X14878Y1548D02*
X14681D01*
Y1646D01*
X14714Y1679D01*
X14779D01*
X14812Y1646D01*
Y1548D01*
X14878Y1843D02*
X14681D01*
X14779Y1745D01*
Y1876D01*
X13209Y20394D02*
X13012D01*
Y20492D01*
X13045Y20525D01*
X13110D01*
X13143Y20492D01*
Y20394D01*
X13209Y20590D02*
Y20656D01*
Y20623D01*
X13012D01*
X13045Y20590D01*
Y20754D02*
X13012Y20787D01*
Y20853D01*
X13045Y20886D01*
X13176D01*
X13209Y20853D01*
Y20787D01*
X13176Y20754D01*
X13045D01*
X21801Y20541D02*
X21604D01*
Y20640D01*
X21637Y20673D01*
X21703D01*
X21736Y20640D01*
Y20541D01*
X21637Y20738D02*
X21604Y20771D01*
Y20837D01*
X21637Y20869D01*
X21670D01*
X21703Y20837D01*
X21736Y20869D01*
X21768D01*
X21801Y20837D01*
Y20771D01*
X21768Y20738D01*
X21736D01*
X21703Y20771D01*
X21670Y20738D01*
X21637D01*
X21703Y20771D02*
Y20837D01*
D18*
X20183Y18241D02*
X21955D01*
X20183Y17454D02*
Y18241D01*
Y15879D02*
X21955D01*
Y18241D01*
X20183Y15879D02*
Y16666D01*
D19*
X17668Y9315D02*
X17768Y9415D01*
X18118D01*
X17668Y9115D02*
X17768Y9015D01*
X18118D01*
X17768D02*
Y9415D01*
X17668Y9115D02*
Y9315D01*
X18719Y9015D02*
Y9415D01*
X18369D02*
X18719D01*
X18369Y9015D02*
X18719D01*
X17640Y10270D02*
X17740Y10370D01*
X18090D01*
X17640Y10070D02*
X17740Y9970D01*
X18090D01*
X17740D02*
Y10370D01*
X17640Y10070D02*
Y10270D01*
X18690Y9970D02*
Y10370D01*
X18340D02*
X18690D01*
X18340Y9970D02*
X18690D01*
M02*
