G04*
G04 #@! TF.GenerationSoftware,Altium Limited,Altium Designer,23.1.1 (15)*
G04*
G04 Layer_Physical_Order=1*
G04 Layer_Color=255*
%FSLAX24Y24*%
%MOIN*%
G70*
G04*
G04 #@! TF.SameCoordinates,0A79AF00-5A7F-476D-9868-4C47CD430A8F*
G04*
G04*
G04 #@! TF.FilePolarity,Positive*
G04*
G01*
G75*
%ADD14C,0.0098*%
%ADD15C,0.0079*%
%ADD16C,0.0060*%
%ADD19C,0.0118*%
%ADD23R,0.0531X0.0709*%
%ADD24R,0.0217X0.0236*%
%ADD25R,0.0236X0.0217*%
%ADD26R,0.0402X0.0862*%
%ADD27R,0.1500X0.0500*%
%ADD28R,0.0300X0.0320*%
%ADD29R,0.0472X0.0315*%
%ADD30R,0.0472X0.0299*%
%ADD31R,0.0472X0.0276*%
%ADD32R,0.0315X0.0295*%
%ADD33P,0.0278X4X90.0*%
%ADD34R,0.0197X0.0236*%
%ADD35R,0.0118X0.0248*%
%ADD36R,0.0248X0.0118*%
%ADD37R,0.0728X0.0728*%
%ADD38R,0.0187X0.0098*%
%ADD39R,0.0098X0.0187*%
%ADD40R,0.0551X0.0433*%
%ADD41R,0.0295X0.0315*%
%ADD42R,0.1339X0.0386*%
%ADD43R,0.1339X0.0386*%
%ADD44R,0.0335X0.0315*%
G04:AMPARAMS|DCode=45|XSize=9.8mil|YSize=23.6mil|CornerRadius=2.5mil|HoleSize=0mil|Usage=FLASHONLY|Rotation=270.000|XOffset=0mil|YOffset=0mil|HoleType=Round|Shape=RoundedRectangle|*
%AMROUNDEDRECTD45*
21,1,0.0098,0.0187,0,0,270.0*
21,1,0.0049,0.0236,0,0,270.0*
1,1,0.0049,-0.0094,-0.0025*
1,1,0.0049,-0.0094,0.0025*
1,1,0.0049,0.0094,0.0025*
1,1,0.0049,0.0094,-0.0025*
%
%ADD45ROUNDEDRECTD45*%
G04:AMPARAMS|DCode=46|XSize=9.8mil|YSize=23.6mil|CornerRadius=2.5mil|HoleSize=0mil|Usage=FLASHONLY|Rotation=180.000|XOffset=0mil|YOffset=0mil|HoleType=Round|Shape=RoundedRectangle|*
%AMROUNDEDRECTD46*
21,1,0.0098,0.0187,0,0,180.0*
21,1,0.0049,0.0236,0,0,180.0*
1,1,0.0049,-0.0025,0.0094*
1,1,0.0049,0.0025,0.0094*
1,1,0.0049,0.0025,-0.0094*
1,1,0.0049,-0.0025,-0.0094*
%
%ADD46ROUNDEDRECTD46*%
%ADD48O,0.0571X0.0236*%
%ADD49R,0.0256X0.0335*%
%ADD50R,0.0177X0.0165*%
%ADD51R,0.0362X0.0280*%
G04:AMPARAMS|DCode=52|XSize=19.7mil|YSize=9.8mil|CornerRadius=2.5mil|HoleSize=0mil|Usage=FLASHONLY|Rotation=90.000|XOffset=0mil|YOffset=0mil|HoleType=Round|Shape=RoundedRectangle|*
%AMROUNDEDRECTD52*
21,1,0.0197,0.0049,0,0,90.0*
21,1,0.0148,0.0098,0,0,90.0*
1,1,0.0049,0.0025,0.0074*
1,1,0.0049,0.0025,-0.0074*
1,1,0.0049,-0.0025,-0.0074*
1,1,0.0049,-0.0025,0.0074*
%
%ADD52ROUNDEDRECTD52*%
%ADD53R,0.0236X0.0197*%
%ADD66R,0.0118X0.0091*%
%ADD95C,0.0394*%
G04:AMPARAMS|DCode=96|XSize=13.8mil|YSize=27.6mil|CornerRadius=3.4mil|HoleSize=0mil|Usage=FLASHONLY|Rotation=180.000|XOffset=0mil|YOffset=0mil|HoleType=Round|Shape=RoundedRectangle|*
%AMROUNDEDRECTD96*
21,1,0.0138,0.0207,0,0,180.0*
21,1,0.0069,0.0276,0,0,180.0*
1,1,0.0069,-0.0034,0.0103*
1,1,0.0069,0.0034,0.0103*
1,1,0.0069,0.0034,-0.0103*
1,1,0.0069,-0.0034,-0.0103*
%
%ADD96ROUNDEDRECTD96*%
G04:AMPARAMS|DCode=97|XSize=13.8mil|YSize=57.1mil|CornerRadius=3.4mil|HoleSize=0mil|Usage=FLASHONLY|Rotation=270.000|XOffset=0mil|YOffset=0mil|HoleType=Round|Shape=RoundedRectangle|*
%AMROUNDEDRECTD97*
21,1,0.0138,0.0502,0,0,270.0*
21,1,0.0069,0.0571,0,0,270.0*
1,1,0.0069,-0.0251,-0.0034*
1,1,0.0069,-0.0251,0.0034*
1,1,0.0069,0.0251,0.0034*
1,1,0.0069,0.0251,-0.0034*
%
%ADD97ROUNDEDRECTD97*%
G04:AMPARAMS|DCode=98|XSize=13.8mil|YSize=70.9mil|CornerRadius=3.4mil|HoleSize=0mil|Usage=FLASHONLY|Rotation=270.000|XOffset=0mil|YOffset=0mil|HoleType=Round|Shape=RoundedRectangle|*
%AMROUNDEDRECTD98*
21,1,0.0138,0.0640,0,0,270.0*
21,1,0.0069,0.0709,0,0,270.0*
1,1,0.0069,-0.0320,-0.0034*
1,1,0.0069,-0.0320,0.0034*
1,1,0.0069,0.0320,0.0034*
1,1,0.0069,0.0320,-0.0034*
%
%ADD98ROUNDEDRECTD98*%
%ADD99C,0.0591*%
G04:AMPARAMS|DCode=100|XSize=35.4mil|YSize=102.4mil|CornerRadius=4.4mil|HoleSize=0mil|Usage=FLASHONLY|Rotation=270.000|XOffset=0mil|YOffset=0mil|HoleType=Round|Shape=RoundedRectangle|*
%AMROUNDEDRECTD100*
21,1,0.0354,0.0935,0,0,270.0*
21,1,0.0266,0.1024,0,0,270.0*
1,1,0.0089,-0.0468,-0.0133*
1,1,0.0089,-0.0468,0.0133*
1,1,0.0089,0.0468,0.0133*
1,1,0.0089,0.0468,-0.0133*
%
%ADD100ROUNDEDRECTD100*%
%ADD101C,0.0236*%
%ADD102C,0.0197*%
%ADD103C,0.0165*%
%ADD104C,0.0315*%
%ADD105C,0.0094*%
%ADD106C,0.0300*%
%ADD107C,0.0138*%
%ADD108C,0.0157*%
%ADD109C,0.0150*%
%ADD110R,0.0197X0.0276*%
%ADD111O,0.0669X0.0433*%
%ADD112R,0.0591X0.0591*%
%ADD113O,0.0787X0.0512*%
%ADD114C,0.0236*%
%ADD115C,0.1260*%
%ADD116C,0.0240*%
%ADD117C,0.0197*%
%ADD118C,0.0240*%
G36*
X21034Y21905D02*
X21003Y21831D01*
X20699D01*
Y20769D01*
X20703D01*
X20718Y20753D01*
Y20751D01*
X20699Y20678D01*
X20699D01*
Y19908D01*
X20685Y19903D01*
X20667Y19894D01*
X20651Y19883D01*
X20636Y19870D01*
X20380Y19614D01*
X20301Y19648D01*
Y20678D01*
X20301D01*
X20282Y20751D01*
Y20753D01*
X20297Y20769D01*
X20301D01*
Y21831D01*
X19699D01*
Y20769D01*
X19703D01*
X19718Y20753D01*
Y20751D01*
X19699Y20678D01*
X19699D01*
Y19719D01*
X19619Y19686D01*
X19397Y19908D01*
X19382Y19921D01*
X19366Y19932D01*
X19348Y19941D01*
X19329Y19947D01*
X19310Y19951D01*
X19301Y19951D01*
Y20678D01*
X19301D01*
X19282Y20751D01*
Y20753D01*
X19297Y20769D01*
X19301D01*
Y21831D01*
X18699D01*
Y20769D01*
X18703D01*
X18718Y20753D01*
Y20751D01*
X18699Y20678D01*
X18699D01*
Y19873D01*
X18625Y19843D01*
X18596Y19872D01*
X18581Y19885D01*
X18565Y19896D01*
X18547Y19905D01*
X18529Y19911D01*
X18510Y19915D01*
X18490Y19916D01*
X18301D01*
Y20678D01*
X18301D01*
X18282Y20751D01*
Y20753D01*
X18297Y20769D01*
X18301D01*
Y21831D01*
X17699D01*
Y20769D01*
X17703D01*
X17718Y20753D01*
Y20751D01*
X17699Y20678D01*
X17699D01*
Y19615D01*
X18301D01*
Y19617D01*
X18428D01*
X19176Y18869D01*
Y18511D01*
X19102Y18480D01*
X19088Y18494D01*
X19073Y18507D01*
X19057Y18518D01*
X19040Y18527D01*
X19021Y18533D01*
X19004Y18536D01*
Y18666D01*
X18213D01*
Y18666D01*
X18175Y18650D01*
X17932Y18894D01*
X17917Y18907D01*
X17906Y18914D01*
Y18990D01*
X17455D01*
Y19007D01*
X17454Y19031D01*
X17449Y19054D01*
X17442Y19077D01*
X17431Y19099D01*
X17418Y19119D01*
X17402Y19137D01*
X17203Y19335D01*
X17185Y19351D01*
X17166Y19364D01*
X17144Y19375D01*
X17121Y19382D01*
X17098Y19387D01*
X17097Y19387D01*
X17058Y19461D01*
X17106Y19509D01*
X17119Y19524D01*
X17129Y19540D01*
X17138Y19558D01*
X17144Y19576D01*
X17148Y19595D01*
X17150Y19615D01*
Y19615D01*
X17301D01*
Y20678D01*
X17301D01*
X17282Y20751D01*
Y20753D01*
X17297Y20769D01*
X17301D01*
Y21831D01*
X16699D01*
Y20769D01*
X16703D01*
X16718Y20753D01*
Y20751D01*
X16699Y20678D01*
X16699D01*
Y20015D01*
X16688Y20002D01*
X16653Y19981D01*
X16619Y19968D01*
X16604Y19975D01*
X16581Y19981D01*
X16556Y19986D01*
X16531Y19987D01*
X16523Y19986D01*
X16448Y20062D01*
X16433Y20074D01*
X16417Y20085D01*
X16399Y20094D01*
X16381Y20100D01*
X16362Y20104D01*
X16342Y20105D01*
X16301D01*
Y20678D01*
X16301D01*
X16282Y20751D01*
Y20753D01*
X16297Y20769D01*
X16301D01*
Y21831D01*
X15699D01*
Y20769D01*
X15703D01*
X15718Y20753D01*
Y20751D01*
X15699Y20678D01*
X15699D01*
Y19631D01*
X15595D01*
X15576Y19629D01*
X15556Y19626D01*
X15538Y19619D01*
X15520Y19611D01*
X15504Y19600D01*
X15489Y19587D01*
X15432Y19529D01*
X15419Y19514D01*
X15408Y19498D01*
X15399Y19481D01*
X15393Y19462D01*
X15389Y19443D01*
X15388Y19423D01*
Y19127D01*
X15389Y19107D01*
X15393Y19088D01*
X15399Y19070D01*
X15408Y19052D01*
X15419Y19036D01*
X15432Y19021D01*
X15575Y18877D01*
X15590Y18864D01*
X15606Y18854D01*
X15624Y18845D01*
X15642Y18839D01*
X15662Y18835D01*
X15681Y18834D01*
X15870D01*
Y18511D01*
X16248D01*
Y18523D01*
X16583D01*
Y18511D01*
X16960D01*
Y18898D01*
X17040Y18938D01*
X17076Y18911D01*
Y18574D01*
X17829D01*
X17952Y18450D01*
X17900Y18390D01*
X17076D01*
Y18372D01*
X16867D01*
X16843Y18370D01*
X16819Y18366D01*
X16797Y18358D01*
X16775Y18348D01*
X16755Y18334D01*
X16737Y18318D01*
X16640Y18222D01*
X16625Y18204D01*
X16611Y18184D01*
X16601Y18162D01*
X16593Y18139D01*
X16588Y18116D01*
X16588Y18114D01*
X16575D01*
Y18102D01*
X16240D01*
Y18114D01*
X16101D01*
Y17931D01*
X16001D01*
Y18114D01*
X15863D01*
Y18016D01*
X15789Y17986D01*
X15150Y18625D01*
Y19615D01*
X15301D01*
Y20678D01*
X15301D01*
X15282Y20751D01*
Y20753D01*
X15297Y20769D01*
X15301D01*
Y21831D01*
X14699D01*
Y20769D01*
X14703D01*
X14718Y20753D01*
Y20751D01*
X14699Y20678D01*
X14699D01*
Y19615D01*
X14850D01*
Y18563D01*
X14800Y18516D01*
X14779Y18506D01*
X14290D01*
X14266Y18522D01*
X14228Y18573D01*
X14225Y18586D01*
X14226Y18602D01*
X14225Y18627D01*
X14221Y18651D01*
X14214Y18675D01*
X14204Y18698D01*
X14193Y18720D01*
X14178Y18740D01*
X14162Y18758D01*
X14155Y18764D01*
Y19615D01*
X14301D01*
Y20678D01*
X14301D01*
X14282Y20751D01*
Y20753D01*
X14297Y20769D01*
X14301D01*
Y21831D01*
X13699D01*
Y20769D01*
X13703D01*
X13718Y20753D01*
Y20751D01*
X13699Y20678D01*
X13699D01*
Y19615D01*
X13856D01*
Y18862D01*
X13837Y18841D01*
X13779Y18810D01*
X13755Y18817D01*
X13730Y18821D01*
X13706Y18823D01*
X13681Y18821D01*
X13657Y18817D01*
X13633Y18810D01*
X13610Y18801D01*
X13588Y18789D01*
X13568Y18775D01*
X13550Y18758D01*
X13546Y18754D01*
X13466Y18753D01*
X12672Y19547D01*
X12701Y19615D01*
X12701D01*
Y20678D01*
X12701D01*
X12682Y20751D01*
Y20753D01*
X12697Y20769D01*
X12701D01*
Y21831D01*
X12099D01*
Y20769D01*
X12103D01*
X12118Y20753D01*
Y20751D01*
X12099Y20678D01*
X12099D01*
Y19615D01*
X12210D01*
X12238Y19581D01*
X12248Y19550D01*
X12198Y19486D01*
X11728D01*
X11671Y19543D01*
X11701Y19615D01*
X11701D01*
Y20678D01*
X11701D01*
X11682Y20751D01*
Y20753D01*
X11697Y20769D01*
X11701D01*
Y21831D01*
X11099D01*
Y20769D01*
X11103D01*
X11118Y20753D01*
Y20751D01*
X11099Y20678D01*
X11099D01*
Y19615D01*
X11247D01*
Y19606D01*
X11248Y19587D01*
X11252Y19567D01*
X11258Y19549D01*
X11267Y19531D01*
X11278Y19515D01*
X11291Y19500D01*
X11390Y19401D01*
X11359Y19327D01*
X10804D01*
X10596Y19535D01*
X10629Y19615D01*
X10701D01*
Y20678D01*
X10701D01*
X10682Y20751D01*
Y20753D01*
X10697Y20769D01*
X10701D01*
Y21831D01*
X10099D01*
Y20769D01*
X10103D01*
X10118Y20753D01*
Y20751D01*
X10099Y20678D01*
X10099D01*
Y19615D01*
X10271D01*
Y19499D01*
X10272Y19480D01*
X10276Y19461D01*
X10282Y19442D01*
X10291Y19425D01*
X10302Y19408D01*
X10315Y19394D01*
X10465Y19244D01*
X10434Y19170D01*
X9938D01*
X9566Y19541D01*
X9597Y19615D01*
X9701D01*
Y20678D01*
X9701D01*
X9682Y20751D01*
Y20753D01*
X9697Y20769D01*
X9701D01*
Y21831D01*
X9099D01*
Y20769D01*
X9103D01*
X9118Y20753D01*
Y20751D01*
X9099Y20678D01*
X9099D01*
Y19615D01*
X9193D01*
Y19554D01*
X9194Y19534D01*
X9198Y19515D01*
X9204Y19497D01*
X9213Y19479D01*
X9224Y19463D01*
X9237Y19448D01*
X9601Y19084D01*
X9570Y19011D01*
X9074D01*
X8571Y19514D01*
Y19615D01*
X8701D01*
Y20678D01*
X8701D01*
X8682Y20751D01*
Y20753D01*
X8697Y20769D01*
X8701D01*
Y21831D01*
X8099D01*
Y20769D01*
X8103D01*
X8118Y20753D01*
Y20751D01*
X8099Y20678D01*
X8099D01*
Y19615D01*
X8272D01*
Y19452D01*
X8273Y19432D01*
X8277Y19413D01*
X8283Y19394D01*
X8292Y19377D01*
X8303Y19361D01*
X8316Y19346D01*
X8906Y18755D01*
X8921Y18742D01*
X8937Y18732D01*
X8955Y18723D01*
X8973Y18717D01*
X8992Y18713D01*
X9012Y18711D01*
X11371D01*
X11434Y18648D01*
X11431Y18627D01*
X11429Y18602D01*
X11430Y18586D01*
X11427Y18573D01*
X11389Y18522D01*
X11366Y18506D01*
X8602D01*
X8581Y18520D01*
X8533Y18576D01*
X8532Y18600D01*
X8528Y18625D01*
X8521Y18648D01*
X8512Y18671D01*
X8500Y18693D01*
X8485Y18713D01*
X8469Y18731D01*
X8450Y18748D01*
X8430Y18762D01*
X8409Y18774D01*
X8386Y18784D01*
X8362Y18790D01*
X8338Y18795D01*
X8313Y18796D01*
X8288Y18795D01*
X8264Y18790D01*
X8240Y18784D01*
X8217Y18774D01*
X8196Y18762D01*
X8176Y18748D01*
X8157Y18731D01*
X8151Y18725D01*
X8011D01*
X7547Y19189D01*
Y19615D01*
X7701D01*
Y20678D01*
X7701D01*
X7682Y20751D01*
Y20753D01*
X7697Y20769D01*
X7701D01*
Y21831D01*
X7099D01*
Y20769D01*
X7103D01*
X7118Y20753D01*
Y20751D01*
X7099Y20678D01*
X7099D01*
Y19615D01*
X7248D01*
Y19127D01*
X7249Y19107D01*
X7253Y19088D01*
X7259Y19070D01*
X7268Y19052D01*
X7279Y19036D01*
X7292Y19021D01*
X7733Y18580D01*
X7703Y18506D01*
X7265D01*
X7247Y18517D01*
X7221Y18550D01*
X7205Y18586D01*
X7207Y18597D01*
X7209Y18622D01*
X7207Y18647D01*
X7203Y18671D01*
X7196Y18695D01*
X7187Y18718D01*
X7175Y18739D01*
X7161Y18759D01*
X7144Y18778D01*
X7126Y18794D01*
X7105Y18809D01*
X7084Y18821D01*
X7061Y18830D01*
X7037Y18837D01*
X7013Y18841D01*
X6988Y18842D01*
X6964Y18841D01*
X6939Y18837D01*
X6915Y18830D01*
X6893Y18821D01*
X6871Y18809D01*
X6851Y18794D01*
X6832Y18778D01*
X6827Y18772D01*
X6637D01*
X6277Y19131D01*
X6262Y19144D01*
X6246Y19155D01*
X6228Y19164D01*
X6210Y19170D01*
X6191Y19174D01*
X6171Y19175D01*
X5809D01*
X5539Y19445D01*
Y19615D01*
X5701D01*
Y20678D01*
X5701D01*
X5682Y20751D01*
Y20753D01*
X5697Y20769D01*
X5701D01*
Y21831D01*
X5099D01*
Y20769D01*
X5103D01*
X5118Y20753D01*
Y20751D01*
X5099Y20678D01*
X5099D01*
Y19615D01*
X5240D01*
Y19383D01*
X5242Y19363D01*
X5245Y19344D01*
X5252Y19325D01*
X5260Y19308D01*
X5271Y19292D01*
X5284Y19277D01*
X5479Y19082D01*
X5449Y19008D01*
X4815D01*
X4496Y19326D01*
Y19615D01*
X4701D01*
Y20678D01*
X4701D01*
X4682Y20751D01*
Y20753D01*
X4697Y20769D01*
X4701D01*
Y21831D01*
X4099D01*
Y20769D01*
X4103D01*
X4118Y20753D01*
Y20751D01*
X4099Y20678D01*
X4099D01*
Y19615D01*
X4197D01*
Y19265D01*
X4198Y19245D01*
X4202Y19226D01*
X4208Y19207D01*
X4217Y19190D01*
X4228Y19174D01*
X4241Y19159D01*
X4568Y18832D01*
X4535Y18752D01*
X4293D01*
X3531Y19514D01*
Y19615D01*
X3701D01*
Y20678D01*
X3701D01*
X3682Y20751D01*
Y20753D01*
X3697Y20769D01*
X3701D01*
Y21831D01*
X3099D01*
Y21078D01*
X3023Y21055D01*
X3004Y21109D01*
X2982Y21161D01*
X2958Y21211D01*
X2931Y21261D01*
X2902Y21309D01*
X2870Y21355D01*
X2836Y21400D01*
X2799Y21443D01*
X2760Y21484D01*
X2719Y21522D01*
X2677Y21559D01*
X2632Y21593D01*
X2586Y21625D01*
X2538Y21654D01*
X2488Y21681D01*
X2437Y21706D01*
X2385Y21727D01*
X2332Y21746D01*
X2278Y21762D01*
X2224Y21775D01*
X2168Y21785D01*
X2112Y21793D01*
X2056Y21797D01*
X2000Y21798D01*
X1944Y21797D01*
X1888Y21793D01*
X1832Y21785D01*
X1776Y21775D01*
X1722Y21762D01*
X1668Y21746D01*
X1615Y21727D01*
X1563Y21706D01*
X1512Y21681D01*
X1462Y21654D01*
X1414Y21625D01*
X1368Y21593D01*
X1323Y21559D01*
X1281Y21522D01*
X1240Y21484D01*
X1201Y21443D01*
X1164Y21400D01*
X1130Y21355D01*
X1098Y21309D01*
X1069Y21261D01*
X1042Y21211D01*
X1018Y21161D01*
X996Y21109D01*
X977Y21055D01*
X961Y21002D01*
X948Y20947D01*
X938Y20891D01*
X931Y20836D01*
X926Y20780D01*
X925Y20723D01*
X926Y20667D01*
X931Y20611D01*
X938Y20555D01*
X948Y20500D01*
X961Y20445D01*
X977Y20391D01*
X996Y20338D01*
X1018Y20286D01*
X1042Y20235D01*
X1069Y20186D01*
X1098Y20138D01*
X1130Y20091D01*
X1164Y20047D01*
X1201Y20004D01*
X1240Y19963D01*
X1281Y19924D01*
X1323Y19888D01*
X1368Y19853D01*
X1414Y19821D01*
X1462Y19792D01*
X1512Y19765D01*
X1563Y19741D01*
X1615Y19719D01*
X1668Y19701D01*
X1722Y19685D01*
X1776Y19671D01*
X1832Y19661D01*
X1888Y19654D01*
X1944Y19649D01*
X2000Y19648D01*
X2056Y19649D01*
X2112Y19654D01*
X2168Y19661D01*
X2224Y19671D01*
X2278Y19685D01*
X2332Y19701D01*
X2385Y19719D01*
X2437Y19741D01*
X2488Y19765D01*
X2538Y19792D01*
X2586Y19821D01*
X2632Y19853D01*
X2677Y19888D01*
X2719Y19924D01*
X2760Y19963D01*
X2799Y20004D01*
X2836Y20047D01*
X2870Y20091D01*
X2902Y20138D01*
X2931Y20186D01*
X2958Y20235D01*
X2982Y20286D01*
X3004Y20338D01*
X3023Y20391D01*
X3099Y20368D01*
Y19615D01*
X3232D01*
Y19452D01*
X3234Y19432D01*
X3237Y19413D01*
X3244Y19394D01*
X3252Y19377D01*
X3263Y19361D01*
X3276Y19346D01*
X4042Y18580D01*
X4012Y18506D01*
X2323D01*
X2303Y18505D01*
X2284Y18501D01*
X2266Y18494D01*
X2248Y18486D01*
X2232Y18475D01*
X2217Y18462D01*
X1125Y17370D01*
X1112Y17355D01*
X1101Y17339D01*
X1092Y17321D01*
X1086Y17302D01*
X1082Y17283D01*
X1081Y17264D01*
Y7147D01*
X1082Y7128D01*
X1086Y7108D01*
X1092Y7090D01*
X1101Y7072D01*
X1112Y7056D01*
X1125Y7041D01*
X1704Y6462D01*
X1719Y6449D01*
X1735Y6438D01*
X1752Y6430D01*
X1771Y6423D01*
X1790Y6419D01*
X1810Y6418D01*
X2038D01*
X2047Y6401D01*
X2066Y6372D01*
X2087Y6345D01*
X2110Y6319D01*
X2135Y6296D01*
X2163Y6275D01*
X2192Y6257D01*
X2223Y6241D01*
X2254Y6227D01*
X2287Y6217D01*
X2321Y6210D01*
X2355Y6205D01*
X2390Y6204D01*
X2424Y6205D01*
X2458Y6210D01*
X2492Y6217D01*
X2525Y6227D01*
X2557Y6241D01*
X2588Y6257D01*
X2617Y6275D01*
X2644Y6296D01*
X2670Y6319D01*
X2693Y6345D01*
X2714Y6372D01*
X2732Y6401D01*
X2748Y6432D01*
X2762Y6464D01*
X2772Y6497D01*
X2779Y6531D01*
X2784Y6565D01*
X2785Y6599D01*
X2784Y6634D01*
X2779Y6668D01*
X2772Y6702D01*
X2762Y6735D01*
X2748Y6766D01*
X2732Y6797D01*
X2726Y6807D01*
X2747Y6864D01*
X2767Y6888D01*
X2809Y6890D01*
X3006Y6693D01*
X3000Y6668D01*
X2996Y6634D01*
X2994Y6599D01*
X2996Y6565D01*
X3000Y6531D01*
X3008Y6497D01*
X3018Y6464D01*
X3031Y6432D01*
X3047Y6401D01*
X3066Y6372D01*
X3087Y6345D01*
X3110Y6319D01*
X3135Y6296D01*
X3163Y6275D01*
X3192Y6257D01*
X3223Y6241D01*
X3254Y6227D01*
X3287Y6217D01*
X3321Y6210D01*
X3355Y6205D01*
X3390Y6204D01*
X3424Y6205D01*
X3458Y6210D01*
X3492Y6217D01*
X3525Y6227D01*
X3557Y6241D01*
X3588Y6257D01*
X3617Y6275D01*
X3636Y6290D01*
X3648Y6280D01*
X3661Y6272D01*
X3676Y6266D01*
X3691Y6262D01*
X3707Y6261D01*
X4022D01*
X4037Y6262D01*
X4053Y6266D01*
X4067Y6272D01*
X4081Y6280D01*
X4093Y6290D01*
X4280Y6477D01*
X4284Y6482D01*
X4300Y6479D01*
X4321Y6477D01*
X5526D01*
Y6401D01*
X5774D01*
Y6351D01*
X5824D01*
Y6094D01*
X6001D01*
X6021Y6083D01*
X6064Y6038D01*
X6067Y6014D01*
X6067Y6006D01*
Y5930D01*
X5942D01*
Y5731D01*
X5892D01*
Y5681D01*
X5674D01*
Y5644D01*
X4307D01*
X4286Y5643D01*
X4266Y5639D01*
X4246Y5632D01*
X4227Y5623D01*
X4210Y5611D01*
X4194Y5598D01*
X3555Y4959D01*
X3525Y4971D01*
X3492Y4981D01*
X3458Y4989D01*
X3424Y4993D01*
X3390Y4995D01*
X3355Y4993D01*
X3321Y4989D01*
X3287Y4981D01*
X3254Y4971D01*
X3223Y4958D01*
X3192Y4942D01*
X3163Y4923D01*
X3135Y4902D01*
X3110Y4879D01*
X3087Y4854D01*
X3066Y4826D01*
X3047Y4797D01*
X3031Y4766D01*
X3018Y4735D01*
X3008Y4702D01*
X3000Y4668D01*
X2996Y4634D01*
X2994Y4599D01*
X2996Y4565D01*
X3000Y4530D01*
X3008Y4497D01*
X3018Y4464D01*
X3031Y4432D01*
X3047Y4401D01*
X3066Y4372D01*
X3087Y4345D01*
X3110Y4319D01*
X3123Y4307D01*
X3115Y4263D01*
X3094Y4227D01*
X2956D01*
X2749Y4434D01*
X2762Y4464D01*
X2772Y4497D01*
X2779Y4530D01*
X2784Y4565D01*
X2785Y4599D01*
X2784Y4634D01*
X2779Y4668D01*
X2772Y4702D01*
X2762Y4735D01*
X2748Y4766D01*
X2732Y4797D01*
X2714Y4826D01*
X2693Y4854D01*
X2670Y4879D01*
X2644Y4902D01*
X2617Y4923D01*
X2588Y4942D01*
X2557Y4958D01*
X2525Y4971D01*
X2492Y4981D01*
X2458Y4989D01*
X2424Y4993D01*
X2390Y4995D01*
X2355Y4993D01*
X2321Y4989D01*
X2287Y4981D01*
X2254Y4971D01*
X2223Y4958D01*
X2192Y4942D01*
X2163Y4923D01*
X2135Y4902D01*
X2110Y4879D01*
X2087Y4854D01*
X2066Y4826D01*
X2047Y4797D01*
X2031Y4766D01*
X2018Y4735D01*
X2008Y4702D01*
X2000Y4668D01*
X1996Y4634D01*
X1994Y4599D01*
X1996Y4565D01*
X2000Y4530D01*
X2008Y4497D01*
X2018Y4464D01*
X2031Y4432D01*
X2047Y4401D01*
X2066Y4372D01*
X2087Y4345D01*
X2110Y4319D01*
X2135Y4296D01*
X2163Y4275D01*
X2192Y4257D01*
X2223Y4241D01*
X2254Y4227D01*
X2287Y4217D01*
X2321Y4210D01*
X2355Y4205D01*
X2390Y4204D01*
X2424Y4205D01*
X2458Y4210D01*
X2492Y4217D01*
X2510Y4223D01*
X2777Y3955D01*
X2793Y3941D01*
X2810Y3930D01*
X2829Y3920D01*
X2849Y3914D01*
X2869Y3910D01*
X2890Y3908D01*
X3028D01*
X3037Y3900D01*
X3067Y3828D01*
X3066Y3826D01*
X3047Y3797D01*
X3031Y3766D01*
X3018Y3735D01*
X3008Y3702D01*
X3000Y3668D01*
X2996Y3634D01*
X2994Y3599D01*
X2996Y3565D01*
X3000Y3530D01*
X3008Y3497D01*
X3018Y3464D01*
X3031Y3432D01*
X3047Y3401D01*
X3066Y3372D01*
X3087Y3345D01*
X3110Y3319D01*
X3135Y3296D01*
X3163Y3275D01*
X3192Y3257D01*
X3223Y3241D01*
X3254Y3227D01*
X3287Y3217D01*
X3321Y3210D01*
X3355Y3205D01*
X3390Y3204D01*
X3424Y3205D01*
X3458Y3210D01*
X3492Y3217D01*
X3525Y3227D01*
X3557Y3241D01*
X3588Y3257D01*
X3617Y3275D01*
X3644Y3296D01*
X3670Y3319D01*
X3693Y3345D01*
X3714Y3372D01*
X3732Y3401D01*
X3748Y3432D01*
X3762Y3464D01*
X3772Y3497D01*
X3779Y3530D01*
X3784Y3565D01*
X3785Y3599D01*
X3784Y3634D01*
X3779Y3668D01*
X3772Y3702D01*
X3762Y3735D01*
X3748Y3766D01*
X3732Y3797D01*
X3714Y3826D01*
X3712Y3828D01*
X3742Y3900D01*
X3751Y3908D01*
X3849D01*
X4244Y3513D01*
X4260Y3499D01*
X4277Y3487D01*
X4296Y3478D01*
X4315Y3472D01*
X4336Y3468D01*
X4357Y3466D01*
X4595D01*
Y3158D01*
X5326D01*
Y4023D01*
X5326Y4067D01*
X5396Y4093D01*
X5608D01*
X5660Y4073D01*
X5678Y4015D01*
Y3158D01*
X6409D01*
Y3234D01*
X6485Y3265D01*
X6489Y3265D01*
X6513Y3243D01*
X6541Y3222D01*
X6570Y3203D01*
X6601Y3187D01*
X6632Y3174D01*
X6665Y3164D01*
X6699Y3156D01*
X6733Y3152D01*
X6768Y3150D01*
X6802Y3152D01*
X6836Y3156D01*
X6870Y3164D01*
X6903Y3174D01*
X6935Y3187D01*
X6966Y3203D01*
X6995Y3222D01*
X7022Y3243D01*
X7047Y3266D01*
X7071Y3292D01*
X7092Y3319D01*
X7110Y3348D01*
X7126Y3379D01*
X7140Y3411D01*
X7150Y3444D01*
X7157Y3477D01*
X7162Y3512D01*
X7163Y3546D01*
X7162Y3581D01*
X7157Y3615D01*
X7150Y3648D01*
X7140Y3681D01*
X7126Y3713D01*
X7110Y3744D01*
X7092Y3773D01*
X7071Y3800D01*
X7047Y3826D01*
X7022Y3849D01*
X7018Y3853D01*
Y3935D01*
X7070Y3987D01*
X7278D01*
Y3803D01*
X7476D01*
Y3753D01*
X7526D01*
Y3535D01*
X7711D01*
Y3389D01*
X7712Y3369D01*
X7716Y3350D01*
X7722Y3331D01*
X7731Y3314D01*
X7742Y3298D01*
X7754Y3283D01*
X8126Y2911D01*
X8093Y2831D01*
X7699D01*
Y1769D01*
X7699D01*
X7712Y1689D01*
X7699Y1678D01*
X7699D01*
Y1397D01*
X7301D01*
Y1678D01*
X7250D01*
Y1769D01*
X7301D01*
Y2831D01*
X6699D01*
Y1769D01*
X6750D01*
Y1678D01*
X6699D01*
Y615D01*
X7301D01*
Y896D01*
X7699D01*
Y615D01*
X8126D01*
X8132Y615D01*
X8436D01*
X8583Y468D01*
X8600Y453D01*
X8618Y441D01*
X8638Y431D01*
X8659Y424D01*
X8681Y420D01*
X8703Y418D01*
X9254D01*
X9276Y420D01*
X9298Y424D01*
X9319Y431D01*
X9338Y441D01*
X9357Y453D01*
X9373Y468D01*
X9521Y615D01*
X9868D01*
X9874Y615D01*
X10301D01*
Y1678D01*
X10301D01*
X10288Y1689D01*
X10301Y1769D01*
X10301D01*
Y2767D01*
X10441D01*
X10480Y2703D01*
Y699D01*
X10482Y679D01*
X10485Y660D01*
X10492Y642D01*
X10500Y624D01*
X10511Y608D01*
X10524Y593D01*
X10661Y456D01*
X10676Y443D01*
X10692Y432D01*
X10710Y423D01*
X10729Y417D01*
X10748Y413D01*
X10767Y412D01*
X20358D01*
X20377Y413D01*
X20397Y417D01*
X20415Y423D01*
X20433Y432D01*
X20449Y443D01*
X20464Y456D01*
X20646Y638D01*
X20699Y615D01*
Y615D01*
X21301D01*
Y1678D01*
X21301D01*
X21282Y1751D01*
Y1753D01*
X21297Y1769D01*
X21301D01*
Y2760D01*
X21301Y2804D01*
X21352Y2841D01*
X21356Y2843D01*
X21373Y2850D01*
X21414Y2821D01*
X21462Y2792D01*
X21512Y2765D01*
X21563Y2741D01*
X21615Y2719D01*
X21668Y2701D01*
X21722Y2685D01*
X21776Y2671D01*
X21832Y2661D01*
X21888Y2654D01*
X21944Y2649D01*
X22000Y2648D01*
X22056Y2649D01*
X22112Y2654D01*
X22168Y2661D01*
X22224Y2671D01*
X22278Y2685D01*
X22332Y2701D01*
X22385Y2719D01*
X22437Y2741D01*
X22488Y2765D01*
X22538Y2792D01*
X22586Y2821D01*
X22632Y2853D01*
X22677Y2888D01*
X22719Y2924D01*
X22760Y2963D01*
X22799Y3004D01*
X22836Y3047D01*
X22870Y3091D01*
X22902Y3138D01*
X22931Y3186D01*
X22958Y3235D01*
X22982Y3286D01*
X23004Y3338D01*
X23023Y3391D01*
X23039Y3445D01*
X23052Y3500D01*
X23062Y3555D01*
X23069Y3611D01*
X23074Y3667D01*
X23075Y3723D01*
X23074Y3780D01*
X23069Y3836D01*
X23062Y3891D01*
X23052Y3947D01*
X23039Y4002D01*
X23023Y4055D01*
X23004Y4109D01*
X22982Y4161D01*
X22958Y4211D01*
X22931Y4261D01*
X22902Y4309D01*
X22870Y4355D01*
X22836Y4400D01*
X22799Y4443D01*
X22760Y4484D01*
X22719Y4522D01*
X22677Y4559D01*
X22632Y4593D01*
X22586Y4625D01*
X22538Y4654D01*
X22488Y4681D01*
X22437Y4706D01*
X22385Y4727D01*
X22332Y4746D01*
X22278Y4762D01*
X22224Y4775D01*
X22168Y4785D01*
X22112Y4793D01*
X22056Y4797D01*
X22000Y4798D01*
X21944Y4797D01*
X21888Y4793D01*
X21832Y4785D01*
X21776Y4775D01*
X21722Y4762D01*
X21668Y4746D01*
X21615Y4727D01*
X21563Y4706D01*
X21512Y4681D01*
X21462Y4654D01*
X21414Y4625D01*
X21368Y4593D01*
X21323Y4559D01*
X21281Y4522D01*
X21240Y4484D01*
X21201Y4443D01*
X21164Y4400D01*
X21130Y4355D01*
X21098Y4309D01*
X21069Y4261D01*
X21042Y4211D01*
X21018Y4161D01*
X20996Y4109D01*
X20977Y4055D01*
X20961Y4002D01*
X20948Y3947D01*
X20938Y3891D01*
X20931Y3836D01*
X20926Y3780D01*
X20925Y3723D01*
X20926Y3667D01*
X20931Y3611D01*
X20938Y3555D01*
X20948Y3500D01*
X20961Y3445D01*
X20977Y3391D01*
X20996Y3338D01*
X21018Y3286D01*
X21042Y3235D01*
X21069Y3186D01*
X21098Y3138D01*
X21130Y3091D01*
X21164Y3047D01*
X21201Y3004D01*
X21240Y2963D01*
X21281Y2924D01*
X21296Y2911D01*
X21266Y2831D01*
X21232Y2831D01*
X20699D01*
Y1769D01*
X20703D01*
X20718Y1753D01*
Y1751D01*
X20699Y1678D01*
X20699D01*
Y1043D01*
X20690D01*
X20670Y1042D01*
X20651Y1038D01*
X20633Y1032D01*
X20615Y1023D01*
X20599Y1012D01*
X20584Y999D01*
X20375Y790D01*
X20301Y820D01*
Y1678D01*
X20301D01*
X20282Y1751D01*
Y1753D01*
X20297Y1769D01*
X20301D01*
Y2831D01*
X20175D01*
Y2840D01*
X20174Y2860D01*
X20170Y2879D01*
X20164Y2898D01*
X20155Y2915D01*
X20144Y2931D01*
X20131Y2946D01*
X19317Y3760D01*
X19303Y3773D01*
X19286Y3784D01*
X19269Y3792D01*
X19250Y3799D01*
X19231Y3803D01*
X19212Y3804D01*
X15554D01*
X15530Y3844D01*
X15522Y3884D01*
X15581Y3943D01*
X15595Y3958D01*
X15607Y3976D01*
X15616Y3994D01*
X15622Y4014D01*
X15627Y4035D01*
X15628Y4055D01*
Y4076D01*
X15674D01*
Y4176D01*
X15665D01*
Y4267D01*
X15744Y4345D01*
X15783D01*
Y4176D01*
X15774D01*
Y4076D01*
X15883D01*
Y4137D01*
X15939Y4194D01*
X16088D01*
Y4412D01*
X16138D01*
Y4462D01*
X16336D01*
Y4588D01*
Y4800D01*
X16337Y4806D01*
Y4942D01*
X17169D01*
X17206Y4875D01*
X17209Y4862D01*
X17193Y4836D01*
X17177Y4806D01*
X17164Y4774D01*
X17153Y4741D01*
X17146Y4707D01*
X17141Y4673D01*
X17140Y4639D01*
X17141Y4604D01*
X17146Y4570D01*
X17153Y4536D01*
X17164Y4503D01*
X17177Y4471D01*
X17193Y4441D01*
X17211Y4412D01*
X17232Y4384D01*
X17256Y4359D01*
X17281Y4335D01*
X17308Y4314D01*
X17338Y4296D01*
X17368Y4280D01*
X17400Y4267D01*
X17433Y4256D01*
X17467Y4249D01*
X17501Y4244D01*
X17535Y4243D01*
X17570Y4244D01*
X17604Y4249D01*
X17638Y4256D01*
X17671Y4267D01*
X17703Y4280D01*
X17733Y4296D01*
X17762Y4314D01*
X17790Y4335D01*
X17815Y4359D01*
X17839Y4384D01*
X17860Y4412D01*
X17878Y4441D01*
X17894Y4471D01*
X17907Y4503D01*
X17918Y4536D01*
X17925Y4570D01*
X17930Y4604D01*
X17931Y4639D01*
X17930Y4673D01*
X17925Y4707D01*
X17918Y4741D01*
X17907Y4774D01*
X17894Y4806D01*
X17878Y4836D01*
X17862Y4862D01*
X17865Y4875D01*
X17902Y4942D01*
X18621D01*
X18646Y4943D01*
X18671Y4947D01*
X18695Y4953D01*
X18719Y4961D01*
X18742Y4972D01*
X18764Y4985D01*
X18784Y5000D01*
X18803Y5017D01*
X18987Y5202D01*
X18987Y5202D01*
X19004Y5221D01*
X19019Y5241D01*
X19032Y5263D01*
X19043Y5285D01*
X19052Y5309D01*
X19058Y5334D01*
X19062Y5359D01*
X19063Y5384D01*
Y6823D01*
X19062Y6838D01*
Y7177D01*
X19061Y7202D01*
X19058Y7224D01*
X19169Y7335D01*
X19222Y7329D01*
X19244Y7328D01*
X20333D01*
Y7041D01*
X21006D01*
Y7304D01*
X21277D01*
X21362Y7219D01*
Y6144D01*
X21354Y6137D01*
X21320Y6135D01*
X21286Y6131D01*
X21252Y6123D01*
X21219Y6113D01*
X21187Y6100D01*
X21156Y6084D01*
X21127Y6065D01*
X21100Y6044D01*
X21075Y6021D01*
X21051Y5995D01*
X21030Y5968D01*
X21012Y5939D01*
X20996Y5908D01*
X20983Y5876D01*
X20972Y5843D01*
X20965Y5810D01*
X20960Y5775D01*
X20959Y5741D01*
X20960Y5706D01*
X20965Y5672D01*
X20972Y5639D01*
X20983Y5606D01*
X20996Y5574D01*
X21012Y5543D01*
X21030Y5514D01*
X21051Y5487D01*
X21075Y5461D01*
X21100Y5438D01*
X21127Y5417D01*
X21156Y5398D01*
X21187Y5382D01*
X21219Y5369D01*
X21252Y5359D01*
X21286Y5351D01*
X21320Y5347D01*
X21354Y5345D01*
X21389Y5347D01*
X21423Y5351D01*
X21457Y5359D01*
X21490Y5369D01*
X21522Y5382D01*
X21552Y5398D01*
X21581Y5417D01*
X21609Y5438D01*
X21634Y5461D01*
X21657Y5487D01*
X21678Y5514D01*
X21697Y5543D01*
X21713Y5574D01*
X21726Y5606D01*
X21737Y5639D01*
X21744Y5672D01*
X21748Y5706D01*
X21750Y5741D01*
X21748Y5775D01*
X21744Y5810D01*
X21737Y5843D01*
X21726Y5876D01*
X21713Y5908D01*
X21697Y5939D01*
X21678Y5968D01*
X21657Y5995D01*
X21641Y6013D01*
X21642Y6027D01*
Y7276D01*
X21640Y7295D01*
X21637Y7313D01*
X21631Y7330D01*
X21623Y7346D01*
X21613Y7361D01*
X21601Y7375D01*
X21433Y7542D01*
X21420Y7555D01*
X21404Y7565D01*
X21388Y7573D01*
X21371Y7579D01*
X21353Y7582D01*
X21335Y7583D01*
X21006D01*
Y8033D01*
Y8422D01*
Y8899D01*
Y9106D01*
X20333D01*
Y8871D01*
X19335D01*
X19312Y8870D01*
X19290Y8866D01*
X19269Y8860D01*
X19248Y8851D01*
X19229Y8840D01*
X19211Y8827D01*
X19194Y8813D01*
X18893Y8511D01*
X18878Y8495D01*
X18865Y8477D01*
X18854Y8457D01*
X18846Y8436D01*
X18840Y8415D01*
X18836Y8393D01*
X18835Y8371D01*
Y8194D01*
X18689D01*
Y8339D01*
X18292D01*
Y8058D01*
X18172Y7938D01*
X18098Y7969D01*
Y8161D01*
Y8329D01*
X17681D01*
Y8233D01*
X17250D01*
Y8935D01*
X17255Y8947D01*
X17272Y8963D01*
X17330Y8997D01*
X17334Y8996D01*
X17358Y8995D01*
X17383Y8996D01*
X17407Y9000D01*
X17431Y9007D01*
X17454Y9017D01*
X17476Y9029D01*
X17496Y9043D01*
X17514Y9059D01*
X17522Y9068D01*
X17718D01*
Y8955D01*
X18189D01*
X18269Y8955D01*
X18298Y8955D01*
X18769D01*
Y8955D01*
X18805Y8985D01*
X18830Y8986D01*
X18854Y8991D01*
X18878Y8997D01*
X18901Y9007D01*
X18922Y9019D01*
X18943Y9033D01*
X18961Y9050D01*
X18977Y9068D01*
X18992Y9088D01*
X19004Y9110D01*
X19013Y9133D01*
X19020Y9156D01*
X19024Y9181D01*
X19026Y9206D01*
X19024Y9230D01*
X19020Y9255D01*
X19013Y9278D01*
X19004Y9301D01*
X18992Y9323D01*
X18977Y9343D01*
X18961Y9361D01*
X18943Y9378D01*
X18922Y9392D01*
X18901Y9404D01*
X18878Y9414D01*
X18854Y9420D01*
X18830Y9425D01*
X18828Y9425D01*
X18769Y9475D01*
X18769Y9475D01*
X18769Y9475D01*
X18298D01*
X18218Y9475D01*
X18189Y9475D01*
X17718D01*
Y9363D01*
X17522D01*
X17514Y9371D01*
X17496Y9388D01*
X17476Y9402D01*
X17454Y9414D01*
X17431Y9423D01*
X17407Y9430D01*
X17383Y9434D01*
X17358Y9436D01*
X17334Y9434D01*
X17330Y9434D01*
X17272Y9467D01*
X17255Y9484D01*
X17250Y9495D01*
Y9880D01*
X17255Y9892D01*
X17267Y9907D01*
X17329Y9950D01*
X17353Y9951D01*
X17378Y9955D01*
X17402Y9962D01*
X17424Y9971D01*
X17446Y9983D01*
X17466Y9998D01*
X17485Y10014D01*
X17492Y10023D01*
X17690D01*
Y9910D01*
X18160D01*
X18240Y9910D01*
X18270Y9910D01*
X18740D01*
X18740Y9910D01*
X18805Y9940D01*
X18830Y9941D01*
X18854Y9945D01*
X18878Y9952D01*
X18901Y9962D01*
X18922Y9974D01*
X18943Y9988D01*
X18961Y10004D01*
X18977Y10023D01*
X18992Y10043D01*
X19004Y10065D01*
X19013Y10087D01*
X19020Y10111D01*
X19024Y10136D01*
X19026Y10160D01*
X19024Y10185D01*
X19020Y10209D01*
X19013Y10233D01*
X19004Y10256D01*
X18992Y10278D01*
X18977Y10298D01*
X18961Y10316D01*
X18943Y10333D01*
X18922Y10347D01*
X18901Y10359D01*
X18878Y10368D01*
X18854Y10375D01*
X18830Y10379D01*
X18805Y10381D01*
X18740Y10430D01*
X18742Y10439D01*
X18760Y10502D01*
X18773Y10506D01*
X18790Y10515D01*
X18806Y10525D01*
X18821Y10538D01*
X19198Y10915D01*
X19209Y10914D01*
X19233Y10916D01*
X19258Y10920D01*
X19281Y10927D01*
X19304Y10936D01*
X19326Y10948D01*
X19346Y10962D01*
X19365Y10979D01*
X19381Y10997D01*
X19395Y11017D01*
X19407Y11039D01*
X19417Y11062D01*
X19424Y11086D01*
X19428Y11110D01*
X19429Y11135D01*
X19428Y11159D01*
X19424Y11184D01*
X19417Y11207D01*
X19407Y11230D01*
X19395Y11252D01*
X19381Y11272D01*
X19365Y11291D01*
X19346Y11307D01*
X19326Y11321D01*
X19304Y11333D01*
X19281Y11343D01*
X19258Y11350D01*
X19233Y11354D01*
X19209Y11355D01*
X19184Y11354D01*
X19160Y11350D01*
X19136Y11343D01*
X19113Y11333D01*
X19091Y11321D01*
X19071Y11307D01*
X19053Y11291D01*
X19036Y11272D01*
X19022Y11252D01*
X19010Y11230D01*
X19001Y11207D01*
X18994Y11184D01*
X18990Y11159D01*
X18988Y11135D01*
X18989Y11124D01*
X18655Y10790D01*
X17437D01*
X17437Y10790D01*
X17418Y10789D01*
X17399Y10785D01*
X17381Y10779D01*
X17363Y10770D01*
X17347Y10760D01*
X17333Y10747D01*
X16998Y10412D01*
X16985Y10398D01*
X16975Y10382D01*
X16966Y10364D01*
X16962Y10363D01*
X16949Y10368D01*
X16925Y10375D01*
X16901Y10379D01*
X16876Y10381D01*
X16851Y10379D01*
X16827Y10375D01*
X16803Y10368D01*
X16780Y10359D01*
X16759Y10347D01*
X16739Y10333D01*
X16720Y10316D01*
X16704Y10298D01*
X16689Y10278D01*
X16677Y10256D01*
X16668Y10233D01*
X16661Y10209D01*
X16657Y10185D01*
X16656Y10160D01*
X16656Y10149D01*
X16220Y9713D01*
X16208Y9699D01*
X16197Y9683D01*
X16188Y9666D01*
X16182Y9647D01*
X16178Y9628D01*
X16177Y9609D01*
Y8519D01*
X16130Y8459D01*
X15954D01*
X15936Y8464D01*
X15914Y8468D01*
X15892Y8469D01*
X15756D01*
Y8587D01*
X15221D01*
Y8465D01*
X15218Y8464D01*
X15196Y8458D01*
X15176Y8450D01*
X15156Y8439D01*
X15138Y8426D01*
X15121Y8411D01*
X14990Y8279D01*
X14541D01*
X14526Y8295D01*
X14502Y8359D01*
X14507Y8366D01*
X14526Y8395D01*
X14542Y8425D01*
X14555Y8457D01*
X14565Y8490D01*
X14573Y8524D01*
X14577Y8558D01*
X14579Y8593D01*
X14577Y8627D01*
X14573Y8661D01*
X14565Y8695D01*
X14555Y8728D01*
X14542Y8760D01*
X14526Y8790D01*
X14507Y8819D01*
X14486Y8847D01*
X14463Y8872D01*
X14437Y8896D01*
X14410Y8917D01*
X14381Y8935D01*
X14350Y8951D01*
X14318Y8964D01*
X14285Y8975D01*
X14252Y8982D01*
X14218Y8987D01*
X14183Y8988D01*
X14149Y8987D01*
X14114Y8982D01*
X14081Y8975D01*
X14048Y8964D01*
X14016Y8951D01*
X13985Y8935D01*
X13956Y8917D01*
X13929Y8896D01*
X13903Y8872D01*
X13880Y8847D01*
X13859Y8819D01*
X13840Y8790D01*
X13824Y8760D01*
X13811Y8728D01*
X13801Y8695D01*
X13793Y8661D01*
X13789Y8627D01*
X13787Y8593D01*
X13789Y8558D01*
X13793Y8524D01*
X13801Y8490D01*
X13810Y8461D01*
X13797Y8436D01*
X13751Y8395D01*
X13748Y8395D01*
X13723Y8399D01*
X13698Y8400D01*
X13600D01*
Y8742D01*
X13224D01*
Y8792D01*
X13174D01*
Y9109D01*
X12556D01*
Y8792D01*
X12456D01*
Y9109D01*
X12143D01*
Y9118D01*
X11818D01*
Y8802D01*
X11768D01*
Y8752D01*
X11392D01*
Y8430D01*
X11233D01*
X11208Y8429D01*
X11183Y8425D01*
X11159Y8419D01*
X11135Y8410D01*
X11075Y8443D01*
X11059Y8461D01*
Y10316D01*
X11269D01*
X11697Y9887D01*
X11713Y9874D01*
X11730Y9862D01*
X11749Y9853D01*
X11769Y9846D01*
X11789Y9842D01*
X11810Y9841D01*
X13379D01*
X13400Y9842D01*
X13420Y9846D01*
X13440Y9853D01*
X13459Y9862D01*
X13476Y9874D01*
X13492Y9887D01*
X13672Y10067D01*
X13686Y10083D01*
X13697Y10100D01*
X13706Y10119D01*
X13713Y10139D01*
X13717Y10159D01*
X13718Y10180D01*
Y10731D01*
X13717Y10752D01*
X13713Y10772D01*
X13706Y10792D01*
X13697Y10811D01*
X13686Y10828D01*
X13672Y10844D01*
X13524Y10991D01*
X13508Y11005D01*
X13491Y11017D01*
X13472Y11026D01*
X13453Y11033D01*
X13432Y11037D01*
X13411Y11038D01*
X13177D01*
Y11117D01*
X13022D01*
X12998Y11136D01*
X12972Y11177D01*
X12967Y11197D01*
X12969Y11207D01*
X12970Y11226D01*
Y13368D01*
X14041Y14439D01*
X14061Y14438D01*
X14086Y14439D01*
X14110Y14443D01*
X14134Y14450D01*
X14157Y14460D01*
X14178Y14472D01*
X14198Y14486D01*
X14217Y14502D01*
X14233Y14521D01*
X14269Y14532D01*
X14298Y14521D01*
X14320Y14509D01*
X14343Y14499D01*
X14366Y14493D01*
X14391Y14488D01*
X14415Y14487D01*
X14440Y14488D01*
X14464Y14493D01*
X14488Y14499D01*
X14511Y14509D01*
X14533Y14521D01*
X14553Y14535D01*
X14571Y14552D01*
X14588Y14570D01*
X14602Y14590D01*
X14614Y14612D01*
X14623Y14635D01*
X14630Y14658D01*
X14709Y14644D01*
Y11725D01*
X14710Y11706D01*
X14714Y11686D01*
X14720Y11668D01*
X14729Y11650D01*
X14740Y11634D01*
X14753Y11619D01*
X15225Y11147D01*
X15240Y11134D01*
X15256Y11123D01*
X15273Y11115D01*
X15292Y11108D01*
X15311Y11105D01*
X15331Y11103D01*
X18648D01*
X18667Y11105D01*
X18686Y11108D01*
X18705Y11115D01*
X18722Y11123D01*
X18739Y11134D01*
X18753Y11147D01*
X18980Y11373D01*
X18993Y11388D01*
X19004Y11404D01*
X19012Y11422D01*
X19018Y11440D01*
X19022Y11460D01*
X19023Y11469D01*
X19061D01*
X19085Y11470D01*
X19110Y11474D01*
X19133Y11481D01*
X19156Y11490D01*
X19177Y11502D01*
X19197Y11516D01*
X19215Y11533D01*
X19232Y11551D01*
X19246Y11571D01*
X19258Y11592D01*
X19267Y11615D01*
X19274Y11638D01*
X19278Y11663D01*
X19279Y11687D01*
X19278Y11711D01*
X19274Y11736D01*
X19267Y11759D01*
X19258Y11782D01*
X19246Y11803D01*
X19232Y11823D01*
X19215Y11841D01*
X19197Y11858D01*
X19177Y11872D01*
X19156Y11884D01*
X19133Y11893D01*
X19124Y11896D01*
X19116Y11937D01*
X19124Y11978D01*
X19133Y11981D01*
X19156Y11990D01*
X19177Y12002D01*
X19197Y12016D01*
X19215Y12033D01*
X19232Y12051D01*
X19246Y12071D01*
X19258Y12092D01*
X19267Y12115D01*
X19274Y12138D01*
X19278Y12163D01*
X19279Y12187D01*
X19278Y12211D01*
X19274Y12236D01*
X19267Y12259D01*
X19258Y12282D01*
X19246Y12303D01*
X19232Y12323D01*
X19215Y12341D01*
X19197Y12358D01*
X19177Y12372D01*
X19156Y12384D01*
X19133Y12393D01*
X19124Y12396D01*
X19116Y12437D01*
X19124Y12478D01*
X19133Y12481D01*
X19156Y12490D01*
X19177Y12502D01*
X19197Y12516D01*
X19215Y12533D01*
X19220Y12538D01*
X19324D01*
X19344Y12539D01*
X19363Y12543D01*
X19381Y12549D01*
X19399Y12558D01*
X19415Y12569D01*
X19430Y12582D01*
X19751Y12903D01*
X19825Y12872D01*
Y12373D01*
X20343D01*
X20363Y12353D01*
X20388Y12293D01*
X20379Y12270D01*
X20372Y12247D01*
X20368Y12222D01*
X20366Y12198D01*
X20368Y12173D01*
X20368Y12170D01*
Y12073D01*
X19825D01*
Y11373D01*
X20238D01*
X20259Y11355D01*
X20290Y11296D01*
X20283Y11272D01*
X20279Y11248D01*
X20278Y11223D01*
X20279Y11199D01*
X20280Y11195D01*
Y11073D01*
X19825D01*
Y10373D01*
X21525D01*
Y10373D01*
X21575D01*
Y10373D01*
X22375D01*
Y10723D01*
Y11073D01*
X21575D01*
Y11073D01*
X21525D01*
Y11073D01*
X20716D01*
Y11195D01*
X20717Y11199D01*
X20718Y11223D01*
X20717Y11248D01*
X20713Y11272D01*
X20706Y11296D01*
X20737Y11355D01*
X20758Y11373D01*
X21525D01*
Y11373D01*
X21575D01*
Y11373D01*
X23177D01*
Y11073D01*
X22475D01*
Y10723D01*
Y10373D01*
X23177D01*
Y5956D01*
X23164Y5946D01*
X23146Y5930D01*
X23129Y5912D01*
X23115Y5892D01*
X23103Y5870D01*
X23094Y5848D01*
X23087Y5824D01*
X23083Y5800D01*
X23082Y5776D01*
X23083Y5751D01*
X23087Y5727D01*
X23094Y5703D01*
X23103Y5681D01*
X23115Y5659D01*
X23129Y5639D01*
X23138Y5629D01*
X23146Y5608D01*
Y5550D01*
X23138Y5528D01*
X23129Y5518D01*
X23115Y5498D01*
X23103Y5477D01*
X23094Y5454D01*
X23087Y5430D01*
X23083Y5406D01*
X23082Y5382D01*
X23083Y5357D01*
X23087Y5333D01*
X23094Y5310D01*
X23103Y5287D01*
X23115Y5266D01*
X23129Y5246D01*
X23138Y5235D01*
X23146Y5214D01*
Y5156D01*
X23138Y5135D01*
X23129Y5124D01*
X23115Y5104D01*
X23103Y5083D01*
X23094Y5060D01*
X23087Y5037D01*
X23083Y5013D01*
X23082Y4988D01*
X23083Y4964D01*
X23087Y4940D01*
X23094Y4916D01*
X23103Y4893D01*
X23115Y4872D01*
X23129Y4852D01*
X23146Y4834D01*
X23164Y4817D01*
X23177Y4808D01*
Y3084D01*
X21908Y1815D01*
X21897Y1803D01*
X21887Y1788D01*
X21880Y1773D01*
X21874Y1757D01*
X21871Y1740D01*
X21870Y1723D01*
Y130D01*
X13708D01*
X13704Y136D01*
X13688Y154D01*
X13670Y171D01*
X13650Y185D01*
X13628Y197D01*
X13606Y206D01*
X13582Y213D01*
X13558Y217D01*
X13533Y218D01*
X13509Y217D01*
X13485Y213D01*
X13461Y206D01*
X13439Y197D01*
X13417Y185D01*
X13397Y171D01*
X13384Y159D01*
X13369Y154D01*
X13304D01*
X13289Y159D01*
X13276Y171D01*
X13256Y185D01*
X13235Y197D01*
X13212Y206D01*
X13188Y213D01*
X13164Y217D01*
X13140Y218D01*
X13115Y217D01*
X13091Y213D01*
X13068Y206D01*
X13045Y197D01*
X13024Y185D01*
X13004Y171D01*
X12990Y159D01*
X12976Y154D01*
X12910D01*
X12895Y159D01*
X12882Y171D01*
X12862Y185D01*
X12841Y197D01*
X12818Y206D01*
X12795Y213D01*
X12771Y217D01*
X12746Y218D01*
X12722Y217D01*
X12697Y213D01*
X12674Y206D01*
X12651Y197D01*
X12630Y185D01*
X12610Y171D01*
X12592Y154D01*
X12575Y136D01*
X12571Y130D01*
X1707D01*
X1239Y598D01*
X1274Y667D01*
X1280Y671D01*
X1332Y661D01*
X1388Y654D01*
X1444Y649D01*
X1500Y648D01*
X1556Y649D01*
X1612Y654D01*
X1668Y661D01*
X1724Y671D01*
X1778Y685D01*
X1832Y701D01*
X1885Y719D01*
X1937Y741D01*
X1988Y765D01*
X2038Y792D01*
X2086Y821D01*
X2132Y853D01*
X2177Y888D01*
X2219Y924D01*
X2260Y963D01*
X2299Y1004D01*
X2336Y1047D01*
X2370Y1091D01*
X2402Y1138D01*
X2431Y1186D01*
X2458Y1235D01*
X2482Y1286D01*
X2504Y1338D01*
X2523Y1391D01*
X2539Y1445D01*
X2552Y1500D01*
X2562Y1555D01*
X2569Y1611D01*
X2574Y1667D01*
X2575Y1723D01*
X2574Y1779D01*
X2569Y1836D01*
X2562Y1891D01*
X2552Y1947D01*
X2539Y2002D01*
X2523Y2055D01*
X2504Y2109D01*
X2482Y2161D01*
X2458Y2211D01*
X2431Y2261D01*
X2402Y2309D01*
X2370Y2355D01*
X2336Y2400D01*
X2299Y2443D01*
X2260Y2484D01*
X2219Y2522D01*
X2177Y2559D01*
X2132Y2593D01*
X2086Y2625D01*
X2038Y2654D01*
X1988Y2681D01*
X1937Y2706D01*
X1885Y2727D01*
X1832Y2746D01*
X1778Y2762D01*
X1724Y2775D01*
X1668Y2785D01*
X1612Y2793D01*
X1556Y2797D01*
X1500Y2798D01*
X1444Y2797D01*
X1388Y2793D01*
X1332Y2785D01*
X1276Y2775D01*
X1222Y2762D01*
X1168Y2746D01*
X1115Y2727D01*
X1063Y2706D01*
X1012Y2681D01*
X962Y2654D01*
X914Y2625D01*
X868Y2593D01*
X823Y2559D01*
X781Y2522D01*
X740Y2484D01*
X701Y2443D01*
X664Y2400D01*
X630Y2355D01*
X598Y2309D01*
X569Y2261D01*
X542Y2211D01*
X518Y2161D01*
X496Y2109D01*
X477Y2055D01*
X461Y2002D01*
X448Y1947D01*
X438Y1891D01*
X431Y1836D01*
X426Y1779D01*
X425Y1723D01*
X426Y1667D01*
X431Y1611D01*
X438Y1555D01*
X448Y1503D01*
X444Y1497D01*
X375Y1463D01*
X130Y1707D01*
Y4813D01*
X136Y4817D01*
X154Y4834D01*
X171Y4852D01*
X185Y4872D01*
X197Y4893D01*
X206Y4916D01*
X213Y4940D01*
X217Y4964D01*
X218Y4988D01*
X217Y5013D01*
X213Y5037D01*
X206Y5060D01*
X197Y5083D01*
X185Y5104D01*
X171Y5124D01*
X159Y5138D01*
X154Y5152D01*
Y5218D01*
X159Y5232D01*
X171Y5246D01*
X185Y5266D01*
X197Y5287D01*
X206Y5310D01*
X213Y5333D01*
X217Y5357D01*
X218Y5382D01*
X217Y5406D01*
X213Y5430D01*
X206Y5454D01*
X197Y5477D01*
X185Y5498D01*
X171Y5518D01*
X159Y5531D01*
X154Y5546D01*
Y5612D01*
X159Y5626D01*
X171Y5639D01*
X185Y5659D01*
X197Y5681D01*
X206Y5703D01*
X213Y5727D01*
X217Y5751D01*
X218Y5776D01*
X217Y5800D01*
X213Y5824D01*
X206Y5848D01*
X197Y5870D01*
X185Y5892D01*
X171Y5912D01*
X154Y5930D01*
X136Y5946D01*
X130Y5951D01*
Y13358D01*
X136Y13362D01*
X154Y13379D01*
X171Y13397D01*
X185Y13417D01*
X197Y13438D01*
X206Y13461D01*
X213Y13484D01*
X217Y13509D01*
X218Y13533D01*
X217Y13558D01*
X213Y13582D01*
X206Y13605D01*
X197Y13628D01*
X185Y13649D01*
X171Y13669D01*
X159Y13682D01*
X154Y13697D01*
Y13763D01*
X159Y13777D01*
X171Y13791D01*
X185Y13811D01*
X197Y13832D01*
X206Y13855D01*
X213Y13878D01*
X217Y13902D01*
X218Y13927D01*
X217Y13951D01*
X213Y13975D01*
X206Y13999D01*
X197Y14022D01*
X185Y14043D01*
X171Y14063D01*
X159Y14076D01*
X154Y14091D01*
Y14157D01*
X159Y14171D01*
X171Y14184D01*
X185Y14204D01*
X197Y14226D01*
X206Y14248D01*
X213Y14272D01*
X217Y14296D01*
X218Y14320D01*
X217Y14345D01*
X213Y14369D01*
X206Y14393D01*
X197Y14415D01*
X185Y14437D01*
X171Y14457D01*
X154Y14475D01*
X136Y14491D01*
X130Y14495D01*
Y20739D01*
X1692Y22301D01*
X12551D01*
X12558Y22287D01*
X12573Y22267D01*
X12589Y22249D01*
X12607Y22233D01*
X12627Y22218D01*
X12649Y22207D01*
X12671Y22197D01*
X12695Y22190D01*
X12719Y22186D01*
X12743Y22185D01*
X12768Y22186D01*
X12792Y22190D01*
X12815Y22197D01*
X12838Y22207D01*
X12860Y22218D01*
X12880Y22233D01*
X12888Y22240D01*
X12914Y22249D01*
X12967D01*
X12993Y22240D01*
X13001Y22233D01*
X13021Y22218D01*
X13042Y22207D01*
X13065Y22197D01*
X13088Y22190D01*
X13113Y22186D01*
X13137Y22185D01*
X13161Y22186D01*
X13186Y22190D01*
X13209Y22197D01*
X13232Y22207D01*
X13253Y22218D01*
X13273Y22233D01*
X13281Y22240D01*
X13307Y22249D01*
X13360D01*
X13386Y22240D01*
X13395Y22233D01*
X13414Y22218D01*
X13436Y22207D01*
X13459Y22197D01*
X13482Y22190D01*
X13506Y22186D01*
X13531Y22185D01*
X13555Y22186D01*
X13579Y22190D01*
X13603Y22197D01*
X13626Y22207D01*
X13647Y22218D01*
X13667Y22233D01*
X13685Y22249D01*
X13702Y22267D01*
X13716Y22287D01*
X13723Y22301D01*
X20638D01*
X21034Y21905D01*
D02*
G37*
G36*
X15870Y19256D02*
X16059D01*
Y19156D01*
X15870D01*
Y19133D01*
X15743D01*
X15687Y19189D01*
Y19332D01*
X15870D01*
Y19256D01*
D02*
G37*
G36*
X19423Y19459D02*
Y19149D01*
X19349Y19119D01*
X18927Y19541D01*
X18957Y19615D01*
X19266D01*
X19423Y19459D01*
D02*
G37*
G36*
X17642Y17893D02*
X17611Y17862D01*
X17598Y17847D01*
X17587Y17831D01*
X17578Y17813D01*
X17572Y17795D01*
X17568Y17775D01*
X17567Y17756D01*
Y17740D01*
X17284D01*
X17282Y17742D01*
X17257Y17772D01*
X17237Y17820D01*
X17240Y17827D01*
X17247Y17851D01*
X17251Y17876D01*
X17252Y17900D01*
X17298Y17958D01*
X17316Y17971D01*
X17323Y17973D01*
X17609D01*
X17642Y17893D01*
D02*
G37*
G36*
X17076Y17565D02*
Y17324D01*
X17101D01*
X17103Y17244D01*
X16932Y17073D01*
X16915D01*
X16825Y17163D01*
X16855Y17237D01*
X16953D01*
Y17369D01*
X16764D01*
Y17469D01*
X16953D01*
Y17565D01*
X16998Y17600D01*
X17076Y17565D01*
D02*
G37*
G36*
X15772Y17579D02*
X15787Y17566D01*
X15803Y17555D01*
X15821Y17547D01*
X15839Y17541D01*
X15858Y17537D01*
X15863Y17536D01*
Y17237D01*
X16240D01*
X16240Y17237D01*
X16312Y17218D01*
X16313Y17210D01*
X16318Y17187D01*
X16325Y17164D01*
X16336Y17143D01*
X16349Y17123D01*
X16365Y17105D01*
X16580Y16890D01*
X16550Y16816D01*
X15864D01*
X15842Y16814D01*
X15820Y16811D01*
X15798Y16805D01*
X15778Y16796D01*
X15758Y16785D01*
X15748Y16778D01*
X15719Y16785D01*
X15689Y16804D01*
X15668Y16831D01*
Y17579D01*
X15742Y17609D01*
X15772Y17579D01*
D02*
G37*
G36*
X19176Y17186D02*
Y16855D01*
X18959Y16638D01*
X18885Y16669D01*
Y16835D01*
X18717D01*
Y16627D01*
X18617D01*
Y16835D01*
X18453D01*
Y16902D01*
X18451Y16925D01*
X18448Y16947D01*
X18442Y16968D01*
X18433Y16989D01*
X18422Y17008D01*
X18409Y17026D01*
X18394Y17043D01*
X18355Y17082D01*
X18386Y17156D01*
X18980D01*
X19000Y17158D01*
X19019Y17161D01*
X19038Y17168D01*
X19055Y17176D01*
X19071Y17187D01*
X19086Y17200D01*
X19102Y17216D01*
X19176Y17186D01*
D02*
G37*
G36*
X5103Y16769D02*
X5103D01*
X5118Y16753D01*
Y16751D01*
X5103Y16678D01*
X5103D01*
Y15720D01*
X4704D01*
Y16678D01*
X4704D01*
X4682Y16751D01*
Y16753D01*
X4697Y16769D01*
X4704D01*
Y17724D01*
X5103D01*
Y16769D01*
D02*
G37*
G36*
X4103D02*
X4103D01*
X4118Y16753D01*
Y16751D01*
X4103Y16678D01*
X4103D01*
Y15720D01*
X3704D01*
Y16678D01*
X3704D01*
X3682Y16751D01*
Y16753D01*
X3697Y16769D01*
X3704D01*
Y17724D01*
X4103D01*
Y16769D01*
D02*
G37*
G36*
X10103D02*
X10103D01*
X10118Y16753D01*
Y16751D01*
X10103Y16678D01*
X10103D01*
Y15720D01*
X10021D01*
X10000Y15719D01*
X9980Y15715D01*
X9967Y15711D01*
X9876D01*
X9863Y15715D01*
X9843Y15719D01*
X9822Y15720D01*
X9704D01*
Y16678D01*
X9704D01*
X9682Y16751D01*
Y16753D01*
X9697Y16769D01*
X9704D01*
Y17724D01*
X10103D01*
Y16769D01*
D02*
G37*
G36*
X10885Y15128D02*
X10703Y14946D01*
X10696Y14938D01*
X10688Y14931D01*
X10672Y14913D01*
X10658Y14893D01*
X10646Y14871D01*
X10636Y14849D01*
X10630Y14825D01*
X10625Y14801D01*
X10624Y14776D01*
Y12839D01*
X9358D01*
Y12888D01*
X8640D01*
Y14734D01*
X8905Y14999D01*
X8913Y14999D01*
X8938Y15000D01*
X8962Y15004D01*
X8986Y15011D01*
X9009Y15021D01*
X9031Y15033D01*
X9051Y15047D01*
X9069Y15063D01*
X9086Y15082D01*
X9100Y15102D01*
X9112Y15124D01*
X9121Y15146D01*
X9128Y15170D01*
X9132Y15195D01*
X9134Y15219D01*
X9132Y15244D01*
X9128Y15268D01*
X9121Y15292D01*
X9112Y15315D01*
X9108Y15322D01*
X9125Y15368D01*
X9152Y15402D01*
X9777D01*
X9790Y15397D01*
X9811Y15393D01*
X9832Y15392D01*
X10011D01*
X10032Y15393D01*
X10052Y15397D01*
X10065Y15402D01*
X10612D01*
X10885Y15128D01*
D02*
G37*
G36*
X11103Y16769D02*
X11106D01*
X11121Y16753D01*
Y16751D01*
X11103Y16678D01*
X11103D01*
Y15615D01*
X11205D01*
Y15364D01*
X11131Y15333D01*
X10791Y15674D01*
X10775Y15687D01*
X10758Y15699D01*
X10739Y15708D01*
X10719Y15715D01*
X10704Y15718D01*
Y16678D01*
X10704D01*
X10682Y16751D01*
Y16753D01*
X10697Y16769D01*
X10704D01*
Y17724D01*
X11103D01*
Y16769D01*
D02*
G37*
G36*
X3103D02*
X3103D01*
X3118Y16753D01*
Y16751D01*
X3103Y16678D01*
X3103D01*
Y15720D01*
X2680D01*
X2660Y15719D01*
X2639Y15715D01*
X2619Y15708D01*
X2601Y15699D01*
X2583Y15687D01*
X2568Y15674D01*
X2277Y15383D01*
X2263Y15367D01*
X2252Y15350D01*
X2243Y15331D01*
X2239Y15321D01*
X1994D01*
X1970Y15391D01*
Y16795D01*
X2900Y17724D01*
X3103D01*
Y16769D01*
D02*
G37*
G36*
X16247Y14991D02*
X16395Y14991D01*
X16426Y14962D01*
X16444Y14946D01*
X16464Y14932D01*
X16486Y14920D01*
X16509Y14911D01*
X16518Y14908D01*
X16525Y14867D01*
X16518Y14826D01*
X16509Y14823D01*
X16486Y14814D01*
X16464Y14802D01*
X16444Y14788D01*
X16426Y14771D01*
X16422Y14766D01*
X15759D01*
X15668Y14857D01*
Y14991D01*
X15763D01*
Y15209D01*
X15863D01*
Y14991D01*
X16147D01*
Y15209D01*
X16247D01*
Y14991D01*
D02*
G37*
G36*
X6492Y15393D02*
X6515Y15369D01*
X6542Y15322D01*
X6541Y15315D01*
X6543Y15290D01*
X6547Y15266D01*
X6554Y15242D01*
X6563Y15219D01*
X6575Y15198D01*
X6589Y15178D01*
X6606Y15159D01*
X6624Y15143D01*
X6643Y15130D01*
X6644Y15121D01*
X6651Y15103D01*
X6659Y15085D01*
X6670Y15069D01*
X6683Y15054D01*
X6695Y15042D01*
X6693Y15034D01*
X6654Y14972D01*
X6653Y14971D01*
X6633Y14972D01*
X6409D01*
Y15267D01*
X5678D01*
Y14359D01*
X6409D01*
Y14654D01*
X6567D01*
X7165Y14055D01*
X7128Y13980D01*
X7127Y13980D01*
X7093Y13981D01*
X7058Y13980D01*
X7024Y13975D01*
X6990Y13968D01*
X6957Y13957D01*
X6925Y13944D01*
X6895Y13928D01*
X6866Y13910D01*
X6838Y13889D01*
X6821Y13873D01*
X6409D01*
Y14168D01*
X5678D01*
Y13259D01*
X6409D01*
Y13554D01*
X6698D01*
X6698Y13551D01*
X6703Y13517D01*
X6710Y13483D01*
X6721Y13450D01*
X6734Y13418D01*
X6750Y13388D01*
X6768Y13358D01*
X6789Y13331D01*
X6813Y13306D01*
X6838Y13282D01*
X6866Y13261D01*
X6895Y13243D01*
X6925Y13227D01*
X6931Y13224D01*
X6915Y13144D01*
X4397D01*
X3758Y13783D01*
X3762Y13791D01*
X3772Y13824D01*
X3779Y13857D01*
X3784Y13892D01*
X3785Y13926D01*
X3784Y13960D01*
X3779Y13995D01*
X3772Y14028D01*
X3762Y14061D01*
X3748Y14093D01*
X3732Y14124D01*
X3714Y14153D01*
X3693Y14180D01*
X3670Y14206D01*
X3662Y14213D01*
X3671Y14270D01*
X3688Y14296D01*
X3695Y14298D01*
X3715Y14304D01*
X3734Y14314D01*
X3751Y14325D01*
X3767Y14339D01*
X4081Y14654D01*
X4595D01*
Y14359D01*
X5326D01*
Y15267D01*
X4595D01*
Y14972D01*
X4015D01*
X3995Y14971D01*
X3974Y14967D01*
X3954Y14960D01*
X3936Y14951D01*
X3918Y14939D01*
X3903Y14926D01*
X3863Y14886D01*
X3785Y14921D01*
X3785Y14926D01*
X3784Y14960D01*
X3779Y14995D01*
X3772Y15028D01*
X3762Y15061D01*
X3748Y15093D01*
X3732Y15124D01*
X3714Y15153D01*
X3693Y15180D01*
X3670Y15206D01*
X3644Y15229D01*
X3617Y15250D01*
X3588Y15269D01*
X3557Y15285D01*
X3525Y15298D01*
X3492Y15308D01*
X3458Y15316D01*
X3440Y15318D01*
Y14926D01*
X3390D01*
Y14876D01*
X2998D01*
X3000Y14857D01*
X3008Y14824D01*
X3018Y14791D01*
X3031Y14759D01*
X3047Y14728D01*
X3066Y14699D01*
X3072Y14691D01*
X3051Y14630D01*
X3034Y14611D01*
X2915D01*
X2895Y14610D01*
X2874Y14606D01*
X2865Y14602D01*
X2819Y14622D01*
X2799Y14635D01*
X2785Y14652D01*
Y15321D01*
X2815Y15389D01*
X2824Y15402D01*
X6474D01*
X6492Y15393D01*
D02*
G37*
G36*
X8702Y15368D02*
X8718Y15322D01*
X8715Y15315D01*
X8705Y15292D01*
X8698Y15268D01*
X8694Y15244D01*
X8693Y15219D01*
X8693Y15211D01*
X8399Y14916D01*
X8374Y14917D01*
X8348Y14925D01*
X8316Y14946D01*
X8314Y14959D01*
X8307Y14977D01*
X8299Y14995D01*
X8288Y15011D01*
X8275Y15026D01*
X8100Y15201D01*
X8100Y15209D01*
X8099Y15234D01*
X8095Y15258D01*
X8088Y15282D01*
X8079Y15305D01*
X8069Y15322D01*
X8076Y15345D01*
X8098Y15390D01*
X8111Y15402D01*
X8675D01*
X8702Y15368D01*
D02*
G37*
G36*
X17672Y16409D02*
X17681D01*
Y15377D01*
X17682Y15355D01*
X17686Y15333D01*
X17692Y15311D01*
X17701Y15291D01*
X17711Y15271D01*
X17711Y15271D01*
X17700Y15259D01*
X17692Y15245D01*
X17686Y15231D01*
X17682Y15215D01*
X17681Y15200D01*
Y14776D01*
X17672Y14766D01*
X17494D01*
X17475Y14765D01*
X17455Y14761D01*
X17437Y14755D01*
X17419Y14746D01*
X17403Y14736D01*
X17388Y14723D01*
X17225Y14559D01*
X17207Y14561D01*
X17132Y14592D01*
X17134Y14617D01*
X17132Y14641D01*
X17128Y14666D01*
X17122Y14689D01*
X17112Y14712D01*
X17100Y14733D01*
X17086Y14753D01*
X17070Y14771D01*
X17052Y14788D01*
X17032Y14802D01*
X17010Y14814D01*
X16988Y14823D01*
X16978Y14826D01*
X16971Y14867D01*
X16978Y14908D01*
X16988Y14911D01*
X17010Y14920D01*
X17032Y14932D01*
X17052Y14946D01*
X17070Y14962D01*
X17086Y14981D01*
X17100Y15001D01*
X17112Y15022D01*
X17122Y15045D01*
X17128Y15067D01*
X16748D01*
Y15167D01*
X17128D01*
X17122Y15189D01*
X17112Y15212D01*
X17100Y15233D01*
X17086Y15253D01*
X17070Y15271D01*
X17052Y15288D01*
X17032Y15302D01*
X17020Y15308D01*
X17004Y15355D01*
X16998Y15386D01*
X17001Y15402D01*
X17021Y15426D01*
X17117D01*
X17139Y15427D01*
X17161Y15431D01*
X17182Y15437D01*
X17203Y15445D01*
X17222Y15456D01*
X17241Y15469D01*
X17257Y15484D01*
X17361Y15588D01*
X17376Y15604D01*
X17389Y15623D01*
X17400Y15642D01*
X17408Y15663D01*
X17414Y15684D01*
X17418Y15706D01*
X17419Y15728D01*
Y16213D01*
X17418Y16236D01*
X17414Y16258D01*
X17408Y16279D01*
X17400Y16300D01*
X17389Y16319D01*
X17382Y16329D01*
X17390Y16361D01*
X17418Y16409D01*
X17672D01*
Y16409D01*
D02*
G37*
G36*
X7662Y15390D02*
X7684Y15345D01*
X7690Y15322D01*
X7681Y15305D01*
X7672Y15282D01*
X7665Y15258D01*
X7661Y15234D01*
X7659Y15209D01*
X7661Y15185D01*
X7665Y15160D01*
X7672Y15137D01*
X7681Y15114D01*
X7693Y15092D01*
X7708Y15072D01*
X7724Y15054D01*
X7742Y15037D01*
X7763Y15023D01*
X7784Y15011D01*
X7807Y15001D01*
X7831Y14995D01*
X7855Y14990D01*
X7880Y14989D01*
X7888Y14990D01*
X8020Y14858D01*
Y14530D01*
X7946Y14500D01*
X7279Y15167D01*
X7288Y15178D01*
X7303Y15198D01*
X7315Y15219D01*
X7324Y15242D01*
X7331Y15266D01*
X7335Y15290D01*
X7337Y15315D01*
X7336Y15322D01*
X7363Y15369D01*
X7386Y15393D01*
X7403Y15402D01*
X7649D01*
X7662Y15390D01*
D02*
G37*
G36*
X21870Y21069D02*
Y16623D01*
X21871Y16606D01*
X21874Y16589D01*
X21880Y16573D01*
X21887Y16558D01*
X21897Y16544D01*
X21908Y16531D01*
X23177Y15262D01*
Y14500D01*
X23164Y14491D01*
X23146Y14475D01*
X23129Y14457D01*
X23115Y14437D01*
X23046Y14476D01*
X23052Y14500D01*
X23062Y14555D01*
X23069Y14611D01*
X23074Y14667D01*
X23075Y14723D01*
X23074Y14779D01*
X23069Y14836D01*
X23062Y14891D01*
X23052Y14947D01*
X23039Y15002D01*
X23023Y15055D01*
X23004Y15109D01*
X22982Y15161D01*
X22958Y15211D01*
X22931Y15261D01*
X22902Y15309D01*
X22870Y15355D01*
X22836Y15400D01*
X22799Y15443D01*
X22760Y15484D01*
X22719Y15522D01*
X22677Y15559D01*
X22632Y15593D01*
X22586Y15625D01*
X22538Y15654D01*
X22488Y15681D01*
X22437Y15706D01*
X22385Y15727D01*
X22332Y15746D01*
X22278Y15762D01*
X22224Y15775D01*
X22168Y15785D01*
X22112Y15793D01*
X22056Y15797D01*
X22000Y15798D01*
X21944Y15797D01*
X21888Y15793D01*
X21832Y15785D01*
X21776Y15775D01*
X21722Y15762D01*
X21668Y15746D01*
X21615Y15727D01*
X21563Y15706D01*
X21512Y15681D01*
X21462Y15654D01*
X21414Y15625D01*
X21368Y15593D01*
X21323Y15559D01*
X21281Y15522D01*
X21240Y15484D01*
X21201Y15443D01*
X21164Y15400D01*
X21130Y15355D01*
X21098Y15309D01*
X21069Y15261D01*
X21042Y15211D01*
X21018Y15161D01*
X20996Y15109D01*
X20977Y15055D01*
X20961Y15002D01*
X20948Y14947D01*
X20938Y14891D01*
X20931Y14836D01*
X20926Y14779D01*
X20925Y14723D01*
X20926Y14667D01*
X20931Y14611D01*
X20938Y14555D01*
X20948Y14500D01*
X20961Y14445D01*
X20977Y14391D01*
X20996Y14338D01*
X21018Y14286D01*
X21042Y14235D01*
X21069Y14186D01*
X21098Y14138D01*
X21130Y14091D01*
X21164Y14047D01*
X21201Y14004D01*
X21240Y13963D01*
X21281Y13924D01*
X21323Y13888D01*
X21368Y13853D01*
X21414Y13821D01*
X21462Y13792D01*
X21512Y13765D01*
X21563Y13741D01*
X21615Y13719D01*
X21668Y13701D01*
X21722Y13685D01*
X21776Y13671D01*
X21832Y13661D01*
X21888Y13654D01*
X21944Y13649D01*
X22000Y13648D01*
X22056Y13649D01*
X22112Y13654D01*
X22168Y13661D01*
X22224Y13671D01*
X22278Y13685D01*
X22332Y13701D01*
X22385Y13719D01*
X22437Y13741D01*
X22488Y13765D01*
X22538Y13792D01*
X22586Y13821D01*
X22632Y13853D01*
X22677Y13888D01*
X22719Y13924D01*
X22760Y13963D01*
X22799Y14004D01*
X22836Y14047D01*
X22870Y14091D01*
X22902Y14138D01*
X22931Y14186D01*
X22958Y14235D01*
X22982Y14286D01*
X23004Y14338D01*
X23082Y14320D01*
X23083Y14296D01*
X23087Y14272D01*
X23094Y14248D01*
X23103Y14226D01*
X23115Y14204D01*
X23129Y14184D01*
X23138Y14174D01*
X23146Y14153D01*
Y14095D01*
X23138Y14073D01*
X23129Y14063D01*
X23115Y14043D01*
X23103Y14022D01*
X23094Y13999D01*
X23087Y13975D01*
X23083Y13951D01*
X23082Y13927D01*
X23083Y13902D01*
X23087Y13878D01*
X23094Y13855D01*
X23103Y13832D01*
X23115Y13811D01*
X23129Y13791D01*
X23138Y13780D01*
X23146Y13759D01*
Y13701D01*
X23138Y13680D01*
X23129Y13669D01*
X23115Y13649D01*
X23103Y13628D01*
X23094Y13605D01*
X23087Y13582D01*
X23083Y13557D01*
X23082Y13533D01*
X23083Y13509D01*
X23087Y13484D01*
X23094Y13461D01*
X23103Y13438D01*
X23115Y13417D01*
X23129Y13397D01*
X23146Y13379D01*
X23164Y13362D01*
X23177Y13353D01*
Y13073D01*
X22510D01*
Y13241D01*
X22509Y13269D01*
X22504Y13297D01*
X22496Y13324D01*
X22485Y13350D01*
X22472Y13374D01*
X22456Y13397D01*
X22437Y13418D01*
X22416Y13437D01*
X22393Y13453D01*
X22368Y13467D01*
X22343Y13477D01*
X22316Y13485D01*
X22288Y13490D01*
X22260Y13491D01*
X22232Y13490D01*
X22204Y13485D01*
X22177Y13477D01*
X22151Y13467D01*
X22127Y13453D01*
X22104Y13437D01*
X22083Y13418D01*
X22064Y13397D01*
X22048Y13374D01*
X22034Y13350D01*
X22023Y13324D01*
X22016Y13297D01*
X22011Y13269D01*
X22009Y13241D01*
Y13073D01*
X21575D01*
Y13073D01*
X21525D01*
Y13073D01*
X20844D01*
Y13203D01*
X20845Y13206D01*
X20846Y13231D01*
X20845Y13256D01*
X20841Y13280D01*
X20834Y13304D01*
X20825Y13327D01*
X20813Y13348D01*
X20798Y13369D01*
X20782Y13387D01*
X20763Y13403D01*
X20743Y13418D01*
X20722Y13430D01*
X20699Y13439D01*
X20675Y13446D01*
X20651Y13450D01*
X20626Y13452D01*
X20601Y13450D01*
X20577Y13446D01*
X20553Y13439D01*
X20530Y13430D01*
X20509Y13418D01*
X20489Y13403D01*
X20470Y13387D01*
X20454Y13369D01*
X20439Y13348D01*
X20427Y13327D01*
X20418Y13304D01*
X20411Y13280D01*
X20407Y13256D01*
X20406Y13231D01*
X20407Y13206D01*
X20408Y13203D01*
Y13073D01*
X20026D01*
X19996Y13147D01*
X20130Y13282D01*
X20143Y13297D01*
X20154Y13313D01*
X20163Y13330D01*
X20169Y13349D01*
X20173Y13368D01*
X20174Y13388D01*
Y18985D01*
X20804Y19615D01*
X20848D01*
X20853Y19615D01*
X21301D01*
Y20678D01*
X21301D01*
X21282Y20751D01*
Y20753D01*
X21297Y20769D01*
X21301D01*
Y21534D01*
X21375Y21564D01*
X21870Y21069D01*
D02*
G37*
G36*
X19689Y15720D02*
Y13765D01*
X19292Y13368D01*
X19183D01*
X19177Y13372D01*
X19156Y13384D01*
X19133Y13393D01*
X19110Y13400D01*
X19085Y13404D01*
X19061Y13405D01*
X18726D01*
X18702Y13404D01*
X18678Y13400D01*
X18654Y13393D01*
X18632Y13384D01*
X18610Y13372D01*
X18590Y13358D01*
X18572Y13341D01*
X18556Y13323D01*
X18541Y13303D01*
X18530Y13282D01*
X18520Y13259D01*
X18513Y13236D01*
X18509Y13211D01*
X18508Y13187D01*
X18509Y13163D01*
X18513Y13138D01*
X18520Y13115D01*
X18530Y13092D01*
X18541Y13071D01*
X18556Y13051D01*
X18572Y13033D01*
X18590Y13016D01*
X18610Y13002D01*
X18632Y12990D01*
X18654Y12981D01*
X18663Y12978D01*
X18671Y12937D01*
X18663Y12896D01*
X18654Y12893D01*
X18632Y12884D01*
X18610Y12872D01*
X18590Y12858D01*
X18572Y12841D01*
X18556Y12823D01*
X18541Y12803D01*
X18530Y12782D01*
X18520Y12759D01*
X18513Y12736D01*
X18509Y12711D01*
X18508Y12687D01*
X18509Y12663D01*
X18513Y12638D01*
X18520Y12615D01*
X18530Y12592D01*
X18541Y12571D01*
X18556Y12551D01*
X18572Y12533D01*
X18590Y12516D01*
X18610Y12502D01*
X18632Y12490D01*
X18654Y12481D01*
X18663Y12478D01*
X18651Y12398D01*
X18433D01*
X18020Y12811D01*
Y13485D01*
X18039D01*
Y13495D01*
X18558D01*
Y13704D01*
Y13912D01*
X18413D01*
Y13999D01*
X18412Y14021D01*
X18408Y14043D01*
X18402Y14064D01*
X18394Y14085D01*
X18383Y14105D01*
X18370Y14123D01*
X18355Y14139D01*
X18237Y14257D01*
X18220Y14272D01*
X18202Y14285D01*
X18183Y14296D01*
X18162Y14305D01*
X18141Y14311D01*
X18119Y14314D01*
X18096Y14316D01*
X17604D01*
X17582Y14314D01*
X17560Y14311D01*
X17539Y14305D01*
X17518Y14296D01*
X17499Y14285D01*
X17480Y14272D01*
X17464Y14257D01*
X17316Y14110D01*
X17301Y14093D01*
X17288Y14075D01*
X17278Y14056D01*
X17269Y14035D01*
X17263Y14014D01*
X17259Y13992D01*
X17258Y13969D01*
Y13912D01*
X16825D01*
Y13902D01*
X15514D01*
X15513Y13903D01*
X15491Y13915D01*
X15469Y13924D01*
X15445Y13931D01*
X15420Y13935D01*
X15396Y13937D01*
X15371Y13935D01*
X15347Y13931D01*
X15323Y13924D01*
X15300Y13915D01*
X15294Y13912D01*
X15246Y13930D01*
X15214Y13956D01*
Y14233D01*
X15294Y14266D01*
X15491Y14070D01*
X15505Y14057D01*
X15522Y14046D01*
X15539Y14038D01*
X15558Y14032D01*
X15577Y14028D01*
X15596Y14026D01*
X17053D01*
X17073Y14028D01*
X17092Y14032D01*
X17110Y14038D01*
X17128Y14046D01*
X17144Y14057D01*
X17159Y14070D01*
X17556Y14467D01*
X18567D01*
X18572Y14462D01*
X18590Y14446D01*
X18610Y14432D01*
X18632Y14420D01*
X18654Y14411D01*
X18678Y14404D01*
X18702Y14400D01*
X18726Y14398D01*
X19061D01*
X19085Y14400D01*
X19110Y14404D01*
X19133Y14411D01*
X19156Y14420D01*
X19177Y14432D01*
X19197Y14446D01*
X19215Y14462D01*
X19232Y14481D01*
X19246Y14501D01*
X19258Y14522D01*
X19267Y14545D01*
X19274Y14568D01*
X19278Y14592D01*
X19279Y14617D01*
X19278Y14641D01*
X19274Y14666D01*
X19267Y14689D01*
X19258Y14712D01*
X19246Y14733D01*
X19232Y14753D01*
X19215Y14771D01*
X19197Y14788D01*
X19177Y14802D01*
X19156Y14814D01*
X19133Y14823D01*
X19124Y14826D01*
X19116Y14867D01*
X19124Y14908D01*
X19133Y14911D01*
X19156Y14920D01*
X19177Y14932D01*
X19197Y14946D01*
X19215Y14962D01*
X19232Y14981D01*
X19246Y15001D01*
X19258Y15022D01*
X19267Y15045D01*
X19274Y15068D01*
X19278Y15092D01*
X19279Y15117D01*
X19278Y15141D01*
X19274Y15166D01*
X19267Y15189D01*
X19258Y15212D01*
X19246Y15233D01*
X19232Y15253D01*
X19215Y15271D01*
X19197Y15288D01*
X19177Y15302D01*
X19156Y15314D01*
X19133Y15323D01*
X19124Y15326D01*
X19116Y15367D01*
X19124Y15408D01*
X19133Y15411D01*
X19156Y15420D01*
X19177Y15432D01*
X19197Y15446D01*
X19215Y15462D01*
X19225Y15473D01*
X19268D01*
X19287Y15475D01*
X19306Y15478D01*
X19325Y15485D01*
X19342Y15493D01*
X19359Y15504D01*
X19373Y15517D01*
X19609Y15753D01*
X19689Y15720D01*
D02*
G37*
G36*
X4218Y12872D02*
X4234Y12859D01*
X4251Y12847D01*
X4270Y12838D01*
X4289Y12831D01*
X4310Y12827D01*
X4331Y12826D01*
X5575D01*
Y12730D01*
X5823D01*
Y12680D01*
X5873D01*
Y12422D01*
X6068D01*
X6115Y12407D01*
X6132Y12378D01*
X6107Y12298D01*
X6001D01*
Y12099D01*
X5951D01*
Y12049D01*
X5733D01*
Y11993D01*
X4297D01*
X4276Y11991D01*
X4256Y11987D01*
X4236Y11981D01*
X4218Y11971D01*
X4200Y11960D01*
X4185Y11946D01*
X3533Y11295D01*
X3525Y11298D01*
X3492Y11308D01*
X3458Y11316D01*
X3424Y11320D01*
X3390Y11322D01*
X3355Y11320D01*
X3321Y11316D01*
X3287Y11308D01*
X3254Y11298D01*
X3223Y11285D01*
X3192Y11269D01*
X3163Y11250D01*
X3135Y11229D01*
X3110Y11206D01*
X3087Y11180D01*
X3066Y11153D01*
X3047Y11124D01*
X3031Y11093D01*
X3018Y11061D01*
X3008Y11028D01*
X3000Y10995D01*
X2996Y10960D01*
X2994Y10926D01*
X2996Y10891D01*
X3000Y10857D01*
X3008Y10824D01*
X3018Y10791D01*
X3031Y10759D01*
X3047Y10728D01*
X3066Y10699D01*
X3076Y10685D01*
X3064Y10640D01*
X3039Y10605D01*
X2936D01*
X2758Y10783D01*
X2762Y10791D01*
X2772Y10824D01*
X2779Y10857D01*
X2784Y10891D01*
X2785Y10926D01*
X2784Y10960D01*
X2779Y10995D01*
X2772Y11028D01*
X2762Y11061D01*
X2748Y11093D01*
X2732Y11124D01*
X2714Y11153D01*
X2693Y11180D01*
X2670Y11206D01*
X2644Y11229D01*
X2617Y11250D01*
X2588Y11269D01*
X2557Y11285D01*
X2525Y11298D01*
X2492Y11308D01*
X2458Y11316D01*
X2424Y11320D01*
X2390Y11322D01*
X2355Y11320D01*
X2321Y11316D01*
X2287Y11308D01*
X2254Y11298D01*
X2223Y11285D01*
X2192Y11269D01*
X2163Y11250D01*
X2135Y11229D01*
X2110Y11206D01*
X2087Y11180D01*
X2066Y11153D01*
X2047Y11124D01*
X2031Y11093D01*
X2018Y11061D01*
X2008Y11028D01*
X2000Y10995D01*
X1996Y10960D01*
X1994Y10926D01*
X1996Y10891D01*
X2000Y10857D01*
X2008Y10824D01*
X2018Y10791D01*
X2031Y10759D01*
X2047Y10728D01*
X2066Y10699D01*
X2087Y10672D01*
X2110Y10646D01*
X2135Y10623D01*
X2163Y10602D01*
X2192Y10583D01*
X2223Y10567D01*
X2254Y10554D01*
X2287Y10544D01*
X2321Y10536D01*
X2355Y10532D01*
X2390Y10530D01*
X2424Y10532D01*
X2458Y10536D01*
X2492Y10544D01*
X2525Y10554D01*
X2533Y10557D01*
X2757Y10333D01*
X2773Y10319D01*
X2790Y10308D01*
X2809Y10298D01*
X2829Y10292D01*
X2849Y10288D01*
X2870Y10286D01*
X3079D01*
X3111Y10206D01*
X3110Y10206D01*
X3087Y10180D01*
X3066Y10153D01*
X3047Y10124D01*
X3031Y10093D01*
X3018Y10061D01*
X3008Y10028D01*
X3000Y9995D01*
X2996Y9960D01*
X2994Y9926D01*
X2996Y9891D01*
X3000Y9857D01*
X3008Y9824D01*
X3018Y9791D01*
X3031Y9759D01*
X3047Y9728D01*
X3066Y9699D01*
X3087Y9672D01*
X3110Y9646D01*
X3135Y9623D01*
X3163Y9602D01*
X3192Y9583D01*
X3223Y9567D01*
X3254Y9554D01*
X3287Y9544D01*
X3321Y9536D01*
X3355Y9532D01*
X3390Y9530D01*
X3424Y9532D01*
X3458Y9536D01*
X3492Y9544D01*
X3525Y9554D01*
X3557Y9567D01*
X3588Y9583D01*
X3617Y9602D01*
X3644Y9623D01*
X3670Y9646D01*
X3693Y9672D01*
X3714Y9699D01*
X3732Y9728D01*
X3748Y9759D01*
X3762Y9791D01*
X3772Y9824D01*
X3779Y9857D01*
X3784Y9891D01*
X3785Y9926D01*
X3784Y9960D01*
X3779Y9995D01*
X3772Y10028D01*
X3762Y10061D01*
X3748Y10093D01*
X3732Y10124D01*
X3714Y10153D01*
X3693Y10180D01*
X3670Y10206D01*
X3669Y10206D01*
X3700Y10286D01*
X3868D01*
X4179Y9976D01*
X4194Y9962D01*
X4212Y9951D01*
X4230Y9941D01*
X4250Y9935D01*
X4271Y9931D01*
X4291Y9929D01*
X4595D01*
Y9595D01*
X5326D01*
Y10504D01*
X4595D01*
Y10248D01*
X4357D01*
X4047Y10558D01*
X4031Y10572D01*
X4014Y10584D01*
X3995Y10593D01*
X3976Y10600D01*
X3955Y10604D01*
X3934Y10605D01*
X3740D01*
X3716Y10640D01*
X3703Y10685D01*
X3714Y10699D01*
X3732Y10728D01*
X3748Y10759D01*
X3762Y10791D01*
X3772Y10824D01*
X3779Y10857D01*
X3784Y10891D01*
X3785Y10926D01*
X3784Y10960D01*
X3779Y10995D01*
X3772Y11028D01*
X3762Y11061D01*
X3758Y11069D01*
X4363Y11674D01*
X6755D01*
X6786Y11594D01*
X6783Y11592D01*
X6760Y11566D01*
X6739Y11539D01*
X6720Y11510D01*
X6704Y11479D01*
X6691Y11447D01*
X6681Y11414D01*
X6673Y11381D01*
X6669Y11346D01*
X6667Y11312D01*
X6589Y11274D01*
X6409D01*
Y11567D01*
X5678D01*
Y10658D01*
X6409D01*
Y10956D01*
X6876D01*
X6890Y10956D01*
X6896Y10953D01*
X6928Y10940D01*
X6961Y10930D01*
X6994Y10922D01*
X7024Y10845D01*
X7024Y10838D01*
X6689Y10504D01*
X6250D01*
X6245Y10504D01*
X5678D01*
Y9595D01*
X6409D01*
Y9764D01*
X6485Y9789D01*
X6498Y9757D01*
X6514Y9726D01*
X6532Y9697D01*
X6553Y9670D01*
X6577Y9644D01*
X6602Y9621D01*
X6629Y9600D01*
X6658Y9581D01*
X6689Y9565D01*
X6721Y9552D01*
X6754Y9542D01*
X6788Y9534D01*
X6822Y9530D01*
X6856Y9528D01*
X6891Y9530D01*
X6925Y9534D01*
X6959Y9542D01*
X6992Y9552D01*
X7024Y9565D01*
X7054Y9581D01*
X7083Y9600D01*
X7111Y9621D01*
X7136Y9644D01*
X7159Y9670D01*
X7180Y9697D01*
X7199Y9726D01*
X7215Y9757D01*
X7228Y9789D01*
X7238Y9822D01*
X7246Y9855D01*
X7250Y9890D01*
X7252Y9924D01*
X7250Y9959D01*
X7246Y9993D01*
X7238Y10026D01*
X7228Y10059D01*
X7215Y10091D01*
X7199Y10122D01*
X7188Y10139D01*
X7267Y10217D01*
X7347Y10184D01*
Y10102D01*
X7545D01*
Y10052D01*
X7595D01*
Y9834D01*
X7775D01*
Y9677D01*
X7763Y9666D01*
X7747Y9648D01*
X7733Y9628D01*
X7721Y9606D01*
X7711Y9583D01*
X7704Y9560D01*
X7700Y9535D01*
X7699Y9511D01*
X7700Y9486D01*
X7701Y9484D01*
X7665Y9425D01*
X7648Y9409D01*
X7639Y9404D01*
X2614D01*
X2593Y9403D01*
X2573Y9399D01*
X2553Y9392D01*
X2534Y9383D01*
X2517Y9371D01*
X2501Y9358D01*
X2324Y9180D01*
X2311Y9165D01*
X2299Y9147D01*
X2290Y9129D01*
X2283Y9109D01*
X2279Y9089D01*
X2278Y9068D01*
Y8994D01*
X1994D01*
Y8204D01*
X2687D01*
X2721Y8124D01*
X2555Y7959D01*
X2525Y7971D01*
X2492Y7981D01*
X2458Y7989D01*
X2424Y7993D01*
X2390Y7995D01*
X2355Y7993D01*
X2321Y7989D01*
X2287Y7981D01*
X2254Y7971D01*
X2223Y7958D01*
X2192Y7942D01*
X2163Y7923D01*
X2135Y7902D01*
X2110Y7879D01*
X2087Y7854D01*
X2066Y7826D01*
X2047Y7797D01*
X2031Y7766D01*
X2018Y7735D01*
X2013Y7720D01*
X1966Y7699D01*
X1924Y7695D01*
X1557Y8063D01*
Y12506D01*
X1631Y12536D01*
X1761Y12406D01*
X1776Y12393D01*
X1792Y12382D01*
X1810Y12373D01*
X1828Y12367D01*
X1848Y12363D01*
X1867Y12362D01*
X2201D01*
X2223Y12285D01*
X2192Y12269D01*
X2163Y12250D01*
X2135Y12229D01*
X2110Y12206D01*
X2087Y12180D01*
X2066Y12153D01*
X2047Y12124D01*
X2031Y12093D01*
X2018Y12061D01*
X2008Y12028D01*
X2000Y11995D01*
X1996Y11960D01*
X1994Y11926D01*
X1996Y11891D01*
X2000Y11857D01*
X2008Y11824D01*
X2018Y11791D01*
X2031Y11759D01*
X2047Y11728D01*
X2066Y11699D01*
X2087Y11672D01*
X2110Y11646D01*
X2135Y11623D01*
X2163Y11602D01*
X2192Y11583D01*
X2223Y11567D01*
X2254Y11554D01*
X2287Y11544D01*
X2321Y11536D01*
X2355Y11532D01*
X2390Y11530D01*
X2424Y11532D01*
X2458Y11536D01*
X2492Y11544D01*
X2525Y11554D01*
X2557Y11567D01*
X2588Y11583D01*
X2617Y11602D01*
X2644Y11623D01*
X2670Y11646D01*
X2693Y11672D01*
X2714Y11699D01*
X2732Y11728D01*
X2748Y11759D01*
X2762Y11791D01*
X2772Y11824D01*
X2779Y11857D01*
X2784Y11891D01*
X2785Y11926D01*
X2784Y11960D01*
X2779Y11995D01*
X2772Y12028D01*
X2762Y12061D01*
X2748Y12093D01*
X2732Y12124D01*
X2714Y12153D01*
X2693Y12180D01*
X2670Y12206D01*
X2644Y12229D01*
X2617Y12250D01*
X2588Y12269D01*
X2557Y12285D01*
X2579Y12362D01*
X2975D01*
X2995Y12363D01*
X3014Y12367D01*
X3033Y12373D01*
X3050Y12382D01*
X3066Y12393D01*
X3081Y12406D01*
X3237Y12562D01*
X3254Y12554D01*
X3287Y12544D01*
X3321Y12536D01*
X3355Y12532D01*
X3390Y12530D01*
X3424Y12532D01*
X3458Y12536D01*
X3492Y12544D01*
X3525Y12554D01*
X3557Y12567D01*
X3588Y12583D01*
X3617Y12602D01*
X3644Y12623D01*
X3670Y12646D01*
X3712Y12672D01*
X3741Y12673D01*
X3755Y12664D01*
X3769Y12658D01*
X3785Y12655D01*
X3800Y12653D01*
X3816Y12655D01*
X3831Y12658D01*
X3846Y12664D01*
X3859Y12673D01*
X3871Y12683D01*
X4139Y12951D01*
X4218Y12872D01*
D02*
G37*
G36*
X6753Y12410D02*
X6769Y12396D01*
X6786Y12384D01*
X6805Y12375D01*
X6825Y12368D01*
X6845Y12364D01*
X6855Y12364D01*
Y11993D01*
X6633D01*
X6627Y11996D01*
X6608Y12014D01*
X6573Y12073D01*
X6574Y12075D01*
X6575Y12099D01*
Y12312D01*
X6579Y12326D01*
X6583Y12350D01*
X6585Y12375D01*
X6641Y12424D01*
X6659Y12432D01*
X6731D01*
X6753Y12410D01*
D02*
G37*
G36*
X15300Y13518D02*
X15323Y13508D01*
X15347Y13502D01*
X15371Y13497D01*
X15396Y13496D01*
X15420Y13497D01*
X15445Y13502D01*
X15456Y13505D01*
X16790D01*
X16803Y13485D01*
X16761Y13405D01*
X16581D01*
X16556Y13404D01*
X16532Y13400D01*
X16509Y13393D01*
X16503Y13391D01*
X16010D01*
X15988Y13390D01*
X15966Y13386D01*
X15945Y13380D01*
X15924Y13371D01*
X15904Y13360D01*
X15886Y13347D01*
X15870Y13333D01*
X15692Y13155D01*
X15677Y13138D01*
X15664Y13120D01*
X15654Y13101D01*
X15645Y13080D01*
X15639Y13059D01*
X15635Y13037D01*
X15634Y13015D01*
Y12878D01*
X15624D01*
Y12442D01*
Y12317D01*
X15833D01*
Y12267D01*
X15883D01*
Y12048D01*
X16157D01*
Y12267D01*
X16257D01*
Y12048D01*
X16405D01*
X16444Y12016D01*
X16464Y12002D01*
X16486Y11990D01*
X16509Y11981D01*
X16518Y11978D01*
X16525Y11937D01*
X16518Y11896D01*
X16509Y11893D01*
X16486Y11884D01*
X16464Y11872D01*
X16444Y11858D01*
X16426Y11842D01*
X15485D01*
X15214Y12112D01*
Y13477D01*
X15246Y13503D01*
X15294Y13521D01*
X15300Y13518D01*
D02*
G37*
G36*
X9807Y11732D02*
X9773Y11698D01*
X9427D01*
X9358Y11724D01*
Y11872D01*
X9140D01*
Y11972D01*
X9358D01*
Y12107D01*
X9358D01*
Y12256D01*
X9140D01*
Y12356D01*
X9358D01*
Y12521D01*
X9807D01*
Y11732D01*
D02*
G37*
G36*
X17622Y12729D02*
X17623Y12707D01*
X17627Y12685D01*
X17633Y12663D01*
X17642Y12643D01*
X17653Y12623D01*
X17665Y12605D01*
X17680Y12589D01*
X18210Y12059D01*
X18226Y12044D01*
X18245Y12031D01*
X18264Y12021D01*
X18285Y12012D01*
X18306Y12006D01*
X18328Y12002D01*
X18350Y12001D01*
X18612D01*
X18632Y11990D01*
X18654Y11981D01*
X18663Y11978D01*
X18671Y11937D01*
X18663Y11896D01*
X18654Y11893D01*
X18632Y11884D01*
X18610Y11872D01*
X18590Y11858D01*
X18572Y11841D01*
X18556Y11823D01*
X18541Y11803D01*
X18530Y11782D01*
X18520Y11759D01*
X18513Y11736D01*
X18509Y11711D01*
X18508Y11687D01*
X18509Y11663D01*
X18513Y11638D01*
X18520Y11615D01*
X18530Y11592D01*
X18541Y11571D01*
X18556Y11551D01*
X18572Y11533D01*
X18588Y11518D01*
X18590Y11516D01*
X18599Y11477D01*
X18547Y11402D01*
X17004D01*
X16988Y11481D01*
X17010Y11490D01*
X17032Y11502D01*
X17052Y11516D01*
X17070Y11533D01*
X17086Y11551D01*
X17100Y11571D01*
X17112Y11592D01*
X17122Y11615D01*
X17128Y11638D01*
X17132Y11663D01*
X17134Y11687D01*
X17132Y11711D01*
X17128Y11736D01*
X17122Y11759D01*
X17112Y11782D01*
X17100Y11803D01*
X17086Y11823D01*
X17070Y11841D01*
X17052Y11858D01*
X17032Y11872D01*
X17010Y11884D01*
X16988Y11893D01*
X16978Y11896D01*
X16971Y11937D01*
X16978Y11978D01*
X16988Y11981D01*
X17010Y11990D01*
X17032Y12002D01*
X17052Y12016D01*
X17070Y12033D01*
X17086Y12051D01*
X17100Y12071D01*
X17112Y12092D01*
X17122Y12115D01*
X17128Y12137D01*
X16748D01*
Y12237D01*
X17128D01*
X17122Y12259D01*
X17112Y12282D01*
X17100Y12303D01*
X17086Y12323D01*
X17070Y12341D01*
X17052Y12358D01*
X17032Y12372D01*
X17010Y12384D01*
X16988Y12393D01*
X16978Y12396D01*
X16971Y12437D01*
X16978Y12478D01*
X16988Y12481D01*
X17010Y12490D01*
X17032Y12502D01*
X17052Y12516D01*
X17061Y12525D01*
X17068Y12528D01*
X17088Y12538D01*
X17106Y12551D01*
X17122Y12566D01*
X17335Y12779D01*
X17350Y12796D01*
X17363Y12814D01*
X17374Y12833D01*
X17382Y12854D01*
X17389Y12875D01*
X17392Y12897D01*
X17394Y12920D01*
Y13396D01*
X17393Y13415D01*
X17393Y13418D01*
X17429Y13477D01*
X17444Y13490D01*
X17455Y13495D01*
X17622D01*
Y12729D01*
D02*
G37*
G36*
X12426Y11369D02*
Y11172D01*
Y11057D01*
X12408D01*
Y10864D01*
X12308D01*
Y11057D01*
X12211D01*
Y10864D01*
X12114D01*
X12114Y10869D01*
Y11057D01*
X11897D01*
Y11172D01*
Y11369D01*
Y11389D01*
X12426D01*
Y11369D01*
D02*
G37*
G36*
X11507Y14798D02*
X11545Y14746D01*
X11548Y14734D01*
X11547Y14717D01*
X11549Y14693D01*
X11553Y14668D01*
X11560Y14645D01*
X11569Y14622D01*
X11581Y14600D01*
X11595Y14580D01*
X11612Y14561D01*
X11604Y14483D01*
X11371Y14249D01*
X11358Y14235D01*
X11347Y14218D01*
X11338Y14201D01*
X11332Y14182D01*
X11328Y14163D01*
X11327Y14144D01*
Y11025D01*
X11328Y11005D01*
X11332Y10986D01*
X11338Y10968D01*
X11347Y10950D01*
X11358Y10934D01*
X11371Y10919D01*
X11468Y10822D01*
X11482Y10809D01*
X11499Y10798D01*
X11510Y10793D01*
Y10779D01*
X11569D01*
X11573Y10778D01*
X11704D01*
X11709Y10779D01*
X11815D01*
Y10674D01*
X11717D01*
Y10423D01*
X11643Y10392D01*
X11447Y10588D01*
X11432Y10602D01*
X11414Y10613D01*
X11396Y10622D01*
X11376Y10629D01*
X11355Y10633D01*
X11335Y10635D01*
X11061D01*
Y12650D01*
Y14686D01*
X11189Y14814D01*
X11484D01*
X11507Y14798D01*
D02*
G37*
G36*
X12619Y10778D02*
X12780D01*
Y10680D01*
Y10555D01*
X13177D01*
Y10680D01*
Y10719D01*
X13345D01*
X13400Y10665D01*
Y10246D01*
X13313Y10159D01*
X12085D01*
Y10277D01*
X12279D01*
Y10475D01*
X12329D01*
Y10525D01*
X12547D01*
Y10674D01*
X12507D01*
Y10779D01*
X12614D01*
X12619Y10778D01*
D02*
G37*
G36*
X9329Y10734D02*
X9296Y10654D01*
X9249D01*
Y10436D01*
X9199D01*
Y10386D01*
X8991D01*
Y10218D01*
Y9824D01*
X8981Y9807D01*
X8981D01*
Y9583D01*
X8979Y9581D01*
X8128D01*
X8127Y9583D01*
X8118Y9606D01*
X8106Y9628D01*
X8092Y9648D01*
X8075Y9666D01*
X8074Y9668D01*
Y9761D01*
X8115Y9824D01*
X8263D01*
Y10042D01*
X8363D01*
Y9824D01*
X8647D01*
Y10042D01*
X8697D01*
Y10092D01*
X8905D01*
Y10218D01*
Y10654D01*
X8876D01*
Y11074D01*
X8956Y11107D01*
X9329Y10734D01*
D02*
G37*
G36*
X16876Y9940D02*
X16938Y9897D01*
X16950Y9882D01*
X16955Y9871D01*
Y9491D01*
X16942Y9472D01*
X16899Y9441D01*
X16875Y9432D01*
X16861Y9434D01*
X16837Y9436D01*
X16812Y9434D01*
X16788Y9430D01*
X16764Y9423D01*
X16741Y9414D01*
X16719Y9402D01*
X16699Y9388D01*
X16681Y9371D01*
X16664Y9353D01*
X16650Y9333D01*
X16638Y9311D01*
X16629Y9288D01*
X16622Y9264D01*
X16618Y9240D01*
X16616Y9215D01*
X16617Y9204D01*
X16546Y9134D01*
X16472Y9164D01*
Y9548D01*
X16865Y9940D01*
X16876Y9940D01*
D02*
G37*
G36*
X16899Y8990D02*
X16942Y8958D01*
X16955Y8939D01*
Y8233D01*
X16894D01*
Y8168D01*
X16887Y8167D01*
X16869Y8161D01*
X16851Y8152D01*
X16835Y8141D01*
X16821Y8129D01*
X16821Y8129D01*
X16762Y8070D01*
X16749Y8055D01*
X16738Y8039D01*
X16659Y8060D01*
Y8829D01*
X16825Y8996D01*
X16837Y8995D01*
X16861Y8996D01*
X16875Y8999D01*
X16899Y8990D01*
D02*
G37*
G36*
X10624Y10470D02*
X10624Y10469D01*
X10622Y10444D01*
Y8436D01*
X10477D01*
X10342Y8571D01*
X10337Y8582D01*
X10335Y8602D01*
X10349Y8676D01*
X10365Y8694D01*
X10380Y8714D01*
X10392Y8736D01*
X10401Y8759D01*
X10408Y8782D01*
X10412Y8807D01*
X10413Y8831D01*
X10412Y8856D01*
X10408Y8881D01*
X10401Y8904D01*
X10392Y8927D01*
X10380Y8949D01*
X10365Y8969D01*
X10349Y8987D01*
X10330Y9004D01*
X10315Y9014D01*
Y9059D01*
X10314Y9079D01*
X10310Y9098D01*
X10304Y9116D01*
X10295Y9134D01*
X10284Y9150D01*
X10272Y9165D01*
X10214Y9223D01*
X10199Y9236D01*
X10185Y9245D01*
Y9798D01*
X9970D01*
X9683Y10084D01*
Y10741D01*
X9682Y10760D01*
X9678Y10780D01*
X9672Y10798D01*
X9663Y10816D01*
X9652Y10832D01*
X9639Y10847D01*
X9230Y11256D01*
X9260Y11330D01*
X9348D01*
Y11379D01*
X9839D01*
X9859Y11380D01*
X9880Y11384D01*
X9900Y11391D01*
X9918Y11400D01*
X9936Y11412D01*
X9951Y11425D01*
X10079Y11553D01*
X10093Y11569D01*
X10105Y11586D01*
X10114Y11605D01*
X10121Y11625D01*
X10125Y11645D01*
X10126Y11666D01*
Y12521D01*
X10624D01*
Y10470D01*
D02*
G37*
G36*
X18795Y7710D02*
X18795Y7435D01*
X18779Y7434D01*
X18754Y7430D01*
X18730Y7424D01*
X18706Y7415D01*
X18683Y7405D01*
X18661Y7392D01*
X18641Y7376D01*
X18622Y7359D01*
X18605Y7341D01*
X18590Y7320D01*
X18577Y7299D01*
X18566Y7276D01*
X18558Y7252D01*
X18552Y7227D01*
X18548Y7202D01*
X18547Y7177D01*
Y6901D01*
X18478Y6845D01*
X18452Y6847D01*
X18419Y6860D01*
X18414Y6866D01*
X18321Y6959D01*
X18282Y7031D01*
X18295Y7046D01*
X18305Y7061D01*
X18314Y7078D01*
X18320Y7096D01*
X18323Y7115D01*
X18325Y7134D01*
Y7217D01*
X17713D01*
Y7317D01*
X18325D01*
Y7399D01*
X18323Y7418D01*
X18320Y7437D01*
X18314Y7455D01*
X18305Y7472D01*
X18295Y7487D01*
X18297Y7503D01*
X18299Y7505D01*
X18316Y7520D01*
X18573Y7777D01*
X18689D01*
Y7777D01*
X18719Y7778D01*
X18795Y7710D01*
D02*
G37*
G36*
X19542Y8320D02*
X19760D01*
Y8220D01*
X19542D01*
Y8062D01*
Y7927D01*
X19760D01*
Y7827D01*
X19542D01*
Y7725D01*
X19326D01*
X19232Y7819D01*
Y8034D01*
Y8289D01*
X19417Y8473D01*
X19542D01*
Y8320D01*
D02*
G37*
G36*
X6854Y9078D02*
Y8932D01*
X6846D01*
X6821Y8931D01*
X6796Y8927D01*
X6772Y8921D01*
X6748Y8912D01*
X6725Y8901D01*
X6703Y8888D01*
X6683Y8873D01*
X6664Y8856D01*
X6647Y8838D01*
X6632Y8817D01*
X6619Y8796D01*
X6608Y8773D01*
X6600Y8749D01*
X6594Y8724D01*
X6590Y8699D01*
X6589Y8674D01*
X6590Y8649D01*
X6594Y8624D01*
X6600Y8599D01*
X6608Y8575D01*
X6619Y8552D01*
X6632Y8531D01*
X6647Y8510D01*
X6664Y8492D01*
X6683Y8475D01*
X6703Y8460D01*
X6725Y8447D01*
X6748Y8436D01*
X6772Y8427D01*
X6796Y8421D01*
X6821Y8417D01*
X6846Y8416D01*
X9517D01*
X9807Y8126D01*
X9774Y8046D01*
X8402D01*
X8382Y8045D01*
X8363Y8041D01*
X8344Y8035D01*
X8327Y8026D01*
X8311Y8015D01*
X8296Y8002D01*
X7717Y7423D01*
X7695Y7417D01*
X7682Y7417D01*
X7614Y7433D01*
X7613Y7434D01*
X6795Y8252D01*
X6779Y8266D01*
X6762Y8278D01*
X6743Y8287D01*
X6723Y8294D01*
X6703Y8298D01*
X6682Y8299D01*
X6409D01*
Y8889D01*
X5678D01*
Y7981D01*
X6245D01*
X6250Y7980D01*
X6616D01*
X6914Y7682D01*
X6907Y7641D01*
X6884Y7599D01*
X6866Y7597D01*
X6833Y7590D01*
X6800Y7579D01*
X6768Y7566D01*
X6737Y7550D01*
X6708Y7532D01*
X6681Y7511D01*
X6655Y7487D01*
X6632Y7462D01*
X6611Y7434D01*
X6592Y7405D01*
X6576Y7375D01*
X6563Y7343D01*
X6562Y7337D01*
X6409D01*
Y7809D01*
X5678D01*
Y6901D01*
X6409D01*
Y7019D01*
X6588D01*
X6592Y7010D01*
X6611Y6981D01*
X6632Y6953D01*
X6655Y6928D01*
X6681Y6904D01*
X6708Y6883D01*
X6720Y6876D01*
X6704Y6806D01*
X6698Y6796D01*
X4387D01*
X3749Y7434D01*
X3762Y7464D01*
X3772Y7497D01*
X3779Y7531D01*
X3784Y7565D01*
X3785Y7599D01*
X3784Y7634D01*
X3779Y7668D01*
X3772Y7702D01*
X3762Y7735D01*
X3748Y7766D01*
X3732Y7797D01*
X3714Y7826D01*
X3710Y7831D01*
X3708Y7839D01*
X3707Y7861D01*
X3715Y7911D01*
X3717Y7916D01*
X3728Y7933D01*
X3737Y7941D01*
X4072Y8276D01*
X4595D01*
Y7981D01*
X5326D01*
Y8889D01*
X4595D01*
Y8594D01*
X4006D01*
X3985Y8593D01*
X3964Y8589D01*
X3945Y8582D01*
X3926Y8573D01*
X3908Y8561D01*
X3893Y8548D01*
X3857Y8512D01*
X3829Y8519D01*
X3783Y8549D01*
X2998D01*
X3000Y8531D01*
X3008Y8497D01*
X3018Y8464D01*
X3031Y8432D01*
X3047Y8401D01*
X3066Y8372D01*
X3087Y8345D01*
X3110Y8319D01*
X3135Y8296D01*
X3139Y8293D01*
X3112Y8213D01*
X2876D01*
X2865Y8213D01*
X2848Y8218D01*
X2798Y8254D01*
X2789Y8266D01*
X2785Y8273D01*
X2785Y8273D01*
Y8994D01*
X2785D01*
X2744Y9074D01*
X2751Y9085D01*
X6847D01*
X6854Y9078D01*
D02*
G37*
G36*
X15183Y7879D02*
X15186Y7878D01*
X15219Y7850D01*
X15221Y7846D01*
Y7672D01*
X15144D01*
X15124Y7671D01*
X15105Y7667D01*
X15086Y7661D01*
X15069Y7652D01*
X15053Y7641D01*
X15038Y7628D01*
X14925Y7515D01*
X14849D01*
X14829Y7514D01*
X14810Y7510D01*
X14792Y7504D01*
X14774Y7495D01*
X14758Y7485D01*
X14743Y7472D01*
X14688Y7416D01*
X14608Y7446D01*
Y7607D01*
X14360D01*
Y7707D01*
X14608D01*
Y7882D01*
X15072D01*
X15094Y7883D01*
X15116Y7887D01*
X15138Y7893D01*
X15141Y7894D01*
X15183Y7879D01*
D02*
G37*
G36*
X12130Y7885D02*
X13277D01*
X13283Y7885D01*
X13561D01*
Y7667D01*
X13562Y7642D01*
X13566Y7617D01*
X13571Y7598D01*
Y7589D01*
X13572Y7563D01*
X13576Y7538D01*
X13581Y7518D01*
Y7400D01*
X13642D01*
Y7272D01*
X13641Y7267D01*
X13637Y7250D01*
X13636Y7232D01*
Y7025D01*
X13636Y7024D01*
X13615Y6982D01*
X13596Y6959D01*
X13575Y6944D01*
X13574Y6944D01*
X13452D01*
X13317Y7079D01*
X13300Y7094D01*
X13281Y7106D01*
X13265Y7114D01*
Y7376D01*
X11727D01*
Y6791D01*
X12615D01*
X12620Y6790D01*
X13127D01*
X13262Y6655D01*
X13279Y6640D01*
X13297Y6628D01*
X13317Y6618D01*
X13332Y6613D01*
X13341Y6588D01*
X13340Y6529D01*
X13337Y6527D01*
X13318Y6515D01*
X13302Y6500D01*
X13244Y6443D01*
X11727D01*
Y5857D01*
X13265D01*
Y6073D01*
X13283D01*
X13305Y6075D01*
X13327Y6079D01*
X13348Y6086D01*
X13368Y6096D01*
X13386Y6108D01*
X13403Y6123D01*
X13491Y6211D01*
X13574D01*
X13575Y6211D01*
X13596Y6196D01*
X13615Y6173D01*
X13636Y6131D01*
X13636Y6130D01*
Y5923D01*
X13637Y5905D01*
X13641Y5888D01*
X13646Y5871D01*
X13650Y5864D01*
Y5731D01*
X13646Y5726D01*
X13633Y5704D01*
X13622Y5681D01*
X13622Y5681D01*
X13612D01*
Y5654D01*
X13607Y5633D01*
X13603Y5608D01*
X13602Y5582D01*
Y5423D01*
X13602Y5423D01*
Y5352D01*
X13565Y5327D01*
X13522Y5315D01*
X13507Y5327D01*
X13478Y5345D01*
X13448Y5361D01*
X13416Y5375D01*
X13383Y5385D01*
X13349Y5392D01*
X13315Y5397D01*
X13280Y5398D01*
X13246Y5397D01*
X13212Y5392D01*
X13178Y5385D01*
X13145Y5375D01*
X13113Y5361D01*
X13082Y5345D01*
X13053Y5327D01*
X13026Y5306D01*
X13001Y5283D01*
X12977Y5257D01*
X12956Y5230D01*
X12938Y5201D01*
X12922Y5170D01*
X12909Y5138D01*
X12898Y5105D01*
X12891Y5071D01*
X12886Y5037D01*
X12885Y5003D01*
X12886Y4968D01*
X12891Y4934D01*
X12898Y4900D01*
X12908Y4869D01*
X12903Y4860D01*
X12891Y4843D01*
X12845Y4813D01*
X12831Y4820D01*
X12799Y4833D01*
X12766Y4844D01*
X12732Y4851D01*
X12698Y4856D01*
X12663Y4857D01*
X12629Y4856D01*
X12595Y4851D01*
X12561Y4844D01*
X12528Y4833D01*
X12496Y4820D01*
X12466Y4804D01*
X12436Y4786D01*
X12409Y4764D01*
X12384Y4741D01*
X12360Y4716D01*
X12339Y4688D01*
X12321Y4659D01*
X12305Y4629D01*
X12292Y4597D01*
X12289Y4589D01*
X12227Y4565D01*
X12200Y4565D01*
X11357Y5407D01*
Y7245D01*
X11356Y7269D01*
X11352Y7293D01*
X11345Y7317D01*
X11336Y7340D01*
X11324Y7361D01*
X11310Y7381D01*
X11293Y7399D01*
X11101Y7591D01*
X11096Y7609D01*
X11098Y7634D01*
X11114Y7692D01*
X11121Y7697D01*
X11140Y7714D01*
X11315Y7889D01*
X11392Y7895D01*
Y7895D01*
X12130D01*
Y7885D01*
D02*
G37*
G36*
X15004Y7200D02*
Y7189D01*
X15203D01*
Y7089D01*
X15004D01*
Y6826D01*
X14860D01*
X14781Y6848D01*
Y6897D01*
X14780Y6917D01*
X14775Y6936D01*
X14768Y6954D01*
X14758Y6971D01*
X14745Y6986D01*
X14730Y6999D01*
X14713Y7009D01*
X14695Y7016D01*
X14695Y7016D01*
X14704Y7096D01*
X14729D01*
X14748Y7098D01*
X14768Y7101D01*
X14786Y7108D01*
X14804Y7116D01*
X14820Y7127D01*
X14835Y7140D01*
X14911Y7216D01*
X14987D01*
X15004Y7200D01*
D02*
G37*
G36*
X2174Y7023D02*
X2179Y7001D01*
X2163Y6923D01*
X2161Y6922D01*
X2135Y6902D01*
X2110Y6879D01*
X2087Y6854D01*
X2066Y6826D01*
X2047Y6797D01*
X2031Y6766D01*
X2018Y6735D01*
X2013Y6717D01*
X1872D01*
X1380Y7209D01*
Y7712D01*
X1454Y7743D01*
X2174Y7023D01*
D02*
G37*
G36*
X16019Y7538D02*
Y6859D01*
X16018Y6845D01*
Y6629D01*
X15864D01*
Y6724D01*
X15596D01*
Y6824D01*
X15864D01*
Y7032D01*
X15864D01*
Y7068D01*
X15864D01*
Y7583D01*
X15925Y7629D01*
X15928D01*
X16019Y7538D01*
D02*
G37*
G36*
X8973Y7115D02*
X9022Y7050D01*
X9022Y7047D01*
X9023Y7023D01*
X9027Y6998D01*
X9034Y6974D01*
X9044Y6952D01*
X9003Y6922D01*
X8983Y6907D01*
X8964Y6891D01*
X8948Y6872D01*
X8933Y6852D01*
X8921Y6831D01*
X8912Y6808D01*
X8905Y6784D01*
X8901Y6760D01*
X8900Y6735D01*
X8901Y6710D01*
X8905Y6686D01*
X8912Y6662D01*
X8912Y6662D01*
X8911Y6653D01*
Y6569D01*
X8599D01*
Y6823D01*
X8895Y7119D01*
X8973Y7115D01*
D02*
G37*
G36*
X16916Y7019D02*
X17074D01*
Y7019D01*
X17097Y7020D01*
X17116Y7011D01*
X17124Y7004D01*
X17169Y6947D01*
Y6902D01*
X16880Y6613D01*
X16867Y6598D01*
X16856Y6582D01*
X16848Y6565D01*
X16842Y6547D01*
X16838Y6528D01*
X16837Y6509D01*
Y6441D01*
X16699D01*
Y6621D01*
X16697Y6640D01*
X16694Y6659D01*
X16688Y6677D01*
X16679Y6694D01*
X16668Y6710D01*
X16659Y6720D01*
Y7019D01*
X16816D01*
Y7237D01*
X16916D01*
Y7019D01*
D02*
G37*
G36*
X15044Y5621D02*
X15053D01*
Y5469D01*
X15042Y5457D01*
X14779D01*
X14754Y5456D01*
X14729Y5452D01*
X14719Y5450D01*
X14656Y5481D01*
X14651Y5487D01*
X14639Y5507D01*
Y5681D01*
X14442D01*
Y5423D01*
X14342D01*
Y5681D01*
X14165D01*
Y5800D01*
X14174Y5808D01*
X14223D01*
X14243Y5809D01*
X14262Y5814D01*
X14280Y5821D01*
X14297Y5832D01*
X14297Y5832D01*
X14298Y5832D01*
X14314Y5821D01*
X14332Y5814D01*
X14346Y5811D01*
Y5908D01*
X14347Y5913D01*
X14348Y5933D01*
Y6026D01*
X14396D01*
Y6076D01*
X14545D01*
Y6120D01*
X14557Y6133D01*
X14656D01*
X14657Y6133D01*
X15044D01*
Y5621D01*
D02*
G37*
G36*
X6790Y6036D02*
X6809Y6027D01*
X6828Y6020D01*
X6829Y6020D01*
Y6015D01*
X6864D01*
X6870Y6015D01*
X7053D01*
Y5940D01*
X7048Y5939D01*
X6829D01*
Y5670D01*
X6804Y5644D01*
X6504D01*
Y5725D01*
X6504Y5731D01*
Y5931D01*
X6513Y5954D01*
X6520Y5977D01*
X6524Y6002D01*
X6526Y6026D01*
X6545Y6047D01*
X6773D01*
X6790Y6036D01*
D02*
G37*
G36*
X17536Y6123D02*
X18075D01*
Y5907D01*
X18224D01*
Y6125D01*
X18324D01*
Y5907D01*
X18472D01*
Y5907D01*
X18547Y5895D01*
Y5491D01*
X18514Y5457D01*
X17587D01*
X17570Y5462D01*
X17548Y5466D01*
X17526Y5467D01*
X17503Y5466D01*
X17481Y5462D01*
X17464Y5457D01*
X15451D01*
Y5621D01*
X15460D01*
Y6015D01*
Y6330D01*
X16059D01*
Y6046D01*
X16060Y6027D01*
X16064Y6008D01*
X16070Y5990D01*
X16079Y5972D01*
X16090Y5956D01*
X16102Y5942D01*
X16339Y5706D01*
X16353Y5693D01*
X16369Y5682D01*
X16386Y5674D01*
X16405Y5667D01*
X16424Y5664D01*
X16443Y5662D01*
X16540D01*
Y5602D01*
X17370D01*
Y6018D01*
X17348D01*
Y6123D01*
X17436D01*
Y6331D01*
X17536D01*
Y6123D01*
D02*
G37*
G36*
X9610Y6157D02*
Y5610D01*
X9379Y5379D01*
X9299D01*
Y5553D01*
X9081D01*
Y5653D01*
X9299D01*
Y5802D01*
X9299D01*
Y5927D01*
X9081D01*
Y6027D01*
X9299D01*
Y6176D01*
X9356Y6231D01*
X9536D01*
X9610Y6157D01*
D02*
G37*
G36*
X15783Y4518D02*
X15744D01*
X15665Y4597D01*
Y4688D01*
X15783D01*
Y4518D01*
D02*
G37*
G36*
X15528Y4597D02*
X15449Y4518D01*
X15409D01*
Y4688D01*
X15528D01*
Y4597D01*
D02*
G37*
G36*
X15173Y4942D02*
X15296D01*
X15323Y4902D01*
X15334Y4862D01*
X15330Y4856D01*
X15321Y4837D01*
X15315Y4818D01*
X15310Y4797D01*
X15310Y4788D01*
X15309D01*
Y4782D01*
X15309Y4776D01*
Y4673D01*
X15303Y4638D01*
X15248Y4598D01*
X15148D01*
Y4380D01*
X15098D01*
Y4330D01*
X14900D01*
Y4138D01*
X13011D01*
X12983Y4181D01*
X12975Y4218D01*
X12987Y4234D01*
X13006Y4264D01*
X13022Y4294D01*
X13035Y4326D01*
X13046Y4359D01*
X13053Y4393D01*
X13058Y4427D01*
X13059Y4461D01*
X13058Y4496D01*
X13053Y4530D01*
X13046Y4564D01*
X13036Y4595D01*
X13040Y4604D01*
X13053Y4621D01*
X13099Y4651D01*
X13113Y4644D01*
X13145Y4631D01*
X13178Y4621D01*
X13212Y4613D01*
X13246Y4609D01*
X13280Y4607D01*
X13315Y4609D01*
X13349Y4613D01*
X13383Y4621D01*
X13416Y4631D01*
X13448Y4644D01*
X13478Y4660D01*
X13507Y4679D01*
X13523Y4690D01*
X13564Y4680D01*
X13603Y4653D01*
Y4519D01*
X13860D01*
Y4469D01*
X13910D01*
Y4221D01*
X14302D01*
Y4469D01*
X14352D01*
Y4519D01*
X14610D01*
Y4675D01*
X14618Y4703D01*
X14646Y4741D01*
X14672Y4759D01*
X14678Y4762D01*
X14701Y4773D01*
X14723Y4786D01*
X14743Y4801D01*
X14762Y4818D01*
X14886Y4942D01*
X15154D01*
X15163Y4942D01*
X15173Y4942D01*
D02*
G37*
G36*
X15528Y4267D02*
Y4176D01*
X15409D01*
X15409Y4385D01*
X15528Y4267D01*
D02*
G37*
G36*
X5200Y5231D02*
X5011D01*
Y4776D01*
Y4322D01*
X5200D01*
Y4193D01*
X5201Y4177D01*
X5205Y4162D01*
X5211Y4147D01*
X5211Y4147D01*
X5196Y4099D01*
X5177Y4069D01*
X5175Y4067D01*
X4595D01*
Y3785D01*
X4423D01*
X4027Y4180D01*
X4012Y4194D01*
X3994Y4206D01*
X3976Y4215D01*
X3956Y4222D01*
X3935Y4226D01*
X3915Y4227D01*
X3686D01*
X3664Y4263D01*
X3656Y4307D01*
X3670Y4319D01*
X3693Y4345D01*
X3714Y4372D01*
X3732Y4401D01*
X3748Y4432D01*
X3762Y4464D01*
X3772Y4497D01*
X3779Y4530D01*
X3784Y4565D01*
X3785Y4599D01*
X3784Y4634D01*
X3779Y4668D01*
X3772Y4702D01*
X3766Y4719D01*
X4373Y5326D01*
X5200D01*
Y5231D01*
D02*
G37*
G36*
X10014Y3730D02*
Y3515D01*
Y3183D01*
X9643D01*
Y3348D01*
X9435D01*
Y3398D01*
X9385D01*
Y3617D01*
X9250D01*
Y3617D01*
X9220D01*
Y3908D01*
X9730D01*
X9746Y3910D01*
X9761Y3913D01*
X9770Y3917D01*
X9776Y3919D01*
X9789Y3928D01*
X9801Y3938D01*
X9804Y3940D01*
X10014Y3730D01*
D02*
G37*
G36*
X8294Y3525D02*
X8410D01*
Y3515D01*
X8568D01*
Y3733D01*
X8668D01*
Y3515D01*
X8826D01*
X8833Y3438D01*
Y3125D01*
X8336D01*
X8010Y3451D01*
Y3460D01*
X8046Y3525D01*
X8194D01*
Y3743D01*
X8294D01*
Y3525D01*
D02*
G37*
G36*
X17027Y2905D02*
X16996Y2831D01*
X16699D01*
Y2712D01*
X16619Y2679D01*
X16270Y3027D01*
X16301Y3101D01*
X16831D01*
X17027Y2905D01*
D02*
G37*
G36*
X15699Y2831D02*
X15699D01*
Y1769D01*
X15703D01*
X15718Y1753D01*
Y1751D01*
X15699Y1678D01*
X15699D01*
Y1324D01*
X15068D01*
X14762Y1630D01*
Y2474D01*
X14760Y2494D01*
X14757Y2513D01*
X14750Y2531D01*
X14742Y2549D01*
X14731Y2565D01*
X14718Y2580D01*
X14467Y2830D01*
X14498Y2904D01*
X15683D01*
X15699Y2831D01*
D02*
G37*
G36*
X9611Y2767D02*
X9699D01*
Y1769D01*
X9699D01*
X9712Y1758D01*
X9699Y1678D01*
X9699D01*
Y953D01*
X9451D01*
X9429Y952D01*
X9407Y948D01*
X9386Y941D01*
X9381Y938D01*
X9333Y956D01*
X9301Y981D01*
Y1678D01*
X9301D01*
X9282Y1751D01*
Y1753D01*
X9297Y1769D01*
X9301D01*
Y2787D01*
X9611D01*
Y2767D01*
D02*
G37*
G36*
X8699Y1769D02*
X8703D01*
X8718Y1753D01*
Y1751D01*
X8699Y1678D01*
X8699D01*
Y934D01*
X8651Y914D01*
X8619Y910D01*
X8609Y919D01*
X8591Y931D01*
X8571Y941D01*
X8550Y948D01*
X8528Y952D01*
X8506Y953D01*
X8301D01*
Y1678D01*
X8301D01*
X8288Y1689D01*
X8301Y1769D01*
X8301D01*
Y2826D01*
X8699D01*
Y1769D01*
D02*
G37*
G36*
X19749Y2905D02*
X19719Y2831D01*
X19699D01*
Y1769D01*
X19703D01*
X19718Y1753D01*
Y1751D01*
X19699Y1678D01*
X19699D01*
Y711D01*
X19301D01*
Y1678D01*
X19301D01*
X19282Y1751D01*
Y1753D01*
X19297Y1769D01*
X19301D01*
Y2831D01*
X19092D01*
Y2840D01*
X19091Y2860D01*
X19087Y2879D01*
X19081Y2898D01*
X19072Y2915D01*
X19062Y2931D01*
X19049Y2946D01*
X18564Y3431D01*
X18594Y3505D01*
X19150D01*
X19749Y2905D01*
D02*
G37*
G36*
X18711Y2860D02*
X18699Y2831D01*
X18699D01*
Y1769D01*
X18703D01*
X18718Y1753D01*
Y1751D01*
X18699Y1678D01*
X18699D01*
Y711D01*
X18301D01*
Y1678D01*
X18301D01*
X18282Y1751D01*
Y1753D01*
X18297Y1769D01*
X18301D01*
Y2831D01*
X17699D01*
Y2760D01*
X17625Y2730D01*
X17139Y3216D01*
X17169Y3290D01*
X18282D01*
X18711Y2860D01*
D02*
G37*
G36*
X17584Y2348D02*
X17599Y2335D01*
X17615Y2324D01*
X17633Y2315D01*
X17651Y2309D01*
X17670Y2305D01*
X17690Y2304D01*
X17699D01*
Y1769D01*
X17703D01*
X17718Y1753D01*
Y1751D01*
X17699Y1678D01*
X17699D01*
Y711D01*
X17301D01*
Y1678D01*
X17301D01*
X17282Y1751D01*
Y1753D01*
X17297Y1769D01*
X17301D01*
Y2527D01*
X17375Y2557D01*
X17584Y2348D01*
D02*
G37*
G36*
X16504Y2370D02*
X16519Y2357D01*
X16535Y2347D01*
X16553Y2338D01*
X16572Y2332D01*
X16591Y2328D01*
X16610Y2327D01*
X16699D01*
Y1769D01*
X16703D01*
X16718Y1753D01*
Y1751D01*
X16699Y1678D01*
X16699D01*
Y711D01*
X16301D01*
Y1678D01*
X16301D01*
X16282Y1751D01*
Y1753D01*
X16297Y1769D01*
X16301D01*
Y2470D01*
X16375Y2500D01*
X16504Y2370D01*
D02*
G37*
G36*
X14463Y2412D02*
Y1568D01*
X14464Y1548D01*
X14468Y1529D01*
X14474Y1510D01*
X14483Y1493D01*
X14494Y1477D01*
X14506Y1462D01*
X14900Y1068D01*
X14915Y1055D01*
X14931Y1045D01*
X14949Y1036D01*
X14967Y1030D01*
X14986Y1026D01*
X15006Y1024D01*
X15699D01*
Y711D01*
X14301D01*
Y1678D01*
X14301D01*
X14282Y1751D01*
Y1753D01*
X14297Y1769D01*
X14301D01*
Y2470D01*
X14375Y2500D01*
X14463Y2412D01*
D02*
G37*
G36*
X10513Y3849D02*
X10537Y3847D01*
X10546Y3848D01*
X11653Y2740D01*
X11668Y2728D01*
X11684Y2717D01*
X11699Y2709D01*
Y2350D01*
X12301D01*
Y2697D01*
X12699D01*
Y2350D01*
X13301D01*
Y2697D01*
X13699D01*
Y1769D01*
X13703D01*
X13718Y1753D01*
Y1751D01*
X13699Y1678D01*
X13699D01*
Y711D01*
X13301D01*
Y1096D01*
X12699D01*
Y711D01*
X12301D01*
Y1096D01*
X11699D01*
Y711D01*
X11301D01*
Y1678D01*
X11250D01*
Y1769D01*
X11301D01*
Y2831D01*
X10779D01*
Y2918D01*
X10778Y2937D01*
X10774Y2956D01*
X10768Y2975D01*
X10759Y2992D01*
X10749Y3009D01*
X10736Y3023D01*
X10678Y3081D01*
X10663Y3094D01*
X10647Y3105D01*
X10629Y3113D01*
X10611Y3120D01*
X10592Y3123D01*
X10572Y3125D01*
X10441D01*
Y3183D01*
X10431D01*
Y3515D01*
Y3787D01*
X10435Y3797D01*
X10452Y3814D01*
X10511Y3849D01*
X10513Y3849D01*
D02*
G37*
%LPC*%
G36*
X6701Y21831D02*
X6450D01*
Y21350D01*
X6701D01*
Y21831D01*
D02*
G37*
G36*
X6350D02*
X6099D01*
Y21350D01*
X6350D01*
Y21831D01*
D02*
G37*
G36*
X6701Y21250D02*
X6450D01*
Y20769D01*
X6701D01*
Y21250D01*
D02*
G37*
G36*
X6350D02*
X6099D01*
Y20769D01*
X6350D01*
Y21250D01*
D02*
G37*
G36*
X6701Y20678D02*
X6450D01*
Y20196D01*
X6701D01*
Y20678D01*
D02*
G37*
G36*
X6350D02*
X6099D01*
Y20196D01*
X6350D01*
Y20678D01*
D02*
G37*
G36*
X6701Y20096D02*
X6450D01*
Y19615D01*
X6701D01*
Y20096D01*
D02*
G37*
G36*
X6350D02*
X6099D01*
Y19615D01*
X6350D01*
Y20096D01*
D02*
G37*
G36*
X22315Y10091D02*
X22079D01*
X22048Y10090D01*
X22017Y10085D01*
X21987Y10078D01*
X21957Y10067D01*
X21929Y10054D01*
X21903Y10038D01*
X21878Y10019D01*
X21855Y9998D01*
X21834Y9975D01*
X21815Y9950D01*
X21799Y9924D01*
X21786Y9896D01*
X21775Y9866D01*
X21768Y9836D01*
X21763Y9805D01*
X21762Y9774D01*
X21763Y9743D01*
X21768Y9713D01*
X21775Y9682D01*
X21786Y9653D01*
X21799Y9625D01*
X21815Y9598D01*
X21834Y9573D01*
X21855Y9550D01*
X21878Y9529D01*
X21903Y9511D01*
X21929Y9495D01*
X21957Y9482D01*
X21987Y9471D01*
X22017Y9464D01*
X22048Y9459D01*
X22079Y9457D01*
X22315D01*
X22346Y9459D01*
X22377Y9464D01*
X22407Y9471D01*
X22436Y9482D01*
X22464Y9495D01*
X22491Y9511D01*
X22516Y9529D01*
X22539Y9550D01*
X22560Y9573D01*
X22578Y9598D01*
X22594Y9625D01*
X22608Y9653D01*
X22618Y9682D01*
X22626Y9713D01*
X22630Y9743D01*
X22632Y9774D01*
X22630Y9805D01*
X22626Y9836D01*
X22618Y9866D01*
X22608Y9896D01*
X22594Y9924D01*
X22578Y9950D01*
X22560Y9975D01*
X22539Y9998D01*
X22516Y10019D01*
X22491Y10038D01*
X22464Y10054D01*
X22436Y10067D01*
X22407Y10078D01*
X22377Y10085D01*
X22346Y10090D01*
X22315Y10091D01*
D02*
G37*
G36*
X20819D02*
X20583D01*
X20552Y10090D01*
X20521Y10085D01*
X20491Y10078D01*
X20461Y10067D01*
X20433Y10054D01*
X20407Y10038D01*
X20382Y10019D01*
X20359Y9998D01*
X20338Y9975D01*
X20319Y9950D01*
X20303Y9924D01*
X20290Y9896D01*
X20279Y9866D01*
X20272Y9836D01*
X20267Y9805D01*
X20266Y9774D01*
X20267Y9743D01*
X20272Y9713D01*
X20279Y9682D01*
X20290Y9653D01*
X20303Y9625D01*
X20319Y9598D01*
X20338Y9573D01*
X20359Y9550D01*
X20382Y9529D01*
X20407Y9511D01*
X20433Y9495D01*
X20436Y9494D01*
X20418Y9414D01*
X20333D01*
Y9206D01*
X20669D01*
X21006D01*
Y9414D01*
X20984D01*
X20966Y9494D01*
X20968Y9495D01*
X20995Y9511D01*
X21020Y9529D01*
X21043Y9550D01*
X21064Y9573D01*
X21082Y9598D01*
X21098Y9625D01*
X21112Y9653D01*
X21122Y9682D01*
X21130Y9713D01*
X21134Y9743D01*
X21136Y9774D01*
X21134Y9805D01*
X21130Y9836D01*
X21122Y9866D01*
X21112Y9896D01*
X21098Y9924D01*
X21082Y9950D01*
X21064Y9975D01*
X21043Y9998D01*
X21020Y10019D01*
X20995Y10038D01*
X20968Y10054D01*
X20940Y10067D01*
X20911Y10078D01*
X20881Y10085D01*
X20850Y10090D01*
X20819Y10091D01*
D02*
G37*
G36*
X11718Y9118D02*
X11392D01*
Y8852D01*
X11718D01*
Y9118D01*
D02*
G37*
G36*
X13600Y9109D02*
X13274D01*
Y8842D01*
X13600D01*
Y9109D01*
D02*
G37*
G36*
X18689Y8607D02*
X18540D01*
Y8439D01*
X18689D01*
Y8607D01*
D02*
G37*
G36*
X18440D02*
X18292D01*
Y8439D01*
X18440D01*
Y8607D01*
D02*
G37*
G36*
X18098Y8597D02*
X17940D01*
Y8429D01*
X18098D01*
Y8597D01*
D02*
G37*
G36*
X17840D02*
X17681D01*
Y8429D01*
X17840D01*
Y8597D01*
D02*
G37*
G36*
X5724Y6301D02*
X5526D01*
Y6094D01*
X5724D01*
Y6301D01*
D02*
G37*
G36*
X22315Y6690D02*
X22079D01*
X22048Y6688D01*
X22017Y6684D01*
X21987Y6676D01*
X21957Y6666D01*
X21929Y6652D01*
X21903Y6636D01*
X21878Y6618D01*
X21855Y6597D01*
X21834Y6574D01*
X21815Y6549D01*
X21799Y6522D01*
X21786Y6494D01*
X21775Y6465D01*
X21768Y6435D01*
X21763Y6404D01*
X21762Y6373D01*
X21763Y6342D01*
X21768Y6311D01*
X21775Y6281D01*
X21786Y6252D01*
X21799Y6223D01*
X21815Y6197D01*
X21834Y6172D01*
X21855Y6149D01*
X21878Y6128D01*
X21903Y6109D01*
X21929Y6093D01*
X21957Y6080D01*
X21987Y6070D01*
X22017Y6062D01*
X22048Y6057D01*
X22079Y6056D01*
X22315D01*
X22346Y6057D01*
X22377Y6062D01*
X22407Y6070D01*
X22436Y6080D01*
X22464Y6093D01*
X22491Y6109D01*
X22516Y6128D01*
X22539Y6149D01*
X22560Y6172D01*
X22578Y6197D01*
X22594Y6223D01*
X22608Y6252D01*
X22618Y6281D01*
X22626Y6311D01*
X22630Y6342D01*
X22632Y6373D01*
X22630Y6404D01*
X22626Y6435D01*
X22618Y6465D01*
X22608Y6494D01*
X22594Y6522D01*
X22578Y6549D01*
X22560Y6574D01*
X22539Y6597D01*
X22516Y6618D01*
X22491Y6636D01*
X22464Y6652D01*
X22436Y6666D01*
X22407Y6676D01*
X22377Y6684D01*
X22346Y6688D01*
X22315Y6690D01*
D02*
G37*
G36*
X21006Y6941D02*
X20669D01*
X20333D01*
Y6733D01*
X20418D01*
X20436Y6653D01*
X20433Y6652D01*
X20407Y6636D01*
X20382Y6618D01*
X20359Y6597D01*
X20338Y6574D01*
X20319Y6549D01*
X20303Y6522D01*
X20290Y6494D01*
X20279Y6465D01*
X20272Y6435D01*
X20267Y6404D01*
X20266Y6373D01*
X20267Y6342D01*
X20272Y6311D01*
X20279Y6281D01*
X20290Y6252D01*
X20303Y6223D01*
X20319Y6197D01*
X20338Y6172D01*
X20359Y6149D01*
X20382Y6128D01*
X20407Y6109D01*
X20433Y6093D01*
X20461Y6080D01*
X20491Y6070D01*
X20521Y6062D01*
X20552Y6057D01*
X20583Y6056D01*
X20819D01*
X20850Y6057D01*
X20881Y6062D01*
X20911Y6070D01*
X20940Y6080D01*
X20968Y6093D01*
X20995Y6109D01*
X21020Y6128D01*
X21043Y6149D01*
X21064Y6172D01*
X21082Y6197D01*
X21098Y6223D01*
X21112Y6252D01*
X21122Y6281D01*
X21130Y6311D01*
X21134Y6342D01*
X21136Y6373D01*
X21134Y6404D01*
X21130Y6435D01*
X21122Y6465D01*
X21112Y6494D01*
X21098Y6522D01*
X21082Y6549D01*
X21064Y6574D01*
X21043Y6597D01*
X21020Y6618D01*
X20995Y6636D01*
X20968Y6652D01*
X20966Y6653D01*
X20984Y6733D01*
X21006D01*
Y6941D01*
D02*
G37*
G36*
X5842Y5930D02*
X5674D01*
Y5781D01*
X5842D01*
Y5930D01*
D02*
G37*
G36*
X3440Y5991D02*
Y5649D01*
X3782D01*
X3779Y5668D01*
X3772Y5702D01*
X3762Y5735D01*
X3748Y5766D01*
X3732Y5797D01*
X3714Y5826D01*
X3693Y5854D01*
X3670Y5879D01*
X3644Y5902D01*
X3617Y5923D01*
X3588Y5942D01*
X3557Y5958D01*
X3525Y5971D01*
X3492Y5981D01*
X3458Y5989D01*
X3440Y5991D01*
D02*
G37*
G36*
X3340D02*
X3321Y5989D01*
X3287Y5981D01*
X3254Y5971D01*
X3223Y5958D01*
X3192Y5942D01*
X3163Y5923D01*
X3135Y5902D01*
X3110Y5879D01*
X3087Y5854D01*
X3066Y5826D01*
X3047Y5797D01*
X3031Y5766D01*
X3018Y5735D01*
X3008Y5702D01*
X3000Y5668D01*
X2998Y5649D01*
X3340D01*
Y5991D01*
D02*
G37*
G36*
X3782Y5549D02*
X3440D01*
Y5207D01*
X3458Y5210D01*
X3492Y5217D01*
X3525Y5227D01*
X3557Y5241D01*
X3588Y5257D01*
X3617Y5275D01*
X3644Y5296D01*
X3670Y5319D01*
X3693Y5345D01*
X3714Y5372D01*
X3732Y5401D01*
X3748Y5432D01*
X3762Y5464D01*
X3772Y5497D01*
X3779Y5531D01*
X3782Y5549D01*
D02*
G37*
G36*
X3340D02*
X2998D01*
X3000Y5531D01*
X3008Y5497D01*
X3018Y5464D01*
X3031Y5432D01*
X3047Y5401D01*
X3066Y5372D01*
X3087Y5345D01*
X3110Y5319D01*
X3135Y5296D01*
X3163Y5275D01*
X3192Y5257D01*
X3223Y5241D01*
X3254Y5227D01*
X3287Y5217D01*
X3321Y5210D01*
X3340Y5207D01*
Y5549D01*
D02*
G37*
G36*
X2390Y5995D02*
X2355Y5993D01*
X2321Y5989D01*
X2287Y5981D01*
X2254Y5971D01*
X2223Y5958D01*
X2192Y5942D01*
X2163Y5923D01*
X2135Y5902D01*
X2110Y5879D01*
X2087Y5854D01*
X2066Y5826D01*
X2047Y5797D01*
X2031Y5766D01*
X2018Y5735D01*
X2008Y5702D01*
X2000Y5668D01*
X1996Y5634D01*
X1994Y5599D01*
X1996Y5565D01*
X2000Y5531D01*
X2008Y5497D01*
X2018Y5464D01*
X2031Y5432D01*
X2047Y5401D01*
X2066Y5372D01*
X2087Y5345D01*
X2110Y5319D01*
X2135Y5296D01*
X2163Y5275D01*
X2192Y5257D01*
X2223Y5241D01*
X2254Y5227D01*
X2287Y5217D01*
X2321Y5210D01*
X2355Y5205D01*
X2390Y5204D01*
X2424Y5205D01*
X2458Y5210D01*
X2492Y5217D01*
X2525Y5227D01*
X2557Y5241D01*
X2588Y5257D01*
X2617Y5275D01*
X2644Y5296D01*
X2670Y5319D01*
X2693Y5345D01*
X2714Y5372D01*
X2732Y5401D01*
X2748Y5432D01*
X2762Y5464D01*
X2772Y5497D01*
X2779Y5531D01*
X2784Y5565D01*
X2785Y5599D01*
X2784Y5634D01*
X2779Y5668D01*
X2772Y5702D01*
X2762Y5735D01*
X2748Y5766D01*
X2732Y5797D01*
X2714Y5826D01*
X2693Y5854D01*
X2670Y5879D01*
X2644Y5902D01*
X2617Y5923D01*
X2588Y5942D01*
X2557Y5958D01*
X2525Y5971D01*
X2492Y5981D01*
X2458Y5989D01*
X2424Y5993D01*
X2390Y5995D01*
D02*
G37*
G36*
X16336Y4362D02*
X16188D01*
Y4194D01*
X16336D01*
Y4362D01*
D02*
G37*
G36*
X7426Y3703D02*
X7278D01*
Y3535D01*
X7426D01*
Y3703D01*
D02*
G37*
G36*
X2390Y3995D02*
X2355Y3993D01*
X2321Y3989D01*
X2287Y3981D01*
X2254Y3971D01*
X2223Y3958D01*
X2192Y3942D01*
X2163Y3923D01*
X2135Y3902D01*
X2110Y3879D01*
X2087Y3854D01*
X2066Y3826D01*
X2047Y3797D01*
X2031Y3766D01*
X2018Y3735D01*
X2008Y3702D01*
X2000Y3668D01*
X1996Y3634D01*
X1994Y3599D01*
X1996Y3565D01*
X2000Y3530D01*
X2008Y3497D01*
X2018Y3464D01*
X2031Y3432D01*
X2047Y3401D01*
X2066Y3372D01*
X2087Y3345D01*
X2110Y3319D01*
X2135Y3296D01*
X2163Y3275D01*
X2192Y3257D01*
X2223Y3241D01*
X2254Y3227D01*
X2287Y3217D01*
X2321Y3210D01*
X2355Y3205D01*
X2390Y3204D01*
X2424Y3205D01*
X2458Y3210D01*
X2492Y3217D01*
X2525Y3227D01*
X2557Y3241D01*
X2588Y3257D01*
X2617Y3275D01*
X2644Y3296D01*
X2670Y3319D01*
X2693Y3345D01*
X2714Y3372D01*
X2732Y3401D01*
X2748Y3432D01*
X2762Y3464D01*
X2772Y3497D01*
X2779Y3530D01*
X2784Y3565D01*
X2785Y3599D01*
X2784Y3634D01*
X2779Y3668D01*
X2772Y3702D01*
X2762Y3735D01*
X2748Y3766D01*
X2732Y3797D01*
X2714Y3826D01*
X2693Y3854D01*
X2670Y3879D01*
X2644Y3902D01*
X2617Y3923D01*
X2588Y3942D01*
X2557Y3958D01*
X2525Y3971D01*
X2492Y3981D01*
X2458Y3989D01*
X2424Y3993D01*
X2390Y3995D01*
D02*
G37*
G36*
X3500Y2219D02*
X3461Y2218D01*
X3422Y2213D01*
X3384Y2206D01*
X3347Y2195D01*
X3310Y2182D01*
X3275Y2165D01*
X3241Y2146D01*
X3208Y2125D01*
X3178Y2100D01*
X3149Y2074D01*
X3123Y2045D01*
X3099Y2015D01*
X3077Y1982D01*
X3058Y1948D01*
X3042Y1913D01*
X3028Y1877D01*
X3018Y1839D01*
X3010Y1801D01*
X3005Y1762D01*
X3004Y1723D01*
X3005Y1684D01*
X3010Y1646D01*
X3018Y1607D01*
X3028Y1570D01*
X3042Y1533D01*
X3058Y1498D01*
X3077Y1464D01*
X3099Y1432D01*
X3123Y1401D01*
X3149Y1372D01*
X3178Y1346D01*
X3208Y1322D01*
X3241Y1300D01*
X3275Y1281D01*
X3310Y1265D01*
X3347Y1251D01*
X3384Y1241D01*
X3422Y1233D01*
X3461Y1229D01*
X3500Y1227D01*
X3539Y1229D01*
X3578Y1233D01*
X3616Y1241D01*
X3653Y1251D01*
X3690Y1265D01*
X3725Y1281D01*
X3759Y1300D01*
X3792Y1322D01*
X3822Y1346D01*
X3851Y1372D01*
X3877Y1401D01*
X3901Y1432D01*
X3923Y1464D01*
X3942Y1498D01*
X3958Y1533D01*
X3972Y1570D01*
X3982Y1607D01*
X3990Y1646D01*
X3995Y1684D01*
X3996Y1723D01*
X3995Y1762D01*
X3990Y1801D01*
X3982Y1839D01*
X3972Y1877D01*
X3958Y1913D01*
X3942Y1948D01*
X3923Y1982D01*
X3901Y2015D01*
X3877Y2045D01*
X3851Y2074D01*
X3822Y2100D01*
X3792Y2125D01*
X3759Y2146D01*
X3725Y2165D01*
X3690Y2182D01*
X3653Y2195D01*
X3616Y2206D01*
X3578Y2213D01*
X3539Y2218D01*
X3500Y2219D01*
D02*
G37*
G36*
X3340Y15318D02*
X3321Y15316D01*
X3287Y15308D01*
X3254Y15298D01*
X3223Y15285D01*
X3192Y15269D01*
X3163Y15250D01*
X3135Y15229D01*
X3110Y15206D01*
X3087Y15180D01*
X3066Y15153D01*
X3047Y15124D01*
X3031Y15093D01*
X3018Y15061D01*
X3008Y15028D01*
X3000Y14995D01*
X2998Y14976D01*
X3340D01*
Y15318D01*
D02*
G37*
G36*
X5326Y14168D02*
X5011D01*
Y13763D01*
X5326D01*
Y14168D01*
D02*
G37*
G36*
X4911D02*
X4595D01*
Y13763D01*
X4911D01*
Y14168D01*
D02*
G37*
G36*
X5326Y13663D02*
X5011D01*
Y13259D01*
X5326D01*
Y13663D01*
D02*
G37*
G36*
X4911D02*
X4595D01*
Y13259D01*
X4911D01*
Y13663D01*
D02*
G37*
G36*
X21000Y19219D02*
X20961Y19218D01*
X20922Y19213D01*
X20884Y19206D01*
X20847Y19195D01*
X20810Y19182D01*
X20775Y19165D01*
X20741Y19146D01*
X20708Y19125D01*
X20678Y19100D01*
X20649Y19074D01*
X20623Y19045D01*
X20599Y19015D01*
X20577Y18982D01*
X20558Y18948D01*
X20542Y18913D01*
X20528Y18877D01*
X20518Y18839D01*
X20510Y18801D01*
X20505Y18762D01*
X20504Y18723D01*
X20505Y18684D01*
X20510Y18646D01*
X20518Y18607D01*
X20528Y18570D01*
X20542Y18533D01*
X20558Y18498D01*
X20577Y18464D01*
X20599Y18432D01*
X20623Y18401D01*
X20649Y18372D01*
X20678Y18346D01*
X20708Y18322D01*
X20741Y18300D01*
X20775Y18281D01*
X20810Y18265D01*
X20847Y18251D01*
X20884Y18241D01*
X20922Y18233D01*
X20961Y18229D01*
X21000Y18227D01*
X21039Y18229D01*
X21078Y18233D01*
X21116Y18241D01*
X21153Y18251D01*
X21190Y18265D01*
X21225Y18281D01*
X21259Y18300D01*
X21292Y18322D01*
X21322Y18346D01*
X21351Y18372D01*
X21377Y18401D01*
X21401Y18432D01*
X21423Y18464D01*
X21442Y18498D01*
X21458Y18533D01*
X21472Y18570D01*
X21482Y18607D01*
X21490Y18646D01*
X21495Y18684D01*
X21496Y18723D01*
X21495Y18762D01*
X21490Y18801D01*
X21482Y18839D01*
X21472Y18877D01*
X21458Y18913D01*
X21442Y18948D01*
X21423Y18982D01*
X21401Y19015D01*
X21377Y19045D01*
X21351Y19074D01*
X21322Y19100D01*
X21292Y19125D01*
X21259Y19146D01*
X21225Y19165D01*
X21190Y19182D01*
X21153Y19195D01*
X21116Y19206D01*
X21078Y19213D01*
X21039Y19218D01*
X21000Y19219D01*
D02*
G37*
G36*
X20911Y17810D02*
X20824D01*
Y17504D01*
X21264D01*
X21262Y17515D01*
X21256Y17546D01*
X21246Y17575D01*
X21234Y17604D01*
X21220Y17632D01*
X21203Y17658D01*
X21184Y17683D01*
X21163Y17705D01*
X21140Y17726D01*
X21116Y17745D01*
X21090Y17762D01*
X21062Y17776D01*
X21033Y17788D01*
X21004Y17798D01*
X20973Y17804D01*
X20942Y17808D01*
X20911Y17810D01*
D02*
G37*
G36*
X20724D02*
X20636D01*
X20605Y17808D01*
X20574Y17804D01*
X20544Y17798D01*
X20514Y17788D01*
X20485Y17776D01*
X20458Y17762D01*
X20431Y17745D01*
X20407Y17726D01*
X20384Y17705D01*
X20363Y17683D01*
X20344Y17658D01*
X20327Y17632D01*
X20313Y17604D01*
X20301Y17575D01*
X20292Y17546D01*
X20285Y17515D01*
X20283Y17504D01*
X20724D01*
Y17810D01*
D02*
G37*
G36*
X21264Y17404D02*
X20774D01*
X20283D01*
X20285Y17392D01*
X20292Y17361D01*
X20301Y17332D01*
X20313Y17303D01*
X20327Y17275D01*
X20344Y17249D01*
X20363Y17225D01*
X20384Y17202D01*
X20407Y17181D01*
X20431Y17162D01*
X20458Y17145D01*
X20485Y17131D01*
X20514Y17119D01*
X20544Y17109D01*
X20574Y17103D01*
X20593Y17100D01*
Y17019D01*
X20574Y17017D01*
X20544Y17010D01*
X20514Y17001D01*
X20485Y16989D01*
X20458Y16975D01*
X20431Y16958D01*
X20407Y16939D01*
X20384Y16918D01*
X20363Y16895D01*
X20344Y16870D01*
X20327Y16844D01*
X20313Y16817D01*
X20301Y16788D01*
X20292Y16758D01*
X20285Y16728D01*
X20281Y16697D01*
X20280Y16666D01*
X20281Y16635D01*
X20285Y16604D01*
X20292Y16574D01*
X20301Y16544D01*
X20313Y16516D01*
X20327Y16488D01*
X20344Y16462D01*
X20363Y16437D01*
X20384Y16414D01*
X20407Y16393D01*
X20431Y16374D01*
X20458Y16358D01*
X20485Y16343D01*
X20514Y16331D01*
X20544Y16322D01*
X20574Y16315D01*
X20605Y16311D01*
X20636Y16310D01*
X20911D01*
X20942Y16311D01*
X20973Y16315D01*
X21004Y16322D01*
X21033Y16331D01*
X21062Y16343D01*
X21090Y16358D01*
X21116Y16374D01*
X21140Y16393D01*
X21163Y16414D01*
X21184Y16437D01*
X21203Y16462D01*
X21220Y16488D01*
X21234Y16516D01*
X21246Y16544D01*
X21256Y16574D01*
X21262Y16604D01*
X21266Y16635D01*
X21268Y16666D01*
X21266Y16697D01*
X21262Y16728D01*
X21256Y16758D01*
X21246Y16788D01*
X21234Y16817D01*
X21220Y16844D01*
X21203Y16870D01*
X21184Y16895D01*
X21163Y16918D01*
X21140Y16939D01*
X21116Y16958D01*
X21090Y16975D01*
X21062Y16989D01*
X21033Y17001D01*
X21004Y17010D01*
X20973Y17017D01*
X20954Y17019D01*
Y17100D01*
X20973Y17103D01*
X21004Y17109D01*
X21033Y17119D01*
X21062Y17131D01*
X21090Y17145D01*
X21116Y17162D01*
X21140Y17181D01*
X21163Y17202D01*
X21184Y17225D01*
X21203Y17249D01*
X21220Y17275D01*
X21234Y17303D01*
X21246Y17332D01*
X21256Y17361D01*
X21262Y17392D01*
X21264Y17404D01*
D02*
G37*
G36*
X20537Y15814D02*
X20513Y15812D01*
X20488Y15808D01*
X20465Y15801D01*
X20442Y15792D01*
X20420Y15780D01*
X20400Y15766D01*
X20382Y15749D01*
X20365Y15731D01*
X20351Y15711D01*
X20339Y15689D01*
X20329Y15666D01*
X20322Y15642D01*
X20318Y15618D01*
X20317Y15593D01*
X20318Y15569D01*
X20322Y15544D01*
X20329Y15520D01*
X20339Y15498D01*
X20351Y15476D01*
X20365Y15456D01*
X20382Y15437D01*
X20400Y15421D01*
X20420Y15407D01*
X20442Y15395D01*
X20465Y15385D01*
X20488Y15378D01*
X20513Y15374D01*
X20537Y15373D01*
X20562Y15374D01*
X20586Y15378D01*
X20610Y15385D01*
X20633Y15395D01*
X20655Y15407D01*
X20675Y15421D01*
X20693Y15437D01*
X20710Y15456D01*
X20724Y15476D01*
X20736Y15498D01*
X20745Y15520D01*
X20752Y15544D01*
X20756Y15569D01*
X20758Y15593D01*
X20756Y15618D01*
X20752Y15642D01*
X20745Y15666D01*
X20736Y15689D01*
X20724Y15711D01*
X20710Y15731D01*
X20693Y15749D01*
X20675Y15766D01*
X20655Y15780D01*
X20633Y15792D01*
X20610Y15801D01*
X20586Y15808D01*
X20562Y15812D01*
X20537Y15814D01*
D02*
G37*
G36*
X18826Y13912D02*
X18658D01*
Y13754D01*
X18826D01*
Y13912D01*
D02*
G37*
G36*
Y13654D02*
X18658D01*
Y13495D01*
X18826D01*
Y13654D01*
D02*
G37*
G36*
X5773Y12630D02*
X5575D01*
Y12422D01*
X5773D01*
Y12630D01*
D02*
G37*
G36*
X5901Y12298D02*
X5733D01*
Y12149D01*
X5901D01*
Y12298D01*
D02*
G37*
G36*
X3440Y12318D02*
Y11976D01*
X3782D01*
X3779Y11995D01*
X3772Y12028D01*
X3762Y12061D01*
X3748Y12093D01*
X3732Y12124D01*
X3714Y12153D01*
X3693Y12180D01*
X3670Y12206D01*
X3644Y12229D01*
X3617Y12250D01*
X3588Y12269D01*
X3557Y12285D01*
X3525Y12298D01*
X3492Y12308D01*
X3458Y12316D01*
X3440Y12318D01*
D02*
G37*
G36*
X3340Y12318D02*
X3321Y12316D01*
X3287Y12308D01*
X3254Y12298D01*
X3223Y12285D01*
X3192Y12269D01*
X3163Y12250D01*
X3135Y12229D01*
X3110Y12206D01*
X3087Y12180D01*
X3066Y12153D01*
X3047Y12124D01*
X3031Y12093D01*
X3018Y12061D01*
X3008Y12028D01*
X3000Y11995D01*
X2998Y11976D01*
X3340D01*
Y12318D01*
D02*
G37*
G36*
Y11876D02*
X2998D01*
X3000Y11857D01*
X3008Y11824D01*
X3018Y11791D01*
X3031Y11759D01*
X3047Y11728D01*
X3066Y11699D01*
X3087Y11672D01*
X3110Y11646D01*
X3135Y11623D01*
X3163Y11602D01*
X3192Y11583D01*
X3223Y11567D01*
X3254Y11554D01*
X3287Y11544D01*
X3321Y11536D01*
X3340Y11534D01*
Y11876D01*
D02*
G37*
G36*
X3782D02*
X3440D01*
Y11534D01*
X3458Y11536D01*
X3492Y11544D01*
X3525Y11554D01*
X3557Y11567D01*
X3588Y11583D01*
X3617Y11602D01*
X3644Y11623D01*
X3670Y11646D01*
X3693Y11672D01*
X3714Y11699D01*
X3732Y11728D01*
X3748Y11759D01*
X3762Y11791D01*
X3772Y11824D01*
X3779Y11857D01*
X3782Y11876D01*
D02*
G37*
G36*
X5326Y11567D02*
X5011D01*
Y11162D01*
X5326D01*
Y11567D01*
D02*
G37*
G36*
X4911D02*
X4595D01*
Y11162D01*
X4911D01*
Y11567D01*
D02*
G37*
G36*
X5326Y11062D02*
X5011D01*
Y10658D01*
X5326D01*
Y11062D01*
D02*
G37*
G36*
X4911D02*
X4595D01*
Y10658D01*
X4911D01*
Y11062D01*
D02*
G37*
G36*
X7495Y10002D02*
X7347D01*
Y9834D01*
X7495D01*
Y10002D01*
D02*
G37*
G36*
X2390Y10322D02*
X2355Y10320D01*
X2321Y10316D01*
X2287Y10308D01*
X2254Y10298D01*
X2223Y10285D01*
X2192Y10269D01*
X2163Y10250D01*
X2135Y10229D01*
X2110Y10206D01*
X2087Y10180D01*
X2066Y10153D01*
X2047Y10124D01*
X2031Y10093D01*
X2018Y10061D01*
X2008Y10028D01*
X2000Y9995D01*
X1996Y9960D01*
X1994Y9926D01*
X1996Y9891D01*
X2000Y9857D01*
X2008Y9824D01*
X2018Y9791D01*
X2031Y9759D01*
X2047Y9728D01*
X2066Y9699D01*
X2087Y9672D01*
X2110Y9646D01*
X2135Y9623D01*
X2163Y9602D01*
X2192Y9583D01*
X2223Y9567D01*
X2254Y9554D01*
X2287Y9544D01*
X2321Y9536D01*
X2355Y9532D01*
X2390Y9530D01*
X2424Y9532D01*
X2458Y9536D01*
X2492Y9544D01*
X2525Y9554D01*
X2557Y9567D01*
X2588Y9583D01*
X2617Y9602D01*
X2644Y9623D01*
X2670Y9646D01*
X2693Y9672D01*
X2714Y9699D01*
X2732Y9728D01*
X2748Y9759D01*
X2762Y9791D01*
X2772Y9824D01*
X2779Y9857D01*
X2784Y9891D01*
X2785Y9926D01*
X2784Y9960D01*
X2779Y9995D01*
X2772Y10028D01*
X2762Y10061D01*
X2748Y10093D01*
X2732Y10124D01*
X2714Y10153D01*
X2693Y10180D01*
X2670Y10206D01*
X2644Y10229D01*
X2617Y10250D01*
X2588Y10269D01*
X2557Y10285D01*
X2525Y10298D01*
X2492Y10308D01*
X2458Y10316D01*
X2424Y10320D01*
X2390Y10322D01*
D02*
G37*
G36*
X15783Y12217D02*
X15624D01*
Y12048D01*
X15783D01*
Y12217D01*
D02*
G37*
G36*
X13177Y10455D02*
X13028D01*
Y10287D01*
X13177D01*
Y10455D01*
D02*
G37*
G36*
X12928D02*
X12780D01*
Y10287D01*
X12928D01*
Y10455D01*
D02*
G37*
G36*
X12547Y10425D02*
X12379D01*
Y10277D01*
X12547D01*
Y10425D01*
D02*
G37*
G36*
X9149Y10654D02*
X8991D01*
Y10486D01*
X9149D01*
Y10654D01*
D02*
G37*
G36*
X8905Y9992D02*
X8747D01*
Y9824D01*
X8905D01*
Y9992D01*
D02*
G37*
G36*
X3440Y8991D02*
Y8649D01*
X3782D01*
X3779Y8668D01*
X3772Y8702D01*
X3762Y8735D01*
X3748Y8766D01*
X3732Y8797D01*
X3714Y8826D01*
X3693Y8854D01*
X3670Y8879D01*
X3644Y8902D01*
X3617Y8923D01*
X3588Y8942D01*
X3557Y8958D01*
X3525Y8971D01*
X3492Y8981D01*
X3458Y8989D01*
X3440Y8991D01*
D02*
G37*
G36*
X3340D02*
X3321Y8989D01*
X3287Y8981D01*
X3254Y8971D01*
X3223Y8958D01*
X3192Y8942D01*
X3163Y8923D01*
X3135Y8902D01*
X3110Y8879D01*
X3087Y8854D01*
X3066Y8826D01*
X3047Y8797D01*
X3031Y8766D01*
X3018Y8735D01*
X3008Y8702D01*
X3000Y8668D01*
X2998Y8649D01*
X3340D01*
Y8991D01*
D02*
G37*
G36*
X5326Y7809D02*
X5011D01*
Y7405D01*
X5326D01*
Y7809D01*
D02*
G37*
G36*
X4911D02*
X4595D01*
Y7405D01*
X4911D01*
Y7809D01*
D02*
G37*
G36*
X5326Y7305D02*
X5011D01*
Y6901D01*
X5326D01*
Y7305D01*
D02*
G37*
G36*
X4911D02*
X4595D01*
Y6901D01*
X4911D01*
Y7305D01*
D02*
G37*
G36*
X14545Y5976D02*
X14446D01*
Y5811D01*
X14459Y5814D01*
X14477Y5821D01*
X14494Y5832D01*
X14509Y5844D01*
X14521Y5859D01*
X14532Y5876D01*
X14539Y5894D01*
X14544Y5913D01*
X14545Y5933D01*
Y5976D01*
D02*
G37*
G36*
X15048Y4598D02*
X14900D01*
Y4430D01*
X15048D01*
Y4598D01*
D02*
G37*
G36*
X14610Y4419D02*
X14402D01*
Y4221D01*
X14610D01*
Y4419D01*
D02*
G37*
G36*
X13810D02*
X13603D01*
Y4221D01*
X13810D01*
Y4419D01*
D02*
G37*
G36*
X4911Y5231D02*
X4595D01*
Y4826D01*
X4911D01*
Y5231D01*
D02*
G37*
G36*
Y4726D02*
X4595D01*
Y4322D01*
X4911D01*
Y4726D01*
D02*
G37*
G36*
X9643Y3617D02*
X9485D01*
Y3448D01*
X9643D01*
Y3617D01*
D02*
G37*
G36*
X13301Y2250D02*
X13050D01*
Y1769D01*
X13301D01*
Y2250D01*
D02*
G37*
G36*
X12950D02*
X12699D01*
Y1769D01*
X12950D01*
Y2250D01*
D02*
G37*
G36*
X12301Y2250D02*
X12050D01*
Y1769D01*
X12301D01*
Y2250D01*
D02*
G37*
G36*
X11950D02*
X11699D01*
Y1769D01*
X11950D01*
Y2250D01*
D02*
G37*
G36*
X13301Y1678D02*
X13050D01*
Y1196D01*
X13301D01*
Y1678D01*
D02*
G37*
G36*
X12950D02*
X12699D01*
Y1196D01*
X12950D01*
Y1678D01*
D02*
G37*
G36*
X12301D02*
X12050D01*
Y1196D01*
X12301D01*
Y1678D01*
D02*
G37*
G36*
X11950D02*
X11699D01*
Y1196D01*
X11950D01*
Y1678D01*
D02*
G37*
%LPD*%
D14*
X6789Y15160D02*
Y15288D01*
X7722Y12969D02*
Y14226D01*
X6762Y15315D02*
X6789Y15288D01*
Y15160D02*
X7722Y14226D01*
X7919Y12969D02*
Y14315D01*
X7116Y15118D02*
Y15315D01*
Y15118D02*
X7919Y14315D01*
X2838Y17874D02*
X14679D01*
X14858Y17694D01*
X1821Y16857D02*
X2838Y17874D01*
X1614Y17008D02*
X2638Y18032D01*
X14745D02*
X15065Y17712D01*
X2638Y18032D02*
X14745D01*
X8153Y18190D02*
X8473D01*
X8482Y18199D01*
X1407Y17106D02*
X2500Y18199D01*
X14802D02*
X15360Y17641D01*
X2500Y18199D02*
X8144D01*
X8482D02*
X14802D01*
X8144D02*
X8153Y18190D01*
X8417Y18356D02*
X14869D01*
X8209D02*
X8218Y18347D01*
X1230Y17264D02*
X2323Y18356D01*
X14869D02*
X15519Y17706D01*
X2323Y18356D02*
X8209D01*
X8408Y18347D02*
X8417Y18356D01*
X8218Y18347D02*
X8408D01*
X4231Y18602D02*
X5394D01*
X3382Y19452D02*
X4231Y18602D01*
X16894Y17204D02*
X16921Y17177D01*
X16770Y17419D02*
X16894Y17295D01*
Y17204D02*
Y17295D01*
X16764Y17419D02*
X16770D01*
X17032Y17874D02*
Y17900D01*
X16866Y17709D02*
X17032Y17874D01*
X16797Y17709D02*
X16866D01*
X16764Y17675D02*
X16797Y17709D01*
X12978Y10879D02*
X12998D01*
X5747Y19026D02*
X6171D01*
X6575Y18622D01*
X5390Y19383D02*
X5747Y19026D01*
X4346Y19265D02*
X4753Y18858D01*
X5778D02*
X6011Y18624D01*
X4753Y18858D02*
X5778D01*
X6575Y18622D02*
X6988D01*
X6011Y18624D02*
X6189D01*
X6191Y18622D01*
X3382Y19452D02*
Y19923D01*
Y20128D01*
X12411Y19596D02*
X13406Y18602D01*
X12400Y20146D02*
X12411Y20135D01*
Y19596D02*
Y20135D01*
X13406Y18602D02*
X13706D01*
X14000Y20146D02*
X14006Y20141D01*
Y18602D02*
Y20141D01*
X13071Y18602D02*
X13081D01*
X12337Y19336D02*
X13071Y18602D01*
X11666Y19336D02*
X12337D01*
X12703Y18605D02*
Y18636D01*
X12161Y19178D02*
X12703Y18636D01*
X10742Y19178D02*
X12161D01*
X9342Y19554D02*
X9876Y19020D01*
X11963D01*
X12368Y18615D01*
X10177Y5285D02*
Y6510D01*
X9242Y7047D02*
X9639D01*
X10177Y6510D01*
X9642Y4750D02*
X10177Y5285D01*
X9642Y4314D02*
Y4750D01*
X12821Y13430D02*
X14049Y14658D01*
X12821Y11226D02*
Y13430D01*
X14049Y14658D02*
X14061D01*
X13428Y14668D02*
X13736D01*
X12358Y13598D02*
X13428Y14668D01*
X12358Y11582D02*
Y13598D01*
X11935Y10004D02*
Y10475D01*
X11931Y10000D02*
X11935Y10004D01*
X12719Y11125D02*
X12821Y11226D01*
X13106Y14688D02*
Y14688D01*
X12161Y13743D02*
X13106Y14688D01*
X12161Y11582D02*
Y13743D01*
X11965Y11582D02*
Y13822D01*
X12685Y14543D01*
X11476Y11025D02*
X11573Y10928D01*
X11476Y14144D02*
X11768Y14435D01*
X11476Y11025D02*
Y14144D01*
X11573Y10928D02*
X11704D01*
X11768Y14435D02*
Y14717D01*
X11704Y14115D02*
X12083Y14494D01*
X11704Y11518D02*
Y14115D01*
X12083Y14494D02*
Y14717D01*
X17717Y17756D02*
X17788Y17828D01*
X18441D01*
X17717Y17539D02*
Y17756D01*
X15000Y18563D02*
Y20146D01*
X15878Y17685D02*
X16042D01*
X16051Y17675D01*
X15000Y18563D02*
X15878Y17685D01*
X17620Y18788D02*
X17826D01*
X18216Y18398D02*
X18441D01*
X17618Y18789D02*
X17620Y18788D01*
X17826D02*
X18216Y18398D01*
X9705Y7490D02*
X10522Y6673D01*
Y4872D02*
Y6673D01*
X8698Y7490D02*
X9705D01*
X10335Y4798D02*
Y6575D01*
X9626Y7283D02*
X10335Y6575D01*
X8848Y7283D02*
X9626D01*
X8450Y6232D02*
Y6885D01*
X8848Y7283D01*
X8144Y6371D02*
Y6936D01*
X8698Y7490D01*
X10899Y5045D02*
Y6856D01*
X9859Y7896D02*
X10899Y6856D01*
X8402Y7896D02*
X9859D01*
X8549Y7709D02*
X9771D01*
X10709Y4931D02*
Y6772D01*
X9771Y7709D02*
X10709Y6772D01*
Y4931D02*
X12200Y3440D01*
X18344D01*
X10899Y5045D02*
X12291Y3654D01*
X19212D01*
X12143Y3251D02*
X16893D01*
X10522Y4872D02*
X12143Y3251D01*
X10335Y4798D02*
X12078Y3054D01*
X16032D01*
X1230Y7147D02*
X1810Y6568D01*
X1230Y7147D02*
Y17264D01*
X1810Y6568D02*
X2390D01*
X1407Y8001D02*
Y17106D01*
X1614Y12765D02*
Y17008D01*
X1407Y8001D02*
X2339Y7070D01*
X1614Y12765D02*
X1867Y12512D01*
X1821Y13424D02*
X2319Y12926D01*
X1821Y13424D02*
Y16857D01*
X10222Y2975D02*
X10572D01*
X10630Y699D02*
Y2918D01*
X10572Y2975D02*
X10630Y2918D01*
X10767Y561D02*
X20358D01*
X10630Y699D02*
X10767Y561D01*
X20358D02*
X20690Y894D01*
X17713Y7267D02*
Y7641D01*
X17624Y7267D02*
X17713D01*
X19212Y3654D02*
X20026Y2840D01*
X17909Y7641D02*
Y7965D01*
X17890Y7985D02*
X17909Y7965D01*
Y6361D02*
Y6893D01*
X17880Y6331D02*
X17909Y6361D01*
X17516Y6893D02*
Y7158D01*
X17624Y7267D01*
X17506Y8024D02*
X17516Y8015D01*
Y7650D02*
Y8015D01*
X1867Y12512D02*
X2975D01*
X2339Y7070D02*
X2841D01*
X16893Y3251D02*
X17690Y2454D01*
X16032Y3054D02*
X16610Y2476D01*
X12685Y14651D02*
X12713Y14678D01*
X12685Y14543D02*
Y14651D01*
X7958Y9511D02*
X8036Y9432D01*
X9041D02*
X9189Y9580D01*
X8036Y9432D02*
X9041D01*
X7919Y9511D02*
X7958D01*
X16167Y6537D02*
Y6845D01*
X16110Y6479D02*
X16167Y6537D01*
X15990Y7778D02*
X16168Y7600D01*
X14563Y6479D02*
X16110D01*
X16167Y6845D02*
X16168Y6846D01*
Y7600D01*
X15972Y1174D02*
X16000Y1146D01*
X15595Y19481D02*
X16866D01*
X15537Y19127D02*
X15681Y18983D01*
X15537Y19127D02*
Y19423D01*
X15595Y19481D01*
X15681Y18983D02*
X16026D01*
X8805Y4835D02*
Y4845D01*
X8687Y4963D02*
X8805Y4845D01*
X8687Y4963D02*
Y5603D01*
X15596Y4393D02*
Y4432D01*
X12161Y10623D02*
X12309Y10475D01*
X12161Y10623D02*
Y10864D01*
X12358Y10505D02*
Y10864D01*
X12329Y10475D02*
X12358Y10505D01*
X12309Y10475D02*
X12329D01*
X9189Y9580D02*
Y9589D01*
X8736Y11538D02*
X8746D01*
X9533Y10022D02*
Y10741D01*
X8746Y11538D02*
X8805Y11479D01*
Y11469D02*
X9533Y10741D01*
X8805Y11469D02*
Y11479D01*
X14360Y7648D02*
Y7657D01*
X14563Y6873D02*
X14740D01*
X14868Y7001D01*
X14888D01*
X14563Y6676D02*
X15163D01*
X15213Y6725D01*
X14729Y7246D02*
X14849Y7366D01*
X14511Y7246D02*
X14729D01*
X14396Y7130D02*
Y7198D01*
X14463D02*
X14511Y7246D01*
X14396Y7198D02*
X14463D01*
X14849Y7366D02*
X14987D01*
X18268Y18122D02*
X18599D01*
X17746Y18192D02*
X18198D01*
X18599Y18122D02*
X18697Y18024D01*
X18198Y18192D02*
X18268Y18122D01*
X15519Y14795D02*
Y17706D01*
X15697Y14617D02*
X16748D01*
X15519Y14795D02*
X15697Y14617D01*
X14987Y7366D02*
X15144Y7522D01*
X15921Y7837D02*
Y7847D01*
X15980Y7778D02*
X15990D01*
X15921Y7837D02*
X15980Y7778D01*
X10843Y10446D02*
X10872Y10475D01*
X15065Y12050D02*
X15423Y11692D01*
X15065Y12050D02*
Y17712D01*
X18697Y17906D02*
Y18024D01*
Y17906D02*
X18776Y17828D01*
X18441Y18398D02*
X18441Y18398D01*
X18785Y18389D02*
X18982D01*
X18776Y18398D02*
X18785Y18389D01*
X19167Y17493D02*
Y18203D01*
X18982Y18389D02*
X19167Y18203D01*
X18980Y17306D02*
X19167Y17493D01*
X17763Y17306D02*
X18980D01*
X17200Y16742D02*
X17763Y17306D01*
X17200Y16724D02*
Y16742D01*
X17093Y16617D02*
X17200Y16724D01*
X17083Y16617D02*
X17093D01*
X16000Y20107D02*
X16152Y19956D01*
X16342D02*
X16531Y19767D01*
X16000Y20107D02*
Y20146D01*
X16152Y19956D02*
X16342D01*
X17000Y19615D02*
Y20146D01*
X16866Y19481D02*
X17000Y19615D01*
X16026Y18983D02*
X16059Y18950D01*
X10400Y20146D02*
X10421Y20126D01*
X10400Y20146D02*
X10400Y20146D01*
X10421Y19499D02*
Y20126D01*
X9342Y19554D02*
Y20089D01*
X9400Y20146D01*
X7398Y19921D02*
X7400Y19923D01*
X8400Y20146D02*
X8421Y20125D01*
X8400Y20146D02*
X8400Y20146D01*
X8421Y19452D02*
Y20125D01*
X3382Y20128D02*
X3400Y20146D01*
X4346Y20093D02*
X4400Y20146D01*
X4346Y19265D02*
Y20093D01*
X5390Y19383D02*
Y20136D01*
X5400Y20146D01*
X11397Y20143D02*
X11400Y20146D01*
X11397Y19606D02*
Y20143D01*
X16848Y2476D02*
X17000Y2325D01*
Y2300D02*
Y2325D01*
X16610Y2476D02*
X16848D01*
X18000Y2300D02*
Y2302D01*
X17848Y2454D02*
X18000Y2302D01*
X17690Y2454D02*
X17848D01*
X18943Y2357D02*
Y2840D01*
Y2357D02*
X19000Y2300D01*
X20848Y894D02*
X21000Y1045D01*
Y1146D01*
X20690Y894D02*
X20848D01*
X20000Y2300D02*
X20026Y2326D01*
Y2840D01*
X7398Y19127D02*
Y19921D01*
Y19127D02*
X7949Y18576D01*
X8313D01*
X9012Y18861D02*
X11433D01*
X8421Y19452D02*
X9012Y18861D01*
X10421Y19499D02*
X10742Y19178D01*
X11397Y19606D02*
X11666Y19336D01*
X19839Y19530D02*
X19934Y19625D01*
X19839Y13704D02*
Y19530D01*
X19934Y20080D02*
X20000Y20146D01*
X19934Y19625D02*
Y20080D01*
X19291Y19803D02*
X19573Y19520D01*
X19000Y19954D02*
X19152Y19803D01*
X19291D01*
X19573Y15928D02*
Y19520D01*
X19000Y19954D02*
Y20146D01*
X18000Y19916D02*
X18150Y19767D01*
X18490D01*
X19326Y18931D01*
X18000Y19916D02*
Y20146D01*
X21000Y19916D02*
Y20146D01*
X20742Y19765D02*
X20848D01*
X20025Y13388D02*
Y19047D01*
X20848Y19765D02*
X21000Y19916D01*
X20025Y19047D02*
X20742Y19765D01*
X19324Y12687D02*
X20025Y13388D01*
X19326Y16793D02*
Y18931D01*
X18894Y16361D02*
X19326Y16793D01*
X11433Y18861D02*
X11650Y18644D01*
X19268Y15623D02*
X19573Y15928D01*
X14858Y11725D02*
Y17694D01*
X18894Y16117D02*
Y16361D01*
X18870Y12687D02*
X19324D01*
X19353Y13218D02*
X19839Y13704D01*
X18891Y13218D02*
X19353D01*
X18865Y12692D02*
X18870Y12687D01*
X18865Y13192D02*
X18891Y13218D01*
X18900Y15623D02*
X19268D01*
X18894Y15617D02*
X18900Y15623D01*
X15423Y11692D02*
X16719D01*
X15331Y11253D02*
X18648D01*
X14858Y11725D02*
X15331Y11253D01*
X18648D02*
X18874Y11479D01*
Y11639D01*
X15359Y15058D02*
Y15190D01*
Y15058D02*
X15360Y15057D01*
Y14412D02*
X15596Y14176D01*
X15360Y15190D02*
Y17641D01*
Y14412D02*
Y15057D01*
X15596Y14176D02*
X17053D01*
X15359Y15190D02*
X15360Y15190D01*
X18344Y3440D02*
X18943Y2840D01*
X7697Y7192D02*
X8402Y7896D01*
X7697Y6621D02*
Y7192D01*
X7894Y7054D02*
X8549Y7709D01*
X17053Y14176D02*
X17494Y14617D01*
X18894D01*
X9194Y9594D02*
Y10037D01*
X9189Y9589D02*
X9194Y9594D01*
Y10037D02*
X9199Y10042D01*
X7924Y10047D02*
X7929Y10052D01*
X7924Y9516D02*
Y10047D01*
X7919Y9511D02*
X7924Y9516D01*
X7880Y15209D02*
X8169Y14920D01*
Y12719D02*
Y14920D01*
X8490Y14796D02*
X8913Y15219D01*
X8490Y12641D02*
Y14796D01*
X8372Y12522D02*
X8490Y12641D01*
X12619Y11125D02*
X12719D01*
X9533Y10022D02*
X9907Y9648D01*
X9976Y9580D02*
Y9589D01*
X9907Y9648D02*
X9917D01*
X9976Y9589D01*
X7894Y6621D02*
Y7054D01*
X9907Y4560D02*
X10193D01*
X10213Y4540D01*
X9888Y4580D02*
X9907Y4560D01*
X9642Y4314D02*
X10222Y3733D01*
X8144Y6174D02*
X8392D01*
X8450Y6232D01*
X11935Y10475D02*
X11965Y10505D01*
X3311Y6599D02*
X3390D01*
X2841Y7070D02*
X3311Y6599D01*
X10537Y4068D02*
X11759Y2846D01*
X12152D01*
X10510Y4095D02*
X10537Y4068D01*
X10213Y4146D02*
X10264Y4095D01*
X10510D01*
X9976Y9176D02*
Y9186D01*
Y9176D02*
X10035Y9117D01*
X10108D02*
X10166Y9059D01*
X10035Y9117D02*
X10108D01*
X10166Y8859D02*
Y9059D01*
Y8859D02*
X10193Y8831D01*
X12152Y2846D02*
X14240D01*
X14199Y6026D02*
Y6164D01*
X14317Y6282D01*
X15203D02*
X15252Y6233D01*
X14317Y6282D02*
X14563D01*
X15203D01*
X15450Y7304D02*
X15478Y7276D01*
X15450Y7304D02*
Y7522D01*
Y7740D01*
X15144Y7522D02*
X15450D01*
Y7740D02*
X15488Y7778D01*
X14612Y1568D02*
Y2474D01*
X15006Y1174D02*
X15972D01*
X14612Y1568D02*
X15006Y1174D01*
X14240Y2846D02*
X14612Y2474D01*
X8530Y5603D02*
X8687D01*
X8154Y5770D02*
X8362D01*
X8530Y5603D01*
X8144Y5780D02*
X8154Y5770D01*
X9041Y2975D02*
X9829D01*
X9041Y3005D02*
X9061Y2985D01*
X10222Y2975D02*
Y3339D01*
X8274Y2975D02*
X9041D01*
X7860Y3389D02*
Y3753D01*
Y3389D02*
X8274Y2975D01*
X8741Y11917D02*
X8746Y11922D01*
X8736Y11538D02*
X8741Y11543D01*
X8707Y11961D02*
X8746Y11922D01*
X12619Y10928D02*
X12949D01*
X12978Y10879D02*
Y10898D01*
X12998Y10879D02*
X12998Y10879D01*
X11965Y10505D02*
Y10864D01*
X12949Y10928D02*
X12978Y10898D01*
X2975Y12512D02*
X3390Y12926D01*
X2319D02*
X2390D01*
X8169Y12522D02*
X8372D01*
X17000Y20146D02*
Y20723D01*
Y21300D01*
X16000Y20146D02*
Y20723D01*
Y21300D01*
D15*
X20701Y7444D02*
X21335D01*
X21502Y6027D02*
Y7276D01*
X21335Y7444D02*
X21502Y7276D01*
X21354Y5879D02*
X21502Y6027D01*
X21354Y5741D02*
Y5879D01*
X20669Y7475D02*
X20701Y7444D01*
D16*
X16000Y2300D02*
Y2300D01*
X9000Y2300D02*
Y2623D01*
D19*
X6513Y3907D02*
X7500Y4894D01*
X6250Y3907D02*
X6513D01*
X6043Y3612D02*
Y3701D01*
X6250Y3907D01*
X3915Y4068D02*
X4357Y3626D01*
X4947D02*
X4961Y3612D01*
X4357Y3626D02*
X4947D01*
X2890Y4068D02*
X3915D01*
X2390Y7568D02*
X2876Y8054D01*
X3624D01*
X4006Y8435D01*
X4961D01*
X6043Y8346D02*
X6250Y8140D01*
X6682D01*
X6043Y8346D02*
Y8435D01*
X6682Y8140D02*
X7500Y7322D01*
X3654Y14452D02*
X4015Y14813D01*
X2915Y14452D02*
X3654D01*
X4015Y14813D02*
X4961D01*
X6043D02*
X6633D01*
X6043Y11112D02*
X6046Y11115D01*
X6043Y10138D02*
X6250Y10344D01*
X6043Y10049D02*
Y10138D01*
X6250Y10344D02*
X6755D01*
X4291Y10089D02*
X4921D01*
X4961Y10049D01*
X3934Y10446D02*
X4291Y10089D01*
X2870Y10446D02*
X3934D01*
X10678Y15561D02*
X11207Y15032D01*
X10021Y15561D02*
X10678D01*
X9822D02*
X9832Y15551D01*
X2390Y15270D02*
X2680Y15561D01*
X10011Y15551D02*
X10021Y15561D01*
X2680D02*
X9822D01*
X9832Y15551D02*
X10011D01*
X15399Y3986D02*
X15468Y4055D01*
Y4221D01*
X15098Y3986D02*
X15399D01*
X2390Y8568D02*
X2437Y8615D01*
X11931Y10000D02*
X13379D01*
X11810D02*
X11931D01*
X13379D02*
X13559Y10180D01*
X10872Y10475D02*
X11335D01*
X11810Y10000D01*
X10411Y8277D02*
X10826D01*
X10841Y8262D01*
X9492Y9196D02*
X10094Y8593D01*
X10094D01*
X10411Y8277D01*
X6312Y12663D02*
X6359Y12616D01*
X6304Y6206D02*
X6837D01*
X6359Y12616D02*
X6384Y12591D01*
X9189Y9196D02*
Y9196D01*
X2614Y9245D02*
X9140D01*
X2437Y9068D02*
X2614Y9245D01*
X9140D02*
X9189Y9196D01*
Y9196D02*
X9492D01*
X16138Y4786D02*
Y4806D01*
X16098Y4865D02*
X16138Y4826D01*
X13869Y6582D02*
X13874Y6578D01*
X13072Y6582D02*
X13869D01*
X13067Y6587D02*
X13072Y6582D01*
X15724Y4865D02*
X16098D01*
X15557D02*
X15724D01*
Y4643D02*
Y4865D01*
X6719Y12326D02*
X7526D01*
X8421Y4865D02*
X8618Y4668D01*
X8293Y4865D02*
Y4875D01*
X8618Y4127D02*
Y4668D01*
X8293Y4865D02*
X8421D01*
X8224Y4944D02*
X8293Y4875D01*
X9130Y11538D02*
X9839D01*
X9967Y11666D01*
Y12680D01*
X13559Y10180D02*
Y10731D01*
X12998Y10879D02*
X13411D01*
X13559Y10731D01*
X7526Y12326D02*
X7624Y12424D01*
X6679Y5977D02*
X7053D01*
X6669Y5967D02*
X6679Y5977D01*
X7053D02*
X7500D01*
X7598Y6076D01*
X6870Y6174D02*
X7053D01*
X6837Y6206D02*
X6870Y6174D01*
X6384Y12591D02*
X6798D01*
X6866Y12522D01*
X9967Y12680D02*
X10813D01*
X9140D02*
X9967D01*
X10813D02*
X10843Y12650D01*
X9140Y12680D02*
X9150Y12690D01*
X12663Y4342D02*
Y4461D01*
X12477Y4156D02*
X12663Y4342D01*
X12477Y3978D02*
Y4156D01*
X10843Y14776D02*
X10857Y14791D01*
X15468Y4776D02*
X15557Y4865D01*
X15468Y4643D02*
Y4776D01*
X9061Y3418D02*
Y5200D01*
X9041Y3398D02*
X9061Y3418D01*
Y5200D02*
X9081Y5219D01*
X8741Y11543D02*
Y11917D01*
X8411Y12070D02*
X8520Y11961D01*
X8352Y12129D02*
X8411Y12070D01*
X8520Y11961D02*
X8707D01*
X8169Y12129D02*
X8352D01*
X9071Y6361D02*
X9100Y6391D01*
X9602D01*
X9770Y6223D01*
Y5544D02*
Y6223D01*
X9445Y5219D02*
X9770Y5544D01*
X9081Y5219D02*
X9445D01*
X7063Y13536D02*
X7329Y13270D01*
X7526Y12969D02*
Y13920D01*
X6633Y14813D02*
X7526Y13920D01*
X6876Y11115D02*
X7329Y11568D01*
X7722Y10961D02*
Y11066D01*
X7545Y10784D02*
X7722Y10961D01*
X7545Y10446D02*
Y10784D01*
X7526Y11115D02*
Y11879D01*
X6856Y9924D02*
Y10032D01*
X7270Y10446D01*
X7545D01*
X6755Y10344D02*
X7526Y11115D01*
X7004Y4146D02*
X7476D01*
X6858Y4001D02*
X7004Y4146D01*
X7500Y4894D02*
Y5530D01*
X6768Y3546D02*
X6858Y3636D01*
Y4001D01*
X6359Y12380D02*
X6364Y12375D01*
X6354Y12680D02*
X6359Y12675D01*
X9071Y6361D02*
Y6653D01*
X6285Y13713D02*
X6886D01*
X7063Y13536D01*
X7329Y12969D02*
Y13270D01*
X6046Y11115D02*
X6876D01*
X7329Y11568D02*
Y11879D01*
X6866Y12522D02*
X7079D01*
X2390Y14926D02*
Y15270D01*
X2437Y8615D02*
Y9068D01*
X2390Y10926D02*
X2870Y10446D01*
X4297Y11833D02*
X6937D01*
X7079Y11975D01*
X3390Y10926D02*
X4297Y11833D01*
X8746Y12306D02*
Y12680D01*
X8726Y12326D02*
X8746Y12306D01*
X8169Y12326D02*
X8726D01*
X7722Y11066D02*
X7929Y10859D01*
Y10446D02*
Y10859D01*
X7722Y11066D02*
Y11879D01*
X8318Y10441D02*
Y10844D01*
X8313Y10436D02*
X8318Y10441D01*
Y10844D02*
X8323Y10849D01*
X8697Y10436D02*
X8717Y10456D01*
Y11154D01*
X8323Y11243D02*
X8628D01*
X8717Y11154D01*
X8087Y11243D02*
X8323D01*
X7919Y11410D02*
X8087Y11243D01*
X7919Y11410D02*
Y11879D01*
X8244Y4137D02*
Y4530D01*
X8008Y4944D02*
X8224D01*
X7894Y5058D02*
Y5530D01*
Y5058D02*
X8008Y4944D01*
X7850Y4156D02*
Y4520D01*
X7697Y4674D02*
X7850Y4520D01*
X7476Y4422D02*
X7697Y4643D01*
X7850Y4156D02*
X7860Y4146D01*
X7476D02*
Y4422D01*
X7697Y4643D02*
Y5530D01*
X8682Y5982D02*
Y6356D01*
Y5982D02*
X8687Y5977D01*
X8677Y6361D02*
X8682Y6356D01*
X8144Y5977D02*
X8687D01*
X8687Y5977D01*
X7053Y6371D02*
Y6518D01*
X6305Y4963D02*
X7043D01*
X7303Y5223D02*
Y5530D01*
X7043Y4963D02*
X7303Y5223D01*
X6364Y7178D02*
X7053D01*
X7303Y6928D01*
Y6621D02*
Y6928D01*
X2390Y13926D02*
X2915Y14452D01*
X7079Y11975D02*
Y12129D01*
X3390Y13926D02*
X4331Y12985D01*
X6984D01*
X7079Y12891D01*
Y12719D02*
Y12891D01*
X7500Y6621D02*
Y7322D01*
X2390Y4568D02*
X2890Y4068D01*
X6870Y5485D02*
X7043Y5659D01*
X3390Y4568D02*
X4307Y5485D01*
X6870D01*
X7043Y5659D02*
Y5770D01*
X7053Y5780D01*
X3390Y7568D02*
X4321Y6637D01*
X6935D02*
X7053Y6518D01*
X4321Y6637D02*
X6935D01*
D23*
X4961Y10049D02*
D03*
X6043D02*
D03*
X4961Y14813D02*
D03*
X6043D02*
D03*
X4961Y3612D02*
D03*
X6043D02*
D03*
X4961Y8435D02*
D03*
X6043D02*
D03*
Y11112D02*
D03*
X4961D02*
D03*
Y13713D02*
D03*
X6043D02*
D03*
X4961Y4776D02*
D03*
X6043D02*
D03*
X4961Y7355D02*
D03*
X6043D02*
D03*
D24*
X9199Y10042D02*
D03*
Y10436D02*
D03*
X9189Y9196D02*
D03*
Y9589D02*
D03*
X9435Y3005D02*
D03*
Y3398D02*
D03*
X9041Y3398D02*
D03*
Y3005D02*
D03*
X10222Y3339D02*
D03*
Y3733D02*
D03*
X17890Y8379D02*
D03*
Y7985D02*
D03*
X11413Y15052D02*
D03*
Y15446D02*
D03*
X14425Y15042D02*
D03*
Y15436D02*
D03*
X15813Y15603D02*
D03*
Y15209D02*
D03*
X17880Y17020D02*
D03*
Y16627D02*
D03*
X15833Y12660D02*
D03*
Y12267D02*
D03*
X17831Y14097D02*
D03*
Y13704D02*
D03*
X8697Y10436D02*
D03*
Y10042D02*
D03*
X8323Y11243D02*
D03*
Y10849D02*
D03*
X7929Y10446D02*
D03*
Y10052D02*
D03*
X9976Y9580D02*
D03*
Y9186D02*
D03*
X8618Y4127D02*
D03*
Y3733D02*
D03*
X8244Y4924D02*
D03*
Y4530D02*
D03*
X7860Y4146D02*
D03*
Y3753D02*
D03*
X10213Y4540D02*
D03*
Y4146D02*
D03*
X15252Y6233D02*
D03*
Y5839D02*
D03*
X15921Y8241D02*
D03*
Y7847D02*
D03*
X16866Y7631D02*
D03*
Y7237D02*
D03*
D25*
X10222Y2975D02*
D03*
X9829D02*
D03*
X18274Y16627D02*
D03*
X18667D02*
D03*
X17687Y18182D02*
D03*
X17294D02*
D03*
X16945Y6233D02*
D03*
X16551D02*
D03*
X17476Y16617D02*
D03*
X17083D02*
D03*
X18608Y13704D02*
D03*
X18215D02*
D03*
X17437D02*
D03*
X17043D02*
D03*
X17294Y17532D02*
D03*
X17687D02*
D03*
X17294Y18782D02*
D03*
X17687D02*
D03*
X9130Y11538D02*
D03*
X8736D02*
D03*
X9140Y12680D02*
D03*
X8746D02*
D03*
X9081Y5219D02*
D03*
X8687D02*
D03*
X9071Y6361D02*
D03*
X8677D02*
D03*
X20154Y7877D02*
D03*
X19760D02*
D03*
X20154Y8270D02*
D03*
X19760D02*
D03*
X17486Y6331D02*
D03*
X17880D02*
D03*
X17112Y8024D02*
D03*
X17506D02*
D03*
X16758Y5810D02*
D03*
X17152D02*
D03*
D26*
X10400Y21300D02*
D03*
X6400D02*
D03*
X10400Y20146D02*
D03*
X6400Y20146D02*
D03*
X12400Y21300D02*
D03*
X11400D02*
D03*
X8400D02*
D03*
X7400D02*
D03*
X5400D02*
D03*
X4400D02*
D03*
X12400Y20146D02*
D03*
X11400D02*
D03*
X8400D02*
D03*
X7400D02*
D03*
X5400D02*
D03*
X4400Y20146D02*
D03*
X9400Y21300D02*
D03*
X3400D02*
D03*
X9400Y20146D02*
D03*
X3400D02*
D03*
X9000Y1146D02*
D03*
X13000D02*
D03*
X9000Y2300D02*
D03*
X13000D02*
D03*
X8000Y1146D02*
D03*
X7000D02*
D03*
X12000D02*
D03*
X11000D02*
D03*
X14000D02*
D03*
X8000Y2300D02*
D03*
X7000D02*
D03*
X12000Y2300D02*
D03*
X11000Y2300D02*
D03*
X14000D02*
D03*
X10000Y1146D02*
D03*
Y2300D02*
D03*
X18000Y1146D02*
D03*
Y2300D02*
D03*
X16000Y1146D02*
D03*
X17000D02*
D03*
X20000D02*
D03*
X21000D02*
D03*
X16000Y2300D02*
D03*
X17000D02*
D03*
X20000D02*
D03*
X21000D02*
D03*
X19000Y1146D02*
D03*
X19000Y2300D02*
D03*
X14404Y17300D02*
D03*
Y16146D02*
D03*
X13404Y17300D02*
D03*
Y16146D02*
D03*
X9404Y17300D02*
D03*
Y16146D02*
D03*
X10404Y17300D02*
D03*
Y16146D02*
D03*
X4404Y17300D02*
D03*
Y16146D02*
D03*
X5404D02*
D03*
Y17300D02*
D03*
X6404Y16146D02*
D03*
Y17300D02*
D03*
X8404Y16146D02*
D03*
Y17300D02*
D03*
X7404Y16146D02*
D03*
Y17300D02*
D03*
X3404D02*
D03*
Y16146D02*
D03*
X12404D02*
D03*
Y17300D02*
D03*
X11404Y16146D02*
D03*
Y17300D02*
D03*
X18000Y20146D02*
D03*
Y21300D02*
D03*
X14000Y20146D02*
D03*
X17000D02*
D03*
X16000Y20146D02*
D03*
X21000Y20146D02*
D03*
X20000D02*
D03*
X14000Y21300D02*
D03*
X17000D02*
D03*
X16000D02*
D03*
X21000D02*
D03*
X20000D02*
D03*
X15000Y20146D02*
D03*
X19000D02*
D03*
X15000Y21300D02*
D03*
X19000D02*
D03*
D27*
X22425Y10723D02*
D03*
X20675D02*
D03*
X22425Y11723D02*
D03*
X20675D02*
D03*
X22425Y12723D02*
D03*
X20675D02*
D03*
D28*
X18519Y9215D02*
D03*
X17968D02*
D03*
X17940Y10170D02*
D03*
X18490D02*
D03*
D29*
X20669Y6991D02*
D03*
Y9156D02*
D03*
D30*
Y8672D02*
D03*
Y7475D02*
D03*
D31*
Y8270D02*
D03*
Y7877D02*
D03*
D32*
X13860Y4469D02*
D03*
Y5000D02*
D03*
X14352D02*
D03*
Y4469D02*
D03*
D33*
X15596Y4432D02*
D03*
D34*
X7545Y10446D02*
D03*
Y10052D02*
D03*
X16197Y15603D02*
D03*
Y15209D02*
D03*
X16207Y12267D02*
D03*
Y12660D02*
D03*
X12978Y10505D02*
D03*
Y10898D02*
D03*
X8313Y10042D02*
D03*
Y10436D02*
D03*
X8244Y3743D02*
D03*
Y4137D02*
D03*
X7476Y3753D02*
D03*
Y4146D02*
D03*
X15203Y7139D02*
D03*
Y6745D02*
D03*
X15098Y4380D02*
D03*
Y3986D02*
D03*
X16138Y4412D02*
D03*
Y4806D02*
D03*
X18274Y6125D02*
D03*
Y6518D02*
D03*
X18490Y8389D02*
D03*
Y7995D02*
D03*
D35*
X7919Y11879D02*
D03*
X7722D02*
D03*
X7526D02*
D03*
X7329D02*
D03*
X7919Y12969D02*
D03*
X7722D02*
D03*
X7526D02*
D03*
X7329D02*
D03*
X7303Y6621D02*
D03*
X7500D02*
D03*
X7697D02*
D03*
X7894D02*
D03*
X7303Y5530D02*
D03*
X7500D02*
D03*
X7697D02*
D03*
X7894D02*
D03*
D36*
X8169Y12719D02*
D03*
Y12522D02*
D03*
Y12326D02*
D03*
Y12129D02*
D03*
X7079Y12719D02*
D03*
Y12522D02*
D03*
Y12326D02*
D03*
Y12129D02*
D03*
X7053Y5780D02*
D03*
Y5977D02*
D03*
Y6174D02*
D03*
Y6371D02*
D03*
X8144Y5780D02*
D03*
Y5977D02*
D03*
Y6174D02*
D03*
Y6371D02*
D03*
D37*
X7624Y12424D02*
D03*
X7598Y6076D02*
D03*
D38*
X11704Y11518D02*
D03*
Y11322D02*
D03*
Y11125D02*
D03*
Y10928D02*
D03*
X12619D02*
D03*
Y11125D02*
D03*
Y11322D02*
D03*
Y11518D02*
D03*
D39*
X11965Y10864D02*
D03*
X12161D02*
D03*
X12358D02*
D03*
Y11582D02*
D03*
X12161D02*
D03*
X11965D02*
D03*
D40*
X11768Y8802D02*
D03*
Y8211D02*
D03*
X12506Y8202D02*
D03*
Y8792D02*
D03*
X13224Y8202D02*
D03*
Y8792D02*
D03*
D41*
X6354Y12680D02*
D03*
X5823D02*
D03*
X13860Y5423D02*
D03*
X14392D02*
D03*
X5774Y6351D02*
D03*
X6305D02*
D03*
X14360Y7657D02*
D03*
X13829D02*
D03*
D42*
X12496Y6150D02*
D03*
D43*
Y7083D02*
D03*
D44*
X15596Y7326D02*
D03*
Y6774D02*
D03*
X15488Y7778D02*
D03*
Y8330D02*
D03*
D45*
X14563Y6282D02*
D03*
Y6479D02*
D03*
Y6676D02*
D03*
Y6873D02*
D03*
D46*
X14396Y7129D02*
D03*
X14199D02*
D03*
Y6026D02*
D03*
X14396D02*
D03*
D48*
X18894Y14617D02*
D03*
Y15117D02*
D03*
Y15617D02*
D03*
Y16117D02*
D03*
X16748Y14617D02*
D03*
Y15117D02*
D03*
Y15617D02*
D03*
Y16117D02*
D03*
Y13187D02*
D03*
Y12687D02*
D03*
Y12187D02*
D03*
Y11687D02*
D03*
X18894Y13187D02*
D03*
Y12687D02*
D03*
Y12187D02*
D03*
Y11687D02*
D03*
D49*
X18441Y18398D02*
D03*
Y17828D02*
D03*
X18776D02*
D03*
Y18398D02*
D03*
D50*
X16059Y19206D02*
D03*
Y18950D02*
D03*
Y18694D02*
D03*
X16772D02*
D03*
Y18950D02*
D03*
Y19206D02*
D03*
X16764Y17931D02*
D03*
Y17675D02*
D03*
Y17419D02*
D03*
X16051D02*
D03*
Y17675D02*
D03*
Y17931D02*
D03*
D51*
X16415Y19137D02*
D03*
Y18763D02*
D03*
X16408Y17488D02*
D03*
Y17862D02*
D03*
D52*
X17319Y6893D02*
D03*
X17516D02*
D03*
X17713D02*
D03*
X17909D02*
D03*
X18106D02*
D03*
X17319Y7641D02*
D03*
X17516D02*
D03*
X17713D02*
D03*
X17909D02*
D03*
X18106D02*
D03*
D53*
X12329Y10475D02*
D03*
X11935D02*
D03*
X9140Y11922D02*
D03*
X8746D02*
D03*
X9140Y12306D02*
D03*
X8746D02*
D03*
X5951Y12099D02*
D03*
X6344D02*
D03*
X9081Y5603D02*
D03*
X8687D02*
D03*
X9081Y5977D02*
D03*
X8687D02*
D03*
X5892Y5731D02*
D03*
X6285D02*
D03*
D66*
X15468Y4221D02*
D03*
X15724Y4643D02*
D03*
X15468D02*
D03*
X15724Y4221D02*
D03*
D95*
X3500Y1723D02*
D03*
X21000Y18723D02*
D03*
D96*
X14002Y7129D02*
D03*
X13805D02*
D03*
Y6026D02*
D03*
X14002D02*
D03*
D97*
X13805Y6774D02*
D03*
Y6381D02*
D03*
D98*
X13874Y6578D02*
D03*
D99*
X7093Y13585D02*
D03*
X6935Y7207D02*
D03*
X6856Y9924D02*
D03*
X7063Y11312D02*
D03*
X6768Y3546D02*
D03*
X6925Y4954D02*
D03*
X14183Y8593D02*
D03*
X13280Y5003D02*
D03*
X21354Y5741D02*
D03*
X12663Y4461D02*
D03*
X17535Y4639D02*
D03*
X3390Y3599D02*
D03*
X2390D02*
D03*
X3390Y4599D02*
D03*
X2390D02*
D03*
X3390Y5599D02*
D03*
X2390D02*
D03*
X3390Y6599D02*
D03*
X2390D02*
D03*
X3390Y7599D02*
D03*
X2390D02*
D03*
X3390Y8599D02*
D03*
Y9926D02*
D03*
X2390D02*
D03*
X3390Y10926D02*
D03*
X2390D02*
D03*
X3390Y11926D02*
D03*
X2390D02*
D03*
X3390Y12926D02*
D03*
X2390D02*
D03*
X3390Y13926D02*
D03*
X2390D02*
D03*
X3390Y14926D02*
D03*
D100*
X17713Y7267D02*
D03*
D101*
X11413Y15032D02*
X14406D01*
X11207D02*
X11413D01*
X12536Y3919D02*
X15031D01*
X15098Y3986D01*
X10841Y10444D02*
X10843Y10446D01*
X10841Y8262D02*
Y10444D01*
X6357Y12099D02*
Y12367D01*
X6359Y12616D02*
Y12675D01*
Y12380D02*
Y12616D01*
X6305Y6025D02*
Y6026D01*
X6304Y6028D02*
Y6206D01*
X6285Y5731D02*
Y6006D01*
X6305Y6025D01*
X10843Y7541D02*
Y7542D01*
X11139Y5317D02*
Y7245D01*
X10843Y7541D02*
X11139Y7245D01*
X18499Y10161D02*
X18804D01*
X18490Y10170D02*
X18499Y10161D01*
X18804D02*
X18805Y10160D01*
X18804Y9206D02*
X18805Y9206D01*
X18519Y9215D02*
X18528Y9206D01*
X18804D01*
X18274Y6518D02*
X18500D01*
X18804Y6823D01*
Y7177D02*
X18805Y7178D01*
X20498Y10855D02*
Y11223D01*
X20630Y10723D02*
X20675D01*
X20498Y10855D02*
X20630Y10723D01*
X22425Y11723D02*
X22467Y11765D01*
Y12207D01*
X20626Y12772D02*
X20675Y12723D01*
X20626Y12772D02*
Y13231D01*
X20587Y11812D02*
X20675Y11723D01*
X20587Y11812D02*
Y12198D01*
X14360Y7667D02*
X14390Y7697D01*
X14733Y7726D02*
X14734D01*
X14360Y7657D02*
Y7667D01*
X14390Y7697D02*
X14704D01*
X14733Y7726D01*
X10843Y12650D02*
Y14776D01*
Y10446D02*
Y12650D01*
X10857Y14791D02*
X11098Y15032D01*
X11207D01*
X12477Y3978D02*
X12536Y3919D01*
X11139Y5317D02*
X12477Y3978D01*
D102*
X17063Y13528D02*
X17195Y13396D01*
Y12920D02*
Y13396D01*
X16982Y12707D02*
X17195Y12920D01*
X17063Y13528D02*
Y13694D01*
X16924Y12685D02*
X16946Y12707D01*
X16231Y12685D02*
X16924D01*
X15411Y13704D02*
X17053D01*
X16946Y12707D02*
X16982D01*
X16197Y15617D02*
X16748D01*
X14406Y15032D02*
X14415Y15022D01*
X16207Y12680D02*
X16226D01*
X12506Y8192D02*
X12516Y8202D01*
X12491Y8206D02*
X12506Y8192D01*
X13864Y7198D02*
X13884Y7178D01*
X13760Y8081D02*
X14173D01*
X13849Y5001D02*
X13860Y4990D01*
X13282Y5001D02*
X13849D01*
X13280Y5003D02*
X13282Y5001D01*
X14173Y8081D02*
X15072D01*
X14183Y8091D02*
Y8593D01*
X14173Y8081D02*
X14183Y8091D01*
X13698Y8143D02*
X13760Y8081D01*
X15072D02*
X15262Y8270D01*
X13805Y5141D02*
X13844Y5180D01*
X13280Y5003D02*
X13370D01*
X13844Y5180D02*
Y5190D01*
X17526Y4717D02*
Y5268D01*
X15085Y5219D02*
X15252Y5387D01*
X16138Y4826D02*
Y5200D01*
Y4806D02*
Y4826D01*
X18274Y6518D02*
Y6725D01*
X18116Y6883D02*
X18274Y6725D01*
X18116Y6883D02*
Y6893D01*
X18116Y7650D02*
X18126Y7660D01*
X18175D01*
X18490Y7975D01*
Y7995D01*
X19033Y8034D02*
Y8371D01*
Y7737D02*
Y8034D01*
X18994Y7995D02*
X19033Y8034D01*
X18490Y7995D02*
X18994D01*
X19335Y8672D02*
X20669D01*
X19033Y8371D02*
X19335Y8672D01*
X19033Y7737D02*
X19244Y7526D01*
X6344Y12099D02*
X6357D01*
Y12367D02*
X6364Y12375D01*
X17486Y16617D02*
X17496Y16627D01*
Y16745D02*
X17752Y17001D01*
X17496Y16627D02*
Y16745D01*
X17476Y16617D02*
X17486D01*
X17870Y17001D02*
X17880Y17011D01*
X17752Y17001D02*
X17870D01*
X17880Y17011D02*
Y17033D01*
X17890Y17023D01*
X18133D01*
X18254Y16902D01*
X15805Y16558D02*
X15864Y16617D01*
X15793Y16558D02*
X15805D01*
X15864Y16617D02*
X17083D01*
X17102Y16331D02*
X17220Y16213D01*
X16748Y15617D02*
X16756Y15624D01*
X17117D01*
X17220Y15728D02*
Y16213D01*
X17117Y15624D02*
X17220Y15728D01*
X17880Y15377D02*
Y16627D01*
X18140Y15117D02*
X18894D01*
X17880Y15377D02*
X18140Y15117D01*
X17102Y16331D02*
Y16607D01*
X17093Y16617D02*
X17102Y16607D01*
X15813Y15918D02*
X16012Y16117D01*
X15813Y15603D02*
Y15918D01*
X16012Y16117D02*
X16748D01*
X16197Y15603D02*
Y15617D01*
X18254Y16637D02*
Y16902D01*
Y16637D02*
X18264Y16627D01*
X18274D01*
X17821Y14117D02*
X18096D01*
X18215Y13999D01*
Y13704D02*
Y13999D01*
X17457Y13713D02*
Y13969D01*
X17447Y13704D02*
X17457Y13713D01*
X17437Y13704D02*
X17447D01*
X15833Y12660D02*
Y13015D01*
X16010Y13192D02*
X16719D01*
X16226Y12680D02*
X16231Y12685D01*
X16207Y12247D02*
X16226D01*
X16207Y12660D02*
Y12680D01*
X15833Y12267D02*
X16207D01*
X15833Y13015D02*
X16010Y13192D01*
X16226Y12247D02*
X16274Y12200D01*
X16207Y12247D02*
Y12267D01*
X18857Y12200D02*
X18865Y12192D01*
X18350Y12200D02*
X18857D01*
X17821Y12729D02*
X18350Y12200D01*
X17604Y14117D02*
X17821D01*
X17457Y13969D02*
X17604Y14117D01*
X17821Y12729D02*
Y13704D01*
X17053Y13704D02*
X17063Y13694D01*
X16712Y12200D02*
X16719Y12192D01*
X16274Y12200D02*
X16712D01*
X11728Y8172D02*
X11768Y8211D01*
X13047Y8202D02*
X13047Y8202D01*
X14415Y14707D02*
Y15022D01*
X20618Y7526D02*
X20669Y7475D01*
X19244Y7526D02*
X20618D01*
X15921Y8241D02*
Y8251D01*
X15911Y8261D02*
X15921Y8251D01*
X15902Y8261D02*
X15911D01*
X15892Y8270D02*
X15902Y8261D01*
X15547Y8270D02*
X15892D01*
X15488Y8330D02*
X15547Y8270D01*
X15429D02*
X15488Y8330D01*
X15262Y8270D02*
X15429D01*
X15252Y5387D02*
Y5839D01*
D103*
X17289Y18791D02*
X17303D01*
X17272Y18808D02*
X17289Y18791D01*
X17272Y18808D02*
Y19007D01*
X17074Y19206D02*
X17272Y19007D01*
X16766Y19206D02*
X17074D01*
X16839Y16890D02*
X17008D01*
X16495Y17234D02*
X16839Y16890D01*
X17008D02*
X17287Y17169D01*
Y17514D01*
X16770Y17931D02*
Y18092D01*
X16867Y18189D02*
X17244D01*
X16770Y18092D02*
X16867Y18189D01*
X16764Y17931D02*
X16770D01*
X17287Y17514D02*
X17313Y17539D01*
X17323D01*
X16758Y17931D02*
X16764D01*
X16437Y17488D02*
X16495Y17431D01*
Y17234D02*
Y17431D01*
X16331D02*
X16398Y17498D01*
X16214Y17431D02*
X16331D01*
X16212Y17429D02*
X16214Y17431D01*
X16061Y17429D02*
X16212D01*
X16745Y17918D02*
X16758Y17931D01*
X16408Y17862D02*
X16464Y17918D01*
X16745D01*
X16472Y19194D02*
X16754D01*
X16766Y19206D01*
X16415Y19137D02*
X16472Y19194D01*
X15873Y19206D02*
X16059D01*
X15833Y19225D02*
X15853D01*
X15873Y19206D01*
D104*
X11768Y8206D02*
X12491D01*
X13829Y7589D02*
X13900Y7517D01*
Y7224D02*
Y7517D01*
X13760Y8081D02*
X13819Y8022D01*
Y7667D02*
Y8022D01*
X13829Y7589D02*
Y7657D01*
X13860Y5582D02*
X13907Y5630D01*
Y5987D01*
X13860Y5423D02*
Y5582D01*
X13860Y5000D02*
Y5180D01*
Y5423D01*
X13860Y4990D02*
X14392D01*
X14580Y5000D02*
X14779Y5200D01*
X14352Y5000D02*
X14580D01*
X13283Y8143D02*
X13698D01*
X16138Y5200D02*
X18621D01*
X10401Y7896D02*
X10958D01*
X9624Y8674D02*
X10401Y7896D01*
X13224Y8202D02*
X13283Y8143D01*
X18621Y5200D02*
X18805Y5384D01*
Y6823D01*
X14779Y5200D02*
X15154D01*
X15173D02*
X16138D01*
X18804Y6823D02*
Y7177D01*
X10958Y7896D02*
X11233Y8172D01*
X11728D01*
X12516Y8202D02*
X13047D01*
X6846Y8674D02*
X9624D01*
D105*
X17358Y9215D02*
X17968D01*
X16512Y8891D02*
X16837Y9215D01*
X16512Y6660D02*
Y8891D01*
X16325Y9609D02*
X16876Y10160D01*
X16325Y6459D02*
Y9609D01*
X17329Y10170D02*
X17940D01*
X16512Y6660D02*
X16551Y6621D01*
Y6233D02*
Y6621D01*
X16207Y6046D02*
Y6341D01*
X16325Y6459D01*
X16443Y5810D02*
X16758D01*
X16207Y6046D02*
X16443Y5810D01*
X17201Y5819D02*
Y6479D01*
X17339Y6617D01*
X16984Y6272D02*
Y6509D01*
X16945Y6233D02*
X16984Y6272D01*
Y6509D02*
X17319Y6843D01*
X17102Y8024D02*
Y10308D01*
X17437Y10643D01*
X16925Y8024D02*
X17102D01*
X17437Y10643D02*
X18717D01*
X19209Y11135D01*
X17319Y6843D02*
Y6893D01*
X17339Y6617D02*
X17604D01*
X17711Y6891D02*
X17713Y6893D01*
X17711Y6723D02*
Y6891D01*
X17604Y6617D02*
X17711Y6723D01*
X16866Y7965D02*
X16925Y8024D01*
X16866Y7631D02*
Y7965D01*
X17102Y7867D02*
Y8024D01*
X17161Y7808D02*
X17262D01*
X17102Y7867D02*
X17161Y7808D01*
X17317Y7652D02*
Y7753D01*
X17262Y7808D02*
X17317Y7753D01*
Y7652D02*
X17319Y7650D01*
X20532Y15588D02*
X20537Y15593D01*
X20154Y7877D02*
X20154Y7877D01*
X20669D01*
X20154Y8270D02*
X20154Y8270D01*
X20669D01*
D106*
X22260Y12823D02*
X22360Y12723D01*
X22425D01*
X22260Y12823D02*
Y13241D01*
X10000Y1146D02*
Y1723D01*
X10000D02*
Y2300D01*
X7000Y1146D02*
Y2300D01*
Y1146D02*
X8000D01*
Y1723D02*
Y2300D01*
X11000Y1146D02*
Y1723D01*
Y2300D01*
D107*
X8506Y784D02*
X8703Y587D01*
X8000Y916D02*
Y1146D01*
Y916D02*
X8132Y784D01*
X8506D01*
X9254Y587D02*
X9451Y784D01*
X8703Y587D02*
X9254D01*
X10000Y916D02*
Y1146D01*
X9868Y784D02*
X10000Y916D01*
X9451Y784D02*
X9868D01*
X12496Y6150D02*
X12588Y6242D01*
X13283D02*
X13421Y6381D01*
X13805D01*
X12588Y6242D02*
X13283D01*
X12620Y6959D02*
X13197D01*
X12496Y7083D02*
X12620Y6959D01*
X13382Y6774D02*
X13805D01*
X13197Y6959D02*
X13382Y6774D01*
X15596Y4393D02*
X15715Y4274D01*
D108*
X9145Y11927D02*
X9607D01*
X9612Y11932D01*
X9140Y11922D02*
X9145Y11927D01*
X9617Y12311D02*
X9622Y12316D01*
X9140Y12306D02*
X9145Y12311D01*
X9617D01*
D109*
X10400Y20146D02*
Y20723D01*
X9400Y20146D02*
Y20723D01*
X7400Y19923D02*
Y20723D01*
X8400Y20146D02*
Y20723D01*
X3400Y19923D02*
Y20723D01*
X4400Y20146D02*
Y20723D01*
X19000Y20146D02*
Y20723D01*
Y21300D01*
X20000Y1723D02*
Y2300D01*
Y1146D02*
Y1723D01*
X11404Y16723D02*
Y17300D01*
X14404Y16146D02*
Y17300D01*
X14409Y15412D02*
Y16141D01*
X14404Y16146D02*
X14409Y16141D01*
Y15412D02*
X14415Y15406D01*
X11404Y16146D02*
Y16723D01*
X11413Y15436D02*
X11423Y15426D01*
X11413Y15436D02*
Y16137D01*
X11404Y16146D02*
X11413Y16137D01*
X13404Y16146D02*
Y17300D01*
X12404Y16146D02*
Y17300D01*
X14000Y20723D02*
Y21300D01*
Y20146D02*
Y20723D01*
X5400D02*
Y21300D01*
Y20146D02*
Y20723D01*
X4400D02*
Y21300D01*
X3400Y20723D02*
Y21300D01*
X8400Y20723D02*
Y21300D01*
X7400Y20723D02*
Y21300D01*
X16000Y1723D02*
Y2300D01*
Y1146D02*
Y1723D01*
X17000D02*
Y2300D01*
Y1146D02*
Y1723D01*
X18000D02*
Y2300D01*
Y1146D02*
Y1723D01*
X19000D02*
Y2300D01*
Y1146D02*
Y1723D01*
X21000D02*
Y2300D01*
Y1146D02*
Y1723D01*
X18000Y20146D02*
Y20723D01*
Y21300D01*
X12400Y20723D02*
Y21300D01*
Y20146D02*
Y20723D01*
X11400D02*
Y21300D01*
Y20146D02*
Y20723D01*
X9400D02*
Y21300D01*
X10400Y20723D02*
Y21300D01*
X15000Y20146D02*
Y20723D01*
Y21300D01*
X20000Y20146D02*
Y20723D01*
Y21300D01*
X21000Y20146D02*
Y20723D01*
Y21300D01*
X9000Y1146D02*
Y1723D01*
Y2300D01*
X14000Y1146D02*
Y1723D01*
Y2300D01*
X10400Y16723D02*
Y17300D01*
Y16146D02*
Y16723D01*
X9400D02*
Y17300D01*
Y16146D02*
Y16723D01*
X8400D02*
Y17300D01*
Y16146D02*
Y16723D01*
X5400D02*
Y17300D01*
Y16146D02*
Y16723D01*
X4400D02*
Y17300D01*
Y16146D02*
Y16723D01*
X6400D02*
Y17300D01*
X7400Y16723D02*
Y17300D01*
Y16146D02*
Y16723D01*
X6400Y16146D02*
Y16723D01*
X3400Y16146D02*
Y16723D01*
Y17300D01*
D110*
X13904Y6026D02*
D03*
Y7129D02*
D03*
D111*
X22197Y6373D02*
D03*
Y9774D02*
D03*
X20701Y6373D02*
D03*
Y9774D02*
D03*
D112*
X2390Y8599D02*
D03*
Y14926D02*
D03*
D113*
X20774Y16666D02*
D03*
Y17454D02*
D03*
D114*
X13137Y22403D02*
D03*
X13531D02*
D03*
X12743D02*
D03*
X12746Y0D02*
D03*
X13533D02*
D03*
X13140D02*
D03*
X23300Y13927D02*
D03*
Y14320D02*
D03*
Y13533D02*
D03*
X23300Y5382D02*
D03*
Y5776D02*
D03*
Y4988D02*
D03*
X-0Y4988D02*
D03*
Y5776D02*
D03*
Y5382D02*
D03*
Y13533D02*
D03*
Y14320D02*
D03*
Y13927D02*
D03*
X17713Y7267D02*
D03*
X17339D02*
D03*
X18087D02*
D03*
D115*
X22000Y3723D02*
D03*
Y14723D02*
D03*
X1500Y1723D02*
D03*
X2000Y20723D02*
D03*
D116*
X4508Y13445D02*
D03*
Y13720D02*
D03*
X6762Y15315D02*
D03*
X7116D02*
D03*
X17516Y12877D02*
D03*
Y13339D02*
D03*
X17293Y12411D02*
D03*
X5394Y18602D02*
D03*
X17451Y17854D02*
D03*
X16921Y17177D02*
D03*
X17032Y17900D02*
D03*
X6191Y18622D02*
D03*
X6988D02*
D03*
X14006Y18602D02*
D03*
X13706D02*
D03*
X13081D02*
D03*
X16329Y16932D02*
D03*
X13287Y11782D02*
D03*
X13740Y12008D02*
D03*
X13297Y12343D02*
D03*
X13789Y12864D02*
D03*
X13287Y13041D02*
D03*
X13406Y13474D02*
D03*
X13858Y13593D02*
D03*
X11545Y10640D02*
D03*
X11191Y10778D02*
D03*
Y11211D02*
D03*
Y11713D02*
D03*
Y12293D02*
D03*
Y12815D02*
D03*
Y13406D02*
D03*
Y13947D02*
D03*
X11191Y14400D02*
D03*
X11378Y14626D02*
D03*
X10841Y8262D02*
D03*
X15767Y17464D02*
D03*
X16053Y17116D02*
D03*
X15787Y16939D02*
D03*
X16063Y18268D02*
D03*
X9242Y7047D02*
D03*
X1850Y7018D02*
D03*
X1585Y7352D02*
D03*
X1722Y12165D02*
D03*
X295Y16841D02*
D03*
X1398Y18169D02*
D03*
X492Y5876D02*
D03*
X423Y6880D02*
D03*
X463Y7913D02*
D03*
X472Y8888D02*
D03*
X433Y9990D02*
D03*
X374Y10866D02*
D03*
X443Y11752D02*
D03*
X404Y12756D02*
D03*
X413Y13829D02*
D03*
X394Y14764D02*
D03*
Y15709D02*
D03*
X354Y17805D02*
D03*
X955Y17736D02*
D03*
X797Y15246D02*
D03*
Y14213D02*
D03*
X807Y13228D02*
D03*
X827Y12205D02*
D03*
X837Y11270D02*
D03*
X807Y10433D02*
D03*
X817Y9350D02*
D03*
X787Y8297D02*
D03*
X15833Y19225D02*
D03*
X10843Y7542D02*
D03*
X14931Y4783D02*
D03*
X16049Y5662D02*
D03*
X16886Y4639D02*
D03*
X17024Y4265D02*
D03*
X18372Y4835D02*
D03*
X18343Y4284D02*
D03*
X19150Y4265D02*
D03*
X19278Y4993D02*
D03*
X19898Y5013D02*
D03*
X20035Y5564D02*
D03*
X19376D02*
D03*
X19396Y6312D02*
D03*
X19927Y6302D02*
D03*
X19986Y7050D02*
D03*
X19396Y7040D02*
D03*
X17870Y5928D02*
D03*
X17880Y5623D02*
D03*
X17555D02*
D03*
X15774Y5593D02*
D03*
X15783Y5839D02*
D03*
X15774Y6174D02*
D03*
X16600Y9471D02*
D03*
X16846Y9717D02*
D03*
X16817Y8280D02*
D03*
X16837Y8704D02*
D03*
X17358Y9215D02*
D03*
X16837D02*
D03*
X16876Y10160D02*
D03*
X17329Y10170D02*
D03*
X18805Y9206D02*
D03*
Y10160D02*
D03*
Y7178D02*
D03*
X19209Y11135D02*
D03*
X18185Y8428D02*
D03*
X18402Y7139D02*
D03*
X18402Y7434D02*
D03*
X17486Y5957D02*
D03*
X17565Y8517D02*
D03*
X16738Y6893D02*
D03*
X17024D02*
D03*
X18254Y5810D02*
D03*
X4051Y4432D02*
D03*
X4169Y4776D02*
D03*
X10459Y9442D02*
D03*
X10498Y8605D02*
D03*
X11236Y9304D02*
D03*
X11226Y10081D02*
D03*
X11207Y8635D02*
D03*
X13484Y4262D02*
D03*
X13195Y4501D02*
D03*
X17545Y15652D02*
D03*
X17535Y16194D02*
D03*
X14858Y8477D02*
D03*
X15980Y8743D02*
D03*
X19632Y10475D02*
D03*
X19652Y10879D02*
D03*
X20075Y12227D02*
D03*
X19789Y11243D02*
D03*
X10551Y3691D02*
D03*
X4183Y14242D02*
D03*
X4878Y17237D02*
D03*
X4917Y16568D02*
D03*
X4927Y15839D02*
D03*
X3904Y17306D02*
D03*
X3894Y16558D02*
D03*
Y15889D02*
D03*
X21531Y19373D02*
D03*
X21551Y20190D02*
D03*
Y20997D02*
D03*
X896Y19646D02*
D03*
X390Y20091D02*
D03*
X463Y19134D02*
D03*
X1427Y19518D02*
D03*
X2880Y17394D02*
D03*
X2890Y16725D02*
D03*
X2841Y15839D02*
D03*
X2240Y15820D02*
D03*
X728Y7362D02*
D03*
X886Y6388D02*
D03*
X1781Y11270D02*
D03*
X1722Y10394D02*
D03*
X1738Y9343D02*
D03*
X1709Y8300D02*
D03*
X449Y2759D02*
D03*
X1571Y5347D02*
D03*
X837Y5207D02*
D03*
X734Y3674D02*
D03*
X1581Y3733D02*
D03*
X3136Y2719D02*
D03*
X6089Y1017D02*
D03*
X4711Y1026D02*
D03*
X6128Y1952D02*
D03*
X4730Y1932D02*
D03*
X4602Y2946D02*
D03*
X6197Y2847D02*
D03*
X7496Y1794D02*
D03*
X7526Y2522D02*
D03*
X11522Y1066D02*
D03*
X11541Y1656D02*
D03*
X11512Y2296D02*
D03*
X12486Y1007D02*
D03*
X12467Y1715D02*
D03*
X12476Y2375D02*
D03*
X13470Y997D02*
D03*
X13490Y1617D02*
D03*
X13470Y2257D02*
D03*
X16502Y879D02*
D03*
X16512Y1469D02*
D03*
X16502Y2070D02*
D03*
X17476Y879D02*
D03*
X17496Y1499D02*
D03*
X17565Y2099D02*
D03*
X18500Y830D02*
D03*
X18539Y1706D02*
D03*
X18500Y2562D02*
D03*
X19504Y869D02*
D03*
X19514Y1706D02*
D03*
X19494Y2473D02*
D03*
X20468Y1046D02*
D03*
X20498Y1952D02*
D03*
Y2562D02*
D03*
X21600Y987D02*
D03*
X21630Y1784D02*
D03*
X21797Y2355D02*
D03*
X21394Y4914D02*
D03*
X20715Y4333D02*
D03*
X22181Y5180D02*
D03*
X22831Y4934D02*
D03*
X22929Y5603D02*
D03*
X22211Y5702D02*
D03*
X22722Y7444D02*
D03*
X22201Y7414D02*
D03*
Y8290D02*
D03*
X22762Y8270D02*
D03*
X22752Y9048D02*
D03*
X22191Y9018D02*
D03*
X22825Y13632D02*
D03*
X21276Y13477D02*
D03*
X20646Y14048D02*
D03*
X21482Y16115D02*
D03*
X21522Y17965D02*
D03*
X20449Y18172D02*
D03*
X18746Y18920D02*
D03*
X20508Y21607D02*
D03*
X20468Y20908D02*
D03*
X20488Y20150D02*
D03*
X19504Y21509D02*
D03*
Y20830D02*
D03*
X19533Y20190D02*
D03*
X18500Y21578D02*
D03*
X18530Y20889D02*
D03*
X18490Y20229D02*
D03*
X17526Y21637D02*
D03*
X17506Y20780D02*
D03*
X17496Y19983D02*
D03*
X3874Y21725D02*
D03*
X3884Y20770D02*
D03*
Y19993D02*
D03*
X4898Y21656D02*
D03*
X4888Y20820D02*
D03*
Y19993D02*
D03*
X5911Y21656D02*
D03*
X5902Y20810D02*
D03*
X5931Y20013D02*
D03*
X6886Y21558D02*
D03*
X6906Y20593D02*
D03*
X6945Y19914D02*
D03*
X7909Y21686D02*
D03*
X7880Y20702D02*
D03*
Y19894D02*
D03*
X8923Y21646D02*
D03*
X8913Y20682D02*
D03*
X8894Y19944D02*
D03*
X9907Y21646D02*
D03*
X9878Y20652D02*
D03*
Y20003D02*
D03*
X10911Y21676D02*
D03*
Y20790D02*
D03*
X10892Y19924D02*
D03*
X11876Y21518D02*
D03*
X11896Y20721D02*
D03*
Y20141D02*
D03*
X12860Y20406D02*
D03*
X12890Y20987D02*
D03*
X13520Y21627D02*
D03*
X12929D02*
D03*
X13490Y21026D02*
D03*
X13500Y20456D02*
D03*
X14533Y21430D02*
D03*
X14494Y20908D02*
D03*
Y20406D02*
D03*
X14484Y19924D02*
D03*
X15468Y20259D02*
D03*
X15488Y21204D02*
D03*
X15508Y21637D02*
D03*
X15488Y20672D02*
D03*
X15468Y19914D02*
D03*
X22260Y13241D02*
D03*
X22703Y10180D02*
D03*
X22457Y11223D02*
D03*
X22122Y11213D02*
D03*
X22467Y12207D02*
D03*
X20587Y12198D02*
D03*
X20498Y11223D02*
D03*
X20626Y13231D02*
D03*
X8480Y1459D02*
D03*
X8500Y2001D02*
D03*
X8480Y2503D02*
D03*
X9514Y1400D02*
D03*
X9524Y1912D02*
D03*
Y2444D02*
D03*
X13067Y6587D02*
D03*
X19406Y7867D02*
D03*
X19337Y8280D02*
D03*
X6719Y12326D02*
D03*
X8805Y4835D02*
D03*
X14848Y5977D02*
D03*
X16492Y4402D02*
D03*
X16709Y4816D02*
D03*
X20705Y5849D02*
D03*
X21236Y6706D02*
D03*
X20419Y3526D02*
D03*
X20616Y3162D02*
D03*
X19346Y3015D02*
D03*
X19041Y3300D02*
D03*
X18146Y3103D02*
D03*
X17565Y3113D02*
D03*
X16650Y2975D02*
D03*
X15281Y869D02*
D03*
X14730Y967D02*
D03*
X15311Y1735D02*
D03*
X15321Y2424D02*
D03*
X15045Y2788D02*
D03*
X9612Y11932D02*
D03*
X9622Y12316D02*
D03*
X18992Y14137D02*
D03*
X18638Y14166D02*
D03*
X18992Y13664D02*
D03*
X17604Y11745D02*
D03*
X18047D02*
D03*
X17624Y12139D02*
D03*
X17585Y15042D02*
D03*
X19268Y19452D02*
D03*
X18333Y19422D02*
D03*
X17943Y19282D02*
D03*
X17427Y19452D02*
D03*
X18175Y18782D02*
D03*
X2618Y19193D02*
D03*
X325Y18504D02*
D03*
X3067Y19176D02*
D03*
X3500Y18753D02*
D03*
X4193Y19045D02*
D03*
X3844Y19501D02*
D03*
X4898D02*
D03*
X5035Y19186D02*
D03*
X5980Y19471D02*
D03*
X6581Y19393D02*
D03*
X6945Y18959D02*
D03*
X7535Y18595D02*
D03*
X7919Y19422D02*
D03*
X8156Y18989D02*
D03*
X8835Y18635D02*
D03*
X9396Y18615D02*
D03*
X10222Y18595D02*
D03*
X11079Y18615D02*
D03*
X9228Y19137D02*
D03*
X8904Y19530D02*
D03*
X9967Y19422D02*
D03*
X11010Y19501D02*
D03*
X11935Y19619D02*
D03*
X13195Y20013D02*
D03*
X13490Y19501D02*
D03*
X13736Y19146D02*
D03*
X14524Y19471D02*
D03*
X14494Y19097D02*
D03*
X14524Y18763D02*
D03*
X15291Y19471D02*
D03*
X15311Y18999D02*
D03*
X15606Y18595D02*
D03*
X15709Y18248D02*
D03*
X18972Y16883D02*
D03*
X18667Y17001D02*
D03*
X17280Y14934D02*
D03*
X17319Y15268D02*
D03*
X16197Y14875D02*
D03*
X15803D02*
D03*
X15468Y13231D02*
D03*
X15419Y12778D02*
D03*
X15498Y12276D02*
D03*
X15862Y11932D02*
D03*
X16236D02*
D03*
X17293Y12047D02*
D03*
X13303Y10485D02*
D03*
X12654Y10239D02*
D03*
Y10524D02*
D03*
X12299Y11194D02*
D03*
X11994D02*
D03*
X6699Y12089D02*
D03*
X6659Y5751D02*
D03*
X6669Y5967D02*
D03*
X5439Y6351D02*
D03*
X6305Y6026D02*
D03*
X9465Y5967D02*
D03*
X9445Y5593D02*
D03*
X14734Y7726D02*
D03*
X14888Y7001D02*
D03*
X14740Y5603D02*
D03*
X21089Y9176D02*
D03*
X21217Y7139D02*
D03*
X15921Y6755D02*
D03*
X16325Y4009D02*
D03*
X16069Y4078D02*
D03*
X15715Y3940D02*
D03*
X14793Y4547D02*
D03*
X15203Y4688D02*
D03*
X9425Y3763D02*
D03*
X9780Y3408D02*
D03*
X7496D02*
D03*
X8244Y3369D02*
D03*
X8638D02*
D03*
X4524Y4471D02*
D03*
Y4767D02*
D03*
Y5062D02*
D03*
X5478Y5731D02*
D03*
X4218Y7188D02*
D03*
X4514Y7030D02*
D03*
Y7345D02*
D03*
Y7660D02*
D03*
X7535Y9668D02*
D03*
X8707Y9727D02*
D03*
X8313D02*
D03*
X9031Y10810D02*
D03*
X8402Y15141D02*
D03*
X7811Y14826D02*
D03*
X7496Y15141D02*
D03*
X4189Y12424D02*
D03*
X4819Y12385D02*
D03*
X4508Y13996D02*
D03*
X5547Y12119D02*
D03*
X5429Y12709D02*
D03*
X4528Y10817D02*
D03*
Y11137D02*
D03*
Y11457D02*
D03*
X4661Y9501D02*
D03*
X5843D02*
D03*
X4661Y8979D02*
D03*
X5646D02*
D03*
X7614Y7778D02*
D03*
X7260Y8202D02*
D03*
X8598Y8261D02*
D03*
X8136Y8270D02*
D03*
X9189D02*
D03*
X10370Y9944D02*
D03*
X9976Y10534D02*
D03*
X10370D02*
D03*
X9780Y11125D02*
D03*
X10370D02*
D03*
Y11912D02*
D03*
Y15062D02*
D03*
X9583D02*
D03*
X8992Y14471D02*
D03*
X10173D02*
D03*
Y13881D02*
D03*
X8992D02*
D03*
Y13290D02*
D03*
X10173D02*
D03*
X14307Y14078D02*
D03*
Y13487D02*
D03*
Y12700D02*
D03*
Y11715D02*
D03*
X14701Y10928D02*
D03*
X15685D02*
D03*
X16472D02*
D03*
X17457D02*
D03*
X15685Y9747D02*
D03*
X16079Y10534D02*
D03*
X15094D02*
D03*
X14110D02*
D03*
X14898Y9747D02*
D03*
X13717D02*
D03*
X14898Y9156D02*
D03*
X13815Y9078D02*
D03*
X13382Y9245D02*
D03*
X20537Y15593D02*
D03*
X16531Y19767D02*
D03*
X11650Y18602D02*
D03*
X8313Y18576D02*
D03*
X12368Y18602D02*
D03*
X12703D02*
D03*
X15396Y13716D02*
D03*
X14061Y14658D02*
D03*
X15793Y16558D02*
D03*
X13736Y14668D02*
D03*
X13106Y14688D02*
D03*
X12713Y14678D02*
D03*
X12083Y14717D02*
D03*
X11768D02*
D03*
X7919Y9511D02*
D03*
X7880Y15209D02*
D03*
X8913Y15219D02*
D03*
X9888Y4580D02*
D03*
X13264Y5544D02*
D03*
X13008D02*
D03*
X12713D02*
D03*
X12398D02*
D03*
X13470Y7513D02*
D03*
X13313Y7729D02*
D03*
X13018Y7719D02*
D03*
X12713Y7709D02*
D03*
X12407D02*
D03*
X12073Y7700D02*
D03*
X11778D02*
D03*
X14415Y14707D02*
D03*
X10537Y4068D02*
D03*
X10193Y8831D02*
D03*
X13087Y9235D02*
D03*
X12348Y9245D02*
D03*
X11906Y5121D02*
D03*
X11640Y9255D02*
D03*
X12083Y5524D02*
D03*
X11935Y9274D02*
D03*
X12683Y9245D02*
D03*
X11472Y5928D02*
D03*
X11482Y6233D02*
D03*
X11472Y6597D02*
D03*
Y6942D02*
D03*
Y7237D02*
D03*
X11492Y7542D02*
D03*
X11758Y5534D02*
D03*
X6364Y12375D02*
D03*
X6846Y8674D02*
D03*
X9120Y6735D02*
D03*
X14404Y16723D02*
D03*
X13404D02*
D03*
X12404D02*
D03*
X11404D02*
D03*
D117*
X2815Y21900D02*
D03*
X10915Y15787D02*
D03*
X10925Y16644D02*
D03*
X10906Y17490D02*
D03*
X9911Y17510D02*
D03*
X9941Y16732D02*
D03*
X9921Y15768D02*
D03*
X13435Y5906D02*
D03*
X13474Y7185D02*
D03*
X13465Y4518D02*
D03*
X14793Y4291D02*
D03*
X10738Y3337D02*
D03*
X8799Y6722D02*
D03*
D118*
X10000Y1723D02*
D03*
X20000D02*
D03*
X7000D02*
D03*
X5400Y20723D02*
D03*
X4400D02*
D03*
X3400D02*
D03*
X8400D02*
D03*
X7400D02*
D03*
X16000Y1723D02*
D03*
X17000D02*
D03*
X18000D02*
D03*
X19000D02*
D03*
X21000D02*
D03*
X18000Y20723D02*
D03*
X17000D02*
D03*
X12400D02*
D03*
X11400D02*
D03*
X14000D02*
D03*
Y1723D02*
D03*
X8000D02*
D03*
X9000D02*
D03*
X9400Y20723D02*
D03*
X10400D02*
D03*
X15000D02*
D03*
X16000D02*
D03*
X19000D02*
D03*
X20000D02*
D03*
X21000D02*
D03*
X11000Y1723D02*
D03*
X12000Y1723D02*
D03*
X13000D02*
D03*
X6400Y20723D02*
D03*
X10400Y16723D02*
D03*
X9400D02*
D03*
X8400D02*
D03*
X5400D02*
D03*
X4400D02*
D03*
X3400D02*
D03*
X6400D02*
D03*
X7400D02*
D03*
M02*
