G04*
G04 #@! TF.GenerationSoftware,Altium Limited,Altium Designer,22.6.1 (34)*
G04*
G04 Layer_Color=16711935*
%FSLAX24Y24*%
%MOIN*%
G70*
G04*
G04 #@! TF.SameCoordinates,96953D4B-66F2-4494-BDAD-B8F046598AF4*
G04*
G04*
G04 #@! TF.FilePolarity,Negative*
G04*
G01*
G75*
%ADD55C,0.0651*%
%ADD83R,0.0462X0.0922*%
%ADD86C,0.0787*%
%ADD90R,0.0651X0.0651*%
%ADD91C,0.0296*%
%ADD92O,0.0709X0.0472*%
%ADD93O,0.0847X0.0572*%
%ADD94C,0.1320*%
%ADD120R,0.0934X0.0462*%
D55*
X3390Y9926D02*
D03*
X2390D02*
D03*
X3390Y10926D02*
D03*
X2390D02*
D03*
X3390Y11926D02*
D03*
X2390D02*
D03*
X3390Y12926D02*
D03*
X2390D02*
D03*
X3390Y13926D02*
D03*
X2390D02*
D03*
X3390Y14926D02*
D03*
Y8599D02*
D03*
X2390Y7599D02*
D03*
X3390D02*
D03*
X2390Y6599D02*
D03*
X3390D02*
D03*
X2390Y5599D02*
D03*
X3390D02*
D03*
X2390Y4599D02*
D03*
X3390D02*
D03*
X2390Y3599D02*
D03*
X3390D02*
D03*
D83*
X4400Y21300D02*
D03*
Y20146D02*
D03*
X3400Y21300D02*
D03*
Y20146D02*
D03*
X12400D02*
D03*
Y21300D02*
D03*
X8400D02*
D03*
Y20146D02*
D03*
X7400Y21300D02*
D03*
Y20146D02*
D03*
X9400Y21300D02*
D03*
Y20146D02*
D03*
X10400Y21300D02*
D03*
Y20146D02*
D03*
X11400D02*
D03*
Y21300D02*
D03*
X5400Y20146D02*
D03*
Y21300D02*
D03*
X6400Y20146D02*
D03*
Y21300D02*
D03*
X21000Y20146D02*
D03*
Y21300D02*
D03*
X17000D02*
D03*
Y20146D02*
D03*
X16000Y21300D02*
D03*
Y20146D02*
D03*
X18000Y21300D02*
D03*
Y20146D02*
D03*
X19000Y21300D02*
D03*
Y20146D02*
D03*
X20000D02*
D03*
Y21300D02*
D03*
X14000Y20146D02*
D03*
Y21300D02*
D03*
X15000Y20146D02*
D03*
Y21300D02*
D03*
X16000Y2300D02*
D03*
Y1146D02*
D03*
X20000D02*
D03*
Y2300D02*
D03*
X21000Y1146D02*
D03*
Y2300D02*
D03*
X19000Y1146D02*
D03*
Y2300D02*
D03*
X18000Y1146D02*
D03*
Y2300D02*
D03*
X17000D02*
D03*
Y1146D02*
D03*
X7000Y2300D02*
D03*
Y1146D02*
D03*
X11000D02*
D03*
Y2300D02*
D03*
X12000Y1146D02*
D03*
Y2300D02*
D03*
X10000Y1146D02*
D03*
Y2300D02*
D03*
X9000Y1146D02*
D03*
Y2300D02*
D03*
X8000D02*
D03*
Y1146D02*
D03*
X14000Y2300D02*
D03*
Y1146D02*
D03*
X13000Y2300D02*
D03*
Y1146D02*
D03*
X14404Y16146D02*
D03*
Y17300D02*
D03*
X13404Y16146D02*
D03*
Y17300D02*
D03*
X9404Y16146D02*
D03*
Y17300D02*
D03*
X10404Y16146D02*
D03*
Y17300D02*
D03*
X4404Y16146D02*
D03*
Y17300D02*
D03*
X5404D02*
D03*
Y16146D02*
D03*
X6404Y17300D02*
D03*
Y16146D02*
D03*
X8404Y17300D02*
D03*
Y16146D02*
D03*
X7404Y17300D02*
D03*
Y16146D02*
D03*
X3404D02*
D03*
Y17300D02*
D03*
X12404D02*
D03*
Y16146D02*
D03*
X11404Y17300D02*
D03*
Y16146D02*
D03*
D86*
X3500Y1723D02*
D03*
X21000Y18723D02*
D03*
D90*
X2390Y14926D02*
D03*
Y8599D02*
D03*
D91*
X13137Y22403D02*
D03*
X13531D02*
D03*
X12743D02*
D03*
X12746Y0D02*
D03*
X13533D02*
D03*
X13140D02*
D03*
X23300Y13927D02*
D03*
Y14320D02*
D03*
Y13533D02*
D03*
X23300Y5382D02*
D03*
Y5776D02*
D03*
Y4988D02*
D03*
X-0Y4988D02*
D03*
Y5776D02*
D03*
Y5382D02*
D03*
Y13533D02*
D03*
Y14320D02*
D03*
Y13927D02*
D03*
D92*
X20701Y9774D02*
D03*
Y6373D02*
D03*
X22197Y9774D02*
D03*
Y6373D02*
D03*
D93*
X20774Y17454D02*
D03*
Y16666D02*
D03*
D94*
X22000Y3723D02*
D03*
Y14723D02*
D03*
X1500Y1723D02*
D03*
X2000Y20723D02*
D03*
D120*
X22662Y12723D02*
D03*
Y11723D02*
D03*
X20438Y12723D02*
D03*
Y11723D02*
D03*
X22662Y10723D02*
D03*
X20438D02*
D03*
M02*
